<?xml version="1.0" encoding="UTF-8" standalone="no"?>
<svg
   xmlns:dc="http://purl.org/dc/elements/1.1/"
   xmlns:cc="http://creativecommons.org/ns#"
   xmlns:rdf="http://www.w3.org/1999/02/22-rdf-syntax-ns#"
   xmlns:svg="http://www.w3.org/2000/svg"
   xmlns="http://www.w3.org/2000/svg"
   xmlns:sodipodi="http://sodipodi.sourceforge.net/DTD/sodipodi-0.dtd"
   xmlns:inkscape="http://www.inkscape.org/namespaces/inkscape"
   width="64"
   height="64"
   viewBox="0 0 64 64"
   fill="none"
   version="1.1"
   id="svg18"
   sodipodi:docname="armor_storage.svg"
   inkscape:export-filename="C:\ss14\space-station-14\Resources\Textures\Interface\Inventory\armor_storage.svg.96dpi.png"
   inkscape:export-xdpi="96"
   inkscape:export-ydpi="96"
   inkscape:version="1.0.1 (3bc2e813f5, 2020-09-07)">
  <metadata
     id="metadata24">
    <rdf:RDF>
      <cc:Work
         rdf:about="">
        <dc:format>image/svg+xml</dc:format>
        <dc:type
           rdf:resource="http://purl.org/dc/dcmitype/StillImage" />
      </cc:Work>
    </rdf:RDF>
  </metadata>
  <defs
     id="defs22" />
  <sodipodi:namedview
     pagecolor="#ffffff"
     bordercolor="#666666"
     borderopacity="1"
     objecttolerance="10"
     gridtolerance="10"
     guidetolerance="10"
     inkscape:pageopacity="0"
     inkscape:pageshadow="2"
     inkscape:window-width="2560"
     inkscape:window-height="1377"
     id="namedview20"
     showgrid="false"
     inkscape:zoom="15.75"
     inkscape:cx="32"
     inkscape:cy="32"
     inkscape:window-x="1912"
     inkscape:window-y="-8"
     inkscape:window-maximized="1"
     inkscape:current-layer="svg18" />
  <rect
     x="1"
     y="1"
     width="62"
     height="62"
     fill="#24242B"
     stroke="#3A4051"
     stroke-width="2"
     id="rect2" />
  <path
     fill-rule="evenodd"
     clip-rule="evenodd"
     d="M46.4118 24.1295C46.4118 26.8137 47.5682 29.1742 49.4295 30.2899C49.7605 30.4884 49.9631 30.846 49.9632 31.232V49.3906C49.9632 49.9971 49.4714 50.4889 48.8648 50.4889H44.1799H44.177H16.1346C15.5281 50.4889 15.0363 49.9971 15.0363 49.3906V36.2131V36.2075V31.2699C15.0363 30.8839 15.2389 30.5262 15.57 30.3278C17.4253 29.2156 18.6242 26.7827 18.6242 24.1295C18.6242 21.7114 17.5359 19.9357 16.6229 18.8719C16.1205 18.2866 15.9633 17.5284 16.1914 16.7917C16.4195 16.055 16.9777 15.5184 17.7227 15.3193L26.1649 13.0631C26.6584 12.931 27.1779 13.157 27.418 13.6081C28.4136 15.4787 30.3468 16.6407 32.4631 16.6407C34.5897 16.6407 36.5272 15.4704 37.5196 13.5865C37.7586 13.1329 38.2795 12.905 38.775 13.0373L47.3134 15.3194C48.0585 15.5185 48.6166 16.0553 48.8446 16.7919C49.0726 17.5284 48.9154 18.2865 48.4132 18.8719C47.5001 19.9358 46.4118 21.7114 46.4118 24.1295ZM18.2899 17.4415C19.4444 18.7867 20.8208 21.0392 20.8208 24.1295C20.8208 27.3419 19.4607 30.2404 17.233 31.8589V35.112V48.2923H19.8055H21.9192H43.0802H44.2153H47.7665V35.112V31.8206C45.5614 30.214 44.2153 27.3305 44.2153 24.1295C44.2153 21.0392 45.5916 18.7867 46.7462 17.4413L39.0058 15.3728C37.5426 17.5297 35.1087 18.8374 32.4631 18.8374C29.8305 18.8374 27.4027 17.539 25.9375 15.3976L18.2899 17.4415Z"
     fill="#50536B"
     id="path4" />
  <path
     fill-rule="evenodd"
     clip-rule="evenodd"
     d="M32.0027 38H31.992C31.4412 38 31 38.4475 31 39C31 39.5523 31.4517 40 32.0026 40C32.5535 40 33 39.5525 33 39C33.0001 38.4477 32.5536 38 32.0027 38Z"
     fill="#50536B"
     id="path6" />
  <path
     fill-rule="evenodd"
     clip-rule="evenodd"
     d="M53.0026 38H52.992C52.4412 38 52 38.4475 52 39C52 39.5523 52.4517 40 53.0026 40C53.5535 40 54 39.5525 54 39C54 38.4477 53.5536 38 53.0026 38Z"
     fill="#50536B"
     id="path8" />
  <path
     fill-rule="evenodd"
     clip-rule="evenodd"
     d="M45.0026 38H44.992C44.4412 38 44 38.4475 44 39C44 39.5523 44.4517 40 45.0026 40C45.5535 40 46 39.5525 46 39C46 38.4477 45.5536 38 45.0026 38Z"
     fill="#50536B"
     id="path10" />
  <path
     fill-rule="evenodd"
     clip-rule="evenodd"
     d="M20.0026 38H19.992C19.4412 38 19 38.4475 19 39C19 39.5523 19.4517 40 20.0026 40C20.5535 40 21 39.5525 21 39C21 38.4477 20.5536 38 20.0026 38Z"
     fill="#50536B"
     id="path12" />
  <path
     fill-rule="evenodd"
     clip-rule="evenodd"
     d="M12.0027 38H11.992C11.4412 38 11 38.4475 11 39C11 39.5523 11.4517 40 12.0026 40C12.5535 40 13 39.5525 13 39C13.0001 38.4477 12.5537 38 12.0027 38Z"
     fill="#50536B"
     id="path14" />
  <path
     fill-rule="evenodd"
     clip-rule="evenodd"
     d="M57.285 32.7902H41.7286V31H23.2714V32.7902H7.71505C6.76933 32.7902 6 33.5681 6 34.5245V43.4755C6 44.4319 6.76933 45.2098 7.71505 45.2098H23.2714V47H41.7286V45.2098H57.285C58.2307 45.2098 59 44.4319 59 43.4755V34.5245C59 33.5681 58.2307 32.7902 57.285 32.7902ZM22.8198 43.5315H7.71505C7.68461 43.5315 7.65977 43.5063 7.65977 43.4756V34.5246C7.65977 34.4938 7.68472 34.4687 7.71505 34.4687H22.8198L22.8192 34.4922L22.8191 34.4923C22.8188 34.503 22.8184 34.5138 22.8184 34.5246V43.4756C22.8184 43.4873 22.8188 43.499 22.8192 43.5106L22.8198 43.5315ZM38.641 38.1609H40.5219V34.5245V32.6783H24.4781V34.5245V43.4755V45.3217H40.5219V43.4755V39.8391H38.641V42.5804V43.4755H26.359V42.5804V35.4196C26.359 34.956 26.4827 34.5804 26.4827 34.5804H38.641V35.4196V38.1609ZM36.0408 39.8392H36.9813V41.7413H28.0189V36.2588H36.9813V38.1609H36.0408C35.5824 38.1609 35.2109 38.5364 35.2109 39.0001C35.2109 39.4636 35.5823 39.8392 36.0408 39.8392ZM57.2851 43.5315C57.3154 43.5315 57.3403 43.5064 57.3403 43.4756V34.5244C57.3403 34.4936 57.3155 34.4685 57.2851 34.4685L42.0605 34.5244V37.3551V42.3333V43.5315H57.2851Z"
     fill="#50536B"
     id="path16" />
</svg>
