<?xml version="1.0" encoding="UTF-8" standalone="no"?>
<svg
   xmlns:dc="http://purl.org/dc/elements/1.1/"
   xmlns:cc="http://creativecommons.org/ns#"
   xmlns:rdf="http://www.w3.org/1999/02/22-rdf-syntax-ns#"
   xmlns:svg="http://www.w3.org/2000/svg"
   xmlns="http://www.w3.org/2000/svg"
   xmlns:sodipodi="http://sodipodi.sourceforge.net/DTD/sodipodi-0.dtd"
   xmlns:inkscape="http://www.inkscape.org/namespaces/inkscape"
   width="64"
   height="64"
   viewBox="0 0 64 64"
   fill="none"
   version="1.1"
   id="svg16"
   sodipodi:docname="armor.svg"
   inkscape:export-filename="C:\ss14\space-station-14\Resources\Textures\Interface\Inventory\armor.svg.96dpi.png"
   inkscape:export-xdpi="96"
   inkscape:export-ydpi="96"
   inkscape:version="1.0.1 (3bc2e813f5, 2020-09-07)">
  <metadata
     id="metadata22">
    <rdf:RDF>
      <cc:Work
         rdf:about="">
        <dc:format>image/svg+xml</dc:format>
        <dc:type
           rdf:resource="http://purl.org/dc/dcmitype/StillImage" />
      </cc:Work>
    </rdf:RDF>
  </metadata>
  <defs
     id="defs20" />
  <sodipodi:namedview
     pagecolor="#ffffff"
     bordercolor="#666666"
     borderopacity="1"
     objecttolerance="10"
     gridtolerance="10"
     guidetolerance="10"
     inkscape:pageopacity="0"
     inkscape:pageshadow="2"
     inkscape:window-width="2560"
     inkscape:window-height="1377"
     id="namedview18"
     showgrid="false"
     inkscape:zoom="15.75"
     inkscape:cx="32"
     inkscape:cy="32"
     inkscape:window-x="1912"
     inkscape:window-y="-8"
     inkscape:window-maximized="1"
     inkscape:current-layer="svg16" />
  <rect
     x="1"
     y="1"
     width="62"
     height="62"
     fill="#24242B"
     stroke="#3A4051"
     stroke-width="2"
     id="rect2" />
  <path
     fill-rule="evenodd"
     clip-rule="evenodd"
     d="M46.4118 24.1295C46.4118 26.8137 47.5682 29.1742 49.4295 30.2899C49.7605 30.4884 49.9631 30.846 49.9632 31.232V49.3906C49.9632 49.9971 49.4714 50.4889 48.8648 50.4889H44.1799H44.177H16.1346C15.5281 50.4889 15.0363 49.9971 15.0363 49.3906V36.2131V36.2075V31.2699C15.0363 30.8839 15.2389 30.5262 15.57 30.3278C17.4253 29.2156 18.6242 26.7827 18.6242 24.1295C18.6242 21.7114 17.5359 19.9357 16.6229 18.8719C16.1205 18.2866 15.9633 17.5284 16.1914 16.7917C16.4195 16.055 16.9777 15.5184 17.7227 15.3193L26.1649 13.0631C26.6584 12.931 27.1779 13.157 27.418 13.6081C28.4136 15.4787 30.3468 16.6407 32.4631 16.6407C34.5897 16.6407 36.5272 15.4704 37.5196 13.5865C37.7586 13.1329 38.2795 12.905 38.775 13.0373L47.3134 15.3194C48.0585 15.5185 48.6166 16.0553 48.8446 16.7919C49.0726 17.5284 48.9154 18.2865 48.4132 18.8719C47.5001 19.9358 46.4118 21.7114 46.4118 24.1295ZM18.2899 17.4415C19.4444 18.7867 20.8208 21.0392 20.8208 24.1295C20.8208 27.3419 19.4607 30.2404 17.233 31.8589V35.112H19.7225C20.9337 35.112 21.9192 36.0974 21.9192 37.3087V48.2923H43.0802V37.3087C43.0802 36.0974 44.0656 35.112 45.2768 35.112H47.7665V31.8206C45.5614 30.214 44.2153 27.3305 44.2153 24.1295C44.2153 21.0392 45.5916 18.7867 46.7462 17.4413L39.0058 15.3728C37.5426 17.5297 35.1087 18.8374 32.4631 18.8374C29.8305 18.8374 27.4027 17.539 25.9375 15.3976L18.2899 17.4415ZM17.233 37.3087H19.7225V48.2923H17.233V37.3087ZM45.2768 37.3087V48.2923H47.7664V37.3087H45.2768Z"
     fill="#50536B"
     id="path4" />
  <path
     fill-rule="evenodd"
     clip-rule="evenodd"
     d="M25.2167 37.3089H39.7853C40.3919 37.3089 40.8836 36.8171 40.8836 36.2106C40.8836 35.604 40.3919 35.1122 39.7853 35.1122H25.2167C24.6102 35.1122 24.1184 35.604 24.1184 36.2106C24.1184 36.8171 24.6102 37.3089 25.2167 37.3089Z"
     fill="#50536B"
     id="path6" />
  <path
     fill-rule="evenodd"
     clip-rule="evenodd"
     d="M25.2167 41.7023H39.7853C40.3919 41.7023 40.8836 41.2105 40.8836 40.6039C40.8836 39.9974 40.3919 39.5056 39.7853 39.5056H25.2167C24.6102 39.5056 24.1184 39.9974 24.1184 40.6039C24.1184 41.2105 24.6102 41.7023 25.2167 41.7023Z"
     fill="#50536B"
     id="path8" />
  <path
     fill-rule="evenodd"
     clip-rule="evenodd"
     d="M25.2167 46.0955H39.7853C40.3919 46.0955 40.8836 45.6037 40.8836 44.9972C40.8836 44.3906 40.3919 43.8988 39.7853 43.8988H25.2167C24.6102 43.8988 24.1184 44.3906 24.1184 44.9972C24.1184 45.6037 24.6102 46.0955 25.2167 46.0955Z"
     fill="#50536B"
     id="path10" />
  <path
     d="M35 23H31C31 23 31 24.8824 31 26.9216C31 28.9608 31 31 31 31H35"
     stroke="#50536B"
     stroke-width="2"
     stroke-linecap="square"
     id="path12" />
  <path
     d="M31.2486 26.7034H35.6429"
     stroke="#50536B"
     stroke-width="2"
     id="path14" />
</svg>
