<svg width="64" height="64" viewBox="0 0 64 64" fill="none" xmlns="http://www.w3.org/2000/svg">
    <rect x="1" y="1" width="62" height="62" fill="#24242B" stroke="#3A4051" stroke-width="2"/>
    <path fill-rule="evenodd" clip-rule="evenodd" d="M48.8058 32.2578H50.1365C52.2668 32.2578 54 33.9927 54 36.125V46.6094C54 48.7417 52.2668 50.4766 50.1365 50.4766H48.6501C48.1173 52.5018 46.272 54 44.0836 54H19.959C17.7706 54 15.9253 52.5018 15.3926 50.4766H13.9061C11.7758 50.4766 10.043 48.7417 10.043 46.6094V36.125C10.043 33.9927 11.7758 32.2578 13.9061 32.2578H15.2372V29.9227C12.222 29.0919 10 26.3248 10 23.0464C10 19.1134 13.1965 15.9136 17.1258 15.9136H22.9208V14.7266C22.9208 12.1202 25.0391 10 27.643 10H36.2281C38.8317 10 40.9503 12.1202 40.9503 14.7266V15.9136H46.7453C50.6746 15.9136 53.8711 19.1134 53.8711 23.0464C53.8711 26.2623 51.7334 28.9868 48.8058 29.8741V32.2578ZM47.5298 27.6011C49.6662 27.2278 51.2957 25.2898 51.2957 23.0464C51.2957 20.5351 49.2543 18.4917 46.7453 18.4917H43.5677V27.6011C43.5677 27.6011 47.3882 27.6219 47.5298 27.6011ZM42.2809 34.6479V37.2261H37.1297V34.6479H42.2809ZM40.9922 39.8042H38.4164V40.6636C38.4164 41.3742 38.9942 41.9526 39.7045 41.9526C40.4145 41.9526 40.9922 41.3742 40.9922 40.6636V39.8042ZM40.9922 32.0698H38.4164V18.5078H40.9503V18.4917H40.9922V32.0698ZM35.841 18.4917H28.0301V27.6011H35.841V18.4917ZM25.4966 14.7266C25.4966 13.5419 26.4594 12.5781 27.643 12.5781H36.2281C37.4117 12.5781 38.3745 13.5419 38.3745 14.7266V15.9136H25.4963V14.7266H25.4966ZM26.7424 37.1831V34.605H21.5912V37.1831H26.7424ZM22.8789 39.7612H25.4547V40.6636C25.4547 41.3742 24.8769 41.9526 24.1669 41.9526C23.4566 41.9526 22.8789 41.3742 22.8789 40.6636V39.7612ZM22.8789 32.0269H25.4547V18.5078H22.9208V18.4917H22.8789V32.0269ZM12.5754 23.0464C12.5754 20.5351 14.6168 18.4917 17.1258 18.4917H20.3034V27.6011C20.3034 27.6011 16.6534 27.679 16.3832 27.6011C14.2264 27.2452 12.5754 25.3046 12.5754 23.0464ZM12.6184 36.125V46.6094C12.6184 47.32 13.1961 47.8984 13.9061 47.8984H15.2368V34.8359H13.9061C13.1961 34.8359 12.6184 35.4143 12.6184 36.125ZM44.084 51.4219H19.959C18.7754 51.4219 17.8126 50.4581 17.8126 49.2734V30.1792H20.3034V32.0269C19.5921 32.0269 19.0154 32.6039 19.0154 33.3159V38.4722C19.0154 39.1842 19.5921 39.7612 20.3034 39.7612V40.6636C20.3034 42.7959 22.0363 44.5308 24.1666 44.5308C26.2969 44.5308 28.0301 42.7959 28.0301 40.6636V39.7612C28.7414 39.7612 29.3178 39.1842 29.3178 38.4722V33.3159C29.3178 32.6039 28.7414 32.0269 28.0301 32.0269V30.1792H35.841V32.0698C35.13 32.0702 34.554 32.6472 34.554 33.3589V38.5151C34.554 39.2268 35.13 39.8035 35.841 39.8042V40.6636C35.841 42.7959 37.5739 44.5308 39.7042 44.5308C41.8345 44.5308 43.5677 42.7959 43.5677 40.6636V39.8042H43.5687C44.28 39.8042 44.8564 39.2271 44.8564 38.5151V33.3589C44.8564 32.6469 44.28 32.0698 43.5687 32.0698H43.5677V30.1792H46.23V49.2734C46.23 50.4581 45.2673 51.4219 44.084 51.4219ZM50.1365 47.8984C50.8465 47.8984 51.4242 47.32 51.4242 46.6094V36.125C51.4242 35.4143 50.8465 34.8359 50.1365 34.8359H48.8058V47.8984H50.1365Z" fill="#50536B"/>
</svg>
