<svg width="64" height="64" viewBox="0 0 64 64" fill="none" xmlns="http://www.w3.org/2000/svg">
    <rect x="1" y="1" width="62" height="62" fill="#24242B" stroke="#3A4051" stroke-width="2"/>
    <path fill-rule="evenodd" clip-rule="evenodd" d="M31.1984 30.4672H31.1903C30.7752 30.4672 30.4427 30.8035 30.4427 31.2188C30.4427 31.6339 30.7832 31.9704 31.1983 31.9704C31.6134 31.9704 31.9499 31.634 31.9499 31.2188C31.95 30.8036 31.6135 30.4672 31.1984 30.4672Z" fill="#50536B"/>
    <path fill-rule="evenodd" clip-rule="evenodd" d="M19.1813 30.4672H19.1732C18.7581 30.4672 18.4257 30.8035 18.4257 31.2188C18.4257 31.6339 18.7661 31.9704 19.1812 31.9704C19.5963 31.9704 19.9328 31.634 19.9328 31.2188C19.9329 30.8036 19.5965 30.4672 19.1813 30.4672Z" fill="#50536B"/>
    <path fill-rule="evenodd" clip-rule="evenodd" d="M50.4384 30.4672H50.4304C50.0153 30.4672 49.6829 30.8035 49.6829 31.2188C49.6829 31.6339 50.0233 31.9704 50.4384 31.9704C50.8535 31.9704 51.19 31.634 51.19 31.2188C51.19 30.8036 50.8536 30.4672 50.4384 30.4672Z" fill="#50536B"/>
    <path fill-rule="evenodd" clip-rule="evenodd" d="M13.5696 30.4672H13.5615C13.1464 30.4672 12.814 30.8035 12.814 31.2188C12.814 31.6339 13.1544 31.9704 13.5695 31.9704C13.9846 31.9704 14.3211 31.634 14.3211 31.2188C14.3212 30.8036 13.9848 30.4672 13.5696 30.4672Z" fill="#50536B"/>
    <path fill-rule="evenodd" clip-rule="evenodd" d="M40.358 25.6571H54.4468C55.3032 25.6571 56 26.3539 56 27.2104V35.227C56 36.0835 55.3032 36.7803 54.4468 36.7803H40.358V38.3836H23.642V36.7803H9.55325C8.69675 36.7803 8 36.0835 8 35.227V27.2104C8 26.3539 8.69675 25.6571 9.55325 25.6571H23.642V24.0538H40.358V25.6571ZM9.55325 35.2772H23.2331L23.2325 35.2584C23.2321 35.248 23.2317 35.2376 23.2317 35.2271V27.2105C23.2317 27.2007 23.2321 27.1911 23.2324 27.1814L23.2331 27.1604H9.55325C9.52578 27.1604 9.50319 27.1829 9.50319 27.2105V35.2271C9.50319 35.2546 9.52569 35.2772 9.55325 35.2772ZM39.2652 30.4671H37.5616V28.012V27.2604H26.5504C26.5504 27.2604 26.4384 27.5968 26.4384 28.012V34.4254V35.227H37.5616V34.4254V31.9702H39.2652V35.227V36.8805H24.7348V35.227V27.2104V25.5569H39.2652V27.2104V30.4671ZM36.0585 31.9703H35.2067C34.7915 31.9703 34.4551 31.6339 34.4551 31.2187C34.4551 30.8035 34.7916 30.4671 35.2067 30.4671H36.0585V28.7636H27.9417V33.6739H36.0585V31.9703ZM46.4802 32.8221C46.4802 34.1759 45.3789 35.2772 44.025 35.2772H40.7669C40.7671 35.2692 40.7674 35.2613 40.7677 35.2534C40.768 35.2446 40.7682 35.2359 40.7682 35.2271V27.2105C40.7682 27.2007 40.7679 27.191 40.7676 27.1813L40.7669 27.1604H44.025C45.3789 27.1604 46.4802 28.2617 46.4802 29.6155V32.8221ZM54.4468 35.2772C54.4743 35.2772 54.4969 35.2547 54.4969 35.2271V27.2103C54.4969 27.1827 54.4744 27.1602 54.4468 27.1602H47.1265C47.6622 27.8355 47.9833 28.6884 47.9833 29.6153V32.8221C47.9833 33.749 47.6622 34.6019 47.1265 35.2772H54.4468Z" fill="#50536B"/>
</svg>
