<svg width="64" height="64" viewBox="0 0 64 64" fill="none" xmlns="http://www.w3.org/2000/svg">
    <rect x="1" y="1" width="62" height="62" fill="#24242B" stroke="#3A4051" stroke-width="2"/>
    <path fill-rule="evenodd" clip-rule="evenodd" d="M47.2346 40.2769C49.2698 40.4243 50.7625 41.0922 51.671 42.2625C52.7889 43.7024 52.6089 45.396 52.5617 45.7202V48.6146C52.5617 48.7565 52.5054 48.8926 52.4049 48.993C51.5047 49.8931 49.1647 50.4939 45.4479 50.7813V51.6497C45.4479 51.7916 45.3916 51.9277 45.2911 52.0281C44.3523 52.9669 41.848 53.5807 37.8478 53.8518C36.3418 53.9541 34.8518 53.9905 33.6562 53.9905C32.4673 53.9905 31.5695 53.9545 31.2363 53.9113C27.9779 53.4882 26.2098 52.5209 25.2624 51.6877V53.3804C25.2624 53.676 25.0228 53.9156 24.7272 53.9156H15.6393C15.3436 53.9156 15.104 53.676 15.104 53.3804V49.9954C14.475 46.0927 15.0042 40.3192 15.0951 39.4004C12.0449 30.255 11.3461 20.6081 11.047 16.4782L11.0469 16.4772C10.9723 15.4466 11.22 14.6169 11.7834 14.0113C12.6268 13.1045 13.8868 13.0341 14.2528 13.0341L14.3739 13.0342C14.8094 13.0346 16.3615 13.0361 18.1579 13.037C18.2017 12.2335 18.466 11.5651 18.9496 11.0464C19.9076 10.0184 21.3639 10.0002 21.4253 10L21.4434 10C21.9096 10.0002 31.2833 10.005 35.0924 10.0049C36.3794 10.0049 37.3286 10.3507 37.9135 11.0326C38.6081 11.8423 38.5033 12.8252 38.4864 12.9521C38.4709 13.0713 36.9314 24.9652 37.0594 31.7434C37.1186 34.8832 37.9728 36.9534 39.7472 38.2582C41.2877 39.391 43.5971 40.0137 47.2346 40.2769ZM16.1747 52.8452H24.1919H24.192V50.6287C21.8089 50.5297 18.407 50.4939 16.1747 50.4891V52.8452ZM44.3774 51.4054C43.5001 52.0584 41.1262 52.5567 37.7753 52.784C34.7822 52.987 31.9317 52.9222 31.374 52.8496C28.0501 52.4182 26.4933 51.4182 25.7884 50.718C26.1213 50.744 26.395 50.7727 26.5927 50.8043C28.4789 51.1062 30.7761 51.2656 33.236 51.2656H33.2364C37.4338 51.2656 42.151 50.7759 44.3774 49.6995V51.4054ZM33.236 50.1949C38.4225 50.1949 43.1225 49.4524 44.4047 48.4494C44.438 48.026 44.4441 46.89 43.7038 45.9446C42.9883 45.0304 41.7568 44.5041 40.0433 44.3802C36.1407 44.0978 33.7349 43.4326 31.9991 42.1561C29.9621 40.658 28.9402 38.2516 28.8752 34.7991C28.7456 27.941 30.2955 15.9691 30.3111 15.849L30.3129 15.8367L30.3129 15.8365C30.3144 15.8236 30.3856 15.2203 29.9789 14.7553C29.6048 14.3276 28.9319 14.1108 27.9788 14.1108C24.3467 14.1108 15.6208 14.1056 14.3964 14.1048L14.3895 14.1048L14.3857 14.1048L14.2528 14.1047C14.0701 14.1047 13.093 14.177 12.5673 14.7405C12.2142 15.1191 12.0624 15.6779 12.1148 16.3999C12.4121 20.5053 13.1084 30.1193 16.1468 39.1694C16.1711 39.2421 16.1797 39.3193 16.1717 39.3956C16.1651 39.4573 15.5559 45.3928 16.1007 49.4185C17.9904 49.4234 24.9687 49.4603 26.7619 49.7472C28.5932 50.0402 30.8318 50.1949 33.236 50.1949ZM40.1206 43.3122C36.483 43.0489 34.1739 42.4263 32.6333 41.2934C30.8589 39.9885 30.0048 37.9185 29.9457 34.7786C29.8178 28.0091 31.3533 16.1371 31.3727 15.9879C31.3895 15.8633 31.4953 14.8788 30.7998 14.0678C30.2149 13.386 29.2658 13.0402 27.9788 13.0402C25.9244 13.0402 22.2516 13.0388 19.2307 13.0375C19.27 12.5193 19.4355 12.0978 19.7274 11.7818C20.3645 11.0924 21.4217 11.0707 21.4274 11.0706C21.4274 11.0706 31.1859 11.0756 35.0926 11.0756C36.0458 11.0756 36.7187 11.2924 37.0928 11.7201C37.4994 12.1851 37.4283 12.7883 37.4268 12.8012L37.4268 12.8014C37.4261 12.8055 35.8596 24.9057 35.9891 31.7638C36.0542 35.2164 37.0761 37.6229 39.1131 39.1208C40.8489 40.3974 43.2548 41.0625 47.1575 41.3449C48.8708 41.4689 50.1023 41.9952 50.8179 42.9093C51.5579 43.8548 51.5517 44.9906 51.5186 45.414C50.6875 46.0627 48.3798 46.6274 45.3393 46.9258C45.2089 46.4035 44.9728 45.833 44.5571 45.2977C43.6485 44.1274 42.1559 43.4594 40.1206 43.3122ZM45.4848 47.9874C45.4965 48.3634 45.4479 49.7071 45.4479 49.7071C48.503 49.4641 50.6635 48.9861 51.4911 48.3701V46.6687C49.9349 47.4249 47.3272 47.8047 45.4848 47.9874Z" fill="#50536B"/>
</svg>
