<svg width="64" height="64" viewBox="0 0 64 64" fill="none" xmlns="http://www.w3.org/2000/svg">
    <rect x="1" y="1" width="62" height="62" fill="#24242B" stroke="#3A4051" stroke-width="2"/>
    <path fill-rule="evenodd" clip-rule="evenodd" d="M41.737 14.9837C38.7634 11.9028 36.3676 11 32.3333 11C23.8785 11 18.0587 16.8785 18.0587 25.3333C18.0587 26.4379 18.4934 28 19.5979 28C20.7025 28 21 26.4379 21 25.3333C21 19.0841 26.0841 14 32.3333 14C38.8199 14 43.6667 19.9835 43.6667 25.3333C43.6667 31.3155 37.2473 40.8939 34.7628 44.0949C32.8333 46.5057 30.2871 49.3261 29.308 50H24.3333C23.2288 50 22.4666 50.0395 22.4666 51.144C22.4666 52.2486 23.2288 52.4219 24.3333 52.4219H29.6668C29.6669 52.4219 30.7146 53.3584 33.7371 50C35.2584 48.3095 36.4973 46.5899 36.5029 46.5827C36.9013 46.0705 46.1511 33.9209 46.1511 25.3333C46.1511 21.5659 44.5753 17.9245 41.737 14.9837Z" fill="#50536B"/>
    <path fill-rule="evenodd" clip-rule="evenodd" d="M27.5909 41C26.7123 41 26 40.3513 26 41.4123C26 42.4732 27.1449 42.8381 28.0235 42.8381C30.6552 42.8381 31.2141 40.7481 31.2141 37.5702C31.2141 35.0658 29.8751 34.5212 28.0235 33.7281V26.0439C28.0235 24.2784 30.3713 21.2988 31.8333 21.2988C33.2954 21.2988 35.4158 24.2784 35.4158 26.0439C35.4158 27.1048 35.1972 27.9649 36.0758 27.9649C36.9544 27.9649 37.6667 27.1048 37.6667 26.0439C37.6667 22.1599 35.0498 19 31.8333 19C28.6168 19 26 22.1599 26 26.0439V33.7281C26 34.789 26.7123 35.6491 27.5909 35.6491C28.4681 35.6491 29.1818 36.5109 29.1818 37.5702C29.1818 38.6294 28.4681 41 27.5909 41Z" fill="#50536B"/>
</svg>
