<svg width="64" height="64" viewBox="0 0 64 64" fill="none" xmlns="http://www.w3.org/2000/svg">
    <rect x="1" y="1" width="62" height="62" fill="#24242B" stroke="#3A4051" stroke-width="2"/>
    <path fill-rule="evenodd" clip-rule="evenodd" d="M12.6992 36.8829C14.3936 40.4288 22.0792 40.6082 23.6027 40.6082C24.175 40.6082 24.7069 40.5881 25.141 40.5502C28.4911 40.2573 29.6415 37.2668 30.2594 35.6602C30.3943 35.3095 30.5123 34.9817 30.6264 34.6648C30.9042 33.8929 31.2501 32.9322 31.5242 32.7702C31.7093 32.6608 31.8508 32.6491 31.8785 32.648C31.9207 32.6503 31.963 32.6503 32.0052 32.6478C32.0323 32.649 32.1743 32.6603 32.3603 32.7703C32.634 32.9322 32.9793 33.8912 33.2572 34.6627L33.2579 34.6648L33.2653 34.6851C33.3772 34.9958 33.4929 35.317 33.6249 35.6602C34.2428 37.2668 35.3931 40.2575 38.7434 40.5502C39.1781 40.5881 39.7102 40.6082 40.2823 40.6082C41.8057 40.6082 49.4912 40.4284 51.1855 36.8829C52.5978 33.9272 53.1525 29.5191 53.247 28.0701C53.2669 27.7666 53.3275 27.618 53.3572 27.5617C53.6803 27.3666 53.8848 27.0141 53.8848 26.6265V24.2119C53.8848 23.7294 53.5682 23.3039 53.106 23.1652L53.1059 23.1652C53.0121 23.1371 52.7263 23.0514 51.5042 23.0514C50.8696 23.0514 50.079 23.0746 49.1542 23.1205C47.5439 23.2003 46.5222 23.455 45.4405 23.7248C44.366 23.9929 43.2553 24.2699 41.3459 24.4186C39.2421 24.5827 36.6365 24.7071 34.8214 24.7827C32.9112 24.8623 30.9734 24.8623 29.0632 24.7827C27.2483 24.7071 24.643 24.5827 22.5387 24.4186C20.6295 24.2699 19.5188 23.9929 18.4448 23.725L18.4442 23.7248L18.4432 23.7246C17.3619 23.455 16.3404 23.2003 14.7304 23.1205C13.8056 23.0746 13.0149 23.0514 12.3804 23.0514C11.1593 23.0514 10.8734 23.137 10.7792 23.1652L10.779 23.1652C10.3166 23.3038 10 23.7292 10 24.2119V26.6265C10 27.0139 10.2044 27.3666 10.5276 27.5617C10.5573 27.618 10.6177 27.7666 10.6376 28.0701C10.7321 29.5191 11.2868 33.9272 12.6992 36.8829ZM12.8185 27.928C12.7608 27.0426 12.4797 26.4818 12.1854 26.132H12.1857V25.238C12.2468 25.2375 12.3116 25.2372 12.3807 25.2372C12.9793 25.2372 13.7334 25.2596 14.6226 25.3036C16.0197 25.3728 16.8984 25.5919 17.9158 25.8457C19.0229 26.122 20.2778 26.4349 22.3691 26.598C24.506 26.7645 27.1396 26.8904 28.9726 26.9667C30.9431 27.0487 32.9422 27.0487 34.9126 26.9667C36.7459 26.8904 39.3796 26.7645 41.5162 26.598C43.6074 26.4349 44.8624 26.122 45.9697 25.8457C46.9872 25.5919 47.8658 25.3729 49.2627 25.3036C50.1519 25.2595 50.9062 25.2372 51.5047 25.2372C51.5739 25.2372 51.6387 25.2375 51.6998 25.238V26.1322C51.4055 26.482 51.1243 27.0428 51.0666 27.928C50.9856 29.1706 50.4713 33.3098 49.2141 35.9408C48.4436 37.5529 44.0372 38.423 40.2825 38.423C39.7728 38.423 39.3065 38.4058 38.9339 38.3732C37.0931 38.2124 36.3643 36.6942 35.665 34.8759C35.54 34.5508 35.4271 34.2375 35.3178 33.9343L35.3144 33.9248C34.8172 32.5433 34.4241 31.4521 33.4731 30.8897C32.845 30.518 32.2815 30.4627 32.0013 30.4627C31.9831 30.4627 31.9653 30.463 31.9475 30.4637C31.7042 30.456 31.0928 30.4869 30.4121 30.8896C29.4608 31.4519 29.0679 32.5432 28.5705 33.9248C28.4603 34.2309 28.3464 34.5474 28.2201 34.8759C27.5206 36.6942 26.792 38.2124 24.9511 38.3732C24.5789 38.4057 24.1126 38.4229 23.6027 38.4229C19.8478 38.423 15.4416 37.5531 14.671 35.9407C13.4138 33.3097 12.8995 29.1705 12.8185 27.928Z" fill="#50536B"/>
</svg>
