<svg width="64" height="64" viewBox="0 0 64 64" fill="none" xmlns="http://www.w3.org/2000/svg">
    <rect x="1" y="1" width="62" height="62" fill="#24242B" stroke="#3A4051" stroke-width="2"/>
    <path fill-rule="evenodd" clip-rule="evenodd" d="M50.1957 27.1598C51.047 27.0035 51.9068 27.1889 52.6177 27.682C53.9875 28.6322 54.406 30.5065 53.5704 31.9493L47.7377 42.0215V51.1546C47.7377 51.6291 47.3528 52.0141 46.8782 52.0141H28.4841C28.1442 52.0141 27.8511 51.8161 27.7117 51.5297L27.0724 51.8989C26.9405 51.975 26.7921 52.0141 26.6426 52.0141C26.5681 52.0141 26.4934 52.0044 26.4202 51.9847C26.1999 51.9258 26.0122 51.7817 25.8983 51.5843L20.349 41.9726C19.7624 41.7351 19.2738 41.3125 18.9522 40.7555L10.3911 25.9273C9.58503 24.531 10.0652 22.739 11.4615 21.9328C11.8336 21.718 12.2336 21.5954 12.6358 21.5563L12.3237 21.0158C11.5175 19.6194 11.9976 17.8274 13.394 17.0212C13.7661 16.8064 14.1662 16.6839 14.5683 16.6447L14.4388 16.4204C13.6326 15.024 14.1126 13.232 15.509 12.4257C16.1855 12.0353 16.9735 11.9315 17.7279 12.1336C18.4823 12.3358 19.1129 12.8198 19.5034 13.4963L19.6329 13.7206C19.8679 13.392 20.1741 13.1067 20.5462 12.892C21.9426 12.0859 23.7345 12.566 24.5407 13.9622L27.6597 19.3639C28.1958 18.6902 29.0221 18.2572 29.9479 18.2572C30.3775 18.2572 30.7853 18.3511 31.1531 18.5182V17.8941C31.1531 16.2818 32.4648 14.97 34.0772 14.97C34.5068 14.97 34.9146 15.0638 35.2824 15.2309V14.9718C35.2824 13.3595 36.5942 12.0477 38.2066 12.0477C39.819 12.0477 41.1308 13.3594 41.1308 14.9718V15.2309C41.4986 15.0638 41.9064 14.97 42.336 14.97C43.9483 14.97 45.2602 16.2817 45.2602 17.8941V32.6797L48.1178 28.5092C48.6068 27.7955 49.3448 27.3162 50.1957 27.1598ZM21.4058 14.3806C21.127 14.5416 20.9277 14.8015 20.8443 15.1124C20.7609 15.4233 20.8037 15.7482 20.9646 16.0269L27.0236 26.5213V21.6663C26.9865 21.6243 26.953 21.5781 26.9239 21.5276L23.0522 14.8218C22.72 14.2462 21.9813 14.0485 21.4058 14.3806ZM27.6247 49.5952L26.9573 49.9806L22.7133 42.6296L23.4334 42.8225C23.5079 42.8425 23.5827 42.8521 23.6564 42.8521C24.0359 42.852 24.3831 42.5988 24.486 42.2148C24.6089 41.7563 24.3368 41.2851 23.8782 41.1621L21.1319 40.4262C20.8382 40.3475 20.5929 40.1593 20.4409 39.8959L11.8798 25.0679C11.5477 24.4925 11.7455 23.7539 12.321 23.4216C12.8967 23.0893 13.6351 23.2873 13.9674 23.8628L20.0439 34.3876C20.2812 34.7986 20.807 34.9396 21.218 34.7021C21.5975 34.483 21.746 34.0183 21.5798 33.6247C21.5798 33.6144 21.5655 33.585 21.5326 33.528L13.8125 20.1563C13.4801 19.5808 13.6781 18.8423 14.2535 18.5099C14.8289 18.1778 15.5676 18.3755 15.8999 18.951L23.1188 31.4545C23.2781 31.7301 23.5669 31.8844 23.864 31.8844C24.0097 31.8844 24.1576 31.8472 24.2929 31.7691C24.704 31.5317 24.8449 31.0061 24.6074 30.595L17.3886 18.0917L17.3883 18.0913L15.9274 15.5609C15.7664 15.2821 15.7237 14.9574 15.807 14.6464C15.8904 14.3354 16.0897 14.0755 16.3686 13.9145C16.6474 13.7536 16.9721 13.7108 17.2831 13.7941C17.594 13.8775 17.8539 14.0769 18.0149 14.3557L26.6948 29.3899L26.6951 29.3904L27.0236 29.9592V38.1296C27.0236 38.7836 27.2378 39.4044 27.6247 39.9102V49.5952ZM46.1346 41.3599L52.0831 31.0878C52.4733 30.4138 52.2778 29.5382 51.6375 29.0944C51.3053 28.864 50.9036 28.7776 50.5061 28.8505C50.1085 28.9236 49.7637 29.1474 49.5353 29.4809L46.3789 34.0875C46.1004 34.494 45.6401 34.7464 45.1477 34.7627C44.6536 34.7792 44.1793 34.5578 43.8744 34.1709C43.6593 33.8978 43.5407 33.5561 43.5407 33.2083V17.8941C43.5407 17.2296 43.0001 16.689 42.3356 16.689C41.671 16.689 41.1304 17.2296 41.1304 17.8941V32.3319C41.1304 32.8064 40.7455 33.1913 40.2709 33.1913C39.7964 33.1913 39.4114 32.8065 39.4114 32.3319V17.8942V14.9719C39.4114 14.3074 38.8708 13.7668 38.2063 13.7668C37.5417 13.7668 37.0011 14.3074 37.0011 14.9719V17.8941V32.3318C37.0011 32.8063 36.6162 33.1912 36.1416 33.1912C35.6671 33.1912 35.2822 32.8064 35.2822 32.3318V17.8941C35.2822 17.2296 34.7415 16.689 34.077 16.689C33.4125 16.689 32.8719 17.2296 32.8719 17.8941V21.1815V33.3344C32.8719 33.809 32.4869 34.1939 32.0124 34.1939C31.5379 34.1939 31.1529 33.8091 31.1529 33.3344V21.1815C31.1529 20.5169 30.6123 19.9763 29.9478 19.9763C29.2832 19.9763 28.7426 20.5169 28.7426 21.1815V38.1294C28.7426 38.5027 28.9101 38.8501 29.202 39.0827L31.0766 40.5761C31.4478 40.872 31.509 41.4126 31.2133 41.784C31.0436 41.997 30.7931 42.108 30.5405 42.108C30.3528 42.108 30.1637 42.0468 30.0054 41.9207L29.3438 41.3936V50.295H46.0188V47.8173H35.9844C35.5099 47.8173 35.125 47.4324 35.125 46.9578C35.125 46.4833 35.5098 46.0984 35.9844 46.0984H46.0188V41.7906C46.0188 41.6336 46.0616 41.487 46.1351 41.3603L46.1346 41.3599Z" fill="#50536B"/>
    <path fill-rule="evenodd" clip-rule="evenodd" d="M32.6209 46.35C32.461 46.1902 32.2392 46.0982 32.0132 46.0982C31.7863 46.0982 31.5654 46.1901 31.4055 46.35C31.2458 46.5098 31.1537 46.7316 31.1537 46.9577C31.1537 47.1845 31.2457 47.4055 31.4055 47.5653C31.5654 47.7259 31.7872 47.8171 32.0132 47.8171C32.2392 47.8171 32.4602 47.7259 32.6209 47.5653C32.7806 47.4055 32.8727 47.1837 32.8727 46.9577C32.8727 46.7316 32.7807 46.5098 32.6209 46.35Z" fill="#50536B"/>
</svg>
