<?xml version="1.0" encoding="UTF-8" standalone="no"?>
<!-- Created with Inkscape (http://www.inkscape.org/) -->

<svg
   xmlns:dc="http://purl.org/dc/elements/1.1/"
   xmlns:cc="http://creativecommons.org/ns#"
   xmlns:rdf="http://www.w3.org/1999/02/22-rdf-syntax-ns#"
   xmlns:svg="http://www.w3.org/2000/svg"
   xmlns="http://www.w3.org/2000/svg"
   xmlns:sodipodi="http://sodipodi.sourceforge.net/DTD/sodipodi-0.dtd"
   xmlns:inkscape="http://www.inkscape.org/namespaces/inkscape"
   width="32"
   height="32"
   viewBox="0 0 8.4666659 8.466667"
   version="1.1"
   id="svg912"
   inkscape:version="0.92.4 5da689c313, 2019-01-14"
   sodipodi:docname="gloves.svg"
   inkscape:export-filename="/home/pj/Projects/space-station-14-content/Resources/Textures/Interface/Inventory/gloves.png"
   inkscape:export-xdpi="192"
   inkscape:export-ydpi="192">
  <defs
     id="defs906" />
  <sodipodi:namedview
     id="base"
     pagecolor="#ffffff"
     bordercolor="#666666"
     borderopacity="1.0"
     inkscape:pageopacity="0.0"
     inkscape:pageshadow="2"
     inkscape:zoom="22.627417"
     inkscape:cx="17.536337"
     inkscape:cy="14.275659"
     inkscape:document-units="px"
     inkscape:current-layer="layer1"
     showgrid="false"
     inkscape:pagecheckerboard="true"
     units="px"
     inkscape:window-width="1920"
     inkscape:window-height="1043"
     inkscape:window-x="0"
     inkscape:window-y="0"
     inkscape:window-maximized="1" />
  <metadata
     id="metadata909">
    <rdf:RDF>
      <cc:Work
         rdf:about="">
        <dc:format>image/svg+xml</dc:format>
        <dc:type
           rdf:resource="http://purl.org/dc/dcmitype/StillImage" />
        <dc:title></dc:title>
      </cc:Work>
    </rdf:RDF>
  </metadata>
  <g
     inkscape:label="Layer 1"
     inkscape:groupmode="layer"
     id="layer1"
     transform="translate(0,-288.5333)">
    <path
       style="fill:none;stroke:#000000;stroke-width:0.26499999;stroke-linecap:butt;stroke-linejoin:miter;stroke-miterlimit:4;stroke-dasharray:none;stroke-opacity:1"
       d="m 1.9525478,291.26443 c 0,0.23594 0.1994344,0.34762 0.2856665,0.66944 0,0.31856 0.015047,0.90263 0.015047,1.22345 0,0.40616 0.6592986,0.30993 0.6592986,-0.004 0,-0.38058 0.057472,-0.94729 0.057472,-0.94729 0,0 0.7583988,0.72486 1.0781105,1.04457 0.2855073,0.28551 0.8124286,-0.0134 0.4799193,-0.40438 l -0.6927446,-0.78051 c 0.360831,0.33733 0.5807924,0.59974 0.7890681,0.78603 0.4097094,0.36646 0.6914628,-0.10836 0.4662146,-0.34144 -0.1593714,-0.16492 -0.598016,-0.55927 -0.9058744,-0.80912 0.3908642,0.30678 0.4738078,0.3948 0.8035667,0.66665 0.3297588,0.27184 0.7235678,-0.20201 0.4084646,-0.4378 -0.3151033,-0.2358 -1.5446309,-1.18021 -2.2513292,-1.68258 -0.4278456,-0.30405 -1.1918729,0.48841 -1.1928801,1.01719 z"
       id="path1487"
       inkscape:connector-curvature="0"
       sodipodi:nodetypes="ccccccccssczzcsc" />
  </g>
</svg>
