<?xml version="1.0" encoding="UTF-8" standalone="no"?>
<svg
   xmlns:dc="http://purl.org/dc/elements/1.1/"
   xmlns:cc="http://creativecommons.org/ns#"
   xmlns:rdf="http://www.w3.org/1999/02/22-rdf-syntax-ns#"
   xmlns:svg="http://www.w3.org/2000/svg"
   xmlns="http://www.w3.org/2000/svg"
   xmlns:sodipodi="http://sodipodi.sourceforge.net/DTD/sodipodi-0.dtd"
   xmlns:inkscape="http://www.inkscape.org/namespaces/inkscape"
   width="64"
   height="64"
   viewBox="0 0 64 64"
   fill="none"
   version="1.1"
   id="svg6"
   sodipodi:docname="hand_l.svg"
   inkscape:export-filename="C:\ss14\space-station-14\Resources\Textures\Interface\Inventory\hand_l.svg.96dpi.png"
   inkscape:export-xdpi="96"
   inkscape:export-ydpi="96"
   inkscape:version="1.0.1 (3bc2e813f5, 2020-09-07)">
  <metadata
     id="metadata12">
    <rdf:RDF>
      <cc:Work
         rdf:about="">
        <dc:format>image/svg+xml</dc:format>
        <dc:type
           rdf:resource="http://purl.org/dc/dcmitype/StillImage" />
      </cc:Work>
    </rdf:RDF>
  </metadata>
  <defs
     id="defs10" />
  <sodipodi:namedview
     pagecolor="#ffffff"
     bordercolor="#666666"
     borderopacity="1"
     objecttolerance="10"
     gridtolerance="10"
     guidetolerance="10"
     inkscape:pageopacity="0"
     inkscape:pageshadow="2"
     inkscape:window-width="2560"
     inkscape:window-height="1377"
     id="namedview8"
     showgrid="false"
     inkscape:zoom="15.75"
     inkscape:cx="32"
     inkscape:cy="32"
     inkscape:window-x="1912"
     inkscape:window-y="-8"
     inkscape:window-maximized="1"
     inkscape:current-layer="svg6"
     inkscape:document-rotation="0" />
  <path
     d="M1 1H63V63H1V1Z"
     fill="#24242B"
     stroke="#4A4D68"
     stroke-width="2"
     id="path2"
     style="fill:none;fill-opacity:0;stroke:#4a4d68;stroke-opacity:1"
     inkscape:export-xdpi="96"
     inkscape:export-ydpi="96" />
  <path
     fill-rule="evenodd"
     clip-rule="evenodd"
     d="M15.5362 18.028C17.2958 17.5086 18.2071 19.2964 18.834 20.5257L20.8364 25.28L19.5667 16.7141C19.3847 15.5962 19.5971 14.6078 20.1652 13.9309C20.615 13.3947 21.2509 13.1 21.9573 13.1C23.3114 13.1 24.4911 14.2935 24.9693 16.1688L26.4764 23.2899V14.5196C26.4474 13.4486 26.7711 12.505 27.389 11.8631C27.9316 11.2982 28.6629 11 29.5036 11C31.8604 11 32.4367 13.3338 32.6831 14.3299C32.6948 14.3761 32.7011 14.4223 32.7031 14.4692L33.0601 22.7761L34.0919 15.1237C34.415 12.1445 36.1518 11.7 37.1586 11.7C38.9874 11.7 40.3152 13.1721 40.3131 15.2518L38.9292 34.1518C38.9008 34.5368 38.5818 34.828 38.1881 34.7979C37.8068 34.7692 37.5211 34.4339 37.5495 34.0482L38.9313 15.2C38.9313 14.1549 38.3833 13.1 37.1586 13.1C36.798 13.1 35.7034 13.1 35.4654 15.2945L33.3896 30.6945C33.3412 31.0536 33.0194 31.3182 32.672 31.2993C32.3143 31.2825 32.0285 30.992 32.0126 30.6301L31.3241 14.6022C30.8598 12.7702 30.2821 12.3999 29.5037 12.3999C29.0387 12.3999 28.6609 12.5477 28.3806 12.8388C28.0256 13.2077 27.8416 13.7908 27.8603 14.5V29.9C27.8603 30.2584 27.5932 30.558 27.2417 30.5966C26.8853 30.6281 26.5663 30.3963 26.4923 30.0464L23.6221 16.4908C23.3696 15.4996 22.7565 14.5 21.9574 14.5C21.6599 14.5 21.4052 14.6162 21.2204 14.8366C20.9243 15.1901 20.8184 15.7914 20.9333 16.4964L23.0091 30.4964C23.061 30.845 22.8486 31.1775 22.5137 31.2734C22.1767 31.3693 21.8238 31.1985 21.6882 30.8744L17.5836 21.1213C16.7402 19.4749 16.3624 19.2439 15.9237 19.372C15.6116 19.4637 15.2242 19.5784 15.4442 20.6775C15.4642 20.7685 17.4764 29.8146 18.1482 33.988C18.3593 35.3012 18.5046 36.8993 18.6721 38.7494C19.0242 42.6275 19.4588 47.4189 20.7527 51.6001H36.2936C37.8865 44.5084 43.3756 35.6113 46.7426 32.2051C47.3446 31.5961 48.3907 30.432 48.6108 30.1877C48.6046 30.1751 48.5942 30.1562 48.5748 30.1303L48.2752 29.8356C47.467 29.0187 44.7629 29.0193 43.9547 29.8356L41.306 32.5152C41.0354 32.7882 40.5974 32.7882 40.3276 32.5152C40.057 32.2415 40.057 31.7984 40.3276 31.5254L42.9764 28.8458C44.3256 27.4808 47.9043 27.4808 49.2467 28.8381L49.5712 29.1572C49.5892 29.1747 49.6058 29.1937 49.6217 29.2133C50.0853 29.7803 50.1254 30.4544 49.7276 31.0179C49.7124 31.0396 49.6957 31.0606 49.6778 31.0801C49.6267 31.1376 48.4178 32.4907 47.721 33.1948C44.3984 36.557 38.9307 45.4666 37.5433 52.377C37.5059 52.727 37.2119 53 36.8555 53H20.249C19.9508 53 19.6872 52.8075 19.593 52.5212C18.1289 48.0775 17.666 42.9767 17.2944 38.8775C17.1283 37.0533 16.9851 35.4776 16.7817 34.2133C16.1182 30.0812 14.1143 21.0757 14.0908 20.9707C13.697 19.0066 14.6595 18.287 15.5362 18.028Z"
     fill="#444659"
     id="path4"
     style="fill:#444659;fill-opacity:1" />
</svg>
