<?xml version="1.0" encoding="UTF-8" standalone="no"?>
<svg
   xmlns:dc="http://purl.org/dc/elements/1.1/"
   xmlns:cc="http://creativecommons.org/ns#"
   xmlns:rdf="http://www.w3.org/1999/02/22-rdf-syntax-ns#"
   xmlns:svg="http://www.w3.org/2000/svg"
   xmlns="http://www.w3.org/2000/svg"
   xmlns:sodipodi="http://sodipodi.sourceforge.net/DTD/sodipodi-0.dtd"
   xmlns:inkscape="http://www.inkscape.org/namespaces/inkscape"
   width="64"
   height="64"
   viewBox="0 0 64 64"
   fill="none"
   version="1.1"
   id="svg6"
   sodipodi:docname="hand_r.svg"
   inkscape:export-filename="C:\ss14\space-station-14\Resources\Textures\Interface\Inventory\hand_r.svg.96dpi.png"
   inkscape:export-xdpi="96"
   inkscape:export-ydpi="96"
   inkscape:version="1.0.1 (3bc2e813f5, 2020-09-07)">
  <metadata
     id="metadata12">
    <rdf:RDF>
      <cc:Work
         rdf:about="">
        <dc:format>image/svg+xml</dc:format>
        <dc:type
           rdf:resource="http://purl.org/dc/dcmitype/StillImage" />
      </cc:Work>
    </rdf:RDF>
  </metadata>
  <defs
     id="defs10" />
  <sodipodi:namedview
     pagecolor="#ffffff"
     bordercolor="#666666"
     borderopacity="1"
     objecttolerance="10"
     gridtolerance="10"
     guidetolerance="10"
     inkscape:pageopacity="0"
     inkscape:pageshadow="2"
     inkscape:window-width="1920"
     inkscape:window-height="1017"
     id="namedview8"
     showgrid="false"
     inkscape:zoom="15.75"
     inkscape:cx="32"
     inkscape:cy="32"
     inkscape:window-x="-8"
     inkscape:window-y="181"
     inkscape:window-maximized="1"
     inkscape:current-layer="svg6" />
  <rect
     x="1"
     y="1"
     width="62"
     height="62"
     fill="#24242B"
     stroke="#4A4D68"
     stroke-width="2"
     id="rect2" />
  <path
     fill-rule="evenodd"
     clip-rule="evenodd"
     d="M48.4638 18.028C46.7042 17.5086 45.7929 19.2964 45.166 20.5257L43.1636 25.28L44.4333 16.7141C44.6153 15.5962 44.4029 14.6078 43.8348 13.9309C43.385 13.3947 42.7491 13.1 42.0427 13.1C40.6886 13.1 39.5089 14.2935 39.0307 16.1688L37.5236 23.2899V14.5196C37.5526 13.4486 37.2289 12.505 36.611 11.8631C36.0684 11.2982 35.3371 11 34.4964 11C32.1396 11 31.5633 13.3338 31.3169 14.3299C31.3052 14.3761 31.2989 14.4223 31.2969 14.4692L30.9399 22.7761L29.9081 15.1237C29.585 12.1445 27.8482 11.7 26.8414 11.7C25.0126 11.7 23.6848 13.1721 23.6869 15.2518L25.0708 34.1518C25.0992 34.5368 25.4182 34.828 25.8119 34.7979C26.1932 34.7692 26.4789 34.4339 26.4505 34.0482L25.0687 15.2C25.0687 14.1549 25.6167 13.1 26.8414 13.1C27.202 13.1 28.2966 13.1 28.5346 15.2945L30.6104 30.6945C30.6588 31.0536 30.9806 31.3182 31.328 31.2993C31.6857 31.2825 31.9715 30.992 31.9874 30.6301L32.6759 14.6022C33.1402 12.7702 33.7179 12.3999 34.4963 12.3999C34.9613 12.3999 35.3391 12.5477 35.6194 12.8388C35.9744 13.2077 36.1584 13.7908 36.1397 14.5V29.9C36.1397 30.2584 36.4068 30.558 36.7583 30.5966C37.1147 30.6281 37.4337 30.3963 37.5077 30.0464L40.3779 16.4908C40.6304 15.4996 41.2435 14.5 42.0426 14.5C42.3401 14.5 42.5948 14.6162 42.7796 14.8366C43.0757 15.1901 43.1816 15.7914 43.0667 16.4964L40.9909 30.4964C40.939 30.845 41.1514 31.1775 41.4863 31.2734C41.8233 31.3693 42.1762 31.1985 42.3118 30.8744L46.4164 21.1213C47.2598 19.4749 47.6376 19.2439 48.0763 19.372C48.3884 19.4637 48.7758 19.5784 48.5558 20.6775C48.5358 20.7685 46.5236 29.8146 45.8518 33.988C45.6407 35.3012 45.4954 36.8993 45.3279 38.7494C44.9758 42.6275 44.5412 47.4189 43.2473 51.6001H27.7064C26.1135 44.5084 20.6244 35.6113 17.2574 32.2051C16.6554 31.5961 15.6093 30.432 15.3892 30.1877C15.3954 30.1751 15.4058 30.1562 15.4252 30.1303L15.7248 29.8356C16.533 29.0187 19.2371 29.0193 20.0453 29.8356L22.694 32.5152C22.9646 32.7882 23.4026 32.7882 23.6724 32.5152C23.943 32.2415 23.943 31.7984 23.6724 31.5254L21.0236 28.8458C19.6744 27.4808 16.0957 27.4808 14.7533 28.8381L14.4288 29.1572C14.4108 29.1747 14.3942 29.1937 14.3783 29.2133C13.9147 29.7803 13.8746 30.4544 14.2724 31.0179C14.2876 31.0396 14.3043 31.0606 14.3222 31.0801C14.3733 31.1376 15.5822 32.4907 16.279 33.1948C19.6016 36.557 25.0693 45.4666 26.4567 52.377C26.4941 52.727 26.7881 53 27.1445 53H43.751C44.0492 53 44.3128 52.8075 44.407 52.5212C45.8711 48.0775 46.334 42.9767 46.7056 38.8775C46.8717 37.0533 47.0149 35.4776 47.2183 34.2133C47.8818 30.0812 49.8857 21.0757 49.9092 20.9707C50.303 19.0066 49.3405 18.287 48.4638 18.028Z"
     fill="#444659"
     id="path4" />
</svg>
