<?xml version="1.0" encoding="UTF-8" standalone="no"?>
<svg
   xmlns:dc="http://purl.org/dc/elements/1.1/"
   xmlns:cc="http://creativecommons.org/ns#"
   xmlns:rdf="http://www.w3.org/1999/02/22-rdf-syntax-ns#"
   xmlns:svg="http://www.w3.org/2000/svg"
   xmlns="http://www.w3.org/2000/svg"
   xmlns:sodipodi="http://sodipodi.sourceforge.net/DTD/sodipodi-0.dtd"
   xmlns:inkscape="http://www.inkscape.org/namespaces/inkscape"
   width="64"
   height="64"
   viewBox="0 0 64 64"
   fill="none"
   version="1.1"
   id="svg8"
   sodipodi:docname="hat.svg"
   inkscape:export-filename="C:\ss14\space-station-14\Resources\Textures\Interface\Inventory\hat.svg.96dpi.png"
   inkscape:export-xdpi="96"
   inkscape:export-ydpi="96"
   inkscape:version="1.0.1 (3bc2e813f5, 2020-09-07)">
  <metadata
     id="metadata14">
    <rdf:RDF>
      <cc:Work
         rdf:about="">
        <dc:format>image/svg+xml</dc:format>
        <dc:type
           rdf:resource="http://purl.org/dc/dcmitype/StillImage" />
      </cc:Work>
    </rdf:RDF>
  </metadata>
  <defs
     id="defs12" />
  <sodipodi:namedview
     pagecolor="#ffffff"
     bordercolor="#666666"
     borderopacity="1"
     objecttolerance="10"
     gridtolerance="10"
     guidetolerance="10"
     inkscape:pageopacity="0"
     inkscape:pageshadow="2"
     inkscape:window-width="1920"
     inkscape:window-height="1017"
     id="namedview10"
     showgrid="false"
     inkscape:zoom="15.75"
     inkscape:cx="32"
     inkscape:cy="32"
     inkscape:window-x="-8"
     inkscape:window-y="181"
     inkscape:window-maximized="1"
     inkscape:current-layer="svg8" />
  <rect
     x="1"
     y="1"
     width="62"
     height="62"
     fill="#24242B"
     stroke="#3A4051"
     stroke-width="2"
     id="rect2" />
  <path
     fill-rule="evenodd"
     clip-rule="evenodd"
     d="M53.8452 40.5537C53.9342 39.5667 53.9872 38.545 53.9986 37.5082C54.0322 34.4514 53.4598 31.4796 52.2966 28.675C51.6222 27.0485 50.7676 25.5246 49.7457 24.1161C49.6551 23.8571 49.4862 23.6351 49.267 23.4786C48.7151 22.7725 48.1186 22.097 47.4791 21.4552C43.3256 17.2872 37.8367 15 32.0003 15C31.9285 15 31.856 15.0003 31.7838 15.001C25.9528 15.0575 20.4797 17.3757 16.3728 21.5289C12.2632 25.6848 10 31.1957 10 37.047C10 41.0085 11.5277 44.9746 14.4184 48.5166C14.6681 48.8224 15.0418 49 15.4362 49H44.8714C47.1072 49 49.2502 48.1711 50.9065 46.6661C52.5615 45.1623 53.5948 43.1063 53.8167 40.8769C53.8215 40.8289 53.8256 40.7802 53.8297 40.7315L53.8297 40.7309C53.8327 40.6959 53.8356 40.661 53.8388 40.6263L53.8416 40.5982C53.843 40.5834 53.8442 40.5685 53.8452 40.5537ZM51.3131 39.1475H45.8074C40.6796 39.1475 36.5077 34.9667 36.5077 29.8282C36.5077 27.6453 38.2801 25.8691 40.4584 25.8691H47.7685C50.1532 29.2355 51.4158 33.2568 51.3691 37.4793C51.3631 38.0414 51.3436 38.5988 51.3131 39.1475ZM16.0713 46.365H44.8714C47.7507 46.365 50.1976 44.4626 50.975 41.7825H45.8074C39.2298 41.7825 33.8782 36.4196 33.8782 29.8282C33.8782 26.1924 36.8303 23.2344 40.4584 23.2344H45.5338C41.8428 19.5737 36.9733 17.5846 31.8093 17.636C21.2336 17.7383 12.6295 26.446 12.6295 37.047C12.6295 40.2183 13.8175 43.4285 16.0713 46.365Z"
     fill="#50536B"
     id="path4" />
  <path
     fill-rule="evenodd"
     clip-rule="evenodd"
     d="M19 33.0002C19 29.6916 21.6916 27 24.9998 27C28.3084 27 31 29.6916 31 33.0002C31 36.3084 28.3084 39 24.9998 39C21.6916 39 19 36.3084 19 33.0002ZM21.6109 33.0002C21.6109 34.8688 23.1312 36.3891 24.9998 36.3891C26.8688 36.3891 28.3891 34.8688 28.3891 33.0002C28.3891 31.1312 26.8688 29.6109 24.9998 29.6109C23.1312 29.6109 21.6109 31.1312 21.6109 33.0002Z"
     fill="#50536B"
     id="path6" />
</svg>
