<?xml version="1.0" encoding="UTF-8" standalone="no"?>
<svg
   xmlns:dc="http://purl.org/dc/elements/1.1/"
   xmlns:cc="http://creativecommons.org/ns#"
   xmlns:rdf="http://www.w3.org/1999/02/22-rdf-syntax-ns#"
   xmlns:svg="http://www.w3.org/2000/svg"
   xmlns="http://www.w3.org/2000/svg"
   xmlns:sodipodi="http://sodipodi.sourceforge.net/DTD/sodipodi-0.dtd"
   xmlns:inkscape="http://www.inkscape.org/namespaces/inkscape"
   width="64"
   height="64"
   viewBox="0 0 64 64"
   fill="none"
   version="1.1"
   id="svg20"
   sodipodi:docname="id.svg"
   inkscape:export-filename="C:\ss14\space-station-14\Resources\Textures\Interface\Inventory\id.svg.96dpi.png"
   inkscape:export-xdpi="96"
   inkscape:export-ydpi="96"
   inkscape:version="1.0.1 (3bc2e813f5, 2020-09-07)">
  <metadata
     id="metadata26">
    <rdf:RDF>
      <cc:Work
         rdf:about="">
        <dc:format>image/svg+xml</dc:format>
        <dc:type
           rdf:resource="http://purl.org/dc/dcmitype/StillImage" />
      </cc:Work>
    </rdf:RDF>
  </metadata>
  <defs
     id="defs24" />
  <sodipodi:namedview
     pagecolor="#ffffff"
     bordercolor="#666666"
     borderopacity="1"
     objecttolerance="10"
     gridtolerance="10"
     guidetolerance="10"
     inkscape:pageopacity="0"
     inkscape:pageshadow="2"
     inkscape:window-width="1920"
     inkscape:window-height="1017"
     id="namedview22"
     showgrid="false"
     inkscape:zoom="15.75"
     inkscape:cx="32"
     inkscape:cy="32"
     inkscape:window-x="-8"
     inkscape:window-y="181"
     inkscape:window-maximized="1"
     inkscape:current-layer="svg20" />
  <rect
     x="1"
     y="1"
     width="62"
     height="62"
     fill="#24242B"
     stroke="#3A4051"
     stroke-width="2"
     id="rect2" />
  <path
     fill-rule="evenodd"
     clip-rule="evenodd"
     d="M13.8027 17H50.1969C52.294 17 54 18.706 54 20.8031V42.7336C54 44.8307 52.294 46.5367 50.1969 46.5367H13.8027C11.706 46.5367 10 44.8307 10 42.7336V20.8031C10 18.706 11.706 17 13.8027 17ZM50.1969 45.2298C51.5733 45.2298 52.6931 44.1099 52.6931 42.7336V20.8031C52.6931 19.4267 51.5733 18.3069 50.1969 18.3069H13.8027C12.4267 18.3069 11.3069 19.4267 11.3069 20.8031V42.7336C11.3069 44.1099 12.4267 45.2298 13.8027 45.2298H50.1969Z"
     fill="#50536B"
     id="path4" />
  <path
     fill-rule="evenodd"
     clip-rule="evenodd"
     d="M29.5605 22.2278H14.4003C14.0394 22.2278 13.7467 22.5201 13.7467 22.8813V24.4494C13.7467 24.8102 14.0394 25.1026 14.4003 25.1026C14.7612 25.1026 15.0539 24.8102 15.0539 24.4494V23.5346H28.9073V39.4794H15.0539V27.0634C15.0539 26.7025 14.7612 26.4098 14.4003 26.4098C14.0394 26.4098 13.7467 26.7025 13.7467 27.0634V40.1326C13.7467 40.4935 14.0394 40.7862 14.4003 40.7862H29.5605C29.9214 40.7862 30.2141 40.4935 30.2141 40.1326V22.8813C30.2141 22.5201 29.9214 22.2278 29.5605 22.2278Z"
     fill="#50536B"
     id="path6" />
  <path
     fill-rule="evenodd"
     clip-rule="evenodd"
     d="M49.7746 23.7431H33.3944C33.0336 23.7431 32.7408 24.0358 32.7408 24.3967C32.7408 24.7575 33.0336 25.0499 33.3944 25.0499H49.7746C50.1355 25.0499 50.4279 24.7575 50.4279 24.3967C50.4279 24.0358 50.1355 23.7431 49.7746 23.7431Z"
     fill="#50536B"
     id="path8" />
  <path
     fill-rule="evenodd"
     clip-rule="evenodd"
     d="M49.7746 28.4834H46.1152C45.7544 28.4834 45.462 28.7758 45.462 29.1367C45.462 29.4975 45.7544 29.7903 46.1152 29.7903H49.7746C50.1355 29.7903 50.4279 29.4975 50.4279 29.1367C50.4279 28.7758 50.1355 28.4834 49.7746 28.4834Z"
     fill="#50536B"
     id="path10" />
  <path
     fill-rule="evenodd"
     clip-rule="evenodd"
     d="M33.3944 29.7903H43.5012C43.862 29.7903 44.1548 29.4975 44.1548 29.1367C44.1548 28.7758 43.862 28.4834 43.5012 28.4834H33.3944C33.0336 28.4834 32.7408 28.7758 32.7408 29.1367C32.7408 29.4975 33.0336 29.7903 33.3944 29.7903Z"
     fill="#50536B"
     id="path12" />
  <path
     fill-rule="evenodd"
     clip-rule="evenodd"
     d="M49.7746 33.2237H33.3944C33.0336 33.2237 32.7408 33.5161 32.7408 33.877C32.7408 34.2379 33.0336 34.5306 33.3944 34.5306H49.7746C50.1355 34.5306 50.4279 34.2379 50.4279 33.877C50.4279 33.5161 50.1355 33.2237 49.7746 33.2237Z"
     fill="#50536B"
     id="path14" />
  <path
     fill-rule="evenodd"
     clip-rule="evenodd"
     d="M42.2816 37.9641H33.3944C33.0336 37.9641 32.7408 38.2564 32.7408 38.6173C32.7408 38.9782 33.0336 39.2709 33.3944 39.2709H42.2816C42.6425 39.2709 42.9348 38.9782 42.9348 38.6173C42.9348 38.2564 42.6425 37.9641 42.2816 37.9641V37.9641Z"
     fill="#50536B"
     id="path16" />
  <path
     fill-rule="evenodd"
     clip-rule="evenodd"
     d="M18.0597 38.6949C17.6988 38.6949 17.4061 38.4025 17.4061 38.0416C17.4061 36.3792 18.2977 34.9217 19.6273 34.1207C18.2977 33.3197 17.4061 31.8622 17.4061 30.1998C17.4061 27.6777 19.4582 25.6256 21.9806 25.6256C24.5026 25.6256 26.5547 27.6777 26.5547 30.1998C26.5547 31.8622 25.6635 33.3197 24.3338 34.1207C25.6635 34.9217 26.5547 36.3792 26.5547 38.0416C26.5547 38.4025 26.262 38.6949 25.9011 38.6949C25.5403 38.6949 25.2479 38.4025 25.2479 38.0416C25.2479 36.2399 23.7822 34.7743 21.9806 34.7743C20.1789 34.7743 18.7133 36.2399 18.7133 38.0416C18.7133 38.4025 18.4205 38.6949 18.0597 38.6949ZM21.9806 26.9325C20.1789 26.9325 18.7133 28.3981 18.7133 30.1998C18.7133 32.0015 20.1789 33.4671 21.9806 33.4671C23.7822 33.4671 25.2479 32.0015 25.2479 30.1998C25.2479 28.3981 23.7822 26.9325 21.9806 26.9325Z"
     fill="#50536B"
     id="path18" />
</svg>
