<?xml version="1.0" encoding="UTF-8" standalone="no"?>
<svg
   xmlns:dc="http://purl.org/dc/elements/1.1/"
   xmlns:cc="http://creativecommons.org/ns#"
   xmlns:rdf="http://www.w3.org/1999/02/22-rdf-syntax-ns#"
   xmlns:svg="http://www.w3.org/2000/svg"
   xmlns="http://www.w3.org/2000/svg"
   xmlns:sodipodi="http://sodipodi.sourceforge.net/DTD/sodipodi-0.dtd"
   xmlns:inkscape="http://www.inkscape.org/namespaces/inkscape"
   width="64"
   height="64"
   viewBox="0 0 64 64"
   fill="none"
   version="1.1"
   id="svg14"
   sodipodi:docname="mask.svg"
   inkscape:export-filename="C:\ss14\space-station-14\Resources\Textures\Interface\Inventory\mask.svg.96dpi.png"
   inkscape:export-xdpi="96"
   inkscape:export-ydpi="96"
   inkscape:version="1.0.1 (3bc2e813f5, 2020-09-07)">
  <metadata
     id="metadata20">
    <rdf:RDF>
      <cc:Work
         rdf:about="">
        <dc:format>image/svg+xml</dc:format>
        <dc:type
           rdf:resource="http://purl.org/dc/dcmitype/StillImage" />
      </cc:Work>
    </rdf:RDF>
  </metadata>
  <defs
     id="defs18" />
  <sodipodi:namedview
     pagecolor="#ffffff"
     bordercolor="#666666"
     borderopacity="1"
     objecttolerance="10"
     gridtolerance="10"
     guidetolerance="10"
     inkscape:pageopacity="0"
     inkscape:pageshadow="2"
     inkscape:window-width="1920"
     inkscape:window-height="1017"
     id="namedview16"
     showgrid="false"
     inkscape:zoom="15.75"
     inkscape:cx="32"
     inkscape:cy="32"
     inkscape:window-x="-8"
     inkscape:window-y="181"
     inkscape:window-maximized="1"
     inkscape:current-layer="svg14" />
  <rect
     x="1"
     y="1"
     width="62"
     height="62"
     fill="#24242B"
     stroke="#3A4051"
     stroke-width="2"
     id="rect2" />
  <path
     fill-rule="evenodd"
     clip-rule="evenodd"
     d="M53.5492 41.2286L49.8968 38.4893C49.6953 38.3377 49.4349 38.2745 49.1959 38.3199C48.948 38.3619 48.7286 38.5045 48.5895 38.7132L47.2986 40.6495L44.5533 38.5899C45.1581 37.0888 45.6361 35.4489 45.9754 33.6887C47.4734 32.35 48.4361 30.425 48.4361 28.2625C48.4361 26.2297 47.5985 24.3918 46.254 23.0662C44.7966 15.3581 38.9834 10.0004 32.0004 10.0004C25.0174 10.0004 19.2042 15.3581 17.7467 23.0662C16.4023 24.3917 15.5646 26.2297 15.5646 28.2625C15.5646 30.425 16.5273 32.35 18.0254 33.6887C18.3645 35.4491 18.8423 37.0891 19.4471 38.5902L16.7022 40.6495L15.4112 38.7132C15.2721 38.5045 15.0527 38.3619 14.8049 38.3199C14.5641 38.2753 14.3038 38.3377 14.104 38.4893L10.4516 41.2286C10.0627 41.5193 9.97004 42.0624 10.2393 42.4654L17.5441 53.4226C17.6832 53.6313 17.9026 53.7739 18.1504 53.8159C18.2003 53.8248 18.2521 53.8292 18.3038 53.8292C18.5 53.8292 18.6926 53.7659 18.8514 53.6465L22.5038 50.9072C22.8926 50.6165 22.9853 50.0734 22.716 49.6704L21.3688 47.6494L23.0409 46.3953C23.8401 50.62 27.547 53.8292 32.0004 53.8292C36.4538 53.8292 40.1607 50.6199 40.9599 46.3953L42.6321 47.6494L41.2849 49.6704C41.0155 50.0734 41.1083 50.6165 41.4971 50.9072L45.1495 53.6465C45.3082 53.766 45.5008 53.8292 45.697 53.8292C45.7487 53.8292 45.8004 53.8248 45.8504 53.8159C46.0983 53.7739 46.3176 53.6313 46.4567 53.4226L53.7615 42.4654C54.0307 42.0624 53.938 41.5193 53.5492 41.2286ZM46.6101 28.2624C46.6101 31.2835 44.1526 33.741 41.1315 33.741C38.1103 33.741 35.6529 31.2835 35.6529 28.2624C35.6529 25.2413 38.1103 22.7838 41.1315 22.7838C44.1526 22.7838 46.6101 25.2414 46.6101 28.2624ZM22.8694 22.7838C19.8483 22.7838 17.3908 25.2413 17.3908 28.2624C17.3908 31.2835 19.8484 33.741 22.8694 33.741C25.8905 33.741 28.348 31.2835 28.348 28.2624C28.348 25.2413 25.8905 22.7838 22.8694 22.7838ZM18.5286 51.6062L12.2386 42.1712L14.4269 40.5296L20.7169 49.9647L18.5286 51.6062ZM17.7163 42.1708L20.3546 46.1282L22.904 44.2163C21.875 43.1013 20.9783 41.7828 20.2216 40.2914L17.7163 42.1708ZM32.0004 52.0031C27.9717 52.0031 24.6957 48.7261 24.6957 44.6983C24.6957 40.6705 27.9718 37.3935 32.0004 37.3935C36.0291 37.3935 39.3052 40.6705 39.3052 44.6983C39.3053 48.7261 36.0292 52.0031 32.0004 52.0031ZM32.0004 35.5673C36.0542 35.5673 39.4595 38.241 40.6481 41.9041C42.0293 40.063 43.0964 37.7417 43.7964 35.047C42.9685 35.3734 42.0739 35.5673 41.1314 35.5673C37.1027 35.5673 33.8266 32.2903 33.8266 28.2625C33.8266 24.2347 37.1026 20.9577 41.1314 20.9577C42.1496 20.9577 43.1183 21.1696 43.9997 21.5474C42.2077 15.7304 37.5196 11.8267 32.0004 11.8267C26.4812 11.8267 21.7932 15.7304 20.0012 21.5474C20.8825 21.1696 21.8511 20.9577 22.8694 20.9577C26.8981 20.9577 30.1742 24.2347 30.1742 28.2625C30.1742 32.2903 26.8981 35.5673 22.8694 35.5673C21.9267 35.5673 21.0321 35.3734 20.2042 35.047C20.9041 37.7423 21.971 40.0634 23.3531 41.9033C24.5419 38.2406 27.9469 35.5673 32.0004 35.5673ZM41.0975 44.2166C42.1259 43.1009 43.0224 41.7824 43.7789 40.291L46.2846 42.1707L43.6463 46.1281L41.0975 44.2166ZM43.2839 49.9646L45.4722 51.6062L51.7622 42.1711L49.574 40.5295L43.2839 49.9646Z"
     fill="#50536B"
     id="path4" />
  <path
     fill-rule="evenodd"
     clip-rule="evenodd"
     d="M29.9068 41.3134C29.5501 40.9567 28.9722 40.9567 28.6156 41.3134C28.2589 41.6701 28.2589 42.2479 28.6156 42.6045L29.5287 43.5176C29.7071 43.696 29.9408 43.7852 30.1744 43.7852C30.408 43.7852 30.6416 43.696 30.82 43.5176C31.1767 43.1609 31.1767 42.5831 30.82 42.2265L29.9068 41.3134Z"
     fill="#50536B"
     id="path6" />
  <path
     fill-rule="evenodd"
     clip-rule="evenodd"
     d="M34.0941 41.3134L33.181 42.2265C32.8243 42.5832 32.8243 43.161 33.181 43.5176C33.3593 43.696 33.593 43.7852 33.8266 43.7852C34.0602 43.7852 34.2938 43.696 34.4722 43.5176L35.3853 42.6045C35.7421 42.2478 35.7421 41.67 35.3853 41.3134C35.0286 40.9567 34.4508 40.9567 34.0941 41.3134Z"
     fill="#50536B"
     id="path8" />
  <path
     fill-rule="evenodd"
     clip-rule="evenodd"
     d="M34.4722 45.8788C34.1155 45.5221 33.5377 45.5221 33.181 45.8788C32.8243 46.2355 32.8243 46.8134 33.181 47.17L34.0942 48.0831C34.2725 48.2614 34.5062 48.3506 34.7398 48.3506C34.9734 48.3506 35.207 48.2614 35.3854 48.0831C35.7421 47.7264 35.7421 47.1486 35.3854 46.792L34.4722 45.8788Z"
     fill="#50536B"
     id="path10" />
  <path
     fill-rule="evenodd"
     clip-rule="evenodd"
     d="M29.5286 45.8788L28.6155 46.792C28.2588 47.1487 28.2588 47.7265 28.6155 48.0831C28.7938 48.2614 29.0275 48.3506 29.2611 48.3506C29.4947 48.3506 29.7283 48.2614 29.9067 48.0831L30.8199 47.17C31.1766 46.8133 31.1766 46.2354 30.8199 45.8788C30.4632 45.5222 29.8853 45.5222 29.5286 45.8788Z"
     fill="#50536B"
     id="path12" />
</svg>
