<?xml version="1.0" encoding="UTF-8" standalone="no"?>
<svg
   xmlns:dc="http://purl.org/dc/elements/1.1/"
   xmlns:cc="http://creativecommons.org/ns#"
   xmlns:rdf="http://www.w3.org/1999/02/22-rdf-syntax-ns#"
   xmlns:svg="http://www.w3.org/2000/svg"
   xmlns="http://www.w3.org/2000/svg"
   xmlns:sodipodi="http://sodipodi.sourceforge.net/DTD/sodipodi-0.dtd"
   xmlns:inkscape="http://www.inkscape.org/namespaces/inkscape"
   width="64"
   height="64"
   viewBox="0 0 64 64"
   fill="none"
   version="1.1"
   id="svg8"
   sodipodi:docname="uniform.svg"
   inkscape:export-filename="C:\ss14\space-station-14\Resources\Textures\Interface\Inventory\uniform.svg.96dpi.png"
   inkscape:export-xdpi="96"
   inkscape:export-ydpi="96"
   inkscape:version="1.0.1 (3bc2e813f5, 2020-09-07)">
  <metadata
     id="metadata14">
    <rdf:RDF>
      <cc:Work
         rdf:about="">
        <dc:format>image/svg+xml</dc:format>
        <dc:type
           rdf:resource="http://purl.org/dc/dcmitype/StillImage" />
      </cc:Work>
    </rdf:RDF>
  </metadata>
  <defs
     id="defs12" />
  <sodipodi:namedview
     pagecolor="#ffffff"
     bordercolor="#666666"
     borderopacity="1"
     objecttolerance="10"
     gridtolerance="10"
     guidetolerance="10"
     inkscape:pageopacity="0"
     inkscape:pageshadow="2"
     inkscape:window-width="1920"
     inkscape:window-height="1017"
     id="namedview10"
     showgrid="false"
     inkscape:zoom="15.75"
     inkscape:cx="32"
     inkscape:cy="32"
     inkscape:window-x="-8"
     inkscape:window-y="181"
     inkscape:window-maximized="1"
     inkscape:current-layer="svg8" />
  <rect
     x="1"
     y="1"
     width="62"
     height="62"
     fill="#24242B"
     stroke="#3A4051"
     stroke-width="2"
     id="rect2" />
  <path
     fill-rule="evenodd"
     clip-rule="evenodd"
     d="M36.5842 14.0567H41.1671L54 21.3903L50.3343 31.4738L44.8343 29.6403V50.7245H19.1671V29.6403L13.6671 31.4738L10 21.3903L22.8336 14.0567H27.4171C27.4171 16.5845 29.4729 18.6403 32 18.6403C34.5271 18.6403 36.5842 16.5845 36.5842 14.0567ZM45.413 27.9013L49.2197 29.1703L51.7495 22.2155L40.6797 15.8903H38.1499C37.3617 18.5409 34.9071 20.4738 32 20.4738C29.0936 20.4738 26.6384 18.5409 25.8495 15.8903H23.3203L12.2511 22.2155L14.7803 29.1704L18.587 27.9014L21 27.0964V29.6404V48.8904H43V29.6404V27.0964L45.413 27.9013Z"
     fill="#50536B"
     id="path4" />
  <path
     d="M29.002 28.5H35.0269H31.9424L31.9713 37.5H35.0269H29.002"
     stroke="#50536B"
     stroke-width="2"
     id="path6" />
</svg>
