<?xml version="1.0" encoding="UTF-8" standalone="no"?>
<!-- Created with Inkscape (http://www.inkscape.org/) -->

<svg
   width="49"
   height="49"
   viewBox="0 0 12.964581 12.964581"
   version="1.1"
   id="svg97402"
   inkscape:version="1.2.2 (b0a8486541, 2022-12-01)"
   sodipodi:docname="PanelMountBase.svg"
   inkscape:export-filename="PanelMountBase.svg.96dpi.png"
   inkscape:export-xdpi="96"
   inkscape:export-ydpi="96"
   xmlns:inkscape="http://www.inkscape.org/namespaces/inkscape"
   xmlns:sodipodi="http://sodipodi.sourceforge.net/DTD/sodipodi-0.dtd"
   xmlns="http://www.w3.org/2000/svg"
   xmlns:svg="http://www.w3.org/2000/svg">
  <sodipodi:namedview
     id="namedview97404"
     pagecolor="#ffffff"
     bordercolor="#666666"
     borderopacity="1.0"
     inkscape:showpageshadow="2"
     inkscape:pageopacity="0.0"
     inkscape:pagecheckerboard="0"
     inkscape:deskcolor="#d1d1d1"
     inkscape:document-units="px"
     showgrid="false"
     inkscape:zoom="13.915198"
     inkscape:cx="20.301544"
     inkscape:cy="29.643848"
     inkscape:window-width="1916"
     inkscape:window-height="1034"
     inkscape:window-x="0"
     inkscape:window-y="44"
     inkscape:window-maximized="1"
     inkscape:current-layer="layer1" />
  <defs
     id="defs97399">
    <clipPath
       clipPathUnits="userSpaceOnUse"
       id="clipPath50614">
      <rect
         style="display:inline;fill:#b6b6b6;fill-opacity:1;stroke:none;stroke-width:0.7;stroke-linecap:round;stroke-linejoin:round;stroke-dasharray:none;stroke-opacity:1"
         id="rect50616"
         width="30.108149"
         height="13.222547"
         x="146.07838"
         y="216.62383"
         rx="1.4750348"
         ry="1.4496408" />
    </clipPath>
    <clipPath
       clipPathUnits="userSpaceOnUse"
       id="clipPath99525">
      <rect
         style="opacity:0.545894;fill:#ffffff;stroke-width:3.95991;stroke-linecap:round;stroke-linejoin:round"
         id="rect99527"
         width="60"
         height="90"
         x="0"
         y="0" />
    </clipPath>
    <clipPath
       clipPathUnits="userSpaceOnUse"
       id="clipPath99685">
      <g
         id="g99689"
         transform="matrix(0.55711614,0,0,0.55573006,162.92021,216.61309)">
        <rect
           style="opacity:0.545894;fill:#ffffff;stroke-width:1.58593;stroke-linecap:round;stroke-linejoin:round"
           id="rect99687"
           width="15.799728"
           height="23.793234"
           x="8.0127716"
           y="0.019266307" />
      </g>
    </clipPath>
    <clipPath
       clipPathUnits="userSpaceOnUse"
       id="clipPath99691">
      <g
         id="g99695">
        <rect
           style="opacity:0.545894;fill:#ffffff;stroke-width:1.58593;stroke-linecap:round;stroke-linejoin:round"
           id="rect99693"
           width="15.799728"
           height="23.793234"
           x="8.0127716"
           y="0.019266307" />
      </g>
    </clipPath>
    <clipPath
       clipPathUnits="userSpaceOnUse"
       id="clipPath99697">
      <g
         id="g99701">
        <rect
           style="opacity:0.545894;fill:#ffffff;stroke-width:1.58593;stroke-linecap:round;stroke-linejoin:round"
           id="rect99699"
           width="15.799728"
           height="23.793234"
           x="8.0127716"
           y="0.019266307" />
      </g>
    </clipPath>
    <clipPath
       clipPathUnits="userSpaceOnUse"
       id="clipPath99711">
      <g
         id="g99715"
         transform="matrix(0.55711614,0,0,0.55573006,146.08647,216.61288)">
        <rect
           style="opacity:0.545894;fill:#ffffff;stroke-width:1.04406;stroke-linecap:round;stroke-linejoin:round"
           id="rect99713"
           width="15.799728"
           height="23.758703"
           x="0.0094064204"
           y="0.054201871" />
      </g>
    </clipPath>
    <clipPath
       clipPathUnits="userSpaceOnUse"
       id="clipPath99717">
      <g
         id="g99721">
        <rect
           style="opacity:0.545894;fill:#ffffff;stroke-width:1.04406;stroke-linecap:round;stroke-linejoin:round"
           id="rect99719"
           width="15.799728"
           height="23.758703"
           x="0.0094064204"
           y="0.054201871" />
      </g>
    </clipPath>
    <clipPath
       clipPathUnits="userSpaceOnUse"
       id="clipPath99723">
      <g
         id="g99727">
        <rect
           style="opacity:0.545894;fill:#ffffff;stroke-width:1.04406;stroke-linecap:round;stroke-linejoin:round"
           id="rect99725"
           width="15.799728"
           height="23.758703"
           x="0.0094064204"
           y="0.054201871" />
      </g>
    </clipPath>
    <clipPath
       clipPathUnits="userSpaceOnUse"
       id="clipPath99794">
      <g
         id="g99798"
         transform="matrix(0.55711614,0,0,0.55573006,162.92021,216.61309)">
        <rect
           style="opacity:0.545894;fill:#ffffff;stroke-width:1.58593;stroke-linecap:round;stroke-linejoin:round"
           id="rect99796"
           width="15.799728"
           height="23.793234"
           x="8.0127716"
           y="0.019266307" />
      </g>
    </clipPath>
    <clipPath
       clipPathUnits="userSpaceOnUse"
       id="clipPath99800">
      <g
         id="g99804">
        <rect
           style="opacity:0.545894;fill:#ffffff;stroke-width:1.58593;stroke-linecap:round;stroke-linejoin:round"
           id="rect99802"
           width="15.799728"
           height="23.793234"
           x="8.0127716"
           y="0.019266307" />
      </g>
    </clipPath>
    <clipPath
       clipPathUnits="userSpaceOnUse"
       id="clipPath99806">
      <g
         id="g99810">
        <rect
           style="opacity:0.545894;fill:#ffffff;stroke-width:1.58593;stroke-linecap:round;stroke-linejoin:round"
           id="rect99808"
           width="15.799728"
           height="23.793234"
           x="8.0127716"
           y="0.019266307" />
      </g>
    </clipPath>
    <clipPath
       clipPathUnits="userSpaceOnUse"
       id="clipPath99883">
      <path
         id="path99885"
         style="opacity:1;fill:#ff0000;fill-opacity:1;stroke-width:1.665;stroke-linecap:round;stroke-linejoin:round;stroke-dasharray:none"
         d="M 7.9375,0 C 3.5401295,0 0,3.5401295 0,7.9375 v 7.9375 c 0,4.397371 3.5401295,7.9375 7.9375,7.9375 h 7.9375 c 4.397371,0 7.9375,-3.540129 7.9375,-7.9375 V 7.9375 C 23.8125,3.5401295 20.272371,0 15.875,0 Z m 2.205033,6.6145833 h 3.527434 c 1.954387,0 3.52795,1.5735631 3.52795,3.5279497 v 3.527434 c 0,1.954387 -1.573563,3.52795 -3.52795,3.52795 h -3.527434 c -1.9543866,0 -3.5279497,-1.573563 -3.5279497,-3.52795 v -3.527434 c 0,-1.9543866 1.5735631,-3.5279497 3.5279497,-3.5279497 z" />
    </clipPath>
    <clipPath
       clipPathUnits="userSpaceOnUse"
       id="clipPath100370">
      <path
         id="path100372"
         style="opacity:1;fill:#ff0000;fill-opacity:1;stroke-width:1.665;stroke-linecap:round;stroke-linejoin:round;stroke-dasharray:none"
         d="M 7.9375,1e-7 C 3.540129,1e-7 0,3.5401295 0,7.9375 v 7.9375 c 0,4.397371 3.540129,7.9375 7.9375,7.9375 h 7.9375 c 4.397371,0 7.9375,-3.540129 7.9375,-7.9375 V 7.9375 C 23.8125,3.5401295 20.272371,1e-7 15.875,1e-7 Z m 2.205033,6.6145832 h 3.527434 c 1.954387,0 3.52795,1.5735631 3.52795,3.5279497 v 3.527434 c 0,1.954387 -1.573563,3.52795 -3.52795,3.52795 h -3.527434 c -1.9543871,0 -3.5279499,-1.573563 -3.5279499,-3.52795 v -3.527434 c 0,-1.9543866 1.5735628,-3.5279497 3.5279499,-3.5279497 z" />
    </clipPath>
  </defs>
  <g
     inkscape:label="Layer 1"
     inkscape:groupmode="layer"
     id="layer1">
    <path
       id="rect99812"
       style="display:inline;opacity:1;fill:#ffffff;fill-opacity:1;stroke-width:0.764443;stroke-linecap:round;stroke-linejoin:round;stroke-dasharray:none"
       d="m 3.8107566,0.22044249 c -2.0189409,0 -3.64430097,1.62536021 -3.64430097,3.64430101 v 3.6443013 c 0,2.0189404 1.62536007,3.6443002 3.64430097,3.6443002 h 3.6443009 c 2.0189412,0 3.6443025,-1.6253598 3.6443025,-3.6443002 V 3.8647435 c 0,-2.0189408 -1.6253613,-3.64430101 -3.6443025,-3.64430101 z M 4.8231413,3.2573599 h 1.6195315 c 0.897307,0 1.6197684,0.7224614 1.6197684,1.6197684 v 1.6195314 c 0,0.897307 -0.7224614,1.6197687 -1.6197684,1.6197687 H 4.8231413 c -0.8973069,0 -1.6197683,-0.7224617 -1.6197683,-1.6197687 V 4.8771283 c 0,-0.897307 0.7224614,-1.6197684 1.6197683,-1.6197684 z"
       inkscape:label="Base" />
  </g>
</svg>
