<svg width="15" height="20" viewBox="0 0 15 20" fill="none" xmlns="http://www.w3.org/2000/svg">
<path fill-rule="evenodd" clip-rule="evenodd" d="M7.63304 0.51001C4.70027 0.51001 2.33892 2.93132 2.33892 5.93858V6.84334C1.36834 6.84334 0.574219 7.65763 0.574219 8.65287V17.7005C0.574219 18.6957 1.36834 19.51 2.33892 19.51H12.9272C13.8977 19.51 14.6919 18.6957 14.6919 17.7005V8.65287C14.6919 7.65763 13.8977 6.84334 12.9272 6.84334V5.93858C12.9272 2.93132 10.5658 0.51001 7.63304 0.51001ZM7.63304 2.31953C9.64145 2.31953 11.1625 3.87917 11.1625 5.93858V6.84334H4.10363V5.93858C4.10363 3.87917 5.62464 2.31953 7.63304 2.31953ZM9.39775 13.1767C9.39775 12.1814 8.60363 11.3672 7.63304 11.3672C6.66245 11.3672 5.86834 12.1814 5.86834 13.1767C5.86834 14.1719 6.66245 14.9862 7.63304 14.9862C8.60363 14.9862 9.39775 14.1719 9.39775 13.1767Z" fill="#7B7E9E"/>
</svg>
