<?xml version="1.0" encoding="UTF-8" standalone="no"?>
<svg
   xmlns:dc="http://purl.org/dc/elements/1.1/"
   xmlns:cc="http://creativecommons.org/ns#"
   xmlns:rdf="http://www.w3.org/1999/02/22-rdf-syntax-ns#"
   xmlns:svg="http://www.w3.org/2000/svg"
   xmlns="http://www.w3.org/2000/svg"
   xmlns:sodipodi="http://sodipodi.sourceforge.net/DTD/sodipodi-0.dtd"
   xmlns:inkscape="http://www.inkscape.org/namespaces/inkscape"
   viewBox="0 0 19.99995 26.6666"
   fill="black"
   width="15"
   height="20"
   version="1.1"
   id="svg26"
   sodipodi:docname="lock_open.svg"
   inkscape:export-filename="C:\ss14\space-station-14\Resources\Textures\Interface\Nano\lock_open.svg.png"
   inkscape:export-xdpi="96"
   inkscape:export-ydpi="96"
   inkscape:version="1.0.1 (3bc2e813f5, 2020-09-07)">
  <metadata
     id="metadata32">
    <rdf:RDF>
      <cc:Work
         rdf:about="">
        <dc:format>image/svg+xml</dc:format>
        <dc:type
           rdf:resource="http://purl.org/dc/dcmitype/StillImage" />
        <dc:title></dc:title>
      </cc:Work>
    </rdf:RDF>
  </metadata>
  <defs
     id="defs30" />
  <sodipodi:namedview
     pagecolor="#ffffff"
     bordercolor="#666666"
     borderopacity="1"
     objecttolerance="10"
     gridtolerance="10"
     guidetolerance="10"
     inkscape:pageopacity="0"
     inkscape:pageshadow="2"
     inkscape:window-width="1973"
     inkscape:window-height="1174"
     id="namedview28"
     showgrid="false"
     inkscape:zoom="49.444444"
     inkscape:cx="5.1067416"
     inkscape:cy="11.006303"
     inkscape:window-x="2074"
     inkscape:window-y="95"
     inkscape:window-maximized="0"
     inkscape:current-layer="svg26"
     scale-x="1.33333" />
  <path
     d="M 0,0 H 24 V 24 H 0 Z"
     fill="none"
     id="path22" />
  <path
     d="m 9.9999736,19.968204 c 1.2941474,0 2.3529954,-1.085712 2.3529954,-2.412693 0,-1.32698 -1.058848,-2.412691 -2.3529954,-2.412691 -1.2941459,0 -2.3529931,1.085711 -2.3529931,2.412691 0,1.326981 1.0588471,2.412693 2.3529931,2.412693 z M 17.058957,9.1110883 H 15.882461 V 6.698396 c 0,-3.3295155 -2.635355,-6.03173092 -5.8824874,-6.03173092 -3.2471308,0 -5.8824842,2.70221542 -5.8824842,6.03173092 h 2.2353443 c 0,-2.062852 1.635331,-3.7396733 3.6471399,-3.7396733 2.0118104,0 3.6471434,1.6768213 3.6471434,3.7396733 V 9.1110883 H 2.9409923 c -1.2941467,0 -2.35299395,1.0857117 -2.35299395,2.4126927 v 12.063461 c 0,1.326982 1.05884725,2.412693 2.35299395,2.412693 H 17.058957 c 1.294147,0 2.352995,-1.085711 2.352995,-2.412693 V 11.523781 c 0,-1.326981 -1.058848,-2.4126927 -2.352995,-2.4126927 z m 0,14.4761537 H 2.9409923 V 11.523781 H 17.058957 Z"
     id="path24"
     style="fill:#7b7e9e;fill-opacity:1;stroke:none;stroke-width:1.19133;stroke-opacity:1" />
</svg>
