<svg width="32" height="32" viewBox="0 0 32 32" fill="none" xmlns="http://www.w3.org/2000/svg">
<path fill-rule="evenodd" clip-rule="evenodd" d="M0.359947 9.76624C0.201373 9.63414 0.0876491 9.45694 0.0341941 9.25865C-0.0192608 9.06037 -0.00986073 8.8506 0.0611199 8.65779C0.1321 8.46498 0.261228 8.29845 0.430994 8.18078C0.60076 8.06311 0.802953 8 1.01016 8H5.99001C6.09717 8 6.19995 8.04216 6.27572 8.11722C6.3515 8.19227 6.39407 8.29407 6.39407 8.40021V14.793L0.359947 9.76624ZM13.4014 8H8.03851C7.90345 8 7.77392 8.05081 7.67842 8.14124C7.58291 8.23168 7.52926 8.35434 7.52926 8.48223V23.5178C7.52926 23.6457 7.58291 23.7683 7.67842 23.8588C7.77392 23.9492 7.90345 24 8.03851 24H12.0384C12.1735 24 12.303 23.9492 12.3985 23.8588C12.494 23.7683 12.5476 23.6457 12.5476 23.5178V15.3911L17.9868 23.7703C18.0323 23.8405 18.0961 23.8985 18.1721 23.9387C18.248 23.9789 18.3336 24 18.4206 24H23.9606C24.0956 24 24.2252 23.9492 24.3207 23.8588C24.4162 23.7683 24.4698 23.6457 24.4698 23.5178V8.48223C24.4698 8.4189 24.4566 8.3562 24.431 8.29769C24.4055 8.23918 24.3679 8.18602 24.3207 8.14124C24.2734 8.09646 24.2172 8.06094 24.1554 8.03671C24.0937 8.01247 24.0274 8 23.9606 8H19.8395C19.7044 8 19.5749 8.05081 19.4794 8.14124C19.3839 8.23168 19.3302 8.35434 19.3302 8.48223V16.695L13.8352 8.2297C13.7897 8.15951 13.7259 8.10154 13.6499 8.06133C13.574 8.02111 13.4884 8 13.4014 8ZM31.9657 22.7414C31.9122 22.5431 31.7985 22.3659 31.6399 22.2338L25.6058 17.207V23.5999C25.6058 23.6524 25.6162 23.7044 25.6366 23.753C25.6569 23.8016 25.6866 23.8457 25.7241 23.8828C25.7617 23.92 25.8062 23.9495 25.8552 23.9696C25.9043 23.9897 25.9568 24.0001 26.0099 24.0001H30.9897C31.1969 24.0001 31.3991 23.937 31.5689 23.8193C31.7386 23.7016 31.8678 23.5351 31.9387 23.3423C32.0097 23.1495 32.0191 22.9397 31.9657 22.7414Z" fill="white"/>
</svg>
