<?xml version="1.0" encoding="UTF-8" standalone="no"?>
<svg
   width="32"
   height="32"
   viewBox="0 0 32 32"
   fill="none"
   version="1.1"
   id="svg4"
   sodipodi:docname="rounded_locked_button.svg"
   inkscape:version="1.2.2 (b0a8486541, 2022-12-01)"
   xml:space="preserve"
   inkscape:export-filename="rounded_locked_button.png"
   inkscape:export-xdpi="96"
   inkscape:export-ydpi="96"
   xmlns:inkscape="http://www.inkscape.org/namespaces/inkscape"
   xmlns:sodipodi="http://sodipodi.sourceforge.net/DTD/sodipodi-0.dtd"
   xmlns="http://www.w3.org/2000/svg"
   xmlns:svg="http://www.w3.org/2000/svg"
   xmlns:rdf="http://www.w3.org/1999/02/22-rdf-syntax-ns#"
   xmlns:cc="http://creativecommons.org/ns#"
   xmlns:dc="http://purl.org/dc/elements/1.1/"><metadata
     id="metadata10"><rdf:RDF><cc:Work
         rdf:about=""><dc:format>image/svg+xml</dc:format><dc:type
           rdf:resource="http://purl.org/dc/dcmitype/StillImage" /><dc:title /></cc:Work></rdf:RDF></metadata><defs
     id="defs8" /><sodipodi:namedview
     pagecolor="#ffffff"
     bordercolor="#666666"
     borderopacity="1"
     objecttolerance="10"
     gridtolerance="10"
     guidetolerance="10"
     inkscape:pageopacity="0"
     inkscape:pageshadow="2"
     inkscape:window-width="1916"
     inkscape:window-height="1034"
     id="namedview6"
     showgrid="false"
     fit-margin-top="0"
     fit-margin-left="0"
     fit-margin-right="0"
     fit-margin-bottom="0"
     inkscape:zoom="15.401126"
     inkscape:cx="18.277884"
     inkscape:cy="7.1098696"
     inkscape:window-x="0"
     inkscape:window-y="44"
     inkscape:window-maximized="0"
     inkscape:current-layer="svg4"
     inkscape:showpageshadow="2"
     inkscape:pagecheckerboard="0"
     inkscape:deskcolor="#d1d1d1" /><rect
     x="0"
     y="0"
     width="32"
     height="32"
     rx="5"
     fill="#ffffff"
     id="rect2" /><g
     style="fill:none"
     id="g33005"
     transform="translate(8.3669405,5.989995)"><path
       fill-rule="evenodd"
       clip-rule="evenodd"
       d="m 7.63304,0.51001 c -2.93277,0 -5.29412,2.42131 -5.29412,5.42857 v 0.90476 c -0.97058,0 -1.764701,0.81429 -1.764701,1.80953 v 9.04763 c 0,0.9952 0.794121,1.8095 1.764701,1.8095 H 12.9272 c 0.9705,0 1.7647,-0.8143 1.7647,-1.8095 V 8.65287 c 0,-0.99524 -0.7942,-1.80953 -1.7647,-1.80953 V 5.93858 c 0,-3.00726 -2.3614,-5.42857 -5.29416,-5.42857 z m 0,1.80952 c 2.00841,0 3.52946,1.55964 3.52946,3.61905 V 6.84334 H 4.10363 V 5.93858 c 0,-2.05941 1.52101,-3.61905 3.52941,-3.61905 z M 9.39775,13.1767 c 0,-0.9953 -0.79412,-1.8095 -1.76471,-1.8095 -0.97059,0 -1.7647,0.8142 -1.7647,1.8095 0,0.9952 0.79411,1.8095 1.7647,1.8095 0.97059,0 1.76471,-0.8143 1.76471,-1.8095 z"
       fill="#7b7e9e"
       id="path32996" /></g></svg>
