<?xml version="1.0" encoding="UTF-8" standalone="no"?>
<svg
   version="1"
   viewBox="0 0 32 32"
   id="svg4"
   sodipodi:docname="hammer_scaled.svg"
   width="32"
   height="32"
   inkscape:version="1.1 (c68e22c387, 2021-05-23)"
   inkscape:export-filename="C:\Users\ElectroSR\Documents\GitHub\space-station-14\Resources\Textures\Interface\hammer_scaled.svg.192dpi.png"
   inkscape:export-xdpi="192"
   inkscape:export-ydpi="192"
   xmlns:inkscape="http://www.inkscape.org/namespaces/inkscape"
   xmlns:sodipodi="http://sodipodi.sourceforge.net/DTD/sodipodi-0.dtd"
   xmlns="http://www.w3.org/2000/svg"
   xmlns:svg="http://www.w3.org/2000/svg"
   xmlns:rdf="http://www.w3.org/1999/02/22-rdf-syntax-ns#"
   xmlns:cc="http://creativecommons.org/ns#"
   xmlns:dc="http://purl.org/dc/elements/1.1/">
  <metadata
     id="metadata10">
    <rdf:RDF>
      <cc:Work
         rdf:about="">
        <dc:format>image/svg+xml</dc:format>
        <dc:type
           rdf:resource="http://purl.org/dc/dcmitype/StillImage" />
      </cc:Work>
    </rdf:RDF>
  </metadata>
  <defs
     id="defs8">
    <symbol
       id="UpArrow">
      <title
         id="title4024">Up Arrow</title>
      <path
         d="M 36,9 58,31 58,46 42,30 42,62 30,62 30,30 14,46 14,31 z"
         style="stroke:none"
         id="path4026" />
    </symbol>
  </defs>
  <sodipodi:namedview
     pagecolor="#ffffff"
     bordercolor="#666666"
     borderopacity="1"
     objecttolerance="10"
     gridtolerance="10"
     guidetolerance="10"
     inkscape:pageopacity="0"
     inkscape:pageshadow="2"
     inkscape:window-width="2560"
     inkscape:window-height="1417"
     id="namedview6"
     showgrid="false"
     inkscape:pagecheckerboard="true"
     inkscape:zoom="22.627417"
     inkscape:cx="5.8778251"
     inkscape:cy="12.926796"
     inkscape:window-x="-8"
     inkscape:window-y="-8"
     inkscape:window-maximized="1"
     inkscape:current-layer="svg4" />
  <g
     transform="matrix(3.1774603,0,0,3.1774603,246.59289,376.58527)"
     id="layer1">
    <path
       id="path34"
       d="m -70.236934,-117.55773 -0.861483,0.0297 c -0.04048,0.001 -0.07832,0.0195 -0.105569,0.0503 l -0.102658,0.11563 -0.112713,-0.10822 c -0.03016,-0.0288 -0.06958,-0.044 -0.109802,-0.0429 l -1.723231,0.0593 c -0.345546,0.0119 -0.924454,0.0318 -1.479814,0.65811 -0.555096,0.62585 -0.529432,1.18144 -0.51144,1.58708 0.0029,0.064 0.0426,0.12052 0.100806,0.14295 0.05821,0.0227 0.123296,0.007 0.164571,-0.04 0.827352,-0.93271 1.309423,-0.67016 1.599935,-0.39139 0.241565,0.23159 0.245269,0.55176 0.259557,0.73109 h 1.480872 c 0.0463,-0.33388 0.127,-0.82923 0.259028,-0.9535 l 0.154516,0.14827 c 0.03016,0.0288 0.06959,0.044 0.109802,0.0428 l 1.077119,-0.0371 c 0.04022,-0.002 0.07832,-0.0195 0.105569,-0.0503 l 0.0034,-0.004 c 0.02752,-0.033 0.04022,-0.0765 0.03519,-0.11983 l -0.184679,-1.67522 c -0.0093,-0.0833 -0.07858,-0.14548 -0.159015,-0.14294 z"
       style="clip-rule:evenodd;fill:#ffffff;fill-opacity:0.941176;fill-rule:evenodd;stroke-width:0.264583" />
    <path
       id="path36"
       d="m -73.125919,-110.25648 c -0.004,0.22704 0.07726,0.43934 0.242094,0.61087 0.313531,0.32631 0.832379,0.31758 1.157287,-0.0195 0.165365,-0.17174 0.256381,-0.40722 0.249767,-0.64571 l -0.163777,-4.08366 h -1.485371 z"
       style="clip-rule:evenodd;fill:#ffffff;fill-opacity:0.941176;fill-rule:evenodd;stroke-width:0.264583" />
  </g>
</svg>
