<!DOCTYPE svg PUBLIC "-//W3C//DTD SVG 1.1//EN" "http://www.w3.org/Graphics/SVG/1.1/DTD/svg11.dtd">
<!-- Uploaded to: SVG Repo, www.svgrepo.com, Transformed by: SVG Repo Mixer Tools -->
<!-- From: https://www.svgrepo.com/svg/20672/color-splash -->
<!-- Licence: CC0 -->
<!-- Edited by Beck to be white under the same licence -->
<svg fill="#ffffff" height="800px" width="800px" version="1.1" id="Capa_1" xmlns="http://www.w3.org/2000/svg" xmlns:xlink="http://www.w3.org/1999/xlink" viewBox="0 0 297 297" xml:space="preserve">

<g id="SVGRepo_bgCarrier" stroke-width="0"/>

<g id="SVGRepo_tracerCarrier" stroke-linecap="round" stroke-linejoin="round"/>

<g id="SVGRepo_iconCarrier"> <g> <path d="M165.797,288.71c-16.89,0-23.974-15.545-26.301-20.652c-1.919-4.214-4.4-6.728-6.637-6.728 c-1.343,0-2.797,0.826-3.621,2.059c-10.602,15.854-29.265,25.322-49.922,25.322c-34.197,0-62.021-27.887-62.021-62.166 c0-21.166,8.271-38.889,22.124-47.404c3.865-2.381,5.826-4.702,5.826-6.9c0-2.814-3.012-4.884-5.989-5.476 C15.409,162.026,0,144.645,0,122.485c0-24.713,20.065-44.82,44.729-44.82c11.259,0,22.653,4.772,30.479,12.766 c3.585,3.661,7.638,5.365,12.756,5.365c8.769,0,16.306-6.502,16.459-14.196c0.047-2.183-0.073-9.916-0.124-12.712 c-0.001-0.063-0.002-0.124-0.002-0.185c0-33.875,27.013-60.413,61.499-60.413c34.199,0,62.024,27.887,62.024,62.166 c0,14.94-7.221,31.259-12.493,43.174l-0.237,0.537c-3.781,8.552-3.697,16.272,0.246,22.327c4.468,6.86,13.725,11.124,24.159,11.124 c1.115,0,2.254-0.048,3.384-0.143c2.557-0.215,7.247-0.388,9.649-0.428c0.243-0.004,0.471-0.006,0.7-0.006 c24.135,0,43.77,20.104,43.77,44.818c0,24.714-20.065,44.82-44.729,44.82c-12.84,0-22.554-6.859-30.36-12.371 c-0.97-0.685-1.936-1.366-2.905-2.034c-4.171-2.877-7.974-4.159-12.333-4.159c-4.903,0-9.571,2.035-13.147,5.728 c-3.759,3.884-5.732,9.02-5.557,14.46c0.102,3.117,0.82,5.201,1.91,8.355c1.066,3.087,2.392,6.927,3.264,12.284 c1.13,6.959-0.928,13.939-5.793,19.656C181.964,284.93,173.906,288.71,165.797,288.71z M132.859,241.057 c10.559,0,19.702,6.778,25.084,18.596c4.004,8.785,6.701,8.785,7.854,8.785c2.142,0,4.599-1.195,6.113-2.975 c0.55-0.647,1.44-1.931,1.222-3.269c-0.591-3.637-1.477-6.201-2.414-8.916c-1.317-3.814-2.812-8.137-3.012-14.318 c-0.355-10.979,3.642-21.355,11.255-29.217c7.319-7.563,17.421-11.899,27.712-11.899c8.487,0,16.285,2.532,23.837,7.739 c1.029,0.709,2.061,1.436,3.094,2.166c6.58,4.646,12.264,8.658,18.668,8.658c13.484,0,24.456-11.011,24.456-24.547 c0-13.534-10.541-24.547-23.498-24.547l-0.364,0.004c-2.324,0.04-6.461,0.206-8.29,0.359c-1.692,0.142-3.401,0.213-5.079,0.213 c-17.474,0-32.855-7.6-41.145-20.331c-7.756-11.908-8.395-26.679-1.8-41.591l0.237-0.541c4.543-10.262,10.761-24.316,10.761-34.971 c0-23.1-18.73-41.893-41.752-41.893c-23.473,0-41.181,17.214-41.227,40.053c0.025,1.451,0.185,10.525,0.121,13.406 c-0.373,18.766-16.85,34.047-36.727,34.047c-10.633,0-19.798-3.854-27.24-11.454c-3.972-4.057-10.25-6.677-15.995-6.677 c-13.485,0-24.457,11.012-24.457,24.547c0,12.422,8.573,21.542,22.935,24.395c13.139,2.611,22.313,13.039,22.313,25.359 c0,6.678-2.686,16.292-15.477,24.166c-9.2,5.656-12.476,19.276-12.476,30.139c0,23.1,18.729,41.894,41.749,41.894 c13.875,0,26.239-6.103,33.074-16.325C116.959,245.29,124.8,241.057,132.859,241.057z"/> </g> </g>

</svg>
