<?xml version="1.0" encoding="UTF-8" standalone="no"?>
<!-- Created with Inkscape (http://www.inkscape.org/) -->

<svg
   xmlns:dc="http://purl.org/dc/elements/1.1/"
   xmlns:cc="http://creativecommons.org/ns#"
   xmlns:rdf="http://www.w3.org/1999/02/22-rdf-syntax-ns#"
   xmlns:svg="http://www.w3.org/2000/svg"
   xmlns="http://www.w3.org/2000/svg"
   xmlns:sodipodi="http://sodipodi.sourceforge.net/DTD/sodipodi-0.dtd"
   xmlns:inkscape="http://www.inkscape.org/namespaces/inkscape"
   width="14.761317mm"
   height="12.411281mm"
   viewBox="0 0 14.761317 12.411281"
   version="1.1"
   id="svg2871"
   sodipodi:docname="target-doll-middle.svg"
   inkscape:version="0.92.4 5da689c313, 2019-01-14">
  <defs
     id="defs2865" />
  <sodipodi:namedview
     id="base"
     pagecolor="#ffffff"
     bordercolor="#666666"
     borderopacity="1.0"
     inkscape:pageopacity="0.0"
     inkscape:pageshadow="2"
     inkscape:zoom="3.959798"
     inkscape:cx="12.344179"
     inkscape:cy="40.151172"
     inkscape:document-units="mm"
     inkscape:current-layer="layer1"
     showgrid="false"
     inkscape:pagecheckerboard="true"
     inkscape:window-width="506"
     inkscape:window-height="416"
     inkscape:window-x="737"
     inkscape:window-y="125"
     inkscape:window-maximized="0" />
  <metadata
     id="metadata2868">
    <rdf:RDF>
      <cc:Work
         rdf:about="">
        <dc:format>image/svg+xml</dc:format>
        <dc:type
           rdf:resource="http://purl.org/dc/dcmitype/StillImage" />
        <dc:title></dc:title>
      </cc:Work>
    </rdf:RDF>
  </metadata>
  <g
     inkscape:label="Layer 1"
     inkscape:groupmode="layer"
     id="layer1"
     transform="translate(-10.762198,-63.252693)">
    <g
       transform="matrix(0.35841461,0,0,0.35841461,2.5098095,57.743415)"
       style="fill:none;fill-rule:evenodd;stroke:none;stroke-width:1"
       id="g2227"
       inkscape:export-xdpi="96"
       inkscape:export-ydpi="96">
      <path
         style="fill:#ffffff;fill-opacity:1"
         d="m 25.617188,18.316406 c -3.668766,-0.05227 -7.262714,0.181254 -9.824219,0.681641 -2.551079,0.498351 -1.047616,0.156792 -2.542969,0.511719 -2.314857,0.549439 -3.5665384,0.789355 -4.8964844,5.476562 -1.144246,4.032732 -2.0775479,11.023827 -3.2949218,23.515625 -0.541004,4.214675 5.5660002,4.497851 6.0878902,0.478516 0.812159,-6.314445 1.251033,-14.240793 3.007813,-20.582031 l 0.01953,24.539062 c 7.628906,0 15.257813,0 22.886719,0 h 0.002 l 0.01758,-24.539062 c 1.75678,6.341238 2.197607,14.267586 3.009766,20.582031 0.52189,4.019335 6.626941,3.736159 6.085937,-0.478516 C 44.958455,36.010155 44.027106,29.01906 42.88286,24.986328 41.552915,20.299121 40.29928,20.059205 37.984423,19.509766 36.48907,19.154839 37.994483,19.496396 35.443407,18.998047 32.881902,18.49766 29.286001,18.264136 25.617236,18.316406 Z"
         transform="translate(18,-2.937978)"
         id="path308"
         inkscape:connector-curvature="0"
         sodipodi:nodetypes="cssscccccccccssscc" />
    </g>
  </g>
</svg>
