<?xml version="1.0" encoding="UTF-8" standalone="no"?>
<svg
   width="256"
   height="64"
   viewBox="0 0 256 64"
   fill="none"
   version="1.1"
   id="svg4"
   sodipodi:docname="paper_heading_warrant.svg"
   inkscape:version="1.3.2 (091e20e, 2023-11-25, custom)"
   inkscape:export-filename="paper_heading_warrant.svg.192dpi.svg"
   inkscape:export-xdpi="96"
   inkscape:export-ydpi="96"
   xmlns:inkscape="http://www.inkscape.org/namespaces/inkscape"
   xmlns:sodipodi="http://sodipodi.sourceforge.net/DTD/sodipodi-0.dtd"
   xmlns="http://www.w3.org/2000/svg"
   xmlns:svg="http://www.w3.org/2000/svg"
   xmlns:rdf="http://www.w3.org/1999/02/22-rdf-syntax-ns#"
   xmlns:cc="http://creativecommons.org/ns#"
   xmlns:dc="http://purl.org/dc/elements/1.1/">
  <metadata
     id="metadata10">
    <rdf:RDF>
      <cc:Work
         rdf:about="">
        <dc:format>image/svg+xml</dc:format>
        <dc:type
           rdf:resource="http://purl.org/dc/dcmitype/StillImage" />
      </cc:Work>
    </rdf:RDF>
  </metadata>
  <defs
     id="defs8">
    <rect
       x="17.577076"
       y="28.370017"
       width="242.07025"
       height="53.347968"
       id="rect1" />
    <rect
       x="12.500253"
       y="14.598581"
       width="334.51892"
       height="47.488827"
       id="rect348" />
  </defs>
  <sodipodi:namedview
     pagecolor="#ffffff"
     bordercolor="#666666"
     borderopacity="1"
     objecttolerance="10"
     gridtolerance="10"
     guidetolerance="10"
     inkscape:pageopacity="0"
     inkscape:pageshadow="2"
     inkscape:window-width="2560"
     inkscape:window-height="1377"
     id="namedview6"
     showgrid="false"
     inkscape:snap-bbox="true"
     inkscape:bbox-paths="false"
     inkscape:bbox-nodes="true"
     inkscape:snap-object-midpoints="false"
     inkscape:snap-nodes="false"
     inkscape:snap-page="true"
     inkscape:zoom="3.2428602"
     inkscape:cx="96.828103"
     inkscape:cy="12.180605"
     inkscape:window-x="-8"
     inkscape:window-y="-8"
     inkscape:window-maximized="1"
     inkscape:current-layer="svg4"
     inkscape:showpageshadow="2"
     inkscape:pagecheckerboard="0"
     inkscape:deskcolor="#d1d1d1" />
  <path
     style="display:inline;fill:none;stroke:none;stroke-opacity:1"
     id="path3"
     d="m 36.349804,15.970893 c -1.609666,1.682892 -3.239328,3.380564 -4.350593,5.451429 -0.32296,0.601844 -0.572613,1.240239 -0.85892,1.860359 -1.400384,4.621583 -1.594226,9.481555 -2.110038,14.254133 1.735502,0.584751 -1.162417,1.23911 -0.69407,1.565358 0.55773,0.388513 2.014759,1.258466 1.954479,0.581434 -0.10399,-1.167953 -1.497738,-1.809745 -2.150567,-2.78378 -2.243126,-3.346794 -3.690142,-6.31455 -5.596872,-9.900352 C 20.039611,21.977809 17.714464,16.867199 15.5617,11.685594 14.740871,9.7098962 13.837037,7.490287 13.195381,5.423014 12.989717,4.7604083 12.846221,4.0800827 12.671641,3.4086171 10.068103,3.1217034 13.356085,1.8379318 12.82476,1.4619705 12.109758,0.95604123 10.84711,-0.26097696 10.385968,0.48369709 9.8995281,1.2692244 11.549812,1.9221809 12.064688,2.689371 c 0.937154,1.3964062 4.631506,7.586736 5.278323,8.662222 3.101744,5.085038 6.539251,9.960405 10.406182,14.494119 1.122527,1.316086 2.253277,2.630243 3.482446,3.847326 2.900958,2.872433 4.269559,3.697639 7.496096,6.058287 5.297561,3.269168 2.241478,1.456899 9.231048,5.329486 0,0 -2.681341,-2.15501 -2.681341,-2.15501 v 0 c -0.02806,1.497166 0.03809,0.16754 -3.480095,-1.959452 C 38.544079,34.628014 37.14706,33.800865 34.221757,30.947733 32.973819,29.730584 31.823585,28.415479 30.683533,27.096736 26.793378,22.596841 23.337047,17.747033 20.271261,12.651243 18.602678,9.7966349 16.991301,6.9080112 15.273169,4.0829489 14.806457,3.3155501 14.507503,2.380656 13.800883,1.8262109 12.558583,0.85144843 11.106791,0.11142326 9.6019245,-0.36695703 8.8877503,-0.59398508 9.5891894,2.7437562 9.4568524,1.8765298 9.652289,2.5681647 9.8162957,3.2694624 10.043162,3.9514344 c 0.691016,2.0772267 1.680512,4.3863387 2.535742,6.3652866 2.241114,5.185795 4.618789,10.312712 7.093949,15.390666 1.829232,3.544094 3.243301,6.476683 5.325319,9.834536 0.598604,0.965421 1.07486,2.067935 1.94479,2.798403 1.350693,1.134157 2.929831,2.016545 4.567931,2.670234 0.601428,0.240002 0.638588,-2.107992 0.722013,-1.803483 0.390932,-4.750736 0.532785,-9.59608 2.01531,-14.166143 0.283977,-0.60384 0.530966,-1.226502 0.851932,-1.811521 1.120221,-2.041807 2.760311,-3.718468 4.435565,-5.306192 z" />
  <path
     style="display:inline;fill:#000000;fill-opacity:1;stroke:none;stroke-opacity:1"
     id="path4"
     d="M 70.823431,18.999312 C 66.770923,17.946627 62.804725,16.609648 58.879849,15.15917 53.789302,13.124058 48.835438,10.741062 43.497442,9.3933232 38.47117,8.1242889 37.65125,8.1591106 32.69028,7.5163597 28.302003,7.073289 23.872195,7.0232054 19.487647,7.5418612 c -1.623519,0.192049 -4.216324,0.6034149 -5.802335,1.2938894 -0.580667,0.2527952 -1.062924,0.6888474 -1.594386,1.033271 -0.184503,0.4494574 -0.531318,0.8630264 -0.55351,1.3483734 -0.02517,0.550404 0.173886,1.105436 0.418748,1.599016 1.561229,3.147036 4.906203,3.972512 8.161331,4.234892 1.564632,0.126118 3.13597,-0.146981 4.703955,-0.220472 1.838114,-0.339548 3.68784,-0.621346 5.514342,-1.018645 1.651616,-0.359259 11.66312,-2.929624 12.992803,-3.227302 4.532726,-1.014748 9.854947,-2.00383 14.489129,-2.518315 2.073856,-0.230239 4.162681,-0.2960629 6.244021,-0.4440943 3.35897,0.1483451 6.068417,-0.027461 9.247676,1.1158203 0.695361,0.250056 1.428503,0.621132 1.841922,1.233618 0.387657,0.574317 0.756462,1.469298 0.371293,2.045286 -1.544539,2.309734 -7.692412,3.799209 -9.387289,4.382468 -6.84916,1.918773 -13.868645,3.085643 -20.849315,4.393786 -5.845524,1.095423 -4.49892,0.8401 -9.756758,1.93796 0,0 0.07301,0.01957 0.07301,0.01957 v 0 c 10.385912,-1.914343 20.839553,-3.55202 31.071435,-6.207054 2.127297,-0.680239 4.332892,-1.152053 6.38189,-2.040718 1.254783,-0.544209 2.667815,-1.100137 3.448822,-2.222934 0.403705,-0.580378 0.05194,-1.585228 -0.46283,-2.069814 C 75.093201,11.31768 73.749057,10.945164 72.515945,10.52569 69.194396,9.3957774 67.013675,9.6035838 63.461142,9.4615437 61.409944,9.6176517 59.351243,9.69515 57.307548,9.9298677 52.83425,10.443625 47.179169,11.487397 42.812516,12.446601 c -1.205568,0.264822 -11.592576,2.862678 -13.137269,3.188592 -1.856073,0.391612 -3.735451,0.663228 -5.603176,0.994843 -1.98728,0.08057 -5.472692,0.561513 -7.625882,-0.299145 -1.682419,-0.672484 -3.947972,-2.799397 -3.877074,-4.837054 0.01684,-0.483854 0.339545,-0.906809 0.509318,-1.360214 0.495489,-0.3540622 0.935187,-0.803422 1.486468,-1.0621872 1.523973,-0.7153366 4.089551,-1.1375975 5.657505,-1.3326964 4.340816,-0.5401234 8.730136,-0.487809 13.077568,-0.059013 3.619165,0.4679871 6.064099,0.6678996 9.566448,1.544515 5.304179,1.3276026 10.215293,3.7199586 15.271356,5.7360916 4.47262,1.655747 9.006582,3.133178 13.635655,4.293531 z"
     inkscape:label="stroke2" />
  <path
     style="display:inline;fill:#000000;fill-opacity:1;stroke:none;stroke-opacity:1"
     id="path5"
     d="m 66.075194,17.780704 c 2.907457,0.913484 6.185544,1.605093 9.290174,2.141671 1.429259,0.171123 3.205254,0.443882 4.657526,0.383456 1.989779,-0.08279 4.040423,-0.594125 5.793426,-1.551787 0.382368,-0.208887 0.720167,-0.490626 1.080251,-0.73594 0.01571,0.13487 1.02365,-1.066004 0.608173,-1.308051 -2.010422,-1.171224 -5.461381,-0.252741 -7.554144,0.219237 -1.988896,0.594483 -1.080141,0.265726 -2.740185,0.946905 0,0 0.07301,0.01956 0.07301,0.01956 v 0 c 2.01492,-0.548139 0.958734,-0.269331 3.169776,-0.831796 2.070356,-0.430226 3.709309,-0.740215 5.841629,-0.674059 0.09726,0.003 0.25175,-0.02039 0.282959,0.07177 0.192753,0.569215 -0.332564,0.945854 -0.624632,1.30364 -0.356125,0.246375 -0.688521,0.531191 -1.068376,0.739123 -1.745902,0.955702 -3.813814,1.462071 -5.793828,1.551678 -1.419414,0.06424 -3.151433,-0.193468 -4.550828,-0.354865 -3.09464,-0.529267 -6.152676,-1.184105 -9.156371,-2.10582 z"
     inkscape:label="stroke1" />
  <path
     style="display:inline;fill:#000000;fill-opacity:1;stroke:none;stroke-opacity:1"
     id="path6"
     d="m 182.98619,18.999312 c 4.05251,-1.052685 8.01871,-2.389664 11.94359,-3.840142 5.09054,-2.035112 10.04441,-4.418108 15.3824,-5.7658468 5.02628,-1.2690343 5.8462,-1.2342126 10.80717,-1.8769635 4.38827,-0.4430707 8.81808,-0.4931543 13.20263,0.025501 1.62352,0.192049 4.21632,0.6034149 5.80233,1.2938894 0.58067,0.2527952 1.06293,0.6888474 1.59439,1.033271 0.1845,0.4494569 0.53132,0.8630259 0.55351,1.3483729 0.0252,0.550404 -0.17389,1.105436 -0.41875,1.599016 -1.56123,3.147036 -4.9062,3.972512 -8.16133,4.234892 -1.56463,0.126118 -3.13597,-0.146981 -4.70395,-0.220472 -1.83812,-0.339548 -3.68784,-0.621346 -5.51435,-1.018645 -1.65161,-0.359258 -11.66312,-2.929623 -12.9928,-3.227301 -4.53273,-1.014748 -9.85495,-2.00383 -14.48913,-2.518315 -2.07385,-0.230239 -4.16268,-0.2960629 -6.24402,-0.4440943 -3.35897,0.1483451 -6.06842,-0.027461 -9.24768,1.1158203 -0.69536,0.250056 -1.4285,0.621132 -1.84192,1.233618 -0.38765,0.574317 -0.75646,1.469298 -0.37129,2.045286 1.54454,2.309734 7.69241,3.799209 9.38729,4.382468 6.84916,1.918773 13.86864,3.085643 20.84931,4.393786 5.84553,1.095423 4.49892,0.8401 9.75676,1.93796 0,0 -0.073,0.01957 -0.073,0.01957 v 0 c -10.38591,-1.914343 -20.83955,-3.55202 -31.07143,-6.207054 -2.1273,-0.680239 -4.3329,-1.152053 -6.38189,-2.040718 -1.25479,-0.544209 -2.66782,-1.100137 -3.44883,-2.222934 -0.4037,-0.580378 -0.0519,-1.585228 0.46283,-2.069814 0.9484,-0.892783 2.29255,-1.265299 3.52566,-1.684773 3.32155,-1.1299126 5.50227,-0.9221062 9.0548,-1.0641463 2.0512,0.156108 4.1099,0.2336063 6.1536,0.468324 4.4733,0.5137573 10.12838,1.5575293 14.49503,2.5167333 1.20557,0.264822 11.59258,2.862678 13.13727,3.188592 1.85607,0.391612 3.73545,0.663228 5.60317,0.994843 1.98728,0.08057 5.4727,0.561513 7.62589,-0.299145 1.68242,-0.672484 3.94797,-2.799397 3.87707,-4.837054 -0.0168,-0.483854 -0.33954,-0.906809 -0.50932,-1.360214 -0.49549,-0.3540622 -0.93518,-0.803422 -1.48647,-1.0621872 -1.52397,-0.7153366 -4.08955,-1.1375975 -5.6575,-1.3326964 -4.34082,-0.5401234 -8.73014,-0.487809 -13.07757,-0.059013 -3.61916,0.4679871 -6.0641,0.6678996 -9.56645,1.544515 -5.30418,1.3276026 -10.21529,3.7199586 -15.27135,5.7360916 -4.47262,1.655747 -9.00658,3.133178 -13.63566,4.293531 z"
     inkscape:label="stroke2_r" />
  <path
     style="display:inline;fill:#000000;fill-opacity:1;stroke:none;stroke-opacity:1"
     id="path7"
     d="m 188.98404,17.780704 c -2.90745,0.913484 -6.18554,1.605093 -9.29017,2.141671 -1.42926,0.171123 -3.20525,0.443882 -4.65753,0.383456 -1.98978,-0.08279 -4.04042,-0.594125 -5.79342,-1.551787 -0.38237,-0.208887 -0.72017,-0.490626 -1.08025,-0.73594 -0.0157,0.13487 -1.02365,-1.066004 -0.60818,-1.308051 2.01043,-1.171224 5.46138,-0.252741 7.55415,0.219237 1.98889,0.594483 1.08014,0.265726 2.74018,0.946905 0,0 -0.073,0.01956 -0.073,0.01956 v 0 c -2.01492,-0.548139 -0.95873,-0.269331 -3.16977,-0.831796 -2.07036,-0.430226 -3.70931,-0.740215 -5.84163,-0.674059 -0.0973,0.003 -0.25175,-0.02039 -0.28296,0.07177 -0.19275,0.569215 0.33256,0.945854 0.62463,1.30364 0.35613,0.246375 0.68852,0.531191 1.06838,0.739123 1.7459,0.955702 3.81381,1.462071 5.79382,1.551678 1.41942,0.06424 3.15144,-0.193468 4.55083,-0.354865 3.09464,-0.529267 6.15268,-1.184105 9.15637,-2.10582 z"
     inkscape:label="stroke1_r" />
  <path
     sodipodi:type="star"
     style="fill:#000000;fill-opacity:1;stroke:none;stroke-opacity:1"
     id="path8"
     inkscape:flatsided="false"
     sodipodi:sides="6"
     sodipodi:cx="128.28181"
     sodipodi:cy="19.427294"
     sodipodi:r1="7.4008741"
     sodipodi:r2="3.7004371"
     sodipodi:arg1="-1.5707963"
     sodipodi:arg2="-1.0471976"
     inkscape:rounded="0"
     inkscape:randomized="0"
     d="m 128.28181,12.02642 1.85022,4.196201 4.55913,-0.495764 -2.70891,3.700437 2.70891,3.700437 -4.55913,-0.495765 -1.85022,4.196202 -1.85021,-4.196202 -4.55913,0.495765 2.70891,-3.700437 -2.70891,-3.700437 4.55913,0.495764 z"
     transform="translate(0,-3.700437)" />
  <path
     d="m 84.776722,56.010245 c -0.410666,0 -0.746666,-0.186667 -0.746666,-3.397331 l 0.522666,-11.498657 c 0.07467,-1.269332 0.07467,-2.463998 0.224,-2.911997 0.149333,-0.485333 0.336,-0.485333 0.559999,-0.485333 h 0.03733 c 0.149333,0 0.261333,0 0.410666,-0.112 0.186666,-0.112 0.261333,-0.298666 0.261333,-0.485333 v -5.562662 c 0,-0.410666 -0.336,-0.746666 -0.746666,-0.746666 h -6.271995 c -0.410666,0 -0.746666,0.336 -0.746666,0.746666 v 5.413329 c 0,0.224 0.112,0.410666 0.224,0.522666 0.149333,0.149333 0.336,0.224 0.522666,0.224 0.373333,0 0.784,0.821333 0.784,2.575998 0,0.261333 0,0.522666 -0.03733,0.821332 l -0.522666,10.303992 c 0,0.149333 -0.112,0.261333 -0.224,0.261333 -0.112,0 -0.186666,-0.07467 -0.223999,-0.149333 L 75.107397,37.86626 c -0.112,-0.336 -0.410667,-0.485333 -0.709333,-0.485333 -0.298666,0 -0.56,0.149333 -0.709333,0.485333 l -3.73333,13.701322 c -0.03733,0.112 -0.112,0.149333 -0.186666,0.149333 -0.149334,0 -0.261334,-0.112 -0.261334,-0.224 L 68.984735,41.114257 c 0,-0.223999 -0.03733,-0.410666 -0.03733,-0.634666 0,-0.933332 0.149333,-1.903998 0.261333,-2.277331 0.149333,-0.485333 0.336,-0.485333 0.56,-0.485333 h 0.03733 c 0.149333,0 0.261333,0 0.410666,-0.112 0.186667,-0.112 0.261333,-0.298666 0.261333,-0.485333 v -5.562662 c 0,-0.410666 -0.335999,-0.746666 -0.746666,-0.746666 h -6.271994 c -0.410667,0 -0.746666,0.336 -0.746666,0.746666 v 5.413329 c 0,0.224 0.112,0.410666 0.223999,0.522666 0.149334,0.149333 0.336,0.224 0.522667,0.224 0.410666,0 0.671999,1.418665 0.746666,3.39733 l 0.522666,11.498657 c 0,1.605332 -0.07467,2.463998 -0.224,2.911998 -0.112,0.410666 -0.298666,0.447999 -0.485333,0.447999 H 63.83274 c -0.112,0 -0.224,0.03733 -0.336,0.112 -0.149333,0.149334 -0.224,0.336 -0.224,0.522667 v 5.562661 c 0,0.410667 0.336,0.746666 0.709333,0.746666 h 5.450662 c 0.895999,0 1.679998,-0.559999 1.978665,-1.418665 l 2.762664,-10.079991 c 0.03733,-0.112 0.149333,-0.149334 0.224,-0.149334 0.112,0 0.186667,0.03733 0.224,0.149334 l 2.762664,10.079991 c 0.261333,0.858666 1.045333,1.418665 1.941332,1.418665 h 5.450662 c 0.410666,0 0.709333,-0.335999 0.709333,-0.746666 v -5.450662 c 0,-0.186666 -0.07467,-0.373333 -0.186667,-0.522666 -0.149333,-0.112 -0.336,-0.186666 -0.522666,-0.186666 z m 21.167988,0 c -0.26133,0 -0.52267,-0.224 -0.56,-0.448 l -3.136,-17.210652 v -0.112 c 0,-0.298666 0.18667,-0.522666 0.48533,-0.522666 0.26134,0 0.48534,-0.224 0.48534,-0.485333 v -5.637329 c 0,-0.410666 -0.336,-0.783999 -0.784,-0.783999 H 91.758054 c -0.448,0 -0.784,0.373333 -0.784,0.783999 v 5.637329 c 0,0.261333 0.149333,0.485333 0.410667,0.485333 h 0.07467 c 0.261333,0 0.485333,0.186666 0.485333,0.522666 v 0.112 l -3.135997,17.210652 c -0.03733,0.224 -0.298667,0.448 -0.56,0.448 H 87.76339 c -0.335999,0 -0.559999,0.261333 -0.559999,0.559999 v 5.562662 c 0,0.410666 0.336,0.783999 0.783999,0.783999 h 6.122662 c 0.447999,0 0.821332,-0.373333 0.821332,-0.783999 v -5.562662 c 0,-0.298666 -0.261333,-0.559999 -0.559999,-0.559999 -0.336,0 -0.56,-0.298667 -0.56,-0.597333 v -0.112 l 0.373333,-2.090665 c 0.03733,-0.261333 0.298667,-0.485333 0.56,-0.485333 h 4.703996 c 0.261333,0 0.522666,0.224 0.559996,0.485333 l 0.37334,2.090665 v 0.112 c 0,0.298666 -0.224,0.597333 -0.560003,0.597333 h -0.07467 c -0.261333,0 -0.485333,0.261333 -0.485333,0.522666 v 5.599995 c 0,0.410666 0.373333,0.783999 0.821333,0.783999 h 6.12266 c 0.448,0 0.784,-0.373333 0.784,-0.783999 v -5.562662 c 0,-0.298666 -0.224,-0.559999 -0.56,-0.559999 z M 95.528717,47.946252 c -0.149333,0 -0.298666,-0.149334 -0.298666,-0.298667 v -0.07467 l 1.642665,-9.183993 c 0.03733,-0.112 0.149333,-0.186666 0.224,-0.186666 0.112,0 0.186666,0.07467 0.224,0.186666 l 1.642665,9.183993 v 0.07467 c 0,0.149333 -0.149333,0.298667 -0.298667,0.298667 z m 31.098643,7.46666 c -0.18667,-1.119999 -0.37334,-3.919997 -2.09067,-5.823995 -0.14933,-0.149333 -0.224,-0.336 -0.224,-0.485333 0,-0.186667 0.112,-0.373333 0.336,-0.448 2.576,-0.970666 3.136,-3.17333 3.136,-5.263995 v -6.197328 c 0,-3.509331 -2.87467,-6.383995 -6.384,-6.383995 h -11.83465 c -0.41067,0 -0.70934,0.336 -0.70934,0.746666 v 5.450662 c 0,0.373333 0.29867,0.709333 0.70934,0.709333 0.41066,0 0.74666,0.149333 0.74666,3.39733 v 11.498657 c 0,2.575998 -0.336,3.397331 -0.74666,3.397331 h -0.0747 c -0.37333,0 -0.63467,0.373333 -0.63467,0.746666 v 5.413328 c 0,0.410667 0.29867,0.746666 0.70934,0.746666 h 6.27199 c 0.41067,0 0.74667,-0.335999 0.74667,-0.746666 v -5.450662 c 0,-0.410666 -0.336,-0.709332 -0.74667,-0.709332 -0.48533,0 -0.74667,-2.277332 -0.74667,-5.525329 0,-0.373333 0.336,-0.709333 0.70934,-0.709333 h 1.71733 c 2.83733,0 3.472,2.613331 3.84533,5.562662 v 0.07467 c 0,0.298666 -0.224,0.597333 -0.52267,0.597333 h -0.0373 c -0.29867,0 -0.52267,0.224 -0.52267,0.522666 v 5.599995 c 0,0.410666 0.336,0.783999 0.784,0.783999 h 6.16 c 0.41066,0 0.784,-0.373333 0.784,-0.783999 v -5.599995 c 0,-0.298666 -0.26134,-0.522666 -0.56,-0.522666 h -0.112 c -0.336,0 -0.63467,-0.298667 -0.70933,-0.597333 z m -11.536,-14.298655 c 0,-3.247997 0.41067,-3.39733 0.896,-3.39733 h 5.936 c 0.59733,0 1.04533,0.485333 1.04533,1.082666 v 5.151995 c 0,0.56 -0.448,1.045333 -1.04533,1.045333 h -6.12266 c -0.37334,0 -0.70934,-0.298667 -0.70934,-0.672 z m 32.55463,14.298655 c -0.18667,-1.119999 -0.37333,-3.919997 -2.09067,-5.823995 -0.14933,-0.149333 -0.22399,-0.336 -0.22399,-0.485333 0,-0.186667 0.112,-0.373333 0.33599,-0.448 2.576,-0.970666 3.136,-3.17333 3.136,-5.263995 v -6.197328 c 0,-3.509331 -2.87466,-6.383995 -6.38399,-6.383995 h -11.83466 c -0.41067,0 -0.70933,0.336 -0.70933,0.746666 v 5.450662 c 0,0.373333 0.29866,0.709333 0.70933,0.709333 0.41067,0 0.74667,0.149333 0.74667,3.39733 v 11.498657 c 0,2.575998 -0.336,3.397331 -0.74667,3.397331 H 130.51 c -0.37333,0 -0.63466,0.373333 -0.63466,0.746666 v 5.413328 c 0,0.410667 0.29866,0.746666 0.70933,0.746666 h 6.272 c 0.41066,0 0.74666,-0.335999 0.74666,-0.746666 v -5.450662 c 0,-0.410666 -0.336,-0.709332 -0.74666,-0.709332 -0.48534,0 -0.74667,-2.277332 -0.74667,-5.525329 0,-0.373333 0.336,-0.709333 0.70933,-0.709333 h 1.71733 c 2.83734,0 3.472,2.613331 3.84533,5.562662 v 0.07467 c 0,0.298666 -0.224,0.597333 -0.52266,0.597333 h -0.0373 c -0.29866,0 -0.52266,0.224 -0.52266,0.522666 v 5.599995 c 0,0.410666 0.336,0.783999 0.784,0.783999 h 6.15999 c 0.41067,0 0.784,-0.373333 0.784,-0.783999 v -5.599995 c 0,-0.298666 -0.26133,-0.522666 -0.56,-0.522666 h -0.112 c -0.336,0 -0.63466,-0.298667 -0.70933,-0.597333 z M 136.11,41.114257 c 0,-3.247997 0.41067,-3.39733 0.896,-3.39733 h 5.93599 c 0.59734,0 1.04534,0.485333 1.04534,1.082666 v 5.151995 c 0,0.56 -0.448,1.045333 -1.04534,1.045333 h -6.12266 c -0.37333,0 -0.70933,-0.298667 -0.70933,-0.672 z m 33.37598,14.895988 c -0.26133,0 -0.52267,-0.224 -0.56,-0.448 l -3.136,-17.210652 v -0.112 c 0,-0.298666 0.18667,-0.522666 0.48534,-0.522666 0.26133,0 0.48533,-0.224 0.48533,-0.485333 v -5.637329 c 0,-0.410666 -0.336,-0.783999 -0.784,-0.783999 h -10.67733 c -0.44799,0 -0.78399,0.373333 -0.78399,0.783999 v 5.637329 c 0,0.261333 0.14933,0.485333 0.41066,0.485333 h 0.0747 c 0.26133,0 0.48533,0.186666 0.48533,0.522666 v 0.112 l -3.136,17.210652 c -0.0373,0.224 -0.29866,0.448 -0.56,0.448 h -0.48533 c -0.336,0 -0.56,0.261333 -0.56,0.559999 v 5.562662 c 0,0.410666 0.336,0.783999 0.784,0.783999 h 6.12266 c 0.448,0 0.82134,-0.373333 0.82134,-0.783999 v -5.562662 c 0,-0.298666 -0.26134,-0.559999 -0.56,-0.559999 -0.336,0 -0.56,-0.298667 -0.56,-0.597333 v -0.112 l 0.37333,-2.090665 c 0.0373,-0.261333 0.29867,-0.485333 0.56,-0.485333 h 4.70399 c 0.26134,0 0.52267,0.224 0.56,0.485333 l 0.37334,2.090665 v 0.112 c 0,0.298666 -0.224,0.597333 -0.56,0.597333 h -0.0747 c -0.26133,0 -0.48533,0.261333 -0.48533,0.522666 v 5.599995 c 0,0.410666 0.37333,0.783999 0.82133,0.783999 h 6.12266 c 0.448,0 0.784,-0.373333 0.784,-0.783999 v -5.562662 c 0,-0.298666 -0.224,-0.559999 -0.56,-0.559999 z m -10.41599,-8.063993 c -0.14933,0 -0.29867,-0.149334 -0.29867,-0.298667 v -0.07467 l 1.64267,-9.183993 c 0.0373,-0.112 0.14933,-0.186666 0.224,-0.186666 0.112,0 0.18666,0.07467 0.224,0.186666 l 1.64266,9.183993 v 0.07467 c 0,0.149333 -0.14933,0.298667 -0.29866,0.298667 z m 33.18932,-10.229325 c 0.18667,0 0.37333,-0.07467 0.52267,-0.224 0.112,-0.112 0.18666,-0.298666 0.18666,-0.485333 v -5.450662 c 0,-0.410666 -0.29866,-0.746666 -0.70933,-0.746666 h -6.272 c -0.41066,0 -0.74666,0.336 -0.74666,0.746666 v 5.562662 c 0,0.186667 0.0747,0.373333 0.224,0.485333 0.14933,0.112 0.29866,0.112 0.448,0.112 h 0.0373 c 0.224,0 0.41067,0 0.56,0.485333 0.14933,0.447999 0.224,1.306665 0.224,2.911997 v 10.229325 c 0,0.112 -0.0747,0.186667 -0.18667,0.186667 -0.0373,0 -0.112,-0.03733 -0.14933,-0.112 l -6.12266,-19.56265 c -0.224,-0.634667 -0.82133,-1.045333 -1.49333,-1.045333 h -5.67466 c -0.41067,0 -0.74667,0.336 -0.74667,0.746666 v 5.562662 c 0,0.186667 0.0747,0.373333 0.224,0.485333 0.14933,0.112 0.29867,0.112 0.448,0.112 h 0.0373 c 0.224,0 0.41067,0 0.56,0.485333 0.112,0.447999 0.224,1.306665 0.224,2.911997 v 11.498657 c 0,2.538665 -0.336,3.397331 -0.74666,3.397331 -0.224,0 -0.41067,0.07467 -0.52267,0.186666 -0.14933,0.149333 -0.224,0.336 -0.224,0.522666 v 5.450662 c 0,0.410667 0.336,0.746666 0.74667,0.746666 h 6.27199 c 0.37333,0 0.70933,-0.335999 0.70933,-0.746666 v -5.562661 c 0,-0.186667 -0.0747,-0.373333 -0.224,-0.485333 -0.14933,-0.112 -0.26133,-0.112 -0.41066,-0.112 h -0.0373 c -0.224,0 -0.41066,0 -0.56,-0.485333 -0.14933,-0.448 -0.224,-1.306666 -0.224,-2.911998 V 42.27159 c 0,-0.112 0.0747,-0.149333 0.18667,-0.149333 0.0373,0 0.112,0 0.14933,0.07467 l 6.12267,19.67465 c 0.22399,0.634666 0.82133,1.045332 1.49333,1.045332 h 5.67466 c 0.41067,0 0.70933,-0.335999 0.70933,-0.746666 v -5.562661 c 0,-0.186667 -0.0747,-0.373333 -0.224,-0.485333 -0.14933,-0.112 -0.26133,-0.112 -0.41066,-0.112 h -0.0373 c -0.224,0 -0.41066,0 -0.56,-0.485333 -0.14933,-0.448 -0.224,-1.306666 -0.224,-2.911998 V 41.114257 c 0,-3.247997 0.336,-3.39733 0.74667,-3.39733 z m 3.21065,-6.906661 c -0.41067,0 -0.784,0.336 -0.784,0.783999 v 6.794661 c 0,0.448 0.37333,0.821333 0.784,0.821333 h 3.28533 c 0.37333,0 0.70933,-0.336 0.70933,-0.746666 0,-0.410666 0.336,-0.746666 0.74667,-0.746666 h 0.82133 c 0.672,0 1.15734,0.149333 1.15734,3.39733 v 11.498657 c 0,2.501331 -0.336,3.397331 -0.70934,3.397331 -0.41066,0 -0.74666,0.298666 -0.74666,0.709332 v 5.450662 c 0,0.410667 0.336,0.746666 0.74666,0.746666 h 6.23466 c 0.41067,0 0.74667,-0.335999 0.74667,-0.746666 v -5.450662 c 0,-0.410666 -0.336,-0.709332 -0.74667,-0.709332 -0.41066,0 -0.70933,-0.186667 -0.70933,-3.397331 V 41.114257 c 0,-3.247997 0.48533,-3.39733 1.12,-3.39733 h 0.85867 c 0.41066,0 0.74666,0.336 0.74666,0.746666 0,0.410666 0.29867,0.746666 0.70933,0.746666 h 3.248 c 0.448,0 0.82133,-0.373333 0.82133,-0.821333 v -6.794661 c 0,-0.447999 -0.37333,-0.783999 -0.82133,-0.783999 z"
     id="text1"
     style="font-size:37.3333px;font-family:'SAN ANDREAS';-inkscape-font-specification:'SAN ANDREAS';text-align:center;white-space:pre;fill:#000000"
     transform="translate(-10.484572,-7.0925043)"
     aria-label="WARRANT"
     inkscape:label="text1" />
  <path
     style="fill:none;stroke:#000000;stroke-opacity:1"
     d="M 34.537413,59.206993 H 217.40067"
     id="path1" />
</svg>
