<?xml version="1.0" encoding="UTF-8" standalone="no"?>
<svg
   xmlns:dc="http://purl.org/dc/elements/1.1/"
   xmlns:cc="http://creativecommons.org/ns#"
   xmlns:rdf="http://www.w3.org/1999/02/22-rdf-syntax-ns#"
   xmlns:svg="http://www.w3.org/2000/svg"
   xmlns="http://www.w3.org/2000/svg"
   xmlns:sodipodi="http://sodipodi.sourceforge.net/DTD/sodipodi-0.dtd"
   xmlns:inkscape="http://www.inkscape.org/namespaces/inkscape"
   version="1"
   viewBox="0 0 32 32"
   id="svg4"
   sodipodi:docname="anchor.svg"
   width="32"
   height="32"
   inkscape:version="1.0.1 (3bc2e813f5, 2020-09-07)"
   inkscape:export-filename="C:\Users\Pieter-Jan Briers\Projects\space-station-14\Resources\Textures\Interface\VerbIcons\anchor.svg.96dpi.png"
   inkscape:export-xdpi="96"
   inkscape:export-ydpi="96">
  <metadata
     id="metadata10">
    <rdf:RDF>
      <cc:Work
         rdf:about="">
        <dc:format>image/svg+xml</dc:format>
        <dc:type
           rdf:resource="http://purl.org/dc/dcmitype/StillImage" />
        <dc:title></dc:title>
      </cc:Work>
    </rdf:RDF>
  </metadata>
  <defs
     id="defs8" />
  <sodipodi:namedview
     pagecolor="#ffffff"
     bordercolor="#666666"
     borderopacity="1"
     objecttolerance="10"
     gridtolerance="10"
     guidetolerance="10"
     inkscape:pageopacity="0"
     inkscape:pageshadow="2"
     inkscape:window-width="1920"
     inkscape:window-height="1051"
     id="namedview6"
     showgrid="false"
     inkscape:pagecheckerboard="true"
     inkscape:zoom="17.6"
     inkscape:cx="8.4347286"
     inkscape:cy="18.178821"
     inkscape:window-x="-9"
     inkscape:window-y="-9"
     inkscape:window-maximized="1"
     inkscape:current-layer="svg4" />
  <path
     d="m 16.060239,8.3624997 c -0.774502,0 -1.4095,-0.6355 -1.4095,-1.415 0,-0.7867499 0.635499,-1.4179999 1.4095,-1.4179999 a 1.4132499,1.4132499 0 0 1 1.417499,1.4175 1.4159998,1.4159998 0 0 1 -1.417499,1.4157499 z M 27.498737,20.760998 26.744237,16.059 c -0.0875,-0.439501 -0.47125,-0.774251 -0.92875,-0.774251 -0.27875,0 -0.5245,0.1175 -0.705,0.3075 l -3.475748,3.26275 c -0.0575,0.04875 -0.1125,0.1045 -0.1625,0.174 a 1.0134999,1.0134999 0 0 0 0.2125,1.409249 c 0.085,0.06325 0.178,0.105 0.271002,0.1425 l 0.873,0.29 c -0.841502,2.37675 -2.896502,4.18375 -5.420501,4.68425 l 0.0054,-15.434999 A 3.4419998,3.4419998 0 0 0 19.506238,6.9469998 C 19.506238,5.0407499 17.966237,3.5 16.059239,3.5 c -1.898501,0 -3.445001,1.5404999 -3.445001,3.4474997 0,1.421 0.8855,2.6459998 2.11675,3.1725003 l 0.0054,15.45925 c -2.5789,-0.463502 -4.71315,-2.288252 -5.5748995,-4.708002 l 0.8792505,-0.2905 c 0.0935,-0.0375 0.18625,-0.079 0.2735,-0.1425 0.445749,-0.332499 0.544999,-0.96375 0.21,-1.408999 a 0.84749993,0.84749993 0 0 0 -0.1605,-0.17425 l -3.4770004,-3.26075 a 0.94599993,0.94599993 0 0 0 -0.6995,-0.30925 A 0.95299993,0.95299993 0 0 0 5.2522387,16.059 l -0.7537499,4.701998 c -0.0175,0.07325 -0.0235,0.1545 -0.0235,0.23575 a 1.0074999,1.0074999 0 0 0 1.0074999,1.007502 c 0.105,0 0.205,-0.01133 0.2975001,-0.04325 L 6.5974886,21.6955 C 7.8972385,25.643 11.614738,28.5 15.999738,28.5 c 4.385,0 8.104999,-2.8575 9.403249,-6.810748 l 0.815,0.270998 c 0.09375,0.03252 0.1925,0.045 0.2975,0.045 a 1.0079999,1.0079999 0 0 0 1.0095,-1.0075 1.0499999,1.0499999 0 0 0 -0.025,-0.235 z"
     id="path2"
     style="fill:#ffffff;fill-opacity:1;stroke-width:0.25" />
</svg>
