<svg xmlns="http://www.w3.org/2000/svg" version="1" viewBox="0 0 92.096 100"><path d="M46.342 19.45c-3.098 0-5.638-2.542-5.638-5.66 0-3.147 2.542-5.672 5.638-5.672a5.653 5.653 0 0 1 5.67 5.67 5.664 5.664 0 0 1-5.67 5.663zm45.754 49.594l-3.018-18.808c-.35-1.758-1.885-3.097-3.715-3.097-1.115 0-2.098.47-2.82 1.23L68.64 61.42c-.23.195-.45.418-.65.696a4.054 4.054 0 0 0 .85 5.637c.34.253.712.42 1.084.57l3.492 1.16C70.05 78.99 61.83 86.218 51.734 88.22l.022-61.74a13.768 13.768 0 0 0 8.37-12.692C60.126 6.163 53.966 0 46.338 0c-7.594 0-13.78 6.162-13.78 13.79 0 5.684 3.542 10.584 8.467 12.69l.022 61.837c-10.316-1.854-18.853-9.153-22.3-18.832l3.517-1.162c.374-.15.745-.316 1.094-.57 1.783-1.33 2.18-3.855.84-5.636a3.39 3.39 0 0 0-.642-.697L9.648 48.377A3.784 3.784 0 0 0 6.85 47.14a3.812 3.812 0 0 0-3.74 3.096L.095 69.044c-.07.293-.094.618-.094.943a4.03 4.03 0 0 0 4.03 4.03c.42 0 .82-.045 1.19-.173l3.27-1.062C13.69 88.572 28.56 100 46.1 100s32.42-11.43 37.613-27.243l3.26 1.084c.375.13.77.18 1.19.18a4.032 4.032 0 0 0 4.038-4.03 4.2 4.2 0 0 0-.1-.94z"/></svg>