<?xml version="1.0" standalone="no"?>
<!DOCTYPE svg PUBLIC "-//W3C//DTD SVG 20010904//EN"
 "http://www.w3.org/TR/2001/REC-SVG-20010904/DTD/svg10.dtd">
<svg version="1.0" xmlns="http://www.w3.org/2000/svg"
 width="64.000000pt" height="64.000000pt" viewBox="0 0 64.000000 64.000000"
 preserveAspectRatio="xMidYMid meet">

<g transform="translate(0.000000,64.000000) scale(0.100000,-0.100000)"
fill="#000000" stroke="none">
<path d="M343 502 l-43 -47 -22 29 -22 29 -10 -37 -11 -36 -48 41 c-26 22 -47
39 -47 37 0 -2 7 -28 15 -58 8 -30 15 -58 15 -62 0 -5 -21 -8 -47 -8 l-48 0
32 -22 c18 -13 33 -26 33 -29 0 -3 -19 -16 -43 -29 -41 -23 -41 -24 -17 -31
14 -4 40 -7 58 -8 17 -1 32 -5 32 -11 0 -5 -3 -10 -7 -10 -5 0 -16 -11 -25
-24 l-17 -24 37 9 c20 4 38 6 40 4 2 -2 -3 -25 -12 -51 -9 -26 -16 -50 -16
-52 0 -2 20 12 45 32 46 38 53 39 93 3 l22 -20 0 35 0 36 53 -29 c28 -16 55
-29 59 -29 4 0 -4 25 -17 55 -26 57 -25 61 3 46 9 -4 31 -11 47 -15 l30 -8
-21 24 c-39 43 -38 46 23 64 32 9 61 19 65 23 4 3 -29 14 -73 24 -88 20 -86
16 -34 76 20 23 20 23 0 18 -11 -3 -35 -9 -54 -12 l-34 -7 6 61 c4 33 6 61 4
61 -1 -1 -21 -22 -44 -48z m19 -48 l-5 -47 38 7 c39 8 40 2 8 -36 -13 -15 -9
-17 42 -29 31 -7 58 -16 60 -19 3 -4 -15 -13 -40 -20 -43 -12 -44 -13 -29 -36
16 -23 16 -23 -17 -14 -18 5 -34 8 -37 6 -2 -3 5 -25 17 -50 l20 -46 -49 25
c-27 14 -52 25 -56 25 -3 0 -4 -14 -2 -30 l5 -30 -22 20 c-27 25 -37 25 -60 0
-25 -28 -36 -25 -25 6 15 38 13 44 -17 44 -25 0 -26 0 -8 20 22 25 21 26 -35
37 l-45 9 35 18 34 19 -28 23 -27 24 36 0 c30 0 35 3 31 18 -3 9 -8 30 -12 47
l-7 29 41 -32 40 -32 7 31 7 31 20 -20 20 -20 30 34 c17 19 31 34 33 34 1 0 0
-21 -3 -46z"/>
</g>
</svg>
