<?xml version="1.0" encoding="utf-8"?>
<svg xmlns="http://www.w3.org/2000/svg" viewBox="0 0 64 64" xmlns:bx="https://boxy-svg.com">
  <g transform="matrix(0.574903, 0, 0, 0.574903, -3.411212, -6.418903)" style="transform-origin: 3.41131px 6.4189px;">
    <path d="M 107.58 80.6 C 107.58 101.11 90.95 117.74 70.437 117.742 C 49.923 117.74 33.294 101.112 33.294 80.599 C 33.294 70.849 35.497 56.679 48.45 43.719 C 72.148 20.019 73.26 6.419 73.26 6.419 C 101.74 34.899 107.58 60.079 107.58 80.591 Z M 60.919 49.169 C 45.489 64.6 42.323 78.247 42.323 89.357 C 42.322 100.472 51.334 109.482 62.448 109.482 C 73.562 109.482 82.572 100.471 82.572 89.359 C 82.572 84.079 81.38 76.399 74.362 69.389 C 61.52 56.547 60.92 49.177 60.92 49.177 Z" style="fill: rgb(255, 255, 255);"/>
    <path d="M 29.841 28.5 C 29.839 28.502 29.836 28.505 29.834 28.507 C 29.833 28.502 29.833 28.5 29.833 28.5 Z M 87.671 98.5 C 87.671 113.36 52.331 117.74 37.471 117.74 C 22.611 117.74 10.561 105.693 10.561 90.832 C 10.561 75.971 9.211 49.138 29.834 28.507 C 29.901 28.934 33.132 49.035 50.419 62.044 C 43.928 72.253 42.323 81.448 42.323 89.357 C 42.322 100.472 51.334 109.482 62.448 109.482 C 73.499 109.482 82.47 100.573 82.571 89.548 C 85.674 93.221 87.671 96.425 87.671 98.5 Z" style="fill: rgb(255, 255, 255);"/>
  </g>
  <defs>
    <bx:grid x="0" y="0" width="64" height="64"/>
    <bx:export>
      <bx:file format="png" path="burn.svg.192dpi.png" dpi="192" antialiasing="false"/>
    </bx:export>
  </defs>
</svg>