<?xml version="1.0" encoding="UTF-8" standalone="no"?>
<svg
   viewBox="0 0 120 120"
   version="1.1"
   id="svg834"
   sodipodi:docname="cutlery.svg"
   inkscape:version="1.1.2 (b8e25be833, 2022-02-05)"
   xmlns:inkscape="http://www.inkscape.org/namespaces/inkscape"
   xmlns:sodipodi="http://sodipodi.sourceforge.net/DTD/sodipodi-0.dtd"
   xmlns="http://www.w3.org/2000/svg"
   xmlns:svg="http://www.w3.org/2000/svg">
  <defs
     id="defs838" />
  <sodipodi:namedview
     id="namedview836"
     pagecolor="#505050"
     bordercolor="#eeeeee"
     borderopacity="1"
     inkscape:pageshadow="0"
     inkscape:pageopacity="0"
     inkscape:pagecheckerboard="0"
     showgrid="false"
     inkscape:zoom="6.7333333"
     inkscape:cx="59.925743"
     inkscape:cy="54.950495"
     inkscape:window-width="1920"
     inkscape:window-height="1017"
     inkscape:window-x="-8"
     inkscape:window-y="-8"
     inkscape:window-maximized="1"
     inkscape:current-layer="svg834" />
  <path
     d="M56.027 49.673c0 4.945-4.505 10.24-10.346 10.24v51.202c0 11.848-16.14 11.848-16.14 0V59.898c-5.69 0-10.64-4.38-10.64-10.944V3.02c0-3.997 5.78-4.15 5.78.155v33.957h4.838V2.868c0-3.675 5.563-3.912 5.563.154v34.11h5V2.908c0-3.838 5.4-3.993 5.4.153v34.07h4.917V2.91c0-3.8 5.64-3.954 5.64.153V49.66zm43.08-35.96v97.36c0 11.587-16.183 11.416-16.183 0v-36.86h-8.617V13.72c0-18.2 24.8-18.2 24.8 0z"
     id="path832"
     inkscape:label="path832"
     style="fill:#ffffff" />
  <path
     style="fill:#ffffff;stroke-width:0.148515"
     d="m 35.75965,119.70455 c -2.816823,-0.7142 -4.93192,-2.8611 -5.854156,-5.94217 -0.251527,-0.84033 -0.269347,-2.40353 -0.312789,-27.438123 l -0.04606,-26.547029 -0.701538,-0.0022 C 28.459261,59.773828 27.720376,59.673066 27.20314,59.55113 23.518439,58.682481 20.695383,56.039726 19.432975,52.277226 L 19.084163,51.237622 19.044453,26.747772 19.004743,2.2579216 19.32235,1.6018334 c 0.745173,-1.53932121 2.837945,-1.99195874 4.21213,-0.91102495 0.21159,0.16643723 0.533217,0.58033045 0.714725,0.91976275 l 0.330015,0.6171496 0.0401,17.4876242 0.0401,17.487623 h 2.447526 2.447527 l 8.29e-4,-17.264851 c 5.82e-4,-12.1383146 0.04952,-17.4402544 0.164823,-17.8555627 0.216503,-0.7798476 1.08944,-1.6378724 1.884012,-1.85182857 1.466822,-0.39497415 2.955727,0.51034788 3.303187,2.00848917 0.0769,0.331548 0.13664,7.9896921 0.138655,17.7731591 l 0.0035,17.190594 h 2.521795 2.521798 L 40.133152,19.641087 40.173242,2.0792059 40.57956,1.388025 c 1.012231,-1.72189627 3.373154,-1.72189627 4.385385,0 l 0.406317,0.6911809 0.04009,17.5618811 0.04008,17.561881 h 2.521797 2.521796 V 19.725107 2.2472449 l 0.315022,-0.6507487 c 0.371597,-0.76761904 1.138527,-1.32052051 2.026293,-1.46081285 1.258043,-0.19880667 2.646541,0.7171588 2.996289,1.97659375 0.105699,0.3806183 0.156055,8.1850259 0.156616,24.2731729 8.91e-4,26.662325 0.0669,25.024253 -1.102512,27.376926 -1.140993,2.295496 -2.72925,3.906274 -4.91151,4.981147 -1.364895,0.672279 -2.648013,1.033705 -3.669817,1.033705 h -0.711372 l -0.0026,26.25 c -0.0028,28.082522 0.02371,27.025192 -0.72593,28.997522 -0.738679,1.9435 -2.753958,3.83278 -4.775067,4.47652 -1.238718,0.39454 -3.211307,0.48713 -4.330834,0.20328 z"
     id="path994" />
</svg>
