<?xml version="1.0" encoding="utf-8"?>
<svg viewBox="0 0 32 32" xmlns="http://www.w3.org/2000/svg" xmlns:bx="https://boxy-svg.com">
  <path d="M 5.0000002,24.068685 10.89944,18.167521 a 8.6771045,8.675592 0 1 1 7.416281,4.183661 8.6165405,8.615039 0 0 1 -4.487208,-1.25785 L 7.9235679,27 Z M 23.683854,13.681095 a 5.379144,5.3782064 0 0 0 -5.368133,-5.3671975 5.3763911,5.375454 0 0 0 -5.368132,5.3671975 5.3681327,5.367197 0 0 0 10.736265,0 z" id="path2" style="stroke-width:2.75265;fill:#ffffff;fill-opacity:1"/>
  <path d="M 587.2 536.001 L 587.999 538.3 L 590.433 538.35 L 588.493 539.82 L 589.198 542.15 L 587.2 540.76 L 585.202 542.15 L 585.907 539.82 L 583.967 538.35 L 586.401 538.3 Z" transform="matrix(-0.809017, 0.587785, -0.587785, -0.809017, 816.683179, 115.622598)" style="fill: rgb(255, 255, 255);" bx:shape="star 587.2 539.4 3.399 3.399 0.4 5 1@907fbdd1"/>
</svg>