<?xml version="1.0" encoding="UTF-8" standalone="no"?>
<svg
   viewBox="0 0 85 100"
   version="1.1"
   id="svg2"
   width="100"
   height="100"
   xmlns="http://www.w3.org/2000/svg"
   xmlns:svg="http://www.w3.org/2000/svg">
  <defs
     id="defs2" />
  <path
     d="m 46.116173,0 c -17.216,0 -33.096,12.924 -36.3959998,27.167 -0.746,3.166 -1.564,11.435 -1.564,11.435 L 0.22817325,58.564 A 3.05,3.05 0 0 0 1.7324982e-4,59.754 3.07,3.07 0 0 0 3.0701732,62.811 h 5.086 v 10.61 c 0,8.27 6.6999998,14.97 14.9599998,14.97 h 5.945 V 100 h 40.49 V 67.794 c 8.83,-6.946 14.5,-17.736 14.5,-29.842 C 84.050173,16.99 67.060173,0 46.120173,0 Z m -28.64,46.167 c -2.322,0 -4.22,-1.897 -4.22,-4.244 a 4.23,4.23 0 0 1 4.22,-4.227 c 2.342,0 4.25,1.894 4.25,4.227 a 4.247,4.247 0 0 1 -4.25,4.244 z"
     id="path2"
     style="fill:#ffffff" />
</svg>
