<?xml version="1.0" encoding="UTF-8" standalone="no"?>
<svg
   viewBox="0 0 85 100"
   version="1.1"
   id="svg2"
   width="100"
   height="100.00021"
   xmlns="http://www.w3.org/2000/svg"
   xmlns:svg="http://www.w3.org/2000/svg">
  <defs
     id="defs2" />
  <g
     fill-rule="evenodd"
     id="g2"
     style="fill:#ffffff"
     transform="translate(1.7321881e-4)">
    <path
       d="M 46.116,0 C 28.9,0 13.02,12.924 9.72,27.167 8.974,30.333 8.156,38.602 8.156,38.602 L 0.228,58.564 A 3.05,3.05 0 0 0 0,59.754 3.07,3.07 0 0 0 3.07,62.811 h 5.086 v 10.61 c 0,8.27 6.7,14.97 14.96,14.97 h 5.945 V 100 h 40.49 V 67.794 c 8.83,-6.946 14.5,-17.736 14.5,-29.842 C 84.05,16.99 67.06,0 46.12,0 Z m -28.64,46.167 c -2.322,0 -4.22,-1.897 -4.22,-4.244 a 4.23,4.23 0 0 1 4.22,-4.227 c 2.342,0 4.25,1.894 4.25,4.227 a 4.247,4.247 0 0 1 -4.25,4.244 z"
       id="path2"
       style="fill:#ffffff" />
    <g
       id="g7"
       style="opacity:0.5;mix-blend-mode:normal">
      <path
         id="path4"
         style="display:inline;fill:#000000;stroke:#000000;stroke-width:0.499999;stroke-dasharray:none"
         d="m 1.644295,55.00047 -1.416013,3.564445 c -0.154922,0.37722 -0.232625,0.781678 -0.228515,1.189451 0.0074,1.690412 1.379879,3.056819 3.070306,3.056634 H 8.156 v 10.611307 c 0,8.27 6.698954,14.968719 14.958954,14.968719 h 5.855457 V 55.00047 Z" />
      <path
         id="path5"
         style="display:inline;fill:#000000;stroke:#000000;stroke-width:0.499999;stroke-dasharray:none"
         d="M 9.261467,29.637241 C 8.674135,33.370828 8.156,38.602066 8.156,38.602066 L 1.644295,55.00047 H 28.970411 V 29.637241 Z m 8.214827,8.058577 c 2.342,0 4.249991,1.895507 4.249991,4.228507 a 4.247,4.247 0 0 1 -4.249991,4.244132 c -2.322,0 -4.220695,-1.897132 -4.220695,-4.244132 a 4.23,4.23 0 0 1 4.220695,-4.228507 z" />
      <path
         id="path6"
         style="display:inline;fill:#000000;stroke:#000000;stroke-width:0.499999;stroke-dasharray:none"
         d="M 28.970411,4.2583867 C 19.303451,9.218364 11.862377,17.923809 9.72045,27.168496 9.567857,27.816099 9.412499,28.677153 9.261467,29.637241 h 19.708944 z" />
    </g>
  </g>
</svg>
