<?xml version="1.0" encoding="UTF-8" standalone="no"?>

<!-- knife.svg by nok-ko is marked with CC0 1.0. To view a copy of this license, visit https://creativecommons.org/publicdomain/zero/1.0/ -->

<!DOCTYPE svg PUBLIC "-//W3C//DTD SVG 1.1//EN" "http://www.w3.org/Graphics/SVG/1.1/DTD/svg11.dtd">
<svg width="100%" height="100%" viewBox="0 0 171 171" version="1.1" xmlns="http://www.w3.org/2000/svg" xmlns:xlink="http://www.w3.org/1999/xlink" xml:space="preserve" xmlns:serif="http://www.serif.com/" style="fill-rule:evenodd;clip-rule:evenodd;stroke-linejoin:round;stroke-miterlimit:2;">
    <g transform="matrix(2.66667,0,0,2.66667,0,0)">
        <g id="Knife" transform="matrix(1.34947,0,0,1.34947,-10.2239,-9.31763)">
            <g id="Handle" transform="matrix(2,0,0,2,-16,-12)">
                <path d="M22.611,24.936C22.724,24.991 22.749,25.08 22.64,25.17C21.519,26.117 17.669,31.119 17.077,31.898C17.027,31.964 16.957,32.006 16.882,32.01C16.343,32.041 14.191,31.987 14.004,29.132C14.001,29.088 14.036,28.971 14.093,28.92C15.329,27.814 20.659,23.264 21.419,22.501C21.499,22.421 21.591,22.506 21.582,22.559C21.496,23.042 21.808,24.487 22.611,24.936Z" style="fill:white;"/>
            </g>
            <g transform="matrix(2,0,0,2,-16,-12)">
                <path d="M22.003,22.228L33.186,10.603C33.186,10.603 34.137,16.491 30.146,21.107C25.834,26.095 25.886,26.035 25.886,26.035L23.566,23.785C23.566,23.785 23.283,24.073 23.148,24.154C22.96,24.266 22.898,24.331 22.778,24.236C22.284,23.849 22.065,23.152 22.003,22.228Z" style="fill:white;"/>
            </g>
        </g>
    </g>
</svg>
