<svg xmlns="http://www.w3.org/2000/svg" version="1" viewBox="0 0 100 71.444"><path d="M95.587 53.593l-42.13-24.868V24.49c0-4.8-5.238-6.886-5.238-6.886-3.39-1.65-3.09-5.214-3.09-5.214 0-4.182 3.74-5.524 5.41-5.524 2.8 0 5.55 1.555 5.84 5.11.455 5.58 6.773 4.16 6.773-.32C63.16 7.426 59.3 0 50.493 0 40.976 0 38.24 9.307 38.24 12.25c0 2.22.35 4.27 1.72 6.61 2.33 3.976 6.987 4.6 6.987 7.232v2.634L4.39 53.686C.19 56.166-.566 61.44.345 64.64c.885 3.104 4 6.805 9.604 6.805h79.56c6.27 0 9.132-3.598 10.02-6.704.9-3.19.9-8.15-3.95-11.14zm-5.972 10.87H10.073c-2.59.1-4.19-3.526-1.63-5.126L49.94 35.11l41.274 24.12c2.562 1.813 1.173 5.223-1.6 5.23z"/></svg>