<?xml version="1.0" encoding="UTF-8" standalone="no"?>
<svg
   xmlns:dc="http://purl.org/dc/elements/1.1/"
   xmlns:cc="http://creativecommons.org/ns#"
   xmlns:rdf="http://www.w3.org/1999/02/22-rdf-syntax-ns#"
   xmlns:svg="http://www.w3.org/2000/svg"
   xmlns="http://www.w3.org/2000/svg"
   xmlns:sodipodi="http://sodipodi.sourceforge.net/DTD/sodipodi-0.dtd"
   xmlns:inkscape="http://www.inkscape.org/namespaces/inkscape"
   version="1"
   viewBox="0 0 32 32"
   id="svg4"
   sodipodi:docname="outfit.svg"
   width="32"
   height="32"
   inkscape:version="1.0.1 (3bc2e813f5, 2020-09-07)"
   inkscape:export-filename="C:\Users\Pieter-Jan Briers\Projects\space-station-14\Resources\Textures\Interface\VerbIcons\outfit.svg.96dpi.png"
   inkscape:export-xdpi="96"
   inkscape:export-ydpi="96">
  <metadata
     id="metadata10">
    <rdf:RDF>
      <cc:Work
         rdf:about="">
        <dc:format>image/svg+xml</dc:format>
        <dc:type
           rdf:resource="http://purl.org/dc/dcmitype/StillImage" />
        <dc:title></dc:title>
      </cc:Work>
    </rdf:RDF>
  </metadata>
  <defs
     id="defs8" />
  <sodipodi:namedview
     pagecolor="#535353"
     bordercolor="#666666"
     borderopacity="1"
     objecttolerance="10"
     gridtolerance="10"
     guidetolerance="10"
     inkscape:pageopacity="0"
     inkscape:pageshadow="2"
     inkscape:window-width="1920"
     inkscape:window-height="1051"
     id="namedview6"
     showgrid="true"
     inkscape:zoom="24.634679"
     inkscape:cx="15.960557"
     inkscape:cy="17.972297"
     inkscape:window-x="-9"
     inkscape:window-y="-9"
     inkscape:window-maximized="1"
     inkscape:current-layer="svg4">
    <inkscape:grid
       type="xygrid"
       id="grid835"
       empspacing="4" />
  </sodipodi:namedview>
  <path
     d="M 26.943304,20.289449 16.830858,14.320394 v -1.016525 c 0,-1.152142 -1.257275,-1.652844 -1.257275,-1.652844 -0.8137,-0.396049 -0.741691,-1.251514 -0.741691,-1.251514 0,-1.003804 0.897711,-1.325924 1.29856,-1.325924 0.672083,0 1.332164,0.373246 1.401773,1.226551 0.109213,1.339366 1.62572,0.998524 1.62572,-0.07681 0.0019,-1.015325 -0.924594,-2.797785 -3.038534,-2.797785 -2.284362,0 -2.941083,2.233956 -2.941083,2.940363 0,0.532865 0.08401,1.024926 0.412851,1.586595 0.559269,0.954358 1.677087,1.104136 1.677087,1.735894 v 0.632238 L 5.0533273,20.311772 c -1.008124,0.595273 -1.189587,1.861189 -0.97092,2.629283 0.212426,0.745052 0.960119,1.633402 2.305244,1.633402 H 25.484404 c 1.504986,0 2.19195,-0.863627 2.405097,-1.609159 0.216026,-0.765694 0.216026,-1.956241 -0.948117,-2.673929 z M 25.509848,22.89857 H 6.4174153 c -0.621677,0.024 -1.005724,-0.846344 -0.391248,-1.230391 l 9.9605067,-5.815196 9.906981,5.789512 c 0.614956,0.435174 0.281555,1.253675 -0.384047,1.255355 z"
     id="path2"
     style="fill:#fdfdfd;fill-opacity:1;stroke-width:0.24003" />
</svg>
