<?xml version="1.0" encoding="UTF-8" standalone="no" ?>
<!DOCTYPE svg PUBLIC "-//W3C//DTD SVG 1.1//EN" "http://www.w3.org/Graphics/SVG/1.1/DTD/svg11.dtd">
<svg xmlns="http://www.w3.org/2000/svg" xmlns:xlink="http://www.w3.org/1999/xlink" version="1.1" width="1080" height="1080" viewBox="0 0 1080 1080" xml:space="preserve">
<desc>Created with Fabric.js 5.2.4</desc>
<defs>
</defs>
<g transform="matrix(1 0 0 1 540 540)" id="9a022835-5360-4835-ae1d-4420cfc0e71b"  >
<rect style="stroke: none; stroke-width: 1; stroke-dasharray: none; stroke-linecap: butt; stroke-dashoffset: 0; stroke-linejoin: miter; stroke-miterlimit: 4; fill: rgb(255,255,255); fill-rule: nonzero; opacity: 1; visibility: hidden;" vector-effect="non-scaling-stroke"  x="-540" y="-540" rx="0" ry="0" width="1080" height="1080" />
</g>
<g transform="matrix(1 0 0 1 540 540)" id="85e00167-d3a5-44b9-88e5-3c1500ba6084"  >
</g>
<g transform="matrix(95.53 0 0 95.53 540 540)"  >
<g style="" vector-effect="non-scaling-stroke"   >
		<g transform="matrix(1 0 0 1 3.5 3)" id="path7"  >
<path style="stroke: none; stroke-width: 1; stroke-dasharray: none; stroke-linecap: butt; stroke-dashoffset: 0; stroke-linejoin: miter; stroke-miterlimit: 4; fill: rgb(255,255,255); fill-rule: nonzero; opacity: 1;" vector-effect="non-scaling-stroke"  transform=" translate(-11.5, -11)" d="M 13 13 C 13 13 13 13 13 12.5 C 13 12 13 12 13 12 L 11 12 C 11 12 13 10.252275000000001 13 10 L 13 9.5 C 13 9 13 9 12.506951 9 L 10 9 L 10 9.5 L 10 10 L 12 10 C 12 10 10 11.731152 10 12 L 10 12.5 C 10 13 10 13 10.515625 13 z" stroke-linecap="round" />
</g>
		<g transform="matrix(1 0 0 1 -2 0)" id="path8"  >
<path style="stroke: none; stroke-width: 1; stroke-dasharray: none; stroke-linecap: butt; stroke-dashoffset: 0; stroke-linejoin: miter; stroke-miterlimit: 4; fill: rgb(255,255,255); fill-rule: nonzero; opacity: 1;" vector-effect="non-scaling-stroke"  transform=" translate(-6, -8)" d="M 3 4 L 3 13 L 8 13 C 8 13 9 13 9 12 L 9 3 L 4 3 C 3 3 3 4 3 4 Z M 4 4 L 7.4688154 4 L 8 4 L 8 12 L 4 12 Z" stroke-linecap="round" />
</g>
</g>
</g>
</svg>