<?xml version="1.0" encoding="UTF-8" standalone="no"?>
<svg
   xmlns:dc="http://purl.org/dc/elements/1.1/"
   xmlns:cc="http://creativecommons.org/ns#"
   xmlns:rdf="http://www.w3.org/1999/02/22-rdf-syntax-ns#"
   xmlns:svg="http://www.w3.org/2000/svg"
   xmlns="http://www.w3.org/2000/svg"
   xmlns:sodipodi="http://sodipodi.sourceforge.net/DTD/sodipodi-0.dtd"
   xmlns:inkscape="http://www.inkscape.org/namespaces/inkscape"
   viewBox="0 0 32 32"
   version="1.1"
   id="svg8"
   sodipodi:docname="refresh.svg"
   width="32"
   height="32"
   inkscape:version="1.0.1 (3bc2e813f5, 2020-09-07)"
   inkscape:export-filename="C:\Users\Pieter-Jan Briers\Projects\space-station-14\Resources\Textures\Interface\VerbIcons\refresh.svg.96dpi.png"
   inkscape:export-xdpi="96"
   inkscape:export-ydpi="96">
  <metadata
     id="metadata14">
    <rdf:RDF>
      <cc:Work
         rdf:about="">
        <dc:format>image/svg+xml</dc:format>
        <dc:type
           rdf:resource="http://purl.org/dc/dcmitype/StillImage" />
        <dc:title></dc:title>
      </cc:Work>
    </rdf:RDF>
  </metadata>
  <defs
     id="defs12" />
  <sodipodi:namedview
     pagecolor="#515151"
     bordercolor="#666666"
     borderopacity="1"
     objecttolerance="10"
     gridtolerance="10"
     guidetolerance="10"
     inkscape:pageopacity="0"
     inkscape:pageshadow="2"
     inkscape:window-width="1920"
     inkscape:window-height="1051"
     id="namedview10"
     showgrid="true"
     inkscape:zoom="11.313708"
     inkscape:cx="23.694746"
     inkscape:cy="15.521133"
     inkscape:window-x="-9"
     inkscape:window-y="-9"
     inkscape:window-maximized="1"
     inkscape:current-layer="svg8">
    <inkscape:grid
       type="xygrid"
       id="grid844"
       empspacing="4" />
  </sodipodi:namedview>
  <g
     id="g842"
     style="fill:#ffffff;fill-opacity:1"
     transform="matrix(0.20601895,0,0,0.20600858,3.2777263,4.0000002)">
    <path
       id="path2"
       d="m 60.005859,3.5 c -31.204,0 -56.4999996,25.296 -56.4999996,56.5 0,31.203 25.2959996,56.5 56.4999996,56.5 16.264,0 30.90875,-6.88286 41.218751,-17.880859 L 85.894531,84.255859 C 79.421531,91.168859 70.217625,95.5 60.015625,95.5 H 60 C 40.425,95.5 24.5,79.574 24.5,60 24.5,40.425 40.425,24.5 60,24.5 c 13.571989,0 25.38017,7.661742 31.351562,18.882812 L 74.826172,55.8125 119.99023,68.841797 120,21.832031 108.27344,30.652344 C 98.359656,14.375179 80.45857,3.5 60.005859,3.5 Z"
       style="fill:#ffffff;fill-opacity:1" />
    <path
       d="M 120,0 V 45.336 M 91.418,43.5 h 22.622"
       fill="none"
       id="path4"
       style="fill:#ffffff;fill-opacity:1" />
  </g>
</svg>
