<svg xmlns="http://www.w3.org/2000/svg" version="1" viewBox="0 0 100 99.942"><path d="M7.094 53.56h8.896c.676 0 1.3.337 1.672.89 0 0 1.696 2.56 3.388 5.102.938-8.32 4.207-37.396 4.207-37.396a2.01 2.01 0 0 1 1.876-1.773c.97-.06 1.84.588 2.065 1.533 0 0 4.26 17.864 6.277 26.303l2.668-7.56a2.01 2.01 0 0 1 1.88-1.34c.84-.004 1.6.52 1.89 1.314 0 0 3.957 10.75 4.75 12.914h7.722c.674 0 1.3.337 1.672.89 0 0 1.696 2.56 3.387 5.102.94-8.32 4.208-37.396 4.208-37.396a2.005 2.005 0 0 1 3.942-.24s4.257 17.858 6.273 26.305c1.326-3.75 2.672-7.55 2.672-7.55a2 2 0 0 1 3.76-.024s3.96 10.747 4.75 12.913h7.89l.42-.8c3.83-6.595 6.63-18.808 6.63-27.7C100 13.707 91.74 0 75.64 0c-22.992 0-25.95 21.544-25.95 21.544S46.84.104 23.86.104C8.33.104 0 13.314 0 25.057c0 10.14 4.44 22.657 6.715 27.8l.38.703z"/><path d="M83.658 57.57a2.005 2.005 0 0 1-1.88-1.313S80 51.434 78.46 47.247c-1.438 4.086-3.07 8.714-3.07 8.714a1.99 1.99 0 0 1-1.995 1.33 1.988 1.988 0 0 1-1.844-1.53L66.36 34l-3.54 31.475a2.005 2.005 0 0 1-1.52 1.72 2 2 0 0 1-2.14-.835s-4.86-7.315-5.844-8.784H45.27c-.84 0-1.59-.53-1.878-1.313l-3.315-9.01-3.08 8.715A1.99 1.99 0 0 1 35 57.29a2 2 0 0 1-1.85-1.535s-2.86-12.007-5.185-21.747c-1.383 12.277-3.54 31.46-3.54 31.46a2.008 2.008 0 0 1-3.664.885s-4.86-7.315-5.84-8.784H9.27c14.38 25.54 40.424 42.37 40.424 42.37S76.21 83.11 90.816 57.57h-7.158z"/></svg>