<?xml version="1.0" encoding="UTF-8" standalone="no"?>
<svg
   xmlns:dc="http://purl.org/dc/elements/1.1/"
   xmlns:cc="http://creativecommons.org/ns#"
   xmlns:rdf="http://www.w3.org/1999/02/22-rdf-syntax-ns#"
   xmlns:svg="http://www.w3.org/2000/svg"
   xmlns="http://www.w3.org/2000/svg"
   xmlns:sodipodi="http://sodipodi.sourceforge.net/DTD/sodipodi-0.dtd"
   xmlns:inkscape="http://www.inkscape.org/namespaces/inkscape"
   version="1"
   viewBox="0 0 32 32"
   id="svg6"
   sodipodi:docname="rejuvenate.svg"
   width="32"
   height="32"
   inkscape:version="1.0.1 (3bc2e813f5, 2020-09-07)"
   inkscape:export-filename="C:\Users\Pieter-Jan Briers\Projects\space-station-14\Resources\Textures\Interface\VerbIcons\rejuvenate.svg.96dpi.png"
   inkscape:export-xdpi="96"
   inkscape:export-ydpi="96">
  <metadata
     id="metadata12">
    <rdf:RDF>
      <cc:Work
         rdf:about="">
        <dc:format>image/svg+xml</dc:format>
        <dc:type
           rdf:resource="http://purl.org/dc/dcmitype/StillImage" />
        <dc:title></dc:title>
      </cc:Work>
    </rdf:RDF>
  </metadata>
  <defs
     id="defs10" />
  <sodipodi:namedview
     pagecolor="#6b6b6b"
     bordercolor="#666666"
     borderopacity="1"
     objecttolerance="10"
     gridtolerance="10"
     guidetolerance="10"
     inkscape:pageopacity="0"
     inkscape:pageshadow="2"
     inkscape:window-width="1920"
     inkscape:window-height="1051"
     id="namedview8"
     showgrid="true"
     inkscape:zoom="17.610214"
     inkscape:cx="13.809962"
     inkscape:cy="17.415455"
     inkscape:window-x="-9"
     inkscape:window-y="-9"
     inkscape:window-maximized="1"
     inkscape:current-layer="svg6">
    <inkscape:grid
       type="xygrid"
       id="grid837"
       empspacing="4" />
  </sodipodi:namedview>
  <g
     id="g841"
     transform="matrix(0.24002638,0,0,0.24002638,3.9999998,4.0060018)"
     style="fill:#ffffff;fill-opacity:1">
    <path
       d="m 7.094,53.56 h 8.896 c 0.676,0 1.3,0.337 1.672,0.89 0,0 1.696,2.56 3.388,5.102 0.938,-8.32 4.207,-37.396 4.207,-37.396 a 2.01,2.01 0 0 1 1.876,-1.773 c 0.97,-0.06 1.84,0.588 2.065,1.533 0,0 4.26,17.864 6.277,26.303 l 2.668,-7.56 a 2.01,2.01 0 0 1 1.88,-1.34 c 0.84,-0.004 1.6,0.52 1.89,1.314 0,0 3.957,10.75 4.75,12.914 h 7.722 c 0.674,0 1.3,0.337 1.672,0.89 0,0 1.696,2.56 3.387,5.102 0.94,-8.32 4.208,-37.396 4.208,-37.396 a 2.005,2.005 0 0 1 3.942,-0.24 c 0,0 4.257,17.858 6.273,26.305 1.326,-3.75 2.672,-7.55 2.672,-7.55 a 2,2 0 0 1 3.76,-0.024 c 0,0 3.96,10.747 4.75,12.913 h 7.89 l 0.42,-0.8 c 3.83,-6.595 6.63,-18.808 6.63,-27.7 C 100,13.707 91.74,0 75.64,0 52.648,0 49.69,21.544 49.69,21.544 c 0,0 -2.85,-21.44 -25.83,-21.44 C 8.33,0.104 0,13.314 0,25.057 c 0,10.14 4.44,22.657 6.715,27.8 l 0.38,0.703 z"
       id="path2"
       style="fill:#ffffff;fill-opacity:1" />
    <path
       d="m 83.658,57.57 a 2.005,2.005 0 0 1 -1.88,-1.313 c 0,0 -1.778,-4.823 -3.318,-9.01 -1.438,4.086 -3.07,8.714 -3.07,8.714 a 1.99,1.99 0 0 1 -1.995,1.33 1.988,1.988 0 0 1 -1.844,-1.53 L 66.36,34 62.82,65.475 a 2.005,2.005 0 0 1 -1.52,1.72 2,2 0 0 1 -2.14,-0.835 c 0,0 -4.86,-7.315 -5.844,-8.784 H 45.27 c -0.84,0 -1.59,-0.53 -1.878,-1.313 l -3.315,-9.01 -3.08,8.715 A 1.99,1.99 0 0 1 35,57.29 2,2 0 0 1 33.15,55.755 c 0,0 -2.86,-12.007 -5.185,-21.747 -1.383,12.277 -3.54,31.46 -3.54,31.46 a 2.008,2.008 0 0 1 -3.664,0.885 c 0,0 -4.86,-7.315 -5.84,-8.784 H 9.27 c 14.38,25.54 40.424,42.37 40.424,42.37 0,0 26.516,-16.829 41.122,-42.369 z"
       id="path4"
       style="fill:#ffffff;fill-opacity:1" />
  </g>
</svg>
