<?xml version="1.0" encoding="UTF-8" standalone="no"?>
<svg
   viewBox="0 0 26 26"
   version="1.1"
   id="svg1538"
   sodipodi:docname="scissors.svg"
   inkscape:version="1.2.2 (b0a8486541, 2022-12-01)"
   inkscape:export-filename="scissors.svg.236dpi.png"
   inkscape:export-xdpi="236.31"
   inkscape:export-ydpi="236.31"
   xmlns:inkscape="http://www.inkscape.org/namespaces/inkscape"
   xmlns:sodipodi="http://sodipodi.sourceforge.net/DTD/sodipodi-0.dtd"
   xmlns="http://www.w3.org/2000/svg"
   xmlns:svg="http://www.w3.org/2000/svg"
   xmlns:rdf="http://www.w3.org/1999/02/22-rdf-syntax-ns#"
   xmlns:cc="http://creativecommons.org/ns#"
   xmlns:dc="http://purl.org/dc/elements/1.1/">
  <title
     id="title2084">cut</title>
  <defs
     id="defs1542" />
  <sodipodi:namedview
     id="namedview1540"
     pagecolor="#505050"
     bordercolor="#eeeeee"
     borderopacity="1"
     inkscape:showpageshadow="0"
     inkscape:pageopacity="0"
     inkscape:pagecheckerboard="0"
     inkscape:deskcolor="#505050"
     showgrid="false"
     inkscape:zoom="39.5"
     inkscape:cx="6.8860759"
     inkscape:cy="13.075949"
     inkscape:window-width="2560"
     inkscape:window-height="1371"
     inkscape:window-x="0"
     inkscape:window-y="0"
     inkscape:window-maximized="1"
     inkscape:current-layer="svg1538" />
  <path
     fill="currentColor"
     d="M17.5.313s-4.218 1.01-5.5 5.093c0 0-2.352 9.353-3.219 13.344c-.935 4.307-.175 6.596 2.438 6.906c2.02.24 3.418-1.131 3.719-3.656c.298-2.527-.73-4.198-2.75-4.438c-.29-.034-.756-.209-.532-.875c.87-2.603 2.13-2.39 3.25-6.093zm-13.375 9.75c-2.545 0-4.063 1.214-4.063 3.25c0 2.63 2.145 3.67 6.532 3.25c.493-.047.935-.121 1.562-.188c.177-.76.36-1.59.563-2.438c-.578.062-.531-.352-.531-.624c0-2.036-1.52-3.25-4.063-3.25m21.813 0L16.124 11.5a12.867 12.867 0 0 1-1.656 3.25c-.224.326-.428.632-.625 1c3.673-.443 6.406-.813 6.406-.813c4.207-.791 5.688-4.874 5.688-4.874zM4.125 11.687c2.438 0 2.438 1.224 2.438 1.626c0 .401 0 1.624-2.438 1.624s-2.438-1.223-2.438-1.624c0-.402 0-1.626 2.438-1.626m6.781 2.47c.444 0 .813.368.813.812a.818.818 0 0 1-.813.812a.819.819 0 0 1-.812-.812a.82.82 0 0 1 .812-.813zm.656 5.03c.175-.017.338-.011.438 0c.399.046 1.6.204 1.313 2.625c-.288 2.42-1.508 2.265-1.907 2.22c-.399-.047-1.6-.174-1.312-2.595c.215-1.815.945-2.196 1.469-2.25z"
     id="path1536"
     style="fill:#ffffff;fill-opacity:1" />
  <metadata
     id="metadata2082">
    <rdf:RDF>
      <cc:Work
         rdf:about="">
        <dc:title>cut</dc:title>
        <dc:source>https://github.com/icons8/WPF-UI-Framework/blob/master/Windows%20Icons/Cut.svg</dc:source>
        <dc:creator>
          <cc:Agent>
            <dc:title>Icons8</dc:title>
          </cc:Agent>
        </dc:creator>
        <cc:license
           rdf:resource="https://github.com/icons8/WPF-UI-Framework/blob/master/LICENSE.md" />
      </cc:Work>
    </rdf:RDF>
  </metadata>
</svg>
