<?xml version="1.0" encoding="UTF-8" standalone="no"?>
<svg
   xmlns:dc="http://purl.org/dc/elements/1.1/"
   xmlns:cc="http://creativecommons.org/ns#"
   xmlns:rdf="http://www.w3.org/1999/02/22-rdf-syntax-ns#"
   xmlns:svg="http://www.w3.org/2000/svg"
   xmlns="http://www.w3.org/2000/svg"
   xmlns:sodipodi="http://sodipodi.sourceforge.net/DTD/sodipodi-0.dtd"
   xmlns:inkscape="http://www.inkscape.org/namespaces/inkscape"
   version="1.1"
   id="Layer_1"
   x="0px"
   y="0px"
   viewBox="0 0 32 32"
   xml:space="preserve"
   sodipodi:docname="sentient.svg"
   width="32"
   height="32"
   inkscape:version="1.0.1 (3bc2e813f5, 2020-09-07)"
   inkscape:export-filename="C:\Users\Pieter-Jan Briers\Projects\space-station-14\Resources\Textures\Interface\VerbIcons\sentient.svg.96dpi.png"
   inkscape:export-xdpi="96"
   inkscape:export-ydpi="96"><metadata
   id="metadata13"><rdf:RDF><cc:Work
       rdf:about=""><dc:format>image/svg+xml</dc:format><dc:type
         rdf:resource="http://purl.org/dc/dcmitype/StillImage" /><dc:title></dc:title></cc:Work></rdf:RDF></metadata><defs
   id="defs11" /><sodipodi:namedview
   pagecolor="#404040"
   bordercolor="#666666"
   borderopacity="1"
   objecttolerance="10"
   gridtolerance="10"
   guidetolerance="10"
   inkscape:pageopacity="0"
   inkscape:pageshadow="2"
   inkscape:window-width="1920"
   inkscape:window-height="1051"
   id="namedview9"
   showgrid="true"
   inkscape:zoom="24.890159"
   inkscape:cx="14.062729"
   inkscape:cy="17.916991"
   inkscape:window-x="-9"
   inkscape:window-y="-9"
   inkscape:window-maximized="1"
   inkscape:current-layer="Layer_1"><inkscape:grid
     type="xygrid"
     id="grid843"
     empspacing="4" /></sodipodi:namedview>


<g
   id="g841"
   style="fill:#ffffff;fill-opacity:1"
   transform="matrix(0.23781213,0,0,0.23781213,5.9999999,4.1093935)"><path
     d="m 58.2,24.5 c -2.2,0 -4,1.8 -4,4 0,0 0,0 0,0 0,2.2 1.8,4 4,4 2.2,0 4,-1.8 4,-4 0,0 0,0 0,0 0,-2.2 -1.8,-4 -4,-4 0,0 0,0 0,0 z m -0.9,32.8 c 0,2.2 1.8,4 4,4 2.2,0 4,-1.8 4,-4 0,-2.2 -1.8,-4 -4,-4 0,0 0,0 0,0 -2.2,0 -4,1.8 -4,4 z M 28,20.1 c -2.2,0 -4,1.9 -3.9,4.1 0,2.2 1.8,3.9 3.9,3.9 2.2,0 4,-1.8 4,-4 0,0 0,0 0,0 0.1,-2.2 -1.7,-4 -4,-4 0.1,0 0,0 0,0 z"
     id="path2"
     style="fill:#ffffff;fill-opacity:1" /><path
     d="M 46.1,0 C 28.9,0 13,12.9 9.7,27.2 9,30.3 8.2,38.6 8.2,38.6 l -7.9,20 C 0.1,58.9 0,59.3 0,59.8 c 0,1.7 1.4,3.1 3.1,3.1 h 5.1 v 10.6 c 0,8.3 6.7,15 15,15 h 5.9 V 100 H 69.6 V 67.8 C 78.4,60.9 84.1,50.1 84.1,38 84,17 67.1,0 46.1,0 Z M 17.5,46.2 c -2.3,0 -4.2,-1.9 -4.2,-4.2 0,-2.3 1.9,-4.2 4.2,-4.2 2.3,0 4.3,1.9 4.3,4.2 -0.1,2.3 -2,4.2 -4.3,4.2 0,0 0,0 0,0 z m 56,-5.8 -3.9,3.9 -4.9,-3.3 c -0.9,0.5 -1.9,0.9 -2.9,1.1 l -0.9,5.2 h 1.8 l 0.5,2.8 c 0.2,0 0.4,0.1 0.6,0.1 0.5,0.2 1,0.4 1.4,0.7 l 2.2,-1.6 1.8,1.8 -1.6,2.3 c 0.4,0.6 0.6,1.3 0.8,2 l 2.7,0.5 v 2.6 L 68.3,59 c -0.1,0.2 -0.1,0.4 -0.2,0.6 -0.2,0.5 -0.4,1 -0.7,1.4 L 69,63.2 67.2,65 64.9,63.4 c -0.6,0.4 -1.3,0.6 -2,0.8 l -0.5,2.7 H 59.8 L 59.3,64.1 C 59.2,64 59,64 58.8,63.9 58.3,63.7 57.9,63.5 57.4,63.2 l -2.2,1.6 -1.9,-1.8 1.6,-2.3 c -0.4,-0.6 -0.6,-1.3 -0.8,-2 l -2.7,-0.5 v -2.6 l 2.8,-0.5 c 0.1,-0.2 0.1,-0.4 0.2,-0.6 0.2,-0.5 0.4,-0.9 0.7,-1.4 l -1.5,-2.1 1.8,-1.8 2.3,1.6 c 0.6,-0.4 1.3,-0.6 2,-0.8 l 0.4,-2.3 h -4.8 l -1,-5.8 c -0.2,-0.1 -0.4,-0.1 -0.7,-0.2 -0.8,-0.3 -1.5,-0.6 -2.2,-1 l -4.6,3.3 -3.9,-4 3.4,-4.8 c -0.5,-0.9 -0.9,-1.9 -1.1,-2.9 l -5.6,-1 v -4.6 l -2.8,0.5 c 0,0.1 -0.1,0.3 -0.1,0.4 -0.2,0.5 -0.4,1 -0.7,1.4 l 2,3 -2.6,2.6 -3.2,-2.2 c -0.6,0.3 -1.2,0.5 -1.8,0.7 l -0.6,3.7 H 26.2 L 25.5,33 c -0.1,0 -0.3,-0.1 -0.4,-0.1 -0.5,-0.2 -1,-0.4 -1.4,-0.7 l -3.1,2.2 -2.6,-2.7 2.2,-3.2 c -0.3,-0.6 -0.5,-1.2 -0.7,-1.8 l -3.7,-0.6 v -3.7 l 3.8,-0.7 c 0,-0.1 0.1,-0.3 0.1,-0.4 0.2,-0.5 0.4,-1 0.7,-1.4 l -2.2,-3.1 2.6,-2.6 3.2,2.2 c 0.6,-0.3 1.2,-0.6 1.8,-0.7 L 26.4,12 H 30 l 0.7,3.8 c 0.1,0 0.3,0.1 0.4,0.1 0.5,0.2 1,0.4 1.4,0.7 l 3.1,-2.2 2.6,2.6 -2.2,3.2 c 0.3,0.6 0.5,1.2 0.7,1.8 l 3.7,0.6 v 2.7 l 4.8,-0.8 c 0.1,-0.2 0.1,-0.4 0.2,-0.7 0.3,-0.8 0.7,-1.5 1.1,-2.2 l -3.3,-4.6 4,-4 4.8,3.4 c 0.9,-0.5 1.9,-0.9 2.9,-1.1 l 0.9,-5.6 h 5.6 l 1,5.8 c 0.2,0.1 0.4,0.1 0.7,0.2 0.8,0.3 1.5,0.6 2.2,1.1 l 4.6,-3.3 3.9,3.9 -3.4,4.8 c 0.5,0.9 0.9,1.9 1.1,2.9 l 5.6,1 v 5.6 l -5.8,1 c -0.1,0.2 -0.1,0.4 -0.2,0.7 -0.3,0.8 -0.7,1.5 -1.1,2.2 z"
     id="path4"
     style="fill:#ffffff;fill-opacity:1" /><rect
     x="12"
     y="37"
     width="10.5"
     height="9.1999998"
     id="rect6"
     style="fill:#ffffff;fill-opacity:1" /></g>
</svg>
