<?xml version="1.0" encoding="utf-8"?>
<!-- Generator: Adobe Illustrator 24.3.0, SVG Export Plug-In . SVG Version: 6.00 Build 0)  -->
<svg version="1.1" id="Layer_1" xmlns="http://www.w3.org/2000/svg" xmlns:xlink="http://www.w3.org/1999/xlink" x="0px" y="0px"
	 viewBox="0 0 84 100" style="enable-background:new 0 0 84 100;" xml:space="preserve">
<path d="M58.2,24.5c-2.2,0-4,1.8-4,4c0,0,0,0,0,0c0,2.2,1.8,4,4,4c2.2,0,4-1.8,4-4c0,0,0,0,0,0C62.2,26.3,60.4,24.5,58.2,24.5
	C58.2,24.5,58.2,24.5,58.2,24.5L58.2,24.5z M57.3,57.3c0,2.2,1.8,4,4,4c2.2,0,4-1.8,4-4c0-2.2-1.8-4-4-4c0,0,0,0,0,0
	C59.1,53.3,57.3,55.1,57.3,57.3L57.3,57.3z M28,20.1c-2.2,0-4,1.9-3.9,4.1c0,2.2,1.8,3.9,3.9,3.9c2.2,0,4-1.8,4-4c0,0,0,0,0,0
	C32.1,21.9,30.3,20.1,28,20.1C28.1,20.1,28,20.1,28,20.1L28,20.1z"/>
<path d="M46.1,0C28.9,0,13,12.9,9.7,27.2C9,30.3,8.2,38.6,8.2,38.6l-7.9,20C0.1,58.9,0,59.3,0,59.8c0,1.7,1.4,3.1,3.1,3.1h5.1v10.6
	c0,8.3,6.7,15,15,15h5.9V100h40.5V67.8c8.8-6.9,14.5-17.7,14.5-29.8C84,17,67.1,0,46.1,0L46.1,0z M17.5,46.2c-2.3,0-4.2-1.9-4.2-4.2
	c0-2.3,1.9-4.2,4.2-4.2c2.3,0,4.3,1.9,4.3,4.2C21.7,44.3,19.8,46.2,17.5,46.2C17.5,46.2,17.5,46.2,17.5,46.2z M73.5,40.4l-3.9,3.9
	L64.7,41c-0.9,0.5-1.9,0.9-2.9,1.1l-0.9,5.2h1.8l0.5,2.8c0.2,0,0.4,0.1,0.6,0.1c0.5,0.2,1,0.4,1.4,0.7l2.2-1.6l1.8,1.8l-1.6,2.3
	c0.4,0.6,0.6,1.3,0.8,2l2.7,0.5v2.6l-2.8,0.5c-0.1,0.2-0.1,0.4-0.2,0.6c-0.2,0.5-0.4,1-0.7,1.4l1.6,2.2l-1.8,1.8l-2.3-1.6
	c-0.6,0.4-1.3,0.6-2,0.8l-0.5,2.7h-2.6l-0.5-2.8C59.2,64,59,64,58.8,63.9c-0.5-0.2-0.9-0.4-1.4-0.7l-2.2,1.6L53.3,63l1.6-2.3
	c-0.4-0.6-0.6-1.3-0.8-2l-2.7-0.5v-2.6l2.8-0.5c0.1-0.2,0.1-0.4,0.2-0.6c0.2-0.5,0.4-0.9,0.7-1.4L53.6,51l1.8-1.8l2.3,1.6
	c0.6-0.4,1.3-0.6,2-0.8l0.4-2.3h-4.8l-1-5.8c-0.2-0.1-0.4-0.1-0.7-0.2c-0.8-0.3-1.5-0.6-2.2-1l-4.6,3.3l-3.9-4l3.4-4.8
	c-0.5-0.9-0.9-1.9-1.1-2.9l-5.6-1v-4.6l-2.8,0.5c0,0.1-0.1,0.3-0.1,0.4c-0.2,0.5-0.4,1-0.7,1.4L38,32l-2.6,2.6l-3.2-2.2
	c-0.6,0.3-1.2,0.5-1.8,0.7l-0.6,3.7l-3.6,0L25.5,33c-0.1,0-0.3-0.1-0.4-0.1c-0.5-0.2-1-0.4-1.4-0.7l-3.1,2.2L18,31.7l2.2-3.2
	c-0.3-0.6-0.5-1.2-0.7-1.8l-3.7-0.6v-3.7l3.8-0.7c0-0.1,0.1-0.3,0.1-0.4c0.2-0.5,0.4-1,0.7-1.4l-2.2-3.1l2.6-2.6l3.2,2.2
	c0.6-0.3,1.2-0.6,1.8-0.7l0.6-3.7h3.6l0.7,3.8c0.1,0,0.3,0.1,0.4,0.1c0.5,0.2,1,0.4,1.4,0.7l3.1-2.2l2.6,2.6l-2.2,3.2
	c0.3,0.6,0.5,1.2,0.7,1.8l3.7,0.6v2.7l4.8-0.8c0.1-0.2,0.1-0.4,0.2-0.7c0.3-0.8,0.7-1.5,1.1-2.2l-3.3-4.6l4-4l4.8,3.4
	c0.9-0.5,1.9-0.9,2.9-1.1l0.9-5.6h5.6l1,5.8c0.2,0.1,0.4,0.1,0.7,0.2c0.8,0.3,1.5,0.6,2.2,1.1l4.6-3.3l3.9,3.9l-3.4,4.8
	c0.5,0.9,0.9,1.9,1.1,2.9l5.6,1v5.6l-5.8,1c-0.1,0.2-0.1,0.4-0.2,0.7c-0.3,0.8-0.7,1.5-1.1,2.2L73.5,40.4L73.5,40.4z"/>
<rect x="12" y="37" width="10.5" height="9.2"/>
</svg>
