<?xml version="1.0" encoding="UTF-8" standalone="no"?>
<svg
   xmlns:dc="http://purl.org/dc/elements/1.1/"
   xmlns:cc="http://creativecommons.org/ns#"
   xmlns:rdf="http://www.w3.org/1999/02/22-rdf-syntax-ns#"
   xmlns:svg="http://www.w3.org/2000/svg"
   xmlns="http://www.w3.org/2000/svg"
   xmlns:sodipodi="http://sodipodi.sourceforge.net/DTD/sodipodi-0.dtd"
   xmlns:inkscape="http://www.inkscape.org/namespaces/inkscape"
   viewBox="0 0 32 32"
   version="1.1"
   id="svg4"
   sodipodi:docname="settings.svg"
   width="32"
   height="32"
   inkscape:version="1.0.1 (3bc2e813f5, 2020-09-07)"
   inkscape:export-filename="C:\Users\Pieter-Jan Briers\Projects\space-station-14\Resources\Textures\Interface\VerbIcons\settings.svg.96dpi.png"
   inkscape:export-xdpi="96"
   inkscape:export-ydpi="96">
  <metadata
     id="metadata10">
    <rdf:RDF>
      <cc:Work
         rdf:about="">
        <dc:format>image/svg+xml</dc:format>
        <dc:type
           rdf:resource="http://purl.org/dc/dcmitype/StillImage" />
        <dc:title></dc:title>
      </cc:Work>
    </rdf:RDF>
  </metadata>
  <defs
     id="defs8">
    <inkscape:path-effect
       effect="gears"
       id="path-effect839"
       is_visible="true"
       lpeversion="1"
       teeth="16"
       phi="11.9"
       min_radius="5" />
  </defs>
  <sodipodi:namedview
     pagecolor="#505050"
     bordercolor="#666666"
     borderopacity="1"
     objecttolerance="10"
     gridtolerance="10"
     guidetolerance="10"
     inkscape:pageopacity="0"
     inkscape:pageshadow="2"
     inkscape:window-width="1920"
     inkscape:window-height="1051"
     id="namedview6"
     showgrid="true"
     inkscape:zoom="14.666667"
     inkscape:cx="-0.59386811"
     inkscape:cy="2.6491635"
     inkscape:window-x="-9"
     inkscape:window-y="-9"
     inkscape:window-maximized="1"
     inkscape:current-layer="svg4">
    <inkscape:grid
       type="xygrid"
       id="grid835"
       empspacing="4" />
  </sodipodi:namedview>
  <path
     d="m 13.826918,26.988453 c 0,0.44764 0.362974,0.864897 0.806968,0.926068 0,0 0.623861,0.08548 1.366214,0.08548 0.742354,0 1.365202,-0.08548 1.365202,-0.08548 0.443589,-0.06158 0.806157,-0.478023 0.806157,-0.926068 v -2.315779 c 0,-0.448451 0.285599,-0.913916 0.634799,-1.034232 0.3492,-0.120316 1.469516,-0.285598 1.78651,0.03241 l 1.636621,1.636621 c 0.316994,0.317197 0.858011,0.341908 1.202552,0.05469 l 1.926271,-1.926273 c 0.287624,-0.344338 0.263318,-0.885153 -0.05408,-1.20316 l -1.63662,-1.636621 c -0.317602,-0.315981 -0.44521,-0.844642 -0.284384,-1.172777 0.160827,-0.328134 0.839174,-1.248126 1.287422,-1.248126 h 2.318209 c 0.448248,0 0.864898,-0.363176 0.926069,-0.806968 0,0 0.08588,-0.623861 0.08588,-1.366417 0,-0.742556 -0.08588,-1.366012 -0.08588,-1.366012 -0.06077,-0.445007 -0.478023,-0.808183 -0.926069,-0.808183 h -2.315779 c -0.448247,0 -0.91351,-0.285598 -1.034231,-0.635406 -0.120721,-0.349808 -0.285598,-1.469516 0.03241,-1.78651 l 1.636622,-1.6366209 c 0.315779,-0.3176016 0.340085,-0.858416 0.05449,-1.2027547 L 23.435992,6.6400634 C 23.091654,6.3532496 22.55084,6.3775558 22.232833,6.6947525 L 20.596211,8.331374 C 20.279015,8.6483682 19.750961,8.7763811 19.422827,8.614947 19.094692,8.453513 18.174093,7.7763811 18.174093,7.3281331 V 5.0115442 c 0,-0.4476403 -0.362974,-0.8648977 -0.806968,-0.9256635 0,0 -0.623861,-0.085882 -1.366012,-0.085882 -0.742151,0 -1.365809,0.085882 -1.365809,0.085882 -0.444602,0.060766 -0.808183,0.4780231 -0.808183,0.9260686 V 7.329146 c 0,0.448653 -0.285599,0.9135102 -0.634799,1.0344338 -0.349402,0.119911 -1.469313,0.2855986 -1.786105,-0.031396 L 9.7695958,6.6955624 C 9.4517918,6.3787707 8.9109768,6.3544646 8.5666387,6.6416833 l -1.926271,1.9256635 c -0.287624,0.3443387 -0.263318,0.8851529 0.05469,1.202147 l 1.6366201,1.6366212 c 0.315982,0.316994 0.443589,0.845048 0.283573,1.173385 -0.160016,0.328337 -0.839781,1.247721 -1.287826,1.247721 h -2.315779 c -0.44764,0 -0.864898,0.363581 -0.925664,0.808183 0,0 -0.08669,0.623861 -0.08669,1.366012 0,0.742151 0.08568,1.366214 0.08568,1.366214 0.06076,0.4444 0.478023,0.807373 0.925663,0.807373 h 2.315171 c 0.4484509,0 0.9141179,0.285599 1.034434,0.635204 0.119911,0.349605 0.285599,1.469718 -0.03119,1.78651 l -1.636621,1.636621 c -0.317197,0.316994 -0.342314,0.858011 -0.05469,1.202755 l 1.925258,1.925663 c 0.344338,0.287624 0.8851529,0.263318 1.202552,-0.05469 L 11.40217,23.670445 c 0.3174,-0.316994 0.845656,-0.445007 1.173993,-0.283573 0.328134,0.160623 1.248126,0.838971 1.248126,1.287016 v 2.317197 z M 11.607352,15.999998 c 0,-2.425967 1.966174,-4.392546 4.392748,-4.392546 2.42455,0 4.391331,1.966781 4.391331,4.392546 0,2.425765 -1.966579,4.392749 -4.391128,4.392749 -2.424549,0 -4.392749,-1.966782 -4.392749,-4.392749 z"
     fill="#010101"
     id="path2"
     style="fill:#ffffff;fill-opacity:1;stroke-width:0.202552" />
</svg>
