<svg xmlns="http://www.w3.org/2000/svg" viewBox="0 0 120 120"><path d="M114.25 70.73c2.21 0 4.27-1.792 4.572-3.984 0 0 .422-3.08.422-6.745s-.422-6.74-.422-6.74c-.304-2.19-2.36-3.98-4.572-3.98h-11.433c-2.214 0-4.512-1.41-5.106-3.134s-1.41-7.255.16-8.82l8.08-8.08c1.566-1.565 1.688-4.236.27-5.937l-9.51-9.51c-1.7-1.42-4.37-1.3-5.94.267l-8.08 8.08c-1.56 1.568-4.17 2.198-5.79 1.404s-6.162-4.143-6.162-6.356V5.75c0-2.213-1.793-4.27-3.984-4.572 0 0-3.08-.424-6.746-.424s-6.744.424-6.744.424c-2.197.3-3.99 2.36-3.99 4.572v11.433c0 2.213-1.41 4.51-3.137 5.106s-7.255 1.41-8.82-.16l-8.08-8.08C27.67 12.49 25 12.37 23.3 13.78l-9.51 9.51c-1.416 1.7-1.296 4.37.27 5.94l8.08 8.08c1.565 1.566 2.197 4.173 1.4 5.793s-4.14 6.165-6.353 6.165H5.75c-2.21 0-4.27 1.792-4.57 3.984 0 0-.424 3.08-.424 6.744s.424 6.743.424 6.743c.3 2.195 2.36 3.99 4.572 3.99h11.44c2.215 0 4.51 1.41 5.107 3.134.592 1.725 1.41 7.254-.155 8.818l-8.08 8.08C12.5 92.33 12.38 95 13.798 96.7l9.507 9.51c1.7 1.42 4.37 1.3 5.935-.27l8.08-8.08c1.565-1.56 4.172-2.19 5.793-1.4s6.16 4.146 6.16 6.358v11.433c0 2.21 1.795 4.27 3.99 4.57 0 0 3.08.428 6.744.428s6.745-.423 6.745-.423c2.194-.3 3.986-2.36 3.986-4.57v-11.43c0-2.214 1.41-4.513 3.136-5.107 1.726-.592 7.256-1.41 8.82.154l8.08 8.08c1.565 1.566 4.236 1.69 5.938.27l9.507-9.505c1.42-1.7 1.3-4.37-.27-5.937l-8.08-8.08c-1.565-1.567-2.197-4.175-1.4-5.796.793-1.62 4.142-6.162 6.354-6.162h11.44zM60 81.688c-11.977 0-21.686-9.707-21.686-21.687 0-11.97 9.71-21.68 21.686-21.68S81.687 48.03 81.687 60 71.977 81.687 60 81.687z" fill="#010101"/></svg>