<?xml version="1.0" encoding="UTF-8" standalone="no"?>
<svg
   viewBox="0 0 32 32"
   height="32"
   width="32"
   version="1.1"
   id="svg6"
   sodipodi:docname="signal.svg"
   inkscape:version="1.4.2 (f4327f4, 2025-05-13)"
   xmlns:inkscape="http://www.inkscape.org/namespaces/inkscape"
   xmlns:sodipodi="http://sodipodi.sourceforge.net/DTD/sodipodi-0.dtd"
   xmlns="http://www.w3.org/2000/svg"
   xmlns:svg="http://www.w3.org/2000/svg"
   xmlns:rdf="http://www.w3.org/1999/02/22-rdf-syntax-ns#"
   xmlns:cc="http://creativecommons.org/ns#"
   xmlns:dc="http://purl.org/dc/elements/1.1/">
  <defs
     id="defs6" />
  <sodipodi:namedview
     id="namedview6"
     pagecolor="#ffffff"
     bordercolor="#000000"
     borderopacity="0.25"
     inkscape:showpageshadow="2"
     inkscape:pageopacity="0.0"
     inkscape:pagecheckerboard="0"
     inkscape:deskcolor="#d1d1d1"
     inkscape:zoom="22.442308"
     inkscape:cx="7.9982862"
     inkscape:cy="14.548415"
     inkscape:window-width="2560"
     inkscape:window-height="1369"
     inkscape:window-x="1912"
     inkscape:window-y="-8"
     inkscape:window-maximized="1"
     inkscape:current-layer="svg6" />
  <title
     id="title1">cellular-signal-white-22.svg</title>
  <path
     fill="#ffffff"
     d="m 25.927273,5.2 -1.781818,1.7818182 c 2.036363,2.1636363 3.30909,4.9636368 3.30909,8.1454548 0,3.181818 -1.272727,5.981818 -3.30909,8.145454 l 1.781818,1.781818 C 28.472727,22.509091 30,19.072727 30,15.127273 30,11.309091 28.472727,7.7454545 25.927273,5.2 Z"
     id="path2"
     style="fill:#ffffff;fill-opacity:1;stroke-width:1.27273" />
  <path
     fill="#ffffff"
     d="m 4.5454545,15.127273 c 0,-3.181818 1.2727273,-5.9818185 3.309091,-8.1454548 L 6.0727273,5.2 C 3.5272727,7.7454545 2,11.309091 2,15.127273 c 0,3.818182 1.5272727,7.381818 4.0727273,9.927272 L 7.8545455,23.272727 C 5.8181818,21.109091 4.5454545,18.309091 4.5454545,15.127273 Z"
     id="path3"
     style="fill:#ffffff;fill-opacity:1;stroke-width:1.27273" />
  <path
     fill="#ffffff"
     d="M 9.7636364,21.363636 11.545455,19.581818 C 10.4,18.436364 9.6363636,16.909091 9.6363636,15.127273 c 0,-1.781818 0.7636364,-3.309091 1.9090914,-4.454546 L 9.7636364,8.8909091 C 8.1090909,10.418182 7.0909091,12.709091 7.0909091,15.127273 c 0,2.418182 1.0181818,4.709091 2.6727273,6.236363 z"
     id="path4"
     style="fill:#ffffff;fill-opacity:1;stroke-width:1.27273" />
  <path
     fill="#ffffff"
     d="m 22.363636,15.127273 c 0,1.781818 -0.763636,3.309091 -1.909091,4.454545 l 1.781819,1.781818 c 1.654545,-1.654545 2.672727,-3.818181 2.672727,-6.236363 0,-2.418182 -1.018182,-4.709091 -2.672727,-6.2363639 l -1.781819,1.7818179 c 1.145455,1.145455 1.909091,2.672728 1.909091,4.454546 z"
     id="path5"
     style="fill:#ffffff;fill-opacity:1;stroke-width:1.27273" />
  <path
     fill="#ffffff"
     d="m 17.272727,18.690909 c 1.527273,-0.509091 2.545455,-1.909091 2.545455,-3.563636 0,-2.163637 -1.654546,-3.818182 -3.818182,-3.818182 -2.163636,0 -3.818182,1.654545 -3.818182,3.818182 0,1.654545 1.018182,3.054545 2.545455,3.563636 l -1.4,7.890909 h -1.145455 v 2.545455 h 0.763637 1.272727 3.690909 1.272727 0.636364 V 26.581818 H 18.672727 Z M 14.6,26.581818 16,18.945455 c 0,0 0,0 0,0 0,0 0,0 0,0 l 1.4,7.636363 z"
     id="path6"
     style="fill:#ffffff;fill-opacity:1;stroke-width:1.27273" />
  <metadata
     id="metadata6">
    <rdf:RDF>
      <cc:Work
         rdf:about="">
        <dc:title>cellular-signal-white-22.svg</dc:title>
      </cc:Work>
    </rdf:RDF>
  </metadata>
</svg>
