<?xml version="1.0" encoding="UTF-8" standalone="no"?>
<svg
   version="1"
   viewBox="0 0 88.108 100"
   id="svg19"
   sodipodi:docname="snow.svg"
   inkscape:version="1.1.2 (b8e25be833, 2022-02-05)"
   xmlns:inkscape="http://www.inkscape.org/namespaces/inkscape"
   xmlns:sodipodi="http://sodipodi.sourceforge.net/DTD/sodipodi-0.dtd"
   xmlns="http://www.w3.org/2000/svg"
   xmlns:svg="http://www.w3.org/2000/svg">
  <defs
     id="defs23" />
  <sodipodi:namedview
     id="namedview21"
     pagecolor="#505050"
     bordercolor="#eeeeee"
     borderopacity="1"
     inkscape:pageshadow="0"
     inkscape:pageopacity="0"
     inkscape:pagecheckerboard="0"
     showgrid="false"
     inkscape:zoom="8.08"
     inkscape:cx="43.25495"
     inkscape:cy="50"
     inkscape:window-width="1920"
     inkscape:window-height="1017"
     inkscape:window-x="-8"
     inkscape:window-y="-8"
     inkscape:window-maximized="1"
     inkscape:current-layer="svg19" />
  <path
     d="M36.786 50.287l3.955 5.84h7.367l3.398-5.84-3.58-6.22h-7.38l-3.758 6.22zM39.82 97.26V84.055l-7.38 4.15-3.76-2.152V81.4l10.944-6.22V66.5l-7.94 5.1v-9.195l-7.588 4.374v12.466l-4.15 2.572-3.51-2.322V71.14L4.92 77.64 0 75.57V70.3l12.09-6.61-7.562-3.8v-4.822l4.29-2.35 10.846 6.387 7.533-4.346-.182-.14-7.7-4.418 7.476-4.64-7.503-4.346L8.442 47.59l-4.068-2.027v-4.808l7.34-4.123L0 30.272v-5.27l4.5-2.318 11.544 6.666v-8.497l3.48-2.348 4.264 2.46-.028 12.718 7.756 4.43-.027-8.986 8.132 4.375v-8.68L28.68 18.59v-4.613l3.76-2.18 7.378 4.15V2.767L44.04 0l4.26 2.768v13.18l7.647-4.235 3.845 2.544v4.15L48.47 24.823v8.68l7.744-4.724v9.447l7.98-4.348v-13.6l3.843-1.79 4.038 1.79v8.694l11.88-6.416 4.152 2.53v4.92l-11.6 6.596 7.253 4.066v4.697L80 47.45l-11.138-6.583-7.702 4.892 7.45 4.64-7.674 4.416 7.926 4.15L80 52.746l3.578 2.53v4.487L76.59 63.69l11.126 6.61v5.188l-4.71 2.152-10.93-6.22v8.23l-3.928 2.195-3.843-2.194V67.157l-8.092-4.61v8.68L48.47 66.5v8.68L59.41 81.4v4.92l-3.776 1.885-7.337-4.15v13.207L44.04 100l-4.22-2.74z"
     id="path17" />
  <path
     style="fill:#ffffff;fill-opacity:1;stroke-width:0.123762"
     d="M 41.985123,98.59588 39.926181,97.277228 39.919774,90.625 c -0.0035,-3.658725 -0.02585,-6.652228 -0.04962,-6.652228 -0.02377,0 -1.675113,0.918936 -3.669658,2.042079 -1.994545,1.123144 -3.680567,2.04208 -3.746714,2.04208 -0.06615,0 -0.92099,-0.45705 -1.899649,-1.015666 L 28.774752,86.0256 V 83.723554 81.42151 l 5.444102,-3.086993 5.444101,-3.086992 0.0014,-4.423362 0.0014,-4.42336 -0.587871,0.367344 c -0.323329,0.20204 -2.091584,1.336279 -3.929455,2.52053 l -3.341584,2.153184 -0.06188,-4.557243 -0.06188,-4.557244 -3.805011,2.190273 -3.805012,2.190274 -0.005,6.25 -0.005,6.25 -2.050618,1.256581 -2.050616,1.256582 -1.719867,-1.115569 -1.719876,-1.115568 v -4.207472 c 0,-3.530699 -0.02753,-4.196908 -0.171143,-4.141798 -0.09413,0.03612 -2.530702,1.397947 -5.414605,3.02628 -2.8839026,1.628333 -5.4258547,3.054908 -5.6487821,3.170167 L 4.8824244,77.546686 2.4697395,76.535312 0.05705452,75.523937 0.09040844,72.917634 0.12376238,70.311332 4.950495,67.670516 c 2.654703,-1.452448 5.380975,-2.93996 6.058382,-3.305584 L 12.240527,63.700163 8.4408079,61.801521 4.6410891,59.902877 V 57.486923 55.070969 L 5.7240099,54.486698 C 6.3196163,54.165349 7.2599587,53.653744 7.8136594,53.3498 l 1.0067288,-0.552629 5.3465128,3.149682 c 2.940583,1.732325 5.417517,3.149682 5.504299,3.149682 0.163821,0 7.191583,-4.011447 7.462774,-4.259753 0.118036,-0.108074 -0.755834,-0.663176 -3.759996,-2.388431 l -3.913773,-2.247631 0.550622,-0.347885 c 0.302843,-0.191336 1.950995,-1.211127 3.662562,-2.266201 1.711566,-1.055075 3.097163,-1.968877 3.079101,-2.030671 -0.03174,-0.108578 -1.276288,-0.851717 -5.478208,-3.271105 l -1.993044,-1.14756 -5.415852,3.184956 -5.415852,3.184955 -2.0279847,-1.011787 -2.0279849,-1.011787 v -2.330972 -2.330971 l 3.6457404,-2.032134 c 2.0051572,-1.117672 3.6460312,-2.087825 3.6463862,-2.155895 3.55e-4,-0.06807 -2.6159445,-1.536971 -5.8139985,-3.264226 L 0.0570485,30.228972 0.09040545,27.626007 0.12376238,25.023045 2.2277228,23.93075 c 1.1571782,-0.600762 2.1700552,-1.093262 2.2508376,-1.094443 0.080782,-0.0012 2.6570796,1.447808 5.7251046,3.219978 3.068026,1.772169 5.661274,3.253993 5.762777,3.292944 0.161364,0.06192 0.184548,-0.466967 0.184548,-4.210038 v -4.280856 l 1.690234,-1.131248 c 1.641062,-1.098338 1.699569,-1.125904 2.011139,-0.947526 0.176497,0.101048 1.114032,0.640873 2.083409,1.199614 l 1.762504,1.015891 0.03205,6.381554 0.03205,6.381555 3.774753,2.16242 c 2.076114,1.189332 3.853151,2.193728 3.948972,2.23199 0.14883,0.05943 0.161312,-0.58279 0.08565,-4.406607 -0.04871,-2.461896 -0.05781,-4.476176 -0.02022,-4.476176 0.05171,0 7.544808,4.008579 8.021485,4.291248 0.05105,0.03027 0.09171,-1.93927 0.09036,-4.376765 l -0.0025,-4.43181 -5.442567,-3.094059 -5.442567,-3.09406 0.0014,-2.289604 0.0014,-2.289603 1.803982,-1.038557 c 1.795464,-1.033654 1.805828,-1.037674 2.194877,-0.851448 0.214991,0.102911 1.886069,1.029729 3.713506,2.059597 1.827445,1.029868 3.345081,1.872487 3.372533,1.872487 0.02745,0 0.04991,-2.97844 0.04991,-6.6187544 v -6.618754 l 2.0632,-1.3510242 2.063199,-1.35102406 1.061801,0.68775804 c 0.58399,0.37826692 1.521268,0.98541612 2.08284,1.34922052 l 1.02104,0.6614625 V 9.40667 c 0,3.641306 0.02333,6.620558 0.05184,6.620558 0.02851,0 1.75789,-0.946782 3.843063,-2.103961 2.085173,-1.157178 3.81751,-2.10396 3.849637,-2.10396 0.03213,0 0.893815,0.558717 1.914862,1.241593 l 1.856449,1.241594 -0.03392,2.049938 -0.03392,2.049938 -5.5998,3.175053 -5.599801,3.175052 -4.95e-4,4.423119 -4.95e-4,4.423119 2.196782,-1.34022 c 1.20823,-0.73712 2.934715,-1.792729 3.836634,-2.345796 l 1.639851,-1.005576 v 4.70898 c 0,2.58994 0.04562,4.690418 0.10137,4.667727 0.05575,-0.02269 1.893626,-1.015822 4.084159,-2.20696 L 64.29453,33.91116 v -6.808362 -6.80836 l 1.807793,-0.8341 c 0.994285,-0.458755 1.871451,-0.83413 1.949257,-0.834166 0.07781,-3.6e-5 0.990673,0.375892 2.028595,0.835396 l 1.88713,0.835462 2.48e-4,4.362623 c 1.23e-4,2.399444 0.03567,4.362624 0.07896,4.362624 0.04329,0 2.716951,-1.424182 5.941466,-3.164848 3.224515,-1.740665 5.937854,-3.146915 6.029642,-3.125 0.09179,0.02192 1.037891,0.568932 2.102449,1.215591 l 1.935562,1.175742 6.19e-4,2.417566 6.19e-4,2.417566 -5.618395,3.190623 c -3.090118,1.754844 -5.70889,3.256796 -5.819493,3.337671 -0.169378,0.123853 0.375054,0.469093 3.451721,2.188839 l 3.652817,2.041795 8.66e-4,2.300166 8.66e-4,2.300167 -1.852939,1.016703 c -1.473668,0.808597 -1.899441,0.991815 -2.080124,0.895117 -0.124952,-0.06687 -2.636046,-1.544953 -5.58021,-3.284624 l -5.353026,-3.163037 -3.736405,2.369184 c -2.055022,1.303052 -3.804168,2.430384 -3.886991,2.505185 -0.113252,0.102285 0.753511,0.698917 3.49608,2.406516 2.005667,1.248782 3.619719,2.314114 3.586785,2.367405 -0.03294,0.05329 -1.702123,1.036374 -3.709306,2.184629 -2.007182,1.148256 -3.632835,2.142032 -3.612564,2.208391 0.04255,0.139292 7.613126,4.138054 7.846904,4.14472 0.08543,0.0024 2.560357,-1.340167 5.49983,-2.983561 2.939472,-1.643393 5.436041,-3.011927 5.547928,-3.041185 0.118411,-0.03097 0.911516,0.448831 1.8977,1.148034 l 1.69427,1.201234 -0.03367,2.241184 -0.03367,2.241184 -3.431094,1.919313 c -1.887101,1.055623 -3.432584,1.948559 -3.434406,1.984302 -0.0018,0.03574 2.488953,1.545928 5.535055,3.355965 l 5.538366,3.290978 v 2.564366 2.564367 l -2.307793,1.054916 -2.307795,1.054917 -5.45698,-3.107675 c -3.001324,-1.70922 -5.484663,-3.107673 -5.51853,-3.107673 -0.03387,0 -0.07624,1.870841 -0.09416,4.157426 l -0.03259,4.157425 -1.882554,1.053472 -1.882553,1.053473 -1.830318,-1.04917 -1.830318,-1.049169 -0.06188,-6.28501 -0.06188,-6.28501 -3.960396,-2.263227 c -2.178218,-1.244774 -4.030013,-2.266402 -4.115099,-2.270283 -0.120908,-0.0055 -0.154703,0.925188 -0.154703,4.260438 v 4.267494 l -1.918317,-1.173435 c -1.055074,-0.645388 -2.78156,-1.70148 -3.836634,-2.346868 L 48.45297,66.403131 v 4.423763 4.423763 l 5.445114,3.092493 5.445114,3.092494 3.71e-4,2.415345 3.72e-4,2.415344 -1.795646,0.895299 c -0.987488,0.492414 -1.850789,0.895299 -1.918328,0.895299 -0.06754,0 -1.744478,-0.918936 -3.726528,-2.04208 -1.982048,-1.123143 -3.624935,-2.042079 -3.65086,-2.042079 -0.02592,0 -0.04924,2.993503 -0.05181,6.652228 l -0.0047,6.652228 -1.325772,0.836755 c -0.729175,0.460215 -1.663382,1.05361 -2.076017,1.318653 l -0.750246,0.481897 -2.05894,-1.318653 z m 7.899548,-45.385808 1.699226,-2.916167 -0.256916,-0.456358 c -0.141304,-0.250997 -0.9468,-1.65376 -1.789992,-3.11725 l -1.533077,-2.660891 -3.766807,-0.0284 -3.766808,-0.02839 -1.874861,3.14269 -1.874862,3.14269 0.439601,0.660457 c 0.24178,0.363252 1.129803,1.676856 1.973382,2.919121 l 1.533782,2.258664 h 3.759053 3.759054 z"
     id="path7208" />
</svg>
