<?xml version="1.0" encoding="UTF-8" standalone="no"?>
<svg
   xmlns:dc="http://purl.org/dc/elements/1.1/"
   xmlns:cc="http://creativecommons.org/ns#"
   xmlns:rdf="http://www.w3.org/1999/02/22-rdf-syntax-ns#"
   xmlns:svg="http://www.w3.org/2000/svg"
   xmlns="http://www.w3.org/2000/svg"
   xmlns:sodipodi="http://sodipodi.sourceforge.net/DTD/sodipodi-0.dtd"
   xmlns:inkscape="http://www.inkscape.org/namespaces/inkscape"
   viewBox="0 0 32 32"
   version="1.1"
   id="svg6"
   sodipodi:docname="vv.svg"
   inkscape:version="1.0.1 (3bc2e813f5, 2020-09-07)"
   width="32"
   height="32"
   inkscape:export-filename="C:\Users\Pieter-Jan Briers\Projects\space-station-14\Resources\Textures\Interface\VerbIcons\vv.svg.96dpi.png"
   inkscape:export-xdpi="96"
   inkscape:export-ydpi="96">
  <metadata
     id="metadata12">
    <rdf:RDF>
      <cc:Work
         rdf:about="">
        <dc:format>image/svg+xml</dc:format>
        <dc:type
           rdf:resource="http://purl.org/dc/dcmitype/StillImage" />
        <dc:title></dc:title>
      </cc:Work>
    </rdf:RDF>
  </metadata>
  <defs
     id="defs10" />
  <sodipodi:namedview
     pagecolor="#000000"
     bordercolor="#666666"
     borderopacity="1"
     objecttolerance="10"
     gridtolerance="10"
     guidetolerance="10"
     inkscape:pageopacity="0"
     inkscape:pageshadow="2"
     inkscape:window-width="1920"
     inkscape:window-height="1051"
     id="namedview8"
     showgrid="true"
     inkscape:zoom="29.333333"
     inkscape:cx="7.3238692"
     inkscape:cy="17.821155"
     inkscape:window-x="-9"
     inkscape:window-y="-9"
     inkscape:window-maximized="1"
     inkscape:current-layer="svg6">
    <inkscape:grid
       type="xygrid"
       id="grid837"
       empspacing="4" />
  </sodipodi:namedview>
  <g
     id="g841"
     transform="matrix(0.20017181,0,0,0.20017181,3.9893911,3.9896914)">
    <path
       d="M 60,19.09 C 22.382,19.09 0.053,60 0.053,60 c 0,0 22.33,40.91 59.947,40.91 37.617,0 59.95,-40.91 59.95,-40.91 0,0 -22.332,-40.91 -59.95,-40.91 z m 0,65.32 C 46.54,84.41 35.59,73.46 35.59,60 35.59,46.54 46.54,35.59 60,35.59 c 13.46,0 24.407,10.95 24.407,24.41 0,13.46 -10.95,24.41 -24.41,24.41 z"
       id="path2"
       style="fill:#ffffff;fill-opacity:1" />
    <circle
       cy="60"
       cx="60.001499"
       r="14.409"
       id="circle4"
       style="fill:#fefefe;fill-opacity:1" />
  </g>
</svg>
