<?xml version="1.0" encoding="UTF-8"?>
<!-- Created with Grafika (https://www.grafika.cc/) -->
<svg xmlns="http://www.w3.org/2000/svg" xmlns:svg="http://www.w3.org/2000/svg" xmlns:xlink="http://www.w3.org/1999/xlink" width="1914.37" height="2048" viewBox="0 0 397.84 425.61" preserveAspectRatio="xMidYMid meet">
	<g transform="matrix(1, 0, 0, 1, 918.2266235351562, 322.599853515625)">
		<rect transform="matrix(2.3508379459381104, -1.8723853826522827, 1.8723853826522827, 2.3508379459381104, -736.1559448242188, -148.0034942626953)" x="-18.47" y="-59.56" width="36.94" height="119.12" rx="4.84" ry="4.84" style="fill:#FFFFFF;" />
		<path transform="matrix(0.7910786271095276, -0.623614490032196, 0.623614490032196, 0.7910786271095276, -587.2367553710938, 40.39946365356445)" d="M-18.91,36.66 L-53.89,-47.45 L55.61,-47.15 L19.59,36.64 L-18.91,36.66 L-18.91,36.66 Z" style="fill:#FFFFFF;" />
		<path transform="matrix(0.10857090353965759, -0.08125921338796616, 0.08126801252365112, 0.10858258605003357, -564.1328735351562, 67.97682189941406)" d="M100,0 C100,55.23 55.23,100 0,100 C-55.23,100 -100,55.23 -100,0 C-100,-55.23 -55.23,-100 -0,-100 C55.23,-100 100,-55.23 100,0 Z" style="fill:#FFFFFF;" />
		<rect transform="matrix(0.7578315138816833, -0.5890470743179321, 0.5890470743179321, 0.7578315138816833, -869.9592895507812, -248.7919158935547)" x="-50" y="-17.61" width="100" height="35.23" rx="10.42" ry="10.42" style="fill:#FFFFFF;" />
		<path transform="matrix(0.8260452747344971, -0.639509379863739, 0.639509379863739, 0.8260452747344971, -860.7582397460938, -175.4156494140625)" d="M-9.9,-65.01 L9.9,-65.01 L9.9,65.01 L-7.41,36.86 L-9.9,-65.01 Z" style="fill:#FFFFFF;" />
		<ellipse transform="matrix(0.31744566559791565, -0.03167712688446045, 0.03167712688446045, 0.31744566559791565, -839.2256469726562, -272.6805419921875)" cx="0" cy="0" rx="100" ry="100" style="fill:#FFFFFF;" />
	</g>
</svg>