<?xml version="1.0" encoding="UTF-8"?>
<svg version="1.1" xmlns="http://www.w3.org/2000/svg" width="256" height="256">
<path d="M0 0 C1.80307617 -0.0299707 1.80307617 -0.0299707 3.64257812 -0.06054688 C10.50127915 -0.05676381 15.03756193 0.2437796 20.5625 4.4375 C24.42761721 8.40172278 24.79364084 11.46907176 24.8125 16.8125 C24.73 18.66875 24.6475 20.525 24.5625 22.4375 C20.6025 22.4375 16.6425 22.4375 12.5625 22.4375 C12.5625 19.4675 12.5625 16.4975 12.5625 13.4375 C4.3125 13.4375 -3.9375 13.4375 -12.4375 13.4375 C-12.4375 18.3875 -12.4375 23.3375 -12.4375 28.4375 C-10.64183594 28.39109375 -8.84617187 28.3446875 -6.99609375 28.296875 C-4.62241251 28.25934644 -2.24871323 28.22294745 0.125 28.1875 C1.89713867 28.13722656 1.89713867 28.13722656 3.70507812 28.0859375 C10.57218127 28.00899517 15.03371728 28.21326151 20.5625 32.4375 C22.5 34.6875 22.5 34.6875 23.5625 36.4375 C24.2225 35.1175 24.8825 33.7975 25.5625 32.4375 C26.5525 32.4375 27.5425 32.4375 28.5625 32.4375 C28.5718457 31.77218262 28.58119141 31.10686523 28.59082031 30.42138672 C28.64476019 27.38435981 28.72836062 24.34883421 28.8125 21.3125 C28.82667969 20.26578125 28.84085938 19.2190625 28.85546875 18.140625 C29.04408742 12.18027517 29.25935563 7.9572456 33.5625 3.4375 C38.6469294 -0.14883859 43.57099239 -0.01679937 49.5625 0.0625 C50.4390625 0.05089844 51.315625 0.03929688 52.21875 0.02734375 C57.39387853 0.05072535 61.12687758 0.48729532 65.5625 3.4375 C69.08893193 8.29825753 70.28963981 12.4345758 70.5625 18.4375 C70.67464844 19.76007812 70.67464844 19.76007812 70.7890625 21.109375 C71.10812398 27.18833579 70.41026806 30.86443298 66.75390625 35.78125 C65.362261 37.54275852 65.362261 37.54275852 64.5625 40.4375 C65.7913917 43.09574091 67.06437393 45.58358591 68.5 48.125 C69.07911133 49.1778418 69.07911133 49.1778418 69.66992188 50.25195312 C70.62511773 51.98545672 71.59265386 53.71215009 72.5625 55.4375 C72.57708252 54.30320557 72.59166504 53.16891113 72.60668945 52.00024414 C72.6650494 47.75628525 72.74227728 43.5128362 72.82495117 39.26928711 C72.85802431 37.43929372 72.88610999 35.60920263 72.90893555 33.77905273 C72.94280807 31.13483387 72.99513641 28.49149621 73.05078125 25.84765625 C73.05717117 25.04103043 73.0635611 24.2344046 73.07014465 23.40333557 C73.2456295 16.48710754 74.50378646 8.54223308 79.5 3.375 C85.73519385 -1.60150051 94.81595 -0.80234026 102.35839844 0.01074219 C106.31236549 0.77630869 108.68848098 2.5689811 111.3203125 5.515625 C116.62163008 13.71766352 115.70290987 23.25030254 115.44140625 32.6953125 C115.41779526 33.72437714 115.39418427 34.75344177 115.36985779 35.81369019 C115.29398746 39.06346138 115.20963886 42.31294658 115.125 45.5625 C115.07170237 47.78123654 115.01896267 49.99998656 114.96679688 52.21875 C114.83847757 57.62517713 114.70256025 63.03136481 114.5625 68.4375 C110.6025 68.4375 106.6425 68.4375 102.5625 68.4375 C102.5625 59.1975 102.5625 49.9575 102.5625 40.4375 C97.2825 40.4375 92.0025 40.4375 86.5625 40.4375 C86.5625 49.6775 86.5625 58.9175 86.5625 68.4375 C84.5825 68.7675 82.6025 69.0975 80.5625 69.4375 C82.32410553 72.87980504 84.09834869 76.31543952 85.875 79.75 C86.37451172 80.72646484 86.87402344 81.70292969 87.38867188 82.70898438 C87.87529297 83.64677734 88.36191406 84.58457031 88.86328125 85.55078125 C89.30841064 86.41485596 89.75354004 87.27893066 90.2121582 88.16918945 C91.51010757 90.34949095 92.54533776 91.90227293 94.5625 93.4375 C96.54313996 93.4375 98.5245986 93.43201014 100.50390625 93.359375 C104.74914561 93.52048465 107.70958219 95.76414384 110.9375 98.3125 C112.90780175 100.88904844 112.91453763 102.26916132 112.5625 105.4375 C113.13097656 105.44007812 113.69945312 105.44265625 114.28515625 105.4453125 C119.07478099 105.68519354 121.73565512 106.17315512 125.1875 109.625 C126.81040094 111.28385025 126.81040094 111.28385025 128.5625 112.4375 C132.02735707 111.81717524 132.02735707 111.81717524 135.5625 110.4375 C141.18561495 110.04861168 144.96456106 111.48889763 149.625 114.5625 C152.83210432 116.63447776 154.83675459 117.90471373 158.6875 117.4375 C161.2325371 116.81472403 163.73195971 116.09805936 166.25 115.3671875 C175.38224697 113.10152956 187.83214842 113.86724407 196.328125 117.96875 C206.07013205 124.3725868 211.72129785 133.18698696 215.1159668 144.23950195 C216.14431387 149.30139848 215.7908022 154.60491034 215.8125 159.75 C215.833125 160.96107422 215.85375 162.17214844 215.875 163.41992188 C215.9034539 169.91808094 215.76170133 174.73845763 212.5625 180.4375 C212.06492188 181.38753906 211.56734375 182.33757812 211.0546875 183.31640625 C204.59206768 194.0406087 196.02967641 198.65582546 184.22265625 202.125 C171.73750064 204.96522497 154.95214997 205.94050147 143.5625 199.4375 C140.81717732 197.68630531 138.16703932 195.87481178 135.55859375 193.92578125 C133.63489281 192.40031877 133.63489281 192.40031877 131.5625 191.4375 C131.98402344 192.30632812 132.40554687 193.17515625 132.83984375 194.0703125 C133.38769531 195.22273437 133.93554688 196.37515625 134.5 197.5625 C135.04527344 198.69945312 135.59054688 199.83640625 136.15234375 201.0078125 C137.4728119 204.21936661 138.15034221 207.00459079 138.5625 210.4375 C139.8 210.499375 141.0375 210.56125 142.3125 210.625 C145.58011454 211.04868714 146.4783496 211.36771674 149.125 213.5625 C151.04435206 217.40120411 150.73251544 219.34244596 149.5625 223.4375 C146.73634734 228.18543647 142.41459501 230.96944301 137.5625 233.4375 C136.9025 233.4375 136.2425 233.4375 135.5625 233.4375 C135.5625 234.7575 135.5625 236.0775 135.5625 237.4375 C131.9325 237.4375 128.3025 237.4375 124.5625 237.4375 C124.5625 243.3775 124.5625 249.3175 124.5625 255.4375 C120.2725 255.4375 115.9825 255.4375 111.5625 255.4375 C111.5625 249.1675 111.5625 242.8975 111.5625 236.4375 C104.6325 236.4375 97.7025 236.4375 90.5625 236.4375 C87.88382715 215.00811719 87.88382715 215.00811719 92.16015625 209.02734375 C100.57313673 199.48950794 100.57313673 199.48950794 106.5625 197.4375 C106.5625 196.4475 106.5625 195.4575 106.5625 194.4375 C105.87736328 194.45844727 105.19222656 194.47939453 104.48632812 194.50097656 C101.34520478 194.58475399 98.20431736 194.63635414 95.0625 194.6875 C93.98484375 194.72101563 92.9071875 194.75453125 91.796875 194.7890625 C85.2143072 194.86933772 79.95044704 194.49383183 74.5625 190.4375 C72.94140625 188.47265625 72.94140625 188.47265625 72.125 186.5 C71.83753906 185.85160156 71.55007812 185.20320312 71.25390625 184.53515625 C69.7794521 180.06181231 69.40175716 175.73510882 69.24609375 171.04296875 C69.20419922 169.84091797 69.16230469 168.63886719 69.11914062 167.40039062 C69.07982422 166.15451172 69.04050781 164.90863281 69 163.625 C68.95681641 162.35978516 68.91363281 161.09457031 68.86914062 159.79101562 C68.7632553 156.67328111 68.66117595 153.55546965 68.5625 150.4375 C67.83523948 152.0122294 67.13129578 153.59774279 66.4375 155.1875 C66.04304688 156.06921875 65.64859375 156.9509375 65.2421875 157.859375 C64.4018498 161.04686281 65.03649836 161.6282847 66.5625 164.4375 C66.78955078 167.46191406 66.78955078 167.46191406 66.7578125 170.953125 C66.75136719 172.20351562 66.74492188 173.45390625 66.73828125 174.7421875 C66.71314453 176.69511719 66.71314453 176.69511719 66.6875 178.6875 C66.67847656 180.00492188 66.66945313 181.32234375 66.66015625 182.6796875 C66.63658533 185.93247462 66.60368022 189.18489589 66.5625 192.4375 C68.8725 192.4375 71.1825 192.4375 73.5625 192.4375 C73.5625 213.2275 73.5625 234.0175 73.5625 255.4375 C69.2725 255.4375 64.9825 255.4375 60.5625 255.4375 C60.5625 242.2375 60.5625 229.0375 60.5625 215.4375 C57.2625 215.4375 53.9625 215.4375 50.5625 215.4375 C50.5625 211.1475 50.5625 206.8575 50.5625 202.4375 C53.8625 202.4375 57.1625 202.4375 60.5625 202.4375 C60.5625 199.4675 60.5625 196.4975 60.5625 193.4375 C58.2525 193.4375 55.9425 193.4375 53.5625 193.4375 C53.2325 192.7775 52.9025 192.1175 52.5625 191.4375 C51.94375 192.30375 51.325 193.17 50.6875 194.0625 C44.54652933 201.44566132 35.29403143 205.1037048 25.98828125 206.21704102 C21.20582075 206.65167888 16.42440101 206.70525729 11.625 206.75 C10.59181641 206.77900391 9.55863281 206.80800781 8.49414062 206.83789062 C1.5683116 206.89491138 -3.39725335 205.82195687 -9.4375 202.4375 C-10.45199219 201.88449219 -11.46648438 201.33148438 -12.51171875 200.76171875 C-23.69986951 193.75449129 -28.65344199 185.97337272 -32.4375 173.4375 C-35.7293548 158.92198789 -34.24969515 144.818607 -27.671875 131.359375 C-22.80656809 123.7842769 -14.88532093 119.82856826 -6.4375 117.4375 C3.82806782 115.42891744 15.21936901 113.87799101 25.125 117.875 C28.45027542 118.79966365 28.45027542 118.79966365 30.5703125 117.23046875 C31.28960937 116.68003906 32.00890625 116.12960938 32.75 115.5625 C37.45503305 112.02159884 41.08831843 111.8500747 46.86328125 112.03125 C49.50470097 112.42880087 51.27621925 113.09071229 53.5625 114.4375 C54.9458755 112.35801646 54.9458755 112.35801646 55.5625 109.4375 C54.53894021 106.658318 53.4773652 104.33408444 52.07421875 101.7578125 C51.69642776 101.02682343 51.31863678 100.29583435 50.92939758 99.54269409 C49.71971485 97.20673892 48.48685817 94.8841653 47.25 92.5625 C46.02656539 90.24677333 44.80869262 87.92860955 43.60273743 85.60372925 C42.85229866 84.15887877 42.09155959 82.71931611 41.3190155 81.28616333 C39.04835161 76.93754471 37.98160592 73.33383524 37.5625 68.4375 C34.9225 68.4375 32.2825 68.4375 29.5625 68.4375 C29.51351562 67.71304688 29.46453125 66.98859375 29.4140625 66.2421875 C29.01043848 61.02291133 28.54974193 56.33936342 26.5625 51.4375 C26.2325 51.4375 25.9025 51.4375 25.5625 51.4375 C25.47613281 52.10136719 25.38976563 52.76523437 25.30078125 53.44921875 C24.37376083 59.27498928 23.53450585 62.79136238 18.5625 66.4375 C12.19418944 69.94779517 6.29973963 69.954352 -0.875 69.9375 C-1.96876953 69.96585937 -3.06253906 69.99421875 -4.18945312 70.0234375 C-11.18518492 70.04028454 -16.16298594 69.24902894 -21.4375 64.4375 C-25.72816056 59.21958471 -24.65073863 53.90573852 -24.4375 47.4375 C-20.4775 47.4375 -16.5175 47.4375 -12.4375 47.4375 C-12.4375 50.4075 -12.4375 53.3775 -12.4375 56.4375 C-4.1875 56.4375 4.0625 56.4375 12.5625 56.4375 C12.5625 51.4875 12.5625 46.5375 12.5625 41.4375 C10.76683594 41.48390625 8.97117188 41.5303125 7.12109375 41.578125 C4.74741251 41.61565356 2.37371323 41.65205255 0 41.6875 C-1.77213867 41.73777344 -1.77213867 41.73777344 -3.58007812 41.7890625 C-10.42583006 41.8657656 -14.96683499 41.72881442 -20.4375 37.4375 C-25.89233892 31.0595345 -25.87717126 23.38540354 -25.4375 15.4375 C-24.46039182 10.38910773 -23.09036872 7.09036872 -19.4375 3.4375 C-12.98271745 -0.34942036 -7.30371023 -0.04294004 0 0 Z M41.5625 13.4375 C41.5625 17.0675 41.5625 20.6975 41.5625 24.4375 C44.1303125 24.870625 44.1303125 24.870625 46.75 25.3125 C50.76223108 25.98926187 53.69793376 26.8916735 57.5625 28.4375 C57.5625 23.4875 57.5625 18.5375 57.5625 13.4375 C52.2825 13.4375 47.0025 13.4375 41.5625 13.4375 Z M86.5625 13.4375 C86.5625 18.7175 86.5625 23.9975 86.5625 29.4375 C91.8425 29.4375 97.1225 29.4375 102.5625 29.4375 C102.5625 24.1575 102.5625 18.8775 102.5625 13.4375 C97.2825 13.4375 92.0025 13.4375 86.5625 13.4375 Z M97.5625 102.4375 C98.12989868 106.56723628 98.12989868 106.56723628 99.5625 110.4375 C101.5425 110.4375 103.5225 110.4375 105.5625 110.4375 C105.2266593 107.33097355 104.97200721 105.83335697 102.6875 103.625 C100.53174372 102.19358932 100.53174372 102.19358932 97.5625 102.4375 Z M111.5625 114.4375 C111.14469121 116.81055578 111.14469121 116.81055578 111.5625 119.4375 C114.83428817 122.07310713 116.28318147 122.4375 120.5625 122.4375 C120.8925 121.1175 121.2225 119.7975 121.5625 118.4375 C120.469375 117.7775 119.37625 117.1175 118.25 116.4375 C117.63511719 116.06625 117.02023438 115.695 116.38671875 115.3125 C114.44888074 114.22126001 114.44888074 114.22126001 111.5625 114.4375 Z M111.5625 129.4375 C111.8925 130.4275 112.2225 131.4175 112.5625 132.4375 C113.2225 132.4375 113.8825 132.4375 114.5625 132.4375 C114.8925 131.4475 115.2225 130.4575 115.5625 129.4375 C114.2425 129.4375 112.9225 129.4375 111.5625 129.4375 Z M157.5625 132.4375 C156.32072479 134.92105041 156.44213319 136.56857622 156.44897461 139.34619141 C156.44905014 140.36709869 156.44912567 141.38800598 156.44920349 142.43984985 C156.45436478 143.54509003 156.45952606 144.6503302 156.46484375 145.7890625 C156.4662587 146.9182309 156.46767365 148.04739929 156.46913147 149.21078491 C156.47474256 152.82804988 156.48729697 156.44525364 156.5 160.0625 C156.50501357 162.51041577 156.50957672 164.95833252 156.51367188 167.40625 C156.5247156 173.41668766 156.54146456 179.42708946 156.5625 185.4375 C157.8825 185.4375 159.2025 185.4375 160.5625 185.4375 C160.8925 167.9475 161.2225 150.4575 161.5625 132.4375 C160.2425 132.4375 158.9225 132.4375 157.5625 132.4375 Z M19.5625 133.4375 C19.8925 134.0975 20.2225 134.7575 20.5625 135.4375 C20.80234126 138.8904079 20.74769312 142.35218199 20.75 145.8125 C20.76224609 146.7715625 20.77449219 147.730625 20.78710938 148.71875 C20.78904297 149.64429688 20.79097656 150.56984375 20.79296875 151.5234375 C20.79707764 152.3695459 20.80118652 153.2156543 20.80541992 154.08740234 C20.54347254 156.62157868 19.83580955 158.25044812 18.5625 160.4375 C19.2225 161.4275 19.8825 162.4175 20.5625 163.4375 C20.78955078 165.79760742 20.78955078 165.79760742 20.7578125 168.54296875 C20.75136719 169.52587891 20.74492188 170.50878906 20.73828125 171.52148438 C20.72152344 172.54564453 20.70476563 173.56980469 20.6875 174.625 C20.67847656 175.66076172 20.66945312 176.69652344 20.66015625 177.76367188 C20.6365786 180.32184685 20.6036703 182.87955748 20.5625 185.4375 C22.5425 185.4375 24.5225 185.4375 26.5625 185.4375 C26.6132527 178.83556403 26.64825576 172.23367847 26.67236328 165.6315918 C26.68241444 163.38612996 26.69605744 161.14068119 26.71337891 158.89526367 C26.73766581 155.66582003 26.74899207 152.43654962 26.7578125 149.20703125 C26.76813507 148.20477005 26.77845764 147.20250885 26.78909302 146.1698761 C26.78924408 145.22927841 26.78939514 144.28868073 26.78955078 143.31958008 C26.793992 142.49573318 26.79843323 141.67188629 26.80300903 140.82307434 C26.52665566 138.08196521 25.68662163 135.94031751 24.5625 133.4375 C22.9125 133.4375 21.2625 133.4375 19.5625 133.4375 Z M174.5625 135.4375 C174.5625 141.7075 174.5625 147.9775 174.5625 154.4375 C176.5425 154.4375 178.5225 154.4375 180.5625 154.4375 C180.5625 151.4675 180.5625 148.4975 180.5625 145.4375 C183.2025 145.4375 185.8425 145.4375 188.5625 145.4375 C188.5625 143.4575 188.5625 141.4775 188.5625 139.4375 C186.98282193 138.76221777 185.39858097 138.09760306 183.8125 137.4375 C182.93078125 137.06625 182.0490625 136.695 181.140625 136.3125 C178.38496229 135.22324117 178.38496229 135.22324117 174.5625 135.4375 Z M-6.4375 140.4375 C-6.4375 145.0575 -6.4375 149.6775 -6.4375 154.4375 C-1.1575 154.4375 4.1225 154.4375 9.5625 154.4375 C9.5625 149.1575 9.5625 143.8775 9.5625 138.4375 C7.665 138.39625 5.7675 138.355 3.8125 138.3125 C2.74515625 138.28929687 1.6778125 138.26609375 0.578125 138.2421875 C-2.7308129 138.26043107 -2.7308129 138.26043107 -6.4375 140.4375 Z M191.5625 147.4375 C191.5625 150.4075 191.5625 153.3775 191.5625 156.4375 C188.5925 156.4375 185.6225 156.4375 182.5625 156.4375 C182.5625 158.7475 182.5625 161.0575 182.5625 163.4375 C185.5325 163.4375 188.5025 163.4375 191.5625 163.4375 C191.5625 166.0775 191.5625 168.7175 191.5625 171.4375 C192.8825 171.4375 194.2025 171.4375 195.5625 171.4375 C195.5625 163.5175 195.5625 155.5975 195.5625 147.4375 C194.2425 147.4375 192.9225 147.4375 191.5625 147.4375 Z M-6.4375 165.4375 C-6.4375 170.7175 -6.4375 175.9975 -6.4375 181.4375 C-1.1575 181.4375 4.1225 181.4375 9.5625 181.4375 C9.5625 176.1575 9.5625 170.8775 9.5625 165.4375 C4.2825 165.4375 -0.9975 165.4375 -6.4375 165.4375 Z M39.5625 165.4375 C39.5625 168.7375 39.5625 172.0375 39.5625 175.4375 C42.72380459 171.22242722 42.8992697 170.37678888 42.5625 165.4375 C41.5725 165.4375 40.5825 165.4375 39.5625 165.4375 Z M139.5625 165.4375 C140.02810653 170.18668662 140.73182658 173.54532405 143.5625 177.4375 C143.8925 177.4375 144.2225 177.4375 144.5625 177.4375 C144.5625 173.4775 144.5625 169.5175 144.5625 165.4375 C142.9125 165.4375 141.2625 165.4375 139.5625 165.4375 Z M173.5625 165.4375 C173.5625 172.0375 173.5625 178.6375 173.5625 185.4375 C176.5325 184.4475 179.5025 183.4575 182.5625 182.4375 C184.5625 181.77083333 186.5625 181.10416667 188.5625 180.4375 C188.8925 178.4575 189.2225 176.4775 189.5625 174.4375 C186.5925 174.4375 183.6225 174.4375 180.5625 174.4375 C180.5625 171.4675 180.5625 168.4975 180.5625 165.4375 C178.2525 165.4375 175.9425 165.4375 173.5625 165.4375 Z M83.5625 166.4375 C83.5625 171.3875 83.5625 176.3375 83.5625 181.4375 C89.1725 181.4375 94.7825 181.4375 100.5625 181.4375 C99.15878479 175.7356424 99.15878479 175.7356424 96.5625 173.4375 C93.97895782 173.27062552 93.97895782 173.27062552 91.5625 173.4375 C91.48 172.839375 91.3975 172.24125 91.3125 171.625 C90.33955573 168.78724589 89.11800687 167.94073933 86.5625 166.4375 C85.5725 166.4375 84.5825 166.4375 83.5625 166.4375 Z M106.9375 210.875 C103.74189415 214.78282299 104.07970712 218.60957121 104.5625 223.4375 C106.8725 223.4375 109.1825 223.4375 111.5625 223.4375 C111.5625 218.4875 111.5625 213.5375 111.5625 208.4375 C109.20973409 208.21068297 109.20973409 208.21068297 106.9375 210.875 Z " fill="#030303" transform="translate(36.4375,-0.4375)"/>
<path d="M0 0 C0.495 0.99 0.495 0.99 1 2 C-0.093125 2.103125 -1.18625 2.20625 -2.3125 2.3125 C-6.05975155 3.01114012 -6.65962741 3.31397238 -9 6 C-8.40574219 5.96334229 -7.81148437 5.92668457 -7.19921875 5.88891602 C12.18371599 4.84704559 12.18371599 4.84704559 17.1875 9.25 C18.79296875 11.078125 18.79296875 11.078125 20 13 C20.38285156 13.55300781 20.76570313 14.10601562 21.16015625 14.67578125 C22.49617207 18.37312737 22.28757256 22.03934733 22.25 25.9375 C22.26160156 27.13536133 22.26160156 27.13536133 22.2734375 28.35742188 C22.26170948 31.89635091 22.20087923 34.50399342 20.859375 37.81640625 C20.57578125 38.53699219 20.2921875 39.25757813 20 40 C20.30824707 40.57065186 20.61649414 41.14130371 20.93408203 41.72924805 C22.35809712 44.76286334 22.22570441 47.17251463 22.1953125 50.515625 C22.18886719 51.76601562 22.18242188 53.01640625 22.17578125 54.3046875 C22.15064453 56.25761719 22.15064453 56.25761719 22.125 58.25 C22.11597656 59.56742188 22.10695313 60.88484375 22.09765625 62.2421875 C22.07408533 65.49497462 22.04118022 68.74739589 22 72 C24.31 72 26.62 72 29 72 C29 92.79 29 113.58 29 135 C24.71 135 20.42 135 16 135 C16 121.8 16 108.6 16 95 C12.7 95 9.4 95 6 95 C6 90.71 6 86.42 6 82 C9.3 82 12.6 82 16 82 C16 79.03 16 76.06 16 73 C13.69 73 11.38 73 9 73 C9.33 63.76 9.66 54.52 10 45 C5.05 45 0.1 45 -5 45 C-4.979375 46.546875 -4.95875 48.09375 -4.9375 49.6875 C-4.9375 65.8125 -4.9375 65.8125 -7 72 C-10.3 72 -13.6 72 -17 72 C-17 70.02 -17 68.04 -17 66 C-18.77174819 66.08723378 -20.54247377 66.19541655 -22.3125 66.3125 C-23.29863281 66.37050781 -24.28476562 66.42851562 -25.30078125 66.48828125 C-28.29854867 67.05659895 -29.0526105 67.76499605 -31 70 C-31.66 70 -32.32 70 -33 70 C-33 70.66 -33 71.32 -33 72 C-36.56206722 72.14567407 -40.12336551 72.23419196 -43.6875 72.3125 C-44.69490234 72.35439453 -45.70230469 72.39628906 -46.74023438 72.43945312 C-54.23526282 72.56313346 -54.23526282 72.56313346 -58.08203125 69.73046875 C-60.88084921 65.74600081 -62.23532959 63.02836917 -62.38232422 58.12719727 C-62.41510468 57.162621 -62.44788513 56.19804474 -62.48165894 55.20423889 C-62.50575836 54.16875412 -62.52985779 53.13326935 -62.5546875 52.06640625 C-62.58354034 50.99631821 -62.61239319 49.92623016 -62.64212036 48.82371521 C-62.69914876 46.56188065 -62.75092938 44.29990857 -62.79785156 42.0378418 C-62.8746491 38.57830712 -62.98347623 35.12071804 -63.09375 31.66210938 C-63.14520003 29.46358691 -63.19474279 27.2650188 -63.2421875 25.06640625 C-63.27843231 24.03294571 -63.31467712 22.99948517 -63.35202026 21.93470764 C-63.45478892 14.76310494 -63.45478892 14.76310494 -61.17236328 10.93334961 C-55.26613304 5.67695072 -48.87899173 5.89663153 -41.234375 6.05859375 C-34.91780524 6.53330528 -29.67347227 7.60060672 -24.828125 11.94921875 C-22.14081925 16.43380378 -22.49168393 20.43684812 -22.625 25.5625 C-22.62628906 26.50802734 -22.62757812 27.45355469 -22.62890625 28.42773438 C-22.68556308 32.88159076 -22.73695209 36.071552 -25 40 C-24.34 40.99 -23.68 41.98 -23 43 C-22.77294922 45.26831055 -22.77294922 45.26831055 -22.8046875 47.88671875 C-22.81113281 48.82451172 -22.81757812 49.76230469 -22.82421875 50.72851562 C-22.84097656 51.70498047 -22.85773437 52.68144531 -22.875 53.6875 C-22.88402344 54.67556641 -22.89304688 55.66363281 -22.90234375 56.68164062 C-22.9259157 59.12133765 -22.95881978 61.56054697 -23 64 C-21.68 64 -20.36 64 -19 64 C-19.01571045 62.10278198 -19.01571045 62.10278198 -19.03173828 60.16723633 C-19.06829227 55.41661476 -19.09102765 50.6660053 -19.10986328 45.9152832 C-19.11984099 43.87001445 -19.13342795 41.82475966 -19.15087891 39.77954102 C-19.24319349 28.67192414 -19.315859 17.9174345 -17 7 C-15.02 7 -13.04 7 -11 7 C-10.896875 6.236875 -10.79375 5.47375 -10.6875 4.6875 C-9.06139553 -1.66909019 -5.98005289 -1.43964236 0 0 Z M-51 20 C-51 24.62 -51 29.24 -51 34 C-45.72 34 -40.44 34 -35 34 C-35 28.72 -35 23.44 -35 18 C-36.8975 17.95875 -38.795 17.9175 -40.75 17.875 C-41.81734375 17.85179687 -42.8846875 17.82859375 -43.984375 17.8046875 C-47.2933129 17.82293107 -47.2933129 17.82293107 -51 20 Z M-51 45 C-51 50.28 -51 55.56 -51 61 C-45.72 61 -40.44 61 -35 61 C-35 55.72 -35 50.44 -35 45 C-40.28 45 -45.56 45 -51 45 Z " fill="#C5C5C5" transform="translate(81,120)"/>
<path d="M0 0 C1.80307617 -0.0299707 1.80307617 -0.0299707 3.64257812 -0.06054688 C10.50127915 -0.05676381 15.03756193 0.2437796 20.5625 4.4375 C24.42761721 8.40172278 24.79364084 11.46907176 24.8125 16.8125 C24.73 18.66875 24.6475 20.525 24.5625 22.4375 C20.6025 22.4375 16.6425 22.4375 12.5625 22.4375 C12.5625 19.4675 12.5625 16.4975 12.5625 13.4375 C4.3125 13.4375 -3.9375 13.4375 -12.4375 13.4375 C-12.4375 18.3875 -12.4375 23.3375 -12.4375 28.4375 C-10.64183594 28.39109375 -8.84617187 28.3446875 -6.99609375 28.296875 C-4.62241251 28.25934644 -2.24871323 28.22294745 0.125 28.1875 C1.89713867 28.13722656 1.89713867 28.13722656 3.70507812 28.0859375 C10.57218127 28.00899517 15.03371728 28.21326151 20.5625 32.4375 C22.5 34.6875 22.5 34.6875 23.5625 36.4375 C24.2225 35.1175 24.8825 33.7975 25.5625 32.4375 C26.5525 32.4375 27.5425 32.4375 28.5625 32.4375 C28.5718457 31.77218262 28.58119141 31.10686523 28.59082031 30.42138672 C28.64476019 27.38435981 28.72836062 24.34883421 28.8125 21.3125 C28.82667969 20.26578125 28.84085938 19.2190625 28.85546875 18.140625 C29.04408742 12.18027517 29.25935563 7.9572456 33.5625 3.4375 C38.6469294 -0.14883859 43.57099239 -0.01679937 49.5625 0.0625 C50.4390625 0.05089844 51.315625 0.03929688 52.21875 0.02734375 C57.39387853 0.05072535 61.12687758 0.48729532 65.5625 3.4375 C69.08893193 8.29825753 70.28963981 12.4345758 70.5625 18.4375 C70.67464844 19.76007812 70.67464844 19.76007812 70.7890625 21.109375 C71.09232075 26.88724267 70.64780259 31.0461912 67.16015625 35.77734375 C63.45069439 39.63191903 59.84609537 41.23523032 54.51953125 41.70703125 C49.94101176 41.7683756 46.02068491 41.55204623 41.5625 40.4375 C41.5625 49.3475 41.5625 58.2575 41.5625 67.4375 C37.32608987 68.28478203 33.83837998 68.52134078 29.5625 68.4375 C29.51351562 67.71304688 29.46453125 66.98859375 29.4140625 66.2421875 C29.01043848 61.02291133 28.54974193 56.33936342 26.5625 51.4375 C26.2325 51.4375 25.9025 51.4375 25.5625 51.4375 C25.47613281 52.10136719 25.38976563 52.76523437 25.30078125 53.44921875 C24.37376083 59.27498928 23.53450585 62.79136238 18.5625 66.4375 C12.19418944 69.94779517 6.29973963 69.954352 -0.875 69.9375 C-1.96876953 69.96585937 -3.06253906 69.99421875 -4.18945312 70.0234375 C-11.18518492 70.04028454 -16.16298594 69.24902894 -21.4375 64.4375 C-25.72816056 59.21958471 -24.65073863 53.90573852 -24.4375 47.4375 C-20.4775 47.4375 -16.5175 47.4375 -12.4375 47.4375 C-12.4375 50.4075 -12.4375 53.3775 -12.4375 56.4375 C-4.1875 56.4375 4.0625 56.4375 12.5625 56.4375 C12.5625 51.4875 12.5625 46.5375 12.5625 41.4375 C10.76683594 41.48390625 8.97117188 41.5303125 7.12109375 41.578125 C4.74741251 41.61565356 2.37371323 41.65205255 0 41.6875 C-1.77213867 41.73777344 -1.77213867 41.73777344 -3.58007812 41.7890625 C-10.42583006 41.8657656 -14.96683499 41.72881442 -20.4375 37.4375 C-25.89233892 31.0595345 -25.87717126 23.38540354 -25.4375 15.4375 C-24.46039182 10.38910773 -23.09036872 7.09036872 -19.4375 3.4375 C-12.98271745 -0.34942036 -7.30371023 -0.04294004 0 0 Z M41.5625 13.4375 C41.5625 17.0675 41.5625 20.6975 41.5625 24.4375 C44.1303125 24.870625 44.1303125 24.870625 46.75 25.3125 C50.76223108 25.98926187 53.69793376 26.8916735 57.5625 28.4375 C57.5625 23.4875 57.5625 18.5375 57.5625 13.4375 C52.2825 13.4375 47.0025 13.4375 41.5625 13.4375 Z " fill="#FEFEFE" transform="translate(36.4375,-0.4375)"/>
<path d="M0 0 C3.94876668 2.33559379 3.94876668 2.33559379 5.69921875 3.98828125 C5.69921875 4.97828125 5.69921875 5.96828125 5.69921875 6.98828125 C6.68921875 6.98828125 7.67921875 6.98828125 8.69921875 6.98828125 C8.72245062 14.82079266 8.74018894 22.6532959 8.75103092 30.48583317 C8.7562361 34.123299 8.76329052 37.76074115 8.7746582 41.39819336 C8.78557148 44.9124773 8.79151339 48.42673855 8.79409599 51.94103813 C8.79682642 53.92562992 8.80462495 55.91021266 8.81251526 57.89479065 C8.81287409 63.6943009 8.77382764 69.28058352 7.69921875 74.98828125 C0.68238809 75.44507312 -4.73204128 75.60886645 -10.30078125 70.98828125 C-12.20639745 69.20347098 -14.03638257 67.38295902 -15.8203125 65.4765625 C-17.25067519 63.88053295 -17.25067519 63.88053295 -19.30078125 62.98828125 C-19.28917969 63.68695313 -19.27757812 64.385625 -19.265625 65.10546875 C-19.25208984 66.47058594 -19.25208984 66.47058594 -19.23828125 67.86328125 C-19.22667969 68.76820313 -19.21507812 69.673125 -19.203125 70.60546875 C-19.30078125 72.98828125 -19.30078125 72.98828125 -20.30078125 74.98828125 C-23.60078125 74.98828125 -26.90078125 74.98828125 -30.30078125 74.98828125 C-30.59056229 69.83310746 -30.87514445 64.67767996 -31.15527344 59.52197266 C-31.25091098 57.77450144 -31.34787657 56.0271023 -31.44628906 54.27978516 C-33.29982677 21.31329311 -33.29982677 21.31329311 -28.30078125 14.98828125 C-26.38557446 12.99978848 -24.59184771 11.58206661 -22.30078125 9.98828125 C-21.64078125 9.98828125 -20.98078125 9.98828125 -20.30078125 9.98828125 C-20.07390625 9.08078125 -19.84703125 8.17328125 -19.61328125 7.23828125 C-18.09977161 3.4905431 -16.63819996 2.18609357 -13.30078125 -0.01171875 C-8.64511047 -1.56360901 -4.5169074 -1.98621225 0 0 Z M-8.30078125 47.98828125 C-7.83517472 52.73746787 -7.13145467 56.0961053 -4.30078125 59.98828125 C-3.97078125 59.98828125 -3.64078125 59.98828125 -3.30078125 59.98828125 C-3.30078125 56.02828125 -3.30078125 52.06828125 -3.30078125 47.98828125 C-4.95078125 47.98828125 -6.60078125 47.98828125 -8.30078125 47.98828125 Z " fill="#DADADA" transform="translate(184.30078125,117.01171875)"/>
<path d="M0 0 C2.70363259 4.48309353 2.34831455 8.48168039 2.21484375 13.61328125 C2.21355469 14.55880859 2.21226563 15.50433594 2.2109375 16.47851562 C2.15428067 20.93237201 2.10289166 24.12233325 -0.16015625 28.05078125 C0.49984375 29.04078125 1.15984375 30.03078125 1.83984375 31.05078125 C2.06689453 33.3190918 2.06689453 33.3190918 2.03515625 35.9375 C2.02871094 36.87529297 2.02226563 37.81308594 2.015625 38.77929688 C1.99886719 39.75576172 1.98210938 40.73222656 1.96484375 41.73828125 C1.95582031 42.72634766 1.94679687 43.71441406 1.9375 44.73242188 C1.91392805 47.1721189 1.88102397 49.61132822 1.83984375 52.05078125 C3.15984375 52.05078125 4.47984375 52.05078125 5.83984375 52.05078125 C5.83984375 37.53078125 5.83984375 23.01078125 5.83984375 8.05078125 C6.49984375 7.72078125 7.15984375 7.39078125 7.83984375 7.05078125 C8.14277344 7.57027344 8.44570312 8.08976563 8.7578125 8.625 C10.80937862 12.04006853 12.75329549 15.16754391 15.65234375 17.92578125 C16.37421875 18.62703125 17.09609375 19.32828125 17.83984375 20.05078125 C17.83984375 20.71078125 17.83984375 21.37078125 17.83984375 22.05078125 C18.76796875 22.14359375 18.76796875 22.14359375 19.71484375 22.23828125 C21.83984375 23.05078125 21.83984375 23.05078125 23.08984375 25.30078125 C23.83437864 28.03074253 24.00058485 30.23781209 23.83984375 33.05078125 C22.51984375 33.05078125 21.19984375 33.05078125 19.83984375 33.05078125 C19.85144531 33.69402344 19.86304688 34.33726562 19.875 35 C20.05868032 53.39427155 20.05868032 53.39427155 17.83984375 60.05078125 C14.53984375 60.05078125 11.23984375 60.05078125 7.83984375 60.05078125 C7.83984375 58.07078125 7.83984375 56.09078125 7.83984375 54.05078125 C6.06809556 54.13801503 4.29736998 54.2461978 2.52734375 54.36328125 C1.54121094 54.42128906 0.55507813 54.47929687 -0.4609375 54.5390625 C-3.45870492 55.1073802 -4.21276675 55.8157773 -6.16015625 58.05078125 C-6.82015625 58.05078125 -7.48015625 58.05078125 -8.16015625 58.05078125 C-8.16015625 58.71078125 -8.16015625 59.37078125 -8.16015625 60.05078125 C-11.72222347 60.19645532 -15.28352176 60.28497321 -18.84765625 60.36328125 C-19.85505859 60.40517578 -20.86246094 60.44707031 -21.90039062 60.49023438 C-29.39541907 60.61391471 -29.39541907 60.61391471 -33.2421875 57.78125 C-36.04100546 53.79678206 -37.39548584 51.07915042 -37.54248047 46.17797852 C-37.57526093 45.21340225 -37.60804138 44.24882599 -37.64181519 43.25502014 C-37.66591461 42.21953537 -37.69001404 41.1840506 -37.71484375 40.1171875 C-37.74369659 39.04709946 -37.77254944 37.97701141 -37.80227661 36.87449646 C-37.85930501 34.6126619 -37.91108563 32.35068982 -37.95800781 30.08862305 C-38.03480535 26.62908837 -38.14363248 23.17149929 -38.25390625 19.71289062 C-38.30535628 17.51436816 -38.35489904 15.31580005 -38.40234375 13.1171875 C-38.43858856 12.08372696 -38.47483337 11.05026642 -38.51217651 9.98548889 C-38.61494517 2.81388619 -38.61494517 2.81388619 -36.33251953 -1.01586914 C-27.48579366 -8.88923644 -8.80287495 -7.94328137 0 0 Z M-26.16015625 8.05078125 C-26.16015625 12.67078125 -26.16015625 17.29078125 -26.16015625 22.05078125 C-20.88015625 22.05078125 -15.60015625 22.05078125 -10.16015625 22.05078125 C-10.16015625 16.77078125 -10.16015625 11.49078125 -10.16015625 6.05078125 C-12.05765625 6.00953125 -13.95515625 5.96828125 -15.91015625 5.92578125 C-16.9775 5.90257812 -18.04484375 5.879375 -19.14453125 5.85546875 C-22.45346915 5.87371232 -22.45346915 5.87371232 -26.16015625 8.05078125 Z M-26.16015625 33.05078125 C-26.16015625 38.33078125 -26.16015625 43.61078125 -26.16015625 49.05078125 C-20.88015625 49.05078125 -15.60015625 49.05078125 -10.16015625 49.05078125 C-10.16015625 43.77078125 -10.16015625 38.49078125 -10.16015625 33.05078125 C-15.44015625 33.05078125 -20.72015625 33.05078125 -26.16015625 33.05078125 Z " fill="#FDFDFD" transform="translate(56.16015625,131.94921875)"/>
<path d="M0 0 C1.33973877 0.01111816 1.33973877 0.01111816 2.70654297 0.02246094 C7.7270628 0.21651747 11.30415723 0.60949807 15.25 4 C22.48747167 12.10319795 21.28650089 22.8010352 21.00390625 33.0078125 C20.96848976 34.55140945 20.96848976 34.55140945 20.93235779 36.12619019 C20.85648746 39.37596138 20.77213886 42.62544658 20.6875 45.875 C20.63420237 48.09373654 20.58146267 50.31248656 20.52929688 52.53125 C20.40097757 57.93767713 20.26506025 63.34386481 20.125 68.75 C16.165 68.75 12.205 68.75 8.125 68.75 C8.125 59.51 8.125 50.27 8.125 40.75 C2.845 40.75 -2.435 40.75 -7.875 40.75 C-7.875 49.99 -7.875 59.23 -7.875 68.75 C-11.175 68.75 -14.475 68.75 -17.875 68.75 C-19.57517919 67.04982081 -19.10507271 64.8423449 -19.19140625 62.51171875 C-19.23370361 61.3942627 -19.27600098 60.27680664 -19.31958008 59.12548828 C-19.50460869 53.33865154 -19.68278428 47.55202536 -19.82495117 41.76397705 C-19.87454782 39.76819585 -19.92846501 37.77252355 -19.98242188 35.77685547 C-20.07554936 31.97620863 -20.13690157 28.17642764 -20.1875 24.375 C-20.217229 23.20026123 -20.24695801 22.02552246 -20.27758789 20.81518555 C-20.32060659 14.62275639 -20.30057629 10.49116464 -15.875 5.75 C-15.00617188 4.81671875 -14.13734375 3.8834375 -13.2421875 2.921875 C-9.22509334 -0.22018358 -4.92599676 -0.08563782 0 0 Z M-7.875 13.75 C-7.875 19.03 -7.875 24.31 -7.875 29.75 C-2.595 29.75 2.685 29.75 8.125 29.75 C8.125 24.47 8.125 19.19 8.125 13.75 C2.845 13.75 -2.435 13.75 -7.875 13.75 Z " fill="#F8F8F8" transform="translate(130.875,-0.75)"/>
<path d="M0 0 C1.31484375 -0.01740234 1.31484375 -0.01740234 2.65625 -0.03515625 C7.83137853 -0.01177465 11.56437758 0.42479532 16 3.375 C19.52643193 8.23575753 20.72713981 12.3720758 21 18.375 C21.07476562 19.25671875 21.14953125 20.1384375 21.2265625 21.046875 C21.52982075 26.82474267 21.08530259 30.9836912 17.59765625 35.71484375 C13.88819439 39.56941903 10.28359537 41.17273032 4.95703125 41.64453125 C0.37851176 41.7058756 -3.54181509 41.48954623 -8 40.375 C-8 49.285 -8 58.195 -8 67.375 C-12.23641013 68.22228203 -15.72412002 68.45884078 -20 68.375 C-20.02578125 67.73175781 -20.0515625 67.08851562 -20.078125 66.42578125 C-20.42602956 60.88302902 -21.30304247 56.0283726 -23.0625 50.75 C-25.15623679 44.37775761 -26.1768885 38.9056655 -24 32.375 C-23.01 32.375 -22.02 32.375 -21 32.375 C-20.9906543 31.70968262 -20.98130859 31.04436523 -20.97167969 30.35888672 C-20.91773981 27.32185981 -20.83413938 24.28633421 -20.75 21.25 C-20.73582031 20.20328125 -20.72164063 19.1565625 -20.70703125 18.078125 C-20.51841258 12.11777517 -20.30314437 7.8947456 -16 3.375 C-10.9155706 -0.21133859 -5.99150761 -0.07929937 0 0 Z M-8 13.375 C-8 17.005 -8 20.635 -8 24.375 C-5.4321875 24.808125 -5.4321875 24.808125 -2.8125 25.25 C1.19973108 25.92676187 4.13543376 26.8291735 8 28.375 C8 23.425 8 18.475 8 13.375 C2.72 13.375 -2.56 13.375 -8 13.375 Z " fill="#F6F6F6" transform="translate(86,-0.375)"/>
<path d="M0 0 C1.24716797 0.00644531 2.49433594 0.01289062 3.77929688 0.01953125 C5.07287109 0.03628906 6.36644531 0.05304688 7.69921875 0.0703125 C9.01212891 0.07933594 10.32503906 0.08835938 11.67773438 0.09765625 C14.91414062 0.12119375 18.15045294 0.15706379 21.38671875 0.1953125 C21.38671875 4.4853125 21.38671875 8.7753125 21.38671875 13.1953125 C12.47671875 13.1953125 3.56671875 13.1953125 -5.61328125 13.1953125 C-5.61328125 18.4753125 -5.61328125 23.7553125 -5.61328125 29.1953125 C0.32671875 29.1953125 6.26671875 29.1953125 12.38671875 29.1953125 C12.38671875 32.8253125 12.38671875 36.4553125 12.38671875 40.1953125 C6.44671875 40.1953125 0.50671875 40.1953125 -5.61328125 40.1953125 C-5.61328125 45.4753125 -5.61328125 50.7553125 -5.61328125 56.1953125 C3.29671875 56.1953125 12.20671875 56.1953125 21.38671875 56.1953125 C21.38671875 60.4853125 21.38671875 64.7753125 21.38671875 69.1953125 C16.88606802 69.30361693 12.38804518 69.38279408 7.88671875 69.4453125 C6.61828125 69.47882813 5.34984375 69.51234375 4.04296875 69.546875 C-3.31007897 69.62346925 -8.46439151 69.40166113 -14.61328125 65.1953125 C-18.44271905 58.40114867 -18.77736273 51.80245525 -18.81640625 44.203125 C-18.82495636 42.90687698 -18.82495636 42.90687698 -18.8336792 41.58444214 C-18.84310149 39.76057143 -18.84965213 37.93668392 -18.85351562 36.11279297 C-18.86322426 33.33660963 -18.89427484 30.56116621 -18.92578125 27.78515625 C-18.93231198 26.00781687 -18.93756218 24.23047222 -18.94140625 22.453125 C-18.95375305 21.6299881 -18.96609985 20.8068512 -18.9788208 19.95877075 C-18.95462101 13.63555949 -17.82007555 8.91702547 -13.73828125 3.8828125 C-9.38490251 0.42571762 -5.46544904 -0.04991278 0 0 Z " fill="#FFFFFF" transform="translate(218.61328125,-0.1953125)"/>
<path d="M0 0 C3.06943514 1.97808042 5.41438298 4.06171872 7.8125 6.8125 C7.8125 7.4725 7.8125 8.1325 7.8125 8.8125 C0.8825 8.8125 -6.0475 8.8125 -13.1875 8.8125 C-9.1875 3.8125 -9.1875 3.8125 -5.9375 3 C-5.03 2.938125 -4.1225 2.87625 -3.1875 2.8125 C-7.66883574 2.08993171 -7.66883574 2.08993171 -12.1875 1.8125 C-12.8475 4.1225 -13.5075 6.4325 -14.1875 8.8125 C-16.1675 8.8125 -18.1475 8.8125 -20.1875 8.8125 C-20.5175 12.4425 -20.8475 16.0725 -21.1875 19.8125 C-23.1875 16.8125 -23.1875 16.8125 -23.1875 14.8125 C-24.0125 14.915625 -24.8375 15.01875 -25.6875 15.125 C-29.31780699 14.80086545 -29.9801642 14.42150288 -32.75 12.375 C-39.65612546 7.70476573 -49.28430891 8.17528948 -57.3125 9.296875 C-60.25553892 10.1062107 -62.09285036 11.65239256 -64.1875 13.8125 C-65.40313342 16.24376684 -65.28562878 17.72823634 -65.2409668 20.44238281 C-65.22050545 21.88463226 -65.22050545 21.88463226 -65.19963074 23.35601807 C-65.17886978 24.39868835 -65.15810883 25.44135864 -65.13671875 26.515625 C-65.1178511 27.58617126 -65.09898346 28.65671753 -65.07954407 29.75970459 C-65.03760431 32.02947089 -64.99286129 34.29918683 -64.94555664 36.56884766 C-64.87557399 40.03407834 -64.82110251 43.49932479 -64.76757812 46.96484375 C-64.72491059 49.16928947 -64.68132059 51.37371757 -64.63671875 53.578125 C-64.62203049 54.61269836 -64.60734222 55.64727173 -64.59220886 56.7131958 C-64.47241487 63.9837661 -64.47241487 63.9837661 -62.1875 70.8125 C-59.29122303 72.9835291 -56.5353955 73.10268969 -52.984375 73.2265625 C-52.0046875 73.26523438 -51.025 73.30390625 -50.015625 73.34375 C-48.99984375 73.3746875 -47.9840625 73.405625 -46.9375 73.4375 C-45.90625 73.47617188 -44.875 73.51484375 -43.8125 73.5546875 C-41.2710106 73.64881674 -38.72952567 73.73444979 -36.1875 73.8125 C-36.1875 73.1525 -36.1875 72.4925 -36.1875 71.8125 C-33.82491417 69.04257179 -32.05429179 67.89284868 -28.40625 67.5546875 C-25.65633625 67.56177491 -22.93168377 67.63948666 -20.1875 67.8125 C-20.1875 69.7925 -20.1875 71.7725 -20.1875 73.8125 C-16.8875 73.8125 -13.5875 73.8125 -10.1875 73.8125 C-10.15011719 72.71550781 -10.11273438 71.61851562 -10.07421875 70.48828125 C-10.00853347 69.03382143 -9.94208701 67.57939584 -9.875 66.125 C-9.85244141 65.40376953 -9.82988281 64.68253906 -9.80664062 63.93945312 C-9.57753451 59.37815875 -8.82744673 56.66242232 -6.1875 52.8125 C-5.47348768 49.61854974 -5.47348768 49.61854974 -5.1875 46.8125 C-1.2275 46.8125 2.7325 46.8125 6.8125 46.8125 C7.89313943 57.97910746 7.89313943 57.97910746 4.984375 62.9140625 C2.69390455 65.66717765 0.30434546 68.24142257 -2.1875 70.8125 C-3.36119141 72.36517578 -3.36119141 72.36517578 -4.55859375 73.94921875 C-9.91816776 79.78661511 -18.36651854 81.43329414 -26.06787109 82.0390625 C-50.6185767 82.98620433 -50.6185767 82.98620433 -54.8125 79.4375 C-55.26625 78.90125 -55.72 78.365 -56.1875 77.8125 C-56.93 77.420625 -57.6725 77.02875 -58.4375 76.625 C-65.43219405 72.01486074 -69.36778871 65.54059761 -72.1875 57.8125 C-72.63609375 56.760625 -72.63609375 56.760625 -73.09375 55.6875 C-76.89779131 45.54338984 -77.01341068 31.13547168 -73.234375 20.95703125 C-69.50492744 13.3172301 -66.06496976 8.51024559 -57.83203125 5.64453125 C-50.28831693 3.63748799 -43.26332013 2.4462814 -35.4375 2.4375 C-34.29438354 2.43520386 -34.29438354 2.43520386 -33.12817383 2.43286133 C-29.39084073 2.50795198 -26.29342561 2.60070449 -23.1875 4.8125 C-22.6925 5.8025 -22.6925 5.8025 -22.1875 6.8125 C-21.72859375 6.40257813 -21.2696875 5.99265625 -20.796875 5.5703125 C-20.18328125 5.03148438 -19.5696875 4.49265625 -18.9375 3.9375 C-18.33421875 3.40382813 -17.7309375 2.87015625 -17.109375 2.3203125 C-11.74502191 -1.88830598 -6.31533531 -2.35277198 0 0 Z " fill="#777777" transform="translate(84.1875,118.1875)"/>
<path d="M0 0 C1.2478125 0.01869141 2.495625 0.03738281 3.78125 0.05664062 C12.92848023 0.24098023 12.92848023 0.24098023 14.125 1.4375 C14.125 4.7375 14.125 8.0375 14.125 11.4375 C4.885 11.4375 -4.355 11.4375 -13.875 11.4375 C-13.875 17.0475 -13.875 22.6575 -13.875 28.4375 C-7.605 28.4375 -1.335 28.4375 5.125 28.4375 C5.125 32.0675 5.125 35.6975 5.125 39.4375 C-0.815 39.4375 -6.755 39.4375 -12.875 39.4375 C-12.875 44.7175 -12.875 49.9975 -12.875 55.4375 C-11.39 54.9425 -11.39 54.9425 -9.875 54.4375 C-7.68915251 54.34282635 -5.50039133 54.30761086 -3.3125 54.3125 C-2.15621094 54.30992187 -0.99992187 54.30734375 0.19140625 54.3046875 C3.125 54.4375 3.125 54.4375 5.125 55.4375 C6.66168865 55.66217831 8.20468054 55.84546805 9.75 56 C11.19375 56.144375 12.6375 56.28875 14.125 56.4375 C14.125 59.7375 14.125 63.0375 14.125 66.4375 C8.51129474 68.80017056 3.23760746 68.80448446 -2.75 68.8125 C-3.70519531 68.83699219 -4.66039062 68.86148438 -5.64453125 68.88671875 C-11.87682064 68.91236603 -16.74801403 68.16209499 -21.875 64.4375 C-23.49609375 62.47265625 -23.49609375 62.47265625 -24.3125 60.5 C-24.59996094 59.85160156 -24.88742188 59.20320313 -25.18359375 58.53515625 C-27.47616964 51.57971415 -27.05889882 44.49197036 -27.0625 37.25 C-27.07474609 35.97318359 -27.08699219 34.69636719 -27.09960938 33.38085938 C-27.12969474 13.87551536 -27.12969474 13.87551536 -20.875 6.4375 C-20.45613525 5.92082764 -20.03727051 5.40415527 -19.60571289 4.87182617 C-13.96699032 -1.03162515 -7.72260681 -0.28858162 0 0 Z " fill="#F7F7F7" transform="translate(132.875,125.5625)"/>
<path d="M0 0 C2.91786964 0.28218081 5.833918 0.57534127 8.75 0.875 C9.575 0.95363281 10.4 1.03226562 11.25 1.11328125 C12.04921875 1.19707031 12.8484375 1.28085938 13.671875 1.3671875 C14.4050293 1.44050293 15.13818359 1.51381836 15.89355469 1.58935547 C18 2 18 2 22 4 C22 9.94 22 15.88 22 22 C19.03 22.33 16.06 22.66 13 23 C13 25.97 13 28.94 13 32 C10.03 32 7.06 32 4 32 C4 34.31 4 36.62 4 39 C6.97 39 9.94 39 13 39 C13 41.97 13 44.94 13 48 C15.97 48.33 18.94 48.66 22 49 C22.05423638 50.91635217 22.09289963 52.83314925 22.125 54.75 C22.14820313 55.81734375 22.17140625 56.8846875 22.1953125 57.984375 C22.00203782 60.9685361 21.63582571 62.53505715 20 65 C16.60584987 67.50095273 15.32590054 68 11 68 C10.8045375 65.75067773 10.61891774 63.50049858 10.4375 61.25 C10.33308594 59.99703125 10.22867188 58.7440625 10.12109375 57.453125 C10 54 10 54 11 50 C8.03 50 5.06 50 2 50 C2 47.03 2 44.06 2 41 C-0.31 41 -2.62 41 -5 41 C-4.99476318 41.60473145 -4.98952637 42.20946289 -4.98413086 42.83251953 C-4.96322642 45.59666894 -4.95029721 48.36080165 -4.9375 51.125 C-4.92912109 52.07632813 -4.92074219 53.02765625 -4.91210938 54.0078125 C-4.89550392 58.79018487 -4.99462945 63.29771569 -6 68 C-9.3 68 -12.6 68 -16 68 C-16 65.69 -16 63.38 -16 61 C-16.66 61 -17.32 61 -18 61 C-18.05077576 53.70429461 -18.08576551 46.40863492 -18.10986328 39.11279297 C-18.119911 36.63165585 -18.13355144 34.15053055 -18.15087891 31.66943359 C-18.17518086 28.09990521 -18.18649558 24.53053362 -18.1953125 20.9609375 C-18.20563507 19.85446869 -18.21595764 18.74799988 -18.22659302 17.60800171 C-18.2273567 12.34718992 -18.1532238 7.9099463 -16 3 C-12.7 3 -9.4 3 -6 3 C-5.855625 4.134375 -5.71125 5.26875 -5.5625 6.4375 C-5.38828522 9.80777201 -5.38828522 9.80777201 -4 11 C-3.91348389 12.41570123 -3.89295096 13.835595 -3.90234375 15.25390625 C-3.90556641 16.10791016 -3.90878906 16.96191406 -3.91210938 17.84179688 C-3.92048828 18.73962891 -3.92886719 19.63746094 -3.9375 20.5625 C-3.94201172 21.46419922 -3.94652344 22.36589844 -3.95117188 23.29492188 C-3.96299775 25.53001314 -3.9794778 27.76497437 -4 30 C-2.02 30 -0.04 30 2 30 C2 27.03 2 24.06 2 21 C4.64 21 7.28 21 10 21 C10.05932589 17.66456638 10.03994686 14.33556244 10 11 C10.020625 9.88625 10.04125 8.7725 10.0625 7.625 C8.72152088 4.31199275 7.62734072 4.0649281 4.4375 2.625 C2.96685625 2.06060318 1.48981459 1.51165349 0 1 C0 0.67 0 0.34 0 0 Z " fill="#FEFEFE" transform="translate(215,124)"/>
<path d="M0 0 C0 10.56 0 21.12 0 32 C3.3 32 6.6 32 10 32 C10.495 38.435 10.495 38.435 11 45 C7.37 45 3.74 45 0 45 C0 50.94 0 56.88 0 63 C-4.29 63 -8.58 63 -13 63 C-13 56.73 -13 50.46 -13 44 C-19.93 44 -26.86 44 -34 44 C-36.67528571 22.59771429 -36.67528571 22.59771429 -32.41015625 16.58984375 C-28.59248342 12.28570846 -24.80263116 8.20175411 -20 5 C-16.8125 4.875 -16.8125 4.875 -14 5 C-13.67 4.01 -13.34 3.02 -13 2 C-8.43246662 -0.62979194 -5.747722 0 0 0 Z M-17.625 18.4375 C-20.82060585 22.34532299 -20.48279288 26.17207121 -20 31 C-17.69 31 -15.38 31 -13 31 C-13 26.05 -13 21.1 -13 16 C-15.35276591 15.77318297 -15.35276591 15.77318297 -17.625 18.4375 Z " fill="#DA1700" transform="translate(161,192)"/>
<path d="M0 0 C1.24716797 0.00644531 2.49433594 0.01289062 3.77929688 0.01953125 C5.07287109 0.03628906 6.36644531 0.05304688 7.69921875 0.0703125 C9.01212891 0.07933594 10.32503906 0.08835938 11.67773438 0.09765625 C14.91414062 0.12119375 18.15045294 0.15706379 21.38671875 0.1953125 C21.38671875 4.4853125 21.38671875 8.7753125 21.38671875 13.1953125 C12.47671875 13.1953125 3.56671875 13.1953125 -5.61328125 13.1953125 C-5.61328125 27.3853125 -5.61328125 41.5753125 -5.61328125 56.1953125 C3.29671875 56.1953125 12.20671875 56.1953125 21.38671875 56.1953125 C21.38671875 60.1553125 21.38671875 64.1153125 21.38671875 68.1953125 C18.67764101 70.90439024 10.95913056 69.57816634 7.32421875 69.6328125 C6.10798828 69.67857422 4.89175781 69.72433594 3.63867188 69.77148438 C-3.2538873 69.85750112 -7.76356232 69.49341342 -13.06030273 64.88305664 C-13.57278564 64.32610107 -14.08526855 63.76914551 -14.61328125 63.1953125 C-15.16467773 62.6696167 -15.71607422 62.1439209 -16.28417969 61.60229492 C-18.41651474 57.74066904 -18.13531156 53.80419421 -18.1953125 49.4609375 C-18.21800705 48.5089447 -18.2407016 47.5569519 -18.26408386 46.57611084 C-18.30864637 44.5622769 -18.34601223 42.5482727 -18.37670898 40.53417969 C-18.42538945 37.46997457 -18.5009503 34.40730321 -18.58007812 31.34375 C-18.62010457 29.3828448 -18.65856628 27.42190691 -18.6953125 25.4609375 C-18.71809769 24.55232971 -18.74088287 23.64372192 -18.76435852 22.70758057 C-18.84569467 15.98124095 -18.67312579 9.75620031 -14.30078125 4.3203125 C-9.63098765 0.62791756 -5.89890008 -0.05387123 0 0 Z " fill="#FFFFFF" transform="translate(173.61328125,-0.1953125)"/>
<path d="M0 0 C4.29 0 8.58 0 13 0 C13 20.79 13 41.58 13 63 C8.71 63 4.42 63 0 63 C0 49.8 0 36.6 0 23 C-3.3 23 -6.6 23 -10 23 C-10 18.71 -10 14.42 -10 10 C-6.7 10 -3.4 10 0 10 C0 6.7 0 3.4 0 0 Z " fill="#DE1800" transform="translate(97,192)"/>
<path d="M0 0 C3.34455166 1.02194634 4.81190142 1.7589987 7 4.5625 C9.02377039 7.55392702 9.02377039 7.55392702 14 8 C14 13.28 14 18.56 14 24 C12.02 24.99 12.02 24.99 10 26 C7.54459545 32.53495691 9.50815837 38.65495426 11.9921875 44.84765625 C12.81986465 46.93337453 12.81986465 46.93337453 14 48 C14.07271741 50.35313555 14.08370868 52.70833668 14.0625 55.0625 C14.05347656 56.35285156 14.04445312 57.64320313 14.03515625 58.97265625 C14.02355469 59.97167969 14.01195312 60.97070312 14 62 C9.8928306 61.46511282 7.82167386 59.27954908 4.875 56.5 C1.69217817 53.38621216 1.69217817 53.38621216 -2 51 C-2.33 51.66 -2.66 52.32 -3 53 C-7.05883746 46.64703702 -7.24439882 41.14755409 -7.4296875 33.75585938 C-7.58232723 29.58131179 -7.58232723 29.58131179 -9.5390625 26.00390625 C-10.02117187 25.67261719 -10.50328125 25.34132812 -11 25 C-11.66 25.66 -12.32 26.32 -13 27 C-13 23.7 -13 20.4 -13 17 C-11.2421875 18.52994792 -9.484375 20.05989583 -7.7265625 21.58984375 C-6.04367666 23.06958624 -6.04367666 23.06958624 -4 24 C-3.67 18.72 -3.34 13.44 -3 8 C-1.02 7.67 0.96 7.34 3 7 C1.68 6.01 0.36 5.02 -1 4 C-0.67 2.68 -0.34 1.36 0 0 Z " fill="#C7C7C7" transform="translate(167,129)"/>
<path d="M0 0 C0.66 0.99 1.32 1.98 2 3 C2.66 3 3.32 3 4 3 C4 2.34 4 1.68 4 1 C10.25286277 -0.85491623 17.15739191 -0.72357297 23.4375 0.875 C27.37262049 4.13827065 29.00738813 8.37174214 31 13 C31.495 13.99 31.495 13.99 32 15 C28.59336868 17.07182145 25.95164035 17.24183505 22 17.1875 C20.453125 17.17783203 20.453125 17.17783203 18.875 17.16796875 C16 17 16 17 12 16 C12 24.91 12 33.82 12 43 C7.76358987 43.84728203 4.27587998 44.08384078 0 44 C-0.03867188 43.03513672 -0.03867188 43.03513672 -0.078125 42.05078125 C-0.42602956 36.50802902 -1.30304247 31.6533726 -3.0625 26.375 C-5.15623679 20.00275761 -6.1768885 14.5306655 -4 8 C-3.01 8 -2.02 8 -1 8 C-0.67 5.36 -0.34 2.72 0 0 Z " fill="#BFBFBF" transform="translate(66,24)"/>
<path d="M0 0 C0.66 1.32 1.32 2.64 2 4 C-5.26 4.99 -12.52 5.98 -20 7 C-20 7.66 -20 8.32 -20 9 C-22.9826906 10.52448631 -25.818202 11.93940067 -29 13 C-32.27005888 17.79216247 -31.36866835 23.81580897 -31.375 29.375 C-31.39949219 30.4990625 -31.42398437 31.623125 -31.44921875 32.78125 C-31.47189273 39.17531151 -31.35511502 43.17769991 -27 48 C-19.56566675 55.26537113 -12.07255355 56.46304402 -2 57 C-2.66 57.99 -3.32 58.98 -4 60 C-4.66 60 -5.32 60 -6 60 C-6 60.66 -6 61.32 -6 62 C-9.56206722 62.14567407 -13.12336551 62.23419196 -16.6875 62.3125 C-17.69490234 62.35439453 -18.70230469 62.39628906 -19.74023438 62.43945312 C-27.23526282 62.56313346 -27.23526282 62.56313346 -31.08203125 59.73046875 C-33.88084921 55.74600081 -35.23532959 53.02836917 -35.38232422 48.12719727 C-35.41510468 47.162621 -35.44788513 46.19804474 -35.48165894 45.20423889 C-35.50575836 44.16875412 -35.52985779 43.13326935 -35.5546875 42.06640625 C-35.58354034 40.99631821 -35.61239319 39.92623016 -35.64212036 38.82371521 C-35.69914876 36.56188065 -35.75092938 34.29990857 -35.79785156 32.0378418 C-35.8746491 28.57830712 -35.98347623 25.12071804 -36.09375 21.66210938 C-36.14520003 19.46358691 -36.19474279 17.2650188 -36.2421875 15.06640625 C-36.27843231 14.03294571 -36.31467712 12.99948517 -36.35202026 11.93470764 C-36.45478892 4.76310494 -36.45478892 4.76310494 -34.17236328 0.93334961 C-25.79419718 -6.52301107 -9.40763453 -5.64458072 0 0 Z " fill="#C8C8C8" transform="translate(54,130)"/>
<path d="M0 0 C1.2478125 0.01869141 2.495625 0.03738281 3.78125 0.05664062 C12.92848023 0.24098023 12.92848023 0.24098023 14.125 1.4375 C14.125 4.7375 14.125 8.0375 14.125 11.4375 C4.885 11.4375 -4.355 11.4375 -13.875 11.4375 C-13.875 17.0475 -13.875 22.6575 -13.875 28.4375 C-7.605 28.4375 -1.335 28.4375 5.125 28.4375 C5.125 32.0675 5.125 35.6975 5.125 39.4375 C-0.155 39.4375 -5.435 39.4375 -10.875 39.4375 C-13.53727851 34.81476368 -16.16427694 30.17549864 -18.73730469 25.50244141 C-19.72530364 23.70920211 -20.72490898 21.9223669 -21.7265625 20.13671875 C-23.05766326 17.56349456 -24.18049394 15.24952105 -24.875 12.4375 C-23.625 9.125 -23.625 9.125 -20.875 6.4375 C-20.44203613 5.9228418 -20.00907227 5.40818359 -19.56298828 4.87792969 C-13.96452376 -1.05201082 -7.70448608 -0.28790448 0 0 Z " fill="#C4C4C4" transform="translate(132.875,125.5625)"/>
<path d="M0 0 C0.33 0.66 0.66 1.32 1 2 C-0.093125 2.103125 -1.18625 2.20625 -2.3125 2.3125 C-6.05975155 3.01114012 -6.65962741 3.31397238 -9 6 C-8.10861328 5.94501343 -8.10861328 5.94501343 -7.19921875 5.88891602 C12.13793486 4.84950642 12.13793486 4.84950642 17.375 8.6875 C20.26222525 12.09401036 20.42979792 15.05157776 20.3125 19.4375 C19.4995221 25.12178901 17.87618693 29.70117587 14 34 C11.04335481 35.4783226 8.25770263 35.06032783 5 35 C5 34.67 5 34.34 5 34 C6.65 34 8.3 34 10 34 C10 28.39 10 22.78 10 17 C4.72 17 -0.56 17 -6 17 C-6 19.64 -6 22.28 -6 25 C-6.22428986 27.3710642 -6.60795316 29.64771895 -7 32 C-11.98199181 28.17953999 -15.45689369 24.79828239 -18 19 C-18.36237506 14.79644934 -17.99181456 11.09123507 -17 7 C-15.02 7 -13.04 7 -11 7 C-10.896875 6.236875 -10.79375 5.47375 -10.6875 4.6875 C-9.06139553 -1.66909019 -5.98005289 -1.43964236 0 0 Z " fill="#DEDEDE" transform="translate(81,120)"/>
<path d="M0 0 C0.63035156 0.86431641 0.63035156 0.86431641 1.2734375 1.74609375 C3.51879405 4.67724925 5.99308795 7.36793001 8.4765625 10.09765625 C10 12 10 12 11 15 C11.639375 15.12375 12.27875 15.2475 12.9375 15.375 C15 16 15 16 16.25 18.25 C16.99453489 20.97996128 17.1607411 23.18703084 17 26 C15.68 26 14.36 26 13 26 C13.01160156 26.64324219 13.02320312 27.28648437 13.03515625 27.94921875 C13.21883657 46.3434903 13.21883657 46.3434903 11 53 C7.7 53 4.4 53 1 53 C-0.84026688 46.74163389 -1.28137267 41.13237215 -1.23046875 34.62890625 C-1.23001053 33.66597153 -1.22955231 32.7030368 -1.2290802 31.71092224 C-1.2260765 29.6914648 -1.2182472 27.67200927 -1.20581055 25.65258789 C-1.18741175 22.54760642 -1.1853021 19.44292124 -1.18554688 16.33789062 C-1.18063636 14.37239323 -1.17481008 12.40689787 -1.16796875 10.44140625 C-1.16685593 9.50921768 -1.1657431 8.57702911 -1.16459656 7.61659241 C-1.15821671 6.76157639 -1.15183685 5.90656036 -1.14526367 5.02563477 C-1.14145187 4.27032974 -1.13764008 3.51502472 -1.13371277 2.73683167 C-1 1 -1 1 0 0 Z " fill="#FDFDFD" transform="translate(63,139)"/>
<path d="M0 0 C0.66 0 1.32 0 2 0 C2.02542717 6.70775541 2.04289929 13.4154983 2.05493164 20.12329102 C2.05994964 22.40356918 2.0667655 24.68384414 2.07543945 26.96411133 C2.08761607 30.24821769 2.09325375 33.53228137 2.09765625 36.81640625 C2.10281754 37.83021866 2.10797882 38.84403107 2.11329651 39.88856506 C2.11370151 45.03859721 1.89476014 49.92556445 1 55 C-2.63 55 -6.26 55 -10 55 C-10 46.09 -10 37.18 -10 28 C-11.98 28 -13.96 28 -16 28 C-15.93999894 26.3739713 -15.8512115 24.74898451 -15.75 23.125 C-15.70359375 22.22007812 -15.6571875 21.31515625 -15.609375 20.3828125 C-15 18 -15 18 -13.015625 16.8046875 C-12.35046875 16.53914063 -11.6853125 16.27359375 -11 16 C-10.67 15.34 -10.34 14.68 -10 14 C-9.34 14 -8.68 14 -8 14 C-7.731875 13.44828125 -7.46375 12.8965625 -7.1875 12.328125 C-5.87203416 9.74911961 -4.46150838 7.24917932 -3 4.75 C-2.484375 3.85796875 -1.96875 2.9659375 -1.4375 2.046875 C-0.963125 1.37140625 -0.48875 0.6959375 0 0 Z " fill="#FDFDFD" transform="translate(191,137)"/>
<path d="M0 0 C0.33 0.66 0.66 1.32 1 2 C1.928125 2.0928125 1.928125 2.0928125 2.875 2.1875 C5 3 5 3 6.625 5.875 C10.84307865 17.19235855 12.00445058 29.39394758 7.125 40.5625 C5.57850352 43.91324238 4.04720192 46.92919711 2 50 C1.34 50 0.68 50 0 50 C0 47.36 0 44.72 0 42 C-2.97 41.67 -5.94 41.34 -9 41 C-7.02 40.505 -7.02 40.505 -5 40 C-5 31.75 -5 23.5 -5 15 C-3.35 15 -1.7 15 0 15 C0 10.05 0 5.1 0 0 Z " fill="#7B7B7B" transform="translate(237,131)"/>
<path d="M0 0 C3.06943514 1.97808042 5.41438298 4.06171872 7.8125 6.8125 C7.8125 7.4725 7.8125 8.1325 7.8125 8.8125 C0.8825 8.8125 -6.0475 8.8125 -13.1875 8.8125 C-9.1875 3.8125 -9.1875 3.8125 -5.9375 3 C-5.03 2.938125 -4.1225 2.87625 -3.1875 2.8125 C-7.66883574 2.08993171 -7.66883574 2.08993171 -12.1875 1.8125 C-12.8475 4.1225 -13.5075 6.4325 -14.1875 8.8125 C-16.1675 8.8125 -18.1475 8.8125 -20.1875 8.8125 C-20.5175 12.4425 -20.8475 16.0725 -21.1875 19.8125 C-23.1875 16.8125 -23.1875 16.8125 -23.1875 14.8125 C-24.0125 14.915625 -24.8375 15.01875 -25.6875 15.125 C-29.31780699 14.80086545 -29.9801642 14.42150288 -32.75 12.375 C-40.57761677 7.09173285 -51.24961566 8.50107228 -60.1875 9.8125 C-59.8575 8.8225 -59.5275 7.8325 -59.1875 6.8125 C-51.63130309 3.32053265 -43.77334198 2.44668719 -35.5625 2.4375 C-34.79301025 2.43596924 -34.02352051 2.43443848 -33.23071289 2.43286133 C-29.46450062 2.50742742 -26.31532122 2.57380562 -23.1875 4.8125 C-22.6925 5.8025 -22.6925 5.8025 -22.1875 6.8125 C-21.72859375 6.40257813 -21.2696875 5.99265625 -20.796875 5.5703125 C-20.18328125 5.03148438 -19.5696875 4.49265625 -18.9375 3.9375 C-18.33421875 3.40382813 -17.7309375 2.87015625 -17.109375 2.3203125 C-11.74502191 -1.88830598 -6.31533531 -2.35277198 0 0 Z " fill="#7F7F7F" transform="translate(84.1875,118.1875)"/>
<path d="M0 0 C0.66 0.66 1.32 1.32 2 2 C-3.15171623 2.09038099 -7.91913204 1.84681133 -13 1 C-8.545 2.98 -8.545 2.98 -4 5 C-3.67 8.3 -3.34 11.6 -3 15 C-6.62969718 14.31115236 -10.18365602 13.46387675 -13.75 12.5 C-14.71421875 12.2421875 -15.6784375 11.984375 -16.671875 11.71875 C-19 11 -19 11 -20 10 C-20.04092937 7.66702567 -20.04241723 5.33294775 -20 3 C-23.3 3 -26.6 3 -30 3 C-30.33 3.99 -30.66 4.98 -31 6 C-31 5.34 -31 4.68 -31 4 C-31.99 4 -32.98 4 -34 4 C-34.38133299 2.0085944 -34.71325582 0.00720923 -35 -2 C-28.12949099 -8.87050901 -7.41663833 -3.40966259 0 0 Z " fill="#7D7D7D" transform="translate(229,124)"/>
<path d="M0 0 C7.24942792 -0.60411899 7.24942792 -0.60411899 10.5625 2.0625 C12.46054428 5.94111222 12.17805879 7.87679425 11 12 C8.20009559 16.70383941 3.8759625 19.64712282 -1 22 C-1.99 22 -2.98 22 -4 22 C-4 19.03 -4 16.06 -4 13 C-7.3 13 -10.6 13 -14 13 C-14 11.68 -14 10.36 -14 9 C-12.21118264 7.99491199 -10.41885304 6.99607264 -8.625 6 C-7.62726563 5.443125 -6.62953125 4.88625 -5.6015625 4.3125 C-3 3 -3 3 -1 3 C-0.67 2.01 -0.34 1.02 0 0 Z " fill="#0C0000" transform="translate(175,211)"/>
<path d="M0 0 C0 2.66666667 0 5.33333333 0 8 C0.33 8.99 0.66 9.98 1 11 C1.0833804 13.13794525 1.10733747 15.27842009 1.09765625 17.41796875 C1.09443359 18.67158203 1.09121094 19.92519531 1.08789062 21.21679688 C1.07951172 22.52712891 1.07113281 23.83746094 1.0625 25.1875 C1.05748317 26.52278481 1.05292059 27.85807141 1.04882812 29.19335938 C1.03702704 32.4622588 1.01909136 35.73113502 1 39 C-5.435 39.495 -5.435 39.495 -12 40 C-12.39805561 33.43208248 -12.19309245 30.33666312 -8 25 C-6.52561604 20.57684813 -6.75400428 15.97150533 -6.74609375 11.3359375 C-6.60274519 7.02039149 -6.35614409 5.43566053 -3.515625 1.9609375 C-1 0 -1 0 0 0 Z " fill="#F3F3F3" transform="translate(102,153)"/>
<path d="M0 0 C0.33 0 0.66 0 1 0 C1 1.65 1 3.3 1 5 C1.66 5 2.32 5 3 5 C3.98838433 7.0372203 4.96532252 9.07999607 5.9375 11.125 C6.48277344 12.26195312 7.02804688 13.39890625 7.58984375 14.5703125 C8.9103119 17.78186661 9.58784221 20.56709079 10 24 C11.65 24 13.3 24 15 24 C15 24.33 15 24.66 15 25 C13.88625 25.12375 13.88625 25.12375 12.75 25.25 C9.92377032 25.77647907 9.92377032 25.77647907 8.1875 27.8125 C5.23528843 30.76471157 1.85108855 32.43289037 -2 34 C-2.66 34 -3.32 34 -4 34 C-4 24.76 -4 15.52 -4 6 C-3.01 6 -2.02 6 -1 6 C-0.67 4.02 -0.34 2.04 0 0 Z " fill="#5A2B01" transform="translate(165,186)"/>
<path d="M0 0 C3.63 0 7.26 0 11 0 C11.27714844 0.78246094 11.55429688 1.56492188 11.83984375 2.37109375 C12.20207031 3.38300781 12.56429687 4.39492187 12.9375 5.4375 C13.29714844 6.44683594 13.65679687 7.45617187 14.02734375 8.49609375 C14.76877639 10.90313745 14.76877639 10.90313745 16 12 C16.07271741 14.35313555 16.08370868 16.70833668 16.0625 19.0625 C16.05347656 20.35285156 16.04445312 21.64320313 16.03515625 22.97265625 C16.02355469 23.97167969 16.01195312 24.97070312 16 26 C11.8928306 25.46511282 9.82167386 23.27954908 6.875 20.5 C3.69217817 17.38621216 3.69217817 17.38621216 0 15 C-0.33 15.66 -0.66 16.32 -1 17 C-1.10477512 11.21408489 -0.99250545 5.70690634 0 0 Z " fill="#7C7C7C" transform="translate(165,165)"/>
<path d="M0 0 C2.4609375 1.51171875 2.4609375 1.51171875 5 4 C5.45876912 6.7794259 5.6557149 9.04048024 5.625 11.8125 C5.625 18.59065154 6.95496584 22.90993167 10 29 C10.1328125 30.875 10.1328125 30.875 10.125 33 C10.12757813 33.70125 10.13015625 34.4025 10.1328125 35.125 C10 37 10 37 9 39 C5.7 39 2.4 39 -1 39 C-1.22941311 34.75087028 -1.42956014 30.50081705 -1.625 26.25 C-1.68945312 25.06277344 -1.75390625 23.87554687 -1.8203125 22.65234375 C-2.1623487 14.82826568 -1.62598705 7.66310255 0 0 Z " fill="#FBFBFB" transform="translate(155,153)"/>
<path d="M0 0 C0 3.63 0 7.26 0 11 C-8.0720842 13.94966861 -15.32161844 15.38844211 -23.875 15.375 C-24.6585083 15.37628906 -25.4420166 15.37757813 -26.24926758 15.37890625 C-31.44222746 15.28211911 -36.00586059 14.42202147 -41 13 C-41 12.67 -41 12.34 -41 12 C-38.69 12 -36.38 12 -34 12 C-34 9.69 -34 7.38 -34 5 C-31.69 5 -29.38 5 -27 5 C-27 7.31 -27 9.62 -27 12 C-23.7 12 -20.4 12 -17 12 C-17 10.02 -17 8.04 -17 6 C-15.3970947 5.18501438 -13.79262722 4.37310073 -12.1875 3.5625 C-11.29417969 3.11003906 -10.40085938 2.65757812 -9.48046875 2.19140625 C-5.99904956 0.51922853 -3.92947937 0 0 0 Z " fill="#6B6B6B" transform="translate(226,180)"/>
<path d="M0 0 C2.08582155 1.21980023 3.95261711 2.32035243 5.7109375 3.98046875 C5.7109375 4.97046875 5.7109375 5.96046875 5.7109375 6.98046875 C6.7009375 6.98046875 7.6909375 6.98046875 8.7109375 6.98046875 C8.7109375 9.62046875 8.7109375 12.26046875 8.7109375 14.98046875 C6.7309375 15.97046875 6.7309375 15.97046875 4.7109375 16.98046875 C4.3190625 16.55894531 3.9271875 16.13742188 3.5234375 15.703125 C-3.21445433 9.5315646 -10.62010255 10.00150991 -19.2890625 9.98046875 C-19.2890625 6.26793711 -18.5055145 4.93573809 -16.2890625 1.98046875 C-11.12578808 -1.50173958 -5.73348639 -2.55365179 0 0 Z " fill="#848484" transform="translate(184.2890625,117.01953125)"/>
<path d="M0 0 C5.28 0 10.56 0 16 0 C16 5.61 16 11.22 16 17 C10.39 17 4.78 17 -1 17 C-1.09063407 11.19941973 -0.83485204 5.73960775 0 0 Z " fill="#787878" transform="translate(75,137)"/>
<path d="M0 0 C0.79857422 0.96486328 0.79857422 0.96486328 1.61328125 1.94921875 C0.68386719 2.05878906 -0.24554688 2.16835937 -1.203125 2.28125 C-12.25818741 3.69915686 -18.90252991 5.04320318 -26.07421875 14.07421875 C-28.09514859 18.50101746 -28.67374545 23.15971577 -29.38671875 27.94921875 C-29.71671875 27.94921875 -30.04671875 27.94921875 -30.38671875 27.94921875 C-32.67693093 7.17372251 -32.67693093 7.17372251 -29.57421875 1.82421875 C-22.88628634 -3.90829474 -7.15535766 -6.14822058 0 0 Z " fill="#DFDFDF" transform="translate(49.38671875,129.05078125)"/>
<path d="M0 0 C0.02684679 2.64590014 0.04676357 5.29153096 0.0625 7.9375 C0.07087891 8.69224609 0.07925781 9.44699219 0.08789062 10.22460938 C0.09652441 12.14994313 0.05224333 14.07535581 0 16 C-1 17 -1 17 -4.37890625 17.09765625 C-5.77347492 17.09191424 -7.16801597 17.07890228 -8.5625 17.0625 C-11.016875 17.041875 -13.47125 17.02125 -16 17 C-16 11.72 -16 6.44 -16 1 C-14.47375 0.835 -12.9475 0.67 -11.375 0.5 C-10.51648438 0.4071875 -9.65796875 0.314375 -8.7734375 0.21875 C-5.83798006 -0.01277904 -2.94335123 -0.03452611 0 0 Z " fill="#787878" transform="translate(181,137)"/>
<path d="M0 0 C7.99242475 -0.73027231 12.99270267 -0.2609086 19.453125 4.6875 C19.96359375 5.120625 20.4740625 5.55375 21 6 C21.66 5.67 22.32 5.34 23 5 C22.54725535 10.52348477 21.20198695 13.89006953 18.0625 18.4375 C16.99708984 20.01337891 16.99708984 20.01337891 15.91015625 21.62109375 C15.27980469 22.40613281 14.64945313 23.19117188 14 24 C13.34 24 12.68 24 12 24 C12 19.38 12 14.76 12 10 C10.35 10 8.7 10 7 10 C4.3125 7.125 4.3125 7.125 2 4 C1.34 3.34 0.68 2.68 0 2 C0 1.34 0 0.68 0 0 Z " fill="#DBDBDB" transform="translate(169,127)"/>
<path d="M0 0 C2.91786964 0.28218081 5.833918 0.57534127 8.75 0.875 C9.575 0.95363281 10.4 1.03226562 11.25 1.11328125 C12.04921875 1.19707031 12.8484375 1.28085938 13.671875 1.3671875 C14.4050293 1.44050293 15.13818359 1.51381836 15.89355469 1.58935547 C18 2 18 2 22 4 C22 9.94 22 15.88 22 22 C15 21 15 21 12.60546875 19.3125 C10.60354857 16.4289556 10.50829379 14.48077852 10.3125 11 C9.8227473 6.4986567 9.8227473 6.4986567 6.87890625 3.328125 C4.5979996 2.34601855 2.41357728 1.57608017 0 1 C0 0.67 0 0.34 0 0 Z " fill="#D0D0D0" transform="translate(215,124)"/>
<path d="M0 0 C0 6.93 0 13.86 0 21 C-1.98 21.99 -3.96 22.98 -6 24 C-6.33 24.66 -6.66 25.32 -7 26 C-8.32 26 -9.64 26 -11 26 C-11 25.01 -11 24.02 -11 23 C-11.66 22.67 -12.32 22.34 -13 22 C-11.02 21.67 -9.04 21.34 -7 21 C-7 17.7 -7 14.4 -7 11 C-9.97 11 -12.94 11 -16 11 C-15 7 -15 7 -13.29296875 5.5859375 C-12.59816406 5.18632812 -11.90335938 4.78671875 -11.1875 4.375 C-10.15689453 3.76785156 -10.15689453 3.76785156 -9.10546875 3.1484375 C-8.41066406 2.76945313 -7.71585938 2.39046875 -7 2 C-6.31550781 1.62101563 -5.63101563 1.24203125 -4.92578125 0.8515625 C-3 0 -3 0 0 0 Z " fill="#5D2C02" transform="translate(154,171)"/>
<path d="M0 0 C1.48907063 1.96068245 2.94801704 3.92286894 4.32421875 5.96484375 C10.73212154 15.237024 18.18466196 17.7828557 29 20 C29 20.66 29 21.32 29 22 C25.43793278 22.14567407 21.87663449 22.23419196 18.3125 22.3125 C17.30509766 22.35439453 16.29769531 22.39628906 15.25976562 22.43945312 C7.76473718 22.56313346 7.76473718 22.56313346 3.91796875 19.73046875 C0.50396132 14.87020155 -0.24600945 12.30047274 -0.125 6.25 C-0.09792969 4.49429688 -0.09792969 4.49429688 -0.0703125 2.703125 C-0.04710938 1.81109375 -0.02390625 0.9190625 0 0 Z " fill="#DEDEDE" transform="translate(19,170)"/>
<path d="M0 0 C3.89014692 3.55765573 6.18015368 6.81321017 8.4375 11.5625 C9.11211344 12.96280279 9.78800712 14.36248918 10.46484375 15.76171875 C10.8501123 16.56399902 11.23538086 17.3662793 11.63232422 18.19287109 C13.26646853 21.54692166 14.94511414 24.87774236 16.62890625 28.20703125 C17.27226724 29.481664 17.91557749 30.75632235 18.55883789 32.03100586 C19.52878313 33.95275313 20.49952838 35.87406996 21.47311401 37.79397583 C22.39210957 39.60813471 23.30554278 41.42510802 24.21875 43.2421875 C25.0221582 44.83329346 25.0221582 44.83329346 25.84179688 46.45654297 C27 49 27 49 27 51 C25.19384766 50.83349609 25.19384766 50.83349609 23 50 C21.41943359 47.70947266 21.41943359 47.70947266 19.8984375 44.6640625 C19.3300415 43.54523682 18.76164551 42.42641113 18.17602539 41.27368164 C17.57526085 40.05766319 16.97492743 38.84143166 16.375 37.625 C15.75709734 36.39443754 15.13786751 35.16454063 14.51733398 33.93530273 C13.57939864 32.07708395 12.64243076 30.21845983 11.71073914 28.35710144 C9.8137855 24.5740744 7.85387205 20.83447346 5.82421875 17.12109375 C5.35387207 16.25726074 4.88352539 15.39342773 4.39892578 14.50341797 C3.52681999 12.91055832 2.64663176 11.32208962 1.75732422 9.73876953 C-1.08747531 4.48637125 -1.08747531 4.48637125 -0.59985352 1.77514648 C-0.40190186 1.18934814 -0.2039502 0.6035498 0 0 Z " fill="#F0F0F0" transform="translate(91,47)"/>
<path d="M0 0 C0.05423638 1.91635217 0.09289963 3.83314925 0.125 5.75 C0.14820313 6.81734375 0.17140625 7.8846875 0.1953125 8.984375 C0.00203782 11.9685361 -0.36417429 13.53505715 -2 16 C-5.39415013 18.50095273 -6.67409946 19 -11 19 C-11.22185844 16.73044814 -11.42705515 14.45926245 -11.625 12.1875 C-11.74101562 10.92292969 -11.85703125 9.65835938 -11.9765625 8.35546875 C-12 5 -12 5 -10 2 C-6.3558226 -0.4294516 -4.28758728 -0.16179575 0 0 Z " fill="#C9C9C9" transform="translate(237,173)"/>
<path d="M0 0 C2.97888761 1.81069639 5.53524626 3.53524626 8 6 C7.625 9.125 7.625 9.125 7 12 C6.34 12 5.68 12 5 12 C3.61876037 10.03277992 2.28511874 8.03131672 1 6 C-0.49743119 4.50256881 -1.98824239 4.66797307 -4.0625 4.4375 C-5.361875 4.293125 -6.66125 4.14875 -8 4 C-7.97873538 7.40614946 -7.97873538 7.40614946 -7 11 C-3.83185361 13.1120976 -0.7302555 14.28264317 3 15 C2.67 15.99 2.34 16.98 2 18 C-3.2953712 18.50432107 -5.86704506 17.28757779 -10 14 C-12.20009864 10.69985205 -12.62319003 9.8281673 -12 6 C-8.65578262 0.84070553 -6.15304605 -1.81794542 0 0 Z " fill="#747474" transform="translate(155,109)"/>
<path d="M0 0 C0.66 1.32 1.32 2.64 2 4 C2.70510775 5.33703298 3.4149215 6.67159251 4.12890625 8.00390625 C4.52400391 8.74447266 4.91910156 9.48503906 5.32617188 10.24804688 C6.15288155 11.79567874 6.98101575 13.34255047 7.81054688 14.88867188 C8.20435547 15.62794922 8.59816406 16.36722656 9.00390625 17.12890625 C9.36299072 17.79994385 9.7220752 18.47098145 10.09204102 19.16235352 C11 21 11 21 12 24 C11.67 24.66 11.34 25.32 11 26 C7.7 26 4.4 26 1 26 C0.67 17.42 0.34 8.84 0 0 Z " fill="#D9D1C9" transform="translate(153,166)"/>
<path d="M0 0 C2 3.75 2 3.75 2 6 C3.65 6 5.3 6 7 6 C7 6.33 7 6.66 7 7 C6.2575 7.0825 5.515 7.165 4.75 7.25 C1.92377032 7.77647907 1.92377032 7.77647907 0.1875 9.8125 C-2.76471157 12.76471157 -6.14891145 14.43289037 -10 16 C-10.66 16 -11.32 16 -12 16 C-12 13.03 -12 10.06 -12 7 C-11.30132812 6.74605469 -10.60265625 6.49210938 -9.8828125 6.23046875 C-8.97273437 5.88628906 -8.06265625 5.54210937 -7.125 5.1875 C-6.22007812 4.85105469 -5.31515625 4.51460937 -4.3828125 4.16796875 C-1.70574151 3.10350976 -1.70574151 3.10350976 0 0 Z " fill="#5C2C00" transform="translate(173,204)"/>
<path d="M0 0 C4.53564509 0.1814258 7.21856359 0.780023 10.4375 3.9375 C13 7 13 7 13 9 C6.07 9 -0.86 9 -8 9 C-4 4 -4 4 -0.75 3.1875 C0.1575 3.125625 1.065 3.06375 2 3 C1.34 2.67 0.68 2.34 0 2 C0 1.34 0 0.68 0 0 Z " fill="#868686" transform="translate(79,118)"/>
<path d="M0 0 C0.66 0 1.32 0 2 0 C2 8.25 2 16.5 2 25 C-4.15404512 18.84595488 -4.10512806 16.19747924 -4.1328125 8.0859375 C-4 6 -4 6 -3 3 C-2.01 3 -1.02 3 0 3 C0 2.01 0 1.02 0 0 Z " fill="#0B0B0B" transform="translate(65,29)"/>
<path d="M0 0 C0.99 0 1.98 0 3 0 C5.09609892 8.79612939 6.61717476 17.40920995 3 26 C2.01 25.67 1.02 25.34 0 25 C0 16.75 0 8.5 0 0 Z " fill="#0B0B0B" transform="translate(232,146)"/>
<path d="M0 0 C0 0.99 0 1.98 0 3 C0.99 3 1.98 3 3 3 C3 5.64 3 8.28 3 11 C1.02 11.99 1.02 11.99 -1 13 C-3.5 11.625 -3.5 11.625 -6 9 C-6.44908891 5.62919149 -6.29036649 2.38115651 -6 -1 C-10.455 -1.99 -10.455 -1.99 -15 -3 C-15 -3.33 -15 -3.66 -15 -4 C-8.79135086 -6.06954971 -5.12227548 -3.28963914 0 0 Z " fill="#808080" transform="translate(190,121)"/>
<path d="M0 0 C1.85625 0.061875 1.85625 0.061875 3.75 0.125 C0.98776722 2.88723278 -1.45706617 2.70356291 -5.25 3.125 C-5.91 5.435 -6.57 7.745 -7.25 10.125 C-9.23 10.125 -11.21 10.125 -13.25 10.125 C-13.58 13.755 -13.91 17.385 -14.25 21.125 C-16.25 18.125 -16.25 18.125 -16.25 16.125 C-17.19875 16.16625 -18.1475 16.2075 -19.125 16.25 C-22.25 16.125 -22.25 16.125 -24.25 14.125 C-20.785 13.63 -20.785 13.63 -17.25 13.125 C-17.064375 12.42375 -16.87875 11.7225 -16.6875 11 C-13.58620184 4.79740368 -7.09412426 -0.23647081 0 0 Z " fill="#777777" transform="translate(77.25,116.875)"/>
<path d="M0 0 C6.27808258 -0.50224661 9.94635578 -0.19082691 15 4 C15.66 4.66 16.32 5.32 17 6 C16.80359411 11.20475607 15.82518656 14.39339553 12 18 C10.68 18 9.36 18 8 18 C7.67 17.01 7.34 16.02 7 15 C8.98 14.67 10.96 14.34 13 14 C12.73606499 10.56769552 12.73606499 10.56769552 12 7 C9.09907498 5.06604999 8.10325263 4.69868059 4.8125 4.375 C3.554375 4.25125 2.29625 4.1275 1 4 C0.67 2.68 0.34 1.36 0 0 Z " fill="#767676" transform="translate(130,97)"/>
<path d="M0 0 C1.98 0.99 1.98 0.99 4 2 C5.24552495 2.55187894 6.49535229 3.09418751 7.75 3.625 C8.8225 4.07875 9.895 4.5325 11 5 C11 7.31 11 9.62 11 12 C7.37 12 3.74 12 0 12 C0 8.04 0 4.08 0 0 Z " fill="#E0E0E0" transform="translate(181,180)"/>
<path d="M0 0 C0.66 0.99 1.32 1.98 2 3 C-5.26 3.99 -12.52 4.98 -20 6 C-20 6.66 -20 7.32 -20 8 C-21.65 8.33 -23.3 8.66 -25 9 C-24.9375 6.6875 -24.9375 6.6875 -24 4 C-17.72224012 0.05815077 -7.04765354 -2.34921785 0 0 Z " fill="#BDBDBD" transform="translate(54,131)"/>
<path d="M0 0 C0 2.97 0 5.94 0 9 C-0.33 8.34 -0.66 7.68 -1 7 C-3.31 7.33 -5.62 7.66 -8 8 C-7.67 8.99 -7.34 9.98 -7 11 C-9.97 11 -12.94 11 -16 11 C-15 7 -15 7 -13.29296875 5.5859375 C-12.59816406 5.18632812 -11.90335938 4.78671875 -11.1875 4.375 C-10.15689453 3.76785156 -10.15689453 3.76785156 -9.10546875 3.1484375 C-8.41066406 2.76945313 -7.71585938 2.39046875 -7 2 C-6.31550781 1.62101563 -5.63101563 1.24203125 -4.92578125 0.8515625 C-3 0 -3 0 0 0 Z " fill="#61350B" transform="translate(154,171)"/>
<path d="M0 0 C7.617737 2.87461774 7.617737 2.87461774 10 7 C10.29296875 9.578125 10.29296875 9.578125 10.1875 12.25 C10.16042969 13.14203125 10.13335937 14.0340625 10.10546875 14.953125 C10.07066406 15.62859375 10.03585938 16.3040625 10 17 C9.01 17 8.02 17 7 17 C5.5625 14.875 5.5625 14.875 4 12 C3.278125 11.030625 2.55625 10.06125 1.8125 9.0625 C-0.19023709 5.67856492 -0.36735067 3.85718206 0 0 Z " fill="#E3E3E3" transform="translate(227,129)"/>
<path d="M0 0 C0.33 0 0.66 0 1 0 C1.02687279 1.81242052 1.04633715 3.62495233 1.0625 5.4375 C1.07410156 6.44683594 1.08570313 7.45617187 1.09765625 8.49609375 C1 11 1 11 0 12 C-2.53049402 12.07313567 -5.03304837 12.09247527 -7.5625 12.0625 C-8.62887695 12.05573242 -8.62887695 12.05573242 -9.71679688 12.04882812 C-11.47790013 12.03700864 -13.23896036 12.01907263 -15 12 C-12.94539675 8.91809513 -12.38117754 8.50505951 -9.1875 7.125 C-5.2703788 5.28751405 -2.906318 3.17052873 0 0 Z " fill="#5A5A5A" transform="translate(180,142)"/>
<path d="M0 0 C0.99 0 1.98 0 3 0 C3.125 7.625 3.125 7.625 2 11 C-1.3 11 -4.6 11 -8 11 C-8 9.02 -8 7.04 -8 5 C-7.05125 4.54625 -6.1025 4.0925 -5.125 3.625 C-1.99686321 2.19761746 -1.99686321 2.19761746 0 0 Z " fill="#E1E1E1" transform="translate(72,181)"/>
<path d="M0 0 C5.75 4.625 5.75 4.625 8 8 C8.66 6.02 9.32 4.04 10 2 C10.33 2 10.66 2 11 2 C11.09038099 7.15171623 10.84681133 11.91913204 10 17 C1.94602714 10.57888739 1.94602714 10.57888739 0 6 C-0.1875 2.6875 -0.1875 2.6875 0 0 Z " fill="#C6C6C6" transform="translate(64,135)"/>
<path d="M0 0 C1.32 0 2.64 0 4 0 C4.27714844 0.78246094 4.55429688 1.56492188 4.83984375 2.37109375 C5.20207031 3.38300781 5.56429687 4.39492187 5.9375 5.4375 C6.29714844 6.44683594 6.65679687 7.45617187 7.02734375 8.49609375 C7.76877639 10.90313745 7.76877639 10.90313745 9 12 C9.04080783 13.99958364 9.04254356 16.00045254 9 18 C4.47079446 15.98701976 2.71883603 13.48663236 0.71484375 9.140625 C-0.35307283 5.94271088 -0.27872824 3.34473888 0 0 Z " fill="#0B0B0B" transform="translate(172,165)"/>
<path d="M0 0 C-0.171875 2.35546875 -0.171875 2.35546875 -1 5 C-3.328125 6.36328125 -3.328125 6.36328125 -6.25 7.3125 C-7.20390625 7.63863281 -8.1578125 7.96476563 -9.140625 8.30078125 C-11.88953384 8.9729871 -14.18517904 9.13868643 -17 9 C-16.86328125 7.171875 -16.86328125 7.171875 -16 5 C-13.41796875 3.515625 -13.41796875 3.515625 -10.1875 2.25 C-9.12917969 1.82203125 -8.07085937 1.3940625 -6.98046875 0.953125 C-4 0 -4 0 0 0 Z " fill="#212121" transform="translate(226,180)"/>
<path d="M0 0 C1.32 0 2.64 0 4 0 C4.71707754 6.59711338 2.58757319 11.47210553 -1 17 C-1.99 17.66 -2.98 18.32 -4 19 C-4.28482666 13.39840894 -4.12706867 10.75314438 -1 6 C-0.28598768 2.80604974 -0.28598768 2.80604974 0 0 Z " fill="#101010" transform="translate(79,165)"/>
<path d="M0 0 C3.5392157 0.88480393 4.7806977 1.35476165 7.5 3.4375 C9.91771753 5.23648982 12.22718762 6.77996255 15 8 C15 8.33 15 8.66 15 9 C10.05 9 5.1 9 0 9 C0 6.03 0 3.06 0 0 Z " fill="#616161" transform="translate(74,145)"/>
<path d="M0 0 C5.80165739 0.97458672 10.83982722 2.01253155 16 5 C16 6.32 16 7.64 16 9 C12.34056353 8.31092878 8.77558041 7.43178734 5.1875 6.4375 C4.21167969 6.16808594 3.23585937 5.89867187 2.23046875 5.62109375 C1.12638672 5.31365234 1.12638672 5.31365234 0 5 C0 3.35 0 1.7 0 0 Z " fill="#101010" transform="translate(210,130)"/>
<path d="M0 0 C2.97 0 5.94 0 9 0 C9 3.3 9 6.6 9 10 C6.75 9.875 6.75 9.875 4 9 C0 4.02702703 0 4.02702703 0 0 Z " fill="#D6CEC7" transform="translate(138,182)"/>
<path d="M0 0 C4.87685861 1.35468295 6.48592381 3.71675909 9 8 C8 9 8 9 5.71484375 9.09765625 C3.14322917 9.06510417 0.57161458 9.03255208 -2 9 C-2 14.28 -2 19.56 -2 25 C-2.33 25 -2.66 25 -3 25 C-3 19.39 -3 13.78 -3 8 C-1.02 7.67 0.96 7.34 3 7 C1.68 6.01 0.36 5.02 -1 4 C-0.67 2.68 -0.34 1.36 0 0 Z " fill="#B8B8B8" transform="translate(167,129)"/>
<path d="M0 0 C0 1.98 0 3.96 0 6 C-1.03125 6.12375 -2.0625 6.2475 -3.125 6.375 C-6.92373584 6.87701375 -6.92373584 6.87701375 -10.125 8.0625 C-12.95102756 8.98403073 -15.05471874 9.17325184 -18 9 C-17.67 7.68 -17.34 6.36 -17 5 C-16.01257813 4.72285156 -15.02515625 4.44570312 -14.0078125 4.16015625 C-12.71351203 3.79437568 -11.41924281 3.42848451 -10.125 3.0625 C-9.47402344 2.88009766 -8.82304687 2.69769531 -8.15234375 2.50976562 C-5.61490597 1.79038894 -2.54119681 0 0 0 Z " fill="#7A7A7A" transform="translate(226,184)"/>
<path d="M0 0 C0.66 0 1.32 0 2 0 C2.29354096 3.05282597 2.4251429 5.95576688 2 9 C-0.66012492 11.95569436 -3.05946397 13.41621688 -7 14 C-6.706999 8.13998008 -3.96570849 4.14453354 0 0 Z " fill="#E1E1E1" transform="translate(234,173)"/>
<path d="M0 0 C3.3 0.33 6.6 0.66 10 1 C10 2.98 10 4.96 10 7 C6.7 7 3.4 7 0 7 C0 4.69 0 2.38 0 0 Z " fill="#CACACA" transform="translate(199,185)"/>
<path d="M0 0 C0.33 0.99 0.66 1.98 1 3 C-0.36328125 5.59375 -0.36328125 5.59375 -2.3125 8.5 C-3.26576172 9.93859375 -3.26576172 9.93859375 -4.23828125 11.40625 C-4.81964844 12.2621875 -5.40101563 13.118125 -6 14 C-6.99 15.485 -6.99 15.485 -8 17 C-8.66 17 -9.32 17 -10 17 C-10 14.03 -10 11.06 -10 8 C-8.68 7.67 -7.36 7.34 -6 7 C-4.24399324 5.39255122 -4.24399324 5.39255122 -2.75 3.4375 C-2.22921875 2.79683594 -1.7084375 2.15617188 -1.171875 1.49609375 C-0.78515625 1.00238281 -0.3984375 0.50867188 0 0 Z " fill="#C2C2C2" transform="translate(191,134)"/>
<path d="M0 0 C1.4540625 0.0309375 1.4540625 0.0309375 2.9375 0.0625 C3.5975 1.7125 4.2575 3.3625 4.9375 5.0625 C2.6275 5.3925 0.3175 5.7225 -2.0625 6.0625 C-2.02125 7.135 -1.98 8.2075 -1.9375 9.3125 C-2.0550745 12.83973487 -2.41097907 14.123573 -4.0625 17.0625 C-4.08934679 14.41659986 -4.10926357 11.77096904 -4.125 9.125 C-4.13337891 8.37025391 -4.14175781 7.61550781 -4.15039062 6.83789062 C-4.15902441 4.91255687 -4.11474333 2.98714419 -4.0625 1.0625 C-3.0625 0.0625 -3.0625 0.0625 0 0 Z " fill="#DBDBDB" transform="translate(167.0625,158.9375)"/>
<path d="M0 0 C5.67276511 -0.29341888 8.99067246 -0.00559652 14 3 C14 3.66 14 4.32 14 5 C9.38 5 4.76 5 0 5 C0 3.35 0 1.7 0 0 Z " fill="#020202" transform="translate(78,24)"/>
<path d="M0 0 C3.3 0 6.6 0 10 0 C10 1.98 10 3.96 10 6 C2.57142857 6.14285714 2.57142857 6.14285714 -1 5 C-0.67 3.35 -0.34 1.7 0 0 Z " fill="#CBCBCB" transform="translate(199,127)"/>
<path d="M0 0 C6.27762202 3.63441275 10.99111424 8.81293254 16 14 C15.01 14.33 14.02 14.66 13 15 C12.22914063 14.28972656 11.45828125 13.57945312 10.6640625 12.84765625 C9.65114976 11.9191529 8.63812299 10.99077394 7.625 10.0625 C7.11710938 9.59392578 6.60921875 9.12535156 6.0859375 8.64257812 C3.25734146 6.02273232 3.25734146 6.02273232 0 4 C-0.33 4.66 -0.66 5.32 -1 6 C-0.67 4.02 -0.34 2.04 0 0 Z " fill="#5A5A5A" transform="translate(165,176)"/>
<path d="M0 0 C0.33 0 0.66 0 1 0 C1 1.65 1 3.3 1 5 C1.66 5 2.32 5 3 5 C3.33 6.98 3.66 8.96 4 11 C3.4225 11.12375 2.845 11.2475 2.25 11.375 C-0.02335767 12.00648824 -1.9253529 12.88858191 -4 14 C-4 11.36 -4 8.72 -4 6 C-3.01 6 -2.02 6 -1 6 C-0.67 4.02 -0.34 2.04 0 0 Z " fill="#592F08" transform="translate(165,186)"/>
<path d="M0 0 C-0.3125 1.9375 -0.3125 1.9375 -1 4 C-1.99 4.33 -2.98 4.66 -4 5 C-6.06901704 8.0700421 -6.29256233 10.77686992 -6.4140625 14.421875 C-6.45273437 15.44667969 -6.49140625 16.47148437 -6.53125 17.52734375 C-6.5621875 18.59082031 -6.593125 19.65429688 -6.625 20.75 C-6.66367187 21.82894531 -6.70234375 22.90789062 -6.7421875 24.01953125 C-6.83634631 26.67951775 -6.92197387 29.3394994 -7 32 C-7.33 32 -7.66 32 -8 32 C-8.25817244 28.83501384 -8.47612313 25.66842809 -8.6875 22.5 C-8.79674805 21.1696875 -8.79674805 21.1696875 -8.90820312 19.8125 C-9.35143277 12.72082574 -8.61882432 7.17433251 -3.9375 1.5 C-2 0 -2 0 0 0 Z " fill="#D3D3D3" transform="translate(29,138)"/>
<path d="M0 0 C-0.1875 1.8125 -0.1875 1.8125 -1 4 C-4.50031113 6.70024001 -7.64980938 7.49416388 -12 8 C-11.7421875 6.140625 -11.7421875 6.140625 -11 4 C-9.2578125 2.734375 -9.2578125 2.734375 -7.125 1.75 C-6.42632812 1.41484375 -5.72765625 1.0796875 -5.0078125 0.734375 C-3 0 -3 0 0 0 Z " fill="#391C00" transform="translate(173,203)"/>
<path d="M0 0 C1.98 0.99 1.98 0.99 4 2 C5.24552495 2.55187894 6.49535229 3.09418751 7.75 3.625 C8.8225 4.07875 9.895 4.5325 11 5 C10.67 5.99 10.34 6.98 10 8 C7.36 7.34 4.72 6.68 2 6 C1.67 7.98 1.34 9.96 1 12 C0.67 12 0.34 12 0 12 C0 8.04 0 4.08 0 0 Z " fill="#CACACA" transform="translate(181,180)"/>
<path d="M0 0 C0.33 0 0.66 0 1 0 C1.226875 1.19625 1.45375 2.3925 1.6875 3.625 C2.46570614 6.83439029 3.43139188 8.84546764 5.625 11.3125 C8 14 8 14 8 17 C1.99261993 14.88929889 1.99261993 14.88929889 0 12 C-0.95710633 7.6930215 -1.16279782 4.26359202 0 0 Z " fill="#C7C7C7" transform="translate(226,129)"/>
<path d="M0 0 C1.47919922 0.06960937 1.47919922 0.06960937 2.98828125 0.140625 C3.98214844 0.17671875 4.97601563 0.2128125 6 0.25 C7.13888672 0.31960937 7.13888672 0.31960937 8.30078125 0.390625 C8.30078125 1.380625 8.30078125 2.370625 8.30078125 3.390625 C5.14571983 4.32682313 2.33491623 4.4963373 -0.94921875 4.453125 C-1.84125 4.44410156 -2.73328125 4.43507812 -3.65234375 4.42578125 C-4.3278125 4.41417969 -5.00328125 4.40257812 -5.69921875 4.390625 C-4.03190196 1.4998505 -3.38689549 0.49014407 0 0 Z " fill="#101010" transform="translate(55.69921875,185.609375)"/>
<path d="M0 0 C0.99 0 1.98 0 3 0 C3 2.64 3 5.28 3 8 C2.34 7.01 1.68 6.02 1 5 C0.01 5.66 -0.98 6.32 -2 7 C-5.1875 7.125 -5.1875 7.125 -8 7 C-7.67 6.01 -7.34 5.02 -7 4 C-5.35448038 3.28272222 -3.68577711 2.61674772 -2 2 C-1.34 1.34 -0.68 0.68 0 0 Z " fill="#C8C8C8" transform="translate(72,181)"/>
<path d="M0 0 C2.65269897 2.47585238 4.68010103 4.59026101 6 8 C6 8.99 6 9.98 6 11 C4.02 11 2.04 11 0 11 C0 7.37 0 3.74 0 0 Z " fill="#FCFCFC" transform="translate(67,57)"/>
<path d="M0 0 C0.04241723 2.33294775 0.04092937 4.66702567 0 7 C-1 8 -1 8 -2.84765625 8.09765625 C-4.8984375 8.06510417 -6.94921875 8.03255208 -9 8 C-8.04578192 6.85073734 -7.08647955 5.70569459 -6.125 4.5625 C-5.59132812 3.92441406 -5.05765625 3.28632813 -4.5078125 2.62890625 C-2.07434053 0 -2.07434053 0 0 0 Z " fill="#0B0B0B" transform="translate(181,146)"/>
<path d="M0 0 C1.67542976 0.28604898 3.34385343 0.61781233 5 1 C6.125 4.75 6.125 4.75 5 7 C3.35 7 1.7 7 0 7 C-0.38133299 5.0085944 -0.71325582 3.00720923 -1 1 C-0.67 0.67 -0.34 0.34 0 0 Z " fill="#F5F5F5" transform="translate(82,34)"/>
<path d="M0 0 C0.33 0.66 0.66 1.32 1 2 C-0.051875 2.0825 -1.10375 2.165 -2.1875 2.25 C-6.27047209 3.05320762 -8.0122727 4.19334709 -11 7 C-10.64780657 4.39376858 -10.23526531 2.39210885 -8.875 0.125 C-5.81808594 -1.70914844 -3.3340059 -0.80263105 0 0 Z " fill="#C4C4C4" transform="translate(81,120)"/>
<path d="M0 0 C6.41753653 0.60542797 6.41753653 0.60542797 8.9375 2.3125 C10 4 10 4 10 8 C9.34 8 8.68 8 8 8 C7.38125 7.0409375 7.38125 7.0409375 6.75 6.0625 C4.40302106 3.29641768 2.51991219 3.31288108 -1 3 C-0.67 2.01 -0.34 1.02 0 0 Z " fill="#C5C5C5" transform="translate(175,118)"/>
<path d="M0 0 C7.38461538 -0.49230769 7.38461538 -0.49230769 10.5 2 C10.995 2.66 11.49 3.32 12 4 C11.67 4.66 11.34 5.32 11 6 C9.27473958 4.99088542 7.54947917 3.98177083 5.82421875 2.97265625 C3.86180445 1.86098753 3.86180445 1.86098753 1 1 C1.18828772 3.44480079 1.18828772 3.44480079 2 6 C3.96758273 7.36020151 3.96758273 7.36020151 6 8 C6 8.66 6 9.32 6 10 C1.125 8.125 1.125 8.125 0 7 C-0.04092937 4.66702567 -0.04241723 2.33294775 0 0 Z " fill="#090909" transform="translate(147,113)"/>
<path d="M0 0 C2.3125 0.1875 2.3125 0.1875 4 1 C3.875 2.875 3.875 2.875 3 5 C-0.0625 6.25 -0.0625 6.25 -3 7 C-3.66 6.34 -4.32 5.68 -5 5 C-2.75 2.4375 -2.75 2.4375 0 0 Z " fill="#C9C9C9" transform="translate(85,130)"/>
<path d="M0 0 C0.99 0.33 1.98 0.66 3 1 C1.02 4.96 -0.96 8.92 -3 13 C-3.66 12.67 -4.32 12.34 -5 12 C-4.35522931 10.37457807 -3.70914857 8.74967576 -3.0625 7.125 C-2.52302734 5.76761719 -2.52302734 5.76761719 -1.97265625 4.3828125 C-1 2 -1 2 0 0 Z " fill="#575757" transform="translate(242,168)"/>
<path d="M0 0 C0.33 1.32 0.66 2.64 1 4 C1.99 4 2.98 4 4 4 C4 5.32 4 6.64 4 8 C2.68 8 1.36 8 0 8 C-0.33 9.65 -0.66 11.3 -1 13 C-1.33 13 -1.66 13 -2 13 C-1.85915204 11.20793453 -1.71216299 9.41635083 -1.5625 7.625 C-1.48128906 6.62726563 -1.40007812 5.62953125 -1.31640625 4.6015625 C-1 2 -1 2 0 0 Z " fill="#0F0F0F" transform="translate(194,124)"/>
<path d="M0 0 C0.99 0.33 1.98 0.66 3 1 C1.41641358 4.16717283 0.54736301 5.73268318 -2.6875 7.3125 C-3.450625 7.539375 -4.21375 7.76625 -5 8 C-4.66275164 4.88045262 -4.3790035 3.3790035 -2.125 1.125 C-1.42375 0.75375 -0.7225 0.3825 0 0 Z " fill="#391C00" transform="translate(166,196)"/>
<path d="M0 0 C3.3 0.33 6.6 0.66 10 1 C10 1.99 10 2.98 10 4 C6.7 4 3.4 4 0 4 C0 2.68 0 1.36 0 0 Z " fill="#E2E2E2" transform="translate(199,188)"/>
<path d="M0 0 C2.35448165 2.55068845 2.98327924 3.71017358 3.1875 7.25 C3.125625 8.1575 3.06375 9.065 3 10 C1 7 1 7 1 5 C0.05125 5.04125 -0.8975 5.0825 -1.875 5.125 C-5 5 -5 5 -7 3 C-3.535 2.505 -3.535 2.505 0 2 C0 1.34 0 0.68 0 0 Z " fill="#040404" transform="translate(60,128)"/>
<path d="M0 0 C0 0.33 0 0.66 0 1 C-1.98 1 -3.96 1 -6 1 C-6.66 2.32 -7.32 3.64 -8 5 C-8.33 4.34 -8.66 3.68 -9 3 C-11.97 5.475 -11.97 5.475 -15 8 C-14.62118922 5.25362183 -14.22167713 4.19950942 -12.125 2.3125 C-8.06616592 -0.19442693 -4.66790835 -0.08807374 0 0 Z " fill="#9D9D9D" transform="translate(181,116)"/>
<path d="M0 0 C0.556875 0.721875 1.11375 1.44375 1.6875 2.1875 C3.97909334 4.97457299 6.41459857 7.48641528 9 10 C8.67 10.99 8.34 11.98 8 13 C6.65472507 11.59466816 5.3241269 10.17527548 4 8.75 C3.2575 7.96109375 2.515 7.1721875 1.75 6.359375 C0 4 0 4 0 0 Z " fill="#CECECE" transform="translate(22,172)"/>
<path d="M0 0 C2.31 0.33 4.62 0.66 7 1 C7 1.99 7 2.98 7 4 C4.03 4 1.06 4 -2 4 C-1.34 2.68 -0.68 1.36 0 0 Z " fill="#E1E1E1" transform="translate(85,160)"/>
<path d="M0 0 C3.3 0 6.6 0 10 0 C10 0.99 10 1.98 10 3 C3.375 3.125 3.375 3.125 0 2 C0 1.34 0 0.68 0 0 Z " fill="#E0E0E0" transform="translate(199,127)"/>
<path d="M0 0 C-0.33 1.32 -0.66 2.64 -1 4 C-2.65 4.33 -4.3 4.66 -6 5 C-6.33 3.68 -6.66 2.36 -7 1 C-4 0 -4 0 0 0 Z " fill="#3D1E01" transform="translate(153,178)"/>
<path d="M0 0 C0.66 0 1.32 0 2 0 C2 2.31 2 4.62 2 7 C0.02 7.99 0.02 7.99 -2 9 C-1.125 1.125 -1.125 1.125 0 0 Z " fill="#646464" transform="translate(191,125)"/>
<path d="M0 0 C0.99 0.33 1.98 0.66 3 1 C3 2.65 3 4.3 3 6 C2.01 6.33 1.02 6.66 0 7 C-0.38133299 5.0085944 -0.71325582 3.00720923 -1 1 C-0.67 0.67 -0.34 0.34 0 0 Z " fill="#6B6B6B" transform="translate(95,114)"/>
<path d="M0 0 C0 0.99 0 1.98 0 3 C-2.31 3.33 -4.62 3.66 -7 4 C-7 3.01 -7 2.02 -7 1 C-4 0 -4 0 0 0 Z " fill="#3B1E02" transform="translate(154,186)"/>
<path d="M0 0 C2.31 0 4.62 0 7 0 C7 0.99 7 1.98 7 3 C4.69 3 2.38 3 0 3 C0 2.01 0 1.02 0 0 Z " fill="#040404" transform="translate(192,185)"/>
<path d="M0 0 C2.02054804 1.64169528 4.02043058 3.30911778 6 5 C6 5.33 6 5.66 6 6 C4.02 6 2.04 6 0 6 C0 4.02 0 2.04 0 0 Z " fill="#030303" transform="translate(75,148)"/>
<path d="M0 0 C0.33 0 0.66 0 1 0 C0.50769231 6.52307692 0.50769231 6.52307692 -2.0625 8.9375 C-2.701875 9.288125 -3.34125 9.63875 -4 10 C-2.66666667 6.66666667 -1.33333333 3.33333333 0 0 Z " fill="#5C5C5C" transform="translate(90,173)"/>
</svg>
