<?xml version="1.0" encoding="UTF-8"?>
<!DOCTYPE svg PUBLIC "-//W3C//DTD SVG 1.1//EN" "http://www.w3.org/Graphics/SVG/1.1/DTD/svg11.dtd">
<svg xmlns="http://www.w3.org/2000/svg" version="1.1" width="1000px" height="1000px" style="shape-rendering:geometricPrecision; text-rendering:geometricPrecision; image-rendering:optimizeQuality; fill-rule:evenodd; clip-rule:evenodd" xmlns:xlink="http://www.w3.org/1999/xlink">
<g><path style="opacity:1" fill="#000000" d="M -0.5,-0.5 C 332.833,-0.5 666.167,-0.5 999.5,-0.5C 999.5,109.167 999.5,218.833 999.5,328.5C 992.498,326.335 988.164,328.835 986.5,336C 988.362,342.931 992.695,345.098 999.5,342.5C 999.5,561.5 999.5,780.5 999.5,999.5C 666.167,999.5 332.833,999.5 -0.5,999.5C -0.5,858.833 -0.5,718.167 -0.5,577.5C 0.86709,578.853 1.86709,578.519 2.5,576.5C 1.57537,575.438 0.575371,575.438 -0.5,576.5C -0.5,384.167 -0.5,191.833 -0.5,-0.5 Z"/></g>
<g><path style="opacity:1" fill="#a2a2a2" d="M 398.5,16.5 C 400.76,17.2376 400.927,18.2376 399,19.5C 397.272,18.6477 397.105,17.6477 398.5,16.5 Z"/></g>
<g><path style="opacity:1" fill="#cecece" d="M 106.5,22.5 C 107.5,22.5 108.5,22.5 109.5,22.5C 109.5,23.5 109.5,24.5 109.5,25.5C 108.5,25.5 107.5,25.5 106.5,25.5C 106.5,24.5 106.5,23.5 106.5,22.5 Z"/></g>
<g><path style="opacity:1" fill="#d0d0d0" d="M 977.5,29.5 C 978.5,29.5 979.5,29.5 980.5,29.5C 980.5,30.5 980.5,31.5 980.5,32.5C 979.5,32.5 978.5,32.5 977.5,32.5C 977.5,31.5 977.5,30.5 977.5,29.5 Z"/></g>
<g><path style="opacity:1" fill="#eaeaea" d="M 293.5,35.5 C 300.997,34.8038 302.997,37.6372 299.5,44C 291.749,45.0913 289.749,42.258 293.5,35.5 Z"/></g>
<g><path style="opacity:1" fill="#e5e5e5" d="M 673.5,44.5 C 676.957,44.6672 677.29,45.6672 674.5,47.5C 673.614,46.675 673.281,45.675 673.5,44.5 Z"/></g>
<g><path style="opacity:1" fill="#a7a7a7" d="M 567.5,62.5 C 568.675,62.281 569.675,62.6143 570.5,63.5C 568.948,64.7979 567.948,64.4646 567.5,62.5 Z"/></g>
<g><path style="opacity:1" fill="#f4f4f4" d="M 111.5,96.5 C 119.818,96.9869 121.485,100.487 116.5,107C 108.088,106.812 106.421,103.312 111.5,96.5 Z"/></g>
<g><path style="opacity:1" fill="#fefffe" d="M 210.5,222.5 C 209.503,240.326 209.17,258.326 209.5,276.5C 237.169,276.333 264.835,276.5 292.5,277C 294.037,278.707 295.704,280.207 297.5,281.5C 302.833,287.5 308.5,293.167 314.5,298.5C 314.5,299.167 314.833,299.5 315.5,299.5C 316.458,300.962 317.624,302.295 319,303.5C 319.667,322.167 319.667,340.833 319,359.5C 313.297,365.035 307.797,370.702 302.5,376.5C 299.036,379.462 295.703,382.629 292.5,386C 269.836,386.5 247.169,386.667 224.5,386.5C 219.489,386.666 214.489,386.499 209.5,386C 206.964,383.295 204.297,380.795 201.5,378.5C 195.536,372.035 189.369,365.702 183,359.5C 182.5,350.173 182.334,340.839 182.5,331.5C 188.833,331.5 195.167,331.5 201.5,331.5C 204.167,331.5 206.833,331.5 209.5,331.5C 209.182,340.751 209.515,349.917 210.5,359C 237.67,359.83 264.67,359.664 291.5,358.5C 292.497,340.674 292.83,322.674 292.5,304.5C 269.833,304.5 247.167,304.5 224.5,304.5C 219.489,304.666 214.489,304.499 209.5,304C 207.63,301.96 205.63,300.127 203.5,298.5C 198.167,292.5 192.5,286.833 186.5,281.5C 185.542,280.038 184.376,278.705 183,277.5C 182.501,272.845 182.334,268.179 182.5,263.5C 182.5,260.833 182.5,258.167 182.5,255.5C 182.5,254.833 182.5,254.167 182.5,253.5C 182.333,242.828 182.5,232.161 183,221.5C 191.833,212.667 200.667,203.833 209.5,195C 237.167,194.333 264.833,194.333 292.5,195C 301.333,203.833 310.167,212.667 319,221.5C 319.5,230.827 319.666,240.161 319.5,249.5C 310.5,249.5 301.5,249.5 292.5,249.5C 292.818,240.249 292.485,231.083 291.5,222C 264.33,221.17 237.33,221.336 210.5,222.5 Z"/></g>
<g><path style="opacity:1" fill="#fefffe" d="M 450.5,253.5 C 450.666,261.507 450.5,269.507 450,277.5C 448.624,278.705 447.458,280.038 446.5,281.5C 440.5,286.833 434.833,292.5 429.5,298.5C 427.37,300.127 425.37,301.96 423.5,304C 418.845,304.499 414.179,304.666 409.5,304.5C 395.833,304.5 382.167,304.5 368.5,304.5C 368.5,331.833 368.5,359.167 368.5,386.5C 359.5,386.5 350.5,386.5 341.5,386.5C 341.5,331.5 341.5,276.5 341.5,221.5C 350.632,212.869 359.632,204.036 368.5,195C 386.833,194.333 405.167,194.333 423.5,195C 432.333,203.833 441.167,212.667 450,221.5C 450.5,232.161 450.667,242.828 450.5,253.5 Z"/></g>
<g><path style="opacity:1" fill="#fefffe" d="M 581.5,221.5 C 581.5,276.5 581.5,331.5 581.5,386.5C 572.5,386.5 563.5,386.5 554.5,386.5C 554.5,359.167 554.5,331.833 554.5,304.5C 547.5,304.5 540.5,304.5 533.5,304.5C 525.833,304.5 518.167,304.5 510.5,304.5C 506.833,304.5 503.167,304.5 499.5,304.5C 499.5,331.833 499.5,359.167 499.5,386.5C 490.5,386.5 481.5,386.5 472.5,386.5C 472.5,331.5 472.5,276.5 472.5,221.5C 481.632,212.869 490.632,204.036 499.5,195C 517.833,194.333 536.167,194.333 554.5,195C 563.368,204.036 572.368,212.869 581.5,221.5 Z"/></g>
<g><path style="opacity:1" fill="#fefffe" d="M 712.5,194.5 C 712.5,203.5 712.5,212.5 712.5,221.5C 684.995,221.169 657.662,221.502 630.5,222.5C 630.5,232.833 630.5,243.167 630.5,253.5C 630.5,257.5 630.5,261.5 630.5,265.5C 630.5,270.833 630.5,276.167 630.5,281.5C 630.5,287.167 630.5,292.833 630.5,298.5C 630.5,318.5 630.5,338.5 630.5,358.5C 657.662,359.498 684.995,359.831 712.5,359.5C 712.5,368.5 712.5,377.5 712.5,386.5C 707.833,386.5 703.167,386.5 698.5,386.5C 677.167,386.5 655.833,386.5 634.5,386.5C 633.127,386.657 631.793,386.49 630.5,386C 624.298,379.631 617.965,373.464 611.5,367.5C 609.167,364.5 606.5,361.833 603.5,359.5C 603.5,313.5 603.5,267.5 603.5,221.5C 612.632,212.869 621.632,204.036 630.5,195C 657.831,194.5 685.165,194.333 712.5,194.5 Z"/></g>
<g><path style="opacity:1" fill="#fefffe" d="M 843.5,194.5 C 843.5,203.5 843.5,212.5 843.5,221.5C 815.995,221.169 788.662,221.502 761.5,222.5C 761.5,232.833 761.5,243.167 761.5,253.5C 761.5,261.167 761.5,268.833 761.5,276.5C 779.833,276.5 798.167,276.5 816.5,276.5C 816.5,278.167 816.5,279.833 816.5,281.5C 816.5,287.167 816.5,292.833 816.5,298.5C 816.5,300.5 816.5,302.5 816.5,304.5C 810.833,304.5 805.167,304.5 799.5,304.5C 786.833,304.5 774.167,304.5 761.5,304.5C 761.5,322.5 761.5,340.5 761.5,358.5C 788.662,359.498 815.995,359.831 843.5,359.5C 843.5,368.5 843.5,377.5 843.5,386.5C 836.5,386.5 829.5,386.5 822.5,386.5C 814.833,386.5 807.167,386.5 799.5,386.5C 786.829,386.667 774.162,386.5 761.5,386C 752.667,377.167 743.833,368.333 735,359.5C 734.5,313.501 734.333,267.501 734.5,221.5C 743.632,212.869 752.632,204.036 761.5,195C 788.831,194.5 816.165,194.333 843.5,194.5 Z"/></g>
<g><path style="opacity:1" fill="#d6d6d6" d="M 965.5,219.5 C 967.465,219.948 967.798,220.948 966.5,222.5C 965.614,221.675 965.281,220.675 965.5,219.5 Z"/></g>
<g><path style="opacity:1" fill="#7f0000" d="M 712.5,194.5 C 713.494,203.652 713.827,212.985 713.5,222.5C 685.833,222.5 658.167,222.5 630.5,222.5C 657.662,221.502 684.995,221.169 712.5,221.5C 712.5,212.5 712.5,203.5 712.5,194.5 Z"/></g>
<g><path style="opacity:1" fill="#800000" d="M 843.5,194.5 C 844.494,203.652 844.827,212.985 844.5,222.5C 816.833,222.5 789.167,222.5 761.5,222.5C 788.662,221.502 815.995,221.169 843.5,221.5C 843.5,212.5 843.5,203.5 843.5,194.5 Z"/></g>
<g><path style="opacity:1" fill="#090301" d="M 422.5,222.5 C 422.5,232.833 422.5,243.167 422.5,253.5C 404.5,253.5 386.5,253.5 368.5,253.5C 368.5,242.833 368.5,232.167 368.5,221.5C 386.674,221.17 404.674,221.503 422.5,222.5 Z"/></g>
<g><path style="opacity:1" fill="#010101" d="M 499.5,222.5 C 517.5,222.5 535.5,222.5 553.5,222.5C 553.5,232.833 553.5,243.167 553.5,253.5C 535.5,253.5 517.5,253.5 499.5,253.5C 499.5,243.167 499.5,232.833 499.5,222.5 Z"/></g>
<g><path style="opacity:1" fill="#500102" d="M 499.5,222.5 C 517.659,221.503 535.992,221.17 554.5,221.5C 554.5,232.167 554.5,242.833 554.5,253.5C 554.167,253.5 553.833,253.5 553.5,253.5C 553.5,243.167 553.5,232.833 553.5,222.5C 535.5,222.5 517.5,222.5 499.5,222.5 Z"/></g>
<g><path style="opacity:1" fill="#726f6a" d="M 631.5,253.5 C 665.5,253.5 699.5,253.5 733.5,253.5C 733.5,254.5 733.5,255.5 733.5,256.5C 699.348,255.334 665.348,254.334 631.5,253.5 Z"/></g>
<g><path style="opacity:1" fill="#94908a" d="M 368.5,253.5 C 386.5,253.5 404.5,253.5 422.5,253.5C 422.5,257.5 422.5,261.5 422.5,265.5C 404.5,265.5 386.5,265.5 368.5,265.5C 368.5,261.5 368.5,257.5 368.5,253.5 Z"/></g>
<g><path style="opacity:1" fill="#97928c" d="M 499.5,254.5 C 517.5,254.5 535.5,254.5 553.5,254.5C 553.5,258.167 553.5,261.833 553.5,265.5C 535.5,265.5 517.5,265.5 499.5,265.5C 499.5,261.833 499.5,258.167 499.5,254.5 Z"/></g>
<g><path style="opacity:1" fill="#97918b" d="M 630.5,253.5 C 630.833,253.5 631.167,253.5 631.5,253.5C 665.348,254.334 699.348,255.334 733.5,256.5C 733.5,258.833 733.5,261.167 733.5,263.5C 699.319,265.25 664.985,265.917 630.5,265.5C 630.5,261.5 630.5,257.5 630.5,253.5 Z"/></g>
<g><path style="opacity:1" fill="#585551" d="M 761.5,253.5 C 823.837,253.167 886.17,253.5 948.5,254.5C 950.184,256.351 952.017,258.018 954,259.5C 954.829,264.864 954.663,270.198 953.5,275.5C 951.597,276.947 949.93,278.614 948.5,280.5C 904.505,281.5 860.505,281.833 816.5,281.5C 816.5,279.833 816.5,278.167 816.5,276.5C 798.167,276.5 779.833,276.5 761.5,276.5C 761.5,268.833 761.5,261.167 761.5,253.5 Z"/></g>
<g><path style="opacity:1" fill="#575450" d="M 182.5,253.5 C 182.5,254.167 182.5,254.833 182.5,255.5C 145.507,256.484 108.507,257.151 71.5,257.5C 71.5,258.833 71.5,260.167 71.5,261.5C 108.507,261.849 145.507,262.516 182.5,263.5C 182.334,268.179 182.501,272.845 183,277.5C 184.376,278.705 185.542,280.038 186.5,281.5C 139.829,281.833 93.1619,281.5 46.5,280.5C 43.8333,278.167 41.1667,275.833 38.5,273.5C 37.1667,269.5 37.1667,265.5 38.5,261.5C 41.7801,258.379 45.4468,255.879 49.5,254C 93.8321,253.5 138.165,253.333 182.5,253.5 Z"/></g>
<g><path style="opacity:1" fill="#94908a" d="M 182.5,255.5 C 182.5,258.167 182.5,260.833 182.5,263.5C 145.507,262.516 108.507,261.849 71.5,261.5C 71.5,260.167 71.5,258.833 71.5,257.5C 108.507,257.151 145.507,256.484 182.5,255.5 Z"/></g>
<g><path style="opacity:1" fill="#948f8a" d="M 762.5,255.5 C 809.171,255.893 855.838,256.56 902.5,257.5C 902.5,258.833 902.5,260.167 902.5,261.5C 855.838,262.44 809.171,263.107 762.5,263.5C 762.5,260.833 762.5,258.167 762.5,255.5 Z"/></g>
<g><path style="opacity:1" fill="#5f5049" d="M 341.5,221.5 C 341.5,276.5 341.5,331.5 341.5,386.5C 340.502,351.671 340.168,316.671 340.5,281.5C 326.167,281.5 311.833,281.5 297.5,281.5C 295.704,280.207 294.037,278.707 292.5,277C 264.835,276.5 237.169,276.333 209.5,276.5C 209.17,258.326 209.503,240.326 210.5,222.5C 210.5,232.833 210.5,243.167 210.5,253.5C 229.833,253.5 249.167,253.5 268.5,253.5C 248.978,253.837 229.645,254.837 210.5,256.5C 210.5,258.833 210.5,261.167 210.5,263.5C 253.689,264.944 297.022,265.611 340.5,265.5C 340.5,261.833 340.5,258.167 340.5,254.5C 340.5,254.167 340.5,253.833 340.5,253.5C 340.172,242.654 340.506,231.987 341.5,221.5 Z"/></g>
<g><path style="opacity:1" fill="#7a7771" d="M 268.5,253.5 C 292.5,253.5 316.5,253.5 340.5,253.5C 340.5,253.833 340.5,254.167 340.5,254.5C 297.162,254.941 253.829,255.608 210.5,256.5C 229.645,254.837 248.978,253.837 268.5,253.5 Z"/></g>
<g><path style="opacity:1" fill="#97928c" d="M 340.5,254.5 C 340.5,258.167 340.5,261.833 340.5,265.5C 297.022,265.611 253.689,264.944 210.5,263.5C 210.5,261.167 210.5,258.833 210.5,256.5C 253.829,255.608 297.162,254.941 340.5,254.5 Z"/></g>
<g><path style="opacity:1" fill="#595551" d="M 733.5,263.5 C 733.5,269.5 733.5,275.5 733.5,281.5C 699.167,281.5 664.833,281.5 630.5,281.5C 630.5,276.167 630.5,270.833 630.5,265.5C 664.985,265.917 699.319,265.25 733.5,263.5 Z"/></g>
<g><path style="opacity:1" fill="#5c534f" d="M 422.5,222.5 C 423.497,240.326 423.83,258.326 423.5,276.5C 405.167,276.5 386.833,276.5 368.5,276.5C 368.5,272.833 368.5,269.167 368.5,265.5C 386.5,265.5 404.5,265.5 422.5,265.5C 422.5,261.5 422.5,257.5 422.5,253.5C 422.5,243.167 422.5,232.833 422.5,222.5 Z"/></g>
<g><path style="opacity:1" fill="#66473f" d="M 472.5,221.5 C 472.5,276.5 472.5,331.5 472.5,386.5C 471.502,351.671 471.168,316.671 471.5,281.5C 463.167,281.5 454.833,281.5 446.5,281.5C 447.458,280.038 448.624,278.705 450,277.5C 450.5,269.507 450.666,261.507 450.5,253.5C 450.833,253.5 451.167,253.5 451.5,253.5C 451.5,257.5 451.5,261.5 451.5,265.5C 458.167,265.5 464.833,265.5 471.5,265.5C 471.5,261.5 471.5,257.5 471.5,253.5C 471.172,242.654 471.506,231.987 472.5,221.5 Z"/></g>
<g><path style="opacity:1" fill="#94908a" d="M 451.5,253.5 C 458.167,253.5 464.833,253.5 471.5,253.5C 471.5,257.5 471.5,261.5 471.5,265.5C 464.833,265.5 458.167,265.5 451.5,265.5C 451.5,261.5 451.5,257.5 451.5,253.5 Z"/></g>
<g><path style="opacity:1" fill="#5d5854" d="M 499.5,254.5 C 499.5,254.167 499.5,253.833 499.5,253.5C 517.5,253.5 535.5,253.5 553.5,253.5C 553.833,253.5 554.167,253.5 554.5,253.5C 554.5,261.167 554.5,268.833 554.5,276.5C 536.167,276.5 517.833,276.5 499.5,276.5C 499.5,272.833 499.5,269.167 499.5,265.5C 517.5,265.5 535.5,265.5 553.5,265.5C 553.5,261.833 553.5,258.167 553.5,254.5C 535.5,254.5 517.5,254.5 499.5,254.5 Z"/></g>
<g><path style="opacity:1" fill="#5f3c35" d="M 581.5,221.5 C 582.494,231.987 582.828,242.654 582.5,253.5C 582.5,257.5 582.5,261.5 582.5,265.5C 589.167,265.5 595.833,265.5 602.5,265.5C 602.5,261.5 602.5,257.5 602.5,253.5C 602.172,242.654 602.506,231.987 603.5,221.5C 603.5,267.5 603.5,313.5 603.5,359.5C 602.502,333.672 602.169,307.672 602.5,281.5C 595.833,281.5 589.167,281.5 582.5,281.5C 582.832,316.671 582.498,351.671 581.5,386.5C 581.5,331.5 581.5,276.5 581.5,221.5 Z"/></g>
<g><path style="opacity:1" fill="#94908a" d="M 582.5,253.5 C 589.167,253.5 595.833,253.5 602.5,253.5C 602.5,257.5 602.5,261.5 602.5,265.5C 595.833,265.5 589.167,265.5 582.5,265.5C 582.5,261.5 582.5,257.5 582.5,253.5 Z"/></g>
<g><path style="opacity:1" fill="#010000" d="M 446.5,281.5 C 454.833,281.5 463.167,281.5 471.5,281.5C 471.168,316.671 471.502,351.671 472.5,386.5C 481.5,386.5 490.5,386.5 499.5,386.5C 499.5,359.167 499.5,331.833 499.5,304.5C 503.167,304.5 506.833,304.5 510.5,304.5C 510.5,335.167 510.5,365.833 510.5,396.5C 502.16,396.334 493.827,396.5 485.5,397C 476.667,405.833 467.833,414.667 459,423.5C 458.333,469.5 458.333,515.5 459,561.5C 467.833,570.333 476.667,579.167 485.5,588C 493.827,588.5 502.16,588.666 510.5,588.5C 510.5,614.833 510.5,641.167 510.5,667.5C 508.873,669.63 507.04,671.63 505,673.5C 504.5,692.164 504.333,710.83 504.5,729.5C 522.5,729.5 540.5,729.5 558.5,729.5C 558.5,731.167 558.5,732.833 558.5,734.5C 524.167,734.5 489.833,734.5 455.5,734.5C 455.5,696.167 455.5,657.833 455.5,619.5C 447.833,619.5 440.167,619.5 432.5,619.5C 432.5,609.167 432.5,598.833 432.5,588.5C 434.167,588.5 435.833,588.5 437.5,588.5C 437.667,561.165 437.5,533.831 437,506.5C 435.624,505.295 434.458,503.962 433.5,502.5C 433.5,495.833 433.5,489.167 433.5,482.5C 434.458,481.038 435.624,479.705 437,478.5C 437.667,460.167 437.667,441.833 437,423.5C 435.293,421.963 433.793,420.296 432.5,418.5C 432.5,378.5 432.5,338.5 432.5,298.5C 431.5,298.5 430.5,298.5 429.5,298.5C 434.833,292.5 440.5,286.833 446.5,281.5 Z"/></g>
<g><path style="opacity:1" fill="#020100" d="M 603.5,359.5 C 606.5,361.833 609.167,364.5 611.5,367.5C 611.5,378.833 611.5,390.167 611.5,401.5C 604.536,408.965 597.369,416.298 590,423.5C 589.5,478.499 589.333,533.499 589.5,588.5C 596.833,588.5 604.167,588.5 611.5,588.5C 611.5,626.167 611.5,663.833 611.5,701.5C 603.167,701.5 594.833,701.5 586.5,701.5C 586.5,674.167 586.5,646.833 586.5,619.5C 577.161,619.334 567.827,619.5 558.5,620C 550.298,628.369 541.965,636.536 533.5,644.5C 533.5,625.833 533.5,607.167 533.5,588.5C 545.167,588.5 556.833,588.5 568.5,588.5C 568.5,579.5 568.5,570.5 568.5,561.5C 557.012,560.505 545.345,560.172 533.5,560.5C 533.5,542.5 533.5,524.5 533.5,506.5C 535.833,506.5 538.167,506.5 540.5,506.5C 540.5,497.167 540.5,487.833 540.5,478.5C 538.167,478.5 535.833,478.5 533.5,478.5C 533.5,460.5 533.5,442.5 533.5,424.5C 545.345,424.828 557.012,424.495 568.5,423.5C 568.5,414.5 568.5,405.5 568.5,396.5C 556.833,396.5 545.167,396.5 533.5,396.5C 533.5,365.833 533.5,335.167 533.5,304.5C 540.5,304.5 547.5,304.5 554.5,304.5C 554.5,331.833 554.5,359.167 554.5,386.5C 563.5,386.5 572.5,386.5 581.5,386.5C 582.498,351.671 582.832,316.671 582.5,281.5C 589.167,281.5 595.833,281.5 602.5,281.5C 602.169,307.672 602.502,333.672 603.5,359.5 Z"/></g>
<g><path style="opacity:1" fill="#050101" d="M 734.5,221.5 C 734.333,267.501 734.5,313.501 735,359.5C 743.833,368.333 752.667,377.167 761.5,386C 774.162,386.5 786.829,386.667 799.5,386.5C 799.5,399.167 799.5,411.833 799.5,424.5C 791.434,425.028 783.434,426.028 775.5,427.5C 774.808,428.025 774.308,428.692 774,429.5C 773.815,436.747 773.315,443.913 772.5,451C 766.296,451.227 760.129,451.727 754,452.5C 752.234,451.767 750.401,451.433 748.5,451.5C 748.5,433.167 748.5,414.833 748.5,396.5C 739.5,396.5 730.5,396.5 721.5,396.5C 721.5,363.833 721.5,331.167 721.5,298.5C 713.833,298.5 706.167,298.5 698.5,298.5C 698.5,318.5 698.5,338.5 698.5,358.5C 677.167,358.5 655.833,358.5 634.5,358.5C 634.5,338.5 634.5,318.5 634.5,298.5C 633.167,298.5 631.833,298.5 630.5,298.5C 630.5,292.833 630.5,287.167 630.5,281.5C 664.833,281.5 699.167,281.5 733.5,281.5C 733.5,275.5 733.5,269.5 733.5,263.5C 733.5,261.167 733.5,258.833 733.5,256.5C 733.5,255.5 733.5,254.5 733.5,253.5C 733.172,242.654 733.506,231.987 734.5,221.5 Z"/></g>
<g><path style="opacity:1" fill="#44413e" d="M 900.5,298.5 C 908.167,298.5 915.833,298.5 923.5,298.5C 923.5,354.167 923.5,409.833 923.5,465.5C 915.833,465.5 908.167,465.5 900.5,465.5C 900.5,409.833 900.5,354.167 900.5,298.5 Z"/></g>
<g><path style="opacity:1" fill="#474541" d="M 100.5,298.5 C 108.167,298.5 115.833,298.5 123.5,298.5C 123.5,438.833 123.5,579.167 123.5,719.5C 115.833,719.5 108.167,719.5 100.5,719.5C 100.5,579.167 100.5,438.833 100.5,298.5 Z"/></g>
<g><path style="opacity:1" fill="#595652" d="M 101.5,299.5 C 108.5,299.5 115.5,299.5 122.5,299.5C 122.5,439.167 122.5,578.833 122.5,718.5C 115.5,718.5 108.5,718.5 101.5,718.5C 101.5,578.833 101.5,439.167 101.5,299.5 Z"/></g>
<g><path style="opacity:1" fill="#60514b" d="M 203.5,298.5 C 205.63,300.127 207.63,301.96 209.5,304C 214.489,304.499 219.489,304.666 224.5,304.5C 224.5,322.5 224.5,340.5 224.5,358.5C 246.833,358.5 269.167,358.5 291.5,358.5C 264.67,359.664 237.67,359.83 210.5,359C 209.515,349.917 209.182,340.751 209.5,331.5C 206.833,331.5 204.167,331.5 201.5,331.5C 200.856,320.116 201.523,309.116 203.5,298.5 Z"/></g>
<g><path style="opacity:1" fill="#595551" d="M 315.5,299.5 C 318.5,299.5 321.5,299.5 324.5,299.5C 324.5,439.167 324.5,578.833 324.5,718.5C 317.5,718.5 310.5,718.5 303.5,718.5C 303.5,667.167 303.5,615.833 303.5,564.5C 304.122,563.373 304.955,562.373 306,561.5C 306.667,543.167 306.667,524.833 306,506.5C 304.293,504.963 302.793,503.296 301.5,501.5C 302.833,495.5 302.833,489.5 301.5,483.5C 302.793,481.704 304.293,480.037 306,478.5C 306.667,460.167 306.667,441.833 306,423.5C 304.624,422.295 303.458,420.962 302.5,419.5C 302.5,405.167 302.5,390.833 302.5,376.5C 307.797,370.702 313.297,365.035 319,359.5C 319.667,340.833 319.667,322.167 319,303.5C 317.624,302.295 316.458,300.962 315.5,299.5 Z"/></g>
<g><path style="opacity:1" fill="#42403d" d="M 314.5,298.5 C 318.167,298.5 321.833,298.5 325.5,298.5C 325.5,438.833 325.5,579.167 325.5,719.5C 317.833,719.5 310.167,719.5 302.5,719.5C 302.5,668.167 302.5,616.833 302.5,565.5C 302.5,564.833 302.833,564.5 303.5,564.5C 303.5,615.833 303.5,667.167 303.5,718.5C 310.5,718.5 317.5,718.5 324.5,718.5C 324.5,578.833 324.5,439.167 324.5,299.5C 321.5,299.5 318.5,299.5 315.5,299.5C 314.833,299.5 314.5,299.167 314.5,298.5 Z"/></g>
<g><path style="opacity:1" fill="#585551" d="M 429.5,298.5 C 430.5,298.5 431.5,298.5 432.5,298.5C 432.5,338.5 432.5,378.5 432.5,418.5C 424.833,411.167 417.167,403.833 409.5,396.5C 409.5,365.833 409.5,335.167 409.5,304.5C 414.179,304.666 418.845,304.499 423.5,304C 425.37,301.96 427.37,300.127 429.5,298.5 Z"/></g>
<g><path style="opacity:1" fill="#59514c" d="M 630.5,298.5 C 631.833,298.5 633.167,298.5 634.5,298.5C 634.5,318.5 634.5,338.5 634.5,358.5C 633.167,358.5 631.833,358.5 630.5,358.5C 630.5,338.5 630.5,318.5 630.5,298.5 Z"/></g>
<g><path style="opacity:1" fill="#595652" d="M 721.5,396.5 C 720.501,460.331 720.168,524.331 720.5,588.5C 720.5,631.833 720.5,675.167 720.5,718.5C 713.5,718.5 706.5,718.5 699.5,718.5C 699.5,675.167 699.5,631.833 699.5,588.5C 699.829,533.095 699.496,477.762 698.5,422.5C 698.5,410.5 698.5,398.5 698.5,386.5C 703.167,386.5 707.833,386.5 712.5,386.5C 713.494,377.348 713.827,368.015 713.5,358.5C 708.5,358.5 703.5,358.5 698.5,358.5C 698.5,338.5 698.5,318.5 698.5,298.5C 706.167,298.5 713.833,298.5 721.5,298.5C 721.5,331.167 721.5,363.833 721.5,396.5 Z"/></g>
<g><path style="opacity:1" fill="#585551" d="M 816.5,298.5 C 818.5,298.5 820.5,298.5 822.5,298.5C 822.5,318.5 822.5,338.5 822.5,358.5C 814.833,358.5 807.167,358.5 799.5,358.5C 799.5,340.5 799.5,322.5 799.5,304.5C 805.167,304.5 810.833,304.5 816.5,304.5C 816.5,302.5 816.5,300.5 816.5,298.5 Z"/></g>
<g><path style="opacity:1" fill="#595652" d="M 901.5,299.5 C 908.5,299.5 915.5,299.5 922.5,299.5C 922.5,354.5 922.5,409.5 922.5,464.5C 915.5,464.5 908.5,464.5 901.5,464.5C 901.5,409.5 901.5,354.5 901.5,299.5 Z"/></g>
<g><path style="opacity:1" fill="#030000" d="M 224.5,304.5 C 247.167,304.5 269.833,304.5 292.5,304.5C 292.83,322.674 292.497,340.674 291.5,358.5C 269.167,358.5 246.833,358.5 224.5,358.5C 224.5,340.5 224.5,322.5 224.5,304.5 Z"/></g>
<g><path style="opacity:1" fill="#585551" d="M 510.5,304.5 C 518.167,304.5 525.833,304.5 533.5,304.5C 533.5,335.167 533.5,365.833 533.5,396.5C 525.833,396.5 518.167,396.5 510.5,396.5C 510.5,365.833 510.5,335.167 510.5,304.5 Z"/></g>
<g><path style="opacity:1" fill="#020000" d="M 799.5,304.5 C 799.5,322.5 799.5,340.5 799.5,358.5C 786.833,358.5 774.167,358.5 761.5,358.5C 761.5,340.5 761.5,322.5 761.5,304.5C 774.167,304.5 786.833,304.5 799.5,304.5 Z"/></g>
<g><path style="opacity:1" fill="#f5f5f5" d="M 999.5,328.5 C 999.5,333.167 999.5,337.833 999.5,342.5C 992.695,345.098 988.362,342.931 986.5,336C 988.164,328.835 992.498,326.335 999.5,328.5 Z"/></g>
<g><path style="opacity:1" fill="#8e1512" d="M 630.5,358.5 C 631.833,358.5 633.167,358.5 634.5,358.5C 655.833,358.5 677.167,358.5 698.5,358.5C 703.5,358.5 708.5,358.5 713.5,358.5C 713.827,368.015 713.494,377.348 712.5,386.5C 712.5,377.5 712.5,368.5 712.5,359.5C 684.995,359.831 657.662,359.498 630.5,358.5 Z"/></g>
<g><path style="opacity:1" fill="#880909" d="M 761.5,358.5 C 774.167,358.5 786.833,358.5 799.5,358.5C 807.167,358.5 814.833,358.5 822.5,358.5C 829.833,358.5 837.167,358.5 844.5,358.5C 844.827,368.015 844.494,377.348 843.5,386.5C 843.5,377.5 843.5,368.5 843.5,359.5C 815.995,359.831 788.662,359.498 761.5,358.5 Z"/></g>
<g><path style="opacity:1" fill="#5c544f" d="M 611.5,367.5 C 617.965,373.464 624.298,379.631 630.5,386C 631.793,386.49 633.127,386.657 634.5,386.5C 634.5,389.833 634.5,393.167 634.5,396.5C 628.491,396.334 622.491,396.501 616.5,397C 614.963,398.707 613.296,400.207 611.5,401.5C 611.5,390.167 611.5,378.833 611.5,367.5 Z"/></g>
<g><path style="opacity:1" fill="#030202" d="M 302.5,376.5 C 302.5,390.833 302.5,405.167 302.5,419.5C 294.702,412.202 287.035,404.702 279.5,397C 261.17,396.5 242.836,396.333 224.5,396.5C 224.5,393.167 224.5,389.833 224.5,386.5C 247.169,386.667 269.836,386.5 292.5,386C 295.703,382.629 299.036,379.462 302.5,376.5 Z"/></g>
<g><path style="opacity:1" fill="#595450" d="M 201.5,378.5 C 204.297,380.795 206.964,383.295 209.5,386C 214.489,386.499 219.489,386.666 224.5,386.5C 224.5,389.833 224.5,393.167 224.5,396.5C 216.833,396.5 209.167,396.5 201.5,396.5C 201.5,390.5 201.5,384.5 201.5,378.5 Z"/></g>
<g><path style="opacity:1" fill="#010000" d="M 634.5,386.5 C 655.833,386.5 677.167,386.5 698.5,386.5C 698.5,398.5 698.5,410.5 698.5,422.5C 689.702,414.202 681.035,405.702 672.5,397C 659.838,396.5 647.171,396.333 634.5,396.5C 634.5,393.167 634.5,389.833 634.5,386.5 Z"/></g>
<g><path style="opacity:1" fill="#61524c" d="M 799.5,386.5 C 807.167,386.5 814.833,386.5 822.5,386.5C 822.5,389.833 822.5,393.167 822.5,396.5C 816.167,396.5 809.833,396.5 803.5,396.5C 803.666,405.839 803.5,415.173 803,424.5C 802.014,425.171 800.847,425.171 799.5,424.5C 799.5,411.833 799.5,399.167 799.5,386.5 Z"/></g>
<g><path style="opacity:1" fill="#fefffe" d="M 201.5,396.5 C 209.167,396.5 216.833,396.5 224.5,396.5C 242.836,396.333 261.17,396.5 279.5,397C 287.035,404.702 294.702,412.202 302.5,419.5C 303.458,420.962 304.624,422.295 306,423.5C 306.667,441.833 306.667,460.167 306,478.5C 304.293,480.037 302.793,481.704 301.5,483.5C 298.188,486.146 295.188,489.146 292.5,492.5C 295.188,495.854 298.188,498.854 301.5,501.5C 302.793,503.296 304.293,504.963 306,506.5C 306.667,524.833 306.667,543.167 306,561.5C 304.955,562.373 304.122,563.373 303.5,564.5C 302.833,564.5 302.5,564.833 302.5,565.5C 294.702,572.798 287.035,580.298 279.5,588C 261.17,588.5 242.836,588.667 224.5,588.5C 224.167,588.5 223.833,588.5 223.5,588.5C 216.5,588.5 209.5,588.5 202.5,588.5C 202.167,588.5 201.833,588.5 201.5,588.5C 199.833,588.5 198.167,588.5 196.5,588.5C 196.5,524.5 196.5,460.5 196.5,396.5C 198.167,396.5 199.833,396.5 201.5,396.5 Z"/></g>
<g><path style="opacity:1" fill="#fefffe" d="M 409.5,396.5 C 417.167,403.833 424.833,411.167 432.5,418.5C 433.793,420.296 435.293,421.963 437,423.5C 437.667,441.833 437.667,460.167 437,478.5C 435.624,479.705 434.458,481.038 433.5,482.5C 429.603,485.231 426.603,488.731 424.5,493C 426.988,496.655 429.988,499.822 433.5,502.5C 434.458,503.962 435.624,505.295 437,506.5C 437.5,533.831 437.667,561.165 437.5,588.5C 435.833,588.5 434.167,588.5 432.5,588.5C 424.833,588.5 417.167,588.5 409.5,588.5C 409.5,561.167 409.5,533.833 409.5,506.5C 391.167,506.5 372.833,506.5 354.5,506.5C 354.5,533.833 354.5,561.167 354.5,588.5C 345.5,588.5 336.5,588.5 327.5,588.5C 327.5,524.5 327.5,460.5 327.5,396.5C 354.833,396.5 382.167,396.5 409.5,396.5 Z"/></g>
<g><path style="opacity:1" fill="#fefffe" d="M 510.5,396.5 C 518.167,396.5 525.833,396.5 533.5,396.5C 545.167,396.5 556.833,396.5 568.5,396.5C 568.5,405.5 568.5,414.5 568.5,423.5C 540.995,423.169 513.662,423.502 486.5,424.5C 486.5,442.5 486.5,460.5 486.5,478.5C 494.5,478.5 502.5,478.5 510.5,478.5C 518.167,478.5 525.833,478.5 533.5,478.5C 535.833,478.5 538.167,478.5 540.5,478.5C 540.5,487.833 540.5,497.167 540.5,506.5C 538.167,506.5 535.833,506.5 533.5,506.5C 525.833,506.5 518.167,506.5 510.5,506.5C 502.5,506.5 494.5,506.5 486.5,506.5C 486.5,524.5 486.5,542.5 486.5,560.5C 513.662,561.498 540.995,561.831 568.5,561.5C 568.5,570.5 568.5,579.5 568.5,588.5C 556.833,588.5 545.167,588.5 533.5,588.5C 525.833,588.5 518.167,588.5 510.5,588.5C 502.16,588.666 493.827,588.5 485.5,588C 476.667,579.167 467.833,570.333 459,561.5C 458.333,515.5 458.333,469.5 459,423.5C 467.833,414.667 476.667,405.833 485.5,397C 493.827,396.5 502.16,396.334 510.5,396.5 Z"/></g>
<g><path style="opacity:1" fill="#fefffe" d="M 634.5,396.5 C 647.171,396.333 659.838,396.5 672.5,397C 681.035,405.702 689.702,414.202 698.5,422.5C 699.496,477.762 699.829,533.095 699.5,588.5C 699.167,588.5 698.833,588.5 698.5,588.5C 689.5,588.5 680.5,588.5 671.5,588.5C 671.5,561.167 671.5,533.833 671.5,506.5C 659.167,506.5 646.833,506.5 634.5,506.5C 634.167,506.5 633.833,506.5 633.5,506.5C 628.167,506.5 622.833,506.5 617.5,506.5C 617.5,533.833 617.5,561.167 617.5,588.5C 615.5,588.5 613.5,588.5 611.5,588.5C 604.167,588.5 596.833,588.5 589.5,588.5C 589.333,533.499 589.5,478.499 590,423.5C 597.369,416.298 604.536,408.965 611.5,401.5C 613.296,400.207 614.963,398.707 616.5,397C 622.491,396.501 628.491,396.334 634.5,396.5 Z"/></g>
<g><path style="opacity:1" fill="#fefffe" d="M 721.5,396.5 C 730.5,396.5 739.5,396.5 748.5,396.5C 748.5,414.833 748.5,433.167 748.5,451.5C 750.401,451.433 752.234,451.767 754,452.5C 760.129,451.727 766.296,451.227 772.5,451C 773.315,443.913 773.815,436.747 774,429.5C 774.308,428.692 774.808,428.025 775.5,427.5C 783.434,426.028 791.434,425.028 799.5,424.5C 800.847,425.171 802.014,425.171 803,424.5C 803.5,415.173 803.666,405.839 803.5,396.5C 809.833,396.5 816.167,396.5 822.5,396.5C 825.167,396.5 827.833,396.5 830.5,396.5C 830.5,414.833 830.5,433.167 830.5,451.5C 827.833,451.5 825.167,451.5 822.5,451.5C 815.745,450.877 809.412,451.544 803.5,453.5C 802.507,461.65 802.174,469.983 802.5,478.5C 793.651,478.174 784.984,478.507 776.5,479.5C 775.507,487.984 775.174,496.651 775.5,505.5C 784.318,506.493 793.318,506.827 802.5,506.5C 802.174,515.349 802.507,524.016 803.5,532.5C 812.318,533.493 821.318,533.827 830.5,533.5C 830.5,535.5 830.5,537.5 830.5,539.5C 830.5,555.833 830.5,572.167 830.5,588.5C 827.833,588.5 825.167,588.5 822.5,588.5C 822.167,588.5 821.833,588.5 821.5,588.5C 815.5,588.5 809.5,588.5 803.5,588.5C 803.826,579.651 803.493,570.984 802.5,562.5C 800.393,561.532 798.059,561.198 795.5,561.5C 794.167,561.5 792.833,561.5 791.5,561.5C 787.27,560.78 782.937,560.113 778.5,559.5C 777.778,559.082 777.278,558.416 777,557.5C 775.991,548.861 775.491,540.194 775.5,531.5C 766.5,531.5 757.5,531.5 748.5,531.5C 748.5,550.5 748.5,569.5 748.5,588.5C 739.833,588.5 731.167,588.5 722.5,588.5C 721.833,588.5 721.167,588.5 720.5,588.5C 720.168,524.331 720.501,460.331 721.5,396.5 Z"/></g>
<g><path style="opacity:1" fill="#0a0301" d="M 224.5,423.5 C 242.5,423.5 260.5,423.5 278.5,423.5C 278.5,441.833 278.5,460.167 278.5,478.5C 260.167,478.5 241.833,478.5 223.5,478.5C 223.18,460.09 223.514,441.757 224.5,423.5 Z"/></g>
<g><path style="opacity:1" fill="#0a0200" d="M 355.5,423.5 C 373.5,423.5 391.5,423.5 409.5,423.5C 409.5,441.833 409.5,460.167 409.5,478.5C 391.167,478.5 372.833,478.5 354.5,478.5C 354.18,460.09 354.514,441.757 355.5,423.5 Z"/></g>
<g><path style="opacity:1" fill="#000000" d="M 486.5,424.5 C 494.5,424.5 502.5,424.5 510.5,424.5C 510.5,442.5 510.5,460.5 510.5,478.5C 502.5,478.5 494.5,478.5 486.5,478.5C 486.5,460.5 486.5,442.5 486.5,424.5 Z"/></g>
<g><path style="opacity:1" fill="#5d524d" d="M 486.5,424.5 C 513.662,423.502 540.995,423.169 568.5,423.5C 557.012,424.495 545.345,424.828 533.5,424.5C 533.5,442.5 533.5,460.5 533.5,478.5C 525.833,478.5 518.167,478.5 510.5,478.5C 510.5,460.5 510.5,442.5 510.5,424.5C 502.5,424.5 494.5,424.5 486.5,424.5 Z"/></g>
<g><path style="opacity:1" fill="#5c524d" d="M 671.5,424.5 C 659.167,424.5 646.833,424.5 634.5,424.5C 634.5,442.5 634.5,460.5 634.5,478.5C 628.833,478.5 623.167,478.5 617.5,478.5C 617.5,460.167 617.5,441.833 617.5,423.5C 635.674,423.17 653.674,423.503 671.5,424.5 Z"/></g>
<g><path style="opacity:1" fill="#000000" d="M 671.5,424.5 C 671.5,442.5 671.5,460.5 671.5,478.5C 659.167,478.5 646.833,478.5 634.5,478.5C 634.5,460.5 634.5,442.5 634.5,424.5C 646.833,424.5 659.167,424.5 671.5,424.5 Z"/></g>
<g><path style="opacity:1" fill="#575450" d="M 822.5,451.5 C 822.5,456.167 822.5,460.833 822.5,465.5C 816.167,465.5 809.833,465.5 803.5,465.5C 803.5,461.5 803.5,457.5 803.5,453.5C 809.412,451.544 815.745,450.877 822.5,451.5 Z"/></g>
<g><path style="opacity:1" fill="#787878" d="M 839.5,456.5 C 841.978,458.483 842.145,460.816 840,463.5C 839.503,461.19 839.337,458.857 839.5,456.5 Z"/></g>
<g><path style="opacity:1" fill="#cecece" d="M 845.5,462.5 C 847.665,462.116 849.332,462.783 850.5,464.5C 848.5,465.833 846.5,465.833 844.5,464.5C 844.863,463.817 845.196,463.15 845.5,462.5 Z"/></g>
<g><path style="opacity:1" fill="#e0e0e0" d="M 569.5,469.5 C 571.465,469.948 571.798,470.948 570.5,472.5C 569.614,471.675 569.281,470.675 569.5,469.5 Z"/></g>
<g><path style="opacity:1" fill="#f2f2f2" d="M 65.5,475.5 C 67.337,475.639 67.6704,476.306 66.5,477.5C 65.7025,477.043 65.3691,476.376 65.5,475.5 Z"/></g>
<g><path style="opacity:1" fill="#730305" d="M 803.5,453.5 C 803.5,457.5 803.5,461.5 803.5,465.5C 803.5,470.167 803.5,474.833 803.5,479.5C 794.5,479.5 785.5,479.5 776.5,479.5C 784.984,478.507 793.651,478.174 802.5,478.5C 802.174,469.983 802.507,461.65 803.5,453.5 Z"/></g>
<g><path style="opacity:1" fill="#575450" d="M 830.5,539.5 C 830.5,537.5 830.5,535.5 830.5,533.5C 821.318,533.827 812.318,533.493 803.5,532.5C 803.5,523.5 803.5,514.5 803.5,505.5C 799.833,505.5 796.167,505.5 792.5,505.5C 792.169,497.804 792.503,490.138 793.5,482.5C 794.308,482.192 794.975,481.692 795.5,481C 838.833,480.333 882.167,480.333 925.5,481C 926.025,481.692 926.692,482.192 927.5,482.5C 928.5,500.821 928.833,519.155 928.5,537.5C 895.951,539.455 863.284,540.122 830.5,539.5 Z"/></g>
<g><path style="opacity:1" fill="#220f07" d="M 301.5,483.5 C 302.833,489.5 302.833,495.5 301.5,501.5C 298.188,498.854 295.188,495.854 292.5,492.5C 295.188,489.146 298.188,486.146 301.5,483.5 Z"/></g>
<g><path style="opacity:1" fill="#644e47" d="M 433.5,482.5 C 433.5,489.167 433.5,495.833 433.5,502.5C 429.988,499.822 426.988,496.655 424.5,493C 426.603,488.731 429.603,485.231 433.5,482.5 Z"/></g>
<g><path style="opacity:1" fill="#4a6630" d="M 837.5,490.5 C 841.009,490.458 844.342,491.124 847.5,492.5C 847.5,494.5 847.5,496.5 847.5,498.5C 845.406,499.242 843.239,499.909 841,500.5C 837.731,500.397 835.898,498.73 835.5,495.5C 835.986,493.696 836.653,492.029 837.5,490.5 Z"/></g>
<g><path style="opacity:1" fill="#f5110c" d="M 871.5,490.5 C 879.704,489.348 882.037,492.348 878.5,499.5C 870.152,501.1 867.818,498.1 871.5,490.5 Z"/></g>
<g><path style="opacity:1" fill="#f0f0f0" d="M 554.5,497.5 C 558.35,497.701 559.35,499.534 557.5,503C 553.537,503.118 552.537,501.284 554.5,497.5 Z"/></g>
<g><path style="opacity:1" fill="#0a0301" d="M 223.5,506.5 C 241.833,506.5 260.167,506.5 278.5,506.5C 278.5,524.833 278.5,543.167 278.5,561.5C 260.497,561.667 242.497,561.5 224.5,561C 223.508,542.91 223.174,524.743 223.5,506.5 Z"/></g>
<g><path style="opacity:1" fill="#000000" d="M 510.5,506.5 C 510.5,524.5 510.5,542.5 510.5,560.5C 502.5,560.5 494.5,560.5 486.5,560.5C 486.5,542.5 486.5,524.5 486.5,506.5C 494.5,506.5 502.5,506.5 510.5,506.5 Z"/></g>
<g><path style="opacity:1" fill="#5d524d" d="M 510.5,506.5 C 518.167,506.5 525.833,506.5 533.5,506.5C 533.5,524.5 533.5,542.5 533.5,560.5C 545.345,560.172 557.012,560.505 568.5,561.5C 540.995,561.831 513.662,561.498 486.5,560.5C 494.5,560.5 502.5,560.5 510.5,560.5C 510.5,542.5 510.5,524.5 510.5,506.5 Z"/></g>
<g><path style="opacity:1" fill="#595551" d="M 633.5,506.5 C 633.5,577.167 633.5,647.833 633.5,718.5C 626.978,718.177 620.645,718.51 614.5,719.5C 614.813,723.042 614.479,726.375 613.5,729.5C 614.139,719.773 613.472,710.44 611.5,701.5C 611.5,663.833 611.5,626.167 611.5,588.5C 613.5,588.5 615.5,588.5 617.5,588.5C 617.5,561.167 617.5,533.833 617.5,506.5C 622.833,506.5 628.167,506.5 633.5,506.5 Z"/></g>
<g><path style="opacity:1" fill="#44423e" d="M 633.5,506.5 C 633.833,506.5 634.167,506.5 634.5,506.5C 634.5,577.5 634.5,648.5 634.5,719.5C 627.833,719.5 621.167,719.5 614.5,719.5C 620.645,718.51 626.978,718.177 633.5,718.5C 633.5,647.833 633.5,577.167 633.5,506.5 Z"/></g>
<g><path style="opacity:1" fill="#961e1e" d="M 775.5,505.5 C 781.167,505.5 786.833,505.5 792.5,505.5C 796.167,505.5 799.833,505.5 803.5,505.5C 803.5,514.5 803.5,523.5 803.5,532.5C 802.507,524.016 802.174,515.349 802.5,506.5C 793.318,506.827 784.318,506.493 775.5,505.5 Z"/></g>
<g><path style="opacity:1" fill="#010101" d="M 913.5,508.5 C 912.909,509.151 912.243,509.818 911.5,510.5C 876.838,511.667 842.171,511.833 807.5,511C 806.756,509.961 805.756,509.461 804.5,509.5C 805.429,508.685 806.429,507.852 807.5,507C 824.833,506.833 842.167,506.667 859.5,506.5C 877.65,506.526 895.65,507.193 913.5,508.5 Z"/></g>
<g><path style="opacity:1" fill="#403e3b" d="M 913.5,508.5 C 914.043,508.56 914.376,508.893 914.5,509.5C 913.833,510.167 913.167,510.833 912.5,511.5C 876.833,512.833 841.167,512.833 805.5,511.5C 805.137,510.817 804.804,510.15 804.5,509.5C 805.756,509.461 806.756,509.961 807.5,511C 842.171,511.833 876.838,511.667 911.5,510.5C 912.243,509.818 912.909,509.151 913.5,508.5 Z"/></g>
<g><path style="opacity:1" fill="#44413e" d="M 900.5,554.5 C 908.167,554.5 915.833,554.5 923.5,554.5C 923.5,609.5 923.5,664.5 923.5,719.5C 915.833,719.5 908.167,719.5 900.5,719.5C 900.5,664.5 900.5,609.5 900.5,554.5 Z"/></g>
<g><path style="opacity:1" fill="#595652" d="M 901.5,555.5 C 908.5,555.5 915.5,555.5 922.5,555.5C 922.5,609.833 922.5,664.167 922.5,718.5C 915.5,718.5 908.5,718.5 901.5,718.5C 901.5,664.167 901.5,609.833 901.5,555.5 Z"/></g>
<g><path style="opacity:1" fill="#f2f2f2" d="M 25.5,559.5 C 30.8351,559.005 33.3351,561.338 33,566.5C 30.2935,569.978 27.2935,570.311 24,567.5C 23.1093,564.502 23.6093,561.836 25.5,559.5 Z"/></g>
<g><path style="opacity:1" fill="#6d0200" d="M 778.5,559.5 C 782.937,560.113 787.27,560.78 791.5,561.5C 786.706,562.097 782.373,561.43 778.5,559.5 Z"/></g>
<g><path style="opacity:1" fill="#b5b5b5" d="M -0.5,577.5 C -0.5,577.167 -0.5,576.833 -0.5,576.5C 0.575371,575.438 1.57537,575.438 2.5,576.5C 1.86709,578.519 0.86709,578.853 -0.5,577.5 Z"/></g>
<g><path style="opacity:1" fill="#636363" d="M 183.5,581.5 C 184.613,582.946 184.78,584.613 184,586.5C 182.212,584.977 182.045,583.31 183.5,581.5 Z"/></g>
<g><path style="opacity:1" fill="#464340" d="M 201.5,588.5 C 201.833,588.5 202.167,588.5 202.5,588.5C 202.5,631.833 202.5,675.167 202.5,718.5C 209.5,718.5 216.5,718.5 223.5,718.5C 223.5,675.167 223.5,631.833 223.5,588.5C 223.833,588.5 224.167,588.5 224.5,588.5C 224.5,632.167 224.5,675.833 224.5,719.5C 216.833,719.5 209.167,719.5 201.5,719.5C 201.5,675.833 201.5,632.167 201.5,588.5 Z"/></g>
<g><path style="opacity:1" fill="#595652" d="M 202.5,588.5 C 209.5,588.5 216.5,588.5 223.5,588.5C 223.5,631.833 223.5,675.167 223.5,718.5C 216.5,718.5 209.5,718.5 202.5,718.5C 202.5,675.167 202.5,631.833 202.5,588.5 Z"/></g>
<g><path style="opacity:1" fill="#585551" d="M 409.5,588.5 C 417.167,588.5 424.833,588.5 432.5,588.5C 432.5,598.833 432.5,609.167 432.5,619.5C 430.833,619.5 429.167,619.5 427.5,619.5C 427.5,628.5 427.5,637.5 427.5,646.5C 421.5,646.5 415.5,646.5 409.5,646.5C 409.5,627.167 409.5,607.833 409.5,588.5 Z"/></g>
<g><path style="opacity:1" fill="#585451" d="M 510.5,588.5 C 518.167,588.5 525.833,588.5 533.5,588.5C 533.5,607.167 533.5,625.833 533.5,644.5C 526.167,652.5 518.5,660.167 510.5,667.5C 510.5,641.167 510.5,614.833 510.5,588.5 Z"/></g>
<g><path style="opacity:1" fill="#403e3a" d="M 698.5,588.5 C 698.833,588.5 699.167,588.5 699.5,588.5C 699.5,631.833 699.5,675.167 699.5,718.5C 706.5,718.5 713.5,718.5 720.5,718.5C 720.5,675.167 720.5,631.833 720.5,588.5C 721.167,588.5 721.833,588.5 722.5,588.5C 722.5,632.167 722.5,675.833 722.5,719.5C 714.5,719.5 706.5,719.5 698.5,719.5C 698.5,675.833 698.5,632.167 698.5,588.5 Z"/></g>
<g><path style="opacity:1" fill="#5a5651" d="M 802.5,562.5 C 803.493,570.984 803.826,579.651 803.5,588.5C 809.5,588.5 815.5,588.5 821.5,588.5C 821.5,631.833 821.5,675.167 821.5,718.5C 814.5,718.5 807.5,718.5 800.5,718.5C 799.838,666.156 800.504,614.156 802.5,562.5 Z"/></g>
<g><path style="opacity:1" fill="#484340" d="M 795.5,561.5 C 798.059,561.198 800.393,561.532 802.5,562.5C 800.504,614.156 799.838,666.156 800.5,718.5C 807.5,718.5 814.5,718.5 821.5,718.5C 821.5,675.167 821.5,631.833 821.5,588.5C 821.833,588.5 822.167,588.5 822.5,588.5C 822.5,632.167 822.5,675.833 822.5,719.5C 814.833,719.5 807.167,719.5 799.5,719.5C 799.5,667.167 799.5,614.833 799.5,562.5C 797.901,562.768 796.568,562.434 795.5,561.5 Z"/></g>
<g><path style="opacity:1" fill="#f2f2f2" d="M 847.5,590.5 C 852.984,590.481 854.65,592.981 852.5,598C 845.384,599.151 843.718,596.651 847.5,590.5 Z"/></g>
<g><path style="opacity:1" fill="#878787" d="M 491.5,599.5 C 491.56,598.957 491.893,598.624 492.5,598.5C 493.803,601.645 493.803,604.645 492.5,607.5C 492.806,604.615 492.473,601.948 491.5,599.5 Z"/></g>
<g><path style="opacity:1" fill="#bfbfbf" d="M 760.5,597.5 C 762.465,597.948 762.798,598.948 761.5,600.5C 760.614,599.675 760.281,598.675 760.5,597.5 Z"/></g>
<g><path style="opacity:1" fill="#f0f0f0" d="M 491.5,599.5 C 492.473,601.948 492.806,604.615 492.5,607.5C 489.024,605.141 488.691,602.474 491.5,599.5 Z"/></g>
<g><path style="opacity:1" fill="#f41000" d="M 432.5,619.5 C 440.167,619.5 447.833,619.5 455.5,619.5C 455.5,657.833 455.5,696.167 455.5,734.5C 455.5,738.5 455.5,742.5 455.5,746.5C 455.5,751.833 455.5,757.167 455.5,762.5C 455.5,769.5 455.5,776.5 455.5,783.5C 464.5,783.5 473.5,783.5 482.5,783.5C 482.5,792.833 482.5,802.167 482.5,811.5C 455.167,811.5 427.833,811.5 400.5,811.5C 400.5,802.167 400.5,792.833 400.5,783.5C 409.5,783.5 418.5,783.5 427.5,783.5C 427.5,776.5 427.5,769.5 427.5,762.5C 427.5,757.5 427.5,752.5 427.5,747.5C 427.5,747.167 427.5,746.833 427.5,746.5C 427.5,742.833 427.5,739.167 427.5,735.5C 427.5,735.167 427.5,734.833 427.5,734.5C 427.5,729.5 427.5,724.5 427.5,719.5C 427.5,704.5 427.5,689.5 427.5,674.5C 421.5,674.5 415.5,674.5 409.5,674.5C 406.5,674.5 403.5,674.5 400.5,674.5C 400.5,665.167 400.5,655.833 400.5,646.5C 403.5,646.5 406.5,646.5 409.5,646.5C 415.5,646.5 421.5,646.5 427.5,646.5C 427.5,637.5 427.5,628.5 427.5,619.5C 429.167,619.5 430.833,619.5 432.5,619.5 Z"/></g>
<g><path style="opacity:1" fill="#f51000" d="M 611.5,701.5 C 613.472,710.44 614.139,719.773 613.5,729.5C 604.5,729.5 595.5,729.5 586.5,729.5C 586.5,731.167 586.5,732.833 586.5,734.5C 586.5,734.833 586.5,735.167 586.5,735.5C 586.5,739.167 586.5,742.833 586.5,746.5C 586.5,746.833 586.5,747.167 586.5,747.5C 586.5,752.5 586.5,757.5 586.5,762.5C 586.5,778.833 586.5,795.167 586.5,811.5C 577.167,811.5 567.833,811.5 558.5,811.5C 558.5,795.167 558.5,778.833 558.5,762.5C 558.5,757.167 558.5,751.833 558.5,746.5C 558.5,742.5 558.5,738.5 558.5,734.5C 558.5,732.833 558.5,731.167 558.5,729.5C 540.5,729.5 522.5,729.5 504.5,729.5C 504.333,710.83 504.5,692.164 505,673.5C 507.04,671.63 508.873,669.63 510.5,667.5C 518.5,660.167 526.167,652.5 533.5,644.5C 541.965,636.536 550.298,628.369 558.5,620C 567.827,619.5 577.161,619.334 586.5,619.5C 586.5,646.833 586.5,674.167 586.5,701.5C 594.833,701.5 603.167,701.5 611.5,701.5 Z"/></g>
<g><path style="opacity:1" fill="#cecece" d="M 851.5,644.5 C 854.861,645.203 855.194,646.537 852.5,648.5C 850.358,647.563 850.024,646.23 851.5,644.5 Z"/></g>
<g><path style="opacity:1" fill="#010101" d="M 557.5,648.5 C 558.497,665.992 558.83,683.659 558.5,701.5C 550.167,701.5 541.833,701.5 533.5,701.5C 533.5,692.167 533.5,682.833 533.5,673.5C 541.5,665.167 549.5,656.833 557.5,648.5 Z"/></g>
<g><path style="opacity:1" fill="#dadada" d="M 456.5,649.5 C 459.957,649.667 460.29,650.667 457.5,652.5C 456.614,651.675 456.281,650.675 456.5,649.5 Z"/></g>
<g><path style="opacity:1" fill="#585551" d="M 409.5,674.5 C 415.5,674.5 421.5,674.5 427.5,674.5C 427.5,689.5 427.5,704.5 427.5,719.5C 421.5,719.5 415.5,719.5 409.5,719.5C 409.5,704.5 409.5,689.5 409.5,674.5 Z"/></g>
<g><path style="opacity:1" fill="#614d48" d="M 533.5,673.5 C 533.5,682.833 533.5,692.167 533.5,701.5C 532.173,697.217 531.507,692.551 531.5,687.5C 531.507,682.449 532.173,677.783 533.5,673.5 Z"/></g>
<g><path style="opacity:1" fill="#9c0900" d="M 557.5,648.5 C 557.56,647.957 557.893,647.624 558.5,647.5C 559.827,665.662 559.827,683.662 558.5,701.5C 558.83,683.659 558.497,665.992 557.5,648.5 Z"/></g>
<g><path style="opacity:1" fill="#a4a4a4" d="M 72.5,701.5 C 73.675,701.281 74.675,701.614 75.5,702.5C 73.9483,703.798 72.9483,703.465 72.5,701.5 Z"/></g>
<g><path style="opacity:1" fill="#3a3835" d="M 706.5,734.5 C 787.507,733.836 868.174,734.503 948.5,736.5C 867.736,735.836 787.069,735.169 706.5,734.5 Z"/></g>
<g><path style="opacity:1" fill="#97928c" d="M 427.5,735.5 C 427.5,739.167 427.5,742.833 427.5,746.5C 374.428,746.829 321.428,746.495 268.5,745.5C 223.833,744.833 179.167,744.167 134.5,743.5C 114.007,742.503 93.3401,742.169 72.5,742.5C 72.5,741.5 72.5,740.5 72.5,739.5C 93.3401,739.831 114.007,739.497 134.5,738.5C 232.092,736.64 329.758,735.64 427.5,735.5 Z"/></g>
<g><path style="opacity:1" fill="#585551" d="M 586.5,735.5 C 586.5,735.167 586.5,734.833 586.5,734.5C 626.5,734.5 666.5,734.5 706.5,734.5C 787.069,735.169 867.736,735.836 948.5,736.5C 953.345,738.885 955.345,742.885 954.5,748.5C 955.262,754.149 953.262,758.483 948.5,761.5C 827.835,762.5 707.169,762.833 586.5,762.5C 586.5,757.5 586.5,752.5 586.5,747.5C 626.847,748.161 666.847,747.494 706.5,745.5C 751.167,744.833 795.833,744.167 840.5,743.5C 861.5,743.5 882.5,743.5 903.5,743.5C 903.5,741.833 903.5,740.167 903.5,738.5C 882.5,738.5 861.5,738.5 840.5,738.5C 818.343,737.167 795.843,736.5 773,736.5C 710.835,735.878 648.668,735.545 586.5,735.5 Z"/></g>
<g><path style="opacity:1" fill="#7b7772" d="M 268.5,734.5 C 321.5,734.5 374.5,734.5 427.5,734.5C 427.5,734.833 427.5,735.167 427.5,735.5C 329.758,735.64 232.092,736.64 134.5,738.5C 179.167,737.167 223.833,735.833 268.5,734.5 Z"/></g>
<g><path style="opacity:1" fill="#96918b" d="M 586.5,735.5 C 648.668,735.545 710.835,735.878 773,736.5C 795.843,736.5 818.343,737.167 840.5,738.5C 860.993,739.497 881.66,739.831 902.5,739.5C 902.5,740.5 902.5,741.5 902.5,742.5C 881.66,742.169 860.993,742.503 840.5,743.5C 795.833,744.167 751.167,744.833 706.5,745.5C 666.572,746.494 626.572,746.827 586.5,746.5C 586.5,742.833 586.5,739.167 586.5,735.5 Z"/></g>
<g><path style="opacity:1" fill="#575450" d="M 268.5,734.5 C 223.833,735.833 179.167,737.167 134.5,738.5C 113.5,738.5 92.5,738.5 71.5,738.5C 71.5,740.167 71.5,741.833 71.5,743.5C 92.5,743.5 113.5,743.5 134.5,743.5C 179.167,744.167 223.833,744.833 268.5,745.5C 321.156,747.496 374.156,748.162 427.5,747.5C 427.5,752.5 427.5,757.5 427.5,762.5C 300.498,762.833 173.498,762.5 46.5,761.5C 43.8333,759.167 41.1667,756.833 38.5,754.5C 37.1667,750.5 37.1667,746.5 38.5,742.5C 41.7801,739.379 45.4468,736.879 49.5,735C 122.499,734.5 195.499,734.333 268.5,734.5 Z"/></g>
<g><path style="opacity:1" fill="#948f89" d="M 455.5,734.5 C 489.833,734.5 524.167,734.5 558.5,734.5C 558.5,738.5 558.5,742.5 558.5,746.5C 524.167,746.5 489.833,746.5 455.5,746.5C 455.5,742.5 455.5,738.5 455.5,734.5 Z"/></g>
<g><path style="opacity:1" fill="#78746f" d="M 134.5,738.5 C 114.007,739.497 93.3401,739.831 72.5,739.5C 72.5,740.5 72.5,741.5 72.5,742.5C 93.3401,742.169 114.007,742.503 134.5,743.5C 113.5,743.5 92.5,743.5 71.5,743.5C 71.5,741.833 71.5,740.167 71.5,738.5C 92.5,738.5 113.5,738.5 134.5,738.5 Z"/></g>
<g><path style="opacity:1" fill="#78746f" d="M 840.5,738.5 C 861.5,738.5 882.5,738.5 903.5,738.5C 903.5,740.167 903.5,741.833 903.5,743.5C 882.5,743.5 861.5,743.5 840.5,743.5C 860.993,742.503 881.66,742.169 902.5,742.5C 902.5,741.5 902.5,740.5 902.5,739.5C 881.66,739.831 860.993,739.497 840.5,738.5 Z"/></g>
<g><path style="opacity:1" fill="#706c67" d="M 268.5,745.5 C 321.428,746.495 374.428,746.829 427.5,746.5C 427.5,746.833 427.5,747.167 427.5,747.5C 374.156,748.162 321.156,747.496 268.5,745.5 Z"/></g>
<g><path style="opacity:1" fill="#706c67" d="M 706.5,745.5 C 666.847,747.494 626.847,748.161 586.5,747.5C 586.5,747.167 586.5,746.833 586.5,746.5C 626.572,746.827 666.572,746.494 706.5,745.5 Z"/></g>
<g><path style="opacity:1" fill="#585551" d="M 455.5,746.5 C 489.833,746.5 524.167,746.5 558.5,746.5C 558.5,751.833 558.5,757.167 558.5,762.5C 524.167,762.5 489.833,762.5 455.5,762.5C 455.5,757.167 455.5,751.833 455.5,746.5 Z"/></g>
<g><path style="opacity:1" fill="#dcdcdc" d="M 518.5,821.5 C 520.465,821.948 520.798,822.948 519.5,824.5C 518.614,823.675 518.281,822.675 518.5,821.5 Z"/></g>
<g><path style="opacity:1" fill="#e6e6e6" d="M 254.5,862.5 C 258.068,862.759 259.401,864.759 258.5,868.5C 253.74,868.799 252.406,866.799 254.5,862.5 Z"/></g>
<g><path style="opacity:1" fill="#e5e5e5" d="M 375.5,873.5 C 378.5,873.167 379.833,874.5 379.5,877.5C 375.56,878.234 374.227,876.901 375.5,873.5 Z"/></g>
<g><path style="opacity:1" fill="#e9e9e9" d="M 668.5,873.5 C 675.004,873.138 676.671,875.638 673.5,881C 666.745,881.756 665.078,879.256 668.5,873.5 Z"/></g>
<g><path style="opacity:1" fill="#ededed" d="M 868.5,875.5 C 874.168,874.671 876.668,877.005 876,882.5C 873.294,885.978 870.294,886.311 867,883.5C 866.109,880.502 866.609,877.836 868.5,875.5 Z"/></g>
<g><path style="opacity:1" fill="#d8d8d8" d="M 243.5,946.5 C 244.5,946.5 245.5,946.5 246.5,946.5C 246.5,947.833 246.5,949.167 246.5,950.5C 243.046,950.733 242.046,949.4 243.5,946.5 Z"/></g>
<g><path style="opacity:1" fill="#f9f9f9" d="M 226.5,958.5 C 236.554,958.379 239.554,962.879 235.5,972C 225.961,975.66 221.794,972.493 223,962.5C 224.376,961.295 225.542,959.962 226.5,958.5 Z"/></g>
<g><path style="opacity:1" fill="#efefef" d="M 643.5,979.5 C 650.297,980.107 651.964,983.274 648.5,989C 643.932,990.65 641.266,989.15 640.5,984.5C 641.092,982.577 642.092,980.911 643.5,979.5 Z"/></g>
<g><path style="opacity:1" fill="#e5e5e5" d="M 746.5,988.5 C 748.465,988.948 748.798,989.948 747.5,991.5C 746.614,990.675 746.281,989.675 746.5,988.5 Z"/></g>
</svg>
