<?xml version="1.0" encoding="UTF-8"?>
<svg version="1.1" xmlns="http://www.w3.org/2000/svg" width="256" height="256">
<path d="M0 0 C3.69204347 2.8395812 5.29810533 5.47365614 6.13818359 10.08984375 C7.85916974 25.65552341 7.85916974 25.65552341 4.30126953 30.67822266 C2.64453125 32.34375 2.64453125 32.34375 -0.296875 34.69921875 C1.28116654 40.30398698 3.96728885 45.04972501 6.828125 50.07421875 C7.29605469 50.90566406 7.76398438 51.73710938 8.24609375 52.59375 C9.39383049 54.63156829 10.54625782 56.66657444 11.703125 58.69921875 C11.69566757 58.08027237 11.68821014 57.46132599 11.68052673 56.82362366 C11.61142575 50.34982951 11.60573978 43.8781286 11.63598633 37.40405273 C11.6390583 34.99191017 11.62625213 32.57969083 11.59692383 30.16772461 C11.55742823 26.68852171 11.5760577 23.21359693 11.60546875 19.734375 C11.58089096 18.66526382 11.55631317 17.59615265 11.5309906 16.49464417 C11.64795511 10.32390585 12.64484394 7.04988617 16.96313477 2.52172852 C20.83759678 -1.07390532 23.88333279 -2.45767946 29.1640625 -2.53125 C30.00195312 -2.49644531 30.83984375 -2.46164063 31.703125 -2.42578125 C32.54101562 -2.46058594 33.37890625 -2.49539062 34.2421875 -2.53125 C39.46799032 -2.4584447 42.58295242 -1.09030717 46.45678711 2.42602539 C51.08251651 7.28042032 51.72664506 10.98662289 51.72279358 17.56190491 C51.67634201 18.78413254 51.62989044 20.00636017 51.58203125 21.265625 C51.56292946 23.17757912 51.56292946 23.17757912 51.54344177 25.12815857 C51.50180104 28.48912379 51.42125327 31.84440052 51.32110596 35.20379639 C51.22839875 38.64253019 51.18779981 42.08185642 51.14257812 45.52148438 C51.04367652 52.24914663 50.88851821 58.97340672 50.703125 65.69921875 C47.073125 65.69921875 43.443125 65.69921875 39.703125 65.69921875 C39.703125 56.45921875 39.703125 47.21921875 39.703125 37.69921875 C34.423125 37.69921875 29.143125 37.69921875 23.703125 37.69921875 C23.703125 46.93921875 23.703125 56.17921875 23.703125 65.69921875 C21.063125 65.69921875 18.423125 65.69921875 15.703125 65.69921875 C17.26028389 68.70201947 18.8248405 71.700908 20.390625 74.69921875 C20.82568359 75.53839844 21.26074219 76.37757812 21.70898438 77.2421875 C24.48610423 82.54957211 27.44349358 87.67333213 30.703125 92.69921875 C31.033125 92.36921875 31.363125 92.03921875 31.703125 91.69921875 C36.59883374 90.96381186 40.52061428 91.12337439 44.640625 94.01171875 C46.93728402 95.81972691 48.02809863 97.18667919 49.703125 99.69921875 C49.703125 101.01921875 49.703125 102.33921875 49.703125 103.69921875 C51.188125 103.51359375 51.188125 103.51359375 52.703125 103.32421875 C57.82212229 103.28251612 61.03771067 106.44669017 64.703125 109.69921875 C65.363125 110.35921875 66.023125 111.01921875 66.703125 111.69921875 C68.0025 110.95671875 68.0025 110.95671875 69.328125 110.19921875 C73.07228182 108.53514905 74.67089439 108.07887558 78.703125 108.69921875 C83.23258597 110.60290524 87.47007077 112.84978139 91.515625 115.63671875 C92.2375 115.98734375 92.959375 116.33796875 93.703125 116.69921875 C94.38375 116.39757812 95.064375 116.0959375 95.765625 115.78515625 C99.8354245 114.28062931 103.58496391 114.35728265 107.890625 114.38671875 C109.16764282 114.39517822 109.16764282 114.39517822 110.47045898 114.40380859 C121.68609039 114.62046323 130.89652097 117.87124663 139.5234375 125.2578125 C147.9523145 134.08907308 149.46002316 147.70459388 150.078125 159.38671875 C149.8088247 168.06769318 145.17757802 174.6099746 140.1875 181.359375 C138.14728558 184.57539721 137.78498791 186.93352477 137.703125 190.69921875 C136.70345703 190.73789062 136.70345703 190.73789062 135.68359375 190.77734375 C129.37111396 191.16580405 124.19855287 192.42125464 118.3203125 194.7109375 C106.62995208 199.12535718 94.4824646 198.77338354 82.703125 194.69921875 C76.61234361 191.58461463 71.2256654 187.84555783 66.703125 182.69921875 C67.15278178 189.05151297 68.74332074 193.5098382 71.765625 199.07421875 C75.703125 206.49152644 75.703125 206.49152644 75.703125 208.69921875 C76.59 208.59609375 77.476875 208.49296875 78.390625 208.38671875 C81.703125 208.69921875 81.703125 208.69921875 84.578125 210.82421875 C86.703125 213.69921875 86.703125 213.69921875 87.328125 216.69921875 C86.01889762 222.98351016 79.77962853 226.34681076 74.703125 229.69921875 C74.043125 229.69921875 73.383125 229.69921875 72.703125 229.69921875 C72.703125 231.01921875 72.703125 232.33921875 72.703125 233.69921875 C69.073125 234.02921875 65.443125 234.35921875 61.703125 234.69921875 C61.703125 240.63921875 61.703125 246.57921875 61.703125 252.69921875 C57.413125 252.69921875 53.123125 252.69921875 48.703125 252.69921875 C48.703125 246.42921875 48.703125 240.15921875 48.703125 233.69921875 C42.103125 233.69921875 35.503125 233.69921875 28.703125 233.69921875 C26.30945156 213.7519401 26.30945156 213.7519401 30.2734375 207.04052734 C34.07530592 202.47548974 38.4866572 198.68219686 43.234375 195.12768555 C43.7190625 194.6562915 44.20375 194.18489746 44.703125 193.69921875 C44.703125 192.70921875 44.703125 191.71921875 44.703125 190.69921875 C43.96787598 190.75158691 43.23262695 190.80395508 42.47509766 190.85791016 C39.0936687 191.06775532 35.71360766 191.19639578 32.328125 191.32421875 C31.17183594 191.40800781 30.01554687 191.49179688 28.82421875 191.578125 C22.51308924 191.75640549 17.98726036 191.06777207 12.91015625 187.1484375 C5.69335335 178.85866797 7.5133475 167.22699133 7.765625 156.88671875 C7.80679926 153.65273377 7.83375349 150.4193579 7.84580994 147.18513489 C7.85721976 145.1815799 7.88744567 143.17801921 7.9389801 141.1750946 C8.00783644 136.1646922 7.99393645 132.78267198 4.703125 128.69921875 C5.0125 129.29734375 5.321875 129.89546875 5.640625 130.51171875 C7.73956031 134.83305615 8.40507913 138.94464946 7.703125 143.69921875 C5.828125 146.32421875 5.828125 146.32421875 3.703125 148.69921875 C2.98904166 150.68278358 2.31694758 152.68237312 1.703125 154.69921875 C1.043125 155.68921875 0.383125 156.67921875 -0.296875 157.69921875 C0.19208252 158.05733643 0.68104004 158.4154541 1.18481445 158.78442383 C3.41650219 161.59888385 3.04262505 163.78404826 2.99609375 167.3359375 C2.98642578 168.63466797 2.97675781 169.93339844 2.96679688 171.27148438 C2.94173085 172.64323514 2.91633601 174.01497993 2.890625 175.38671875 C2.8755752 176.77016799 2.8618873 178.15363276 2.84960938 179.53710938 C2.81419723 182.92487082 2.76480554 186.31185014 2.703125 189.69921875 C5.343125 189.69921875 7.983125 189.69921875 10.703125 189.69921875 C10.703125 210.48921875 10.703125 231.27921875 10.703125 252.69921875 C6.413125 252.69921875 2.123125 252.69921875 -2.296875 252.69921875 C-2.296875 239.49921875 -2.296875 226.29921875 -2.296875 212.69921875 C-5.596875 212.69921875 -8.896875 212.69921875 -12.296875 212.69921875 C-12.296875 208.40921875 -12.296875 204.11921875 -12.296875 199.69921875 C-8.996875 199.69921875 -5.696875 199.69921875 -2.296875 199.69921875 C-2.296875 196.72921875 -2.296875 193.75921875 -2.296875 190.69921875 C-4.276875 190.69921875 -6.256875 190.69921875 -8.296875 190.69921875 C-8.791875 186.24421875 -8.791875 186.24421875 -9.296875 181.69921875 C-10.658125 183.46265625 -10.658125 183.46265625 -12.046875 185.26171875 C-19.27645537 193.4678755 -28.47966566 197.83822524 -39.296875 198.69921875 C-40.58658203 198.82103516 -40.58658203 198.82103516 -41.90234375 198.9453125 C-51.15234908 199.39619902 -60.55570027 196.85548599 -68.97265625 193.10546875 C-71.74852196 191.93118948 -73.77826501 191.27102664 -76.734375 191.01171875 C-78.4978125 190.85703125 -78.4978125 190.85703125 -80.296875 190.69921875 C-80.4825 189.91546875 -80.668125 189.13171875 -80.859375 188.32421875 C-82.18563324 184.97974145 -83.56138003 182.81443034 -85.671875 179.94921875 C-93.07127586 169.6456689 -94.14206324 161.60716822 -92.546875 149.32421875 C-90.87833138 139.46255058 -88.40234963 130.15911883 -80.296875 123.69921875 C-70.76352221 118.0429092 -62.88042829 115.52020301 -51.859375 115.51171875 C-51.02599609 115.49947266 -50.19261719 115.48722656 -49.33398438 115.47460938 C-45.48543135 115.46548237 -42.64840751 115.57361221 -38.984375 116.8828125 C-36.31087385 118.01368445 -36.31087385 118.01368445 -33.91796875 116.65234375 C-33.19738281 116.0903125 -32.47679687 115.52828125 -31.734375 114.94921875 C-27.22538797 111.50920725 -23.55210726 109.18859088 -17.734375 109.88671875 C-14.18464286 110.37184881 -11.89946439 111.09662936 -9.296875 113.69921875 C-7.976875 111.71921875 -6.656875 109.73921875 -5.296875 107.69921875 C-5.74675781 106.88324219 -6.19664063 106.06726563 -6.66015625 105.2265625 C-11.08985211 97.10135511 -15.22838371 88.85397729 -19.234375 80.51171875 C-19.7188208 79.50810303 -20.2032666 78.5044873 -20.70239258 77.47045898 C-21.15509521 76.52114502 -21.60779785 75.57183105 -22.07421875 74.59375 C-22.47890381 73.74659424 -22.88358887 72.89943848 -23.30053711 72.02661133 C-24.20331424 69.91777173 -24.81974414 67.93776577 -25.296875 65.69921875 C-27.606875 65.69921875 -29.916875 65.69921875 -32.296875 65.69921875 C-32.32265625 64.86519531 -32.3484375 64.03117187 -32.375 63.171875 C-32.74029803 55.35156858 -32.74029803 55.35156858 -35.359375 48.07421875 C-37.92084398 43.062649 -37.84937458 38.22421458 -37.296875 32.69921875 C-36.966875 31.70921875 -36.636875 30.71921875 -36.296875 29.69921875 C-35.636875 29.69921875 -34.976875 29.69921875 -34.296875 29.69921875 C-34.296875 28.70921875 -34.296875 27.71921875 -34.296875 26.69921875 C-33.636875 26.69921875 -32.976875 26.69921875 -32.296875 26.69921875 C-32.40128906 25.43207031 -32.50570312 24.16492188 -32.61328125 22.859375 C-33.51725734 7.56610162 -33.51725734 7.56610162 -29.046875 2.01171875 C-21.26256557 -4.14879365 -8.85681285 -3.49445341 0 0 Z M-21.296875 10.69921875 C-21.296875 14.32921875 -21.296875 17.95921875 -21.296875 21.69921875 C-20.47703125 21.89257812 -19.6571875 22.0859375 -18.8125 22.28515625 C-17.73484375 22.54554687 -16.6571875 22.8059375 -15.546875 23.07421875 C-14.47953125 23.32945313 -13.4121875 23.5846875 -12.3125 23.84765625 C-9.296875 24.69921875 -9.296875 24.69921875 -5.296875 26.69921875 C-5.296875 21.41921875 -5.296875 16.13921875 -5.296875 10.69921875 C-10.576875 10.69921875 -15.856875 10.69921875 -21.296875 10.69921875 Z M23.703125 10.69921875 C23.703125 15.97921875 23.703125 21.25921875 23.703125 26.69921875 C28.983125 26.69921875 34.263125 26.69921875 39.703125 26.69921875 C39.703125 21.41921875 39.703125 16.13921875 39.703125 10.69921875 C34.423125 10.69921875 29.143125 10.69921875 23.703125 10.69921875 Z M33.703125 99.69921875 C34.25036183 103.0738459 34.758025 104.78156875 36.703125 107.69921875 C39.78678371 107.94943445 39.78678371 107.94943445 42.703125 107.69921875 C42.703125 106.37921875 42.703125 105.05921875 42.703125 103.69921875 C40.51639638 101.34979229 40.51639638 101.34979229 37.703125 99.69921875 C36.383125 99.69921875 35.063125 99.69921875 33.703125 99.69921875 Z M48.703125 111.69921875 C48.36886765 114.07296736 48.36886765 114.07296736 48.703125 116.69921875 C50.85594458 119.01150644 52.20075357 119.6274514 55.328125 120.07421875 C56.111875 119.95046875 56.895625 119.82671875 57.703125 119.69921875 C58.363125 118.70921875 59.023125 117.71921875 59.703125 116.69921875 C55.83279212 112.85259968 55.83279212 112.85259968 50.828125 111.38671875 C50.126875 111.48984375 49.425625 111.59296875 48.703125 111.69921875 Z M-1.296875 116.69921875 C-0.636875 117.35921875 0.023125 118.01921875 0.703125 118.69921875 C0.703125 118.03921875 0.703125 117.37921875 0.703125 116.69921875 C0.043125 116.69921875 -0.616875 116.69921875 -1.296875 116.69921875 Z M47.703125 125.69921875 C48.27657437 128.56646561 48.5645765 129.56067025 50.703125 131.69921875 C51.693125 130.04921875 52.683125 128.39921875 53.703125 126.69921875 C50.733125 126.20421875 50.733125 126.20421875 47.703125 125.69921875 Z M94.703125 129.69921875 C92.88587245 132.8154893 92.4575645 135.06048267 92.47607422 138.65136719 C92.47622528 139.63208191 92.47637634 140.61279663 92.47653198 141.62322998 C92.48685455 142.67440002 92.49717712 143.72557007 92.5078125 144.80859375 C92.5106424 145.89054016 92.51347229 146.97248657 92.51638794 148.08721924 C92.52757891 151.54133179 92.5526818 154.99518463 92.578125 158.44921875 C92.58815619 160.79166292 92.5972818 163.13411116 92.60546875 165.4765625 C92.6275147 171.21753646 92.66098166 176.95835905 92.703125 182.69921875 C94.683125 182.69921875 96.663125 182.69921875 98.703125 182.69921875 C98.703125 165.20921875 98.703125 147.71921875 98.703125 129.69921875 C97.383125 129.69921875 96.063125 129.69921875 94.703125 129.69921875 Z M-44.296875 130.69921875 C-43.966875 131.35921875 -43.636875 132.01921875 -43.296875 132.69921875 C-43.03087656 136.15155608 -43.06533604 139.61277352 -43.046875 143.07421875 C-43.02625 144.03328125 -43.005625 144.99234375 -42.984375 145.98046875 C-42.97921875 146.90601563 -42.9740625 147.8315625 -42.96875 148.78515625 C-42.9594043 149.63126465 -42.95005859 150.47737305 -42.94042969 151.34912109 C-43.37031518 154.18342094 -44.43217946 155.56558858 -46.296875 157.69921875 C-45.80864258 158.09488037 -45.32041016 158.49054199 -44.81738281 158.89819336 C-42.84539755 161.23398901 -42.9355378 162.49016516 -42.96875 165.515625 C-42.97390625 166.44439453 -42.9790625 167.37316406 -42.984375 168.33007812 C-43.005 169.29751953 -43.025625 170.26496094 -43.046875 171.26171875 C-43.05460937 172.71868164 -43.05460937 172.71868164 -43.0625 174.20507812 C-43.14239072 181.3902502 -43.14239072 181.3902502 -44.296875 183.69921875 C-41.656875 183.69921875 -39.016875 183.69921875 -36.296875 183.69921875 C-36.24618519 176.79413994 -36.21114573 169.88910909 -36.18701172 162.98388672 C-36.17695116 160.63458462 -36.16330127 158.28529506 -36.14599609 155.93603516 C-36.12175048 152.5601899 -36.11039241 149.18451015 -36.1015625 145.80859375 C-36.09123993 144.75742371 -36.08091736 143.70625366 -36.07028198 142.62322998 C-36.07013092 141.64251526 -36.06997986 140.66180054 -36.06982422 139.65136719 C-36.065383 138.7897699 -36.06094177 137.92817261 -36.05636597 137.04046631 C-36.31627715 134.51034751 -37.02403304 132.88192028 -38.296875 130.69921875 C-40.276875 130.69921875 -42.256875 130.69921875 -44.296875 130.69921875 Z M110.703125 131.69921875 C110.703125 138.29921875 110.703125 144.89921875 110.703125 151.69921875 C113.013125 151.69921875 115.323125 151.69921875 117.703125 151.69921875 C117.703125 148.72921875 117.703125 145.75921875 117.703125 142.69921875 C120.673125 142.69921875 123.643125 142.69921875 126.703125 142.69921875 C127.20481915 139.86848439 127.20481915 139.86848439 126.703125 136.69921875 C121.18500665 132.16209922 117.95758127 131.69921875 110.703125 131.69921875 Z M-69.296875 136.69921875 C-69.37007663 139.23199525 -69.38915069 141.73025793 -69.359375 144.26171875 C-69.33875 146.71609375 -69.318125 149.17046875 -69.296875 151.69921875 C-64.016875 151.69921875 -58.736875 151.69921875 -53.296875 151.69921875 C-53.296875 146.41921875 -53.296875 141.13921875 -53.296875 135.69921875 C-55.75125 135.67859375 -58.205625 135.65796875 -60.734375 135.63671875 C-61.50837646 135.62761475 -62.28237793 135.61851074 -63.07983398 135.60913086 C-66.47215635 135.28159566 -66.47215635 135.28159566 -69.296875 136.69921875 Z M128.703125 144.69921875 C128.703125 147.66921875 128.703125 150.63921875 128.703125 153.69921875 C125.733125 153.69921875 122.763125 153.69921875 119.703125 153.69921875 C119.703125 156.00921875 119.703125 158.31921875 119.703125 160.69921875 C122.673125 160.69921875 125.643125 160.69921875 128.703125 160.69921875 C128.703125 163.66921875 128.703125 166.63921875 128.703125 169.69921875 C130.353125 169.36921875 132.003125 169.03921875 133.703125 168.69921875 C133.73206432 165.07423541 133.74990292 161.44928162 133.765625 157.82421875 C133.77400391 156.79167969 133.78238281 155.75914062 133.79101562 154.6953125 C133.79423828 153.70917969 133.79746094 152.72304687 133.80078125 151.70703125 C133.80601807 150.7958252 133.81125488 149.88461914 133.81665039 148.94580078 C133.85198065 146.66234366 133.85198065 146.66234366 132.703125 144.69921875 C131.383125 144.69921875 130.063125 144.69921875 128.703125 144.69921875 Z M80.703125 149.69921875 C80.373125 150.35921875 80.043125 151.01921875 79.703125 151.69921875 C80.363125 151.69921875 81.023125 151.69921875 81.703125 151.69921875 C81.373125 151.03921875 81.043125 150.37921875 80.703125 149.69921875 Z M-69.296875 162.69921875 C-69.296875 167.97921875 -69.296875 173.25921875 -69.296875 178.69921875 C-64.016875 178.69921875 -58.736875 178.69921875 -53.296875 178.69921875 C-53.296875 173.41921875 -53.296875 168.13921875 -53.296875 162.69921875 C-58.576875 162.69921875 -63.856875 162.69921875 -69.296875 162.69921875 Z M-24.296875 162.69921875 C-24.296875 167.31921875 -24.296875 171.93921875 -24.296875 176.69921875 C-20.48927018 172.89161393 -19.3523238 171.36268273 -19.171875 165.94921875 C-19.23375 164.34046875 -19.23375 164.34046875 -19.296875 162.69921875 C-20.946875 162.69921875 -22.596875 162.69921875 -24.296875 162.69921875 Z M20.703125 162.69921875 C20.703125 167.97921875 20.703125 173.25921875 20.703125 178.69921875 C26.643125 178.69921875 32.583125 178.69921875 38.703125 178.69921875 C36.98868256 173.88704119 36.98868256 173.88704119 33.703125 170.69921875 C31.09701423 169.97724713 31.09701423 169.97724713 28.703125 169.69921875 C28.703125 169.03921875 28.703125 168.37921875 28.703125 167.69921875 C25.22313993 164.06288336 25.22313993 164.06288336 20.703125 162.69921875 Z M75.703125 162.69921875 C74.97101419 168.55610521 77.22284307 172.20337915 80.703125 176.69921875 C81.033125 176.69921875 81.363125 176.69921875 81.703125 176.69921875 C81.703125 172.07921875 81.703125 167.45921875 81.703125 162.69921875 C79.723125 162.69921875 77.743125 162.69921875 75.703125 162.69921875 Z M110.703125 162.69921875 C110.703125 169.62921875 110.703125 176.55921875 110.703125 183.69921875 C119.82085337 182.33240725 119.82085337 182.33240725 126.703125 177.69921875 C127.20481915 174.52995311 127.20481915 174.52995311 126.703125 171.69921875 C123.733125 171.69921875 120.763125 171.69921875 117.703125 171.69921875 C117.703125 168.72921875 117.703125 165.75921875 117.703125 162.69921875 C115.393125 162.69921875 113.083125 162.69921875 110.703125 162.69921875 Z M43.00390625 208.69921875 C40.60638743 212.38549394 41.2524452 216.47618214 41.703125 220.69921875 C44.013125 220.69921875 46.323125 220.69921875 48.703125 220.69921875 C48.703125 215.41921875 48.703125 210.13921875 48.703125 204.69921875 C46.28235743 204.69921875 44.6126043 207.10203882 43.00390625 208.69921875 Z " fill="#010101" transform="translate(99.296875,2.30078125)"/>
<path d="M0 0 C4.28852806 0.06071275 6.68481311 0.47907837 9.9375 3.3125 C10.55625 3.96476562 11.175 4.61703125 11.8125 5.2890625 C13.9537621 7.63443667 13.9537621 7.63443667 16.875 9.7109375 C24.3180245 15.72991395 24.3180245 15.72991395 25.47167969 20.88867188 C26.14353134 27.41315185 26.84210549 35.31768178 23.3828125 41.09765625 C22.90585938 41.56042969 22.42890625 42.02320313 21.9375 42.5 C22.42645752 42.85811768 22.91541504 43.21623535 23.41918945 43.58520508 C25.65087719 46.3996651 25.27700005 48.58482951 25.23046875 52.13671875 C25.22080078 53.43544922 25.21113281 54.73417969 25.20117188 56.07226562 C25.17610585 57.44401639 25.15071101 58.81576118 25.125 60.1875 C25.1099502 61.57094924 25.0962623 62.95441401 25.08398438 64.33789062 C25.04857223 67.72565207 24.99918054 71.11263139 24.9375 74.5 C27.5775 74.5 30.2175 74.5 32.9375 74.5 C32.9375 95.29 32.9375 116.08 32.9375 137.5 C28.6475 137.5 24.3575 137.5 19.9375 137.5 C19.9375 124.3 19.9375 111.1 19.9375 97.5 C16.6375 97.5 13.3375 97.5 9.9375 97.5 C9.9375 93.21 9.9375 88.92 9.9375 84.5 C13.2375 84.5 16.5375 84.5 19.9375 84.5 C19.9375 81.53 19.9375 78.56 19.9375 75.5 C17.9575 75.5 15.9775 75.5 13.9375 75.5 C13.4425 71.045 13.4425 71.045 12.9375 66.5 C11.57625 68.2634375 11.57625 68.2634375 10.1875 70.0625 C2.95791963 78.26865675 -6.24529066 82.63900649 -17.0625 83.5 C-18.35220703 83.62181641 -18.35220703 83.62181641 -19.66796875 83.74609375 C-28.91797408 84.19698027 -38.32132527 81.65626724 -46.73828125 77.90625 C-49.51414696 76.73197073 -51.54389001 76.07180789 -54.5 75.8125 C-55.675625 75.709375 -56.85125 75.60625 -58.0625 75.5 C-58.248125 74.71625 -58.43375 73.9325 -58.625 73.125 C-59.95125824 69.7805227 -61.32700503 67.61521159 -63.4375 64.75 C-70.83690086 54.44645015 -71.90768824 46.40794947 -70.3125 34.125 C-68.82898364 25.30631939 -66.70581293 15.09720482 -59.0625 9.5 C-56.80176378 8.69554094 -54.671088 8.25704875 -52.30078125 7.89453125 C-50.08385309 7.50376381 -48.35055645 6.87438434 -46.3125 5.9375 C-40.73004305 3.46833635 -35.57075058 3.31768847 -29.5625 3.3125 C-28.44294922 3.29413086 -28.44294922 3.29413086 -27.30078125 3.27539062 C-23.09311167 3.26421982 -19.90613545 3.57055601 -16.0625 5.5 C-16.9375 11.375 -16.9375 11.375 -18.0625 12.5 C-20.39067964 12.86760731 -22.7243385 13.20241581 -25.0625 13.5 C-24.2478125 13.9434375 -23.433125 14.386875 -22.59375 14.84375 C-19.27580954 18.32553937 -19.46343618 20.45468795 -19.4765625 25.12109375 C-19.51910156 26.54615234 -19.51910156 26.54615234 -19.5625 28 C-19.55863281 29.42505859 -19.55863281 29.42505859 -19.5546875 30.87890625 C-19.624825 35.8656828 -19.69606293 38.61496173 -23.0625 42.5 C-22.57426758 42.89493652 -22.08603516 43.28987305 -21.58300781 43.69677734 C-19.60573364 46.04169498 -19.70129423 47.31554669 -19.734375 50.3515625 C-19.73953125 51.28484375 -19.7446875 52.218125 -19.75 53.1796875 C-19.770625 54.15164062 -19.79125 55.12359375 -19.8125 56.125 C-19.81765625 57.1046875 -19.8228125 58.084375 -19.828125 59.09375 C-19.90848214 66.34598214 -19.90848214 66.34598214 -21.0625 67.5 C-18.7525 67.83 -16.4425 68.16 -14.0625 68.5 C-14.03723395 60.82788798 -14.01966877 53.1557866 -14.00756836 45.48364258 C-14.00252623 42.87133381 -13.99569275 40.25902789 -13.98706055 37.64672852 C-13.97498964 33.90119732 -13.96927065 30.15570328 -13.96484375 26.41015625 C-13.95968246 25.23413345 -13.95452118 24.05811066 -13.94920349 22.84645081 C-13.94912796 21.76540573 -13.94905243 20.68436066 -13.94897461 19.57055664 C-13.946754 18.61347305 -13.94453339 17.65638947 -13.94224548 16.67030334 C-13.81937501 14.52082376 -13.81937501 14.52082376 -15.0625 13.5 C-15.3125 11.0625 -15.3125 11.0625 -15.0625 8.5 C-14.0725 7.84 -13.0825 7.18 -12.0625 6.5 C-11.7325 5.84 -11.4025 5.18 -11.0625 4.5 C-9.41428756 3.46986723 -7.74746298 2.46885372 -6.0625 1.5 C-4.36524079 -0.19725921 -2.32647665 0.12800422 0 0 Z M-47.0625 21.5 C-47.13570163 24.0327765 -47.15477569 26.53103918 -47.125 29.0625 C-47.104375 31.516875 -47.08375 33.97125 -47.0625 36.5 C-41.7825 36.5 -36.5025 36.5 -31.0625 36.5 C-31.0625 31.22 -31.0625 25.94 -31.0625 20.5 C-33.516875 20.479375 -35.97125 20.45875 -38.5 20.4375 C-39.27400146 20.428396 -40.04800293 20.41929199 -40.84545898 20.40991211 C-44.23778135 20.08237691 -44.23778135 20.08237691 -47.0625 21.5 Z M-47.0625 47.5 C-47.0625 52.78 -47.0625 58.06 -47.0625 63.5 C-41.7825 63.5 -36.5025 63.5 -31.0625 63.5 C-31.0625 58.22 -31.0625 52.94 -31.0625 47.5 C-36.3425 47.5 -41.6225 47.5 -47.0625 47.5 Z M-2.0625 47.5 C-2.0625 52.12 -2.0625 56.74 -2.0625 61.5 C1.74510482 57.69239518 2.8820512 56.16346398 3.0625 50.75 C3.000625 49.14125 3.000625 49.14125 2.9375 47.5 C1.2875 47.5 -0.3625 47.5 -2.0625 47.5 Z " fill="#C7C7C7" transform="translate(77.0625,117.5)"/>
<path d="M0 0 C1.69921875 1.453125 1.69921875 1.453125 3 3 C5.09989652 4.17574711 5.09989652 4.17574711 7 5 C7 5.66 7 6.32 7 7 C7.99 7.33 8.98 7.66 10 8 C10.22036864 11.85645121 9.60355101 14.49223216 8 18 C8.33 18.33 8.66 18.66 9 19 C9.09319449 20.5348297 9.117458 22.07392082 9.11352539 23.61157227 C9.11344986 24.59251358 9.11337433 25.5734549 9.11329651 26.5841217 C9.10813522 27.6507756 9.10297394 28.7174295 9.09765625 29.81640625 C9.0962413 30.9025975 9.09482635 31.98878876 9.09336853 33.1078949 C9.08775048 36.59279075 9.07519492 40.07762342 9.0625 43.5625 C9.05748733 45.91861887 9.05292402 48.27473874 9.04882812 50.63085938 C9.03777519 56.42059464 9.02101951 62.21029281 9 68 C10.98 68 12.96 68 15 68 C14.99777939 67.34711502 14.99555878 66.69423004 14.99327087 66.02156067 C14.97114244 59.22458442 14.95606177 52.42761842 14.94506836 45.63061523 C14.94004052 43.09415267 14.93321738 40.55769301 14.92456055 38.02124023 C14.91242726 34.37482996 14.90675616 30.72845803 14.90234375 27.08203125 C14.89718246 25.94852737 14.89202118 24.8150235 14.88670349 23.64717102 C14.88662796 22.58644882 14.88655243 21.52572662 14.88647461 20.43286133 C14.884254 19.50242508 14.88203339 18.57198883 14.87974548 17.61335754 C15.00083504 14.98185292 15.41481802 12.56490609 16 10 C19.3 10 22.6 10 26 10 C27.20484722 15.63526965 27.1129643 21.14536115 27.0625 26.875 C27.05798828 27.84953125 27.05347656 28.8240625 27.04882812 29.828125 C27.03710906 32.21881434 27.02070219 34.6093744 27 37 C29.31 37 31.62 37 34 37 C34 34.03 34 31.06 34 28 C36.97 28 39.94 28 43 28 C42.67 22.72 42.34 17.44 42 12 C37.05 10.02 37.05 10.02 32 8 C36 7 36 7 38.31640625 7.9296875 C41.65078332 9.2595555 44.35926571 9.13277032 47.9375 9.125 C54.30324697 9.53075817 54.30324697 9.53075817 57.10546875 11.41796875 C63.42248 19.29393393 65.59266469 30.14248546 66 40 C66.06316406 40.74894531 66.12632812 41.49789062 66.19140625 42.26953125 C66.72285496 52.05847365 62.11329845 59.04667646 56.484375 66.66015625 C54.44416058 69.87617846 54.08186291 72.23430602 54 76 C53.33355469 76.02578125 52.66710937 76.0515625 51.98046875 76.078125 C45.66798896 76.4665853 40.49542787 77.72203589 34.6171875 80.01171875 C22.92682708 84.42613843 10.7793396 84.07416479 -1 80 C-7.09078139 76.88539588 -12.4774596 73.14633908 -17 68 C-17.66 70.31 -18.32 72.62 -19 75 C-22.3 75 -25.6 75 -29 75 C-29.61478433 61.06854793 -30.12837713 47.13193082 -30.3125 33.1875 C-30.34214844 32.05658936 -30.37179688 30.92567871 -30.40234375 29.76049805 C-30.44669295 23.67218503 -30.3235813 19.69331164 -26 15 C-23.9296875 13.27734375 -23.9296875 13.27734375 -21.875 11.9375 C-18.48876494 9.54905059 -17.35335743 7.95596786 -16 4 C-11.80006168 -1.01282961 -6.12209173 -1.05193836 0 0 Z M45 30 C45 32.97 45 35.94 45 39 C42.03 39 39.06 39 36 39 C36 41.31 36 43.62 36 46 C38.97 46 41.94 46 45 46 C45 48.97 45 51.94 45 55 C46.65 54.67 48.3 54.34 50 54 C50.02893932 50.37501666 50.04677792 46.75006287 50.0625 43.125 C50.07087891 42.09246094 50.07925781 41.05992187 50.08789062 39.99609375 C50.09111328 39.00996094 50.09433594 38.02382812 50.09765625 37.0078125 C50.10289307 36.09660645 50.10812988 35.18540039 50.11352539 34.24658203 C50.14885565 31.96312491 50.14885565 31.96312491 49 30 C47.68 30 46.36 30 45 30 Z M-3 35 C-3.33 35.66 -3.66 36.32 -4 37 C-3.34 37 -2.68 37 -2 37 C-2.33 36.34 -2.66 35.68 -3 35 Z M-8 48 C-8.73211081 53.85688646 -6.48028193 57.5041604 -3 62 C-2.67 62 -2.34 62 -2 62 C-2 57.38 -2 52.76 -2 48 C-3.98 48 -5.96 48 -8 48 Z M27 48 C27 54.93 27 61.86 27 69 C36.11772837 67.6331885 36.11772837 67.6331885 43 63 C43.50169415 59.83073436 43.50169415 59.83073436 43 57 C40.03 57 37.06 57 34 57 C34 54.03 34 51.06 34 48 C31.69 48 29.38 48 27 48 Z " fill="#FFFFFF" transform="translate(183,117)"/>
<path d="M0 0 C4.28852806 0.06071275 6.68481311 0.47907837 9.9375 3.3125 C10.55625 3.96476562 11.175 4.61703125 11.8125 5.2890625 C13.9537621 7.63443667 13.9537621 7.63443667 16.875 9.7109375 C24.3180245 15.72991395 24.3180245 15.72991395 25.47167969 20.88867188 C26.14353134 27.41315185 26.84210549 35.31768178 23.3828125 41.09765625 C22.90585938 41.56042969 22.42890625 42.02320313 21.9375 42.5 C22.42645752 42.85811768 22.91541504 43.21623535 23.41918945 43.58520508 C25.65087719 46.3996651 25.27700005 48.58482951 25.23046875 52.13671875 C25.2159668 54.08481445 25.2159668 54.08481445 25.20117188 56.07226562 C25.17610585 57.44401639 25.15071101 58.81576118 25.125 60.1875 C25.1099502 61.57094924 25.0962623 62.95441401 25.08398438 64.33789062 C25.04857223 67.72565207 24.99918054 71.11263139 24.9375 74.5 C27.5775 74.5 30.2175 74.5 32.9375 74.5 C32.9375 95.29 32.9375 116.08 32.9375 137.5 C28.6475 137.5 24.3575 137.5 19.9375 137.5 C19.9375 124.3 19.9375 111.1 19.9375 97.5 C16.6375 97.5 13.3375 97.5 9.9375 97.5 C9.9375 93.21 9.9375 88.92 9.9375 84.5 C13.2375 84.5 16.5375 84.5 19.9375 84.5 C19.9375 81.53 19.9375 78.56 19.9375 75.5 C17.9575 75.5 15.9775 75.5 13.9375 75.5 C13.9375 66.26 13.9375 57.02 13.9375 47.5 C8.6575 47.5 3.3775 47.5 -2.0625 47.5 C-2.041875 49.7275 -2.02125 51.955 -2 54.25 C-1.96937002 61.04313263 -2.35756829 67.74020845 -3.0625 74.5 C-6.3625 74.5 -9.6625 74.5 -13.0625 74.5 C-13.79512235 70.57118589 -14.1823397 66.87213589 -14.16015625 62.87768555 C-14.15685303 61.80024582 -14.1535498 60.72280609 -14.15014648 59.61271667 C-14.14184814 58.46563736 -14.1335498 57.31855804 -14.125 56.13671875 C-14.12121338 54.94899368 -14.11742676 53.76126862 -14.11352539 52.53755188 C-14.1013304 48.75416403 -14.08268686 44.97085314 -14.0625 41.1875 C-14.0360273 36.19140851 -14.01599274 31.19535349 -14 26.19921875 C-13.99170166 25.04201828 -13.98340332 23.88481781 -13.97485352 22.69255066 C-13.97155029 21.63087173 -13.96824707 20.56919281 -13.96484375 19.4753418 C-13.95960693 18.53635544 -13.95437012 17.59736908 -13.94897461 16.62992859 C-13.82367435 14.51600262 -13.82367435 14.51600262 -15.0625 13.5 C-15.3125 11.0625 -15.3125 11.0625 -15.0625 8.5 C-14.0725 7.84 -13.0825 7.18 -12.0625 6.5 C-11.7325 5.84 -11.4025 5.18 -11.0625 4.5 C-9.41428756 3.46986723 -7.74746298 2.46885372 -6.0625 1.5 C-4.36524079 -0.19725921 -2.32647665 0.12800422 0 0 Z " fill="#E0E0E0" transform="translate(77.0625,117.5)"/>
<path d="M0 0 C1.69921875 1.453125 1.69921875 1.453125 3 3 C5.09989652 4.17574711 5.09989652 4.17574711 7 5 C7 5.66 7 6.32 7 7 C7.99 7.33 8.98 7.66 10 8 C10.22036864 11.85645121 9.60355101 14.49223216 8 18 C8.33 18.33 8.66 18.66 9 19 C9.09365006 20.7492872 9.11744438 22.50236254 9.11352539 24.25415039 C9.11344986 25.37523697 9.11337433 26.49632355 9.11329651 27.65138245 C9.10813522 28.8711528 9.10297394 30.09092316 9.09765625 31.34765625 C9.0962413 32.58921982 9.09482635 33.83078339 9.09336853 35.10997009 C9.08870591 38.41605491 9.07971497 41.72207146 9.06866455 45.02813721 C9.05844827 48.3996115 9.05387045 51.77109283 9.04882812 55.14257812 C9.03777395 61.76174018 9.0204966 68.38086071 9 75 C5.37 75 1.74 75 -2 75 C-2 66.09 -2 57.18 -2 48 C-7.61 48 -13.22 48 -19 48 C-18.91621094 49.69769531 -18.83242187 51.39539063 -18.74609375 53.14453125 C-18.64293313 55.36717378 -18.54008473 57.58983082 -18.4375 59.8125 C-18.38142578 60.93205078 -18.32535156 62.05160156 -18.26757812 63.20507812 C-18.21923828 64.27822266 -18.17089844 65.35136719 -18.12109375 66.45703125 C-18.0739624 67.44678955 -18.02683105 68.43654785 -17.97827148 69.45629883 C-18 72 -18 72 -19 75 C-22.3 75 -25.6 75 -29 75 C-29.61478433 61.06854793 -30.12837713 47.13193082 -30.3125 33.1875 C-30.34214844 32.05658936 -30.37179688 30.92567871 -30.40234375 29.76049805 C-30.44669295 23.67218503 -30.3235813 19.69331164 -26 15 C-23.9296875 13.27734375 -23.9296875 13.27734375 -21.875 11.9375 C-18.48876494 9.54905059 -17.35335743 7.95596786 -16 4 C-11.80006168 -1.01282961 -6.12209173 -1.05193836 0 0 Z M-3 35 C-3.33 35.66 -3.66 36.32 -4 37 C-3.34 37 -2.68 37 -2 37 C-2.33 36.34 -2.66 35.68 -3 35 Z " fill="#FFFFFF" transform="translate(183,117)"/>
<path d="M0 0 C2.61874894 1.30937447 2.92509242 2.55398187 4.1640625 5.18359375 C4.56367188 6.02857422 4.96328125 6.87355469 5.375 7.74414062 C5.7875 8.63294922 6.2 9.52175781 6.625 10.4375 C7.25535156 11.76491211 7.25535156 11.76491211 7.8984375 13.11914062 C11 19.73010095 11 19.73010095 11 22 C11.886875 21.896875 12.77375 21.79375 13.6875 21.6875 C17 22 17 22 19.875 24.125 C22 27 22 27 22.625 30 C21.31577262 36.28429141 15.07650353 39.64759201 10 43 C9.34 43 8.68 43 8 43 C8 44.32 8 45.64 8 47 C4.37 47.33 0.74 47.66 -3 48 C-3 53.94 -3 59.88 -3 66 C-7.29 66 -11.58 66 -16 66 C-16 59.73 -16 53.46 -16 47 C-22.6 47 -29.2 47 -36 47 C-38.42010172 25.32664457 -38.42010172 25.32664457 -32.765625 18.06640625 C-29.26775215 14.33095178 -25.45026654 10.58096482 -21 8 C-20.01 8 -19.02 8 -18 8 C-17.690625 7.360625 -17.38125 6.72125 -17.0625 6.0625 C-16 4 -16 4 -15 3 C-12.46950598 2.92686433 -9.96695163 2.90752473 -7.4375 2.9375 C-6.72658203 2.94201172 -6.01566406 2.94652344 -5.28320312 2.95117188 C-3.52209987 2.96299136 -1.76103964 2.98092737 0 3 C0 2.01 0 1.02 0 0 Z M-21.69921875 22 C-24.09673757 25.68627519 -23.4506798 29.77696339 -23 34 C-20.69 34 -18.38 34 -16 34 C-16 28.72 -16 23.44 -16 18 C-18.42076757 18 -20.0905207 20.40282007 -21.69921875 22 Z " fill="#DE1800" transform="translate(164,189)"/>
<path d="M0 0 C1.26714844 -0.03480469 2.53429687 -0.06960937 3.83984375 -0.10546875 C10.57860005 -0.04235865 14.83972637 0.6043654 19.87109375 5.28515625 C22.37501335 8.22613849 23.42976935 9.8450138 24.37890625 13.62890625 C24.0859375 16.4609375 23.79296875 19.29296875 23.5 22.125 C19.87 22.125 16.24 22.125 12.5 22.125 C12.5 19.155 12.5 16.185 12.5 13.125 C4.25 13.125 -4 13.125 -12.5 13.125 C-12.5 18.405 -12.5 23.685 -12.5 29.125 C-9.73302734 28.96837891 -9.73302734 28.96837891 -6.91015625 28.80859375 C-4.46101981 28.72414077 -2.01179427 28.64224446 0.4375 28.5625 C1.64986328 28.48708984 2.86222656 28.41167969 4.11132812 28.33398438 C10.63105039 28.17496676 14.83569027 28.54815563 19.8125 33 C24.07425769 38.02555964 24.88492846 42.23194687 24.5625 48.6875 C24.54106934 49.61336914 24.51963867 50.53923828 24.49755859 51.49316406 C24.18964887 56.85250921 23.54537832 60.42584826 19.625 64.375 C13.41067751 69.05244704 7.52695752 68.55863698 -0.0625 68.75 C-1.31353516 68.82089844 -2.56457031 68.89179687 -3.85351562 68.96484375 C-10.61998425 69.10010193 -14.79694105 68.72755759 -19.8671875 63.99609375 C-22.36597183 61.04724313 -23.42945975 59.40622046 -24.37890625 55.62109375 C-24.0859375 52.7890625 -23.79296875 49.95703125 -23.5 47.125 C-19.87 47.125 -16.24 47.125 -12.5 47.125 C-12.5 50.095 -12.5 53.065 -12.5 56.125 C-4.25 56.125 4 56.125 12.5 56.125 C12.5 50.845 12.5 45.565 12.5 40.125 C9.73302734 40.28162109 9.73302734 40.28162109 6.91015625 40.44140625 C4.46101981 40.52585923 2.01179427 40.60775554 -0.4375 40.6875 C-2.25604492 40.80061523 -2.25604492 40.80061523 -4.11132812 40.91601562 C-10.63274899 41.07507467 -14.83360391 40.70285548 -19.80859375 36.24609375 C-24.06529194 31.22434636 -24.87835273 27.07141941 -24.625 20.625 C-24.65980469 19.73941406 -24.69460937 18.85382812 -24.73046875 17.94140625 C-24.65902637 12.53559983 -23.34512197 9.17681878 -19.8359375 5.0390625 C-13.81774842 -0.33189413 -7.75544973 -0.21301846 0 0 Z " fill="#FFFFFF" transform="translate(36.5,-0.125)"/>
<path d="M0 0 C0.83789062 -0.03480469 1.67578125 -0.06960937 2.5390625 -0.10546875 C7.76486532 -0.03266345 10.87982742 1.33547408 14.75366211 4.85180664 C19.37939151 9.70620157 20.02352006 13.41240414 20.01966858 19.98768616 C19.97321701 21.20991379 19.92676544 22.43214142 19.87890625 23.69140625 C19.86617172 24.96604233 19.85343719 26.24067841 19.84031677 27.55393982 C19.79867604 30.91490504 19.71812827 34.27018177 19.61798096 37.62957764 C19.52527375 41.06831144 19.48467481 44.50763767 19.43945312 47.94726562 C19.34055152 54.67492788 19.18539321 61.39918797 19 68.125 C15.37 68.125 11.74 68.125 8 68.125 C8 58.885 8 49.645 8 40.125 C2.72 40.125 -2.56 40.125 -8 40.125 C-8 49.365 -8 58.605 -8 68.125 C-17 68.125 -17 68.125 -19 67.125 C-19.20949219 59.8491447 -19.36891898 52.57394987 -19.46630955 45.29567814 C-19.51308021 41.91502157 -19.57638851 38.53644294 -19.67895508 35.15698242 C-19.78865222 31.26165845 -19.83928659 27.36924764 -19.87890625 23.47265625 C-19.92535782 22.2723024 -19.97180939 21.07194855 -20.01966858 19.83522034 C-20.02355634 13.31250131 -19.3392871 9.67731144 -14.75366211 4.86547852 C-10.06344034 0.59607854 -6.21118293 -0.25800298 0 0 Z M-8 13.125 C-8 18.405 -8 23.685 -8 29.125 C-2.72 29.125 2.56 29.125 8 29.125 C8 23.845 8 18.565 8 13.125 C2.72 13.125 -2.56 13.125 -8 13.125 Z " fill="#FEFEFE" transform="translate(131,-0.125)"/>
<path d="M0 0 C4.5032888 3.4635167 5.79995529 7.1743676 6.5390625 12.65625 C7.06508098 19.4053141 7.0629066 25.83864116 4.12109375 32.02734375 C0.01395 36.75170205 -3.88556527 38.19336792 -10.046875 38.82421875 C-14.10566457 38.91245331 -17.25955517 38.50668272 -21.296875 37.69921875 C-21.296875 46.60921875 -21.296875 55.51921875 -21.296875 64.69921875 C-26.741875 65.19421875 -26.741875 65.19421875 -32.296875 65.69921875 C-32.33554688 64.44818359 -32.33554688 64.44818359 -32.375 63.171875 C-32.74029803 55.35156858 -32.74029803 55.35156858 -35.359375 48.07421875 C-37.92084398 43.062649 -37.84937458 38.22421458 -37.296875 32.69921875 C-36.966875 31.70921875 -36.636875 30.71921875 -36.296875 29.69921875 C-35.636875 29.69921875 -34.976875 29.69921875 -34.296875 29.69921875 C-34.296875 28.70921875 -34.296875 27.71921875 -34.296875 26.69921875 C-33.636875 26.69921875 -32.976875 26.69921875 -32.296875 26.69921875 C-32.40128906 25.43207031 -32.50570312 24.16492188 -32.61328125 22.859375 C-33.51725734 7.56610162 -33.51725734 7.56610162 -29.046875 2.01171875 C-21.26256557 -4.14879365 -8.85681285 -3.49445341 0 0 Z M-21.296875 10.69921875 C-21.296875 14.32921875 -21.296875 17.95921875 -21.296875 21.69921875 C-20.47703125 21.89257812 -19.6571875 22.0859375 -18.8125 22.28515625 C-17.73484375 22.54554687 -16.6571875 22.8059375 -15.546875 23.07421875 C-14.47953125 23.32945313 -13.4121875 23.5846875 -12.3125 23.84765625 C-9.296875 24.69921875 -9.296875 24.69921875 -5.296875 26.69921875 C-5.296875 21.41921875 -5.296875 16.13921875 -5.296875 10.69921875 C-10.576875 10.69921875 -15.856875 10.69921875 -21.296875 10.69921875 Z " fill="#C2C2C2" transform="translate(99.296875,2.30078125)"/>
<path d="M0 0 C1.35598553 0.04523735 2.71211759 0.08628571 4.06835938 0.12304688 C7.36186864 0.22853294 10.64775092 0.37599906 13.9375 0.5625 C13.9375 4.5225 13.9375 8.4825 13.9375 12.5625 C5.0275 12.5625 -3.8825 12.5625 -13.0625 12.5625 C-13.0625 17.8425 -13.0625 23.1225 -13.0625 28.5625 C-7.1225 28.5625 -1.1825 28.5625 4.9375 28.5625 C4.9375 32.1925 4.9375 35.8225 4.9375 39.5625 C-1.0025 39.5625 -6.9425 39.5625 -13.0625 39.5625 C-13.0625 44.8425 -13.0625 50.1225 -13.0625 55.5625 C-4.1525 55.5625 4.7575 55.5625 13.9375 55.5625 C13.9375 59.5225 13.9375 63.4825 13.9375 67.5625 C9.97305773 67.78725034 6.01114019 67.94929372 2.04174805 68.05688477 C0.0388753 68.12370307 -1.96222708 68.23814961 -3.96289062 68.35351562 C-10.1513544 68.49380825 -15.33405252 68.3336708 -20.43359375 64.55859375 C-26.60245331 57.18513393 -25.39071685 46.52501771 -25.23583984 37.44287109 C-25.18759139 34.06889071 -25.23543823 30.7056801 -25.29296875 27.33203125 C-25.35785088 9.4522287 -25.35785088 9.4522287 -20.43359375 3.56640625 C-14.27187309 -0.99497863 -7.33970366 -0.42323575 0 0 Z " fill="#FFFFFF" transform="translate(226.0625,0.4375)"/>
<path d="M0 0 C0 3.3 0 6.6 0 10 C-9.24 10 -18.48 10 -28 10 C-28 15.61 -28 21.22 -28 27 C-21.73 27 -15.46 27 -9 27 C-9 30.63 -9 34.26 -9 38 C-14.94 38 -20.88 38 -27 38 C-27 43.28 -27 48.56 -27 54 C-25.80503906 53.98839844 -24.61007813 53.97679687 -23.37890625 53.96484375 C-7.69869427 53.8594527 -7.69869427 53.8594527 0 55 C0 58.3 0 61.6 0 65 C-5.38860236 66.34715059 -10.5888689 66.50488456 -16.125 66.6875 C-17.21554688 66.76677734 -18.30609375 66.84605469 -19.4296875 66.92773438 C-25.59147266 67.08620134 -29.82531166 66.22306492 -34.73828125 62.37109375 C-41.21517276 54.98007197 -40.38941462 45.82090248 -40.13891602 36.45898438 C-40.06245501 33.37318443 -40.07724686 30.29739517 -40.10351562 27.2109375 C-40.08612769 25.23171604 -40.06351884 23.25253211 -40.03515625 21.2734375 C-40.0399147 20.36177826 -40.04467316 19.45011902 -40.04957581 18.51083374 C-39.78727251 11.33899143 -37.13706365 7.83239206 -32 3 C-31.48776886 2.44112091 -30.97553772 1.88224182 -30.44778442 1.306427 C-28.14439803 -0.77206351 -25.9070972 -0.4572611 -22.87109375 -0.546875 C-21.67162109 -0.58683594 -20.47214844 -0.62679687 -19.23632812 -0.66796875 C-17.98271484 -0.69503906 -16.72910156 -0.72210938 -15.4375 -0.75 C-13.5512793 -0.81380859 -13.5512793 -0.81380859 -11.62695312 -0.87890625 C-2.29968702 -1.14984351 -2.29968702 -1.14984351 0 0 Z " fill="#FFFFFF" transform="translate(147,127)"/>
<path d="M0 0 C1.35598553 0.04523735 2.71211759 0.08628571 4.06835938 0.12304688 C7.36186864 0.22853294 10.64775092 0.37599906 13.9375 0.5625 C13.9375 4.5225 13.9375 8.4825 13.9375 12.5625 C5.0275 12.5625 -3.8825 12.5625 -13.0625 12.5625 C-13.0625 26.7525 -13.0625 40.9425 -13.0625 55.5625 C-4.1525 55.5625 4.7575 55.5625 13.9375 55.5625 C13.9375 59.5225 13.9375 63.4825 13.9375 67.5625 C9.43551196 67.75208907 4.94155682 67.8905264 0.4375 68 C-1.46515625 68.08797852 -1.46515625 68.08797852 -3.40625 68.17773438 C-14.0137738 68.37110069 -14.0137738 68.37110069 -18.84375 64.16015625 C-19.94911355 62.99077726 -21.02830483 61.79526767 -22.0625 60.5625 C-22.7225 59.9025 -23.3825 59.2425 -24.0625 58.5625 C-24.36357117 56.52232361 -24.36357117 56.52232361 -24.43237305 53.98022461 C-24.46127121 53.02840805 -24.49016937 52.07659149 -24.51994324 51.09593201 C-24.53785416 50.06267288 -24.55576508 49.02941376 -24.57421875 47.96484375 C-24.59273392 46.90141251 -24.61124908 45.83798126 -24.63032532 44.74232483 C-24.66241904 42.48527954 -24.68804394 40.22813458 -24.70776367 37.97094727 C-24.7357727 35.66918797 -24.78341783 33.36757844 -24.85131836 31.06665039 C-25.48526651 9.52636331 -25.48526651 9.52636331 -20.4609375 3.5390625 C-14.28190457 -0.98311847 -7.33544514 -0.42299018 0 0 Z " fill="#FFFFFF" transform="translate(181.0625,0.4375)"/>
<path d="M0 0 C2.35505191 2.35505191 1.23328617 8.1514964 1.25 11.3125 C1.270625 12.27607422 1.29125 13.23964844 1.3125 14.23242188 C1.32023437 15.62750977 1.32023437 15.62750977 1.328125 17.05078125 C1.34214355 18.32949097 1.34214355 18.32949097 1.35644531 19.6340332 C0.92782083 22.47910157 -0.12711016 23.85977522 -2 26 C-1.51321777 26.39638672 -1.02643555 26.79277344 -0.52490234 27.20117188 C1.43862292 29.51741494 1.38639655 30.77445301 1.3984375 33.78125 C1.40423828 35.16763672 1.40423828 35.16763672 1.41015625 36.58203125 C1.39855469 37.54496094 1.38695312 38.50789063 1.375 39.5 C1.38660156 40.46292969 1.39820313 41.42585938 1.41015625 42.41796875 C1.40628906 43.34222656 1.40242188 44.26648438 1.3984375 45.21875 C1.39505371 46.06373047 1.39166992 46.90871094 1.38818359 47.77929688 C0.91549776 50.4834166 0.17775386 51.371791 -2 53 C-10.72403642 54.31829884 -17.57265472 52.39076645 -25.125 48.3125 C-29.50716526 44.7877149 -33.39900038 41.06612151 -34.51611328 35.36694336 C-34.66072282 32.49314365 -34.62354982 29.68696369 -34.5 26.8125 C-34.4896875 25.84119141 -34.479375 24.86988281 -34.46875 23.86914062 C-34.23799501 13.34815539 -34.23799501 13.34815539 -30.4921875 9.41796875 C-28.99479167 8.27864583 -27.49739583 7.13932292 -26 6 C-26 10.62 -26 15.24 -26 20 C-20.72 20 -15.44 20 -10 20 C-10 14.72 -10 9.44 -10 4 C-14.29 4 -18.58 4 -23 4 C-20.06691132 1.06691132 -16.57173204 0.97793738 -12.625 0.3125 C-11.85671875 0.17005859 -11.0884375 0.02761719 -10.296875 -0.11914062 C-9.55179688 -0.24869141 -8.80671875 -0.37824219 -8.0390625 -0.51171875 C-7.02126709 -0.68900513 -7.02126709 -0.68900513 -5.98291016 -0.86987305 C-3.76169322 -1.0156387 -2.10865076 -0.69084336 0 0 Z M-26 31 C-26 36.28 -26 41.56 -26 47 C-20.72 47 -15.44 47 -10 47 C-10 41.72 -10 36.44 -10 31 C-15.28 31 -20.56 31 -26 31 Z " fill="#FFFFFF" transform="translate(56,134)"/>
<path d="M0 0 C1.69921875 1.453125 1.69921875 1.453125 3 3 C5.09989652 4.17574711 5.09989652 4.17574711 7 5 C7 5.66 7 6.32 7 7 C7.99 7.33 8.98 7.66 10 8 C10.22321988 11.90634794 9.4709537 14.41455034 8 18 C8 19.32 8 20.64 8 22 C6.13671875 24.91015625 6.13671875 24.91015625 3.6875 28.0625 C2.48673828 29.62677734 2.48673828 29.62677734 1.26171875 31.22265625 C0.51535156 32.13917969 -0.23101562 33.05570313 -1 34 C-1.43054688 34.59683594 -1.86109375 35.19367188 -2.3046875 35.80859375 C-5.16737585 37.82039086 -8.42487201 37.78501001 -11.8125 38 C-12.51181641 38.07605469 -13.21113281 38.15210938 -13.93164062 38.23046875 C-17.86162247 38.50251614 -20.33687356 38.15501622 -23.359375 35.7109375 C-27.35665806 31.60721791 -29.91136637 28.48174157 -30.125 22.5 C-28.3615769 17.01379479 -25.20651155 13.30384773 -20.25 10.375 C-17.37779639 8.61976446 -17.20027981 7.07571701 -16 4 C-11.80006168 -1.01282961 -6.12209173 -1.05193836 0 0 Z " fill="#E0E0E0" transform="translate(183,117)"/>
<path d="M0 0 C4.29 0 8.58 0 13 0 C13 20.79 13 41.58 13 63 C8.71 63 4.42 63 0 63 C0 49.8 0 36.6 0 23 C-3.3 23 -6.6 23 -10 23 C-10 18.71 -10 14.42 -10 10 C-6.7 10 -3.4 10 0 10 C0 6.7 0 3.4 0 0 Z " fill="#DE1800" transform="translate(97,192)"/>
<path d="M0 0 C3.63 0 7.26 0 11 0 C11.2475 1.19625 11.495 2.3925 11.75 3.625 C12.75201662 7.71236276 14.61069065 10.53164771 17 14 C18.52115667 18.44645797 17.6951066 22.44319006 17 27 C20.63 27 24.26 27 28 27 C28 24.69 28 22.38 28 20 C30.31 20 32.62 20 35 20 C35 22.31 35 24.62 35 27 C38.3 27 41.6 27 45 27 C45 25.02 45 23.04 45 21 C45.72445312 20.81824219 46.44890625 20.63648438 47.1953125 20.44921875 C52.46799057 19.07832245 57.25483705 17.69320059 62 15 C62 18.96 62 22.92 62 27 C62.66 27.33 63.32 27.66 64 28 C48.19433238 34.40044036 34.70609158 37.73128689 18 32 C13.98943946 30.04135415 10.51414531 27.74315635 7 25 C6.26136719 24.45988281 5.52273437 23.91976562 4.76171875 23.36328125 C1.15592065 20.14768976 -0.13003371 17.49343525 -0.421875 12.7109375 C-0.50584596 8.4555205 -0.30383065 4.24398372 0 0 Z " fill="#5A5A5A" transform="translate(164,165)"/>
<path d="M0 0 C3.63 0 7.26 0 11 0 C12.37631366 17.7200384 12.37631366 17.7200384 7.75 23.1875 C-0.33770677 30.43362882 -9.13084983 35.13487227 -20 36 C-20.85980469 36.08121094 -21.71960937 36.16242188 -22.60546875 36.24609375 C-33.89471998 36.79638221 -44.98453294 32.91987856 -55 28 C-55 27.67 -55 27.34 -55 27 C-53.98631348 26.98598145 -53.98631348 26.98598145 -52.95214844 26.97167969 C-49.8840289 26.91792699 -46.81742613 26.83429008 -43.75 26.75 C-42.68652344 26.73582031 -41.62304688 26.72164062 -40.52734375 26.70703125 C-39.50253906 26.67480469 -38.47773437 26.64257812 -37.421875 26.609375 C-36.00793457 26.5779541 -36.00793457 26.5779541 -34.56542969 26.54589844 C-31.31076612 25.85333775 -30.20751679 24.4174233 -28 22 C-25.11788698 21.03929566 -23.30149956 20.89418117 -20.3125 20.9375 C-19.10013672 20.95103516 -19.10013672 20.95103516 -17.86328125 20.96484375 C-17.24839844 20.97644531 -16.63351563 20.98804688 -16 21 C-16 22.98 -16 24.96 -16 27 C-12.7 27 -9.4 27 -6 27 C-6.05800781 26.2265625 -6.11601563 25.453125 -6.17578125 24.65625 C-6.46143805 18.06165877 -6.13012519 14.14726614 -2.1796875 8.82421875 C-0.3231802 5.95339455 -0.21059691 3.36955057 0 0 Z " fill="#767676" transform="translate(80,165)"/>
<path d="M0 0 C3.68534932 2.83443268 5.28084489 5.476764 6.15429688 10.07373047 C6.48163464 12.83526164 6.63484905 15.54437781 6.703125 18.32421875 C6.74131348 19.68389771 6.74131348 19.68389771 6.78027344 21.07104492 C6.62958573 26.28073847 5.87290921 29.09840711 2.140625 32.84765625 C1.0162996 33.82352319 -0.12280872 34.78379958 -1.296875 35.69921875 C-3.86682574 34.41424338 -4.20121963 33.20009502 -5.421875 30.63671875 C-5.95167969 29.53650391 -5.95167969 29.53650391 -6.4921875 28.4140625 C-6.75773437 27.84816406 -7.02328125 27.28226563 -7.296875 26.69921875 C-6.636875 26.69921875 -5.976875 26.69921875 -5.296875 26.69921875 C-5.296875 21.41921875 -5.296875 16.13921875 -5.296875 10.69921875 C-10.576875 10.69921875 -15.856875 10.69921875 -21.296875 10.69921875 C-21.296875 14.32921875 -21.296875 17.95921875 -21.296875 21.69921875 C-25.256875 22.19421875 -25.256875 22.19421875 -29.296875 22.69921875 C-29.296875 23.35921875 -29.296875 24.01921875 -29.296875 24.69921875 C-30.286875 25.02921875 -31.276875 25.35921875 -32.296875 25.69921875 C-33.83998427 8.03919041 -33.83998427 8.03919041 -29.046875 2.07421875 C-21.27928091 -4.15964657 -8.88090725 -3.50395985 0 0 Z " fill="#FFFFFF" transform="translate(99.296875,2.30078125)"/>
<path d="M0 0 C0 3.3 0 6.6 0 10 C-9.24 10 -18.48 10 -28 10 C-28 15.61 -28 21.22 -28 27 C-21.73 27 -15.46 27 -9 27 C-9 30.63 -9 34.26 -9 38 C-14.28 38 -19.56 38 -25 38 C-26.46149173 35.27248354 -27.91927858 32.54309402 -29.375 29.8125 C-29.7875 29.04357422 -30.2 28.27464844 -30.625 27.48242188 C-32.6341107 23.70723806 -34.44044119 19.98634892 -36 16 C-36.66 15.01 -37.32 14.02 -38 13 C-37.62777547 7.85676948 -35.24680446 5.12298426 -31.61621094 1.67626953 C-26.54770833 -1.5712425 -20.97448843 -1.13406289 -15.125 -1.0625 C-13.89007813 -1.08248047 -12.65515625 -1.10246094 -11.3828125 -1.12304688 C-2.4325574 -1.2162787 -2.4325574 -1.2162787 0 0 Z " fill="#C5C5C5" transform="translate(147,127)"/>
<path d="M0 0 C8.77309312 8.77309312 11.33435998 17.80312547 12 30 C12.09667969 31.12728516 12.09667969 31.12728516 12.1953125 32.27734375 C12.7425853 42.6572846 7.35330037 51.16259534 1 59 C0.67 59 0.34 59 0 59 C0 54.71 0 50.42 0 46 C-1.65 46 -3.3 46 -5 46 C-5 37.09 -5 28.18 -5 19 C-3.35 19 -1.7 19 0 19 C0 12.73 0 6.46 0 0 Z " fill="#7E7E7E" transform="translate(237,127)"/>
<path d="M0 0 C3.09627404 3.0579193 5.91693246 6.05951926 8.5 9.5625 C10.58272857 12.3333949 12.06853614 14.04812112 14.9375 16.0625 C17 18 17 18 17.3046875 20.01171875 C17.31166364 22.01038244 17.165981 24.00822805 17 26 C15.35 26 13.7 26 12 26 C12.01160156 26.94359375 12.02320312 27.8871875 12.03515625 28.859375 C12.09215343 36.96925884 11.84230236 44.92292197 11 53 C7.7 53 4.4 53 1 53 C-0.1989172 47.3663337 -0.1273081 41.86120261 -0.09765625 36.1328125 C-0.0962413 35.09808807 -0.09482635 34.06336365 -0.09336853 32.99728394 C-0.08779039 29.70649268 -0.07524188 26.41577054 -0.0625 23.125 C-0.05748218 20.88802182 -0.05291976 18.65104257 -0.04882812 16.4140625 C-0.03782812 10.94268492 -0.02111177 5.4713474 0 0 Z " fill="#FFFFFF" transform="translate(63,139)"/>
<path d="M0 0 C2.61874894 1.30937447 2.92509242 2.55398187 4.1640625 5.18359375 C4.76347656 6.45106445 4.76347656 6.45106445 5.375 7.74414062 C5.7875 8.63294922 6.2 9.52175781 6.625 10.4375 C7.25535156 11.76491211 7.25535156 11.76491211 7.8984375 13.11914062 C11 19.73010095 11 19.73010095 11 22 C11.886875 21.896875 12.77375 21.79375 13.6875 21.6875 C17 22 17 22 19.875 24.125 C22 27 22 27 22.625 30 C21.27967586 36.45755587 15.07494982 39.45570351 9.890625 42.86328125 C8 44 8 44 7 44 C7 41.03 7 38.06 7 35 C3.7 35 0.4 35 -3 35 C-3 24.44 -3 13.88 -3 3 C-2.01 3 -1.02 3 0 3 C0 2.01 0 1.02 0 0 Z " fill="#060000" transform="translate(164,189)"/>
<path d="M0 0 C0.33 0 0.66 0 1 0 C1 20.13 1 40.26 1 61 C-5.91175463 54.08824537 -11.92004968 46.05597649 -12.25 35.9375 C-11.89355991 22.68238422 -9.62135617 9.62135617 0 0 Z " fill="#7E7E7E" transform="translate(18,127)"/>
<path d="M0 0 C0.556875 0.7425 1.11375 1.485 1.6875 2.25 C6.11986056 7.53578721 6.11986056 7.53578721 12.55078125 9.390625 C13.79214844 9.34421875 15.03351563 9.2978125 16.3125 9.25 C18.19388672 9.19585937 18.19388672 9.19585937 20.11328125 9.140625 C21.06589844 9.09421875 22.01851562 9.0478125 23 9 C22.67 9.66 22.34 10.32 22 11 C21.77532169 12.53668865 21.59203195 14.07968054 21.4375 15.625 C21.293125 17.06875 21.14875 18.5125 21 20 C17.37 20 13.74 20 10 20 C10.08378906 21.69769531 10.16757813 23.39539063 10.25390625 25.14453125 C10.35706687 27.36717378 10.45991527 29.58983082 10.5625 31.8125 C10.61857422 32.93205078 10.67464844 34.05160156 10.73242188 35.20507812 C10.78076172 36.27822266 10.82910156 37.35136719 10.87890625 38.45703125 C10.9260376 39.44678955 10.97316895 40.43654785 11.02172852 41.45629883 C11 44 11 44 10 47 C6.7 47 3.4 47 0 47 C-0.78457558 31.25155777 -1.16609843 15.73335879 0 0 Z " fill="#C7C7C7" transform="translate(154,145)"/>
<path d="M0 0 C0.74636719 -0.01224609 1.49273437 -0.02449219 2.26171875 -0.03710938 C6.46938833 -0.04828018 9.65636455 0.25805601 13.5 2.1875 C12.625 8.0625 12.625 8.0625 11.5 9.1875 C9.9750091 9.42470418 8.44143294 9.60726967 6.90625 9.765625 C5.9575 9.87519531 5.00875 9.98476562 4.03125 10.09765625 C2.04297274 10.32056878 0.05335708 10.53191253 -1.9375 10.73046875 C-10.45809311 11.74973325 -18.30043448 14.83206851 -24.34765625 21.1640625 C-26.90978293 25.66298325 -27.06330624 31.11281737 -27.5 36.1875 C-27.83 36.1875 -28.16 36.1875 -28.5 36.1875 C-29.88297872 15.65558511 -29.88297872 15.65558511 -28.5 6.1875 C-27.324375 5.919375 -26.14875 5.65125 -24.9375 5.375 C-22.09344347 4.67152312 -19.48414439 3.82547457 -16.8125 2.625 C-11.19147128 0.18568565 -6.0349654 0.00521154 0 0 Z " fill="#E3E3E3" transform="translate(47.5,120.8125)"/>
<path d="M0 0 C1.13175659 0.00519653 1.13175659 0.00519653 2.28637695 0.01049805 C10.6379959 0.17263931 17.48942588 2.26553799 24.8125 6.3125 C24.8125 6.6425 24.8125 6.9725 24.8125 7.3125 C23.554375 7.333125 22.29625 7.35375 21 7.375 C20.29230469 7.38660156 19.58460938 7.39820312 18.85546875 7.41015625 C16.8125 7.3125 16.8125 7.3125 13.8125 6.3125 C14.6375 6.60125 15.4625 6.89 16.3125 7.1875 C18.8125 9.3125 18.8125 9.3125 19.14453125 11.73828125 C19.12656576 14.2786018 19.02618825 16.78148139 18.8125 19.3125 C17.95978516 18.89677734 17.95978516 18.89677734 17.08984375 18.47265625 C12.2290523 16.19238514 8.14009111 14.86745741 2.8125 14.3125 C1.8125 13.3125 1.8125 13.3125 1.75 10.25 C1.7809375 8.7959375 1.7809375 8.7959375 1.8125 7.3125 C-1.4875 7.3125 -4.7875 7.3125 -8.1875 7.3125 C-8.1875 7.9725 -8.1875 8.6325 -8.1875 9.3125 C-9.5075 8.9825 -10.8275 8.6525 -12.1875 8.3125 C-12.5175 6.3325 -12.8475 4.3525 -13.1875 2.3125 C-8.83289341 0.16513997 -4.76643689 -0.03527574 0 0 Z " fill="#7F7F7F" transform="translate(207.1875,119.6875)"/>
<path d="M0 0 C3.63 0 7.26 0 11 0 C11.2475 1.19625 11.495 2.3925 11.75 3.625 C12.75201662 7.71236276 14.61069065 10.53164771 17 14 C18.52115667 18.44645797 17.6951066 22.44319006 17 27 C11.35673689 23.46355512 6.53743843 19.88647215 2 15 C1.34 15.66 0.68 16.32 0 17 C0 11.39 0 5.78 0 0 Z " fill="#808080" transform="translate(164,165)"/>
<path d="M0 0 C0.58984375 1.859375 0.58984375 1.859375 1 4 C-0.4375 6.25 -0.4375 6.25 -2 8 C-1.51104248 8.35811768 -1.02208496 8.71623535 -0.51831055 9.08520508 C1.71337719 11.8996651 1.33950005 14.08482951 1.29296875 17.63671875 C1.28330078 18.93544922 1.27363281 20.23417969 1.26367188 21.57226562 C1.23860585 22.94401639 1.21321101 24.31576118 1.1875 25.6875 C1.1724502 27.07094924 1.1587623 28.45441401 1.14648438 29.83789062 C1.11107223 33.22565207 1.06168054 36.61263139 1 40 C-4.445 40.495 -4.445 40.495 -10 41 C-10.37886864 30.39167813 -10.37886864 30.39167813 -7 26 C-5.94201171 21.73882065 -6.04575846 17.91927855 -6.3125 13.5625 C-6.38240759 8.86255863 -6.12335549 6.27167843 -3 2.6875 C-1.3125 1.07421875 -1.3125 1.07421875 0 0 Z " fill="#FFFFFF" transform="translate(101,152)"/>
<path d="M0 0 C0.66 0.33 1.32 0.66 2 1 C2.93864715 15.4795014 2.93864715 15.4795014 0.6640625 19.1640625 C-0.44027593 20.17507655 -1.55225045 21.17781582 -2.671875 22.171875 C-5.16224754 25.59979955 -4.28183384 29.76355439 -4.08984375 33.828125 C-3.97140877 38.00939481 -4.5917896 41.07183414 -6 45 C-6.99 45.66 -7.98 46.32 -9 47 C-9 41.39 -9 35.78 -9 30 C-12.63 30 -16.26 30 -20 30 C-20.103125 28.741875 -20.20625 27.48375 -20.3125 26.1875 C-20.64858808 23.39500343 -20.80025876 22.25566879 -22.5625 20 C-23.036875 19.67 -23.51125 19.34 -24 19 C-19.98493414 18.91457307 -16.33922211 19.09261643 -12.375 19.75 C-8.97788677 20.15441824 -8.23919744 20.13519855 -5.125 18.375 C0.29466999 12.31772177 0.375577 7.942758 0 0 Z " fill="#C4C4C4" transform="translate(100,135)"/>
<path d="M0 0 C5.28 0 10.56 0 16 0 C16 5.61 16 11.22 16 17 C12.0709375 17.0309375 12.0709375 17.0309375 8.0625 17.0625 C7.2362915 17.071604 6.41008301 17.08070801 5.55883789 17.09008789 C3.70566241 17.09723945 1.85250692 17.0502852 0 17 C-0.33 16.67 -0.66 16.34 -1 16 C-0.90900324 13.29651552 -0.76251399 10.6328265 -0.5625 7.9375 C-0.376875 5.318125 -0.19125 2.69875 0 0 Z " fill="#797979" transform="translate(75,137)"/>
<path d="M0 0 C3.7460472 1.8730236 4.95219937 6.65147162 6.6875 10.3125 C7.33041992 11.61477539 7.33041992 11.61477539 7.98632812 12.94335938 C8.38658203 13.78318359 8.78683594 14.62300781 9.19921875 15.48828125 C9.56877686 16.25696533 9.93833496 17.02564941 10.3190918 17.81762695 C11.11602077 20.37185719 11.0403183 21.55002926 10 24 C7.3125 25.921875 7.3125 25.921875 4 27.75 C2.3603125 28.67039063 2.3603125 28.67039063 0.6875 29.609375 C-2 31 -2 31 -3 31 C-3 21.76 -3 12.52 -3 3 C-2.01 3 -1.02 3 0 3 C0 2.01 0 1.02 0 0 Z " fill="#5C2E02" transform="translate(164,189)"/>
<path d="M0 0 C2.42953834 1.63993838 3.57554068 2.49335427 5 5 C5.29234277 8.28994695 5.18172216 11.46255402 5.0546875 14.76171875 C4.98375304 18.96205206 5.60862537 22.04556683 7 26 C7.53625 26.515625 8.0725 27.03125 8.625 27.5625 C10 29 10 29 10.25 32.5 C10 36 10 36 9 39 C5.7 39 2.4 39 -1 39 C-1.19581346 34.52115561 -1.3802636 30.04191574 -1.5625 25.5625 C-1.61857422 24.28310547 -1.67464844 23.00371094 -1.73242188 21.68554688 C-1.78076172 20.47060547 -1.82910156 19.25566406 -1.87890625 18.00390625 C-1.9260376 16.87799072 -1.97316895 15.7520752 -2.02172852 14.59204102 C-2 12 -2 12 -1 11 C-0.76636119 9.15108054 -0.58696365 7.29511969 -0.4375 5.4375 C-0.35371094 4.42558594 -0.26992187 3.41367188 -0.18359375 2.37109375 C-0.12300781 1.58863281 -0.06242188 0.80617187 0 0 Z " fill="#D8D0C8" transform="translate(155,153)"/>
<path d="M0 0 C0.05383848 2.45862401 0.09359038 4.9160755 0.125 7.375 C0.14175781 8.07367188 0.15851563 8.77234375 0.17578125 9.4921875 C0.19344267 11.32897486 0.10303261 13.16601963 0 15 C-2 17 -2 17 -5.2578125 17.1953125 C-8.83854167 17.13020833 -12.41927083 17.06510417 -16 17 C-16 11.72 -16 6.44 -16 1 C-13.9890625 0.7525 -13.9890625 0.7525 -11.9375 0.5 C-10.80634766 0.36078125 -10.80634766 0.36078125 -9.65234375 0.21875 C-6.42775855 -0.04719517 -3.23400977 -0.03166717 0 0 Z " fill="#797979" transform="translate(181,137)"/>
<path d="M0 0 C1.69921875 1.453125 1.69921875 1.453125 3 3 C5.09989652 4.17574711 5.09989652 4.17574711 7 5 C7 5.66 7 6.32 7 7 C7.99 7.33 8.98 7.66 10 8 C10.25 10.25 10.25 10.25 10 13 C8 15.3125 8 15.3125 6 17 C4.80503906 15.54207031 4.80503906 15.54207031 3.5859375 14.0546875 C0.2622448 10.7309948 -2.32529817 10.26679671 -6.92578125 10.1171875 C-7.73402344 10.11976562 -8.54226562 10.12234375 -9.375 10.125 C-10.20644531 10.104375 -11.03789062 10.08375 -11.89453125 10.0625 C-13.92925655 10.01572471 -15.96474159 10.00426679 -18 10 C-15.06580718 0.48017441 -9.66564403 -1.660815 0 0 Z " fill="#828282" transform="translate(183,117)"/>
<path d="M0 0 C0.33 0 0.66 0 1 0 C1.27325348 2.99527848 1.24070103 4.59930358 -0.328125 7.2109375 C-8.43877886 16.34366562 -17.71000792 22.02178066 -30 23 C-31.28970703 23.12181641 -31.28970703 23.12181641 -32.60546875 23.24609375 C-43.89471998 23.79638221 -54.98453294 19.91987856 -65 15 C-65 14.67 -65 14.34 -65 14 C-60.14430379 13.54830733 -56.72367526 14.36132525 -52.125 16 C-42.24319041 19.21786409 -28.78115509 20.06489562 -19 16 C-11.84787498 12.3566599 -6.53202808 7.92180576 -1.4609375 1.72265625 C-0.97882813 1.15417969 -0.49671875 0.58570313 0 0 Z " fill="#000000" transform="translate(90,178)"/>
<path d="M0 0 C0.61875 0.66 1.2375 1.32 1.875 2 C13.00971851 13.10299566 22.4787927 17.21959803 38.13647461 17.40039062 C46.25745147 17.28118363 53.46452052 14.83975001 61 12 C61 12.66 61 13.32 61 14 C61.66 14.33 62.32 14.66 63 15 C47.20288923 21.3969753 33.69706631 24.74151855 17 19 C10.42196717 15.74878837 3.75523624 11.50598541 0 5 C-0.375 2.0625 -0.375 2.0625 0 0 Z " fill="#000000" transform="translate(165,178)"/>
<path d="M0 0 C0.66 1.32 1.32 2.64 2 4 C3.26509754 6.41556677 3.26509754 6.41556677 5 9 C5.36480469 9.57234375 5.72960937 10.1446875 6.10546875 10.734375 C11.06522773 17.54131694 18.38189622 19.17686576 26.375 20.6015625 C27.24125 20.73304688 28.1075 20.86453125 29 21 C29 21.66 29 22.32 29 23 C19.43 23.33 9.86 23.66 0 24 C0 16.08 0 8.16 0 0 Z " fill="#E2E2E2" transform="translate(19,169)"/>
<path d="M0 0 C6.75 0.875 6.75 0.875 9 2 C11.204364 2.22950319 13.41392173 2.41075933 15.625 2.5625 C18.780625 2.7790625 18.780625 2.7790625 22 3 C22 9.27 22 15.54 22 22 C17 22 17 22 13.75 19.6875 C9.74697157 15.42786719 10.13686129 10.61131271 10 5 C5.05 3.02 5.05 3.02 0 1 C0 0.67 0 0.34 0 0 Z " fill="#D9D9D9" transform="translate(215,124)"/>
<path d="M0 0 C0 6.6 0 13.2 0 20 C-9 20 -9 20 -11 19 C-11.85956661 6.12560227 -11.85956661 6.12560227 -8.875 2.1875 C-6 0 -6 0 0 0 Z " fill="#CDCDCD" transform="translate(237,173)"/>
<path d="M0 0 C0 6.93 0 13.86 0 21 C-1.98 21.66 -3.96 22.32 -6 23 C-6.66 23.99 -7.32 24.98 -8 26 C-8.66 25.67 -9.32 25.34 -10 25 C-10.625 22.9375 -10.625 22.9375 -11 21 C-9.68 21 -8.36 21 -7 21 C-7 17.7 -7 14.4 -7 11 C-9.97 11 -12.94 11 -16 11 C-15 7 -15 7 -11.875 5.078125 C-10.59023763 4.45432509 -9.29816038 3.84541608 -8 3.25 C-7.34515625 2.93417969 -6.6903125 2.61835938 -6.015625 2.29296875 C-1.21130952 0 -1.21130952 0 0 0 Z " fill="#613103" transform="translate(154,171)"/>
<path d="M0 0 C0.72920654 -0.00539795 1.45841309 -0.0107959 2.2097168 -0.01635742 C6.29538227 0.03769199 9.51214842 0.50009676 13.1875 2.3125 C12.3125 8.1875 12.3125 8.1875 11.1875 9.3125 C9.19140625 9.48046875 9.19140625 9.48046875 6.75 9.5 C5.54537109 9.52126953 5.54537109 9.52126953 4.31640625 9.54296875 C2.1875 9.3125 2.1875 9.3125 0.1875 7.3125 C-2.44226524 6.88696839 -2.44226524 6.88696839 -5.375 6.75 C-10.71527778 6.40972222 -10.71527778 6.40972222 -11.8125 5.3125 C-12.8025 5.6425 -13.7925 5.9725 -14.8125 6.3125 C-16.20689664 6.37915376 -17.60419875 6.39788199 -19 6.375 C-20.8871875 6.3440625 -20.8871875 6.3440625 -22.8125 6.3125 C-15.96654242 0.82034976 -8.53104721 0.03924629 0 0 Z " fill="#808080" transform="translate(47.8125,120.6875)"/>
<path d="M0 0 C0.33 0.99 0.66 1.98 1 3 C0.109375 4.62109375 0.109375 4.62109375 -1.25 6.4375 C-7.53215077 16.07013118 -8.36951215 28.73547814 -8 40 C-7.191672 43.43419825 -5.92813263 46.06303018 -4 49 C-3.06179055 50.43703707 -2.12427949 51.87453036 -1.1875 53.3125 C-0.74792969 53.92738281 -0.30835938 54.54226562 0.14453125 55.17578125 C1.23624731 57.50377851 0.85238765 58.63109444 0 61 C-8.55643558 50.076007 -13.13084716 41.82579295 -11.6796875 27.93359375 C-10.25403339 16.95605711 -7.84649063 8.02481996 0 0 Z " fill="#000000" transform="translate(18,127)"/>
<path d="M0 0 C8.87921838 8.39926063 11.3484938 18.06210699 12 30 C12.09667969 31.12728516 12.09667969 31.12728516 12.1953125 32.27734375 C12.75330516 42.86060458 7.16479598 50.86108396 1 59 C0.32421875 57.33984375 0.32421875 57.33984375 0 55 C1.14453125 52.37890625 1.14453125 52.37890625 2.8125 49.5625 C6.66148229 42.98905993 8.37875707 38.63481534 7.8125 30.9375 C7.7357605 29.81239014 7.7357605 29.81239014 7.6574707 28.66455078 C6.90825792 19.19878814 5.00223722 11.10707411 0 3 C0 2.01 0 1.02 0 0 Z " fill="#000000" transform="translate(237,127)"/>
<path d="M0 0 C5.79273668 0.01510492 8.44439386 1.77418452 12.4765625 5.7734375 C13.9375 7.5 13.9375 7.5 14.9375 9.5 C8.0075 9.5 1.0775 9.5 -6.0625 9.5 C-5.0725 7.85 -4.0825 6.2 -3.0625 4.5 C0.625 3.6875 0.625 3.6875 3.9375 3.5 C1.13704954 2.64349347 1.13704954 2.64349347 -2.0625 2.5 C-4.94892473 4.68432142 -5.91351198 6.05303594 -7.0625 9.5 C-9.0425 9.5 -11.0225 9.5 -13.0625 9.5 C-13.0625 11.15 -13.0625 12.8 -13.0625 14.5 C-13.7225 14.17 -14.3825 13.84 -15.0625 13.5 C-15.25 11.125 -15.25 11.125 -15.0625 8.5 C-14.0725 7.84 -13.0825 7.18 -12.0625 6.5 C-11.7325 5.84 -11.4025 5.18 -11.0625 4.5 C-9.41428756 3.46986723 -7.74746298 2.46885372 -6.0625 1.5 C-4.36524079 -0.19725921 -2.32647665 0.12800422 0 0 Z " fill="#838383" transform="translate(77.0625,117.5)"/>
<path d="M0 0 C2.89777256 2.68991667 4.815407 5.13782304 6.56542969 8.67675781 C7.02560486 9.59741028 7.48578003 10.51806274 7.9598999 11.46661377 C8.44235168 12.45216248 8.92480347 13.43771118 9.421875 14.453125 C9.92672424 15.46848328 10.43157349 16.48384155 10.95172119 17.52996826 C12.55871033 20.76629436 14.15446916 24.00801202 15.75 27.25 C16.83910743 29.44828162 17.92894278 31.64620276 19.01953125 33.84375 C21.68814087 39.22501597 24.34755708 44.61074868 27 50 C26.34 50.66 25.68 51.32 25 52 C21.22987616 46.21595393 17.97537438 40.27092427 14.8828125 34.1015625 C14.42139862 33.18539154 13.95998474 32.26922058 13.48458862 31.32528687 C12.51953801 29.40524359 11.55660333 27.48413546 10.59570312 25.56201172 C9.11674166 22.60850801 7.62505475 19.66165526 6.1328125 16.71484375 C5.19453135 14.84414159 4.25700379 12.97306123 3.3203125 11.1015625 C2.87148712 10.21828278 2.42266174 9.33500305 1.9602356 8.42495728 C1.55586273 7.61005829 1.15148987 6.7951593 0.73486328 5.95556641 C0.37466095 5.23801178 0.01445862 4.52045715 -0.35665894 3.78115845 C-0.56896149 3.19337616 -0.78126404 2.60559387 -1 2 C-0.67 1.34 -0.34 0.68 0 0 Z " fill="#FFFFFF" transform="translate(91,47)"/>
<path d="M0 0 C4.08813077 0.78893752 6.34739611 2.07055497 9.5625 4.6875 C11.5625 7.6875 11.5625 7.6875 11.1875 10.375 C10.878125 11.5196875 10.878125 11.5196875 10.5625 12.6875 C9.9025 12.6875 9.2425 12.6875 8.5625 12.6875 C8.315 11.924375 8.0675 11.16125 7.8125 10.375 C6.40057503 7.33936132 5.50872344 6.24245126 2.5625 4.6875 C-0.56336875 4.35352213 -0.56336875 4.35352213 -3.4375 4.6875 C-4.67586166 5.73092781 -4.67586166 5.73092781 -4.8125 8 C-4.67850571 10.85471919 -4.67850571 10.85471919 -2.375 12.875 C0.98300589 14.94696108 3.7399274 15.78807115 7.5625 16.6875 C6.9025 17.3475 6.2425 18.0075 5.5625 18.6875 C0.70774122 18.60791379 -1.49143121 18.41214843 -5.375 15.4375 C-8.6016791 11.13526119 -8.6016791 11.13526119 -8.4375 7.6875 C-6.51410397 3.30032525 -4.78980945 0.95796189 0 0 Z " fill="#7E7E7E" transform="translate(151.4375,108.3125)"/>
<path d="M0 0 C2.42953834 1.63993838 3.57554068 2.49335427 5 5 C5.29234277 8.28994695 5.18172216 11.46255402 5.0546875 14.76171875 C4.98375304 18.96205206 5.60862537 22.04556683 7 26 C7.53625 26.515625 8.0725 27.03125 8.625 27.5625 C10 29 10 29 10.1875 32.6875 C10.125625 33.780625 10.06375 34.87375 10 36 C6.95982471 32.32884494 4.97488624 28.24592382 2.875 24 C2.33552734 22.93265625 2.33552734 22.93265625 1.78515625 21.84375 C1.44097656 21.1528125 1.09679687 20.461875 0.7421875 19.75 C0.27594971 18.81414062 0.27594971 18.81414062 -0.19970703 17.859375 C-1.03815819 15.91134448 -1.62470922 14.08779895 -2 12 C-1.67 11.67 -1.34 11.34 -1 11 C-0.76636119 9.15108054 -0.58696365 7.29511969 -0.4375 5.4375 C-0.35371094 4.42558594 -0.26992187 3.41367188 -0.18359375 2.37109375 C-0.12300781 1.58863281 -0.06242188 0.80617187 0 0 Z " fill="#FFFFFF" transform="translate(155,153)"/>
<path d="M0 0 C0 2.64 0 5.28 0 8 C-2.41267325 8.867242 -4.82904469 9.71896936 -7.25 10.5625 C-7.93191406 10.80935547 -8.61382812 11.05621094 -9.31640625 11.31054688 C-15.58342161 13.47053761 -15.58342161 13.47053761 -19 12 C-18.34 12 -17.68 12 -17 12 C-17 10.02 -17 8.04 -17 6 C-16.26394531 5.81824219 -15.52789062 5.63648438 -14.76953125 5.44921875 C-10.56163782 4.36528319 -3.76247504 0 0 0 Z " fill="#7F7F7F" transform="translate(226,180)"/>
<path d="M0 0 C1.5625 1.25 1.5625 1.25 3 3 C2.96484375 4.875 2.96484375 4.875 2 7 C-0.6875 8.921875 -0.6875 8.921875 -4 10.75 C-5.6396875 11.67039063 -5.6396875 11.67039063 -7.3125 12.609375 C-10 14 -10 14 -11 14 C-11 11.03 -11 8.06 -11 5 C-10.37351563 4.72285156 -9.74703125 4.44570312 -9.1015625 4.16015625 C-8.28429687 3.79792969 -7.46703125 3.43570313 -6.625 3.0625 C-5.81289062 2.70285156 -5.00078125 2.34320313 -4.1640625 1.97265625 C-2.76316215 1.3430097 -1.37374716 0.68687358 0 0 Z " fill="#602F00" transform="translate(172,206)"/>
<path d="M0 0 C3.94027624 1.12579321 6.49862909 2.90784382 9.0625 6.13671875 C10.80314978 9.59626018 10.37653386 13.23466137 10 17 C9.01 17 8.02 17 7 17 C5.95355934 15.36209288 4.9601817 13.68991979 4 12 C3.278125 11.401875 2.55625 10.80375 1.8125 10.1875 C-0.94307107 6.86181077 -0.28204226 4.2306339 0 0 Z " fill="#E5E5E5" transform="translate(227,129)"/>
<path d="M0 0 C0.66 0 1.32 0 2 0 C2 8.58 2 17.16 2 26 C-1.78010182 20.95986424 -3.28269752 17.65803602 -3.1875 11.375 C-3.18105469 10.43398438 -3.17460938 9.49296875 -3.16796875 8.5234375 C-3 6 -3 6 -2 3 C-1.34 3 -0.68 3 0 3 C0 2.01 0 1.02 0 0 Z " fill="#000000" transform="translate(65,29)"/>
<path d="M0 0 C0.350625 0.45375 0.70125 0.9075 1.0625 1.375 C3.77096206 3.64661334 6.60795328 4.16798854 10 5 C10 7.31 10 9.62 10 12 C6.37 12 2.74 12 -1 12 C-1.14285714 3.42857143 -1.14285714 3.42857143 0 0 Z " fill="#E1E1E1" transform="translate(182,180)"/>
<path d="M0 0 C0 3.3 0 6.6 0 10 C-0.33 9.01 -0.66 8.02 -1 7 C-2.98 7.99 -4.96 8.98 -7 10 C-7 10.33 -7 10.66 -7 11 C-9.97 11 -12.94 11 -16 11 C-15 7 -15 7 -11.875 5.078125 C-10.59023763 4.45432509 -9.29816038 3.84541608 -8 3.25 C-7.34515625 2.93417969 -6.6903125 2.61835938 -6.015625 2.29296875 C-1.21130952 0 -1.21130952 0 0 0 Z " fill="#64370C" transform="translate(154,171)"/>
<path d="M0 0 C3.99881788 0.61520275 6.80358226 2.60268669 10 5 C10 5.66 10 6.32 10 7 C10.99 7.33 11.98 7.66 13 8 C13.25 10.25 13.25 10.25 13 13 C11 15.3125 11 15.3125 9 17 C6.5 14.875 6.5 14.875 4 12 C3.95919217 10.00041636 3.95745644 7.99954746 4 6 C2.08333079 3.74934898 2.08333079 3.74934898 0 2 C0 1.34 0 0.68 0 0 Z " fill="#7C7C7C" transform="translate(180,117)"/>
<path d="M0 0 C4.41982786 0.04761035 6.89327528 1.46314607 10.3125 4.3125 C12.3125 7.3125 12.3125 7.3125 12.1875 10.1875 C11.1805628 13.78370429 9.98579844 15.71558151 7.3125 18.3125 C5.9925 18.3125 4.6725 18.3125 3.3125 18.3125 C2.9825 17.3225 2.6525 16.3325 2.3125 15.3125 C4.2925 14.9825 6.2725 14.6525 8.3125 14.3125 C8.73059201 11.48098027 8.73059201 11.48098027 8.3125 8.3125 C6.34188694 5.76883124 6.34188694 5.76883124 3.3125 4.3125 C-0.39690775 3.97784111 -0.39690775 3.97784111 -3.6875 4.3125 C-4.0175 3.3225 -4.3475 2.3325 -4.6875 1.3125 C-3.6875 0.3125 -3.6875 0.3125 0 0 Z " fill="#7E7E7E" transform="translate(134.6875,96.6875)"/>
<path d="M0 0 C2.31 0 4.62 0 7 0 C7 2.31 7 4.62 7 7 C9.64 7 12.28 7 15 7 C15 7.66 15 8.32 15 9 C12.41638482 9.05407567 9.83390745 9.093707 7.25 9.125 C6.52039063 9.14175781 5.79078125 9.15851563 5.0390625 9.17578125 C1.1955376 9.21072239 -1.74606772 9.17499684 -5 7 C-3.35 7 -1.7 7 0 7 C0 4.69 0 2.38 0 0 Z " fill="#7F7F7F" transform="translate(192,185)"/>
<path d="M0 0 C1.485 0.928125 2.97 1.85625 4.5 2.8125 C8.90346417 5.46586943 13.13143943 7.37714648 18 9 C18 9.33 18 9.66 18 10 C12.06 10.33 6.12 10.66 0 11 C0 7.37 0 3.74 0 0 Z " fill="#DADADA" transform="translate(19,182)"/>
<path d="M0 0 C0.33 0 0.66 0 1 0 C1.05395478 1.62463842 1.09277195 3.24978541 1.125 4.875 C1.14820313 5.77992188 1.17140625 6.68484375 1.1953125 7.6171875 C1 10 1 10 -1 12 C-4.2578125 12.1953125 -4.2578125 12.1953125 -8.125 12.125 C-10.04699219 12.09792969 -10.04699219 12.09792969 -12.0078125 12.0703125 C-13.48894531 12.03550781 -13.48894531 12.03550781 -15 12 C-14 10 -14 10 -10.875 8.8125 C-6.80746204 7.19893122 -4.31716639 4.60356809 -1.3828125 1.42578125 C-0.92648438 0.95527344 -0.47015625 0.48476562 0 0 Z " fill="#5A5A5A" transform="translate(180,142)"/>
<path d="M0 0 C0.66 0 1.32 0 2 0 C2 3.63 2 7.26 2 11 C-1.3 11 -4.6 11 -8 11 C-8 9.02 -8 7.04 -8 5 C-7.05125 4.731875 -6.1025 4.46375 -5.125 4.1875 C-1.74732727 3.25013412 -1.74732727 3.25013412 0 0 Z " fill="#E2E2E2" transform="translate(72,181)"/>
<path d="M0 0 C0 0.99 0 1.98 0 3 C-1.15757813 3.18175781 -2.31515625 3.36351562 -3.5078125 3.55078125 C-5.04695908 3.80417733 -6.58601702 4.05811219 -8.125 4.3125 C-8.88554688 4.43044922 -9.64609375 4.54839844 -10.4296875 4.66992188 C-15.0995549 5.45494269 -18.83164268 6.62283776 -23 9 C-23 7.68 -23 6.36 -23 5 C-15.32564243 0.7143198 -8.71118609 -0.15282783 0 0 Z " fill="#BBBBBB" transform="translate(52,131)"/>
<path d="M0 0 C0.99 0 1.98 0 3 0 C5.27658096 18.3752606 5.27658096 18.3752606 3 26 C2.01 25.67 1.02 25.34 0 25 C0 16.75 0 8.5 0 0 Z " fill="#020202" transform="translate(232,146)"/>
<path d="M0 0 C2.33965571 2.22723982 4.27099166 4.58956647 6.1875 7.1875 C6.71730469 7.90292969 7.24710937 8.61835938 7.79296875 9.35546875 C8.39044922 10.16951172 8.39044922 10.16951172 9 11 C9.33 8.36 9.66 5.72 10 3 C10.33 3 10.66 3 11 3 C11.18451025 13.55808656 11.18451025 13.55808656 10 18 C0.25568182 8.8125 0.25568182 8.8125 -0.3125 2.5625 C-0.209375 1.716875 -0.10625 0.87125 0 0 Z " fill="#C3C3C3" transform="translate(64,134)"/>
<path d="M0 0 C2.97 0 5.94 0 9 0 C9 3.3 9 6.6 9 10 C6.75 9.9375 6.75 9.9375 4 9 C1.9101187 6.34257905 0 3.46449449 0 0 Z " fill="#D8D0C8" transform="translate(138,182)"/>
<path d="M0 0 C0.63615234 0.59748047 0.63615234 0.59748047 1.28515625 1.20703125 C5.32767445 4.85862461 8.88650302 7.12157254 14 9 C14 9.33 14 9.66 14 10 C11.68756208 10.02685412 9.3750373 10.04632841 7.0625 10.0625 C5.77472656 10.07410156 4.48695312 10.08570313 3.16015625 10.09765625 C0 10 0 10 -1 9 C-0.91062197 7.47480724 -0.75462854 5.95318071 -0.5625 4.4375 C-0.46066406 3.61121094 -0.35882813 2.78492188 -0.25390625 1.93359375 C-0.17011719 1.29550781 -0.08632812 0.65742188 0 0 Z " fill="#5B5B5B" transform="translate(75,144)"/>
<path d="M0 0 C0.66 0 1.32 0 2 0 C2.718051 7.06083488 2.718051 7.06083488 0.76953125 9.609375 C-1.69545955 11.67874999 -3.94835615 12.98278538 -7 14 C-7.42640253 9.55435877 -6.41064126 7.61554425 -3.625 4.1875 C-2.68527344 3.00220703 -2.68527344 3.00220703 -1.7265625 1.79296875 C-1.15679687 1.20128906 -0.58703125 0.60960937 0 0 Z " fill="#E3E3E3" transform="translate(234,173)"/>
<path d="M0 0 C0.99 0.66 1.98 1.32 3 2 C1.37879192 5.56496018 -0.7594426 8.59008822 -3.0625 11.75 C-3.77535156 12.73484375 -4.48820313 13.7196875 -5.22265625 14.734375 C-5.80917969 15.48203125 -6.39570313 16.2296875 -7 17 C-7.33 17 -7.66 17 -8 17 C-8 13.7 -8 10.4 -8 7 C-7.34 7.66 -6.68 8.32 -6 9 C-4.02 6.03 -2.04 3.06 0 0 Z " fill="#C1C1C1" transform="translate(189,134)"/>
<path d="M0 0 C3.3 0.33 6.6 0.66 10 1 C10 2.98 10 4.96 10 7 C6.7 7 3.4 7 0 7 C0 4.69 0 2.38 0 0 Z " fill="#E3E3E3" transform="translate(199,185)"/>
<path d="M0 0 C2.53910197 0.38520564 3.72751123 0.70097943 5.484375 2.62890625 C5.90203125 3.26699219 6.3196875 3.90507812 6.75 4.5625 C7.17796875 5.20316406 7.6059375 5.84382812 8.046875 6.50390625 C8.36140625 6.99761719 8.6759375 7.49132812 9 8 C5.57067929 9.71466036 1.78283935 9.05404056 -2 9 C-2 14.28 -2 19.56 -2 25 C-2.33 25 -2.66 25 -3 25 C-3 19.39 -3 13.78 -3 8 C-0.36 7.67 2.28 7.34 5 7 C3.02 6.01 1.04 5.02 -1 4 C-0.67 2.68 -0.34 1.36 0 0 Z " fill="#B7B7B7" transform="translate(167,129)"/>
<path d="M0 0 C0.99 0 1.98 0 3 0 C3.2475 1.19625 3.495 2.3925 3.75 3.625 C4.74578868 7.70917675 6.63226299 10.52731905 9 14 C9 15.32 9 16.64 9 18 C4.58958267 16.52986089 3.50149936 13.55905817 1.23046875 9.65625 C-0.41795676 6.09774415 -0.50150093 3.84484046 0 0 Z " fill="#000000" transform="translate(172,165)"/>
<path d="M0 0 C0.99 0 1.98 0 3 0 C4.04891686 7.94179907 0.76767138 12.780304 -4 19 C-4.33 19 -4.66 19 -5 19 C-5.52101464 14.70162925 -4.19812071 12.45082128 -1.95703125 8.84765625 C-0.45180604 5.94165003 -0.26450574 3.24019526 0 0 Z " fill="#000000" transform="translate(80,165)"/>
<path d="M0 0 C0.33 1.32 0.66 2.64 1 4 C-4.73230171 6.85288164 -9.59859065 8.53444296 -16 9 C-16 8.01 -16 7.02 -16 6 C-15.26394531 5.81824219 -14.52789062 5.63648438 -13.76953125 5.44921875 C-6.50815505 3.61840747 -6.50815505 3.61840747 0 0 Z " fill="#040404" transform="translate(225,180)"/>
<path d="M0 0 C3.3 0 6.6 0 10 0 C10 1.98 10 3.96 10 6 C6.7 5.67 3.4 5.34 0 5 C0 3.35 0 1.7 0 0 Z " fill="#C8C8C8" transform="translate(199,127)"/>
<path d="M0 0 C1.134375 0.020625 2.26875 0.04125 3.4375 0.0625 C2.86 0.31 2.2825 0.5575 1.6875 0.8125 C-2.04847363 2.88804091 -4.20641315 4.99423944 -5.5625 9.0625 C-7.5425 9.0625 -9.5225 9.0625 -11.5625 9.0625 C-11.5625 10.7125 -11.5625 12.3625 -11.5625 14.0625 C-12.2225 13.7325 -12.8825 13.4025 -13.5625 13.0625 C-13.75 10.6875 -13.75 10.6875 -13.5625 8.0625 C-12.5725 7.4025 -11.5825 6.7425 -10.5625 6.0625 C-10.2325 5.4025 -9.9025 4.7425 -9.5625 4.0625 C-7.91428756 3.03236723 -6.24746298 2.03135372 -4.5625 1.0625 C-3.5625 0.0625 -3.5625 0.0625 0 0 Z " fill="#777777" transform="translate(75.5625,117.9375)"/>
<path d="M0 0 C0.66 1.65 1.32 3.3 2 5 C-0.31 5.33 -2.62 5.66 -5 6 C-5.33 9.63 -5.66 13.26 -6 17 C-6.33 17 -6.66 17 -7 17 C-7 11.72 -7 6.44 -7 1 C-4.53721199 -0.231394 -2.7204945 -0.07159196 0 0 Z " fill="#E0E0E0" transform="translate(170,159)"/>
<path d="M0 0 C8.94161491 0.90931677 8.94161491 0.90931677 13 3 C13.33 3.66 13.66 4.32 14 5 C9.38 5 4.76 5 0 5 C0 3.35 0 1.7 0 0 Z " fill="#000000" transform="translate(78,24)"/>
<path d="M0 0 C5.80165739 0.97458672 10.83982722 2.01253155 16 5 C15.67 6.32 15.34 7.64 15 9 C14.50371094 8.72285156 14.00742188 8.44570312 13.49609375 8.16015625 C8.90681832 5.71312324 5.18440279 4.43203357 0 4 C0 2.68 0 1.36 0 0 Z " fill="#000000" transform="translate(210,130)"/>
<path d="M0 0 C0.70511719 0.71542969 1.41023437 1.43085938 2.13671875 2.16796875 C4.94539715 4.97664715 7.86524896 7.64932135 10.8125 10.3125 C12.27623047 11.63701172 12.27623047 11.63701172 13.76953125 12.98828125 C14.50558594 13.65214844 15.24164063 14.31601563 16 15 C15.67 15.66 15.34 16.32 15 17 C13.41419086 15.75314243 11.8314596 14.50236974 10.25 13.25 C9.36828125 12.55390625 8.4865625 11.8578125 7.578125 11.140625 C5.24152752 9.20054103 3.1061438 7.18487814 1 5 C0.34 5.66 -0.32 6.32 -1 7 C-0.67 4.69 -0.34 2.38 0 0 Z " fill="#595959" transform="translate(165,175)"/>
<path d="M0 0 C2.10479172 3.15718758 2.85978609 5.67534934 3.875 9.3125 C5.48016743 14.76291167 5.48016743 14.76291167 8.3125 19.625 C8.869375 20.40875 9.42625 21.1925 10 22 C9.67 22.99 9.34 23.98 9 25 C3.08325618 16.72804747 -0.5522835 10.30929201 0 0 Z " fill="#5A5A5A" transform="translate(9,159)"/>
<path d="M0 0 C0.33 0 0.66 0 1 0 C1.38875877 3.34332545 1.19941539 4.70652927 -0.72265625 7.53515625 C-5.17158728 12.34059594 -9.04147601 16.21090366 -15 19 C-13.5836449 15.66353464 -11.91828002 13.84455707 -9.125 11.5625 C-5.09973236 8.15088478 -1.70303548 5.10910644 0 0 Z " fill="#5A5A5A" transform="translate(90,173)"/>
<path d="M0 0 C0.33 0 0.66 0 1 0 C1.68620893 9.43537278 -2.28182389 16.08020438 -7 24 C-8 21 -8 21 -7.109375 18.90625 C-6.66078125 18.1121875 -6.2121875 17.318125 -5.75 16.5 C-2.93078507 11.1756888 -1.36706382 5.84614282 0 0 Z " fill="#5A5A5A" transform="translate(245,158)"/>
<path d="M0 0 C0.66 0.33 1.32 0.66 2 1 C1 4 1 4 -0.7421875 5.16796875 C-1.44601563 5.50441406 -2.14984375 5.84085938 -2.875 6.1875 C-3.57367188 6.53167969 -4.27234375 6.87585938 -4.9921875 7.23046875 C-7 8 -7 8 -10 8 C-10 7.01 -10 6.02 -10 5 C-8.38007835 4.13624104 -6.75388139 3.28424146 -5.125 2.4375 C-4.22007812 1.96183594 -3.31515625 1.48617187 -2.3828125 0.99609375 C-1.20332031 0.50302734 -1.20332031 0.50302734 0 0 Z " fill="#371B00" transform="translate(171,203)"/>
<path d="M0 0 C1.21236328 0.01353516 1.21236328 0.01353516 2.44921875 0.02734375 C3.37154297 0.04474609 3.37154297 0.04474609 4.3125 0.0625 C4.3125 1.0525 4.3125 2.0425 4.3125 3.0625 C-0.3075 3.3925 -4.9275 3.7225 -9.6875 4.0625 C-6.9209694 -0.0872959 -4.6801992 -0.06782897 0 0 Z " fill="#010101" transform="translate(59.6875,185.9375)"/>
<path d="M0 0 C0.350625 0.45375 0.70125 0.9075 1.0625 1.375 C3.77096206 3.64661334 6.60795328 4.16798854 10 5 C9.67 5.99 9.34 6.98 9 8 C6.03 7.01 3.06 6.02 0 5 C0 7.31 0 9.62 0 12 C-0.33 12 -0.66 12 -1 12 C-1.14285714 3.42857143 -1.14285714 3.42857143 0 0 Z " fill="#C7C7C7" transform="translate(182,180)"/>
<path d="M0 0 C0.33 0 0.66 0 1 0 C1.04125 1.19625 1.0825 2.3925 1.125 3.625 C1.7162872 8.76465026 4.28512792 10.60128725 8 14 C8 14.99 8 15.98 8 17 C4.54324733 15.51853457 2.13973449 14.13318265 0 11 C-0.34076049 7.31020278 -0.22931663 3.69454576 0 0 Z " fill="#C6C6C6" transform="translate(226,129)"/>
<path d="M0 0 C6 9 6 9 6 12 C4.02 12 2.04 12 0 12 C0 8.04 0 4.08 0 0 Z " fill="#FFFFFF" transform="translate(67,56)"/>
<path d="M0 0 C2.125 0.375 2.125 0.375 4 1 C4.625 2.875 4.625 2.875 5 5 C4.34 5.66 3.68 6.32 3 7 C0.875 6.625 0.875 6.625 -1 6 C-1.625 4.125 -1.625 4.125 -2 2 C-1.34 1.34 -0.68 0.68 0 0 Z " fill="#FFFFFF" transform="translate(83,34)"/>
<path d="M0 0 C0.125 2.875 0.125 2.875 0 6 C-2 8 -2 8 -5.625 8.125 C-6.73875 8.08375 -7.8525 8.0425 -9 8 C-7.33333333 6.33333333 -5.66666667 4.66666667 -4 3 C-3.4225 2.401875 -2.845 1.80375 -2.25 1.1875 C-1 0 -1 0 0 0 Z " fill="#000000" transform="translate(181,146)"/>
<path d="M0 0 C0.66 0.33 1.32 0.66 2 1 C1.55530671 6.03985731 -0.71343362 8.37634988 -4 12 C-6 9 -6 9 -5.625 6.8125 C-5.41875 6.214375 -5.2125 5.61625 -5 5 C-4.67 5.66 -4.34 6.32 -4 7 C-2.68 4.69 -1.36 2.38 0 0 Z " fill="#D9D9D9" transform="translate(187,132)"/>
<path d="M0 0 C0 0.99 0 1.98 0 3 C-0.94875 3.268125 -1.8975 3.53625 -2.875 3.8125 C-6.25267273 4.74986588 -6.25267273 4.74986588 -8 8 C-8.66 7.67 -9.32 7.34 -10 7 C-10.625 4.9375 -10.625 4.9375 -11 3 C-9.68 3 -8.36 3 -7 3 C-7 2.34 -7 1.68 -7 1 C-2.25 0 -2.25 0 0 0 Z " fill="#622E02" transform="translate(154,189)"/>
<path d="M0 0 C0.66 0 1.32 0 2 0 C1.75 2.375 1.75 2.375 1 5 C-1.90442032 7.17831524 -4.45124947 7.19715281 -8 7 C-8 6.34 -8 5.68 -8 5 C-7.05125 4.731875 -6.1025 4.46375 -5.125 4.1875 C-1.74732727 3.25013412 -1.74732727 3.25013412 0 0 Z " fill="#C8C8C8" transform="translate(72,181)"/>
<path d="M0 0 C1.32 0.33 2.64 0.66 4 1 C3.8125 2.875 3.8125 2.875 3 5 C0.625 6.3125 0.625 6.3125 -2 7 C-2.99 6.67 -3.98 6.34 -5 6 C-3.35 4.02 -1.7 2.04 0 0 Z " fill="#C8C8C8" transform="translate(85,130)"/>
<path d="M0 0 C2.31 0.33 4.62 0.66 7 1 C7 1.99 7 2.98 7 4 C4.03 4 1.06 4 -2 4 C-1.34 2.68 -0.68 1.36 0 0 Z " fill="#E2E2E2" transform="translate(85,160)"/>
<path d="M0 0 C3.3 0.33 6.6 0.66 10 1 C10 1.99 10 2.98 10 4 C2.25 4.125 2.25 4.125 0 3 C0 2.01 0 1.02 0 0 Z " fill="#C8C8C8" transform="translate(199,185)"/>
<path d="M0 0 C2.97 0 5.94 0 9 0 C9 3.3 9 6.6 9 10 C8.67 10 8.34 10 8 10 C8 7.36 8 4.72 8 2 C5.69 2.33 3.38 2.66 1 3 C0.67 2.01 0.34 1.02 0 0 Z " fill="#D2CAC3" transform="translate(138,182)"/>
<path d="M0 0 C0.99 0 1.98 0 3 0 C1.33248852 3.94139078 -1.22710649 6.7892812 -4 10 C-4.8125 8.375 -4.8125 8.375 -5 6 C-2.75 2.75 -2.75 2.75 0 0 Z " fill="#C3C3C3" transform="translate(231,173)"/>
<path d="M0 0 C3 0.875 3 0.875 4.9375 2.6875 C6 4.875 6 4.875 5.6875 7.125 C5.460625 7.7025 5.23375 8.28 5 8.875 C4.443125 7.6684375 4.443125 7.6684375 3.875 6.4375 C2.20370105 3.5767866 2.20370105 3.5767866 -1.0625 3.125 C-2.031875 3.0425 -3.00125 2.96 -4 2.875 C-4.66 2.545 -5.32 2.215 -6 1.875 C-3 -0.125 -3 -0.125 0 0 Z " fill="#CECECE" transform="translate(179,118.125)"/>
<path d="M0 0 C0.66 0.33 1.32 0.66 2 1 C0.86500606 4.29148243 0.00716624 4.9959869 -3.125 6.75 C-4.548125 7.36875 -4.548125 7.36875 -6 8 C-6 6.68 -6 5.36 -6 4 C-3 1.75 -3 1.75 0 0 Z " fill="#371B00" transform="translate(167,196)"/>
<path d="M0 0 C0 1.98 0 3.96 0 6 C-2.97 6 -5.94 6 -9 6 C-1.6 0 -1.6 0 0 0 Z " fill="#FFFFFF" transform="translate(237,187)"/>
<path d="M0 0 C0.33 0.66 0.66 1.32 1 2 C0.13375 1.896875 -0.7325 1.79375 -1.625 1.6875 C-6.23756587 2.11458943 -7.69294459 3.85042342 -11 7 C-10.67694236 4.01171686 -10.34810879 2.38678755 -8.3125 0.125 C-5.16909601 -1.40422356 -3.30442027 -0.9546103 0 0 Z " fill="#CECECE" transform="translate(81,120)"/>
<path d="M0 0 C3.3 0 6.6 0 10 0 C10 0.99 10 1.98 10 3 C6.7 2.67 3.4 2.34 0 2 C0 1.34 0 0.68 0 0 Z " fill="#E3E3E3" transform="translate(199,127)"/>
<path d="M0 0 C0 0.99 0 1.98 0 3 C-2.31 3.33 -4.62 3.66 -7 4 C-7 3.01 -7 2.02 -7 1 C-4.50935112 0.31292445 -2.62113708 0 0 0 Z " fill="#391D02" transform="translate(154,186)"/>
<path d="M0 0 C-0.33 1.32 -0.66 2.64 -1 4 C-2.65 4.33 -4.3 4.66 -6 5 C-6 4.34 -6 3.68 -6 3 C-6.66 2.67 -7.32 2.34 -8 2 C-2.25 0 -2.25 0 0 0 Z " fill="#371B00" transform="translate(153,178)"/>
<path d="M0 0 C2.31 0 4.62 0 7 0 C7 0.99 7 1.98 7 3 C4.69 3 2.38 3 0 3 C0 2.01 0 1.02 0 0 Z " fill="#040404" transform="translate(192,185)"/>
<path d="M0 0 C2.02054804 1.64169528 4.02043058 3.30911778 6 5 C6 5.33 6 5.66 6 6 C4.02 6 2.04 6 0 6 C0 4.02 0 2.04 0 0 Z " fill="#000000" transform="translate(75,148)"/>
<path d="M0 0 C0.66 0 1.32 0 2 0 C2.25 2.25 2.25 2.25 2 5 C0 7.3125 0 7.3125 -2 9 C-1.51421457 5.87709365 -1.0013988 3.00419641 0 0 Z " fill="#5B5B5B" transform="translate(191,125)"/>
<path d="M0 0 C1.42944945 2.35438733 2.08661261 3.48032433 1.625 6.25 C1.41875 6.8275 1.2125 7.405 1 8 C0.34 8 -0.32 8 -1 8 C-1.625 5.6875 -1.625 5.6875 -2 3 C-1.34 2.01 -0.68 1.02 0 0 Z " fill="#7E7E7E" transform="translate(96,113)"/>
</svg>
