<svg xmlns="http://www.w3.org/2000/svg" viewBox="0 0 100 25"><title>genetics human hospital healthcare health family doctor dna biology person</title><g fill-rule="evenodd"><path d="M74.913 14.033a292.18 292.18 0 0 1-3.254-2.57c-.91-.724-1.83-1.456-2.75-2.173-5.5-4.303-11.23-8.227-17.6-8.798A17.592 17.592 0 0 0 49.71.416c-.54 0-1.066.07-1.594.116-6.39.58-12.14 4.48-17.66 8.798l.58.46c.672.534 1.332 1.047 2 1.57C38.53 7.107 43.88 3.6 49.715 3.6c5.813 0 11.153 3.487 16.624 7.725a219.36 219.36 0 0 1 3.34 2.63c.885.704 1.77 1.414 2.664 2.112C78.324 20.747 84.568 25 91.614 25c2.73 0 5.338-.65 7.856-1.707v-3.48c-2.557 1.23-5.156 2.002-7.856 2.002-5.84 0-11.2-3.516-16.703-7.782z"/><path d="M72.34 9.353c.182.146.367.29.55.437.68.546 1.353 1.062 2.026 1.598 1.99-1.54 3.968-2.978 5.95-4.19v8.562c1.063.695 2.126 1.34 3.188 1.882V5.486c1.966-.918 3.96-1.547 6.003-1.766v15.855c.49.06.982.113 1.478.113.57 0 1.143-.055 1.71-.13V3.698c2.123.23 4.187.902 6.225 1.88V2.102C96.962 1.06 94.367.416 91.652.416c-7.05 0-13.31 4.25-19.313 8.937zm-45.3 6.75c-.21-.167-.426-.334-.637-.506-.65-.52-1.292-1.015-1.94-1.528-5.48 4.24-10.832 7.74-16.655 7.74C5.125 21.81 2.544 21 0 19.7v3.513C2.504 24.32 5.092 25 7.807 25c7.028 0 13.26-4.23 19.233-8.896z"/><path d="M6.18 19.584c.528.07 1.06.12 1.59.12.535 0 1.066-.05 1.598-.12V3.7c2.057.22 4.062.85 6.042 1.782-.01.072-.043.142-.043.222v11.893a36.36 36.36 0 0 0 3.188-1.89V7.2c3.046 1.872 6.07 4.277 9.172 6.753C34.534 19.383 41.573 25 49.675 25c7.02 0 13.256-4.22 19.237-8.878l-.66-.524c-.646-.513-1.28-1.004-1.917-1.51-1.955 1.51-3.89 2.91-5.838 4.11V9.773A36.35 36.35 0 0 0 57.31 7.88v11.834c0 .065.027.12.035.182-1.977.932-3.982 1.572-6.035 1.798V5.857a12.31 12.31 0 0 0-1.667-.128c-.51 0-1.016.05-1.52.11v15.88c-2.064-.22-4.074-.848-6.054-1.77.01-.08.04-.15.04-.24V7.8a35.183 35.183 0 0 0-3.19 1.89v8.55c-3.06-1.87-6.1-4.29-9.21-6.77C22.91 6.037 15.87.417 7.77.417c-2.7 0-5.274.6-7.77 1.57v3.436c2.023-.9 4.073-1.525 6.18-1.736V19.58z"/></g></svg>