<svg xmlns="http://www.w3.org/2000/svg" viewBox="0 0 120 120"><path d="M107.58 80.6c0 20.51-16.63 37.14-37.143 37.142-20.514-.002-37.143-16.63-37.143-37.143 0-9.75 2.203-23.92 15.156-36.88 23.698-23.7 24.81-37.3 24.81-37.3 28.48 28.48 34.32 53.66 34.32 74.172z" fill="#010101"/><path d="M29.833 28.5s3.46 22.667 23.558 35.616c11.16 7.19 34.28 27.322 34.28 34.384 0 14.86-35.34 19.24-50.2 19.24s-26.91-12.047-26.91-26.908c0-14.863-1.35-41.7 19.28-62.332z" fill="#010101"/><path d="M60.92 49.177s.6 7.37 13.442 20.212c7.018 7.01 8.21 14.69 8.21 19.97 0 11.112-9.01 20.123-20.124 20.123s-20.126-9.01-20.125-20.125c0-11.11 3.166-24.757 18.596-40.188z" fill="#fff"/></svg>