<svg xmlns="http://www.w3.org/2000/svg" viewBox="0 0 65 100"><title>laboratory</title><g fill="#000" fill-rule="evenodd"><path d="M3.2 63.062l24.825 14.336-2.46 4.258L.742 67.32 3.2 63.062z"/><path d="M50.9 89.814c7.17-6.772 11.71-16.284 11.71-26.9 0-13.082-6.868-24.88-17.553-31.51l11.97-20.718-1.88-1.083L58.1 4.47 50.36 0 47.4 5.127l-1.98-1.144-29.425 50.974 2.57 1.484-3.65 6.313 6.467 3.736 3.65-6.318 2.564 1.484 12.374-21.43c7.587 4.836 12.458 13.312 12.458 22.688 0 14.832-12.078 26.9-26.912 26.9H3.834V100h61.033V89.814H50.9z"/></g></svg>