<svg xmlns="http://www.w3.org/2000/svg" version="1" viewBox="0 0 100 100"><path d="M85.36 14.64C75.918 5.2 63.362 0 50.004 0h-.06c-13.346 0-25.89 5.2-35.326 14.642S-.01 36.632 0 49.968c-.01 13.363 5.186 25.926 14.63 35.38C24.07 94.798 36.62 100 49.97 100h.004c13.365 0 25.93-5.202 35.377-14.65C94.798 75.902 100 63.34 100 49.972c0-13.348-5.2-25.895-14.64-35.334zm-35.356-3.49c21.42 0 38.848 17.416 38.848 38.822a38.66 38.66 0 0 1-7.345 22.71l-54.2-54.247c6.553-4.73 14.397-7.286 22.637-7.286h.06zM22.517 77.467c-7.337-7.343-11.373-17.105-11.365-27.5-.008-8.506 2.713-16.602 7.744-23.286l54.36 54.41a38.68 38.68 0 0 1-23.282 7.762c-10.373 0-20.123-4.042-27.457-11.383z"/></svg>