<?xml version="1.0" encoding="UTF-8" standalone="no"?>
<svg
   viewBox="0 0 13560 11726.16"
   version="1.1"
   id="svg8"
   sodipodi:docname="poweronoff.svg"
   width="13560"
   height="11726.16"
   xmlns:inkscape="http://www.inkscape.org/namespaces/inkscape"
   xmlns:sodipodi="http://sodipodi.sourceforge.net/DTD/sodipodi-0.dtd"
   xmlns="http://www.w3.org/2000/svg"
   xmlns:svg="http://www.w3.org/2000/svg">
  <defs
     id="defs12" />
  <sodipodi:namedview
     id="namedview10"
     pagecolor="#505050"
     bordercolor="#ffffff"
     borderopacity="1"
     inkscape:showpageshadow="0"
     inkscape:pageopacity="0"
     inkscape:pagecheckerboard="1"
     inkscape:deskcolor="#505050"
     showgrid="false" />
  <path
     d="m -389.36801,-2047.468 c 0,31.204 25.296,56.5 56.5,56.5 31.203,0 56.5,-25.296 56.5,-56.5 0,-16.264 -6.882,-30.91 -17.88,-41.22 l -14.362,15.333 c 6.912,6.482 11.244,15.688 11.244,25.89 0,19.574 -15.926,35.5 -35.5,35.5 -19.575,0 -35.5,-15.926 -35.5,-35.5"
     fill="#010101"
     id="path2"
     style="fill:#ffffff" />
  <path
     d="m -297.36801,-2047.468 c 0,19.575 -15.925,35.5 -35.5,35.5 -19.574,0 -35.5,-15.926 -35.5,-35.5 0,-10.2 4.332,-19.406 11.245,-25.89 l -14.365,-15.33 c -10.998,10.308 -17.88,24.955 -17.88,41.218 0,31.204 25.297,56.5 56.5,56.5 31.204,0 56.5,-25.297 56.5,-56.5"
     fill="#010101"
     id="path4"
     style="fill:#f9f9f9" />
  <path
     d="m -342.85501,-2106.24 h 19.975 v 61.576 h -19.975 z"
     fill="#010101"
     id="path6"
     style="fill:#ffffff" />
</svg>
