<?xml version="1.0" encoding="UTF-8" standalone="no"?>
<svg
   viewBox="0 0 120 120"
   version="1.1"
   id="svg8"
   sodipodi:docname="poweronoff.svg"
   inkscape:export-filename="poweronoff.svg"
   inkscape:export-xdpi="192"
   inkscape:export-ydpi="192"
   inkscape:version="1.2.1 (9c6d41e410, 2022-07-14)"
   xmlns:inkscape="http://www.inkscape.org/namespaces/inkscape"
   xmlns:sodipodi="http://sodipodi.sourceforge.net/DTD/sodipodi-0.dtd"
   xmlns="http://www.w3.org/2000/svg"
   xmlns:svg="http://www.w3.org/2000/svg">
  <defs
     id="defs12" />
  <sodipodi:namedview
     id="namedview10"
     pagecolor="#505050"
     bordercolor="#ffffff"
     borderopacity="1"
     inkscape:showpageshadow="0"
     inkscape:pageopacity="0"
     inkscape:pagecheckerboard="1"
     inkscape:deskcolor="#505050"
     showgrid="false"
     inkscape:zoom="6.5166667"
     inkscape:cx="23.554987"
     inkscape:cy="60"
     inkscape:window-width="1920"
     inkscape:window-height="1011"
     inkscape:window-x="0"
     inkscape:window-y="0"
     inkscape:window-maximized="1"
     inkscape:current-layer="svg8" />
  <path
     d="M3.272 58.772c0 31.204 25.296 56.5 56.5 56.5 31.203 0 56.5-25.296 56.5-56.5 0-16.264-6.882-30.91-17.88-41.22L84.03 32.885c6.912 6.482 11.244 15.688 11.244 25.89 0 19.574-15.926 35.5-35.5 35.5-19.575 0-35.5-15.926-35.5-35.5"
     fill="#010101"
     id="path2"
     style="fill:#ffffff" />
  <path
     d="M95.272 58.772c0 19.575-15.925 35.5-35.5 35.5-19.574 0-35.5-15.926-35.5-35.5 0-10.2 4.332-19.406 11.245-25.89l-14.365-15.33C10.154 27.86 3.272 42.507 3.272 58.77c0 31.204 25.297 56.5 56.5 56.5 31.204 0 56.5-25.297 56.5-56.5"
     fill="#010101"
     id="path4"
     style="fill:#f9f9f9"
     inkscape:export-filename="path4.svg"
     inkscape:export-xdpi="192"
     inkscape:export-ydpi="192" />
  <path
     d="M49.785 0H69.76v61.576H49.785z"
     fill="#010101"
     id="path6"
     style="fill:#ffffff" />
</svg>
