<svg xmlns="http://www.w3.org/2000/svg" viewBox="0 0 9 8"><title>Group</title><g fill="#1A1918" fill-rule="evenodd"><path d="M.72 3.012l.592.342.158.092-.462.798a.467.467 0 0 0-.064.233c0 .078.02.156.062.226 0 0 .404.703.734 1.272.024-.08.054-.158.096-.233L2.74 4.18l.156.09.594.344-.924-1.6L.72 3.012z"/><path d="M2.486 5.25l-.374.646a.534.534 0 0 0-.076.278.54.54 0 0 0 .55.545H4.41V5.25H2.486zM7.34.652l-.593.342-.157.092-.46-.8a.452.452 0 0 0-.396-.232h-1.47c.058.06.11.125.152.2l.903 1.562-.158.092-.594.342h1.845L7.34.652z"/><path d="M4.52 1.06L4.146.414A.573.573 0 0 0 3.944.21.58.58 0 0 0 3.67.134a.545.545 0 0 0-.47.28l-.915 1.58 1.273.732c.137-.238.878-1.52.96-1.666m1.518 6.503v-.867l.92.002a.456.456 0 0 0 .235-.064.436.436 0 0 0 .17-.166l.733-1.27c-.08.016-.163.032-.247.032H6.038v-.182l.002-.685-.926 1.6.922 1.6z"/><path d="M7.092 4.916h.746a.556.556 0 0 0 .48-.273.55.55 0 0 0-.004-.547l-.912-1.582-1.272.734.962 1.668"/></g></svg>