<svg xmlns="http://www.w3.org/2000/svg" viewBox="0 0 120 120"><path d="M18.932 64.777H.104V54.81h18.828v9.967zM27.42 34.32L14.13 21.03l7.015-7.013 13.29 13.29-7.015 7.013zm0 51.13l7.014 7.013-13.29 13.293-7.01-7.02 13.286-13.29zm37.474-66.636h-9.97V-.012h9.97v18.826zm-9.97 82.146h9.97v18.822h-9.97v-18.82zM92.58 34.32l-7.2-7.014 13.472-13.29 7.014 7.015-13.29 13.29zm0 50.94l13.285 13.476-7.014 7.02-13.28-13.3 7.016-7.202zm27.32-30.45v9.967h-18.825V54.81h18.82z" fill="#010101"/><circle cy="59.883" cx="59.147" r="31.38" fill="#010101"/></svg>