<?xml version="1.0" encoding="UTF-8" standalone="no"?>
<!-- Created with Inkscape (http://www.inkscape.org/) -->

<svg
   width="49"
   height="49"
   viewBox="0 0 12.964581 12.964581"
   version="1.1"
   id="svg97402"
   inkscape:version="1.2.2 (b0a8486541, 2022-12-01)"
   sodipodi:docname="PanelMountHighlight.svg"
   inkscape:export-filename="PanelMountHighlight.svg.96dpi.png"
   inkscape:export-xdpi="96"
   inkscape:export-ydpi="96"
   xmlns:inkscape="http://www.inkscape.org/namespaces/inkscape"
   xmlns:sodipodi="http://sodipodi.sourceforge.net/DTD/sodipodi-0.dtd"
   xmlns="http://www.w3.org/2000/svg"
   xmlns:svg="http://www.w3.org/2000/svg">
  <sodipodi:namedview
     id="namedview97404"
     pagecolor="#ffffff"
     bordercolor="#666666"
     borderopacity="1.0"
     inkscape:showpageshadow="2"
     inkscape:pageopacity="0.0"
     inkscape:pagecheckerboard="0"
     inkscape:deskcolor="#d1d1d1"
     inkscape:document-units="px"
     showgrid="false"
     inkscape:zoom="13.459184"
     inkscape:cx="26.338893"
     inkscape:cy="19.280516"
     inkscape:window-width="1916"
     inkscape:window-height="1052"
     inkscape:window-x="0"
     inkscape:window-y="24"
     inkscape:window-maximized="1"
     inkscape:current-layer="layer1" />
  <defs
     id="defs97399">
    <inkscape:path-effect
       effect="powerclip"
       id="path-effect83389"
       is_visible="true"
       lpeversion="1"
       inverse="true"
       flatten="false"
       hide_clip="false"
       message="Use fill-rule evenodd on &lt;b&gt;fill and stroke&lt;/b&gt; dialog if no flatten result after convert clip to paths." />
    <inkscape:path-effect
       effect="powerclip"
       id="path-effect78221"
       is_visible="true"
       lpeversion="1"
       inverse="true"
       flatten="false"
       hide_clip="false"
       message="Use fill-rule evenodd on &lt;b&gt;fill and stroke&lt;/b&gt; dialog if no flatten result after convert clip to paths." />
    <clipPath
       clipPathUnits="userSpaceOnUse"
       id="clipPath50614">
      <rect
         style="display:inline;fill:#b6b6b6;fill-opacity:1;stroke:none;stroke-width:0.7;stroke-linecap:round;stroke-linejoin:round;stroke-dasharray:none;stroke-opacity:1"
         id="rect50616"
         width="30.108149"
         height="13.222547"
         x="146.07838"
         y="216.62383"
         rx="1.4750348"
         ry="1.4496408" />
    </clipPath>
    <clipPath
       clipPathUnits="userSpaceOnUse"
       id="clipPath99525">
      <rect
         style="opacity:0.545894;fill:#ffffff;stroke-width:3.95991;stroke-linecap:round;stroke-linejoin:round"
         id="rect99527"
         width="60"
         height="90"
         x="0"
         y="0" />
    </clipPath>
    <clipPath
       clipPathUnits="userSpaceOnUse"
       id="clipPath99685">
      <g
         id="g99689"
         transform="matrix(0.55711614,0,0,0.55573006,162.92021,216.61309)">
        <rect
           style="opacity:0.545894;fill:#ffffff;stroke-width:1.58593;stroke-linecap:round;stroke-linejoin:round"
           id="rect99687"
           width="15.799728"
           height="23.793234"
           x="8.0127716"
           y="0.019266307" />
      </g>
    </clipPath>
    <clipPath
       clipPathUnits="userSpaceOnUse"
       id="clipPath99691">
      <g
         id="g99695">
        <rect
           style="opacity:0.545894;fill:#ffffff;stroke-width:1.58593;stroke-linecap:round;stroke-linejoin:round"
           id="rect99693"
           width="15.799728"
           height="23.793234"
           x="8.0127716"
           y="0.019266307" />
      </g>
    </clipPath>
    <clipPath
       clipPathUnits="userSpaceOnUse"
       id="clipPath99697">
      <g
         id="g99701">
        <rect
           style="opacity:0.545894;fill:#ffffff;stroke-width:1.58593;stroke-linecap:round;stroke-linejoin:round"
           id="rect99699"
           width="15.799728"
           height="23.793234"
           x="8.0127716"
           y="0.019266307" />
      </g>
    </clipPath>
    <clipPath
       clipPathUnits="userSpaceOnUse"
       id="clipPath99711">
      <g
         id="g99715"
         transform="matrix(0.55711614,0,0,0.55573006,146.08647,216.61288)">
        <rect
           style="opacity:0.545894;fill:#ffffff;stroke-width:1.04406;stroke-linecap:round;stroke-linejoin:round"
           id="rect99713"
           width="15.799728"
           height="23.758703"
           x="0.0094064204"
           y="0.054201871" />
      </g>
    </clipPath>
    <clipPath
       clipPathUnits="userSpaceOnUse"
       id="clipPath99717">
      <g
         id="g99721">
        <rect
           style="opacity:0.545894;fill:#ffffff;stroke-width:1.04406;stroke-linecap:round;stroke-linejoin:round"
           id="rect99719"
           width="15.799728"
           height="23.758703"
           x="0.0094064204"
           y="0.054201871" />
      </g>
    </clipPath>
    <clipPath
       clipPathUnits="userSpaceOnUse"
       id="clipPath99723">
      <g
         id="g99727">
        <rect
           style="opacity:0.545894;fill:#ffffff;stroke-width:1.04406;stroke-linecap:round;stroke-linejoin:round"
           id="rect99725"
           width="15.799728"
           height="23.758703"
           x="0.0094064204"
           y="0.054201871" />
      </g>
    </clipPath>
    <clipPath
       clipPathUnits="userSpaceOnUse"
       id="clipPath99794">
      <g
         id="g99798"
         transform="matrix(0.55711614,0,0,0.55573006,162.92021,216.61309)">
        <rect
           style="opacity:0.545894;fill:#ffffff;stroke-width:1.58593;stroke-linecap:round;stroke-linejoin:round"
           id="rect99796"
           width="15.799728"
           height="23.793234"
           x="8.0127716"
           y="0.019266307" />
      </g>
    </clipPath>
    <clipPath
       clipPathUnits="userSpaceOnUse"
       id="clipPath99800">
      <g
         id="g99804">
        <rect
           style="opacity:0.545894;fill:#ffffff;stroke-width:1.58593;stroke-linecap:round;stroke-linejoin:round"
           id="rect99802"
           width="15.799728"
           height="23.793234"
           x="8.0127716"
           y="0.019266307" />
      </g>
    </clipPath>
    <clipPath
       clipPathUnits="userSpaceOnUse"
       id="clipPath99806">
      <g
         id="g99810">
        <rect
           style="opacity:0.545894;fill:#ffffff;stroke-width:1.58593;stroke-linecap:round;stroke-linejoin:round"
           id="rect99808"
           width="15.799728"
           height="23.793234"
           x="8.0127716"
           y="0.019266307" />
      </g>
    </clipPath>
    <clipPath
       clipPathUnits="userSpaceOnUse"
       id="clipPath99883">
      <path
         id="path99885"
         style="opacity:1;fill:#ff0000;fill-opacity:1;stroke-width:1.665;stroke-linecap:round;stroke-linejoin:round;stroke-dasharray:none"
         d="M 7.9375,0 C 3.5401295,0 0,3.5401295 0,7.9375 v 7.9375 c 0,4.397371 3.5401295,7.9375 7.9375,7.9375 h 7.9375 c 4.397371,0 7.9375,-3.540129 7.9375,-7.9375 V 7.9375 C 23.8125,3.5401295 20.272371,0 15.875,0 Z m 2.205033,6.6145833 h 3.527434 c 1.954387,0 3.52795,1.5735631 3.52795,3.5279497 v 3.527434 c 0,1.954387 -1.573563,3.52795 -3.52795,3.52795 h -3.527434 c -1.9543866,0 -3.5279497,-1.573563 -3.5279497,-3.52795 v -3.527434 c 0,-1.9543866 1.5735631,-3.5279497 3.5279497,-3.5279497 z" />
    </clipPath>
    <clipPath
       clipPathUnits="userSpaceOnUse"
       id="clipPath100370">
      <path
         id="path100372"
         style="opacity:1;fill:#ff0000;fill-opacity:1;stroke-width:1.665;stroke-linecap:round;stroke-linejoin:round;stroke-dasharray:none"
         d="M 7.9375,1e-7 C 3.540129,1e-7 0,3.5401295 0,7.9375 v 7.9375 c 0,4.397371 3.540129,7.9375 7.9375,7.9375 h 7.9375 c 4.397371,0 7.9375,-3.540129 7.9375,-7.9375 V 7.9375 C 23.8125,3.5401295 20.272371,1e-7 15.875,1e-7 Z m 2.205033,6.6145832 h 3.527434 c 1.954387,0 3.52795,1.5735631 3.52795,3.5279497 v 3.527434 c 0,1.954387 -1.573563,3.52795 -3.52795,3.52795 h -3.527434 c -1.9543871,0 -3.5279499,-1.573563 -3.5279499,-3.52795 v -3.527434 c 0,-1.9543866 1.5735628,-3.5279497 3.5279499,-3.5279497 z" />
    </clipPath>
    <filter
       inkscape:collect="always"
       style="color-interpolation-filters:sRGB"
       id="filter100374"
       x="-0.016537434"
       y="-0.016422829"
       width="1.0330749"
       height="1.0328457">
      <feGaussianBlur
         inkscape:collect="always"
         stdDeviation="0.3306537"
         id="feGaussianBlur100376" />
    </filter>
    <filter
       inkscape:collect="always"
       style="color-interpolation-filters:sRGB"
       id="filter100378"
       x="-0.022721409"
       y="-0.022721409"
       width="1.0454428"
       height="1.0454428">
      <feGaussianBlur
         inkscape:collect="always"
         stdDeviation="0.53369547"
         id="feGaussianBlur100380" />
    </filter>
    <filter
       inkscape:collect="always"
       style="color-interpolation-filters:sRGB"
       id="filter102682"
       x="-0.06964116"
       y="-0.069533732"
       width="1.1392823"
       height="1.1390675">
      <feGaussianBlur
         inkscape:collect="always"
         stdDeviation="0.32737963"
         id="feGaussianBlur102684" />
    </filter>
    <filter
       inkscape:collect="always"
       style="color-interpolation-filters:sRGB"
       id="filter103118"
       x="-0.081623544"
       y="-0.084951162"
       width="1.1632471"
       height="1.1699023">
      <feGaussianBlur
         inkscape:collect="always"
         stdDeviation="0.38748406"
         id="feGaussianBlur103120" />
    </filter>
    <clipPath
       clipPathUnits="userSpaceOnUse"
       id="clipPath31206">
      <path
         id="path31208"
         style="display:inline;opacity:1;fill:#0000ff;fill-opacity:1;stroke-width:0.764442;stroke-linecap:round;stroke-linejoin:round;stroke-dasharray:none"
         d="m 3.8107566,0.22044249 c -2.0189409,0 -3.64430097,1.62536021 -3.64430097,3.64430091 v 3.6443014 c 0,2.0189404 1.62536007,3.6443002 3.64430097,3.6443002 h 3.6443008 c 2.0189414,0 3.6443026,-1.6253598 3.6443026,-3.6443002 V 3.8647434 c 0,-2.0189407 -1.6253612,-3.64430091 -3.6443026,-3.64430091 z M 4.8231414,3.25736 h 1.6195315 c 0.8973069,0 1.6197682,0.7224613 1.6197682,1.6197683 v 1.6195315 c 0,0.8973069 -0.7224613,1.6197685 -1.6197682,1.6197685 H 4.8231414 c -0.897307,0 -1.6197683,-0.7224616 -1.6197683,-1.6197685 V 4.8771283 c 0,-0.897307 0.7224613,-1.6197683 1.6197683,-1.6197683 z"
         inkscape:label="Base" />
    </clipPath>
    <filter
       inkscape:collect="always"
       style="color-interpolation-filters:sRGB"
       id="filter52441"
       x="-0.070652017"
       y="-0.075159612"
       width="1.141304"
       height="1.1503192">
      <feGaussianBlur
         inkscape:collect="always"
         stdDeviation="0.33137071"
         id="feGaussianBlur52443" />
    </filter>
    <clipPath
       clipPathUnits="userSpaceOnUse"
       id="clipPath57529">
      <path
         id="path57531"
         style="display:inline;opacity:1;fill:#25252a;fill-opacity:1;stroke-width:0.764442;stroke-linecap:round;stroke-linejoin:round;stroke-dasharray:none"
         d="m 3.8107566,0.22044249 c -2.0189409,0 -3.64430097,1.62536021 -3.64430097,3.64430091 v 3.6443014 c 0,2.0189404 1.62536007,3.6443002 3.64430097,3.6443002 h 3.6443008 c 2.0189414,0 3.6443026,-1.6253598 3.6443026,-3.6443002 V 3.8647434 c 0,-2.0189407 -1.6253612,-3.64430091 -3.6443026,-3.64430091 z M 4.8231414,3.25736 h 1.6195315 c 0.8973069,0 1.6197682,0.7224613 1.6197682,1.6197683 v 1.6195315 c 0,0.8973069 -0.7224613,1.6197685 -1.6197682,1.6197685 H 4.8231414 c -0.897307,0 -1.6197683,-0.7224616 -1.6197683,-1.6197685 V 4.8771283 c 0,-0.897307 0.7224613,-1.6197683 1.6197683,-1.6197683 z"
         inkscape:label="Base" />
    </clipPath>
    <filter
       inkscape:collect="always"
       style="color-interpolation-filters:sRGB"
       id="filter62695"
       x="-0.06487865"
       y="-0.075681583"
       width="1.1297573"
       height="1.1513632">
      <feGaussianBlur
         inkscape:collect="always"
         stdDeviation="0.69279285"
         id="feGaussianBlur62697" />
    </filter>
    <clipPath
       clipPathUnits="userSpaceOnUse"
       id="clipPath72317">
      <path
         id="path72319"
         style="display:inline;opacity:1;fill:#25252a;fill-opacity:1;stroke-width:0.764442;stroke-linecap:round;stroke-linejoin:round;stroke-dasharray:none"
         d="m 3.8107566,0.22044249 c -2.0189409,0 -3.64430097,1.62536021 -3.64430097,3.64430091 v 3.6443014 c 0,2.0189404 1.62536007,3.6443002 3.64430097,3.6443002 h 3.6443008 c 2.0189414,0 3.6443026,-1.6253598 3.6443026,-3.6443002 V 3.8647434 c 0,-2.0189407 -1.6253612,-3.64430091 -3.6443026,-3.64430091 z M 4.8231414,3.25736 h 1.6195315 c 0.8973069,0 1.6197682,0.7224613 1.6197682,1.6197683 v 1.6195315 c 0,0.8973069 -0.7224613,1.6197685 -1.6197682,1.6197685 H 4.8231414 c -0.897307,0 -1.6197683,-0.7224616 -1.6197683,-1.6197685 V 4.8771283 c 0,-0.897307 0.7224613,-1.6197683 1.6197683,-1.6197683 z"
         inkscape:label="Base" />
    </clipPath>
    <filter
       inkscape:collect="always"
       style="color-interpolation-filters:sRGB"
       id="filter72329"
       x="-0.032947097"
       y="-0.053309845"
       width="1.0658942"
       height="1.1066197">
      <feGaussianBlur
         inkscape:collect="always"
         stdDeviation="0.420369"
         id="feGaussianBlur72331" />
    </filter>
    <clipPath
       clipPathUnits="userSpaceOnUse"
       id="clipPath83385">
      <path
         id="path83387"
         style="display:none;opacity:1;fill:#25252a;fill-opacity:1;stroke-width:0.716466;stroke-linecap:round;stroke-linejoin:round;stroke-dasharray:none"
         d="m 3.7316887,0.48491864 c -1.8922335,0 -3.41558702,1.52335366 -3.41558702,3.41558706 v 3.4155875 c 0,1.892233 1.52335352,3.4155858 3.41558702,3.4155858 h 3.415587 c 1.892234,0 3.4155883,-1.5233528 3.4155883,-3.4155858 V 3.9005057 c 0,-1.8922334 -1.5233543,-3.41558706 -3.4155883,-3.41558706 z M 4.680537,3.3312412 h 1.5178908 c 0.8409926,0 1.5181127,0.6771202 1.5181127,1.5181128 v 1.5178908 c 0,0.8409925 -0.6771201,1.5181129 -1.5181127,1.5181129 H 4.680537 c -0.8409926,0 -1.5181128,-0.6771204 -1.5181128,-1.5181129 V 4.849354 c 0,-0.8409926 0.6771202,-1.5181128 1.5181128,-1.5181128 z"
         inkscape:label="Base" />
      <path
         id="lpe_path-effect83389"
         style="display:block;opacity:1;fill:#25252a;fill-opacity:1;stroke-width:0.716466;stroke-linecap:round;stroke-linejoin:round;stroke-dasharray:none"
         class="powerclip"
         d="M -5.1273168,-4.7811946 H 17.719696 V 17.390729 H -5.1273168 Z m 8.8590055,5.26611324 c -1.8922335,0 -3.41558702,1.52335366 -3.41558702,3.41558706 v 3.4155875 c 0,1.892233 1.52335352,3.4155858 3.41558702,3.4155858 h 3.415587 c 1.892234,0 3.4155883,-1.5233528 3.4155883,-3.4155858 V 3.9005057 c 0,-1.8922334 -1.5233543,-3.41558706 -3.4155883,-3.41558706 z M 4.680537,3.3312412 c -0.8409926,0 -1.5181128,0.6771202 -1.5181128,1.5181128 v 1.5178908 c 0,0.8409925 0.6771202,1.5181129 1.5181128,1.5181129 h 1.5178908 c 0.8409926,0 1.5181127,-0.6771204 1.5181127,-1.5181129 V 4.849354 c 0,-0.8409926 -0.6771201,-1.5181128 -1.5181127,-1.5181128 z" />
    </clipPath>
    <clipPath
       clipPathUnits="userSpaceOnUse"
       id="clipPath89494">
      <path
         id="path89496"
         style="display:inline;opacity:1;fill:#25252a;fill-opacity:1;stroke-width:0.764442;stroke-linecap:round;stroke-linejoin:round;stroke-dasharray:none"
         d="m 3.8107566,0.22044249 c -2.018941,0 -3.64430097,1.62536021 -3.64430097,3.64430091 v 3.6443014 c 0,2.0189404 1.62535997,3.6442992 3.64430097,3.6442992 h 3.6443008 c 2.0189414,0 3.6443026,-1.6253588 3.6443026,-3.6442992 V 3.8647434 c 0,-2.0189407 -1.6253612,-3.64430091 -3.6443026,-3.64430091 z M 4.8231414,3.25736 h 1.6195315 c 0.8973069,0 1.6197682,0.7224613 1.6197682,1.6197683 v 1.6195315 c 0,0.8973069 -0.7224613,1.6197685 -1.6197682,1.6197685 H 4.8231414 c -0.897307,0 -1.6197683,-0.7224616 -1.6197683,-1.6197685 V 4.8771283 c 0,-0.897307 0.7224613,-1.6197683 1.6197683,-1.6197683 z"
         inkscape:label="Base_ClipInnerShadow" />
    </clipPath>
    <filter
       inkscape:collect="always"
       style="color-interpolation-filters:sRGB"
       id="filter89498"
       x="-0.10656911"
       y="-0.10916244"
       width="1.2131382"
       height="1.2183249">
      <feGaussianBlur
         inkscape:collect="always"
         stdDeviation="0.99100453"
         id="feGaussianBlur89500" />
    </filter>
  </defs>
  <g
     inkscape:label="Layer 1"
     inkscape:groupmode="layer"
     id="layer1">
    <path
       id="path83383"
       style="display:none;opacity:1;fill:#25252a;fill-opacity:1;stroke-width:0.764442;stroke-linecap:round;stroke-linejoin:round;stroke-dasharray:none"
       d="m 3.8107565,0.22044249 c -2.0189409,0 -3.64430087,1.62536021 -3.64430087,3.64430091 v 3.6443014 c 0,2.0189403 1.62535997,3.6442992 3.64430087,3.6442992 h 3.6443009 c 2.0189414,0 3.6443026,-1.6253589 3.6443026,-3.6442992 V 3.8647434 c 0,-2.0189407 -1.6253612,-3.64430091 -3.6443026,-3.64430091 z M 4.8231414,3.2573599 h 1.6195315 c 0.897307,0 1.6197683,0.7224614 1.6197683,1.6197684 v 1.6195315 c 0,0.8973069 -0.7224613,1.6197685 -1.6197683,1.6197685 H 4.8231414 c -0.897307,0 -1.6197684,-0.7224616 -1.6197684,-1.6197685 V 4.8771283 c 0,-0.897307 0.7224614,-1.6197684 1.6197684,-1.6197684 z"
       inkscape:label="Base_Template" />
    <path
       id="rect19555"
       style="display:none;opacity:1;fill:#ff0000;fill-opacity:1;stroke:none;stroke-width:0.479999;stroke-linecap:round;stroke-linejoin:round;filter:url(#filter62695)"
       inkscape:label="Highlight"
       d="M -5.4236243,-3.413155 V 18.55656 H 20.204264 V -3.413155 Z m 9.543085,3.8664299 h 3.8267549 c 2.0189392,0 5.0928104,1.6252826 5.0928104,3.6442214 v 3.6442213 c 0,2.0189384 -3.2564047,5.1817184 -5.2753439,5.1817184 H 4.1194607 c -2.0189388,0 -3.6442213,-2.364531 -3.6442213,-4.3834689 V 4.0974963 c 0,-2.0189388 1.6252825,-3.6442214 3.6442213,-3.6442214 z M 5.860661,3.9873765 c -0.897306,0 -1.6195391,0.7227498 -1.6195391,1.6200559 v 1.6195391 c 0,0.8973061 -0.00663,1.1219441 0.89068,1.1219441 H 6.751341 c 0.8973061,0 1.6200558,-0.722233 1.6200558,-1.6195391 V 5.1098374 c 0,-0.8973061 0.00611,-1.1224609 -0.8911967,-1.1224609 z"
       clip-path="url(#clipPath57529)"
       sodipodi:nodetypes="cccccssssssssssssssssss" />
    <path
       id="rect70854"
       style="display:inline;opacity:0.0272194;mix-blend-mode:normal;fill:#ffffff;fill-opacity:1;stroke:none;stroke-width:0.479999;stroke-linecap:round;stroke-linejoin:round;filter:url(#filter72329)"
       d="M -5.55488,-2.9837738 V 15.941166 H 25.066501 V -2.9837738 Z m 9.4521345,3.27783552 h 3.6442214 c 2.0189392,0 5.4648381,1.62528258 5.4648381,3.64422138 v 3.6442213 c 0,2.0189384 -3.4458989,5.3884686 -5.4648381,5.3884686 H 3.8972545 c -2.0189388,0 -3.64422126,-3.3695302 -3.64422126,-5.3884686 V 3.9382831 c 0,-2.0189388 1.62528246,-3.64422138 3.64422126,-3.64422138 z M 5.1636819,4.0318807 C 4.2663822,4.028485 4.1271797,4.273952 4.1384651,5.1711871 l 0.021102,1.6777013 c 0.011285,0.8972352 -0.1472776,1.340814 0.7500284,1.340814 h 1.6195391 c 0.8973061,0 1.6200558,-0.722233 1.6200558,-1.6195391 V 4.9506242 c 0,-0.8388383 -0.2789043,-0.9085006 -1.1762041,-0.9118964 z"
       clip-path="url(#clipPath72317)"
       sodipodi:nodetypes="cccccssssssssssssssssss"
       inkscape:label="HighlightAttempt2" />
    <path
       id="path48781"
       style="display:inline;opacity:0.490203;mix-blend-mode:normal;fill:#000000;fill-opacity:1;stroke-width:0.764443;stroke-linecap:round;stroke-linejoin:round;stroke-dasharray:none;filter:url(#filter52441)"
       d="M 4.8385425,1.135747 C 3.8532515,1.1745581 2.072675,2.0061285 1.6289413,3.9757027 L 0.73329837,7.9511393 C 0.28956477,9.9207131 2.1791242,11.595439 4.1980651,11.595439 H 7.842366 c 2.0189412,0 4.08204,-1.6253593 4.08204,-3.6442997 V 4.306838 c 0,-2.0189408 -2.0646633,-3.36887855 -4.08204,-3.2894131 z m 0.3719073,2.4432889 h 1.6195315 c 1.7459202,0 1.6197684,0.093379 1.6197684,1.7401869 v 1.6195314 c 0,0.897307 -0.7224614,1.6197687 -1.6197684,1.6197687 H 5.2104498 c -1.8303035,0 -1.7420092,-0.084453 -1.7420092,-1.6197687 V 5.3192228 c 0,-0.897307 0.3645222,-1.7401869 1.7420092,-1.7401869 z"
       inkscape:label="OuterShadow"
       transform="matrix(1.0669618,0,0,1.0669618,-0.17081279,-0.29694717)"
       clip-path="url(#clipPath83385)"
       sodipodi:nodetypes="ssssssssssssssssss"
       inkscape:path-effect="#path-effect83389"
       inkscape:original-d="M 4.8385425,1.135747 C 3.8532515,1.1745581 2.072675,2.0061285 1.6289413,3.9757027 L 0.73329837,7.9511393 C 0.28956477,9.9207131 2.1791242,11.595439 4.1980651,11.595439 H 7.842366 c 2.0189412,0 4.08204,-1.6253593 4.08204,-3.6442997 V 4.306838 c 0,-2.0189408 -2.0646633,-3.36887855 -4.08204,-3.2894131 z m 0.3719073,2.4432889 h 1.6195315 c 1.7459202,0 1.6197684,0.093379 1.6197684,1.7401869 v 1.6195314 c 0,0.897307 -0.7224614,1.6197687 -1.6197684,1.6197687 H 5.2104498 c -1.8303035,0 -1.7420092,-0.084453 -1.7420092,-1.6197687 V 5.3192228 c 0,-0.897307 0.3645222,-1.7401869 1.7420092,-1.7401869 z" />
    <path
       id="rect84192"
       style="display:inline;opacity:0.757436;mix-blend-mode:normal;fill:#000000;fill-opacity:1;stroke:none;stroke-width:0.479999;stroke-linecap:round;stroke-linejoin:round;filter:url(#filter89498)"
       d="M -5.6229603,-5.315903 V 16.47191 H 16.695054 V -5.315903 Z m 5.90983543,4.2894047 H 9.3338044 c 2.0189396,0 1.5174656,2.7634527 1.5174656,4.7823914 v 3.6442213 c 0,2.0189383 -1.4741734,3.4564736 -3.4931128,3.4564736 H 3.7139358 c -2.0189388,0 -5.4378275,-0.8817264 -5.4378275,-2.9006647 V 1.0035299 c 0,-2.0189387 -0.00817,-2.0300282 2.01076683,-2.0300282 z M 4.726277,2.92066 c -1.013297,0 -1.8932306,0.7964555 -1.8932306,1.8475742 v 1.6195391 c 0,0.897306 1.3608451,0.68026 2.2581512,0.68026 H 5.736869 c 0.8973061,0 1.4066862,-0.3744647 1.4066862,-1.2717707 V 4.3969071 c 0,-0.8973061 0.099567,-1.4762471 -0.7977391,-1.4762471 z"
       clip-path="url(#clipPath89494)"
       sodipodi:nodetypes="cccccssssssssssssssssss"
       inkscape:label="InnerShadow" />
  </g>
  <g
     inkscape:groupmode="layer"
     id="layer2"
     inkscape:label="Orig">
    <path
       style="display:none;opacity:0.375299;fill:#000000;fill-opacity:1;stroke:none;stroke-width:0.264583px;stroke-linecap:butt;stroke-linejoin:miter;stroke-opacity:1;filter:url(#filter103118)"
       d="m 0.8735199,9.609286 2.0625332,2.61454 c 0,0 7.0427542,0.255099 8.5324559,-0.985215 1.489702,-1.2403138 0.43774,-8.2898438 0.43774,-8.2898438 l -1.756333,-1.6502879 -1.7077554,0.024419 0.270157,7.3141066 z"
       id="path103116"
       sodipodi:nodetypes="cczccccc" />
    <path
       id="path100388"
       style="display:none;opacity:0.393294;mix-blend-mode:normal;fill:none;fill-opacity:1;stroke:#000000;stroke-width:1.66502;stroke-linecap:round;stroke-linejoin:round;stroke-dasharray:none;stroke-opacity:1;filter:url(#filter102682)"
       d="m 9.1712948,1.2337949 c -4.397371,0 -7.9374999,3.5401293 -7.9374999,7.9374999 v 7.9375012 c 0,4.397371 2.9641899,7.397461 7.3615609,7.397461 h 7.9375012 c 4.397371,0 7.9375,-3.540129 7.9375,-7.9375 V 8.6312558 c 0,-4.3973706 -2.96419,-7.3974609 -7.361561,-7.3974609 z m 1.3337892,5.840008 h 4.398679 c 1.954387,0 3.52795,2.3481383 3.52795,4.3025261 v 3.527434 c 0,1.954387 -1.573563,3.52795 -3.52795,3.52795 h -3.527434 c -1.9543882,0 -4.3991959,-1.573563 -4.3991959,-3.52795 v -3.527434 c 0,-1.9543878 1.573563,-4.3025261 3.5279509,-4.3025261 z"
       sodipodi:nodetypes="ssssssssssssssssss"
       transform="matrix(0.45912452,0,0,0.45912452,0,0.05897862)"
       inkscape:label="WholeShadow" />
    <path
       id="rect99887"
       style="display:none;opacity:0.0499596;mix-blend-mode:normal;fill:#ffffff;fill-opacity:1;stroke-width:1.665;stroke-linecap:round;stroke-linejoin:round;stroke-dasharray:none;filter:url(#filter100374)"
       d="m -2.3988392,-9.3735876 c -4.39737,0 -7.9374978,3.540129 -7.9374978,7.9374994 V 31.009995 c 0,4.39737 3.5401278,7.9375 7.9374978,7.9375 H 29.71238 c 4.39737,0 7.9375,-3.54013 7.9375,-7.9375 V -1.4360882 c 0,-4.3973704 -3.54013,-7.9374994 -7.9375,-7.9374994 z M 8.8087458,0.88211668 h 7.9375002 c 4.397367,0 7.9375,3.54013412 7.9375,7.93750012 v 7.9375012 c 0,4.397367 -3.540133,7.9375 -7.9375,7.9375 H 8.8087458 c -4.397366,0 -7.93750012,-3.540133 -7.93750012,-7.9375 V 8.8196168 c 0,-4.397366 3.54013412,-7.93750012 7.93750012,-7.93750012 z M 11.013778,7.4966998 c -1.9543842,0 -3.5279492,1.573565 -3.5279492,3.5279502 v 3.527435 c 0,1.954385 1.573565,3.52795 3.5279492,3.52795 h 3.527435 c 1.954385,0 3.52795,-1.573565 3.52795,-3.52795 V 11.02465 c 0,-1.9543852 -1.573565,-3.5279502 -3.52795,-3.5279502 z"
       clip-path="url(#clipPath100370)"
       transform="matrix(0.45912452,0,0,0.45912452,0.16645565,0.22044247)"
       inkscape:label="BevelHighlight" />
    <path
       id="rect99870"
       style="display:none;opacity:0.376017;mix-blend-mode:normal;fill:#000000;fill-opacity:1;stroke-width:1.665;stroke-linecap:round;stroke-linejoin:round;stroke-dasharray:none;filter:url(#filter100378)"
       d="m -9.5880647,-17.514693 c -4.3973713,0 -7.9375003,3.540129 -7.9375003,7.9374997 V 30.920593 c 0,4.397371 3.540129,7.9375 7.9375003,7.9375 H 30.909721 c 4.397371,0 7.9375,-3.540129 7.9375,-7.9375 V -9.5771933 c 0,-4.3973707 -3.540129,-7.9374997 -7.9375,-7.9374997 z m 16.280143,16.2801435 h 7.9374997 c 4.397367,0 7.9375,3.5401338 7.9375,7.9375 V 14.64045 c 0,4.397367 -3.540133,7.9375 -7.9375,7.9375 H 6.6920783 c -4.397366,0 -7.9375,-3.540133 -7.9375,-7.9375 V 6.7029505 c 0,-4.3973662 3.540134,-7.9375 7.9375,-7.9375 z m 2.205033,6.6145833 c -1.954384,0 -3.52795,1.5735654 -3.52795,3.5279492 v 3.527434 c 0,1.954385 1.573566,3.52795 3.52795,3.52795 h 3.5274337 c 1.954385,0 3.52795,-1.573565 3.52795,-3.52795 V 8.907983 c 0,-1.9543838 -1.573565,-3.5279492 -3.52795,-3.5279492 z"
       clip-path="url(#clipPath99883)"
       inkscape:label="BevelShadow"
       transform="matrix(0.45912452,0,0,0.45912452,0.16774353,0.21343947)" />
  </g>
</svg>
