<?xml version="1.0" encoding="utf-8"?>
<!-- Generator: Adobe Illustrator 27.8.1, SVG Export Plug-In . SVG Version: 6.00 Build 0)  -->
<svg version="1.1" id="Слой_1" xmlns="http://www.w3.org/2000/svg" xmlns:xlink="http://www.w3.org/1999/xlink" x="0px" y="0px"
	 viewBox="0 0 255.7 51.5" style="enable-background:new 0 0 255.7 51.5;" xml:space="preserve">
<style type="text/css">
	.st0{fill:#E30F1B;}
	.st1{fill:#FFED00;stroke:#E30F1B;stroke-width:3;stroke-miterlimit:10;}
	.st2{fill:#E30F1B;stroke:#E30F1B;stroke-miterlimit:10;}
	.st3{fill:#FFED00;stroke:#E30F1B;stroke-width:1.25;stroke-miterlimit:10;}
	.st4{fill:#FFED00;stroke:#E30F1B;stroke-width:0.75;stroke-miterlimit:10;}
	.st5{font-family:'Arial-BoldMT';}
	.st6{font-size:14.0526px;}
</style>
<path class="st0" d="M95.3,0H2.6C1.1,0,0,1.1,0,2.5V49c0,1.3,1.1,2.5,2.6,2.5h92.6c1.4,0,2.6-1.2,2.6-2.5V2.5
	C97.9,1.1,96.7,0,95.3,0z"/>
<circle class="st1" cx="48.9" cy="25.1" r="22.2"/>
<path class="st2" d="M51.1,7.3c2.1,0.7,4.5,1.6,6.9,3.3c3.8,2.6,6.2,5.8,7.6,8.2l0.6-0.5c-2.3-6.7-8.4-11.6-15.7-12.2L51.1,7.3z"/>
<path class="st3" d="M52.1,34.4C29,42.8,9,45.6,7.3,40.8c-1.2-3.2,6.2-9,18.2-15.1l-0.1,3.8c-4.8,2.9-7.5,5.5-6.9,7
	c1.1,3.3,16,0.9,33-5.3s29.9-13.8,28.6-17c-0.6-1.6-4.6-1.8-10.6-0.9l-2.4-2.7c13-2.9,22.3-3.1,23.5,0.1
	C92.3,15.5,75.1,26.1,52.1,34.4z"/>
<polygon class="st4" points="82.8,2.9 79.9,8.2 92.9,16.8 91,20.5 77.9,11.8 76.2,15.2 71.7,12.2 76,4.4 "/>
<path class="st4" d="M24.2,41.6c-2.5,1.7-5.6,2.1-8.4,1.2l-4.3,6.5l-3.1-2l4-6.2l0,0c1,0.4,2,0.6,3.1,0.7c1.8,0,3.6-0.5,5.3-1.6
	c3.9-2.7,4.8-7.9,2.1-11.5c-2.5-3.5-7.3-4.3-11.1-2.1c0.2-0.2,0.5-0.4,0.7-0.5c4.2-3,10.3-1.9,13.5,2.4
	C29.3,32.8,28.5,38.7,24.2,41.6z"/>
<text transform="matrix(0.8812 0 0 1 102.9609 13.7812)" class="st0 st5 st6">БЛАНК ДОКУМЕНТА </text>
<text transform="matrix(0.8812 0 0 1 102.9609 30.6426)" class="st0 st5 st6">ОТДЕЛ ОБСЛУЖИВАНИЯ </text>
<text transform="matrix(0.8812 0 0 1 102.9609 47.5068)" class="st0 st5 st6">USSP</text>
</svg>
