<?xml version="1.0" encoding="utf-8"?>
<!-- Generator: Adobe Illustrator 27.8.1, SVG Export Plug-In . SVG Version: 6.00 Build 0)  -->
<svg version="1.1" id="Слой_1" xmlns="http://www.w3.org/2000/svg" xmlns:xlink="http://www.w3.org/1999/xlink" x="0px" y="0px"
	 viewBox="0 0 255.5 53.3" style="enable-background:new 0 0 255.5 53.3;" xml:space="preserve">
<style type="text/css">
	.st0{fill:#E30F1B;}
	.st1{fill:#FFED00;stroke:#E30F1B;stroke-width:3;stroke-miterlimit:10;}
	.st2{fill:#E30F1B;stroke:#E30F1B;stroke-miterlimit:10;}
	.st3{fill:#FFED00;stroke:#E30F1B;stroke-width:1.25;stroke-miterlimit:10;}
	.st4{fill:#FFED00;stroke:#E30F1B;stroke-width:0.75;stroke-miterlimit:10;}
	.st5{font-family:'Arial-BoldMT';}
	.st6{font-size:14.5325px;}
</style>
<path class="st0" d="M98.5,0H2.7C1.2,0,0,1.2,0,2.6v48.1c0,1.4,1.2,2.6,2.7,2.6h95.8c1.5,0,2.7-1.2,2.7-2.6V2.6
	C101.2,1.2,100,0,98.5,0z"/>
<circle class="st1" cx="50.6" cy="26" r="23"/>
<path class="st2" d="M52.8,7.6c2.2,0.7,4.7,1.7,7.2,3.4c4,2.7,6.5,6,7.9,8.4l0.6-0.5c-2.4-7-8.7-12-16.2-12.6L52.8,7.6z"/>
<path class="st3" d="M53.9,35.6C30,44.2,9.4,47.1,7.6,42.2c-1.2-3.3,6.5-9.4,18.8-15.6l-0.1,3.9c-5,3-7.8,5.7-7.2,7.3
	c1.2,3.4,16.5,0.9,34.1-5.5S84.1,18,82.8,14.6c-0.6-1.7-4.8-1.9-10.9-0.9l-2.5-2.8c13.4-3,23.1-3.2,24.3,0.1
	C95.4,16,77.7,27,53.9,35.6z"/>
<polygon class="st4" points="85.6,3 82.6,8.4 96.1,17.4 94.1,21.2 80.5,12.2 78.8,15.7 74.2,12.6 78.6,4.6 "/>
<path class="st4" d="M25.1,43c-2.6,1.8-5.8,2.2-8.6,1.3l-4.5,6.8L8.8,49l4.2-6.4l0,0c1,0.4,2.1,0.6,3.2,0.7c1.9,0,3.8-0.5,5.5-1.7
	c4-2.8,5-8.1,2.2-11.9c-2.6-3.6-7.6-4.5-11.5-2.2c0.2-0.2,0.5-0.4,0.7-0.5c4.4-3.1,10.6-2,13.9,2.5C30.3,33.9,29.4,40,25.1,43z"/>
<text transform="matrix(0.8812 0 0 1 106.4775 14.252)" class="st0 st5 st6">БЛАНК ДОКУМЕНТА </text>
<text transform="matrix(0.8812 0 0 1 106.4775 31.689)" class="st0 st5 st6">ЮРИДИЧЕСКИЙ ОТДЕЛ </text>
<text transform="matrix(0.8812 0 0 1 106.4775 49.1289)" class="st0 st5 st6">USSP</text>
</svg>
