<?xml version="1.0" encoding="UTF-8" standalone="no"?>
<!-- Created with Inkscape (http://www.inkscape.org/) -->

<svg
   version="1.1"
   id="svg1"
   width="198.93137"
   height="109.51668"
   viewBox="0 0 198.93137 109.51668"
   xmlns="http://www.w3.org/2000/svg"
   xmlns:svg="http://www.w3.org/2000/svg">
  <defs
     id="defs1" />
  <g
     id="layer1"
     style="display:inline;opacity:1"
     transform="translate(-1.1531131,-0.67419001)">
    <path
       id="path2"
       style="fill:#000000"
       d="m 118.45312,54.332031 c -2.12742,-0.02023 -4.22369,0.07947 -6.0039,0.248047 -3.56043,0.337158 -5.85258,0.957371 -8.19922,1.833984 -2.34664,0.876616 -4.747213,2.008226 -6.958984,3.316407 -2.211773,1.308178 -4.235205,2.791764 -6.851563,5.259765 -2.616356,2.468004 -5.825391,5.921535 -9.035156,9.873047 -3.209765,3.951512 -6.421201,8.400517 -9.212891,11.960938 -2.79169,3.560419 -5.164243,6.231133 -7.591797,7.984375 -2.427551,1.753241 -4.909231,2.589084 -6.972656,2.818359 C 55.563529,97.856229 53.919152,97.478916 52.300781,96.65625 50.682413,95.833584 49.089681,94.565595 45.8125,91.099609 42.535319,87.633626 37.572064,81.970138 33.580078,77.951172 29.588092,73.932206 27.615795,71.671898 23.736328,70.035156 19.484652,68.24138 14.667196,66.882566 9.9941406,68.361328 5.5713997,69.797999 2.568439,72.951767 1.3359375,76.785156 0.80616239,78.432889 1.5252432,80.332524 2.25,81.896484 2.9747568,83.460446 4.1202562,84.759162 4.6542969,85.140625 5.1883374,85.522088 5.1116829,84.98695 4.8828125,83.957031 4.7350114,83.291926 4.542688,82.418671 4.5039062,81.535156 4.3718213,80.852473 4.4112772,79.765249 4.7929688,78.251953 4.9456029,77.646804 5.1598657,77.054401 5.4140625,76.484375 5.6510122,75.994829 5.9231284,75.519266 6.2246094,75.066406 8.2426353,72.097194 11.534349,71.682472 14.90625,71.781239 c 4.070214,0.119221 7.720542,2.491307 10.595933,5.226677 2.814952,2.677875 4.940874,6.871229 7.382583,10.249885 0.68079,0.942026 1.41018,1.846808 2.136718,2.753907 2.234173,2.789412 6.428621,6.102971 10.076522,8.586078 3.615649,2.461154 8.728095,4.167834 12.347306,4.034754 3.619211,-0.13308 6.07198,-0.76216 8.748047,-2.11887 3.804699,-1.928902 7.715755,-5.731678 9.78125,-8.251952 3.175356,-3.874503 5.486577,-7.901965 8.324219,-11.785157 2.469977,-3.380058 4.314268,-7.045869 7.572266,-10.019531 3.257998,-2.973662 7.161527,-5.941256 11.812496,-7.339844 -2.99167,2.511879 -7.580979,5.214662 -10.783199,8.478516 -2.870299,2.925545 -5.008741,6.490183 -7.414063,9.808594 -2.904465,4.007035 -6.576065,9.825978 -8.47069,12.193346 -2.357486,2.945721 -5.080011,5.679139 -8.361328,7.466798 -3.541933,1.92964 -7.426968,3.45338 -11.666055,3.21286 -4.239087,-0.24052 -9.224371,-2.10664 -13.058435,-4.504976 -3.832953,-2.397639 -7.013249,-5.484031 -9.882945,-8.96373 -0.760094,-0.921665 -1.52693,-1.839576 -2.257813,-2.785156 -2.460012,-3.18264 -5.49864,-7.988264 -7.156747,-9.716414 -2.551171,-2.658939 -6.094949,-5.085705 -9.776846,-5.142962 -2.997531,-0.04662 -6.4096503,0.840565 -8.0859378,3.937498 -0.075394,0.16136 -0.1780453,0.369261 -0.2597656,0.580079 0.1932039,-0.11015 0.3881278,-0.221573 0.5859375,-0.285157 1.0680692,-0.343313 2.1347944,0.03776 4.0039059,0.876954 1.869115,0.839192 4.539967,2.136601 7.095703,4.730468 2.555739,2.59387 4.995937,6.485214 8.238282,10.337891 3.242344,3.852677 7.286793,7.665775 11.253906,10.335935 3.967113,2.67019 7.857369,4.19574 11.023438,5.1875 3.166066,0.99179 5.606701,1.44945 8.582031,1.29688 2.975329,-0.15258 6.48468,-0.91447 9.421875,-1.90625 2.937194,-0.99178 5.302724,-2.212 7.820312,-4.04297 2.517591,-1.83097 5.18725,-4.273284 7.857422,-7.515626 2.670172,-3.242345 5.340391,-7.284459 7.5625,-10.695313 2.222109,-3.410851 3.997333,-6.189587 5.990234,-8.617187 1.992904,-2.427603 4.203318,-4.505046 6.347658,-6.150391 2.14434,-1.645345 4.22172,-2.858126 6.56836,-3.761719 2.34664,-0.903593 4.96399,-1.497943 7.45898,-1.632812 2.49499,-0.13487 4.86804,0.190077 7.20117,0.945312 2.33316,0.755235 4.62594,1.941998 6.54102,3.546875 1.91508,1.60488 3.45294,3.627477 5.85352,7.214844 2.40055,3.587367 5.66384,8.738665 8.63086,12.744141 2.96699,4.005475 5.63736,6.864941 8.52343,9.40039 2.8861,2.535456 5.98779,4.746516 8.79297,6.054686 2.80518,1.3082 5.31248,1.71271 8.00977,1.69922 2.69726,-0.0135 5.58341,-0.44444 7.95703,-1.375 2.37362,-0.93056 4.23497,-2.36133 5.27344,-4.77539 1.03844,-2.414053 1.25447,-5.811645 1.01171,-8.306641 -0.24275,-2.494994 -0.94434,-4.086814 -1.72656,-5.287109 -0.78221,-1.200295 -1.64432,-2.009846 -1.91406,-2.158203 -0.26974,-0.148358 0.0525,0.364072 0.0391,1.699219 -0.0135,1.335144 -0.36278,3.49379 -1.32031,5.03125 -0.95753,1.537457 -2.52281,2.454221 -4.18164,2.818359 -1.65883,0.364138 -3.41166,0.175059 -5.36719,-0.445313 -1.95553,-0.620369 -4.11302,-1.672201 -5.79883,-2.832031 -1.68581,-1.159829 -2.89916,-2.427122 -5.93359,-6.783203 -3.03443,-4.356081 -7.89099,-11.799622 -12.17969,-16.830078 -4.28867,-5.030456 -8.00955,-7.647794 -11.25976,-9.589844 -3.25024,-1.94205 -6.02887,-3.209513 -9.83204,-3.816406 -1.90156,-0.303448 -4.06005,-0.44266 -6.1875,-0.462891 z" />
    <path
       style="fill:#000000"
       d="m 37.186658,77.815906 c -0.462509,-0.267016 -1.187265,-0.991772 -2.221963,-1.964483 -1.034698,-0.972711 -2.379284,-2.193328 -3.127882,-2.870404 -0.748599,-0.677076 -0.901176,-0.810581 -0.338524,-1.554423 0.562653,-0.743842 1.840486,-2.097964 3.719155,-4.014778 1.878669,-1.916814 4.358047,-4.396192 6.255777,-5.931536 1.897729,-1.535345 3.213707,-2.126581 5.378469,-2.364987 2.164762,-0.238405 5.178161,-0.123972 7.075885,0.32424 1.897724,0.448212 2.679682,1.23017 4.014777,2.641558 1.335096,1.411387 3.223239,3.452106 4.70137,5.111428 1.478131,1.659323 2.546172,2.937157 3.928947,3.700061 1.382775,0.762903 3.080196,1.010841 4.081507,1.163422 1.00131,0.152581 1.306464,0.209797 0.982222,0.6294 -0.324243,0.419603 -1.27785,1.201561 -2.498506,1.630694 -1.220657,0.429133 -2.708284,0.505421 -4.367612,-0.190741 -1.659328,-0.696162 -3.490254,-2.164717 -4.968386,-3.633316 -1.478132,-1.468599 -2.603389,-2.937154 -3.623778,-3.976613 -1.020389,-1.039459 -1.935852,-1.649767 -3.080218,-2.00261 -1.144365,-0.352843 -2.517559,-0.448203 -3.757285,-0.26701 -1.239725,0.181194 -2.345909,0.638925 -3.423517,1.392301 -1.077609,0.753375 -2.126576,1.802343 -3.156503,2.908561 -1.029926,1.106219 -2.04075,2.269619 -2.822729,3.804976 -0.781979,1.535358 -1.335072,3.442572 -1.711756,4.491563 -0.376684,1.048991 -0.576942,1.239712 -1.03945,0.972697 z"
       id="path3" />
    <path
       style="fill:#000000"
       d="m 7.581454,78.377974 c -0.2246708,0.09213 -0.5146261,0.456265 -0.7135504,1.002468 -0.1989242,0.546203 -0.3068126,1.274449 -0.3607578,2.016204 -0.053945,0.741755 -0.053945,1.496973 0.030346,2.248843 0.084291,0.751869 0.2528666,1.500344 0.4720219,1.972367 0.2191553,0.472023 0.4888764,0.667571 0.807178,0.913727 0.3183017,0.246156 0.6851637,0.542904 1.8889991,1.106117 1.2038354,0.563213 3.2445544,1.392851 5.2853344,2.012712 2.040781,0.619861 4.081501,1.029913 5.07804,1.058518 0.996539,0.0286 0.948858,-0.32423 0.681838,-1.001314 -0.26702,-0.677085 -0.75336,-1.678373 -1.306469,-2.775055 C 18.891325,85.835879 18.27148,84.64387 17.098503,83.666395 15.925525,82.688921 14.199496,81.926035 12.611693,81.124981 11.023891,80.323926 9.574408,79.484752 8.7699575,78.975224 7.965507,78.465696 7.8061248,78.285839 7.581454,78.377974 Z"
       id="path4" />
    <path
       style="fill:#000000"
       d="m 172.8543,93.693783 c -0.82012,-0.0095 -1.35415,-0.390986 -1.90726,-0.71522 -0.5531,-0.324234 -1.12527,-0.591246 -1.74513,-0.772437 -0.61987,-0.18119 -1.28739,-0.276551 -1.7356,-0.286086 -0.44821,-0.0095 -0.67707,0.06675 -1.08714,-0.162123 -0.41006,-0.228875 -1.0013,-0.762896 -1.90726,-1.640243 -0.90595,-0.877348 -2.12657,-2.097967 -2.81318,-2.88948 -0.68661,-0.791513 -0.83919,-1.153885 -0.69614,-1.535341 0.14305,-0.381455 0.5817,-0.781966 1.22064,-1.068057 0.63894,-0.28609 1.47811,-0.457738 2.47943,-0.667538 1.00132,-0.2098 2.16472,-0.457738 3.52843,-0.476809 1.3637,-0.01907 2.92761,0.190722 4.42482,0.524496 1.49721,0.333774 2.92762,0.791505 3.86218,1.401833 0.93455,0.610327 1.37321,1.373214 1.47811,2.288706 0.1049,0.915492 -0.12397,1.983533 -0.5245,2.889486 -0.40053,0.905953 -0.97269,1.649764 -1.81189,2.20287 -0.8392,0.553107 -1.94539,0.915479 -2.76551,0.905943 z"
       id="path5" />
    <path
       style="fill:#000000"
       d="m 115.66533,80.009247 c -0.25748,0.743829 -0.77243,1.964468 -1.21111,3.204196 -0.43867,1.239728 -0.80104,2.498488 -0.88686,3.757287 -0.0858,1.2588 0.10489,2.517561 0.66754,3.814506 0.56265,1.296945 1.49719,2.631998 2.66062,3.680993 1.16344,1.048996 2.55571,1.811883 4.29133,2.269625 1.73562,0.457741 3.81448,0.610318 5.90295,0.657999 2.08846,0.04768 4.1864,-0.0095 6.43698,-0.524504 2.25058,-0.514968 4.65367,-1.487647 6.3416,-2.31731 1.68793,-0.829662 2.66061,-1.516261 3.681,-1.201548 1.02039,0.314712 2.08843,1.630689 3.20418,2.946707 1.11576,1.316018 2.27916,2.631997 3.38537,3.804962 1.10622,1.17297 2.15519,2.20287 2.5271,2.88949 0.37191,0.68661 0.0668,1.02991 -0.82013,1.58302 -0.88689,0.55311 -2.35544,1.31599 -4.07199,2.01214 -1.71655,0.69616 -3.68098,1.32554 -5.61686,1.87865 -1.93588,0.5531 -3.84309,1.02991 -5.85527,1.28739 -2.01217,0.25748 -4.12918,0.29562 -6.25578,-0.0191 -2.12661,-0.3147 -4.26269,-0.98223 -6.1032,-1.58302 -1.84052,-0.60079 -3.38536,-1.13481 -4.98747,-2.06937 -1.60211,-0.93457 -3.26139,-2.26962 -4.6823,-4.11015 -1.42092,-1.84052 -2.60339,-4.186389 -3.28047,-6.51326 -0.67708,-2.326871 -0.84873,-4.634602 -0.52448,-6.770745 0.32424,-2.136143 1.14434,-4.100573 1.95493,-5.588239 0.81059,-1.487667 1.61162,-2.49849 2.19334,-3.146958 0.58171,-0.648469 0.94408,-0.934551 1.12527,-0.944086 0.18119,-0.0095 0.18119,0.257476 -0.0763,1.001305 z"
       id="path6" />
    <path
       style="fill:#000000"
       d="m 119.80565,93.096016 c -0.72151,-0.687801 -2.16455,-2.063409 -2.9535,-2.960252 -0.78895,-0.896844 -0.92381,-1.314911 -0.90358,-2.407319 0.0202,-1.092409 0.19555,-2.859081 0.70804,-4.403278 0.51249,-1.544196 1.36211,-2.865827 2.6703,-4.099836 1.30819,-1.234008 3.07486,-2.380321 5.05737,-3.317627 1.98251,-0.937306 4.18074,-1.665554 5.79236,-1.523937 1.61163,0.141617 2.63656,1.153067 3.61433,2.360108 0.97777,1.207041 1.90831,2.60959 2.42079,3.675014 0.51248,1.065424 0.60688,1.793671 0.18205,2.265695 -0.42483,0.472023 -1.36885,0.687799 -2.56915,0.903582 -1.20029,0.215783 -2.65679,0.43156 -4.02566,0.944047 -1.36887,0.512487 -2.65005,1.321652 -3.60758,2.198272 -0.95754,0.876619 -1.59138,1.820641 -2.0162,2.757949 -0.42482,0.937308 -0.6406,1.867846 -0.77546,2.589372 -0.13487,0.721525 -0.18881,1.23399 -0.6541,1.483486 -0.46528,0.249496 -1.34188,0.23601 -1.78018,0.229266 -0.43831,-0.0067 -0.43831,-0.0067 -1.15983,-0.694542 z"
       id="path7" />
    <path
       style="fill:#000000"
       d="m 186.67235,34.158897 c -0.27656,0.190727 -0.18119,0.953623 -0.0477,1.926334 0.13351,0.972711 0.30516,2.155183 0.32423,3.166036 0.0191,1.010852 -0.11443,1.850027 -0.37192,2.994392 -0.25748,1.144366 -0.63893,2.593847 -1.29694,3.986156 -0.65801,1.392308 -1.59254,2.727356 -2.56525,3.852645 -0.97271,1.125289 -1.98353,2.04075 -3.14697,2.937169 -1.16344,0.89642 -2.47942,1.77374 -3.90034,2.708301 -1.42091,0.934562 -2.94669,1.926317 -4.45343,2.870414 -1.50674,0.944097 -2.99437,1.840489 -4.48205,2.65108 -1.48767,0.810591 -2.97529,1.53533 -4.54879,2.193338 -1.5735,0.658008 -3.23278,1.249246 -4.78721,1.821427 -1.55442,0.572182 -3.0039,1.125274 -4.18641,1.506726 -1.1825,0.381453 -2.09797,0.591247 -2.72737,0.848729 -0.62939,0.257482 -0.97269,0.562638 -0.80103,1.230185 0.17166,0.667547 0.85826,1.697444 1.8119,2.994391 0.95363,1.296946 2.17425,2.860864 2.93715,3.766812 0.76291,0.905949 1.06806,1.153885 2.28872,0.934544 1.22067,-0.219342 3.35675,-0.905939 5.12097,-1.668849 1.76423,-0.762911 3.15649,-1.602081 4.98748,-2.698764 1.83098,-1.096684 4.10057,-2.450808 6.26532,-3.80497 2.16475,-1.354162 4.22454,-2.708283 5.86479,-3.967082 1.64025,-1.258799 2.86087,-2.422202 3.87172,-3.499809 1.01085,-1.077607 1.81188,-2.069358 2.55572,-3.232795 0.74383,-1.163438 1.43043,-2.49849 2.16473,-3.957554 0.7343,-1.459064 1.51626,-3.042053 1.94539,-5.063765 0.42913,-2.021711 0.50542,-4.482018 0.4482,-6.494185 -0.0572,-2.012167 -0.24794,-3.576083 -0.5531,-4.739516 -0.30517,-1.163432 -0.72475,-1.926315 -1.25879,-2.498495 -0.53404,-0.57218 -1.18249,-0.953622 -1.45904,-0.762895 z"
       id="path8" />
    <path
       style="fill:#000000"
       d="m 186.7633,60.273047 c 0.60592,-0.434804 1.81775,-1.304411 2.8822,-2.325879 1.06446,-1.021468 1.98151,-2.194752 2.95928,-3.361331 0.97777,-1.166578 2.01619,-2.326374 2.86584,-3.540156 0.84964,-1.213781 1.51046,-2.48147 2.11735,-3.728966 0.60689,-1.247497 1.15981,-2.474729 1.62509,-3.884063 0.46528,-1.409335 0.84289,-3.000689 0.86986,-4.646035 0.027,-1.645346 -0.29669,-3.344588 -0.86312,-5.097825 -0.56644,-1.753238 -1.3756,-3.56037 -2.30617,-5.111309 -0.93056,-1.550938 -1.98247,-2.845599 -3.42552,-4.315624 -1.44306,-1.470026 -3.27716,-3.115321 -4.85507,-4.356069 -1.57791,-1.240749 -2.89955,-2.076888 -4.42352,-2.926534 -1.52397,-0.849646 -3.25018,-1.71275 -4.84158,-2.387071 -1.5914,-0.67432 -3.04789,-1.159818 -4.59884,-1.523951 -1.55094,-0.364134 -3.19623,-0.606881 -4.70671,-0.782205 -1.51049,-0.175323 -2.88606,-0.28321 -4.47747,-0.296696 -1.5914,-0.01349 -3.39853,0.06743 -5.27314,0.283215 -1.87462,0.215785 -3.81661,0.566422 -5.73168,1.024962 -1.91508,0.45854 -3.80313,1.024955 -5.30012,1.618359 -1.49699,0.593403 -2.60285,1.213764 -3.91103,1.874599 -1.30819,0.660835 -2.81863,1.362111 -3.65478,1.861107 -0.83615,0.498995 -0.99798,0.79569 -0.5799,0.903579 0.41808,0.107888 1.41605,0.02697 2.34662,-0.08092 0.93056,-0.107892 1.79367,-0.242753 2.71075,-0.445051 0.91708,-0.202298 1.88807,-0.472018 3.84361,-0.6878 1.95555,-0.215782 4.89551,-0.377615 7.14774,-0.47202 2.25223,-0.0944 3.81661,-0.121378 5.46196,0.05395 1.64534,0.175325 3.37156,0.552936 5.15177,0.997989 1.78021,0.445053 3.61431,0.957521 5.15176,1.470005 1.53745,0.512485 2.77817,1.024956 4.07287,1.550927 1.2947,0.525972 2.6433,1.065411 4.20773,2.063413 1.56443,0.998001 3.34459,2.454497 4.73369,3.978466 1.3891,1.523969 2.38707,3.115322 3.46599,5.124806 1.07891,2.009485 2.23871,4.436974 2.95349,6.486911 0.71477,2.049936 0.98449,3.722205 1.02495,5.515904 0.0405,1.793698 -0.14834,3.708716 -0.60688,5.39452 -0.45855,1.685805 -1.18679,3.142296 -2.33892,4.804371 -1.15212,1.662075 -2.72805,3.529632 -3.51603,4.463428 -0.78798,0.933796 -0.78798,0.933799 -0.18207,0.498996 z"
       id="path9" />
    <path
       style="display:inline;fill:#000000"
       d="m 123.86652,45.993396 c 0.4482,0.04768 1.34461,0.143044 2.23149,-0.02861 0.88689,-0.171658 1.7642,-0.610314 2.42221,-1.354154 0.65801,-0.743841 1.09666,-1.792809 1.49719,-3.337703 0.40053,-1.544894 0.7629,-3.585614 1.36369,-5.054208 0.6008,-1.468594 1.43997,-2.364983 2.08844,-3.328156 0.64847,-0.963173 1.1062,-1.993069 1.61163,-2.794122 0.50543,-0.801054 1.05852,-1.373217 1.44951,-1.945398 0.39099,-0.572182 0.61985,-1.144344 0.74382,-2.651098 0.12397,-1.506754 0.14303,-3.94799 0.58171,-5.664526 0.43867,-1.716537 1.29692,-2.708291 2.62573,-3.681655 1.32882,-0.973365 3.12812,-1.928288 5.30902,-2.823843 2.18089,-0.895556 4.74324,-1.731691 7.53493,-2.379038 2.7917,-0.647347 5.81258,-1.1058736 8.55032,-1.2407345 2.73775,-0.1348609 5.19221,0.053944 7.67372,0.3776195 2.4815,0.323676 4.98991,0.782202 6.97241,1.267714 1.9825,0.485513 3.43899,0.997982 4.7674,1.584644 1.32842,0.586662 2.52868,1.247478 3.52667,1.847624 0.998,0.600145 1.79367,1.139584 2.3601,1.544176 0.56643,0.404593 0.90358,0.674314 0.76197,0.242742 -0.14161,-0.431572 -0.76197,-1.5644 -1.71277,-2.582627 -0.9508,-1.018227 -2.23197,-1.921789 -3.62107,-2.811895 -1.38911,-0.890105 -2.88606,-1.7666978 -4.34934,-2.3668422 -1.46328,-0.6001443 -2.8928,-0.923809 -4.52466,-1.2811999 -1.63186,-0.3573908 -3.46597,-0.7484881 -5.30012,-0.9575256 -1.83416,-0.2090375 -3.66826,-0.2360095 -5.9205,-0.1483466 -2.25224,0.087663 -4.92248,0.2899538 -7.12751,0.5394537 -2.20503,0.2494999 -3.94473,0.5461931 -6.11605,1.0384498 -2.17132,0.4922568 -4.77413,1.1800455 -7.25564,2.1106128 -2.4815,0.930567 -4.84156,2.103854 -6.99264,3.324378 -2.15109,1.220523 -4.09308,2.488211 -5.45521,3.391799 -1.36212,0.903588 -2.14431,1.443029 -2.91304,2.083637 -0.76873,0.640609 -1.52394,1.382337 -2.15106,2.205012 -0.62712,0.822675 -1.12611,1.726238 -1.71277,2.778185 -0.58666,1.051946 -1.26096,2.252204 -1.59136,3.782919 -0.33041,1.530714 -0.31691,3.391788 -0.27644,6.237438 0.0405,2.845649 0.1079,6.675686 0.33042,8.79304 0.22253,2.117355 0.60014,2.521936 0.9876,2.775572 0.38746,0.253636 0.78474,0.356311 0.98339,0.40765 0.19864,0.05134 0.19861,0.05134 0.64681,0.09902 z"
       id="path10" />
    <path
       style="display:inline;fill:#000000"
       d="m 108.21751,48.882884 c 0.83919,-0.419596 1.58302,-1.220642 2.18381,-2.4413 0.60079,-1.220658 1.05852,-2.860862 1.49719,-4.224559 0.43868,-1.363698 0.85826,-2.450807 1.42091,-3.537953 0.56265,-1.087146 1.26832,-2.174259 1.92632,-3.137428 0.65801,-0.96317 1.26832,-1.802346 1.75467,-2.364989 0.48636,-0.562643 0.84873,-0.848724 1.02992,-1.506736 0.18119,-0.658012 0.18119,-1.687908 0.34331,-3.10883 0.16212,-1.420922 0.48634,-3.232775 1.02991,-4.720444 0.54358,-1.487669 1.30647,-2.651071 2.46037,-3.909869 1.1539,-1.258798 2.69875,-2.612924 4.34854,-3.976623 1.64979,-1.363699 3.40443,-2.736894 7.22642,-4.389104 3.822,-1.6522107 9.711,-3.5833062 10.18697,-4.1815707 0.47598,-0.5982644 -4.4612,0.1363773 -7.93984,0.6728282 -3.47864,0.5364509 -5.49863,0.8746945 -8.044,1.7304411 -2.54537,0.8557464 -5.61599,2.2289424 -8.59133,3.7261504 -2.97534,1.497209 -5.85524,3.118344 -7.93416,4.424821 -2.07891,1.306476 -3.35675,2.298231 -4.6537,3.862199 -1.29694,1.563969 -2.61292,3.70005 -3.39489,5.159106 -0.78198,1.459056 -1.02992,2.241014 -1.1825,3.394916 -0.15258,1.153902 -0.20979,2.679675 -0.19072,5.426159 0.0191,2.746484 0.11444,6.713489 0.37192,9.107099 0.25748,2.393609 0.67707,3.213713 1.27786,3.700064 0.60079,0.486351 1.38275,0.638928 2.24102,0.696145 0.85828,0.05722 1.79281,0.01907 2.632,-0.400523 z"
       id="path11" />
    <path
       style="display:inline;fill:#000000"
       d="m 86.069646,39.514896 c 0.431562,1.105877 1.240741,1.510467 2.103874,1.780194 0.863133,0.269728 1.780184,0.404588 2.764695,-0.215796 0.984511,-0.620384 2.036423,-1.995961 2.683768,-3.223226 0.647345,-1.227265 0.890094,-2.306148 1.348636,-3.331117 0.458541,-1.02497 1.132843,-1.995965 2.22525,-3.290667 1.092406,-1.294703 2.602844,-2.913028 3.492941,-4.436995 0.8901,-1.523968 1.15982,-2.953488 1.51047,-4.167267 0.35065,-1.213778 0.7822,-2.211745 1.64534,-3.209744 0.86314,-0.997999 2.1578,-1.995965 3.39404,-2.772329 1.23625,-0.776364 2.41401,-1.331084 4.77668,-2.533485 2.36267,-1.202401 5.91009,-3.052399 9.252,-4.4752222 3.34192,-1.4228232 6.47805,-2.4183683 10.779,-3.1526768 4.30095,-0.7343085 9.76626,-1.2072924 13.41482,-1.5705235 3.64856,-0.363231 5.48015,-0.616686 8.12225,-0.77039 2.6421,-0.1537041 6.09453,-0.2076483 7.65894,-0.3964583 1.56441,-0.18881 1.24074,-0.5124782 -0.027,-0.8091797 -1.26773,-0.2967016 -3.47944,-0.5664221 -6.68923,-0.9440439 -3.20978,-0.3776217 -7.41742,-0.863119 -12.19163,-1.11935938 -4.77421,-0.2562404 -10.11468,-0.28321247 -13.99876,6.58e-6 -3.88409,0.283219 -6.31158,0.8766054 -9.61576,1.9824984 -3.30419,1.1058929 -7.48487,2.7242204 -12.20513,5.1248151 -4.72026,2.4005947 -9.979816,5.5832997 -13.486274,8.3345307 -3.506459,2.751231 -5.259645,5.07083 -6.217174,8.078315 -0.95753,3.007485 -1.119363,6.70266 -1.173308,9.453886 -0.05395,2.751226 0,4.558356 0.431562,5.664234 z"
       id="path12" />
    <g
       id="g27">
      <path
         style="fill:#000000"
         d="m 93.541666,27.78125 c 0.354167,-0.05208 0.9375,-0.447916 1.427088,-1.000007 0.489587,-0.552091 0.885413,-1.26041 1.218749,-1.854164 0.333336,-0.593755 0.604163,-1.072912 0.749997,-1.406247 0.145834,-0.333336 0.166667,-0.520832 -0.166674,-0.48958 -0.33334,0.03125 -1.020826,0.281248 -1.562497,0.5 -0.54167,0.218752 -0.937496,0.406248 -1.249998,0.656251 -0.312502,0.250003 -0.541665,0.562497 -0.697915,1.083338 -0.156251,0.520841 -0.239583,1.249992 -0.218748,1.760411 0.02083,0.51042 0.145832,0.802081 0.499998,0.749998 z"
         id="path24" />
      <path
         style="fill:#000000"
         d="m 104.89583,29.916666 c 0.13542,0.156251 0.19792,0.572917 0.17188,1.000006 -0.0261,0.427088 -0.14063,0.864579 -0.28125,1.083328 -0.14063,0.21875 -0.30729,0.21875 -0.46354,0.01041 -0.15626,-0.208338 -0.30209,-0.624996 -0.29688,-0.999998 0.005,-0.375003 0.16146,-0.708331 0.34375,-0.927082 0.1823,-0.218752 0.39063,-0.322917 0.52604,-0.166666 z"
         id="path25" />
      <path
         style="fill:#000000"
         d="m 110.13021,34.453125 c -0.0573,-0.421875 -0.17188,-1.265625 -0.11458,-2.041674 0.0573,-0.776049 0.28645,-1.484367 0.90626,-1.958328 0.6198,-0.473962 1.63019,-0.713539 2.11978,-0.755208 0.4896,-0.04167 0.45836,0.114591 0.3542,0.458344 -0.10416,0.343753 -0.28124,0.874992 -0.47395,1.328121 -0.19271,0.453128 -0.40104,0.828121 -0.54166,1.223957 -0.14063,0.395835 -0.21354,0.812495 -0.50001,1.177082 -0.28646,0.364587 -0.78645,0.677081 -1.10416,0.833331 -0.31771,0.15625 -0.45312,0.15625 -0.52083,0.15625 -0.0677,0 -0.0678,0 -0.12505,-0.421875 z"
         id="path26" />
      <path
         style="fill:#ff0000"
         d="m 128.08696,29.353713 c 0.66305,-1.046433 1.20991,-1.520378 1.60054,-1.918816 0.39062,-0.398437 0.625,-0.721357 0.74738,-0.757812 0.12239,-0.03646 0.13279,0.21354 0.15622,0.596359 0.0234,0.382819 0.0599,0.89843 0.0339,1.453121 -0.026,0.55469 -0.11459,1.148434 -0.39584,1.736981 -0.28125,0.588546 -0.7552,1.171869 -1.22656,1.510413 -0.47136,0.338543 -0.9401,0.432291 -1.34115,0.416665 -0.40104,-0.01563 -0.73437,-0.140625 -0.5064,-1.023023 0.22797,-0.882397 0.26891,-0.967456 0.93196,-2.013888 z"
         id="path27" />
    </g>
    <path
       style="fill:#ff0000;stroke-width:0.0883883"
       d="m 110.18415,34.529579 c -0.12857,-0.734394 -0.16027,-2.107028 -0.0598,-2.588252 0.13033,-0.624027 0.51482,-1.238532 0.95875,-1.532318 0.45179,-0.29898 1.27617,-0.583288 1.86889,-0.644535 l 0.47784,-0.04938 -0.0553,0.276254 c -0.0524,0.261792 -0.3962,1.185827 -0.87772,2.358784 -0.11975,0.291682 -0.28389,0.712391 -0.36477,0.93491 -0.2225,0.612175 -0.89568,1.226337 -1.61435,1.472814 -0.27275,0.09354 -0.2779,0.09002 -0.33362,-0.22828 z"
       id="path28" />
    <path
       style="fill:#ff0000;stroke-width:0.0883883"
       d="m 93.150188,27.466679 c -0.107352,-0.274256 -0.04452,-1.453654 0.10712,-2.010835 0.150241,-0.552027 0.47849,-1.050155 0.871479,-1.322497 0.457938,-0.317351 1.959226,-0.924027 2.454649,-0.991932 0.331346,-0.04542 0.378581,-0.03091 0.378581,0.116231 0,0.217363 -1.062241,2.130855 -1.661129,2.992311 -0.535843,0.770772 -1.384462,1.45979 -1.797928,1.45979 -0.199059,0 -0.279259,-0.05526 -0.352772,-0.243068 z"
       id="path29" />
    <path
       style="fill:#ff0000;stroke-width:0.0883883"
       d="m 103.96364,31.901036 c -0.0574,-0.632601 0.2029,-1.915941 0.58436,-2.400935 0.39432,-0.501298 0.49895,0.490045 0.4381,1.427928 -0.0392,0.6048 -0.33839,2.204141 -0.51212,2.204141 -0.11908,0 -0.47018,-0.788352 -0.51034,-1.231134 z"
       id="path30" />
  </g>
</svg>
