<?xml version="1.0" encoding="UTF-8" standalone="no"?>
<svg
   width="211"
   height="60"
   viewBox="0 0 211 60"
   fill="none"
   version="1.1"
   id="svg4"
   sodipodi:docname="paper_heading_artifact_analyzer.svg"
   inkscape:version="1.2.2 (b0a8486541, 2022-12-01)"
   inkscape:export-filename="paper_heading_artifact_analyzer.svg.96dpi.png"
   inkscape:export-xdpi="96"
   inkscape:export-ydpi="96"
   xmlns:inkscape="http://www.inkscape.org/namespaces/inkscape"
   xmlns:sodipodi="http://sodipodi.sourceforge.net/DTD/sodipodi-0.dtd"
   xmlns="http://www.w3.org/2000/svg"
   xmlns:svg="http://www.w3.org/2000/svg"
   xmlns:rdf="http://www.w3.org/1999/02/22-rdf-syntax-ns#"
   xmlns:cc="http://creativecommons.org/ns#"
   xmlns:dc="http://purl.org/dc/elements/1.1/">
  <metadata
     id="metadata10">
    <rdf:RDF>
      <cc:Work
         rdf:about="">
        <dc:format>image/svg+xml</dc:format>
        <dc:type
           rdf:resource="http://purl.org/dc/dcmitype/StillImage" />
      </cc:Work>
    </rdf:RDF>
  </metadata>
  <defs
     id="defs8">
    <rect
       x="-30.967747"
       y="-32.336391"
       width="277.27594"
       height="150.43042"
       id="rect462" />
    <rect
       x="12.500253"
       y="14.598581"
       width="334.51892"
       height="47.488827"
       id="rect348" />
    <clipPath
       clipPathUnits="userSpaceOnUse"
       id="clipPath1398">
      <g
         id="g1414"
         transform="skewX(-0.64194233)">
        <rect
           style="fill:#0000ff;fill-opacity:1;stroke:none;stroke-width:1.418;stroke-linejoin:round"
           id="rect1400"
           width="193.3102"
           height="4.4629641"
           x="0"
           y="10.397732" />
        <rect
           style="fill:#0000ff;fill-opacity:1;stroke:none;stroke-width:1.418;stroke-linejoin:round"
           id="rect1402"
           width="193.3102"
           height="4.4629641"
           x="0"
           y="19.308941" />
        <rect
           style="fill:#0000ff;fill-opacity:1;stroke:none;stroke-width:1.418;stroke-linejoin:round"
           id="rect1404"
           width="193.3102"
           height="4.4629641"
           x="0"
           y="28.220152" />
        <rect
           style="fill:#0000ff;fill-opacity:1;stroke:none;stroke-width:1.418;stroke-linejoin:round"
           id="rect1406"
           width="193.3102"
           height="4.4629641"
           x="0"
           y="37.131363" />
        <rect
           style="fill:#0000ff;fill-opacity:1;stroke:none;stroke-width:1.418;stroke-linejoin:round"
           id="rect1408"
           width="193.3102"
           height="4.4629641"
           x="0"
           y="46.042572" />
        <rect
           style="fill:#0000ff;fill-opacity:1;stroke:none;stroke-width:1.418;stroke-linejoin:round"
           id="rect1410"
           width="193.3102"
           height="4.4629641"
           x="0"
           y="54.953781" />
        <rect
           style="fill:#0000ff;fill-opacity:1;stroke:none;stroke-width:1.418;stroke-linejoin:round"
           id="rect1412"
           width="27.770258"
           height="8.9112129"
           x="52.285023"
           y="30.451633" />
      </g>
    </clipPath>
    <clipPath
       clipPathUnits="userSpaceOnUse"
       id="clipPath1608">
      <g
         id="g1630"
         transform="scale(0.96824607,1.0327953)">
        <rect
           style="fill:#00a700;fill-opacity:1;stroke-width:0.0886665;stroke-linejoin:round"
           id="rect1610"
           width="145.43811"
           height="3.8830388"
           x="0"
           y="1.1368795e-05" />
        <rect
           style="fill:#00a700;fill-opacity:1;stroke-width:0.0886665;stroke-linejoin:round"
           id="rect1612"
           width="145.43811"
           height="3.8830388"
           x="0"
           y="6.207139" />
        <rect
           style="fill:#00a700;fill-opacity:1;stroke-width:0.0886665;stroke-linejoin:round"
           id="rect1614"
           width="145.43811"
           height="3.8830388"
           x="0"
           y="12.414267" />
        <rect
           style="fill:#00a700;fill-opacity:1;stroke-width:0.0886665;stroke-linejoin:round"
           id="rect1616"
           width="145.43811"
           height="3.8830388"
           x="0"
           y="18.621393" />
        <rect
           style="fill:#00a700;fill-opacity:1;stroke-width:0.0886665;stroke-linejoin:round"
           id="rect1618"
           width="145.43811"
           height="3.8830388"
           x="0"
           y="24.828522" />
        <rect
           style="fill:#00a700;fill-opacity:1;stroke-width:0.0886665;stroke-linejoin:round"
           id="rect1620"
           width="145.43811"
           height="3.8830388"
           x="0"
           y="31.035648" />
        <rect
           style="fill:#00a700;fill-opacity:1;stroke-width:0.0886665;stroke-linejoin:round"
           id="rect1622"
           width="145.43811"
           height="3.8830388"
           x="0"
           y="37.242775" />
        <rect
           style="fill:#00a700;fill-opacity:1;stroke-width:0.0886665;stroke-linejoin:round"
           id="rect1624"
           width="145.43811"
           height="3.8830388"
           x="0"
           y="43.449905" />
        <rect
           style="fill:#00a700;fill-opacity:1;stroke-width:0.0886665;stroke-linejoin:round"
           id="rect1626"
           width="145.43811"
           height="3.8830388"
           x="0"
           y="55.864159" />
        <rect
           style="fill:#00a700;fill-opacity:1;stroke-width:0.0886665;stroke-linejoin:round"
           id="rect1628"
           width="145.43811"
           height="3.8830388"
           x="0"
           y="49.657032" />
      </g>
    </clipPath>
  </defs>
  <sodipodi:namedview
     pagecolor="#ffffff"
     bordercolor="#666666"
     borderopacity="1"
     objecttolerance="10"
     gridtolerance="10"
     guidetolerance="10"
     inkscape:pageopacity="0"
     inkscape:pageshadow="2"
     inkscape:window-width="1916"
     inkscape:window-height="1034"
     id="namedview6"
     showgrid="false"
     inkscape:snap-bbox="true"
     inkscape:bbox-paths="false"
     inkscape:bbox-nodes="true"
     inkscape:snap-object-midpoints="false"
     inkscape:snap-nodes="false"
     inkscape:snap-page="true"
     inkscape:zoom="2.1111586"
     inkscape:cx="131.91808"
     inkscape:cy="129.54972"
     inkscape:window-x="0"
     inkscape:window-y="44"
     inkscape:window-maximized="1"
     inkscape:current-layer="svg4"
     inkscape:showpageshadow="2"
     inkscape:pagecheckerboard="0"
     inkscape:deskcolor="#d1d1d1"
     showguides="true" />
  <g
     aria-label="NTX"
     transform="scale(1.0327953,0.96824607)"
     id="text1677"
     clip-path="url(#clipPath1608)"
     style="font-size:87.0333px;line-height:1.25;display:inline;fill:#2c3b8c;stroke-width:2.17583">
    <path
       d="M 53.264381,8.4422421 H 48.129416 V 61.706623 H 38.990919 Q 36.292887,57.006825 34.378154,53.264393 30.722756,45.866562 24.108225,32.8986 19.49546,24.021203 15.578961,14.621607 V 61.706623 H 1.8276993 v -8.18113 H 6.9626642 V 8.9644419 H 1.8276993 V 0.26111165 H 17.580727 Q 22.976792,11.836541 28.19879,22.193504 36.205854,38.207631 39.426086,46.127662 V 0.26111165 h 13.838295 z"
       style="font-family:City;-inkscape-font-specification:City"
       id="path315" />
    <path
       d="M 90.6887,17.493706 V 8.4422421 H 81.898337 V 53.525493 h 5.047931 v 8.18113 H 67.015642 v -8.18113 H 72.23764 V 8.4422421 H 63.447276 V 17.493706 H 54.395813 V 0.26111165 h 45.34435 V 17.493706 Z"
       style="font-family:City;-inkscape-font-specification:City"
       id="path317" />
    <path
       d="m 142.73461,8.4422421 h -4.87387 l -10.96619,22.1064589 11.48839,22.976792 h 4.78684 v 8.18113 h -11.4884 L 121.49848,39.600164 110.88042,61.706623 H 99.740158 v -8.18113 h 4.873862 L 116.18945,30.548701 105.13622,8.4422421 h -4.78683 V 0.26111165 h 11.66246 l 9.48663,21.06205935 10.1829,-21.06205935 h 11.05323 z"
       style="font-family:City;-inkscape-font-specification:City"
       id="path319" />
  </g>
  <g
     inkscape:groupmode="layer"
     id="layer3"
     inkscape:label="Bars" />
  <g
     aria-label="Labs"
     id="text2013"
     style="font-size:41.0143px;line-height:1.25;fill:#5e975b;stroke-width:1.02536">
    <path
       d="m 135.21715,31.07382 h 2.50187 v 20.055993 h 14.84718 v 2.460859 h -17.34905 z"
       style="font-family:'IBM 3270 Semi-Narrow';-inkscape-font-specification:'IBM 3270 Semi-Narrow'"
       id="path418" />
    <path
       d="m 167.82354,51.129813 v -5.331859 h -8.24387 l -1.76362,1.80463 v 1.7226 l 1.7226,1.845644 z m 2.46086,0.04102 h 2.50187 v 2.378829 h -13.7808 q -0.49217,0 -0.8613,-0.369128 l -2.37883,-2.542887 q -0.36913,-0.369129 -0.36913,-0.8613 v -2.66593 q 0,-0.492172 0.36913,-0.8613 l 2.41984,-2.501873 q 0.32812,-0.328114 0.8613,-0.328114 h 8.77706 v -3.199116 l -1.68158,-1.7226 h -8.36692 v -2.419844 h 8.85909 q 0.49217,0 0.8613,0.369129 l 2.41984,2.460858 q 0.36913,0.369128 0.36913,0.820286 z"
       style="font-family:'IBM 3270 Semi-Narrow';-inkscape-font-specification:'IBM 3270 Semi-Narrow'"
       id="path420" />
    <path
       d="M 175.57527,53.467629 V 28.571948 h 2.46086 v 7.546631 h 6.39823 q 0.49217,0 0.8613,0.369129 l 4.8807,4.96273 q 0.36913,0.369129 0.36913,0.861301 v 5.044759 q 0,0.492171 -0.36913,0.8613 l -5.04476,4.962731 q -0.2871,0.2871 -0.8613,0.2871 z m 2.46086,-2.337816 h 5.742 l 4.34751,-4.265487 V 42.80391 l -4.18345,-4.265487 h -5.90606 z"
       style="font-family:'IBM 3270 Semi-Narrow';-inkscape-font-specification:'IBM 3270 Semi-Narrow'"
       id="path422" />
    <path
       d="m 208.14065,40.343052 -1.80463,-1.804629 h -6.31621 l -1.18941,1.230429 11.44299,9.064161 q 0.45116,0.369128 0.45116,0.902314 0,0.5742 -0.36913,0.943329 l -2.5839,2.542887 q -0.36913,0.369129 -0.8613,0.369129 l -7.38258,-0.04101 q -0.53318,0 -0.8613,-0.328114 l -2.54288,-2.460858 q -0.36913,-0.369129 -0.36913,-0.902315 v -1.1484 h 2.46085 v 0.615214 l 1.80463,1.763615 6.39824,0.04101 1.23042,-1.230429 -11.40197,-9.023146 q -0.36913,-0.2871 -0.45116,-0.902314 -0.082,-0.533186 0.32812,-0.943329 l 2.46085,-2.583901 q 0.36913,-0.369129 0.90232,-0.369129 h 7.34156 q 0.49217,0 0.8613,0.369129 l 2.54289,2.501872 q 0.36912,0.369129 0.36912,0.8613 v 1.312458 h -2.46085 z"
       style="font-family:'IBM 3270 Semi-Narrow';-inkscape-font-specification:'IBM 3270 Semi-Narrow'"
       id="path424" />
  </g>
</svg>
