<?xml version="1.0" encoding="utf-8"?>
<!-- Generator: Adobe Illustrator 27.8.1, SVG Export Plug-In . SVG Version: 6.00 Build 0)  -->
<svg version="1.1" id="Слой_1" xmlns="http://www.w3.org/2000/svg" xmlns:xlink="http://www.w3.org/1999/xlink" x="0px" y="0px"
	 viewBox="0 0 229.3 52.2" style="enable-background:new 0 0 229.3 52.2;" xml:space="preserve">
<style type="text/css">
	.st0{fill:#E30F1B;}
	.st1{fill:#FFED00;stroke:#E30F1B;stroke-width:3;stroke-miterlimit:10;}
	.st2{fill:#E30F1B;stroke:#E30F1B;stroke-miterlimit:10;}
	.st3{fill:#FFED00;stroke:#E30F1B;stroke-width:1.25;stroke-miterlimit:10;}
	.st4{fill:#FFED00;stroke:#E30F1B;stroke-width:0.75;stroke-miterlimit:10;}
	.st5{font-family:'Arial-BoldMT';}
	.st6{font-size:14.2335px;}
</style>
<path class="st0" d="M96.5,0H2.6C1.2,0,0,1.2,0,2.5v47.1c0,1.4,1.2,2.5,2.6,2.5h93.8c1.5,0,2.6-1.2,2.6-2.5V2.5
	C99.1,1.2,98,0,96.5,0z"/>
<circle class="st1" cx="49.6" cy="25.4" r="22.5"/>
<path class="st2" d="M51.7,7.4c2.1,0.7,4.6,1.7,7,3.3c3.9,2.6,6.3,5.8,7.7,8.3l0.6-0.5c-2.3-6.8-8.5-11.8-15.9-12.4L51.7,7.4z"/>
<path class="st3" d="M52.8,34.9C29.4,43.3,9.1,46.2,7.4,41.3c-1.2-3.2,6.3-9.2,18.4-15.3l-0.1,3.8c-4.9,2.9-7.6,5.5-7,7.1
	c1.2,3.3,16.2,0.9,33.4-5.4s30.3-13.9,29-17.2c-0.6-1.7-4.7-1.9-10.7-0.9L68,10.7c13.2-2.9,22.6-3.1,23.8,0.1
	C93.5,15.7,76.1,26.5,52.8,34.9z"/>
<polygon class="st4" points="83.8,2.9 80.9,8.3 94.1,17 92.1,20.7 78.9,12 77.1,15.4 72.7,12.4 76.9,4.5 "/>
<path class="st4" d="M24.5,42.2C22,44,18.9,44.3,16,43.5l-4.4,6.6l-3.1-2l4.1-6.2l0,0c1,0.4,2.1,0.6,3.1,0.7c1.8,0,3.7-0.5,5.4-1.7
	c3.9-2.7,4.9-8,2.1-11.7c-2.5-3.5-7.4-4.4-11.3-2.1c0.2-0.2,0.5-0.4,0.7-0.5c4.3-3,10.4-2,13.6,2.4C29.7,33.2,28.8,39.2,24.5,42.2z"
	/>
<text transform="matrix(0.8812 0 0 1 104.2866 13.9585)" class="st0 st5 st6">БЛАНК ДОКУМЕНТА </text>
<text transform="matrix(0.8812 0 0 1 104.2866 31.0381)" class="st0 st5 st6">ОТДЕЛ ПОЧТЫ </text>
<text transform="matrix(0.8812 0 0 1 104.2866 48.1191)" class="st0 st5 st6">USSP</text>
</svg>
