<?xml version="1.0" encoding="utf-8"?>
<!-- Generator: Adobe Illustrator 27.8.1, SVG Export Plug-In . SVG Version: 6.00 Build 0)  -->
<svg version="1.1" id="Слой_1" xmlns="http://www.w3.org/2000/svg" xmlns:xlink="http://www.w3.org/1999/xlink" x="0px" y="0px"
	 viewBox="0 0 255.7 55.1" style="enable-background:new 0 0 255.7 55.1;" xml:space="preserve">
<style type="text/css">
	.st0{fill:#E30F1B;}
	.st1{fill:#FFED00;stroke:#E30F1B;stroke-width:3;stroke-miterlimit:10;}
	.st2{fill:#E30F1B;stroke:#E30F1B;stroke-miterlimit:10;}
	.st3{fill:#FFED00;stroke:#E30F1B;stroke-width:1.25;stroke-miterlimit:10;}
	.st4{fill:#FFED00;stroke:#E30F1B;stroke-width:0.75;stroke-miterlimit:10;}
	.st5{font-family:'Arial-BoldMT';}
	.st6{font-size:15.0224px;}
</style>
<path class="st0" d="M101.9,0H2.8C1.2,0,0,1.2,0,2.7v49.8c0,1.4,1.2,2.7,2.8,2.7h99c1.5,0,2.8-1.2,2.8-2.7V2.7
	C104.6,1.2,103.4,0,101.9,0z"/>
<circle class="st1" cx="52.3" cy="26.8" r="23.7"/>
<path class="st2" d="M54.6,7.8c2.3,0.7,4.8,1.7,7.4,3.5c4.1,2.8,6.7,6.2,8.1,8.7l0.6-0.5C68.3,12.3,61.8,7.1,54,6.5L54.6,7.8z"/>
<path class="st3" d="M55.7,36.8C31,45.7,9.7,48.7,7.8,43.6c-1.2-3.4,6.7-9.7,19.4-16.1l-0.1,4c-5.1,3.1-8,5.9-7.4,7.5
	c1.2,3.5,17.1,0.9,35.2-5.7s32-14.7,30.6-18.2c-0.6-1.8-4.9-1.9-11.3-0.9l-2.6-2.9C85.6,8.2,95.6,8,96.8,11.4
	C98.7,16.5,80.3,28,55.7,36.8z"/>
<polygon class="st4" points="88.5,3.1 85.4,8.7 99.3,18 97.2,21.9 83.2,12.6 81.4,16.2 76.7,13.1 81.2,4.7 "/>
<path class="st4" d="M25.9,44.5c-2.7,1.8-6,2.3-8.9,1.3l-4.6,7L9,50.7l4.3-6.6l0,0c1,0.4,2.2,0.6,3.3,0.7c2,0,3.9-0.5,5.6-1.8
	c4.1-2.9,5.1-8.4,2.3-12.3c-2.7-3.7-7.8-4.6-11.9-2.3c0.2-0.2,0.5-0.4,0.7-0.5c4.5-3.2,11-2.1,14.4,2.6C31.4,35,30.4,41.3,25.9,44.5
	z"/>
<text transform="matrix(0.8812 0 0 1 110.0664 14.7319)" class="st0 st5 st6">БЛАНК ДОКУМЕНТА </text>
<text transform="matrix(0.8812 0 0 1 110.0664 32.7563)" class="st0 st5 st6">ГЕНЕРАЛЬНЫЙ ШТАБ </text>
<text transform="matrix(0.8812 0 0 1 110.0664 50.7847)" class="st0 st5 st6">USSP</text>
</svg>
