<?xml version="1.0" encoding="utf-8"?>
<!-- Generator: Adobe Illustrator 27.8.1, SVG Export Plug-In . SVG Version: 6.00 Build 0)  -->
<svg version="1.1" id="Слой_1" xmlns="http://www.w3.org/2000/svg" xmlns:xlink="http://www.w3.org/1999/xlink" x="0px" y="0px"
	 viewBox="0 0 260 64.6" style="enable-background:new 0 0 260 64.6;" xml:space="preserve">
<style type="text/css">
	.st0{fill:#6CA729;}
</style>
<path class="st0" d="M119.4,0H3.3C1.5,0,0,1.4,0,3.1v58.3c0,1.7,1.5,3.1,3.3,3.1h116.1c1.8,0,3.3-1.4,3.3-3.1V3.1
	C122.7,1.4,121.2,0,119.4,0z M30,31L10.9,12.9H30V31z M84.5,51.7H70.4L52.3,31.7v19.9H38.2V12.9h14.1l18.1,19.9V12.9h14.1V51.7z
	 M92.7,51.7V33.6l19.1,18.1H92.7z"/>
<g>
	<g>
		<g>
			<path class="st0" d="M133.2,7.8h1.5V17h-1.5V7.8z M133.8,7.8h4.6v1.7h-4.6V7.8z M133.9,15.3h2.6c0.2,0,0.3,0,0.5-0.1
				c0.1-0.1,0.2-0.2,0.3-0.4s0.1-0.4,0.1-0.6s0-0.4-0.1-0.6c-0.1-0.2-0.2-0.3-0.3-0.4c-0.1-0.1-0.3-0.1-0.5-0.1h-2.6v-1.7h2.5
				c0.5,0,0.9,0.1,1.3,0.4c0.4,0.2,0.7,0.6,0.9,1c0.2,0.4,0.3,0.9,0.3,1.5c0,0.6-0.1,1.1-0.3,1.5c-0.2,0.4-0.5,0.8-0.9,1
				c-0.4,0.2-0.8,0.3-1.3,0.3h-2.5L133.9,15.3L133.9,15.3z"/>
			<path class="st0" d="M140.1,15.3c0.3,0,0.5-0.1,0.7-0.2c0.2-0.2,0.3-0.4,0.4-0.7c0.1-0.3,0.1-0.7,0.1-1.1V7.8h1.5v5.7
				c0,0.7-0.1,1.4-0.3,1.9c-0.2,0.5-0.5,0.9-0.9,1.2c-0.4,0.3-0.9,0.4-1.4,0.4h-0.1V15.3z M142.2,7.8h3.7v1.7h-3.7V7.8z M145.3,7.8
				h1.5V17h-1.5V7.8z"/>
			<path class="st0" d="M150.9,7.8h1L155,17h-1.6l-1.9-6.3l-1.9,6.3h-1.6L150.9,7.8z M149.3,13.8h4.2v1.7h-4.2V13.8z"/>
			<path class="st0" d="M155.9,7.8h1.5V17h-1.5V7.8z M156.6,11.6h4.7v1.7h-4.7V11.6z M160.4,7.8h1.5V17h-1.5V7.8z"/>
			<path class="st0" d="M163.6,7.8h1.5V17h-1.5V7.8z M164.3,11.6h2.9v1.7h-2.9V11.6z M165.9,12.9l1.4-0.7L170,17h-1.9L165.9,12.9z
				 M165.9,12l2.1-4.1h1.7l-2.7,5.3L165.9,12z"/>
			<path class="st0" d="M173.6,15.3h6.9V17h-6.9V15.3z M173.6,15.3h1.5v3.6h-1.5V15.3z M173.6,15.3h0.1c0.3,0,0.6-0.2,0.8-0.5
				c0.2-0.4,0.3-0.8,0.3-1.5V7.8h1.5V13c0,0.8-0.1,1.4-0.3,1.9s-0.5,0.9-0.8,1.2c-0.4,0.3-0.8,0.4-1.4,0.4h-0.2V15.3z M175.7,7.8
				h3.5v1.7h-3.5V7.8z M178.5,7.8h1.5V17h-1.5V7.8z M179.5,15.3h1.5v3.6h-1.5V15.3z"/>
			<path class="st0" d="M183.5,16.7c-0.4-0.3-0.8-0.7-1-1.2c-0.2-0.5-0.4-1.1-0.4-1.8v-2.6c0-0.7,0.1-1.3,0.4-1.8
				c0.2-0.5,0.6-0.9,1-1.2c0.4-0.3,1-0.4,1.5-0.4c0.6,0,1.1,0.1,1.5,0.4c0.4,0.3,0.8,0.7,1,1.2c0.2,0.5,0.4,1.1,0.4,1.8v2.6
				c0,0.7-0.1,1.3-0.4,1.8c-0.2,0.5-0.6,0.9-1,1.2c-0.4,0.3-1,0.4-1.5,0.4C184.4,17.1,183.9,16.9,183.5,16.7z M185.7,15.1
				c0.2-0.1,0.4-0.3,0.5-0.6c0.1-0.2,0.2-0.5,0.2-0.8v-2.7c0-0.3-0.1-0.6-0.2-0.8c-0.1-0.2-0.3-0.4-0.5-0.6
				c-0.2-0.1-0.4-0.2-0.7-0.2c-0.3,0-0.5,0.1-0.7,0.2c-0.2,0.1-0.4,0.3-0.5,0.6c-0.1,0.2-0.2,0.5-0.2,0.8v2.7c0,0.3,0.1,0.6,0.2,0.8
				c0.1,0.2,0.3,0.4,0.5,0.6c0.2,0.1,0.4,0.2,0.7,0.2C185.3,15.3,185.5,15.3,185.7,15.1z"/>
			<path class="st0" d="M189.5,7.8h1.5V17h-1.5V7.8z M190.2,11.6h2.9v1.7h-2.9V11.6z M191.8,12.9l1.4-0.7l2.8,4.7H194L191.8,12.9z
				 M191.8,12l2.1-4.1h1.7l-2.7,5.3L191.8,12z"/>
			<path class="st0" d="M196.2,7.8h1.6l2.4,6.6l-1,1.5L196.2,7.8z M200.5,15.1c-0.1,0.4-0.3,0.8-0.5,1.1c-0.2,0.3-0.4,0.5-0.6,0.7
				c-0.2,0.2-0.5,0.2-0.9,0.2h-0.9v-1.6h0.6c0.2,0,0.3,0,0.5-0.1c0.1-0.1,0.3-0.2,0.4-0.4c0.1-0.2,0.2-0.4,0.3-0.6l2.1-6.5h1.6
				L200.5,15.1z"/>
			<path class="st0" d="M208.8,7.8h2V17h-1.4V9.9l0.1,0.4L208,16h-1.3l-1.5-5.6l0.1-0.5V17h-1.4V7.8h2l1.5,6.2L208.8,7.8z"/>
			<path class="st0" d="M212.6,7.8h1.5V17h-1.5V7.8z M213.1,7.8h4.8v1.7h-4.8V7.8z M213.1,11.6h4.2v1.7h-4.2V11.6z M213.1,15.3h4.8
				V17h-4.8V15.3z"/>
			<path class="st0" d="M219.4,7.8h1.5V17h-1.5V7.8z M220.1,11.6h4.7v1.7h-4.7V11.6z M223.8,7.8h1.5V17h-1.5V7.8z"/>
			<path class="st0" d="M226,7.8h5.9v1.7H226V7.8z M228.2,8.6h1.5V17h-1.5V8.6z"/>
			<path class="st0" d="M234.8,7.8h1l3.1,9.2h-1.6l-1.9-6.3l-1.9,6.3h-1.6L234.8,7.8z M233.2,13.8h4.2v1.7h-4.2V13.8z"/>
			<path class="st0" d="M134.8,35.2c-0.5-0.3-0.9-0.8-1.2-1.4c-0.3-0.6-0.4-1.4-0.4-2.2v-3c0-0.9,0.1-1.6,0.4-2.2
				c0.3-0.6,0.7-1.1,1.2-1.4c0.5-0.3,1.1-0.5,1.9-0.5c0.6,0,1.1,0.1,1.6,0.4s0.9,0.7,1.2,1.3c0.3,0.6,0.5,1.3,0.6,2.1h-1.9
				c-0.1-0.4-0.2-0.7-0.3-0.9c-0.1-0.3-0.3-0.5-0.5-0.6c-0.2-0.1-0.4-0.2-0.7-0.2c-0.3,0-0.6,0.1-0.9,0.2c-0.2,0.2-0.4,0.4-0.5,0.7
				c-0.1,0.3-0.2,0.7-0.2,1.1v3c0,0.4,0.1,0.8,0.2,1.1c0.1,0.3,0.3,0.5,0.5,0.7c0.2,0.2,0.5,0.2,0.9,0.2c0.3,0,0.5-0.1,0.7-0.2
				s0.4-0.3,0.5-0.6s0.3-0.6,0.3-0.9h1.9c-0.1,0.8-0.3,1.5-0.7,2.1c-0.3,0.6-0.7,1-1.2,1.3c-0.5,0.3-1,0.4-1.6,0.4
				C136,35.7,135.3,35.5,134.8,35.2z"/>
			<path class="st0" d="M141.8,24.6h1.8v11h-1.8V24.6z M142.5,24.6h5.8v2h-5.8V24.6z M142.5,29.1h5.1v2h-5.1V29.1z M142.5,33.6h5.8
				v2h-5.8V33.6z"/>
			<path class="st0" d="M150,24.6h1.8v11H150V24.6z M150.8,29.3h3.1c0.2,0,0.4-0.1,0.6-0.2c0.2-0.1,0.3-0.3,0.4-0.5
				c0.1-0.2,0.1-0.4,0.1-0.7c0-0.3,0-0.5-0.1-0.7c-0.1-0.2-0.2-0.4-0.4-0.5s-0.4-0.2-0.6-0.2h-3.1v-2h3c0.6,0,1.1,0.1,1.6,0.4
				c0.5,0.3,0.8,0.7,1.1,1.2c0.3,0.5,0.4,1.1,0.4,1.8s-0.1,1.3-0.4,1.8c-0.3,0.5-0.6,0.9-1.1,1.2c-0.5,0.3-1,0.4-1.6,0.4h-3V29.3z"
				/>
			<path class="st0" d="M158.4,24.6h1.8v11h-1.8V24.6z M159.2,33.6h3.1c0.4,0,0.7-0.1,1-0.3c0.2-0.2,0.3-0.5,0.3-1v0
				c0-0.3-0.1-0.5-0.2-0.7s-0.3-0.3-0.4-0.5c-0.2-0.1-0.4-0.2-0.7-0.2h-3.1v-2h3.1c0.4,0,0.7-0.1,0.9-0.3c0.2-0.2,0.3-0.5,0.3-0.9
				c0-0.4-0.1-0.6-0.3-0.8c-0.2-0.2-0.5-0.3-0.9-0.3h-3.1v-2h3.1c0.6,0,1.2,0.1,1.6,0.3c0.4,0.2,0.8,0.6,1,1c0.2,0.4,0.3,1,0.3,1.6
				c0,0.4-0.1,0.8-0.2,1.1c-0.1,0.3-0.4,0.6-0.6,0.8c-0.3,0.2-0.6,0.4-1,0.4c0.4,0.1,0.8,0.2,1.1,0.4c0.3,0.2,0.5,0.5,0.7,0.9
				c0.2,0.4,0.2,0.8,0.2,1.3v0c0,0.6-0.1,1.2-0.3,1.6c-0.2,0.5-0.6,0.8-1,1s-1,0.3-1.6,0.3h-3.3L159.2,33.6L159.2,33.6z"/>
			<path class="st0" d="M172.9,35.6v-8.8l0.2,0.2l-3.6,8.6h-2.2v-11h1.7v8.9l-0.2-0.2l3.7-8.7h2.2v11L172.9,35.6L172.9,35.6z"/>
			<path class="st0" d="M178.2,35.2c-0.5-0.3-0.9-0.8-1.2-1.4c-0.3-0.6-0.4-1.4-0.4-2.2v-3c0-0.9,0.1-1.6,0.4-2.2
				c0.3-0.6,0.7-1.1,1.2-1.4c0.5-0.3,1.1-0.5,1.9-0.5c0.6,0,1.1,0.1,1.6,0.4s0.9,0.7,1.2,1.3c0.3,0.6,0.5,1.3,0.6,2.1h-1.9
				c-0.1-0.4-0.2-0.7-0.3-0.9c-0.1-0.3-0.3-0.5-0.5-0.6s-0.4-0.2-0.7-0.2c-0.3,0-0.6,0.1-0.9,0.2c-0.2,0.2-0.4,0.4-0.5,0.7
				c-0.1,0.3-0.2,0.7-0.2,1.1v3c0,0.4,0.1,0.8,0.2,1.1c0.1,0.3,0.3,0.5,0.5,0.7c0.2,0.2,0.5,0.2,0.9,0.2c0.3,0,0.5-0.1,0.7-0.2
				s0.4-0.3,0.5-0.6c0.1-0.3,0.3-0.6,0.3-0.9h1.9c-0.1,0.8-0.3,1.5-0.7,2.1c-0.3,0.6-0.7,1-1.2,1.3c-0.5,0.3-1,0.4-1.6,0.4
				C179.3,35.7,178.7,35.5,178.2,35.2z"/>
			<path class="st0" d="M185.2,24.6h1.8v11h-1.8V24.6z M186,29.1h5.6v2H186V29.1z M190.5,24.6h1.8v11h-1.8V24.6z"/>
			<path class="st0" d="M194.4,24.6h1.8v11h-1.8V24.6z M195.3,33.6h2.7c0.2,0,0.4-0.1,0.6-0.2c0.2-0.1,0.3-0.3,0.4-0.5
				c0.1-0.2,0.1-0.5,0.1-0.7c0-0.3,0-0.5-0.1-0.7c-0.1-0.2-0.2-0.4-0.4-0.5c-0.2-0.1-0.4-0.2-0.6-0.2h-2.7v-2h2.6
				c0.6,0,1.1,0.1,1.6,0.4c0.5,0.3,0.8,0.7,1.1,1.2c0.3,0.5,0.4,1.1,0.4,1.8c0,0.7-0.1,1.3-0.4,1.8c-0.3,0.5-0.6,0.9-1.1,1.2
				c-0.5,0.3-1,0.4-1.6,0.4h-2.6L195.3,33.6L195.3,33.6z M203.8,35.6h-1.9v-11h1.9V35.6z"/>
			<path class="st0" d="M211.4,35.6v-8.8l0.2,0.2l-3.6,8.6h-2.2v-11h1.7v8.9l-0.2-0.2l3.7-8.7h2.2v11L211.4,35.6L211.4,35.6z
				 M211.6,21.3c0,0.8-0.2,1.4-0.6,1.9s-0.9,0.7-1.6,0.7h-0.1c-0.7,0-1.2-0.2-1.6-0.7c-0.4-0.4-0.6-1.1-0.6-1.9l1.5,0
				c0,0.3,0.1,0.6,0.2,0.8c0.1,0.2,0.3,0.3,0.5,0.3h0.1c0.2,0,0.4-0.1,0.5-0.3c0.1-0.2,0.2-0.4,0.2-0.8L211.6,21.3z"/>
			<path class="st0" d="M220.5,35.2c-0.5-0.3-0.9-0.8-1.2-1.4s-0.4-1.3-0.4-2.1v-3.1c0-0.8,0.1-1.5,0.4-2.1c0.3-0.6,0.7-1.1,1.2-1.4
				c0.5-0.3,1.1-0.5,1.9-0.5c0.7,0,1.3,0.2,1.9,0.5s0.9,0.8,1.2,1.4c0.3,0.6,0.4,1.3,0.4,2.1v3.1c0,0.8-0.1,1.5-0.4,2.1
				c-0.3,0.6-0.7,1.1-1.2,1.4c-0.5,0.3-1.1,0.5-1.9,0.5C221.6,35.7,221,35.5,220.5,35.2z M223.2,33.4c0.2-0.2,0.4-0.4,0.6-0.7
				c0.1-0.3,0.2-0.6,0.2-1v-3.2c0-0.4-0.1-0.7-0.2-1c-0.1-0.3-0.3-0.5-0.6-0.7c-0.2-0.2-0.5-0.2-0.9-0.2c-0.3,0-0.6,0.1-0.9,0.2
				c-0.3,0.2-0.4,0.4-0.6,0.7c-0.1,0.3-0.2,0.6-0.2,1v3.2c0,0.4,0.1,0.7,0.2,1c0.1,0.3,0.3,0.5,0.6,0.7c0.2,0.2,0.5,0.2,0.9,0.2
				C222.6,33.6,222.9,33.5,223.2,33.4z"/>
			<path class="st0" d="M226.4,24.6h7.1v2h-7.1V24.6z M229.1,25.5h1.8v10.1h-1.8V25.5z"/>
			<path class="st0" d="M233.9,33.6h8.2v2h-8.2V33.6z M233.9,33.6h1.8v4.3h-1.8V33.6z M233.9,33.6h0.2c0.4,0,0.7-0.2,0.9-0.6
				s0.3-1,0.3-1.8v-6.6h1.8v6.3c0,0.9-0.1,1.7-0.3,2.3s-0.5,1.1-1,1.5c-0.4,0.3-1,0.5-1.6,0.5h-0.3L233.9,33.6L233.9,33.6z
				 M236.4,24.6h4.2v2h-4.2V24.6z M239.8,24.6h1.8v11h-1.8V24.6z M240.9,33.6h1.8v4.3h-1.8V33.6z"/>
			<path class="st0" d="M244.2,24.6h1.8v11h-1.8V24.6z M244.9,24.6h5.8v2h-5.8V24.6z M244.9,29.1h5.1v2h-5.1V29.1z M244.9,33.6h5.8
				v2h-5.8V33.6z"/>
			<path class="st0" d="M252,33.6c0.3,0,0.6-0.1,0.8-0.3s0.4-0.5,0.5-0.8c0.1-0.4,0.2-0.8,0.2-1.3v-6.6h1.8v6.8
				c0,0.9-0.1,1.6-0.4,2.3c-0.3,0.6-0.6,1.1-1.1,1.4c-0.5,0.3-1.1,0.5-1.7,0.5H252V33.6z M254.5,24.6h4.4v2h-4.4V24.6z M258.2,24.6
				h1.8v11h-1.8V24.6z"/>
			<path class="st0" d="M133.4,43.2h2.2l3.6,8.4l-0.2,0.2v-8.6h1.7v11h-2.2l-3.6-8.3l0.2-0.2v8.5h-1.7V43.2z"/>
			<path class="st0" d="M143,53.7c-0.4-0.4-0.5-1-0.5-1.8c0-0.8,0.2-1.4,0.6-1.7s1-0.6,1.8-0.6h1.7l0.1,1.6h-1.8
				c-0.3,0-0.5,0.1-0.6,0.2c-0.1,0.1-0.2,0.3-0.2,0.6c0,0.3,0.1,0.4,0.3,0.6c0.2,0.1,0.4,0.2,0.8,0.2c0.5,0,0.9-0.1,1.1-0.2
				c0.2-0.1,0.4-0.3,0.4-0.6l0.1,1.1c0,0.3-0.1,0.5-0.3,0.7c-0.2,0.2-0.5,0.3-0.8,0.4c-0.3,0.1-0.6,0.1-1,0.1
				C143.9,54.3,143.4,54.1,143,53.7z M146.6,49.2c0-0.4-0.1-0.6-0.3-0.8c-0.2-0.2-0.5-0.3-0.9-0.3c-0.3,0-0.5,0-0.8,0.1
				c-0.3,0.1-0.5,0.2-0.7,0.4l-1.1-1.3c0.3-0.4,0.6-0.6,1.1-0.8c0.5-0.2,1-0.3,1.5-0.3c0.6,0,1.1,0.1,1.5,0.3c0.4,0.2,0.7,0.6,1,1
				c0.2,0.4,0.3,1,0.3,1.6v5h-1.7L146.6,49.2L146.6,49.2z"/>
			<path class="st0" d="M150.1,46.3h1.8v7.9h-1.8V46.3z M154,49.4c0-0.4-0.1-0.7-0.3-0.9c-0.2-0.2-0.5-0.3-0.8-0.3
				c-0.3,0-0.6,0.1-0.8,0.3c-0.2,0.2-0.3,0.5-0.3,0.9l-0.1-1.7c0.2-0.5,0.5-0.9,0.7-1.1c0.3-0.2,0.7-0.4,1.1-0.4
				c0.7,0,1.3,0.3,1.7,0.8c0.4,0.6,0.6,1.3,0.6,2.4v4.8H154V49.4L154,49.4z"/>
			<path class="st0" d="M158.8,53.9c-0.4-0.3-0.8-0.7-1-1.2s-0.3-1.1-0.3-1.9v-1.3c0-0.7,0.1-1.3,0.3-1.8c0.2-0.5,0.6-0.9,1-1.2
				c0.4-0.3,1-0.4,1.6-0.4c0.6,0,1.2,0.1,1.6,0.4c0.4,0.3,0.8,0.7,1,1.2c0.2,0.5,0.3,1.1,0.3,1.8v1.3c0,0.7-0.1,1.3-0.3,1.8
				c-0.2,0.5-0.6,0.9-1,1.2c-0.4,0.3-1,0.4-1.6,0.4C159.8,54.3,159.3,54.1,158.8,53.9z M161.3,51.9c0.2-0.2,0.3-0.6,0.3-1v-1.3
				c0-0.4-0.1-0.8-0.3-1c-0.2-0.2-0.5-0.4-0.9-0.4c-0.4,0-0.6,0.1-0.8,0.4c-0.2,0.2-0.3,0.6-0.3,1v1.3c0,0.4,0.1,0.8,0.3,1
				c0.2,0.2,0.5,0.4,0.9,0.4S161.1,52.2,161.3,51.9z"/>
			<path class="st0" d="M163.9,43.2h7.1v2h-7.1L163.9,43.2L163.9,43.2z M166.5,44.1h1.8v10.1h-1.8V44.1z"/>
			<path class="st0" d="M171.6,46.3h2v7.9h-2V46.3z M175.2,48.3c-0.1-0.1-0.3-0.1-0.4-0.1c-0.4,0-0.7,0.1-0.9,0.4
				c-0.2,0.3-0.3,0.6-0.3,1.1l-0.1-2c0.2-0.5,0.4-0.8,0.7-1.1c0.3-0.3,0.6-0.4,1-0.4c0.3,0,0.5,0.1,0.8,0.2c0.2,0.1,0.4,0.3,0.6,0.5
				l-1.1,1.7C175.4,48.4,175.3,48.3,175.2,48.3z"/>
			<path class="st0" d="M177.7,53.7c-0.4-0.4-0.5-1-0.5-1.8c0-0.8,0.2-1.4,0.6-1.7c0.4-0.4,1-0.6,1.8-0.6h1.7l0.1,1.6h-1.8
				c-0.3,0-0.5,0.1-0.6,0.2s-0.2,0.3-0.2,0.6c0,0.3,0.1,0.4,0.3,0.6c0.2,0.1,0.4,0.2,0.8,0.2c0.5,0,0.9-0.1,1.1-0.2
				c0.2-0.1,0.4-0.3,0.4-0.6l0.1,1.1c0,0.3-0.1,0.5-0.3,0.7c-0.2,0.2-0.5,0.3-0.8,0.4c-0.3,0.1-0.6,0.1-1,0.1
				C178.6,54.3,178,54.1,177.7,53.7z M181.2,49.2c0-0.4-0.1-0.6-0.3-0.8c-0.2-0.2-0.5-0.3-0.9-0.3c-0.3,0-0.5,0-0.8,0.1
				c-0.3,0.1-0.5,0.2-0.7,0.4l-1.1-1.3c0.3-0.4,0.6-0.6,1.1-0.8c0.5-0.2,1-0.3,1.5-0.3c0.6,0,1.1,0.1,1.5,0.3c0.4,0.2,0.7,0.6,1,1
				c0.2,0.4,0.3,1,0.3,1.6v5h-1.7L181.2,49.2L181.2,49.2z"/>
			<path class="st0" d="M186.1,54.2c-0.4-0.1-0.8-0.2-1.1-0.4c-0.3-0.2-0.6-0.4-0.9-0.6l1.1-1.6c0.3,0.2,0.7,0.4,1,0.6
				s0.7,0.2,1,0.2c0.4,0,0.8-0.1,1-0.2c0.2-0.1,0.4-0.3,0.4-0.5c0-0.2-0.1-0.3-0.2-0.4s-0.2-0.2-0.4-0.2c-0.2,0-0.4-0.1-0.7-0.1
				c-0.1,0-0.2,0-0.2,0c-0.1,0-0.2,0-0.3,0c0,0,0,0-0.1,0c0,0,0,0-0.1,0c-0.5-0.1-0.9-0.2-1.2-0.3s-0.6-0.3-0.8-0.6
				c-0.2-0.3-0.3-0.8-0.3-1.4c0-0.5,0.1-1,0.3-1.3c0.2-0.4,0.5-0.7,1-0.9s0.9-0.3,1.5-0.3c0.3,0,0.7,0,1,0.1c0.3,0.1,0.7,0.2,1,0.3
				s0.6,0.3,0.9,0.5l-1.1,1.5c-0.3-0.2-0.6-0.3-0.9-0.4s-0.6-0.2-0.9-0.2c-0.4,0-0.7,0-0.9,0.1s-0.3,0.2-0.3,0.4
				c0,0.1,0.1,0.2,0.2,0.3c0.1,0.1,0.2,0.1,0.4,0.2s0.4,0.1,0.7,0.1c0,0,0.1,0,0.1,0c0,0,0.1,0,0.1,0c0,0,0,0,0.1,0c0,0,0,0,0.1,0
				c0.5,0.1,1,0.2,1.3,0.3c0.3,0.1,0.6,0.3,0.9,0.7c0.2,0.3,0.4,0.8,0.4,1.5c0,0.5-0.1,1-0.3,1.4c-0.2,0.4-0.6,0.7-1,0.9
				c-0.4,0.2-1,0.3-1.6,0.3C186.9,54.3,186.5,54.2,186.1,54.2z"/>
			<path class="st0" d="M193,53.9c-0.5-0.3-0.8-0.7-1.1-1.2c-0.2-0.5-0.4-1.2-0.4-1.9v-0.9c0-0.8,0.1-1.4,0.4-2c0.2-0.5,0.6-1,1-1.3
				c0.5-0.3,1-0.4,1.6-0.4c0.6,0,1.1,0.2,1.5,0.5c0.4,0.3,0.8,0.8,1,1.5c0.2,0.7,0.3,1.4,0.3,2.4v0.5h-4.7v-1.4h3.1l0-0.2
				c-0.1-0.5-0.2-0.8-0.4-1.1c-0.2-0.2-0.5-0.4-0.8-0.4c-0.4,0-0.8,0.1-1,0.4c-0.2,0.3-0.4,0.7-0.4,1.3v1c0,0.5,0.1,0.9,0.4,1.2
				c0.3,0.3,0.6,0.4,1.1,0.4c0.2,0,0.5-0.1,0.7-0.1c0.2-0.1,0.5-0.2,0.7-0.4l1.2,1.2c-0.4,0.4-0.8,0.7-1.2,0.9
				c-0.4,0.2-0.9,0.3-1.4,0.3C194,54.3,193.5,54.1,193,53.9z"/>
			<path class="st0" d="M199,46.3h1.8v7.9H199V46.3z M203,49.4c0-0.4-0.1-0.7-0.3-0.9c-0.2-0.2-0.5-0.3-0.8-0.3
				c-0.3,0-0.6,0.1-0.8,0.3c-0.2,0.2-0.3,0.5-0.3,0.9l-0.1-1.7c0.2-0.5,0.5-0.9,0.7-1.1c0.3-0.2,0.7-0.4,1.1-0.4
				c0.7,0,1.3,0.3,1.7,0.8c0.4,0.6,0.6,1.3,0.6,2.4v4.8H203V49.4z"/>
		</g>
	</g>
	<path class="st0" d="M258.8,58.6H134.1c-0.4,0-0.6-0.3-0.6-0.6l0,0c0-0.4,0.3-0.6,0.6-0.6h124.8c0.4,0,0.6,0.3,0.6,0.6l0,0
		C259.5,58.3,259.2,58.6,258.8,58.6z"/>
</g>
</svg>
