<?xml version="1.0" encoding="UTF-8"?>
<svg xmlns="http://www.w3.org/2000/svg" version="1.1" viewBox="0 0 200 180">
  <defs>
    <style>
      .cls-1 {
        fill: #b24da6;
      }

      .cls-2 {
        fill: #a04d9a;
      }

      .cls-3 {
        fill: #c15dba;
      }
    </style>
  </defs>
  <!-- Generator: Adobe Illustrator 28.7.1, SVG Export Plug-In . SVG Version: 1.2.0 Build 142)  -->
  <g>
    <g id="_Слой_1" data-name="Слой_1">
      <g>
        <path class="cls-3" d="M36.2,92.9c14.8,16.8,36.2,42.3,63.8,75.8-2.2,2.7-4.5,5.4-6.8,8.2-.8,1-1.7,2-2.5,3.1-.8-1-1.7-2.1-2.5-3.1-30.9-37.6-54.6-65.9-70.6-84-1.8-2-6.9-7.7-10.8-16.8-2.1-4.9-14.8-34,1.4-57C18.6,4.4,37.2-2.7,54.7,1c-11,2.3-21.2,8.7-27.9,18.1-16.2,22.9-3.6,52-1.4,57,4,9.1,9,14.8,10.8,16.8Z"/>
        <path class="cls-3" d="M145.3,1c-2.9.6-5.8,1.6-8.7,2.8-18,8-24.9,25.7-27.3,34.5-1.3-4.9-4.1-12.6-9.3-19.7,4.2-5.8,10-11.2,18-14.8C126.8-.1,136.3-.9,145.3,1Z"/>
        <path class="cls-1" d="M174.6,76.1c-4,9.1-9,14.8-10.8,16.8-14.8,16.8-36.2,42.3-63.8,75.8-27.6-33.5-49-59-63.8-75.8-1.8-2-6.9-7.7-10.8-16.8-2.1-4.9-14.8-34,1.4-57C33.5,9.6,43.7,3.3,54.7,1c2.9.6,5.8,1.6,8.7,2.8,18,8,24.9,25.7,27.3,34.5,1.3-4.9,4.1-12.6,9.3-19.7,5.2,7.2,8,14.8,9.3,19.7,2.4-8.9,9.4-26.5,27.3-34.5,2.8-1.3,5.7-2.2,8.7-2.8,11,2.3,21.2,8.7,27.9,18.1,16.2,22.9,3.6,52,1.4,57Z"/>
        <path class="cls-2" d="M100,18.6c-5.2,7.2-8,14.8-9.3,19.7-2.4-8.9-9.4-26.5-27.3-34.5-2.8-1.3-5.7-2.2-8.7-2.8,9-1.9,18.5-1.1,27.3,2.8,8,3.6,13.8,9,18,14.8Z"/>
        <path class="cls-2" d="M193.3,76.1c-4,9.1-9,14.8-10.8,16.8-16,18.1-39.7,46.4-70.6,84-.8,1-1.7,2-2.5,3.1-.8-1-1.7-2.1-2.5-3.1-2.3-2.8-4.6-5.5-6.8-8.2,27.6-33.5,49-59,63.8-75.8,1.8-2,6.9-7.7,10.8-16.8,2.1-4.9,14.8-34-1.4-57-6.7-9.5-16.8-15.8-27.9-18.1,17.5-3.7,36.1,3.4,46.5,18.1,16.2,22.9,3.6,52,1.4,57Z"/>
      </g>
    </g>
  </g>
</svg>