<?xml version="1.0" encoding="utf-8"?>
<!-- Generator: Adobe Illustrator 27.8.1, SVG Export Plug-In . SVG Version: 6.00 Build 0)  -->
<svg version="1.1" id="Слой_1" xmlns="http://www.w3.org/2000/svg" xmlns:xlink="http://www.w3.org/1999/xlink" x="0px" y="0px"
	 viewBox="0 0 260 61.3" style="enable-background:new 0 0 260 61.3;" xml:space="preserve">
<style type="text/css">
	.st0{fill:#F2AC26;}
</style>
<path class="st0" d="M113.3,0H3.1C1.4,0,0,1.3,0,3v55.3c0,1.6,1.4,3,3.1,3h110.1c1.7,0,3.1-1.3,3.1-3V3C116.4,1.3,115,0,113.3,0z
	 M28.4,29.4L10.3,12.3h18.1V29.4z M80.2,49H66.8L49.6,30.1V49H36.2V12.3h13.4l17.2,18.9V12.3h13.4V49z M87.9,49V31.9L106,49H87.9z"
	/>
<g>
	<g>
		<g>
			<path class="st0" d="M126.4,7.4h1.4v8.7h-1.4V7.4z M126.9,7.4h4.4V9h-4.4V7.4z M127.1,14.5h2.4c0.2,0,0.3,0,0.5-0.1
				c0.1-0.1,0.2-0.2,0.3-0.4c0.1-0.2,0.1-0.4,0.1-0.6s0-0.4-0.1-0.6c-0.1-0.2-0.2-0.3-0.3-0.4c-0.1-0.1-0.3-0.1-0.5-0.1h-2.4v-1.6
				h2.4c0.5,0,0.9,0.1,1.3,0.3c0.4,0.2,0.6,0.5,0.8,0.9c0.2,0.4,0.3,0.9,0.3,1.4c0,0.5-0.1,1-0.3,1.4c-0.2,0.4-0.5,0.7-0.8,0.9
				c-0.4,0.2-0.8,0.3-1.3,0.3h-2.4L127.1,14.5L127.1,14.5z"/>
			<path class="st0" d="M133,14.5c0.3,0,0.5-0.1,0.6-0.2c0.2-0.1,0.3-0.4,0.4-0.6c0.1-0.3,0.1-0.6,0.1-1V7.4h1.4v5.4
				c0,0.7-0.1,1.3-0.3,1.8c-0.2,0.5-0.5,0.9-0.9,1.1c-0.4,0.3-0.8,0.4-1.4,0.4H133V14.5z M134.9,7.4h3.5V9h-3.5V7.4z M137.9,7.4h1.4
				v8.7h-1.4V7.4z"/>
			<path class="st0" d="M143.2,7.4h0.9l2.9,8.7h-1.5l-1.8-5.9l-1.8,5.9h-1.5L143.2,7.4z M141.7,13.1h4v1.6h-4V13.1z"/>
			<path class="st0" d="M148,7.4h1.4v8.7H148V7.4z M148.6,11h4.5v1.6h-4.5V11z M152.1,7.4h1.4v8.7h-1.4V7.4z"/>
			<path class="st0" d="M155.3,7.4h1.4v8.7h-1.4V7.4z M155.9,11h2.7v1.6h-2.7V11z M157.4,12.3l1.3-0.6l2.6,4.5h-1.8L157.4,12.3z
				 M157.4,11.3l2-3.9h1.7l-2.5,5L157.4,11.3z"/>
			<path class="st0" d="M164.7,14.5h6.5v1.6h-6.5V14.5z M164.7,14.5h1.4v3.4h-1.4V14.5z M164.7,14.5h0.1c0.3,0,0.6-0.2,0.7-0.5
				c0.2-0.3,0.3-0.8,0.3-1.4V7.4h1.4v5c0,0.7-0.1,1.3-0.3,1.8c-0.2,0.5-0.4,0.9-0.8,1.2c-0.3,0.3-0.8,0.4-1.3,0.4h-0.2V14.5z
				 M166.7,7.4h3.3V9h-3.3V7.4z M169.4,7.4h1.4v8.7h-1.4V7.4z M170.3,14.5h1.4v3.4h-1.4V14.5z"/>
			<path class="st0" d="M174.1,15.8c-0.4-0.3-0.7-0.6-1-1.1c-0.2-0.5-0.3-1-0.3-1.7v-2.5c0-0.6,0.1-1.2,0.3-1.7
				c0.2-0.5,0.6-0.9,1-1.1c0.4-0.3,0.9-0.4,1.5-0.4c0.6,0,1,0.1,1.5,0.4c0.4,0.3,0.7,0.6,1,1.1c0.2,0.5,0.3,1,0.3,1.7V13
				c0,0.6-0.1,1.2-0.3,1.7s-0.6,0.9-1,1.1c-0.4,0.3-0.9,0.4-1.5,0.4C175,16.2,174.5,16.1,174.1,15.8z M176.2,14.4
				c0.2-0.1,0.3-0.3,0.5-0.5c0.1-0.2,0.2-0.5,0.2-0.8v-2.5c0-0.3-0.1-0.6-0.2-0.8c-0.1-0.2-0.3-0.4-0.5-0.5C176,9,175.8,9,175.5,9
				c-0.3,0-0.5,0.1-0.7,0.2c-0.2,0.1-0.3,0.3-0.5,0.5c-0.1,0.2-0.2,0.5-0.2,0.8V13c0,0.3,0.1,0.6,0.2,0.8c0.1,0.2,0.3,0.4,0.5,0.5
				s0.4,0.2,0.7,0.2C175.8,14.6,176,14.5,176.2,14.4z"/>
			<path class="st0" d="M179.8,7.4h1.4v8.7h-1.4V7.4z M180.5,11h2.7v1.6h-2.7V11z M182,12.3l1.3-0.6l2.6,4.5h-1.8L182,12.3z
				 M182,11.3l2-3.9h1.7l-2.5,5L182,11.3z"/>
			<path class="st0" d="M186.1,7.4h1.5l2.2,6.2l-0.9,1.5L186.1,7.4z M190.2,14.3c-0.1,0.4-0.3,0.8-0.5,1c-0.2,0.3-0.4,0.5-0.6,0.6
				s-0.5,0.2-0.8,0.2h-0.9v-1.6h0.6c0.2,0,0.3,0,0.4-0.1c0.1-0.1,0.2-0.2,0.3-0.3s0.2-0.3,0.3-0.6l1.9-6.2h1.5L190.2,14.3z"/>
			<path class="st0" d="M198.1,7.4h1.9v8.7h-1.3V9.4l0.1,0.4l-1.5,5.4H196l-1.5-5.3l0.1-0.5v6.8h-1.3V7.4h1.9l1.5,5.9L198.1,7.4z"/>
			<path class="st0" d="M201.7,7.4h1.4v8.7h-1.4V7.4z M202.2,7.4h4.6V9h-4.6V7.4z M202.2,11h4v1.6h-4V11z M202.2,14.5h4.6v1.6h-4.6
				V14.5z"/>
			<path class="st0" d="M208.1,7.4h1.4v8.7h-1.4V7.4z M208.8,11h4.5v1.6h-4.5V11z M212.3,7.4h1.4v8.7h-1.4V7.4z"/>
			<path class="st0" d="M214.4,7.4h5.6V9h-5.6V7.4z M216.5,8.1h1.4v8h-1.4V8.1z"/>
			<path class="st0" d="M222.8,7.4h0.9l2.9,8.7h-1.5l-1.8-5.9l-1.8,5.9h-1.5L222.8,7.4z M221.3,13.1h4v1.6h-4V13.1z"/>
			<path class="st0" d="M132,33.7v-8.3l0.2,0.2l-3.5,8.2h-2.1V23.3h1.7v8.5l-0.2-0.2l3.5-8.3h2.1v10.4L132,33.7L132,33.7z"/>
			<path class="st0" d="M135.6,23.3h1.7v10.4h-1.7V23.3z M136.4,27.6h5.3v1.9h-5.3V27.6z M140.6,23.3h1.7v10.4h-1.7V23.3z"/>
			<path class="st0" d="M146.4,28.4l1.6,0.8l-2.4,4.6h-2.2L146.4,28.4z M143.8,23.3h2L148,28l-1.3,1.3L143.8,23.3z M146.5,27.6h6.1
				v1.9h-6.1V27.6z M148.7,23.3h1.7v10.4h-1.7V23.3z M151.2,29.2l1.6-0.8l3,5.3h-2.2L151.2,29.2z M151.2,28l2.2-4.7h2l-2.9,6
				L151.2,28z"/>
			<path class="st0" d="M156.8,23.3h1.7v10.4h-1.7V23.3z M157.4,23.3h5.5v1.9h-5.5V23.3z M157.4,27.6h4.8v1.9h-4.8V27.6z
				 M157.4,31.9h5.5v1.9h-5.5V31.9z"/>
			<path class="st0" d="M164.5,23.3h1.7v10.4h-1.7V23.3z M165.3,27.6h5.3v1.9h-5.3V27.6z M169.5,23.3h1.7v10.4h-1.7V23.3z"/>
			<path class="st0" d="M173.3,23.3h1.7v10.4h-1.7V23.3z M173.9,23.3h5.5v1.9h-5.5V23.3z M173.9,27.6h4.8v1.9h-4.8V27.6z
				 M173.9,31.9h5.5v1.9h-5.5V31.9z"/>
			<path class="st0" d="M181,23.3h1.7v10.4H181V23.3z M181.8,27.8h2.9c0.2,0,0.4-0.1,0.5-0.2c0.2-0.1,0.3-0.3,0.4-0.5
				c0.1-0.2,0.1-0.4,0.1-0.7c0-0.3,0-0.5-0.1-0.7c-0.1-0.2-0.2-0.3-0.4-0.5c-0.2-0.1-0.3-0.2-0.6-0.2h-2.9v-1.9h2.9
				c0.6,0,1.1,0.1,1.5,0.4c0.4,0.3,0.8,0.6,1,1.1c0.2,0.5,0.4,1,0.4,1.7s-0.1,1.2-0.4,1.7c-0.2,0.5-0.6,0.9-1,1.1
				c-0.4,0.3-0.9,0.4-1.5,0.4h-2.9L181.8,27.8L181.8,27.8z"/>
			<path class="st0" d="M189,23.3h1.7v10.4H189V23.3z M189.8,27.6h5.3v1.9h-5.3V27.6z M194,23.3h1.7v10.4H194V23.3z"/>
			<path class="st0" d="M197.8,23.3h1.7v10.4h-1.7V23.3z M198.6,31.9h2.5c0.2,0,0.4-0.1,0.5-0.2c0.2-0.1,0.3-0.3,0.4-0.5
				c0.1-0.2,0.1-0.4,0.1-0.7c0-0.3,0-0.5-0.1-0.7s-0.2-0.4-0.4-0.5c-0.2-0.1-0.3-0.2-0.6-0.2h-2.5v-1.9h2.5c0.6,0,1.1,0.1,1.5,0.4
				c0.4,0.3,0.8,0.6,1,1.1c0.2,0.5,0.4,1.1,0.4,1.7c0,0.6-0.1,1.2-0.4,1.7c-0.2,0.5-0.6,0.9-1,1.1c-0.4,0.3-0.9,0.4-1.5,0.4h-2.5
				L198.6,31.9L198.6,31.9z M206.7,33.8h-1.8V23.3h1.8V33.8z"/>
			<path class="st0" d="M213.9,33.7v-8.3l0.2,0.2l-3.5,8.2h-2.1V23.3h1.7v8.5l-0.2-0.2l3.5-8.3h2.1v10.4L213.9,33.7L213.9,33.7z
				 M214.1,20.2c0,0.8-0.2,1.4-0.6,1.8s-0.9,0.6-1.5,0.6h0c-0.7,0-1.2-0.2-1.5-0.6c-0.4-0.4-0.6-1-0.6-1.8l1.4,0
				c0,0.3,0.1,0.6,0.2,0.7c0.1,0.2,0.3,0.3,0.5,0.3h0c0.2,0,0.4-0.1,0.5-0.3c0.1-0.2,0.2-0.4,0.2-0.7L214.1,20.2z"/>
			<path class="st0" d="M222.5,33.4c-0.5-0.3-0.9-0.8-1.2-1.3c-0.3-0.6-0.4-1.3-0.4-2v-3c0-0.8,0.1-1.4,0.4-2s0.7-1,1.2-1.3
				c0.5-0.3,1.1-0.5,1.8-0.5c0.7,0,1.2,0.2,1.8,0.5s0.9,0.8,1.2,1.3c0.3,0.6,0.4,1.3,0.4,2v3c0,0.8-0.1,1.4-0.4,2
				c-0.3,0.6-0.7,1-1.2,1.3c-0.5,0.3-1.1,0.5-1.8,0.5C223.6,33.9,223,33.7,222.5,33.4z M225.1,31.7c0.2-0.2,0.4-0.4,0.5-0.6
				c0.1-0.3,0.2-0.6,0.2-1V27c0-0.4-0.1-0.7-0.2-1c-0.1-0.3-0.3-0.5-0.5-0.6s-0.5-0.2-0.8-0.2s-0.6,0.1-0.8,0.2
				c-0.2,0.2-0.4,0.4-0.5,0.6c-0.1,0.3-0.2,0.6-0.2,1v3.1c0,0.4,0.1,0.7,0.2,1c0.1,0.3,0.3,0.5,0.5,0.6c0.2,0.2,0.5,0.2,0.8,0.2
				S224.8,31.8,225.1,31.7z"/>
			<path class="st0" d="M228.2,23.3h6.7v1.9h-6.7V23.3z M230.6,24.2h1.7v9.6h-1.7V24.2z"/>
			<path class="st0" d="M235.2,31.9h7.8v1.9h-7.8V31.9z M235.2,31.9h1.7v4.1h-1.7V31.9z M235.2,31.9h0.2c0.4,0,0.7-0.2,0.9-0.6
				c0.2-0.4,0.3-1,0.3-1.7v-6.3h1.7v5.9c0,0.9-0.1,1.6-0.3,2.2c-0.2,0.6-0.5,1.1-0.9,1.4c-0.4,0.3-0.9,0.5-1.6,0.5h-0.3L235.2,31.9
				L235.2,31.9z M237.6,23.3h4v1.9h-4V23.3z M240.8,23.3h1.7v10.4h-1.7V23.3z M241.9,31.9h1.7v4.1h-1.7V31.9z"/>
			<path class="st0" d="M245,23.3h1.7v10.4H245V23.3z M245.7,23.3h5.5v1.9h-5.5V23.3z M245.7,27.6h4.8v1.9h-4.8V27.6z M245.7,31.9
				h5.5v1.9h-5.5V31.9z"/>
			<path class="st0" d="M252.4,31.9c0.3,0,0.6-0.1,0.8-0.3s0.4-0.4,0.5-0.8c0.1-0.3,0.2-0.8,0.2-1.2v-6.3h1.7v6.5
				c0,0.8-0.1,1.6-0.4,2.2c-0.2,0.6-0.6,1-1,1.4c-0.5,0.3-1,0.5-1.6,0.5h-0.1V31.9z M254.7,23.3h4.2v1.9h-4.2V23.3z M258.3,23.3h1.7
				v10.4h-1.7V23.3z"/>
			<path class="st0" d="M126.6,41h2.1l3.4,8l-0.2,0.2V41h1.7v10.4h-2.1l-3.4-7.9l0.2-0.2v8.1h-1.7V41z"/>
			<path class="st0" d="M135.7,50.9c-0.3-0.4-0.5-1-0.5-1.7c0-0.7,0.2-1.3,0.6-1.7s1-0.6,1.8-0.6h1.6l0.1,1.5h-1.7
				c-0.3,0-0.5,0.1-0.6,0.2c-0.1,0.1-0.2,0.3-0.2,0.5c0,0.2,0.1,0.4,0.2,0.5c0.2,0.1,0.4,0.2,0.7,0.2c0.5,0,0.8-0.1,1-0.2
				c0.2-0.1,0.3-0.3,0.3-0.6l0.1,1.1c0,0.3-0.1,0.5-0.3,0.7c-0.2,0.2-0.4,0.3-0.7,0.4c-0.3,0.1-0.6,0.1-0.9,0.1
				C136.6,51.5,136.1,51.3,135.7,50.9z M139.1,46.7c0-0.3-0.1-0.6-0.3-0.8c-0.2-0.2-0.5-0.3-0.9-0.3c-0.2,0-0.5,0-0.7,0.1
				s-0.5,0.2-0.6,0.4l-1.1-1.2c0.3-0.3,0.6-0.6,1-0.8c0.4-0.2,0.9-0.3,1.4-0.3c0.6,0,1.1,0.1,1.5,0.3c0.4,0.2,0.7,0.5,0.9,0.9
				c0.2,0.4,0.3,0.9,0.3,1.5v4.8h-1.6L139.1,46.7L139.1,46.7z"/>
			<path class="st0" d="M142.4,43.9h1.7v7.4h-1.7V43.9z M146.2,46.9c0-0.4-0.1-0.6-0.3-0.8c-0.2-0.2-0.4-0.3-0.8-0.3
				c-0.3,0-0.6,0.1-0.7,0.3c-0.2,0.2-0.3,0.5-0.3,0.9l-0.1-1.7c0.2-0.5,0.4-0.8,0.7-1.1c0.3-0.2,0.6-0.3,1-0.3
				c0.7,0,1.2,0.3,1.6,0.8c0.4,0.5,0.6,1.3,0.6,2.2v4.5h-1.7L146.2,46.9L146.2,46.9z"/>
			<path class="st0" d="M150.7,51.1c-0.4-0.3-0.7-0.6-1-1.1s-0.3-1.1-0.3-1.8V47c0-0.7,0.1-1.2,0.3-1.7c0.2-0.5,0.5-0.8,1-1.1
				c0.4-0.3,0.9-0.4,1.5-0.4c0.6,0,1.1,0.1,1.5,0.4c0.4,0.3,0.7,0.6,1,1.1c0.2,0.5,0.3,1.1,0.3,1.7v1.2c0,0.7-0.1,1.3-0.3,1.7
				c-0.2,0.5-0.5,0.8-1,1.1c-0.4,0.3-0.9,0.4-1.5,0.4C151.6,51.5,151.1,51.4,150.7,51.1z M153,49.3c0.2-0.2,0.3-0.6,0.3-1V47
				c0-0.4-0.1-0.7-0.3-1s-0.5-0.3-0.8-0.3c-0.3,0-0.6,0.1-0.8,0.3c-0.2,0.2-0.3,0.6-0.3,1v1.2c0,0.4,0.1,0.7,0.3,1
				c0.2,0.2,0.5,0.3,0.8,0.3C152.6,49.6,152.8,49.5,153,49.3z"/>
			<path class="st0" d="M155.5,41h6.7v1.9h-6.7L155.5,41L155.5,41z M158,41.8h1.7v9.6H158V41.8z"/>
			<path class="st0" d="M162.8,43.9h1.9v7.4h-1.9V43.9z M166.2,45.8c-0.1,0-0.3-0.1-0.4-0.1c-0.3,0-0.6,0.1-0.8,0.4
				c-0.2,0.3-0.3,0.6-0.3,1.1l-0.1-1.9c0.2-0.4,0.4-0.8,0.7-1c0.3-0.2,0.6-0.4,0.9-0.4c0.3,0,0.5,0,0.7,0.1c0.2,0.1,0.4,0.2,0.6,0.4
				l-1,1.6C166.4,45.9,166.3,45.9,166.2,45.8z"/>
			<path class="st0" d="M168.6,50.9c-0.3-0.4-0.5-1-0.5-1.7c0-0.7,0.2-1.3,0.6-1.7c0.4-0.4,1-0.6,1.8-0.6h1.6l0.1,1.5h-1.7
				c-0.3,0-0.5,0.1-0.6,0.2c-0.1,0.1-0.2,0.3-0.2,0.5c0,0.2,0.1,0.4,0.2,0.5c0.2,0.1,0.4,0.2,0.7,0.2c0.5,0,0.8-0.1,1-0.2
				c0.2-0.1,0.3-0.3,0.3-0.6l0.1,1.1c0,0.3-0.1,0.5-0.3,0.7c-0.2,0.2-0.4,0.3-0.7,0.4c-0.3,0.1-0.6,0.1-0.9,0.1
				C169.4,51.5,168.9,51.3,168.6,50.9z M172,46.7c0-0.3-0.1-0.6-0.3-0.8s-0.5-0.3-0.9-0.3c-0.2,0-0.5,0-0.7,0.1
				c-0.2,0.1-0.5,0.2-0.6,0.4l-1.1-1.2c0.3-0.3,0.6-0.6,1-0.8c0.4-0.2,0.9-0.3,1.4-0.3c0.6,0,1.1,0.1,1.5,0.3
				c0.4,0.2,0.7,0.5,0.9,0.9c0.2,0.4,0.3,0.9,0.3,1.5v4.8H172L172,46.7L172,46.7z"/>
			<path class="st0" d="M176.6,51.4c-0.4-0.1-0.7-0.2-1-0.3c-0.3-0.2-0.6-0.3-0.9-0.6l1.1-1.5c0.3,0.2,0.6,0.4,1,0.5
				c0.3,0.1,0.7,0.2,1,0.2c0.4,0,0.7,0,0.9-0.2s0.3-0.2,0.3-0.4c0-0.2,0-0.3-0.1-0.4c-0.1-0.1-0.2-0.1-0.4-0.2
				c-0.2,0-0.4-0.1-0.6-0.1c-0.1,0-0.2,0-0.2,0c-0.1,0-0.2,0-0.2,0c0,0,0,0-0.1,0c0,0,0,0-0.1,0c-0.5-0.1-0.9-0.2-1.2-0.3
				c-0.3-0.1-0.5-0.3-0.7-0.6c-0.2-0.3-0.3-0.7-0.3-1.3c0-0.5,0.1-0.9,0.3-1.3c0.2-0.4,0.5-0.6,0.9-0.8s0.9-0.3,1.5-0.3
				c0.3,0,0.7,0,1,0.1c0.3,0.1,0.6,0.2,0.9,0.3s0.6,0.3,0.8,0.5l-1,1.4c-0.3-0.2-0.6-0.3-0.9-0.4c-0.3-0.1-0.6-0.2-0.9-0.2
				c-0.3,0-0.6,0-0.8,0.1s-0.3,0.2-0.3,0.4c0,0.1,0,0.2,0.2,0.3c0.1,0.1,0.2,0.1,0.4,0.2c0.2,0,0.4,0.1,0.7,0.1c0,0,0.1,0,0.1,0
				c0,0,0.1,0,0.1,0c0,0,0,0,0.1,0c0,0,0,0,0.1,0c0.5,0.1,0.9,0.2,1.2,0.3c0.3,0.1,0.6,0.3,0.8,0.6s0.3,0.8,0.3,1.4
				c0,0.5-0.1,1-0.3,1.3c-0.2,0.4-0.5,0.6-1,0.8c-0.4,0.2-0.9,0.3-1.5,0.3C177.3,51.5,177,51.5,176.6,51.4z"/>
			<path class="st0" d="M183.1,51.1c-0.4-0.3-0.8-0.6-1-1.1c-0.2-0.5-0.4-1.1-0.4-1.8v-0.8c0-0.7,0.1-1.4,0.3-1.9
				c0.2-0.5,0.6-0.9,1-1.2c0.4-0.3,0.9-0.4,1.6-0.4c0.6,0,1.1,0.2,1.5,0.5c0.4,0.3,0.7,0.8,0.9,1.4c0.2,0.6,0.3,1.4,0.3,2.2v0.5
				h-4.5v-1.3h2.9l0-0.2c0-0.4-0.2-0.8-0.4-1s-0.4-0.3-0.8-0.3c-0.4,0-0.7,0.1-1,0.4c-0.2,0.3-0.3,0.7-0.3,1.2v0.9
				c0,0.5,0.1,0.9,0.4,1.2s0.6,0.4,1,0.4c0.2,0,0.5,0,0.7-0.1s0.4-0.2,0.6-0.4l1.1,1.1c-0.3,0.4-0.7,0.6-1.1,0.8
				c-0.4,0.2-0.9,0.3-1.3,0.3C184.1,51.5,183.6,51.4,183.1,51.1z"/>
			<path class="st0" d="M188.9,43.9h1.7v7.4h-1.7V43.9z M192.6,46.9c0-0.4-0.1-0.6-0.3-0.8c-0.2-0.2-0.4-0.3-0.8-0.3
				c-0.3,0-0.6,0.1-0.7,0.3c-0.2,0.2-0.3,0.5-0.3,0.9l-0.1-1.7c0.2-0.5,0.4-0.8,0.7-1.1c0.3-0.2,0.6-0.3,1-0.3
				c0.7,0,1.2,0.3,1.6,0.8c0.4,0.5,0.6,1.3,0.6,2.2v4.5h-1.7V46.9z"/>
		</g>
	</g>
	<path class="st0" d="M259.3,55.6H127.1c-0.3,0-0.6-0.3-0.6-0.6l0,0c0-0.3,0.3-0.6,0.6-0.6h132.2c0.3,0,0.6,0.3,0.6,0.6l0,0
		C260,55.3,259.7,55.6,259.3,55.6z"/>
</g>
</svg>
