<?xml version="1.0" encoding="UTF-8" standalone="no"?>
<svg
   width="35.0625"
   height="34"
   viewBox="0 0 35.0625 34"
   fill="none"
   version="1.1"
   id="svg4"
   sodipodi:docname="paper_stamp_border.svg"
   inkscape:version="1.2.2 (b0a8486541, 2022-12-01)"
   inkscape:export-filename="paper_stamp_border.svg.96dpi.png"
   inkscape:export-xdpi="96"
   inkscape:export-ydpi="96"
   xmlns:inkscape="http://www.inkscape.org/namespaces/inkscape"
   xmlns:sodipodi="http://sodipodi.sourceforge.net/DTD/sodipodi-0.dtd"
   xmlns="http://www.w3.org/2000/svg"
   xmlns:svg="http://www.w3.org/2000/svg"
   xmlns:rdf="http://www.w3.org/1999/02/22-rdf-syntax-ns#"
   xmlns:cc="http://creativecommons.org/ns#"
   xmlns:dc="http://purl.org/dc/elements/1.1/">
  <metadata
     id="metadata10">
    <rdf:RDF>
      <cc:Work
         rdf:about="">
        <dc:format>image/svg+xml</dc:format>
        <dc:type
           rdf:resource="http://purl.org/dc/dcmitype/StillImage" />
      </cc:Work>
    </rdf:RDF>
  </metadata>
  <defs
     id="defs8">
    <inkscape:path-effect
       effect="powerclip"
       id="path-effect302"
       is_visible="true"
       lpeversion="1"
       inverse="true"
       flatten="false"
       hide_clip="false"
       message="Use fill-rule evenodd on &lt;b&gt;fill and stroke&lt;/b&gt; dialog if no flatten result after convert clip to paths." />
    <clipPath
       clipPathUnits="userSpaceOnUse"
       id="clipPath298">
      <rect
         x="2.6084003"
         y="2.5943766"
         width="26.783199"
         height="26.811247"
         rx="4.1848745"
         fill="#ffffff"
         id="rect300"
         style="display:none;stroke-width:0.837413"
         d="M 6.7932749,2.5943766 H 25.206725 c 2.318421,0 4.184875,1.866454 4.184875,4.1848745 V 25.220749 c 0,2.31842 -1.866454,4.184874 -4.184875,4.184874 H 6.7932749 c -2.3184205,0 -4.1848746,-1.866454 -4.1848746,-4.184874 V 6.7792511 c 0,-2.3184205 1.8664541,-4.1848745 4.1848746,-4.1848745 z" />
      <path
         id="lpe_path-effect302"
         style="stroke-width:0.837413"
         class="powerclip"
         d="M -5,-5 H 37 V 37 H -5 Z M 6.7932749,2.5943766 c -2.3184205,0 -4.1848746,1.866454 -4.1848746,4.1848745 V 25.220749 c 0,2.31842 1.8664541,4.184874 4.1848746,4.184874 H 25.206725 c 2.318421,0 4.184875,-1.866454 4.184875,-4.184874 V 6.7792511 c 0,-2.3184205 -1.866454,-4.1848745 -4.184875,-4.1848745 z" />
    </clipPath>
  </defs>
  <sodipodi:namedview
     pagecolor="#ffffff"
     bordercolor="#666666"
     borderopacity="1"
     objecttolerance="10"
     gridtolerance="10"
     guidetolerance="10"
     inkscape:pageopacity="0"
     inkscape:pageshadow="2"
     inkscape:window-width="1916"
     inkscape:window-height="1034"
     id="namedview6"
     showgrid="false"
     fit-margin-top="0"
     fit-margin-left="0"
     fit-margin-right="0"
     fit-margin-bottom="0"
     inkscape:zoom="15.527471"
     inkscape:cx="6.7300077"
     inkscape:cy="17.16313"
     inkscape:window-x="0"
     inkscape:window-y="44"
     inkscape:window-maximized="0"
     inkscape:current-layer="svg4"
     inkscape:showpageshadow="2"
     inkscape:pagecheckerboard="true"
     inkscape:deskcolor="#d1d1d1" />
  <path
     x="0"
     y="0"
     width="32"
     height="32"
     rx="5"
     fill="#ffffff"
     id="rect2"
     clip-path="url(#clipPath298)"
     inkscape:path-effect="#path-effect302"
     d="m 5,0 h 22 c 2.77,0 5,2.23 5,5 v 22 c 0,2.77 -2.23,5 -5,5 H 5 C 2.23,32 0,29.77 0,27 V 5 C 0,2.23 2.23,0 5,0 Z"
     sodipodi:type="rect"
     transform="translate(1,1)" />
</svg>
