<?xml version="1.0" encoding="utf-8"?>
<!-- Generator: Adobe Illustrator 27.8.1, SVG Export Plug-In . SVG Version: 6.00 Build 0)  -->
<svg version="1.1" id="Слой_1" xmlns="http://www.w3.org/2000/svg" xmlns:xlink="http://www.w3.org/1999/xlink" x="0px" y="0px"
	 viewBox="0 0 320 68.8" style="enable-background:new 0 0 320 68.8;" xml:space="preserve">
<style type="text/css">
	.st0{fill:#D41216;}
	.st1{fill:#1D1D1B;}
	.st2{font-family:'ArialMT';}
	.st3{font-size:17.6704px;}
	.st4{font-family:'CourierNewPSMT';}
	.st5{font-family:'Impact';}
</style>
<g>
	<path class="st0" d="M127.8,4.9v60.7c0,1.8-1.5,3.2-3.4,3.2H3.4C1.5,68.9,0,67.4,0,65.7V4.9c0-1.8,1.5-3.2,3.4-3.2h121
		C126.3,1.7,127.8,3.1,127.8,4.9z"/>
	<polygon class="st1" points="16.4,52.6 28.6,52.6 16.4,63.4 8.3,63.4 8.3,6.2 16.4,6.2 28.6,16.2 16.4,16.2 	"/>
	<text transform="matrix(0.95 0 0 1 136.8447 15.7617)" class="st1 st2 st3">Бл̮̮̝а͆͌́нк̈̊ͭ д̣̣о̿͂̈́к͒̚у̹мента </text>
	<text transform="matrix(0.95 0 0 1 136.8447 36.9673)" class="st1 st4 st3">▓▓▓▓▓▓▓▓▓▓▓▓▓▓ </text>
	<text transform="matrix(0.95 0 0 1 136.8447 58.1733)" class="st1 st5 st3">Смерть </text>
	<text transform="matrix(0.95 0 0 1 193.8447 58.1733)" class="st1 st2 st3">N͖̺̘͙̱̞̠͆͂́̀̓̄̎Ặ̲̯̳̩̜͑̑͗͐͛N͖̺̘͙̱̞̠͆͂́̀̓̄̎OͯT̘̞̑ͨR͖͓̙̋͐̌AŠ͚̤̼̲̑͒ͬE̪͔̰͔̗͎̘ͦ̇ͣͭͨ̎̚N!̼̿!</text>
	<path class="st1" d="M289.8,67.5H137.5c-0.3,0-0.6-0.2-0.6-0.5l0,0c0-0.3,0.2-0.5,0.6-0.5h152.3c0.3,0,0.6,0.2,0.6,0.5l0,0
		C290.7,67.3,290.1,67.5,289.8,67.5z"/>
	<path class="st1" d="M81.9,55.9v1.4c0,2.8-1.9,5-4.6,5l-30.6-0.1l-5.1-11.6h24.1L43.3,20.4l0.1-0.1h-0.3v-6.7c0-2.8,1.8-5,4.3-5
		h28.4l4.9,11.6H57.1l23.8,32l0,0C81.5,53.1,81.9,54.4,81.9,55.9z"/>
	<polygon class="st1" points="113.3,17 101.1,17 113.3,6.2 121.4,6.2 121.4,63.4 113.3,63.4 101.1,53.1 113.3,53.1 	"/>
	<rect x="18.6" y="35.3" class="st1" width="34.2" height="1.8"/>
	<rect x="73" y="35.3" class="st1" width="38.4" height="1.8"/>
</g>
</svg>
