<?xml version="1.0" encoding="utf-8"?>
<!-- Generator: Adobe Illustrator 27.8.1, SVG Export Plug-In . SVG Version: 6.00 Build 0)  -->
<svg version="1.1" id="Слой_1" xmlns="http://www.w3.org/2000/svg" xmlns:xlink="http://www.w3.org/1999/xlink" x="0px" y="0px"
	 viewBox="0 0 320 61.9" style="enable-background:new 0 0 320 61.9;" xml:space="preserve">
<style type="text/css">
	.st0{fill:#D41216;}
	.st1{fill:#1D1D1B;}
	.st2{font-family:'Arial-BoldMT';}
	.st3{font-size:16.214px;}
</style>
<g>
	<path class="st0" d="M117.1,3.1v55.8c0,1.6-1.5,3-3.2,3H3.2c-1.7,0-3.2-1.4-3.2-3V3.1C0,1.4,1.4,0,3.2,0H114
		C115.7,0,117.1,1.4,117.1,3.1z"/>
	<polygon class="st1" points="15,46.6 26.1,46.6 15,56.5 7.8,56.5 7.8,4.2 15,4.2 26.1,13.3 15,13.3 	"/>
	<text transform="matrix(0.95 0 0 1 124.9409 16.7034)" class="st1 st2 st3">БЛАНК ДОКУМЕНТА </text>
	<text transform="matrix(0.95 0 0 1 124.9702 35.4929)" class="st1 st2 st3">ВЫСШЕЕ РУКОВОДСТВО</text>
	<text transform="matrix(0.95 0 0 1 125.4888 54.3269)" class="st1 st2 st3">Синдиката</text>
	<path class="st1" d="M75.2,49.7V51c0,2.7-1.8,4.6-4.3,4.6H43l-4.8-10.8h22.2L39.7,17.2l0.1-0.1h-0.2v-6.2c0-2.7,1.7-4.6,3.7-4.6h26
		l4.5,10.8H52.4l21.9,29.3l0,0C74.9,47.4,75.2,48.3,75.2,49.7z"/>
	<polygon class="st1" points="103.9,14.1 92.8,14.1 103.9,4.2 111.4,4.2 111.4,56.5 103.9,56.5 92.8,47.4 103.9,47.4 	"/>
	<rect x="17.1" y="30.8" class="st1" width="31.6" height="1.7"/>
	<rect x="66.9" y="30.8" class="st1" width="35.3" height="1.7"/>
</g>
</svg>
