<?xml version="1.0" encoding="utf-8"?>
<!-- Generator: Adobe Illustrator 28.0.0, SVG Export Plug-In . SVG Version: 6.00 Build 0)  -->
<svg version="1.1" id="Слой_1" xmlns="http://www.w3.org/2000/svg" xmlns:xlink="http://www.w3.org/1999/xlink" x="0px" y="0px"
	 viewBox="0 0 255.4 53.6" style="enable-background:new 0 0 255.4 53.6;" xml:space="preserve">
<style type="text/css">
	.st0{fill:#E30F1B;}
	.st1{fill:#FFED00;stroke:#E30F1B;stroke-width:3;stroke-miterlimit:10;}
	.st2{fill:#E30F1B;stroke:#E30F1B;stroke-miterlimit:10;}
	.st3{fill:#FFED00;stroke:#E30F1B;stroke-width:1.25;stroke-miterlimit:10;}
	.st4{fill:#FFED00;stroke:#E30F1B;stroke-width:0.75;stroke-miterlimit:10;}
	.st5{font-family:'Arial-BoldMT';}
	.st6{font-size:14.6155px;}
</style>
<path class="st0" d="M99.1,0H2.7C1.2,0,0,1.2,0,2.6V51c0,1.4,1.2,2.6,2.7,2.6H99c1.5,0,2.7-1.2,2.7-2.6V2.6
	C101.8,1.2,100.6,0,99.1,0z"/>
<circle class="st1" cx="50.9" cy="26.1" r="23.1"/>
<path class="st2" d="M53.1,7.6c2.2,0.7,4.7,1.7,7.2,3.4c4,2.7,6.5,6,7.9,8.5l0.6-0.5c-2.4-7-8.7-12.1-16.3-12.7L53.1,7.6z"/>
<path class="st3" d="M54.2,35.8c-24,8.7-44.8,11.6-46.6,6.6c-1.2-3.3,6.5-9.4,18.9-15.7l-0.1,3.9c-5,3-7.8,5.7-7.2,7.3
	c1.2,3.4,16.6,0.9,34.3-5.5s31.1-14.3,29.8-17.7c-0.6-1.7-4.8-1.9-11-0.9L69.8,11C83.3,8,93,7.8,94.2,11.1
	C96,16.1,78.1,27.2,54.2,35.8z"/>
<polygon class="st4" points="86.1,3 83.1,8.5 96.6,17.5 94.6,21.3 81,12.3 79.2,15.8 74.6,12.7 79,4.6 "/>
<path class="st4" d="M25.2,43.3c-2.6,1.8-5.8,2.2-8.7,1.3L12,51.4l-3.2-2.1l4.2-6.4l0,0c1,0.4,2.1,0.6,3.2,0.7
	c1.9,0,3.8-0.5,5.5-1.7c4-2.8,5-8.2,2.2-12c-2.6-3.6-7.6-4.5-11.6-2.2c0.2-0.2,0.5-0.4,0.7-0.5c4.4-3.1,10.7-2,14,2.5
	C30.5,34.1,29.6,40.2,25.2,43.3z"/>
<text transform="matrix(0.8812 0 0 1 107.0859 14.3335)" class="st0 st5 st6">БЛАНК ДОКУМЕНТА </text>
<text transform="matrix(0.8812 0 0 1 107.0859 31.8716)" class="st0 st5 st6">МЕДИЦИНСКИЙ ОТДЕЛ </text>
<text transform="matrix(0.8812 0 0 1 107.0859 49.4106)" class="st0 st5 st6">USSP</text>
</svg>
