<?xml version="1.0" encoding="UTF-8" standalone="no"?>
<svg
   width="115"
   height="72"
   viewBox="0 0 115 72"
   fill="none"
   version="1.1"
   id="svg4"
   sodipodi:docname="paper_heading_virus.svg"
   inkscape:version="1.2.2 (b0a8486541, 2022-12-01)"
   inkscape:export-filename="paper_heading_virus.svg.96dpi.png"
   inkscape:export-xdpi="96"
   inkscape:export-ydpi="96"
   xmlns:inkscape="http://www.inkscape.org/namespaces/inkscape"
   xmlns:sodipodi="http://sodipodi.sourceforge.net/DTD/sodipodi-0.dtd"
   xmlns="http://www.w3.org/2000/svg"
   xmlns:svg="http://www.w3.org/2000/svg"
   xmlns:rdf="http://www.w3.org/1999/02/22-rdf-syntax-ns#"
   xmlns:cc="http://creativecommons.org/ns#"
   xmlns:dc="http://purl.org/dc/elements/1.1/">
  <metadata
     id="metadata10">
    <rdf:RDF>
      <cc:Work
         rdf:about="">
        <dc:format>image/svg+xml</dc:format>
        <dc:type
           rdf:resource="http://purl.org/dc/dcmitype/StillImage" />
      </cc:Work>
    </rdf:RDF>
  </metadata>
  <defs
     id="defs8">
    <rect
       x="3"
       y="2"
       width="142.92"
       height="136.91501"
       id="rect1196" />
    <rect
       x="12.500253"
       y="14.598581"
       width="334.51892"
       height="47.488827"
       id="rect348" />
  </defs>
  <sodipodi:namedview
     pagecolor="#ffffff"
     bordercolor="#666666"
     borderopacity="1"
     objecttolerance="10"
     gridtolerance="10"
     guidetolerance="10"
     inkscape:pageopacity="0"
     inkscape:pageshadow="2"
     inkscape:window-width="1916"
     inkscape:window-height="1034"
     id="namedview6"
     showgrid="true"
     inkscape:snap-bbox="true"
     inkscape:bbox-paths="false"
     inkscape:bbox-nodes="true"
     inkscape:snap-object-midpoints="false"
     inkscape:snap-nodes="false"
     inkscape:snap-page="true"
     inkscape:zoom="1.9062837"
     inkscape:cx="147.14494"
     inkscape:cy="104.1293"
     inkscape:window-x="0"
     inkscape:window-y="44"
     inkscape:window-maximized="1"
     inkscape:current-layer="layer1"
     inkscape:showpageshadow="2"
     inkscape:pagecheckerboard="0"
     inkscape:deskcolor="#d1d1d1">
    <inkscape:grid
       type="xygrid"
       id="grid472"
       originx="0"
       originy="0" />
  </sodipodi:namedview>
  <g
     inkscape:groupmode="layer"
     id="layer1"
     inkscape:label="Decoration"
     style="display:inline">
    <g
       id="g1206"
       transform="matrix(5.8873975,-1.3221777,1.4995494,5.1910162,60.395318,-19.909491)"
       style="opacity:0.503157">
      <path
         style="fill:#2c4597;fill-opacity:1;stroke:none;stroke-width:1px;stroke-linecap:butt;stroke-linejoin:miter;stroke-opacity:1"
         d="m 7.7837679,5.8541227 -0.7320508,2.7320508 -5.1961524,2.9999995 -2.73205082,-0.73205 0.73205081,-2.7320511 5.19615241,-3 2.7320508,0.7320508"
         id="path474"
         sodipodi:nodetypes="ccccccc" />
      <circle
         style="fill:#2c4597;fill-opacity:1;stroke:none;stroke-width:1.418;stroke-linejoin:round"
         id="path1132"
         cx="8.9617033"
         cy="6.1861205"
         r="1"
         transform="rotate(60)" />
      <path
         style="fill:#2c4597;fill-opacity:1;stroke:none;stroke-width:1px;stroke-linecap:butt;stroke-linejoin:miter;stroke-opacity:1"
         d="m -0.87648612,10.854123 3.23205082,1.598076 -1.46410162,5.464102 -0.5,-0.866026 1.09807622,-4.098076 -3.2320508,-1.598076"
         id="path1134"
         sodipodi:nodetypes="cccccc" />
      <path
         style="fill:#2c4597;fill-opacity:1;stroke:none;stroke-width:1px;stroke-linecap:butt;stroke-linejoin:miter;stroke-opacity:1"
         d="m -0.87648612,10.854123 0.23205081,-3.5980765 -5.21410159,-1.0310889 0.5,0.8660254 3.8480762,0.6650635 -0.2320508,3.5980765"
         id="path1136"
         sodipodi:nodetypes="cccccc" />
      <path
         style="fill:#2c4597;fill-opacity:1;stroke:none;stroke-width:1px;stroke-linecap:butt;stroke-linejoin:miter;stroke-opacity:1"
         d="M -0.87648612,10.854123 -1.8764861,9.1220719 -4.6085369,8.3900211 l 0.5,0.8660254 1.3660254,0.3660254 1.0838622,1.7833241"
         id="path1138"
         sodipodi:nodetypes="cccccc"
         inkscape:transform-center-x="2.5645765"
         inkscape:transform-center-y="-1.5023443" />
      <path
         style="fill:#2c4597;fill-opacity:1;stroke:none;stroke-width:1px;stroke-linecap:butt;stroke-linejoin:miter;stroke-opacity:1"
         d="m -1.0544211,10.54593 0.99999998,1.732051 -0.7320508,2.732051 -0.49999998,-0.866026 0.36602538,-1.366025 -1.00247318,-1.830314"
         id="path1140"
         sodipodi:nodetypes="cccccc"
         inkscape:transform-center-x="-0.18926459"
         inkscape:transform-center-y="3.1099789" />
    </g>
    <path
       d="m 5.2873607,16.125208 v 4.295034 l -1.517667,2.899147 H 3.4025162 V 19.0512 L 4.9446617,16.125208 Z M 0.75883825,25.332686 4.741476e-6,24.500524 V 14.246131 H 0.90570926 l 0.22030634,0.26844 1.1504896,1.234822 v 5.449324 2.120672 0.375816 z M 11.358029,3.9380517 h 0.367177 V 8.2062413 L 10.18306,11.132232 H 9.8403616 V 6.8371992 Z M 2.2765052,11.508048 0.90570926,13.011309 H 4.741476e-6 V 2.7569175 L 0.75883825,1.9247548 2.2765052,3.5622363 v 0.3758154 2.1206727 z"
       style="font-size:21.3333px;line-height:1.25;font-family:'DSEG14 Classic Mini';-inkscape-font-specification:'DSEG14 Classic Mini';white-space:pre;fill:#000000;stroke-width:1.20159"
       id="path606" />
    <path
       d="m 28.664328,22.836198 v 0.483191 h -2.252022 v -5.046664 -1.234822 l 1.126011,-2.147517 1.126011,2.174361 v 1.207978 z M 21.541084,1.0389042 22.299917,0.20674166 H 32.776716 L 33.53555,1.0389042 32.042361,2.7032296 h -0.04896 -3.329076 -2.252021 -3.329076 -0.04896 z m 4.871222,2.8991475 h 2.252022 v 5.0466635 1.2348228 l -1.126011,2.17436 -1.126011,-2.120672 V 8.9847152 Z M 33.53555,26.218537 32.776716,27.050699 H 22.299917 l -0.758833,-0.832162 1.493188,-1.664326 h 0.04896 3.329077 2.252021 3.329076 0.04896 z"
       style="font-size:21.3333px;line-height:1.25;font-family:'DSEG14 Classic Mini';-inkscape-font-specification:'DSEG14 Classic Mini';white-space:pre;fill:#000000;stroke-width:1.20159"
       id="path608" />
    <path
       d="m 43.008729,14.863542 -1.126011,-1.234822 1.126011,-1.234822 h 2.545764 0.636441 l 0.66092,1.261667 -0.66092,1.207977 H 43.351428 Z M 41.515541,1.0389042 42.274374,0.20674166 h 10.476798 l 0.758833,0.83216254 -1.493188,1.6643254 h -0.04896 -3.329075 -2.252023 -3.329076 -0.04896 z m 8.273733,15.0863038 h 0.342698 l 1.542146,2.925992 v 4.268189 H 51.30694 L 49.789274,20.420242 Z M 40.70775,25.332686 39.948916,24.500524 V 14.246131 h 0.905704 l 0.220307,0.26844 1.15049,1.234822 v 5.449324 2.120672 0.375816 z M 54.317796,1.9247548 55.07663,2.7569175 V 13.011309 H 54.170924 L 52.800129,11.508048 V 10.756417 6.0587244 3.9380517 3.5890802 Z M 42.225417,11.508048 40.85462,13.011309 H 39.948916 V 2.7569175 l 0.758834,-0.8321627 1.517667,1.6374815 v 0.3758154 2.1206727 z m 9.7914,0.88585 1.126011,1.234822 -1.126011,1.234822 h -0.342699 -1.884844 -0.97914 l -0.66092,-1.207977 0.685398,-1.261667 h 0.636441 z"
       style="font-size:21.3333px;line-height:1.25;font-family:'DSEG14 Classic Mini';-inkscape-font-specification:'DSEG14 Classic Mini';white-space:pre;fill:#000000;stroke-width:1.20159"
       id="path610" />
    <path
       d="M 60.682203,25.332686 59.92337,24.500524 V 14.246131 h 0.905705 l 0.220306,0.26844 1.15049,1.234822 v 5.449324 2.120672 0.375816 z m 12.802256,0.885851 -0.758834,0.832162 H 62.248827 l -0.758833,-0.832162 1.493188,-1.664326 h 0.04896 3.329076 2.252022 3.329076 0.04896 z m -0.709877,-10.469144 1.370797,-1.503262 h 0.905704 V 24.500524 L 74.29225,25.332686 72.774582,23.695205 V 23.319389 21.198717 Z M 74.29225,1.9247548 75.051083,2.7569175 V 13.011309 H 74.145379 L 72.774582,11.508048 V 10.756417 6.0587244 3.9380517 3.5890802 Z M 62.199871,11.508048 60.829075,13.011309 H 59.92337 V 2.7569175 l 0.758833,-0.8321627 1.517668,1.6374815 v 0.3758154 2.1206727 z"
       style="font-size:21.3333px;line-height:1.25;font-family:'DSEG14 Classic Mini';-inkscape-font-specification:'DSEG14 Classic Mini';white-space:pre;fill:#000000;stroke-width:1.20159"
       id="path612" />
    <path
       d="m 82.95764,14.863542 -1.12601,-1.234822 1.12601,-1.234822 h 2.545765 0.63644 l 0.660921,1.261667 -0.660921,1.207977 H 83.30034 Z m 2.227544,-3.73131 H 84.842485 L 83.30034,8.2062413 V 3.9380517 h 0.367177 l 1.517667,2.8991475 z M 81.464452,1.0389042 82.223285,0.20674166 h 10.476799 l 0.758833,0.83216254 -1.493188,1.6643254 h -0.04896 -3.329076 -2.252022 -3.329076 -0.04896 z m 8.273732,15.0863038 h 0.3427 L 91.62303,19.0512 v 4.268189 h -0.367178 l -1.517668,-2.899147 z m 3.720733,10.093329 -0.758833,0.832162 H 82.223285 l -0.758833,-0.832162 1.493188,-1.664326 h 0.04896 3.329076 2.252021 3.329077 0.04896 z M 92.74904,15.749393 94.119836,14.246131 h 0.905705 V 24.500524 L 94.266708,25.332686 92.74904,23.695205 V 23.319389 21.198717 Z M 82.174329,11.508048 80.803532,13.011309 H 79.897828 V 2.7569175 l 0.758833,-0.8321627 1.517668,1.6374815 v 0.3758154 2.1206727 z m 9.7914,0.88585 1.126011,1.234822 -1.126011,1.234822 h -0.342699 -1.884846 -0.97914 l -0.660919,-1.207977 0.685399,-1.261667 h 0.636441 z"
       style="font-size:21.3333px;line-height:1.25;font-family:'DSEG14 Classic Mini';-inkscape-font-specification:'DSEG14 Classic Mini';white-space:pre;fill:#000000;stroke-width:1.20159"
       id="path614" />
    <path
       d="m 3.0598172,54.193291 -1.126011,-1.234822 1.126011,-1.234821 h 2.545764 0.6364409 l 0.6609194,1.261666 -0.6609194,1.207977 H 3.4025162 Z M 5.2873607,50.461982 H 4.9446617 L 3.4025162,47.53599 V 43.2678 h 0.3671775 l 1.517667,2.899149 z M 1.5666287,40.368653 2.3254622,39.536491 H 12.80226 l 0.758834,0.832162 -1.493189,1.664325 H 12.018944 8.6898676 6.4378451 3.1087696 3.0598121 Z M 9.8403616,55.454957 H 10.18306 l 1.542146,2.925992 v 4.26819 H 11.358029 L 9.8403616,59.74999 Z M 13.561094,65.548286 12.80226,66.380448 H 2.3254622 L 1.5666287,65.548286 3.0598172,63.88396 h 0.048957 3.3290751 2.2520225 3.3290762 0.04896 z M 12.851217,55.079142 14.222013,53.57588 h 0.905705 v 10.254393 l -0.758833,0.832162 -1.517668,-1.637481 V 62.649139 60.528466 Z M 2.2765052,50.837797 0.90570926,52.341058 H 4.741476e-6 V 42.086666 L 0.75883825,41.254504 2.2765052,42.891985 v 0.375815 2.120673 z m 9.7913998,0.885851 1.126011,1.234821 -1.126011,1.234822 H 11.725206 9.8403616 8.8612215 L 8.2003022,52.985314 8.8856997,51.723648 h 0.6364412 z"
       style="font-size:21.3333px;line-height:1.25;font-family:'DSEG14 Classic Mini';-inkscape-font-specification:'DSEG14 Classic Mini';white-space:pre;fill:#000000;stroke-width:1.20159"
       id="path618" />
    <path
       d="m 21.541084,40.368653 0.758833,-0.832162 h 10.476799 l 0.758834,0.832162 -1.493189,1.664325 h -0.04896 -3.329076 -2.252021 -3.329076 -0.04896 z m -0.80779,24.293782 -0.758833,-0.832162 V 53.57588 h 0.905704 l 0.220307,0.26844 1.150489,1.234822 v 5.449324 2.120673 0.375815 z m 12.802256,0.885851 -0.758834,0.832162 H 22.299917 l -0.758833,-0.832162 1.493188,-1.664326 h 0.04896 3.329077 2.252021 3.329076 0.04896 z M 22.250961,50.837797 20.880165,52.341058 H 19.974461 V 42.086666 l 0.758833,-0.832162 1.517667,1.637481 v 0.375815 2.120673 z"
       style="font-size:21.3333px;line-height:1.25;font-family:'DSEG14 Classic Mini';-inkscape-font-specification:'DSEG14 Classic Mini';white-space:pre;fill:#000000;stroke-width:1.20159"
       id="path620" />
    <path
       d="m 43.008729,54.193291 -1.126011,-1.234822 1.126011,-1.234821 h 2.545764 0.636441 l 0.66092,1.261666 -0.66092,1.207977 h -2.839506 z m -1.493188,-13.824638 0.758833,-0.832162 h 10.476798 l 0.758833,0.832162 -1.493188,1.664325 h -0.04896 -3.329075 -2.252023 -3.329076 -0.04896 z M 40.70775,64.662435 39.948916,63.830273 V 53.57588 h 0.905704 l 0.220307,0.26844 1.15049,1.234822 v 5.449324 2.120673 0.375815 z m 12.092379,-9.583293 1.370795,-1.503262 h 0.905706 v 10.254393 l -0.758834,0.832162 -1.517667,-1.637481 v -0.375815 -2.120673 z m 1.517667,-13.824638 0.758834,0.832162 V 52.341058 H 54.170924 L 52.800129,50.837797 V 50.086165 45.388473 43.2678 42.918829 Z M 42.225417,50.837797 40.85462,52.341058 H 39.948916 V 42.086666 l 0.758834,-0.832162 1.517667,1.637481 v 0.375815 2.120673 z m 9.7914,0.885851 1.126011,1.234821 -1.126011,1.234822 h -0.342699 -1.884844 -0.97914 l -0.66092,-1.207977 0.685398,-1.261666 h 0.636441 z"
       style="font-size:21.3333px;line-height:1.25;font-family:'DSEG14 Classic Mini';-inkscape-font-specification:'DSEG14 Classic Mini';white-space:pre;fill:#000000;stroke-width:1.20159"
       id="path622" />
    <path
       d="M 65.210725,50.461982 H 64.868027 L 63.325881,47.53599 V 43.2678 h 0.367178 l 1.517666,2.899149 z m 4.553002,4.992975 h 0.342698 l 1.542146,2.925992 v 4.26819 H 71.281394 L 69.763727,59.74999 Z M 60.682203,64.662435 59.92337,63.830273 V 53.57588 h 0.905705 l 0.220306,0.26844 1.15049,1.234822 v 5.449324 2.120673 0.375815 z m 12.092379,-9.583293 1.370797,-1.503262 h 0.905704 v 10.254393 l -0.758833,0.832162 -1.517668,-1.637481 v -0.375815 -2.120673 z m 1.517668,-13.824638 0.758833,0.832162 V 52.341058 H 74.145379 L 72.774582,50.837797 V 50.086165 45.388473 43.2678 42.918829 Z m -12.092379,9.583293 -1.370796,1.503261 H 59.92337 V 42.086666 l 0.758833,-0.832162 1.517668,1.637481 v 0.375815 2.120673 z"
       style="font-size:21.3333px;line-height:1.25;font-family:'DSEG14 Classic Mini';-inkscape-font-specification:'DSEG14 Classic Mini';white-space:pre;fill:#000000;stroke-width:1.20159"
       id="path624" />
    <path
       d="m 82.95764,54.193291 -1.12601,-1.234822 1.12601,-1.234821 h 2.545765 0.63644 l 0.660921,1.261666 -0.660921,1.207977 H 83.30034 Z m -1.493188,-13.824638 0.758833,-0.832162 h 10.476799 l 0.758833,0.832162 -1.493188,1.664325 h -0.04896 -3.329076 -2.252022 -3.329076 -0.04896 z m 11.994465,25.179633 -0.758833,0.832162 H 82.223285 L 81.464452,65.548286 82.95764,63.88396 h 0.04896 3.329076 2.252021 3.329077 0.04896 z M 92.74904,55.079142 94.119836,53.57588 h 0.905705 v 10.254393 l -0.758833,0.832162 -1.517668,-1.637481 v -0.375815 -2.120673 z m 1.517668,-13.824638 0.758833,0.832162 V 52.341058 H 94.119836 L 92.74904,50.837797 V 50.086165 45.388473 43.2678 42.918829 Z m -12.092379,9.583293 -1.370797,1.503261 H 79.897828 V 42.086666 l 0.758833,-0.832162 1.517668,1.637481 v 0.375815 2.120673 z m 9.7914,0.885851 1.126011,1.234821 -1.126011,1.234822 h -0.342699 -1.884846 -0.97914 l -0.660919,-1.207977 0.685399,-1.261666 h 0.636441 z"
       style="font-size:21.3333px;line-height:1.25;font-family:'DSEG14 Classic Mini';-inkscape-font-specification:'DSEG14 Classic Mini';white-space:pre;fill:#000000;stroke-width:1.20159"
       id="path626" />
    <path
       d="m 102.9321,54.193291 -1.12601,-1.234822 1.12601,-1.234821 h 2.54576 0.63644 l 0.66092,1.261666 -0.66092,1.207977 h -2.8395 z m -1.49319,-13.824638 0.75883,-0.832162 h 10.47681 l 0.75883,0.832162 -1.49319,1.664325 h -0.049 -3.32907 -2.25202 -3.32908 -0.049 z m 11.99447,25.179633 -0.75883,0.832162 h -10.47681 l -0.75883,-0.832162 1.49319,-1.664326 h 0.049 3.32908 2.25202 3.32907 0.049 z M 112.7235,55.079142 114.0943,53.57588 H 115 v 10.254393 l -0.75883,0.832162 -1.51767,-1.637481 V 62.649139 60.528466 Z M 114.24117,41.254504 115,42.086666 v 10.254392 h -0.9057 l -1.3708,-1.503261 V 50.086165 45.388473 43.2678 42.918829 Z m -12.09238,9.583293 -1.3708,1.503261 H 99.872286 V 42.086666 l 0.758834,-0.832162 1.51767,1.637481 v 0.375815 2.120673 z m 9.7914,0.885851 1.12601,1.234821 -1.12601,1.234822 h -0.3427 -1.88484 -0.97915 l -0.66092,-1.207977 0.6854,-1.261666 h 0.63644 z"
       style="font-size:21.3333px;line-height:1.25;font-family:'DSEG14 Classic Mini';-inkscape-font-specification:'DSEG14 Classic Mini';white-space:pre;fill:#000000;stroke-width:1.20159"
       id="path628" />
  </g>
  <g
     inkscape:groupmode="layer"
     id="layer2"
     inkscape:label="Text" />
</svg>
