<?xml version="1.0" encoding="utf-8"?>
<!-- Generator: Adobe Illustrator 27.8.1, SVG Export Plug-In . SVG Version: 6.00 Build 0)  -->
<svg version="1.1" id="Слой_1" xmlns="http://www.w3.org/2000/svg" xmlns:xlink="http://www.w3.org/1999/xlink" x="0px" y="0px"
	 viewBox="0 0 255.4 54.6" style="enable-background:new 0 0 255.4 54.6;" xml:space="preserve">
<style type="text/css">
	.st0{fill:#E30F1B;}
	.st1{fill:#FFED00;stroke:#E30F1B;stroke-width:3;stroke-miterlimit:10;}
	.st2{fill:#E30F1B;stroke:#E30F1B;stroke-miterlimit:10;}
	.st3{fill:#FFED00;stroke:#E30F1B;stroke-width:1.25;stroke-miterlimit:10;}
	.st4{fill:#FFED00;stroke:#E30F1B;stroke-width:0.75;stroke-miterlimit:10;}
	.st5{font-family:'Arial-BoldMT';}
	.st6{font-size:14.8994px;}
</style>
<path class="st0" d="M101,0H2.8C1.2,0,0,1.2,0,2.7V52c0,1.4,1.2,2.7,2.8,2.7h98.2c1.5,0,2.8-1.2,2.8-2.7V2.7
	C103.8,1.2,102.6,0,101,0z"/>
<circle class="st1" cx="51.9" cy="26.6" r="23.6"/>
<path class="st2" d="M54.1,7.8c2.2,0.7,4.8,1.7,7.3,3.5c4.1,2.8,6.6,6.1,8.1,8.7l0.6-0.5C67.7,12.2,61.3,7,53.5,6.4L54.1,7.8z"/>
<path class="st3" d="M55.2,36.5C30.8,45.4,9.6,48.3,7.8,43.2c-1.2-3.4,6.6-9.6,19.3-16l-0.1,4c-5.1,3.1-7.9,5.8-7.3,7.4
	c1.2,3.5,16.9,0.9,35-5.6s31.7-14.6,30.4-18c-0.6-1.7-4.9-1.9-11.2-0.9l-2.6-2.9C84.9,8.2,94.8,8,96,11.3
	C97.9,16.4,79.6,27.7,55.2,36.5z"/>
<polygon class="st4" points="87.8,3.1 84.7,8.7 98.5,17.8 96.4,21.7 82.6,12.5 80.7,16.1 76.1,12.9 80.5,4.7 "/>
<path class="st4" d="M25.7,44.1c-2.6,1.8-5.9,2.2-8.9,1.3l-4.6,6.9L9,50.3l4.3-6.5l0,0c1,0.4,2.1,0.6,3.3,0.7c1.9,0,3.9-0.5,5.6-1.7
	c4.1-2.8,5.1-8.4,2.2-12.2c-2.6-3.7-7.8-4.6-11.8-2.2c0.2-0.2,0.5-0.4,0.7-0.5c4.5-3.2,10.9-2,14.3,2.5C31.1,34.8,30.2,41,25.7,44.1
	z"/>
<text transform="matrix(0.8812 0 0 1 109.166 14.6123)" class="st0 st5 st6">БЛАНК ДОКУМЕНТА </text>
<text transform="matrix(0.8812 0 0 1 109.166 32.4883)" class="st0 st5 st6">ИНЖЕНЕРНЫЙ ОТДЕЛ </text>
<text transform="matrix(0.8812 0 0 1 109.166 50.3691)" class="st0 st5 st6">USSP</text>
</svg>
