<?xml version="1.0" encoding="utf-8"?>
<!-- Generator: Adobe Illustrator 27.8.1, SVG Export Plug-In . SVG Version: 6.00 Build 0)  -->
<svg version="1.1" id="Слой_1" xmlns="http://www.w3.org/2000/svg" xmlns:xlink="http://www.w3.org/1999/xlink" x="0px" y="0px"
	 viewBox="0 0 280 64.4" style="enable-background:new 0 0 280 64.4;" xml:space="preserve">
<style type="text/css">
	.st0{fill:#D98B71;}
</style>
<path class="st0" d="M119,0H3.3C1.5,0,0,1.4,0,3.1v58.2c0,1.7,1.5,3.1,3.3,3.1h115.8c1.8,0,3.3-1.4,3.3-3.1V3.1
	C122.3,1.4,120.8,0,119,0z M29.9,30.9l-19.1-18h19.1C29.9,12.9,29.9,30.9,29.9,30.9z M84.2,51.5h-14L52.1,31.7v19.9H38V12.9h14.1
	l18.1,19.9V12.9h14.1v38.6H84.2z M92.4,51.5v-18l19.1,18C111.5,51.5,92.4,51.5,92.4,51.5z"/>
<g>
	<g>
		<g>
			<path class="st0" d="M132.9,7.8h1.5v9.2h-1.5V7.8z M133.4,7.8h4.6v1.6h-4.6C133.4,9.4,133.4,7.8,133.4,7.8z M133.5,15.3h2.6
				c0.2,0,0.3,0,0.4-0.1s0.2-0.2,0.3-0.4s0.1-0.4,0.1-0.6s0-0.4-0.1-0.6c-0.1-0.2-0.2-0.3-0.3-0.4c-0.1-0.1-0.3-0.1-0.4-0.1h-2.6
				v-1.6h2.5c0.5,0,1,0.1,1.3,0.3c0.4,0.2,0.6,0.5,0.9,1s0.3,1,0.3,1.5s-0.1,1.1-0.3,1.5c-0.2,0.4-0.5,0.8-0.9,1
				c-0.4,0.2-0.9,0.3-1.3,0.3h-2.5V15.3L133.5,15.3z"/>
			<path class="st0" d="M139.7,15.3c0.2,0,0.5-0.1,0.6-0.2c0.2-0.1,0.3-0.4,0.4-0.6s0.1-0.6,0.1-1.1V7.8h1.5v5.6
				c0,0.8-0.1,1.4-0.3,1.9c-0.2,0.5-0.5,1-0.9,1.2c-0.4,0.3-0.9,0.4-1.4,0.4h-0.1L139.7,15.3L139.7,15.3z M141.8,7.8h3.7v1.6h-3.7
				V7.8z M144.8,7.8h1.5v9.2h-1.5V7.8z"/>
			<path class="st0" d="M150.4,7.8h1l3.1,9.2h-1.6l-1.9-6.2l-1.9,6.2h-1.6L150.4,7.8z M148.8,13.8h4.2v1.6h-4.2V13.8z"/>
			<path class="st0" d="M155.5,7.8h1.5v9.2h-1.5V7.8z M156.2,11.5h4.6v1.6h-4.6V11.5z M159.9,7.8h1.5v9.2h-1.5V7.8z"/>
			<path class="st0" d="M163.2,7.8h1.5v9.2h-1.5V7.8z M163.8,11.5h2.8v1.6h-2.8V11.5z M165.4,12.9l1.4-0.6l2.8,4.7h-1.9L165.4,12.9z
				 M165.4,12l2-4.1h1.7l-2.7,5.3L165.4,12z"/>
			<path class="st0" d="M173.1,15.3h6.9v1.6h-6.9V15.3z M173.1,15.3h1.5v3.6h-1.5V15.3z M173.2,15.3h0.1c0.3,0,0.5-0.2,0.8-0.5
				s0.3-0.9,0.3-1.5V7.8h1.5v5.2c0,0.8-0.1,1.4-0.3,1.9c-0.2,0.5-0.4,1-0.9,1.2c-0.3,0.3-0.9,0.4-1.4,0.4h-0.2v-1.2H173.2z
				 M175.2,7.8h3.4v1.6h-3.4V7.8z M178,7.8h1.5v9.2H178V7.8z M179,15.3h1.5v3.6H179V15.3z"/>
			<path class="st0" d="M183,16.6c-0.4-0.3-0.8-0.6-1.1-1.2c-0.2-0.5-0.3-1.1-0.3-1.7v-2.6c0-0.6,0.1-1.3,0.3-1.7
				c0.2-0.5,0.5-0.9,1.1-1.2c0.4-0.3,1-0.4,1.5-0.4c0.5,0,1.1,0.1,1.5,0.4c0.4,0.3,0.8,0.6,1.1,1.2c0.2,0.5,0.3,1.1,0.3,1.7v2.6
				c0,0.6-0.1,1.3-0.3,1.7c-0.2,0.4-0.5,0.9-1.1,1.2c-0.4,0.3-1,0.4-1.5,0.4C183.9,17,183.4,16.9,183,16.6z M185.2,15.1
				c0.2-0.1,0.3-0.3,0.4-0.5c0.1-0.2,0.2-0.5,0.2-0.9V11c0-0.3-0.1-0.6-0.2-0.9c-0.1-0.2-0.3-0.4-0.4-0.5c-0.2-0.1-0.4-0.2-0.8-0.2
				c-0.3,0-0.5,0.1-0.8,0.2c-0.2,0.1-0.3,0.3-0.4,0.5c-0.1,0.2-0.2,0.5-0.2,0.9v2.7c0,0.3,0.1,0.6,0.2,0.9s0.3,0.4,0.4,0.5
				s0.4,0.2,0.8,0.2C184.8,15.3,185,15.2,185.2,15.1z"/>
			<path class="st0" d="M189,7.8h1.5v9.2H189V7.8z M189.6,11.5h2.8v1.6h-2.8V11.5z M191.3,12.9l1.4-0.6l2.8,4.7h-1.9L191.3,12.9z
				 M191.3,12l2-4.1h1.7l-2.7,5.3L191.3,12z"/>
			<path class="st0" d="M195.6,7.8h1.6l2.4,6.6l-1,1.5L195.6,7.8z M199.9,15.1c-0.1,0.4-0.3,0.9-0.5,1.1c-0.2,0.3-0.4,0.5-0.6,0.6
				c-0.2,0.1-0.5,0.2-0.9,0.2h-1v-1.6h0.6c0.2,0,0.3,0,0.4-0.1c0.1-0.1,0.2-0.2,0.3-0.3c0.1-0.1,0.2-0.3,0.3-0.6l2-6.5h1.5
				L199.9,15.1z"/>
			<path class="st0" d="M208.2,7.8h2v9.2h-1.4V9.8l0.1,0.4l-1.5,5.7h-1.3l-1.5-5.6l0.1-0.5v7.1h-1.4V7.8h2l1.5,6.1L208.2,7.8z"/>
			<path class="st0" d="M211.9,7.8h1.5v9.2h-1.5V7.8z M212.5,7.8h4.8v1.6h-4.8V7.8z M212.5,11.5h4.2v1.6h-4.2V11.5z M212.5,15.3h4.8
				v1.6h-4.8V15.3z"/>
			<path class="st0" d="M218.7,7.8h1.5v9.2h-1.5V7.8z M219.5,11.5h4.6v1.6h-4.6V11.5z M223.1,7.8h1.5v9.2h-1.5V7.8z"/>
			<path class="st0" d="M225.3,7.8h5.9v1.6h-5.9V7.8z M227.4,8.5h1.5v8.4h-1.5V8.5z"/>
			<path class="st0" d="M234.1,7.8h1l3.1,9.2h-1.6l-1.9-6.2l-1.9,6.2h-1.6L234.1,7.8z M232.5,13.8h4.2v1.6h-4.2V13.8z"/>
			<path class="st0" d="M134.7,35.4h-1.8v-11h1.8V35.4z M133.6,29.1h3.8V31h-3.8V29.1z M138.1,35.1c-0.5-0.3-1-0.8-1.2-1.4
				c-0.3-0.6-0.4-1.3-0.4-2.2v-3.1c0-0.8,0.1-1.5,0.4-2.2s0.8-1.1,1.2-1.4c0.5-0.3,1.2-0.5,1.8-0.5s1.3,0.2,1.8,0.5
				c0.5,0.3,1,0.8,1.2,1.4c0.2,0.6,0.4,1.3,0.4,2.2v3.1c0,0.8-0.1,1.5-0.4,2.2c-0.3,0.6-0.8,1.1-1.2,1.4c-0.5,0.3-1.2,0.5-1.8,0.5
				S138.6,35.4,138.1,35.1z M140.9,33.3c0.2-0.1,0.4-0.4,0.5-0.6c0.1-0.3,0.2-0.6,0.2-1v-3.2c0-0.4-0.1-0.8-0.2-1
				c-0.1-0.3-0.3-0.5-0.5-0.6s-0.5-0.2-0.9-0.2s-0.6,0.1-0.9,0.2s-0.4,0.4-0.5,0.6c-0.1,0.3-0.2,0.6-0.2,1v3.2c0,0.4,0.1,0.8,0.2,1
				c0.1,0.3,0.3,0.5,0.5,0.6s0.5,0.2,0.9,0.2S140.5,33.4,140.9,33.3z"/>
			<path class="st0" d="M145.4,24.6h1.8v11h-1.8V24.6z M146.2,29.2h3.1c0.2,0,0.4-0.1,0.5-0.2c0.2-0.1,0.3-0.3,0.4-0.4
				c0.1-0.2,0.1-0.4,0.1-0.8c0-0.3,0-0.5-0.1-0.8s-0.2-0.3-0.4-0.4c-0.2-0.1-0.3-0.2-0.5-0.2h-3.1v-1.9h3c0.6,0,1.1,0.1,1.6,0.4
				c0.5,0.3,0.9,0.6,1.1,1.2c0.2,0.5,0.4,1.1,0.4,1.7s-0.1,1.3-0.4,1.7c-0.2,0.5-0.6,0.9-1.1,1.2c-0.4,0.3-1,0.4-1.6,0.4h-3V29.2z"
				/>
			<path class="st0" d="M159.5,35.4v-8.7l0.1,0.2l-3.7,8.6h-2.2v-11h1.7v8.8l-0.1-0.2l3.7-8.7h2.2v11L159.5,35.4L159.5,35.4z"/>
			<path class="st0" d="M162.8,33.5h8.2v1.9h-8.2V33.5z M162.8,33.5h1.7v4.3h-1.7V33.5z M162.9,33.5h0.1c0.4,0,0.8-0.2,1-0.6
				c0.2-0.4,0.3-1,0.3-1.7v-6.6h1.8v6.2c0,0.9-0.1,1.7-0.3,2.4c-0.2,0.6-0.5,1.1-1,1.4c-0.4,0.3-1,0.5-1.6,0.5h-0.3V33.5L162.9,33.5
				z M165.4,24.6h4.2v1.9h-4.2V24.6z M168.8,24.6h1.8v11h-1.8V24.6z M169.9,33.5h1.7v4.3h-1.7V33.5z"/>
			<path class="st0" d="M178.9,35.4v-8.7l0.1,0.2l-3.7,8.6h-2.2v-11h1.7v8.8l-0.1-0.2l3.7-8.7h2.2v11L178.9,35.4L178.9,35.4z"/>
			<path class="st0" d="M183.8,32c-0.4-0.3-0.8-0.8-1-1.3s-0.3-1.3-0.3-2v-4.1h1.8v4.1c0,0.5,0.1,1,0.3,1.3c0.2,0.3,0.5,0.4,1,0.4
				c0.5,0,1-0.2,1.3-0.5c0.3-0.3,0.4-0.8,0.4-1.4v-0.9h0.4v1.8c0,0.6-0.1,1.2-0.3,1.6s-0.4,0.8-0.9,1.1c-0.4,0.3-0.8,0.3-1.3,0.3
				C184.7,32.4,184.2,32.3,183.8,32z M187.3,24.6h1.8v11h-1.8V24.6z"/>
			<path class="st0" d="M191.3,24.6h1.8v11h-1.8V24.6z M191.9,24.6h5.8v1.9h-5.8V24.6z M191.9,29.1h5.1V31h-5.1V29.1z M191.9,33.5
				h5.8v1.9h-5.8V33.5z"/>
			<path class="st0" d="M200.7,35.1c-0.5-0.3-1-0.8-1.2-1.4c-0.3-0.6-0.4-1.4-0.4-2.3v-3c0-0.9,0.1-1.6,0.4-2.3
				c0.3-0.6,0.6-1.1,1.2-1.4c0.5-0.3,1.2-0.4,1.8-0.4c0.6,0,1.2,0.1,1.6,0.4c0.4,0.3,0.9,0.8,1.2,1.3c0.3,0.5,0.5,1.3,0.6,2h-1.8
				c-0.1-0.3-0.2-0.6-0.3-1c-0.1-0.2-0.3-0.4-0.5-0.5c-0.2-0.1-0.4-0.2-0.8-0.2c-0.3,0-0.6,0.1-0.9,0.2c-0.2,0.1-0.4,0.4-0.5,0.6
				c-0.1,0.3-0.2,0.6-0.2,1.1v3c0,0.4,0.1,0.8,0.2,1.1c0.1,0.3,0.3,0.5,0.5,0.6c0.2,0.1,0.5,0.2,0.9,0.2c0.2,0,0.5-0.1,0.8-0.2
				c0.2-0.1,0.4-0.3,0.5-0.5s0.2-0.5,0.3-1h1.8c-0.1,0.8-0.3,1.5-0.6,2c-0.3,0.5-0.8,1-1.2,1.3c-0.4,0.3-1,0.4-1.6,0.4
				C201.9,35.5,201.3,35.4,200.7,35.1z"/>
			<path class="st0" d="M207.7,24.6h1.8v11h-1.8V24.6z M208.5,29.1h3.4V31h-3.4V29.1z M210.4,30.7l1.6-0.8l3.3,5.6h-2.3L210.4,30.7z
				 M210.4,29.4l2.5-5h2l-3.2,6.4L210.4,29.4z"/>
			<path class="st0" d="M222.1,35.4v-8.7l0.1,0.2l-3.7,8.6h-2.2v-11h1.7v8.8l-0.1-0.2l3.7-8.7h2.2v11L222.1,35.4L222.1,35.4z"/>
			<path class="st0" d="M231.5,35.4v-8.7l0.1,0.2l-3.7,8.6h-2.2v-11h1.7v8.8l-0.1-0.2l3.7-8.7h2.2v11L231.5,35.4L231.5,35.4z
				 M231.8,21.2c0,0.8-0.2,1.4-0.5,1.8c-0.4,0.4-1,0.6-1.6,0.6l0,0c-0.8,0-1.3-0.2-1.6-0.6c-0.4-0.4-0.5-1.1-0.5-1.8h1.5
				c0,0.3,0.1,0.5,0.2,0.8c0.1,0.2,0.3,0.3,0.5,0.3l0,0c0.2,0,0.4-0.1,0.5-0.3c0.1-0.2,0.2-0.4,0.2-0.8H231.8z"/>
			<path class="st0" d="M240.6,35.1c-0.5-0.3-1-0.8-1.2-1.4c-0.3-0.6-0.4-1.3-0.4-2.2v-3.1c0-0.8,0.1-1.5,0.4-2.2s0.8-1.1,1.2-1.4
				c0.4-0.3,1.2-0.5,1.8-0.5c0.6,0,1.3,0.2,1.8,0.5c0.5,0.3,1,0.8,1.2,1.4c0.3,0.6,0.4,1.3,0.4,2.2v3.1c0,0.8-0.1,1.5-0.4,2.2
				c-0.3,0.6-0.8,1.1-1.2,1.4c-0.5,0.3-1.2,0.5-1.8,0.5S241.1,35.4,240.6,35.1z M243.3,33.3c0.2-0.1,0.4-0.4,0.5-0.6
				c0.1-0.3,0.2-0.6,0.2-1v-3.2c0-0.4-0.1-0.8-0.2-1c-0.1-0.3-0.3-0.5-0.5-0.6s-0.5-0.2-0.9-0.2s-0.6,0.1-0.9,0.2s-0.4,0.4-0.5,0.6
				c-0.1,0.3-0.2,0.6-0.2,1v3.2c0,0.4,0.1,0.8,0.2,1c0.1,0.3,0.3,0.5,0.5,0.6s0.5,0.2,0.9,0.2S243.1,33.4,243.3,33.3z"/>
			<path class="st0" d="M246.5,24.6h7.1v1.9h-7.1V24.6z M249.2,25.4h1.8v10h-1.8V25.4z"/>
			<path class="st0" d="M253.9,33.5h8.2v1.9h-8.2V33.5z M253.9,33.5h1.7v4.3h-1.7V33.5z M253.9,33.5h0.1c0.4,0,0.8-0.2,1-0.6
				c0.2-0.4,0.3-1,0.3-1.7v-6.6h1.8v6.2c0,0.9-0.1,1.7-0.3,2.4c-0.2,0.6-0.5,1.1-1,1.4s-1,0.5-1.6,0.5h-0.3V33.5L253.9,33.5z
				 M256.4,24.6h4.2v1.9h-4.2V24.6z M259.9,24.6h1.8v11h-1.8V24.6z M260.9,33.5h1.7v4.3h-1.7V33.5z"/>
			<path class="st0" d="M264.3,24.6h1.8v11h-1.8V24.6z M264.9,24.6h5.8v1.9h-5.8V24.6z M264.9,29.1h5.1V31h-5.1V29.1z M264.9,33.5
				h5.8v1.9h-5.8V33.5z"/>
			<path class="st0" d="M272,33.5c0.3,0,0.5-0.1,0.9-0.3c0.2-0.2,0.4-0.4,0.5-0.9c0.1-0.3,0.2-0.8,0.2-1.3v-6.6h1.8v6.8
				c0,0.9-0.1,1.6-0.3,2.3c-0.2,0.6-0.6,1.1-1.1,1.4c-0.4,0.3-1.1,0.5-1.7,0.5h-0.1v-1.9H272z M274.5,24.6h4.4v1.9h-4.4V24.6z
				 M278.2,24.6h1.8v11h-1.8V24.6z"/>
			<path class="st0" d="M133,43.1h2.3l3.6,8.4l-0.1,0.2v-8.6h1.7v11h-2.3l-3.6-8.3l0.1-0.2v8.5H133L133,43.1L133,43.1z"/>
			<path class="st0" d="M142.6,53.5c-0.3-0.4-0.5-1-0.5-1.8c0-0.8,0.2-1.4,0.6-1.7c0.4-0.3,1.1-0.5,1.8-0.5h1.7l0.1,1.6h-1.8
				c-0.3,0-0.4,0.1-0.6,0.2c-0.1,0.1-0.2,0.3-0.2,0.5s0.1,0.4,0.2,0.5c0.2,0.1,0.4,0.2,0.8,0.2c0.4,0,0.9-0.1,1.1-0.2
				c0.2-0.1,0.3-0.3,0.3-0.5l0.1,1.2c0,0.3-0.1,0.5-0.3,0.8c-0.2,0.2-0.4,0.3-0.8,0.4c-0.3,0.1-0.6,0.1-1,0.1
				C143.6,54.2,143,54,142.6,53.5z M146.1,49c0-0.3-0.1-0.6-0.3-0.9c-0.2-0.2-0.5-0.3-0.9-0.3c-0.2,0-0.5,0-0.8,0.1
				c-0.2,0.1-0.4,0.2-0.6,0.4l-1.1-1.3c0.3-0.3,0.6-0.6,1.1-0.9s1-0.3,1.5-0.3c0.6,0,1.1,0.1,1.5,0.3c0.4,0.2,0.8,0.5,1,1
				c0.2,0.4,0.3,1,0.3,1.6v5.1h-1.6L146.1,49L146.1,49z"/>
			<path class="st0" d="M149.6,46.2h1.8v7.9h-1.8V46.2z M153.6,49.2c0-0.4-0.1-0.6-0.3-0.9s-0.4-0.3-0.9-0.3c-0.3,0-0.5,0.1-0.8,0.3
				c-0.2,0.2-0.3,0.5-0.3,0.9l-0.1-1.7c0.2-0.5,0.4-0.9,0.8-1.1c0.3-0.2,0.6-0.3,1.1-0.3c0.8,0,1.3,0.3,1.7,0.9
				c0.4,0.5,0.6,1.3,0.6,2.4v4.7h-1.8V49.2L153.6,49.2z"/>
			<path class="st0" d="M158.4,53.7c-0.4-0.2-0.8-0.6-1-1.2c-0.2-0.5-0.3-1.1-0.3-1.8v-1.3c0-0.8,0.1-1.3,0.3-1.8
				c0.2-0.5,0.5-0.9,1-1.2c0.4-0.2,1-0.4,1.6-0.4s1.2,0.1,1.6,0.4c0.4,0.2,0.8,0.6,1,1.2c0.2,0.5,0.3,1.1,0.3,1.8v1.3
				c0,0.8-0.1,1.3-0.3,1.8c-0.2,0.5-0.5,0.9-1,1.2c-0.4,0.3-1,0.4-1.6,0.4C159.4,54.2,158.8,54,158.4,53.7z M160.8,51.8
				c0.2-0.2,0.3-0.5,0.3-1.1v-1.3c0-0.4-0.1-0.8-0.3-1s-0.5-0.3-0.9-0.3c-0.3,0-0.6,0.1-0.9,0.3s-0.3,0.5-0.3,1v1.3
				c0,0.4,0.1,0.8,0.3,1.1c0.2,0.2,0.4,0.3,0.9,0.3C160.4,52.1,160.6,52,160.8,51.8z"/>
			<path class="st0" d="M163.4,43.1h7.1V45h-7.1V43.1L163.4,43.1z M166.1,43.9h1.8v10h-1.8V43.9z"/>
			<path class="st0" d="M171.1,46.2h1.9v7.9h-1.9V46.2z M174.7,48.1c-0.1,0-0.3-0.1-0.4-0.1c-0.3,0-0.6,0.1-0.9,0.4
				c-0.2,0.3-0.3,0.6-0.3,1.1l-0.1-2c0.2-0.4,0.4-0.9,0.8-1.1c0.3-0.2,0.6-0.4,1-0.4s0.5,0,0.8,0.1c0.2,0.1,0.4,0.2,0.6,0.4
				l-1.1,1.7C174.9,48.2,174.8,48.1,174.7,48.1z"/>
			<path class="st0" d="M177.2,53.5c-0.3-0.4-0.5-1-0.5-1.8c0-0.8,0.2-1.4,0.6-1.7c0.4-0.4,1.1-0.5,1.8-0.5h1.7l0.1,1.6h-1.8
				c-0.3,0-0.4,0.1-0.6,0.2c-0.1,0.1-0.2,0.3-0.2,0.5s0.1,0.4,0.2,0.5c0.2,0.1,0.4,0.2,0.8,0.2c0.4,0,0.9-0.1,1.1-0.2
				c0.2-0.1,0.3-0.3,0.3-0.5l0.1,1.2c0,0.3-0.1,0.5-0.3,0.8s-0.4,0.3-0.8,0.4c-0.3,0.1-0.6,0.1-1,0.1C178,54.2,177.5,54,177.2,53.5z
				 M180.7,49c0-0.3-0.1-0.6-0.3-0.9s-0.5-0.3-0.9-0.3c-0.2,0-0.5,0-0.8,0.1c-0.2,0.1-0.4,0.2-0.6,0.4l-1.1-1.3
				c0.3-0.3,0.6-0.6,1.1-0.9c0.4-0.2,1-0.3,1.5-0.3c0.6,0,1.1,0.1,1.5,0.3c0.4,0.2,0.8,0.5,1,1s0.3,1,0.3,1.6v5.1h-1.6L180.7,49
				L180.7,49z"/>
			<path class="st0" d="M185.6,54c-0.4-0.1-0.8-0.2-1.1-0.3c-0.3-0.1-0.6-0.3-0.9-0.5l1.1-1.6c0.3,0.2,0.6,0.4,1.1,0.5
				c0.3,0.1,0.8,0.2,1.1,0.2c0.4,0,0.8,0,1-0.1c0.2-0.1,0.3-0.2,0.3-0.4s0-0.3-0.1-0.4c-0.1-0.1-0.2-0.1-0.4-0.2
				c-0.1,0-0.4-0.1-0.6-0.1c-0.1,0-0.1,0-0.2,0s-0.2,0-0.2,0s0,0-0.1,0c0,0,0,0-0.1,0c-0.5-0.1-1-0.2-1.2-0.3
				c-0.3-0.1-0.5-0.3-0.8-0.6c-0.2-0.3-0.3-0.8-0.3-1.4c0-0.5,0.1-1,0.3-1.3c0.2-0.3,0.5-0.6,1-0.9c0.4-0.2,1-0.3,1.5-0.3
				c0.3,0,0.6,0,1.1,0.1c0.3,0.1,0.6,0.2,1,0.3c0.3,0.1,0.6,0.3,0.9,0.5l-1.1,1.5c-0.3-0.2-0.6-0.3-1-0.4c-0.3-0.1-0.6-0.1-1-0.1
				s-0.6,0-0.9,0.1c-0.2,0.1-0.3,0.2-0.3,0.4c0,0.1,0,0.2,0.1,0.3c0.1,0.1,0.2,0.1,0.4,0.1c0.1,0,0.4,0.1,0.8,0.1h0.1h0.1
				c0,0,0,0,0.1,0c0,0,0,0,0.1,0c0.5,0.1,1,0.1,1.3,0.3c0.3,0.1,0.6,0.3,0.9,0.6c0.2,0.3,0.3,0.9,0.3,1.5c0,0.5-0.1,1-0.3,1.4
				c-0.2,0.4-0.5,0.6-1,0.9c-0.4,0.2-1,0.3-1.6,0.3C186.4,54.2,186,54.1,185.6,54z"/>
			<path class="st0" d="M192.4,53.7c-0.4-0.3-0.9-0.6-1.1-1.2c-0.2-0.5-0.3-1.2-0.3-1.9v-0.9c0-0.8,0.1-1.4,0.3-1.9
				c0.2-0.5,0.5-1,1.1-1.3c0.4-0.3,1-0.4,1.6-0.4s1.1,0.2,1.5,0.5c0.4,0.3,0.8,0.9,1,1.5c0.2,0.6,0.3,1.4,0.3,2.4V51h-4.7v-1.5h3
				v-0.2c0-0.4-0.2-0.8-0.3-1.1c-0.2-0.2-0.4-0.3-0.8-0.3c-0.4,0-0.8,0.1-1,0.4c-0.2,0.3-0.3,0.8-0.3,1.3v1c0,0.5,0.1,1,0.4,1.2
				c0.2,0.3,0.6,0.4,1.1,0.4c0.2,0,0.4,0,0.8-0.1c0.2-0.1,0.4-0.2,0.6-0.4l1.2,1.2c-0.3,0.3-0.8,0.6-1.2,0.9s-0.9,0.3-1.4,0.3
				C193.4,54.2,192.9,54,192.4,53.7z"/>
			<path class="st0" d="M198.5,46.2h1.8v7.9h-1.8V46.2z M202.5,49.2c0-0.4-0.1-0.6-0.3-0.9s-0.4-0.3-0.9-0.3c-0.3,0-0.5,0.1-0.8,0.3
				s-0.3,0.5-0.3,0.9l-0.1-1.7c0.2-0.5,0.4-0.9,0.8-1.1c0.3-0.2,0.6-0.3,1.1-0.3c0.8,0,1.3,0.3,1.7,0.9c0.4,0.5,0.6,1.3,0.6,2.4v4.7
				h-1.8V49.2z"/>
		</g>
	</g>
	<path class="st0" d="M278.9,58.5H133.5c-0.3,0-0.6-0.3-0.6-0.6l0,0c0-0.3,0.3-0.6,0.6-0.6h145.4c0.3,0,0.6,0.3,0.6,0.6l0,0
		C279.6,58.2,279.2,58.5,278.9,58.5z"/>
</g>
</svg>
