<?xml version="1.0" encoding="UTF-8" standalone="no"?>
<svg
   width="76"
   height="32"
   viewBox="0 0 76 32"
   fill="none"
   version="1.1"
   id="svg4"
   sodipodi:docname="paper_background_dotmatrix.svg"
   inkscape:version="1.2.2 (b0a8486541, 2022-12-01)"
   inkscape:export-filename="paper_background_dotmatrix.svg.96dpi.png"
   inkscape:export-xdpi="96"
   inkscape:export-ydpi="96"
   xmlns:inkscape="http://www.inkscape.org/namespaces/inkscape"
   xmlns:sodipodi="http://sodipodi.sourceforge.net/DTD/sodipodi-0.dtd"
   xmlns="http://www.w3.org/2000/svg"
   xmlns:svg="http://www.w3.org/2000/svg"
   xmlns:rdf="http://www.w3.org/1999/02/22-rdf-syntax-ns#"
   xmlns:cc="http://creativecommons.org/ns#"
   xmlns:dc="http://purl.org/dc/elements/1.1/">
  <metadata
     id="metadata10">
    <rdf:RDF>
      <cc:Work
         rdf:about="">
        <dc:format>image/svg+xml</dc:format>
        <dc:type
           rdf:resource="http://purl.org/dc/dcmitype/StillImage" />
      </cc:Work>
    </rdf:RDF>
  </metadata>
  <defs
     id="defs8">
    <filter
       id="mask-powermask-path-effect1163_inverse"
       inkscape:label="filtermask-powermask-path-effect1163"
       style="color-interpolation-filters:sRGB"
       height="100"
       width="100"
       x="-50"
       y="-50">
      <feColorMatrix
         id="mask-powermask-path-effect1163_primitive1"
         values="1"
         type="saturate"
         result="fbSourceGraphic" />
      <feColorMatrix
         id="mask-powermask-path-effect1163_primitive2"
         values="-1 0 0 0 1 0 -1 0 0 1 0 0 -1 0 1 0 0 0 1 0 "
         in="fbSourceGraphic" />
    </filter>
  </defs>
  <sodipodi:namedview
     pagecolor="#ffffff"
     bordercolor="#666666"
     borderopacity="1"
     objecttolerance="10"
     gridtolerance="10"
     guidetolerance="10"
     inkscape:pageopacity="0"
     inkscape:pageshadow="2"
     inkscape:window-width="1916"
     inkscape:window-height="1034"
     id="namedview6"
     showgrid="true"
     fit-margin-top="0"
     fit-margin-left="0"
     fit-margin-right="0"
     fit-margin-bottom="0"
     inkscape:zoom="13.923931"
     inkscape:cx="30.487079"
     inkscape:cy="12.460561"
     inkscape:window-x="0"
     inkscape:window-y="44"
     inkscape:window-maximized="0"
     inkscape:current-layer="svg4"
     inkscape:showpageshadow="2"
     inkscape:pagecheckerboard="0"
     inkscape:deskcolor="#d1d1d1">
    <inkscape:grid
       type="xygrid"
       id="grid233"
       originx="0"
       originy="0" />
  </sodipodi:namedview>
  <path
     id="rect1104"
     style="fill:#ffffff;fill-opacity:1;stroke-width:1.418;stroke-linejoin:round"
     d="M 0 0 L 0 32 L 76 32 L 76 0 L 0 0 z M 22 4 A 12 12 0 0 1 34 16 A 12 12 0 0 1 22 28 A 12 12 0 0 1 10 16 A 12 12 0 0 1 22 4 z M 54 4 A 12 12 0 0 1 66 16 A 12 12 0 0 1 54 28 A 12 12 0 0 1 42 16 A 12 12 0 0 1 54 4 z " />
  <rect
     style="fill:#ffffff;stroke-width:1.418;stroke-linejoin:round;fill-opacity:1"
     id="rect231"
     width="2"
     height="16"
     x="37"
     y="0" />
  <rect
     style="fill:#c6fbb6;stroke-width:1.418;stroke-linejoin:round;fill-opacity:0.30067122"
     id="rect339"
     width="2"
     height="16"
     x="37"
     y="16" />
</svg>
