<?xml version="1.0" encoding="UTF-8" standalone="no"?>
<!-- Created with Inkscape (http://www.inkscape.org/) -->

<svg
   version="1.1"
   id="svg1"
   width="132.64378"
   height="132.70377"
   viewBox="0 0 132.64378 132.70377"
   sodipodi:docname="paper_background_black.svg.96dpi.png"
   xmlns:inkscape="http://www.inkscape.org/namespaces/inkscape"
   xmlns:sodipodi="http://sodipodi.sourceforge.net/DTD/sodipodi-0.dtd"
   xmlns="http://www.w3.org/2000/svg"
   xmlns:svg="http://www.w3.org/2000/svg">
  <defs
     id="defs1" />
  <sodipodi:namedview
     id="namedview1"
     pagecolor="#505050"
     bordercolor="#ffffff"
     borderopacity="1"
     inkscape:showpageshadow="0"
     inkscape:pageopacity="0"
     inkscape:pagecheckerboard="1"
     inkscape:deskcolor="#505050" />
  <g
     inkscape:groupmode="layer"
     inkscape:label="Image"
     id="g1"
     transform="translate(-0.26516503,-0.09978785)">
    <path
       style="fill:#680f15;fill-opacity:1;stroke-width:0.176777"
       d="M 19.975767,129.8217 C 12.073325,128.91755 5.4946545,122.8736 3.9013757,115.05386 3.5368919,113.26499 3.5355339,113.08496 3.5355339,66.556426 c 0,-46.278831 0.00326,-46.717896 0.3598663,-48.467793 1.164139,-5.712528 4.7658132,-10.3899938 9.9815708,-12.9629874 2.14943,-1.0603394 3.960821,-1.5918328 6.363961,-1.867297 1.067146,-0.1223235 16.695149,-0.1621315 47.464542,-0.1209025 50.320406,0.067426 46.227436,-0.021343 49.409086,1.0716 6.31214,2.1683158 11.03502,7.7490449 12.20329,14.4198569 0.39082,2.23162 0.39082,93.623427 0,95.855047 -1.228,7.01189 -6.37477,12.73845 -13.23561,14.72665 -0.81748,0.23689 -2.24895,0.51575 -3.18104,0.61969 -2.07357,0.23121 -90.901247,0.223 -92.925433,-0.009 z"
       id="path2" />
    <path
       style="fill:#241d2d;fill-opacity:1;stroke-width:0.176777"
       d="M 15.733126,132.50195 C 8.3668776,130.91983 2.7780482,125.66094 0.74868312,118.40211 L 0.26516504,116.67262 V 66.556426 16.440233 L 0.65582989,14.976177 C 2.4308118,8.3242528 7.0830269,3.2682223 13.392559,1.1338913 16.728079,0.00558179 13.348904,0.06874101 67.351921,0.12535205 l 49.055529,0.0514246 1.72841,0.47717995 c 3.28911,0.9080605 6.47523,2.6836281 8.71647,4.8575442 2.83722,2.7519795 4.64754,5.9693452 5.68308,10.1001932 0.27292,1.088686 0.3011,5.016444 0.35663,49.707295 0.0435,35.004931 0.005,49.012411 -0.13761,50.273831 -0.47265,4.17646 -2.20035,7.92782 -5.11554,11.10742 -2.29706,2.5054 -5.81285,4.61424 -9.29104,5.57295 l -1.76362,0.48611 -49.674251,0.0327 c -47.495493,0.0312 -49.740157,0.0185 -51.176853,-0.29004 z m 99.790444,-3.05653 c 6.62076,-1.81815 11.53797,-6.61452 13.45706,-13.12635 l 0.46887,-1.591 0.17329,-24.08582 c 0.11321,-15.734243 0.11321,-32.437406 0,-48.171649 l -0.17329,-24.085825 -0.47344,-1.59099 C 127.12278,10.565949 122.78726,6.0452853 116.68081,3.9734849 115.06921,3.426699 114.86438,3.40122 110.93557,3.2588319 108.69484,3.1776231 87.441965,3.1072223 63.70696,3.1023859 25.836732,3.0946689 20.36348,3.1265386 19.009521,3.3626493 11.737037,4.6308642 6.0136313,9.8745811 4.0295173,17.08715 l -0.4055951,1.474403 v 47.994873 c 0,45.755264 0.014915,48.048494 0.3196277,49.143924 0.768455,2.76256 1.747421,4.79979 3.2906131,6.84776 3.034512,4.0271 7.733056,6.77291 12.476438,7.29117 0.680591,0.0744 22.119184,0.12539 47.64132,0.1134 l 46.403879,-0.0218 z"
       id="path3" />
  </g>
</svg>
