<?xml version="1.0" encoding="utf-8"?>
<!-- Generator: Adobe Illustrator 27.8.1, SVG Export Plug-In . SVG Version: 6.00 Build 0)  -->
<svg version="1.1" id="Слой_1" xmlns="http://www.w3.org/2000/svg" xmlns:xlink="http://www.w3.org/1999/xlink" x="0px" y="0px"
	 viewBox="0 0 260 69.6" style="enable-background:new 0 0 260 69.6;" xml:space="preserve">
<style type="text/css">
	.st0{fill:#2929CE;}
</style>
<path class="st0" d="M128.7,0H3.6C1.6,0,0,1.5,0,3.4v62.9c0,1.9,1.6,3.4,3.6,3.4h125.2c2,0,3.6-1.5,3.6-3.4V3.4
	C132.3,1.5,130.7,0,128.7,0z M32.3,33.4L11.8,13.9h20.6V33.4z M91.1,55.7H75.9L56.4,34.2v21.5H41.1V13.9h15.2l19.5,21.5V13.9h15.2
	V55.7z M99.9,55.7V36.2l20.6,19.5H99.9z"/>
<g>
	<g>
		<g>
			<path class="st0" d="M143.7,8.4h1.6v9.9h-1.6V8.4z M144.3,8.4h5v1.8h-5V8.4z M144.4,16.5h2.8c0.2,0,0.4,0,0.5-0.2
				s0.3-0.3,0.3-0.4c0.1-0.2,0.1-0.4,0.1-0.7s0-0.5-0.1-0.7c-0.1-0.2-0.2-0.3-0.3-0.4c-0.1-0.1-0.3-0.2-0.5-0.2h-2.8v-1.8h2.7
				c0.5,0,1,0.1,1.4,0.4c0.4,0.3,0.7,0.6,1,1.1c0.2,0.5,0.3,1,0.3,1.6c0,0.6-0.1,1.1-0.3,1.6c-0.2,0.5-0.5,0.8-1,1.1
				c-0.4,0.3-0.9,0.4-1.4,0.4h-2.7L144.4,16.5L144.4,16.5z"/>
			<path class="st0" d="M151.1,16.5c0.3,0,0.5-0.1,0.7-0.3c0.2-0.2,0.4-0.4,0.5-0.7c0.1-0.3,0.2-0.7,0.2-1.2V8.4h1.6v6.1
				c0,0.8-0.1,1.5-0.3,2c-0.2,0.6-0.5,1-1,1.3c-0.4,0.3-1,0.4-1.6,0.4h-0.1V16.5z M153.3,8.4h4v1.8h-4V8.4z M156.7,8.4h1.6v9.9h-1.6
				V8.4z"/>
			<path class="st0" d="M162.7,8.4h1l3.3,9.9h-1.8l-2.1-6.8l-2.1,6.8h-1.8L162.7,8.4z M161,14.9h4.6v1.8H161V14.9z"/>
			<path class="st0" d="M168.1,8.4h1.6v9.9h-1.6V8.4z M168.9,12.5h5.1v1.8h-5.1V12.5z M172.9,8.4h1.6v9.9h-1.6V8.4z"/>
			<path class="st0" d="M176.4,8.4h1.6v9.9h-1.6V8.4z M177.2,12.5h3.1v1.8h-3.1V12.5z M178.9,14l1.5-0.7l3,5.1h-2L178.9,14z
				 M178.9,12.9l2.2-4.5h1.9l-2.9,5.7L178.9,12.9z"/>
			<path class="st0" d="M187.2,16.5h7.4v1.8h-7.4V16.5z M187.2,16.5h1.6v3.8h-1.6V16.5z M187.2,16.5h0.1c0.4,0,0.6-0.2,0.8-0.6
				s0.3-0.9,0.3-1.6V8.4h1.6v5.6c0,0.8-0.1,1.5-0.3,2.1c-0.2,0.6-0.5,1-0.9,1.3c-0.4,0.3-0.9,0.4-1.5,0.4h-0.3V16.5z M189.4,8.4h3.8
				v1.8h-3.8V8.4z M192.5,8.4h1.6v9.9h-1.6V8.4z M193.5,16.5h1.6v3.8h-1.6V16.5z"/>
			<path class="st0" d="M197.8,18c-0.5-0.3-0.8-0.7-1.1-1.3c-0.3-0.5-0.4-1.2-0.4-1.9V12c0-0.7,0.1-1.4,0.4-1.9
				c0.3-0.5,0.6-1,1.1-1.3c0.5-0.3,1-0.5,1.7-0.5s1.2,0.2,1.7,0.5c0.5,0.3,0.8,0.7,1.1,1.3c0.3,0.5,0.4,1.2,0.4,1.9v2.8
				c0,0.7-0.1,1.4-0.4,1.9c-0.3,0.5-0.6,1-1.1,1.3c-0.5,0.3-1,0.5-1.7,0.5S198.3,18.3,197.8,18z M200.3,16.3
				c0.2-0.1,0.4-0.3,0.5-0.6c0.1-0.3,0.2-0.6,0.2-0.9v-2.9c0-0.3-0.1-0.6-0.2-0.9c-0.1-0.3-0.3-0.5-0.5-0.6
				c-0.2-0.1-0.5-0.2-0.8-0.2c-0.3,0-0.5,0.1-0.8,0.2c-0.2,0.1-0.4,0.3-0.5,0.6c-0.1,0.3-0.2,0.6-0.2,0.9v2.9c0,0.3,0.1,0.6,0.2,0.9
				c0.1,0.3,0.3,0.5,0.5,0.6c0.2,0.1,0.5,0.2,0.8,0.2C199.8,16.5,200,16.5,200.3,16.3z"/>
			<path class="st0" d="M204.4,8.4h1.6v9.9h-1.6V8.4z M205.1,12.5h3.1v1.8h-3.1V12.5z M206.8,14l1.5-0.7l3,5.1h-2L206.8,14z
				 M206.8,12.9l2.2-4.5h1.9l-2.9,5.7L206.8,12.9z"/>
			<path class="st0" d="M211.5,8.4h1.7l2.5,7.1l-1,1.6L211.5,8.4z M216.1,16.3c-0.2,0.5-0.3,0.9-0.5,1.2c-0.2,0.3-0.4,0.5-0.7,0.7
				c-0.3,0.2-0.6,0.2-0.9,0.2h-1v-1.8h0.7c0.2,0,0.3,0,0.5-0.1c0.1-0.1,0.3-0.2,0.4-0.4c0.1-0.2,0.2-0.4,0.3-0.7l2.2-7h1.7
				L216.1,16.3z"/>
			<path class="st0" d="M225.2,8.4h2.2v9.9h-1.5v-7.7l0.1,0.4l-1.7,6.1h-1.4l-1.7-6l0.1-0.6v7.7h-1.5V8.4h2.2l1.7,6.7L225.2,8.4z"/>
			<path class="st0" d="M229.2,8.4h1.6v9.9h-1.6V8.4z M229.8,8.4h5.2v1.8h-5.2V8.4z M229.8,12.5h4.6v1.8h-4.6V12.5z M229.8,16.5h5.2
				v1.8h-5.2V16.5z"/>
			<path class="st0" d="M236.5,8.4h1.6v9.9h-1.6V8.4z M237.3,12.5h5.1v1.8h-5.1V12.5z M241.3,8.4h1.6v9.9h-1.6V8.4z"/>
			<path class="st0" d="M243.6,8.4h6.4v1.8h-6.4V8.4z M246,9.2h1.6v9.1H246V9.2z"/>
			<path class="st0" d="M253.2,8.4h1l3.3,9.9h-1.8l-2.1-6.8l-2.1,6.8h-1.8L253.2,8.4z M251.5,14.9h4.6v1.8h-4.6V14.9z"/>
			<path class="st0" d="M143.9,26.5h2v11.9h-2V26.5z M144.7,31.4h3.7v2.2h-3.7V31.4z M146.8,33.1l1.8-0.9l3.6,6.1h-2.5L146.8,33.1z
				 M146.8,31.8l2.7-5.4h2.3l-3.5,6.8L146.8,31.8z"/>
			<path class="st0" d="M154.9,37.9c-0.6-0.4-1-0.9-1.3-1.5c-0.3-0.7-0.5-1.4-0.5-2.3v-3.4c0-0.9,0.2-1.6,0.5-2.3
				c0.3-0.7,0.8-1.2,1.3-1.5c0.6-0.4,1.2-0.5,2-0.5c0.8,0,1.4,0.2,2,0.5c0.6,0.4,1,0.9,1.3,1.5c0.3,0.7,0.5,1.4,0.5,2.3v3.4
				c0,0.9-0.2,1.6-0.5,2.3c-0.3,0.7-0.8,1.2-1.3,1.5c-0.6,0.4-1.2,0.5-2,0.5C156.1,38.5,155.4,38.3,154.9,37.9z M157.8,36
				c0.3-0.2,0.5-0.4,0.6-0.7c0.1-0.3,0.2-0.7,0.2-1.1v-3.5c0-0.4-0.1-0.8-0.2-1.1c-0.1-0.3-0.4-0.6-0.6-0.7
				c-0.3-0.2-0.6-0.3-0.9-0.3s-0.7,0.1-0.9,0.3s-0.5,0.4-0.6,0.7c-0.1,0.3-0.2,0.7-0.2,1.1v3.5c0,0.4,0.1,0.8,0.2,1.1
				c0.1,0.3,0.4,0.6,0.6,0.7s0.6,0.3,0.9,0.3S157.5,36.2,157.8,36z"/>
			<path class="st0" d="M169.3,26.5h2.6v11.9h-1.8v-9.2l0.1,0.5l-2,7.4h-1.7l-2-7.2l0.1-0.7v9.2h-1.8V26.5h2.6l2,8L169.3,26.5z"/>
			<path class="st0" d="M177.2,26.5h1.2l4,11.9h-2.1l-2.5-8.1l-2.5,8.1h-2.1L177.2,26.5z M175.1,34.3h5.5v2.2h-5.5V34.3L175.1,34.3z
				"/>
			<path class="st0" d="M183.7,26.5h2v11.9h-2V26.5z M184.6,31.4h6.1v2.2h-6.1V31.4z M189.4,26.5h2v11.9h-2V26.5z"/>
			<path class="st0" d="M193.1,36.2h8.9v2.2h-8.9V36.2z M193.1,36.2h1.9v4.6h-1.9V36.2z M193.2,36.2h0.2c0.4,0,0.8-0.2,1-0.7
				c0.2-0.5,0.4-1.1,0.4-1.9v-7.1h2v6.8c0,1-0.1,1.8-0.3,2.5c-0.2,0.7-0.6,1.2-1.1,1.6c-0.5,0.4-1.1,0.5-1.8,0.5h-0.3L193.2,36.2
				L193.2,36.2z M195.9,26.5h4.5v2.2h-4.5V26.5z M199.5,26.5h2v11.9h-2V26.5z M200.7,36.2h1.9v4.6h-1.9V36.2z"/>
			<path class="st0" d="M205.9,37.9c-0.6-0.4-1-0.9-1.3-1.5c-0.3-0.7-0.5-1.4-0.5-2.3v-3.4c0-0.9,0.2-1.6,0.5-2.3
				c0.3-0.7,0.8-1.2,1.3-1.5c0.6-0.4,1.2-0.5,2-0.5c0.8,0,1.4,0.2,2,0.5c0.6,0.4,1,0.9,1.3,1.5c0.3,0.7,0.5,1.4,0.5,2.3v3.4
				c0,0.9-0.2,1.6-0.5,2.3c-0.3,0.7-0.8,1.2-1.3,1.5s-1.2,0.5-2,0.5S206.5,38.3,205.9,37.9z M208.9,36c0.3-0.2,0.5-0.4,0.6-0.7
				c0.1-0.3,0.2-0.7,0.2-1.1v-3.5c0-0.4-0.1-0.8-0.2-1.1c-0.1-0.3-0.4-0.6-0.6-0.7c-0.3-0.2-0.6-0.3-0.9-0.3c-0.4,0-0.7,0.1-0.9,0.3
				s-0.5,0.4-0.6,0.7c-0.1,0.3-0.2,0.7-0.2,1.1v3.5c0,0.4,0.1,0.8,0.2,1.1c0.1,0.3,0.4,0.6,0.6,0.7s0.6,0.3,0.9,0.3
				C208.3,36.2,208.6,36.2,208.9,36z"/>
			<path class="st0" d="M213.8,26.5h2v11.9h-2V26.5z M214.7,36.2h3.3c0.5,0,0.8-0.1,1-0.4c0.3-0.2,0.4-0.6,0.4-1v0
				c0-0.3-0.1-0.6-0.2-0.8c-0.1-0.2-0.3-0.4-0.5-0.5c-0.2-0.1-0.5-0.2-0.8-0.2h-3.3v-2.2h3.3c0.4,0,0.7-0.1,0.9-0.3
				c0.2-0.2,0.3-0.6,0.3-1c0-0.4-0.1-0.7-0.3-0.9c-0.2-0.2-0.5-0.3-0.9-0.3h-3.3v-2.2h3.4c0.7,0,1.2,0.1,1.7,0.4
				c0.5,0.3,0.8,0.6,1.1,1.1c0.3,0.5,0.4,1.1,0.4,1.7c0,0.5-0.1,0.9-0.2,1.2c-0.2,0.4-0.4,0.6-0.7,0.9s-0.7,0.4-1.1,0.5
				c0.5,0.1,0.8,0.2,1.2,0.5c0.3,0.3,0.6,0.6,0.7,1c0.2,0.4,0.3,0.9,0.3,1.4v0c0,0.7-0.1,1.3-0.4,1.7c-0.3,0.5-0.6,0.8-1.1,1.1
				c-0.5,0.3-1.1,0.4-1.7,0.4h-3.5L214.7,36.2L214.7,36.2z"/>
			<path class="st0" d="M226.3,26.5h1.2l4,11.9h-2.1l-2.5-8.1l-2.5,8.1h-2.1L226.3,26.5z M224.2,34.3h5.5v2.2h-5.5V34.3z"/>
			<path class="st0" d="M232.8,26.5h2v11.9h-2V26.5z M233.7,31.4h6.1v2.2h-6.1V31.4z M238.5,26.5h2v11.9h-2V26.5z"/>
			<path class="st0" d="M248.8,38.4v-9.5l0.2,0.2l-3.9,9.3h-2.3V26.5h1.9v9.6l-0.2-0.2l3.9-9.4h2.3v11.9L248.8,38.4L248.8,38.4z"/>
			<path class="st0" d="M253,26.5h2v11.9h-2V26.5z M253.7,26.5h6.3v2.2h-6.3V26.5z M253.7,31.4h5.5v2.2h-5.5V31.4z M253.7,36.2h6.3
				v2.2h-6.3V36.2z"/>
			<path class="st0" d="M143.9,46.5h2.4l3.9,9.1l-0.2,0.2v-9.3h1.9v11.9h-2.4l-3.9-9l0.2-0.2v9.2h-1.9V46.5z"/>
			<path class="st0" d="M154.2,57.9c-0.4-0.4-0.6-1.1-0.6-2c0-0.8,0.2-1.5,0.7-1.9c0.4-0.4,1.1-0.6,2-0.6h1.9l0.1,1.7h-2
				c-0.3,0-0.5,0.1-0.7,0.2c-0.2,0.1-0.2,0.3-0.2,0.6c0,0.3,0.1,0.5,0.3,0.6c0.2,0.1,0.5,0.2,0.8,0.2c0.5,0,0.9-0.1,1.2-0.2
				c0.3-0.1,0.4-0.3,0.4-0.6l0.2,1.2c0,0.3-0.2,0.6-0.4,0.8s-0.5,0.4-0.8,0.5c-0.3,0.1-0.7,0.2-1,0.2
				C155.2,58.5,154.6,58.3,154.2,57.9z M158.1,53c0-0.4-0.1-0.7-0.3-0.9c-0.2-0.2-0.6-0.3-1-0.3c-0.3,0-0.5,0-0.8,0.2
				c-0.3,0.1-0.5,0.3-0.7,0.4L154,51c0.3-0.4,0.7-0.7,1.2-0.9s1-0.3,1.6-0.3c0.6,0,1.2,0.1,1.7,0.4c0.5,0.3,0.8,0.6,1.1,1.1
				c0.2,0.5,0.4,1,0.4,1.7v5.4h-1.8L158.1,53L158.1,53z"/>
			<path class="st0" d="M161.8,49.9h2v8.5h-2V49.9z M166.1,53.3c0-0.4-0.1-0.7-0.3-1c-0.2-0.2-0.5-0.3-0.9-0.3
				c-0.4,0-0.6,0.1-0.8,0.3c-0.2,0.2-0.3,0.6-0.3,1l-0.2-1.9c0.2-0.5,0.5-0.9,0.8-1.2c0.3-0.3,0.7-0.4,1.2-0.4
				c0.8,0,1.4,0.3,1.8,0.9s0.6,1.4,0.6,2.5v5.1h-2V53.3L166.1,53.3z"/>
			<path class="st0" d="M171.3,58.1c-0.5-0.3-0.8-0.7-1.1-1.3s-0.4-1.2-0.4-2v-1.4c0-0.8,0.1-1.4,0.4-2c0.3-0.5,0.6-1,1.1-1.2
				c0.5-0.3,1.1-0.4,1.7-0.4c0.7,0,1.3,0.1,1.7,0.4c0.5,0.3,0.8,0.7,1.1,1.2c0.3,0.5,0.4,1.2,0.4,2v1.4c0,0.8-0.1,1.4-0.4,2
				c-0.3,0.5-0.6,1-1.1,1.3s-1.1,0.4-1.7,0.4C172.3,58.5,171.7,58.4,171.3,58.1z M173.9,56c0.2-0.3,0.3-0.6,0.3-1.1v-1.4
				c0-0.5-0.1-0.8-0.3-1.1c-0.2-0.3-0.5-0.4-0.9-0.4c-0.4,0-0.7,0.1-0.9,0.4c-0.2,0.3-0.3,0.6-0.3,1.1v1.4c0,0.5,0.1,0.8,0.3,1.1
				c0.2,0.3,0.5,0.4,0.9,0.4C173.4,56.4,173.7,56.2,173.9,56z"/>
			<path class="st0" d="M176.7,46.5h7.6v2.2h-7.6L176.7,46.5L176.7,46.5z M179.5,47.5h2v10.9h-2V47.5z"/>
			<path class="st0" d="M185.1,49.9h2.1v8.5h-2.1V49.9z M188.9,52.1c-0.1-0.1-0.3-0.1-0.5-0.1c-0.4,0-0.7,0.1-0.9,0.4
				c-0.2,0.3-0.3,0.7-0.3,1.2l-0.2-2.2c0.2-0.5,0.5-0.9,0.8-1.2c0.3-0.3,0.7-0.4,1.1-0.4c0.3,0,0.6,0.1,0.8,0.2s0.5,0.3,0.7,0.5
				l-1.1,1.8C189.1,52.2,189,52.1,188.9,52.1z"/>
			<path class="st0" d="M191.6,57.9c-0.4-0.4-0.6-1.1-0.6-2c0-0.8,0.2-1.5,0.7-1.9c0.4-0.4,1.1-0.6,2-0.6h1.9l0.1,1.7h-2
				c-0.3,0-0.5,0.1-0.7,0.2c-0.2,0.1-0.2,0.3-0.2,0.6c0,0.3,0.1,0.5,0.3,0.6c0.2,0.1,0.5,0.2,0.8,0.2c0.5,0,0.9-0.1,1.2-0.2
				c0.3-0.1,0.4-0.3,0.4-0.6l0.2,1.2c0,0.3-0.2,0.6-0.4,0.8c-0.2,0.2-0.5,0.4-0.8,0.5c-0.3,0.1-0.7,0.2-1,0.2
				C192.5,58.5,191.9,58.3,191.6,57.9z M195.4,53c0-0.4-0.1-0.7-0.3-0.9c-0.2-0.2-0.6-0.3-1-0.3c-0.3,0-0.5,0-0.8,0.2
				c-0.3,0.1-0.5,0.3-0.7,0.4l-1.2-1.4c0.3-0.4,0.7-0.7,1.2-0.9s1-0.3,1.6-0.3c0.6,0,1.2,0.1,1.7,0.4c0.5,0.3,0.8,0.6,1.1,1.1
				s0.4,1,0.4,1.7v5.4h-1.8L195.4,53L195.4,53z"/>
			<path class="st0" d="M200.7,58.4c-0.4-0.1-0.8-0.2-1.2-0.4c-0.4-0.2-0.7-0.4-1-0.6l1.2-1.7c0.4,0.3,0.7,0.5,1.1,0.6
				c0.4,0.1,0.8,0.2,1.1,0.2c0.5,0,0.8-0.1,1.1-0.2c0.3-0.1,0.4-0.3,0.4-0.5c0-0.2-0.1-0.3-0.2-0.4c-0.1-0.1-0.3-0.2-0.4-0.2
				c-0.2,0-0.4-0.1-0.7-0.1c-0.1,0-0.2,0-0.3,0c-0.1,0-0.2,0-0.3,0c0,0,0,0-0.1,0c0,0,0,0-0.1,0c-0.6-0.1-1-0.2-1.3-0.3
				c-0.3-0.1-0.6-0.3-0.8-0.7c-0.2-0.3-0.3-0.8-0.3-1.5c0-0.6,0.1-1.1,0.4-1.5c0.2-0.4,0.6-0.7,1-0.9s1-0.3,1.6-0.3
				c0.4,0,0.8,0,1.1,0.1c0.4,0.1,0.7,0.2,1.1,0.4s0.7,0.4,1,0.6l-1.2,1.6c-0.3-0.2-0.7-0.4-1-0.5s-0.7-0.2-1-0.2
				c-0.4,0-0.7,0-0.9,0.2c-0.2,0.1-0.3,0.3-0.3,0.4c0,0.1,0.1,0.3,0.2,0.3c0.1,0.1,0.3,0.1,0.4,0.2c0.2,0,0.4,0.1,0.8,0.1
				c0,0,0.1,0,0.1,0c0,0,0.1,0,0.1,0c0,0,0,0,0.1,0c0,0,0,0,0.1,0c0.6,0.1,1.1,0.2,1.4,0.3s0.7,0.4,0.9,0.7c0.3,0.4,0.4,0.9,0.4,1.6
				c0,0.6-0.1,1.1-0.4,1.5c-0.3,0.4-0.6,0.7-1.1,1c-0.5,0.2-1.1,0.3-1.7,0.3C201.5,58.5,201.1,58.5,200.7,58.4z"/>
			<path class="st0" d="M208.1,58.1c-0.5-0.3-0.9-0.7-1.2-1.3c-0.3-0.6-0.4-1.3-0.4-2.1v-1c0-0.8,0.1-1.6,0.4-2.1
				c0.3-0.6,0.6-1,1.1-1.4c0.5-0.3,1.1-0.5,1.8-0.5c0.6,0,1.2,0.2,1.7,0.6c0.5,0.4,0.8,0.9,1.1,1.6c0.2,0.7,0.4,1.6,0.4,2.5v0.6
				h-5.1v-1.5h3.3l0-0.2c-0.1-0.5-0.2-0.9-0.4-1.1c-0.2-0.3-0.5-0.4-0.9-0.4c-0.5,0-0.8,0.2-1.1,0.5c-0.3,0.3-0.4,0.8-0.4,1.4v1.1
				c0,0.6,0.1,1,0.4,1.3s0.7,0.5,1.2,0.5c0.3,0,0.5-0.1,0.8-0.2c0.3-0.1,0.5-0.3,0.7-0.5l1.3,1.3c-0.4,0.4-0.8,0.7-1.3,0.9
				c-0.5,0.2-1,0.3-1.5,0.3C209.2,58.5,208.6,58.4,208.1,58.1z"/>
			<path class="st0" d="M214.6,49.9h2v8.5h-2V49.9z M218.9,53.3c0-0.4-0.1-0.7-0.3-1c-0.2-0.2-0.5-0.3-0.9-0.3
				c-0.4,0-0.6,0.1-0.8,0.3c-0.2,0.2-0.3,0.6-0.3,1l-0.2-1.9c0.2-0.5,0.5-0.9,0.8-1.2c0.3-0.3,0.7-0.4,1.2-0.4
				c0.8,0,1.4,0.3,1.8,0.9c0.4,0.6,0.6,1.4,0.6,2.5v5.1h-2V53.3z"/>
		</g>
	</g>
	<path class="st0" d="M258,63.2H144.2c-0.4,0-0.7-0.3-0.7-0.7l0,0c0-0.4,0.3-0.7,0.7-0.7H258c0.4,0,0.7,0.3,0.7,0.7l0,0
		C258.7,62.9,258.4,63.2,258,63.2z"/>
</g>
</svg>
