<?xml version="1.0" encoding="utf-8"?>
<!-- Generator: Adobe Illustrator 27.8.1, SVG Export Plug-In . SVG Version: 6.00 Build 0)  -->
<svg version="1.1" id="Слой_1" xmlns="http://www.w3.org/2000/svg" xmlns:xlink="http://www.w3.org/1999/xlink" x="0px" y="0px"
	 viewBox="0 0 165.8 37.8" style="enable-background:new 0 0 165.8 37.8;" xml:space="preserve">
<style type="text/css">
	.st0{fill:#E30F1B;}
	.st1{fill:#FFED00;stroke:#E30F1B;stroke-width:3;stroke-miterlimit:10;}
	.st2{fill:#E30F1B;stroke:#E30F1B;stroke-miterlimit:10;}
	.st3{fill:#FFED00;stroke:#E30F1B;stroke-width:1.25;stroke-miterlimit:10;}
	.st4{fill:#FFED00;stroke:#E30F1B;stroke-width:0.75;stroke-miterlimit:10;}
	.st5{font-family:'Arial-BoldMT';}
	.st6{font-size:10.2934px;}
</style>
<path class="st0" d="M69.8,0H1.9C0.9,0,0,0.9,0,1.8v34.1c0,1,0.9,1.8,1.9,1.8h67.8c1.1,0,1.9-0.8,1.9-1.8V1.8
	C71.7,0.9,70.8,0,69.8,0z"/>
<circle class="st1" cx="35.8" cy="18.4" r="16.3"/>
<path class="st2" d="M37.4,5.3c1.5,0.5,3.3,1.2,5.1,2.4c2.8,1.9,4.6,4.2,5.6,6l0.4-0.4C46.8,8.4,42.3,4.9,37,4.4L37.4,5.3z"/>
<path class="st3" d="M38.2,25.2c-16.9,6.1-31.5,8.2-32.8,4.6c-0.8-2.3,4.6-6.6,13.3-11.1l-0.1,2.8c-3.5,2.1-5.5,4-5.1,5.1
	c0.9,2.4,11.7,0.6,24.2-3.9s21.9-10.1,21-12.5c-0.4-1.2-3.4-1.3-7.8-0.6l-1.8-2c9.5-2.1,16.3-2.2,17.2,0.1
	C67.6,11.3,55,19.2,38.2,25.2z"/>
<polygon class="st4" points="60.6,2.1 58.5,6 68,12.3 66.6,15 57,8.7 55.8,11.1 52.5,8.9 55.6,3.2 "/>
<path class="st4" d="M17.8,30.5c-1.8,1.3-4.1,1.5-6.1,0.9l-3.2,4.8l-2.2-1.5l3-4.5l0,0c0.7,0.3,1.5,0.4,2.2,0.5
	c1.3,0,2.7-0.4,3.9-1.2c2.8-2,3.5-5.8,1.6-8.5c-1.8-2.5-5.4-3.2-8.2-1.5c0.1-0.1,0.4-0.3,0.5-0.4c3.1-2.2,7.5-1.4,9.9,1.8
	C21.5,24,20.9,28.3,17.8,30.5z"/>
<text transform="matrix(0.8812 0 0 1 75.4185 10.0947)" class="st0 st5 st6">БЛАНК ДОКУМЕНТА </text>
<text transform="matrix(0.8812 0 0 1 75.4185 22.4453)" class="st0 st5 st6">НАУЧНЫЙ ОТДЕЛ </text>
<text transform="matrix(0.8812 0 0 1 75.4185 34.7979)" class="st0 st5 st6">USSP</text>
</svg>
