<?xml version="1.0" encoding="utf-8"?>
<!-- Generator: Adobe Illustrator 27.8.1, SVG Export Plug-In . SVG Version: 6.00 Build 0)  -->
<svg version="1.1" id="Слой_1" xmlns="http://www.w3.org/2000/svg" xmlns:xlink="http://www.w3.org/1999/xlink" x="0px" y="0px"
	 viewBox="0 0 234.9 53.5" style="enable-background:new 0 0 234.9 53.5;" xml:space="preserve">
<style type="text/css">
	.st0{fill:#E30F1B;}
	.st1{fill:#FFED00;stroke:#E30F1B;stroke-width:3;stroke-miterlimit:10;}
	.st2{fill:#E30F1B;stroke:#E30F1B;stroke-miterlimit:10;}
	.st3{fill:#FFED00;stroke:#E30F1B;stroke-width:1.25;stroke-miterlimit:10;}
	.st4{fill:#FFED00;stroke:#E30F1B;stroke-width:0.75;stroke-miterlimit:10;}
	.st5{font-family:'Arial-BoldMT';}
	.st6{font-size:14.5848px;}
</style>
<path class="st0" d="M98.9,0H2.7C1.2,0,0,1.2,0,2.6v48.3c0,1.4,1.2,2.6,2.7,2.6h96.1c1.5,0,2.7-1.2,2.7-2.6V2.6
	C101.6,1.2,100.4,0,98.9,0z"/>
<circle class="st1" cx="50.8" cy="26" r="23"/>
<path class="st2" d="M53,7.6c2.2,0.7,4.7,1.7,7.2,3.4c4,2.7,6.5,6,7.9,8.5l0.6-0.5C66.3,12,60,6.9,52.4,6.3L53,7.6z"/>
<path class="st3" d="M54.1,35.7c-24,8.7-44.7,11.6-46.5,6.6c-1.2-3.3,6.5-9.4,18.9-15.7l-0.1,3.9c-5,3-7.8,5.7-7.2,7.3
	c1.2,3.4,16.6,0.9,34.2-5.5s31-14.3,29.7-17.7c-0.6-1.7-4.8-1.9-11-0.9L69.7,11C83.1,8,92.8,7.8,94,11.1
	C95.8,16.1,77.9,27.1,54.1,35.7z"/>
<polygon class="st4" points="85.9,3 82.9,8.5 96.4,17.5 94.4,21.3 80.8,12.3 79,15.8 74.4,12.7 78.8,4.6 "/>
<path class="st4" d="M25.1,43.2c-2.6,1.8-5.8,2.2-8.7,1.3L12,51.3l-3.2-2.1l4.2-6.4l0,0c1,0.4,2.1,0.6,3.2,0.7
	c1.9,0,3.8-0.5,5.5-1.7c4-2.8,5-8.2,2.2-12c-2.6-3.6-7.6-4.5-11.6-2.2c0.2-0.2,0.5-0.4,0.7-0.5c4.4-3.1,10.7-2,14,2.5
	C30.4,34,29.5,40.1,25.1,43.2z"/>
<text transform="matrix(0.8812 0 0 1 106.8599 14.3032)" class="st0 st5 st6">БЛАНК ДОКУМЕНТА </text>
<text transform="matrix(0.8812 0 0 1 106.8599 31.8037)" class="st0 st5 st6">ОТДЕЛ МИЛИЦИИ </text>
<text transform="matrix(0.8812 0 0 1 106.8599 49.3066)" class="st0 st5 st6">USSP</text>
</svg>
