<?xml version="1.0" encoding="utf-8"?>
<!-- Generator: Adobe Illustrator 27.8.1, SVG Export Plug-In . SVG Version: 6.00 Build 0)  -->
<svg version="1.1" id="Слой_1" xmlns="http://www.w3.org/2000/svg" xmlns:xlink="http://www.w3.org/1999/xlink" x="0px" y="0px"
	 viewBox="0 0 310 69.1" style="enable-background:new 0 0 310 69.1;" xml:space="preserve">
<style type="text/css">
	.st0{fill:#1563bd;}
	.st1{font-family:'Impact';}
	.st2{font-size:11.8728px;}
	.st3{font-size:18.1427px;}
	.st4{font-size:15.551px;}
</style>
<path class="st0" d="M127.5,0H3.6C1.6,0,0,1.5,0,3.5v62.3c0,1.8,1.6,3.4,3.6,3.4h123.7c2,0,3.6-1.5,3.6-3.5V3.5
	C131,1.5,129.4,0,127.5,0z M31.9,33.2L11.8,13.8h20.2v19.4H31.9z M90.2,55.1H75.1L55.8,33.8v21.3H40.6V13.8h15.1L75,35.1V13.8h15.1
	v41.3H90.2L90.2,55.1L90.2,55.1z M98.8,55.1V35.7L119.1,55L98.8,55.1L98.8,55.1z"/>
<path class="st0" d="M308.3,62.5H139.1c-0.3,0-0.6-0.3-0.6-0.6l0,0c0-0.3,0.3-0.6,0.6-0.6h169.3c0.3,0,0.6,0.3,0.6,0.6l0,0
	C309,62.3,308.7,62.5,308.3,62.5z"/>
<text transform="matrix(0.9931 0 0 1 137.8867 16.9425)" class="st0 st1 st2">БЛАНК ДОКУМЕНТА </text>
<text transform="matrix(0.9602 0 0 1 137.8867 39.1637)" class="st0 st1 st3">СЛУЖБА БЕЗОПАСНОСТИ</text>
<text transform="matrix(0.9602 0 0 1 137.8867 57.8395)" class="st0 st1 st4">NanoTrasen</text>
</svg>
