<?xml version="1.0" encoding="utf-8"?>
<!-- Generator: Adobe Illustrator 27.8.1, SVG Export Plug-In . SVG Version: 6.00 Build 0)  -->
<svg version="1.1" id="Слой_1" xmlns="http://www.w3.org/2000/svg" xmlns:xlink="http://www.w3.org/1999/xlink" x="0px" y="0px"
	 viewBox="0 0 320 66.7" style="enable-background:new 0 0 320 66.7;" xml:space="preserve">
<style type="text/css">
	.st0{fill:#D41216;}
	.st1{fill:#1D1D1B;}
	.st2{font-family:'ArialMT';}
	.st3{font-size:17.1134px;}
	.st4{font-family:'CourierNewPSMT';}
	.st5{font-family:'Impact';}
</style>
<g>
	<path class="st0" d="M123.7,4.8v58.8c0,1.8-1.5,3.1-3.3,3.1H3.3c-1.8,0.1-3.3-1.3-3.3-3V4.8C0,3,1.5,1.7,3.3,1.7h117
		C122.2,1.7,123.7,3,123.7,4.8z"/>
	<polygon class="st1" points="16,50.9 27.6,50.9 16,61.2 8.1,61.2 8.1,6 16,6 27.6,15.8 16,15.8 	"/>
	<text transform="matrix(0.95 0 0 1 132.5308 15.2651)" class="st1 st2 st3">Бл̮̮̝а͆͌́нк̈̊ͭ д̣̣о̿͂̈́к͒̚у̹мента </text>
	<text transform="matrix(0.95 0 0 1 132.5308 35.8037)" class="st1 st4 st3">▓▓▓▓▓▓▓▓▓▓▓▓▓▓ </text>
	<text transform="matrix(0.95 0 0 1 132.5308 56.3408)" class="st1 st5 st3">Смерть </text>
	<text transform="matrix(0.95 0 0 1 187.7314 56.3408)" class="st1 st2 st3">К̊̈̒О̗̦̥̤̬̮̭̂ͩͩ̇͐͋ͪМ̞̥͉͐̈́ͯМ͎̟̖͖̮̔͌̑̉̋У̂ͣͣ̑Н͍̙͎͖̣ͧ̄͆̅̍И̒͐͌̉͐С̯̜͋̉Т͖͇̭̞̜͙̏̈̑ͥ̇ͦА͊М̔͗͂̊!</text>
	<path class="st1" d="M280.6,65.5H133.1c-0.3,0-0.6-0.2-0.6-0.5l0,0c0-0.3,0.2-0.5,0.6-0.5h147.5c0.3,0,0.6,0.2,0.6,0.5l0,0
		C281.4,65.2,281.1,65.5,280.6,65.5z"/>
	<path class="st1" d="M79.5,54.1v1.3c0,2.7-1.9,4.9-4.5,4.9l-29.8-0.1l-5-11.3h23.4L41.8,19.5l0.1-0.1h-0.3v-6.5
		c0-2.7,1.8-4.9,4.1-4.9h27.5L78,19.3H55L78,50.2l0,0C78.8,51.5,79.5,52.7,79.5,54.1z"/>
	<polygon class="st1" points="109.8,16.3 97.9,16.3 109.8,6 117.4,6 117.4,61.2 109.8,61.2 97.9,51.5 109.8,51.5 	"/>
	<rect x="17.8" y="34.1" class="st1" width="33.3" height="1.8"/>
	<rect x="70.5" y="34.1" class="st1" width="37.1" height="1.8"/>
</g>
</svg>
