<?xml version="1.0" encoding="utf-8"?>
<!-- Generator: Adobe Illustrator 27.8.1, SVG Export Plug-In . SVG Version: 6.00 Build 0)  -->
<svg version="1.1" id="Слой_1" xmlns="http://www.w3.org/2000/svg" xmlns:xlink="http://www.w3.org/1999/xlink" x="0px" y="0px"
	 viewBox="0 0 332 63.2" style="enable-background:new 0 0 332 63.2;" xml:space="preserve">
<style type="text/css">
	.st0{fill:#3E660A;}
	.st1{font-family:'Impact';}
	.st2{font-size:10.3387px;}
	.st3{font-size:18.0925px;}
	.st4{font-size:15.5079px;}
</style>
<path class="st0" d="M116.9,0H3.4C1.4,0,0,1.4,0,3v57.1c0,1.6,1.4,3,3.4,3h113.5c1.7,0,3.4-1.4,3.4-3V3C120,1.4,118.6,0,116.9,0z
	 M29.4,30.4L10.6,12.7h18.6L29.4,30.4L29.4,30.4z M82.7,50.5H68.8L51.2,30.9v19.6H37.5V12.7h13.8l17.8,19.6V12.7h13.7v38h-0.1V50.5z
	 M90.7,50.5V33l18.7,17.8L90.7,50.5L90.7,50.5z"/>
<g>
	<path class="st0" d="M323.7,62.5H126.5c-0.4,0-1.1-0.2-1.1-0.5l0,0c0-0.3,0.4-0.5,1.1-0.5h197.1c0.4,0,1.1,0.2,1.1,0.5l0,0
		C324.7,62.2,324.1,62.5,323.7,62.5z"/>
</g>
<text transform="matrix(1.0397 0 0 1 126.3923 11.9635)" class="st0 st1 st2">БЛАНК ДОКУМЕНТА </text>
<text transform="matrix(0.8984 0 0 1 126.3904 33.6261)" class="st0 st1 st3">ЦЕНТРАЛЬНОЕ КОМАНДОВАНИЕ </text>
<text transform="matrix(0.9567 0 0 1 126.3914 52.2492)" class="st0 st1 st4">NanoTrasen</text>
</svg>
