<?xml version="1.0" encoding="utf-8"?>
<!-- Generator: Adobe Illustrator 27.8.1, SVG Export Plug-In . SVG Version: 6.00 Build 0)  -->
<svg version="1.1" id="Слой_1" xmlns="http://www.w3.org/2000/svg" xmlns:xlink="http://www.w3.org/1999/xlink" x="0px" y="0px"
	 viewBox="0 0 270 62" style="enable-background:new 0 0 270 62;" xml:space="preserve">
<style type="text/css">
	.st0{fill:#57B8F0;}
</style>
<path class="st0" d="M114.6,0H3.2C1.5,0,0,1.3,0,3v56c0,1.7,1.5,3,3.2,3h111.4c1.8,0,3.2-1.3,3.2-3V3C117.8,1.3,116.4,0,114.6,0z
	 M28.8,29.8L10.5,12.4h18.3V29.8z M81.2,49.6H67.6L50.2,30.4v19.1H36.7V12.4h13.6l17.4,19.1V12.4h13.6v37.3H81.2z M89,49.6V32.2
	l18.3,17.3H89V49.6z"/>
<g>
	<g>
		<g>
			<path class="st0" d="M127.9,7.5h1.5v8.8h-1.5V7.5z M128.5,7.5h4.5V9h-4.5V7.5z M128.7,14.7h2.5c0.2,0,0.3,0,0.4-0.1
				c0.1-0.1,0.2-0.2,0.3-0.4s0.1-0.4,0.1-0.6c0-0.2,0-0.4-0.1-0.6c-0.1-0.2-0.2-0.3-0.3-0.4c-0.1-0.1-0.3-0.1-0.4-0.1h-2.5v-1.6h2.4
				c0.5,0,0.9,0.1,1.2,0.3s0.6,0.5,0.8,0.9s0.3,0.9,0.3,1.5s-0.1,1-0.3,1.5s-0.5,0.7-0.8,0.9c-0.3,0.2-0.8,0.3-1.2,0.3h-2.4
				L128.7,14.7L128.7,14.7z"/>
			<path class="st0" d="M134.6,14.7c0.2,0,0.5-0.1,0.6-0.2c0.2-0.1,0.3-0.4,0.4-0.6c0.1-0.3,0.1-0.6,0.1-1V7.5h1.5v5.4
				c0,0.7-0.1,1.4-0.3,1.8c-0.2,0.5-0.5,0.9-0.8,1.1c-0.4,0.3-0.8,0.4-1.4,0.4h-0.1L134.6,14.7L134.6,14.7z M136.6,7.5h3.5V9h-3.5
				V7.5z M139.6,7.5h1.5v8.8h-1.5V7.5z"/>
			<path class="st0" d="M145,7.5h0.9l2.9,8.8h-1.6l-1.9-6l-1.9,6H142L145,7.5z M143.4,13.3h4v1.6h-4V13.3z"/>
			<path class="st0" d="M149.7,7.5h1.5v8.8h-1.5V7.5z M150.5,11.1h4.5v1.6h-4.5V11.1z M154,7.5h1.5v8.8H154V7.5z"/>
			<path class="st0" d="M157.1,7.5h1.5v8.8h-1.5V7.5z M157.8,11.1h2.7v1.6h-2.7V11.1z M159.3,12.5l1.4-0.6l2.7,4.5h-1.9L159.3,12.5z
				 M159.3,11.5l2-3.9h1.7l-2.6,5.1L159.3,11.5z"/>
			<path class="st0" d="M166.7,14.7h6.6v1.6h-6.6V14.7z M166.7,14.7h1.4v3.4h-1.4V14.7z M166.8,14.7h0.1c0.3,0,0.5-0.2,0.7-0.5
				s0.3-0.8,0.3-1.5V7.5h1.5v5c0,0.7-0.1,1.4-0.3,1.9s-0.4,0.9-0.8,1.1c-0.3,0.3-0.8,0.4-1.4,0.4h-0.2v-1.1H166.8z M168.8,7.5h3.3V9
				h-3.3V7.5z M171.5,7.5h1.5v8.8h-1.5V7.5z M172.4,14.7h1.5v3.4h-1.5V14.7z"/>
			<path class="st0" d="M176.2,16c-0.4-0.3-0.7-0.6-1-1.1c-0.2-0.5-0.3-1-0.3-1.7v-2.5c0-0.6,0.1-1.2,0.3-1.7s0.5-0.8,1-1.1
				c0.4-0.3,0.9-0.4,1.5-0.4c0.5,0,1,0.1,1.5,0.4c0.4,0.3,0.7,0.6,1,1.1c0.2,0.5,0.3,1,0.3,1.7v2.5c0,0.6-0.1,1.2-0.3,1.7
				c-0.2,0.5-0.5,0.8-1,1.1c-0.4,0.3-0.9,0.4-1.5,0.4C177.2,16.4,176.6,16.3,176.2,16z M178.4,14.5c0.2-0.1,0.3-0.3,0.4-0.5
				c0.1-0.2,0.2-0.5,0.2-0.8v-2.6c0-0.3-0.1-0.6-0.2-0.8c-0.1-0.2-0.3-0.4-0.4-0.5C178.2,9.1,178,9,177.7,9s-0.5,0.1-0.7,0.2
				c-0.2,0.1-0.3,0.3-0.4,0.5c-0.1,0.2-0.2,0.5-0.2,0.8v2.6c0,0.3,0.1,0.6,0.2,0.8c0.1,0.2,0.3,0.4,0.4,0.5c0.2,0.1,0.4,0.2,0.7,0.2
				C178,14.7,178.2,14.6,178.4,14.5z"/>
			<path class="st0" d="M182,7.5h1.5v8.8H182V7.5z M182.7,11.1h2.7v1.6h-2.7V11.1z M184.2,12.5l1.4-0.6l2.7,4.5h-1.9L184.2,12.5z
				 M184.2,11.5l2-3.9h1.7l-2.6,5.1L184.2,11.5z"/>
			<path class="st0" d="M188.4,7.5h1.6l2.3,6.3l-0.9,1.5L188.4,7.5z M192.5,14.4c-0.1,0.4-0.3,0.8-0.5,1c-0.2,0.3-0.4,0.5-0.6,0.6
				c-0.2,0.1-0.5,0.2-0.8,0.2h-0.9v-1.6h0.6c0.2,0,0.3,0,0.4-0.1s0.2-0.2,0.3-0.3s0.2-0.3,0.3-0.6l2-6.2h1.5L192.5,14.4z"/>
			<path class="st0" d="M200.5,7.5h2v8.8h-1.4V9.5l0.1,0.4l-1.5,5.5h-1.2l-1.5-5.3l0.1-0.5v6.9h-1.4V7.5h2l1.5,5.9L200.5,7.5z"/>
			<path class="st0" d="M204.2,7.5h1.5v8.8h-1.5V7.5z M204.7,7.5h4.7V9h-4.7V7.5z M204.7,11.1h4.1v1.6h-4.1V11.1z M204.7,14.7h4.7
				v1.6h-4.7V14.7z"/>
			<path class="st0" d="M210.7,7.5h1.5v8.8h-1.5V7.5z M211.3,11.1h4.5v1.6h-4.5V11.1z M215,7.5h1.5v8.8H215V7.5z"/>
			<path class="st0" d="M217,7.5h5.7V9H217V7.5z M219.1,8.2h1.5v8.1h-1.5V8.2z"/>
			<path class="st0" d="M225.6,7.5h0.9l2.9,8.8h-1.6l-1.9-6l-1.9,6h-1.6L225.6,7.5z M224,13.3h4v1.6h-4V13.3z"/>
			<path class="st0" d="M134,23.6h2.3v10.6h-1.6V26l0.1,0.4l-1.8,6.5h-1.6l-1.8-6.4l0.1-0.6v8.2h-1.6V23.6h2.3l1.8,7.2L134,23.6z"/>
			<path class="st0" d="M138.3,23.6h1.8v10.6h-1.8V23.6z M138.9,23.6h5.6v1.9h-5.6V23.6z M138.9,27.9h4.9v1.9h-4.9V27.9z
				 M138.9,32.3h5.6v1.9h-5.6V32.3z"/>
			<path class="st0" d="M145.7,32.3h7.9v1.9h-7.9V32.3z M145.7,32.3h1.7v4.2h-1.7V32.3z M145.7,32.3h0.1c0.4,0,0.7-0.2,0.9-0.6
				c0.2-0.4,0.3-0.9,0.3-1.7v-6.3h1.8v6c0,0.8-0.1,1.7-0.3,2.2c-0.2,0.6-0.5,1-0.9,1.3c-0.4,0.3-0.9,0.5-1.6,0.5h-0.3V32.3
				L145.7,32.3z M148.1,23.6h4v1.9h-4V23.6z M151.4,23.6h1.8v10.6h-1.8V23.6z M152.4,32.3h1.7v4.2h-1.7V32.3z"/>
			<path class="st0" d="M161.1,34.2v-8.4l0.1,0.2l-3.5,8.3h-2.1V23.6h1.7v8.6l-0.1-0.2l3.5-8.4h2.1v10.6L161.1,34.2L161.1,34.2z"/>
			<path class="st0" d="M164.8,23.6h1.8v10.6h-1.8V23.6z M165.6,32.3h6.8v1.9h-6.8V32.3z M169.8,23.7h1.8v10.5h-1.8V23.7z M171,32.3
				h1.8v4.4H171V32.3z"/>
			<path class="st0" d="M179.8,34.2v-8.4l0.1,0.2l-3.5,8.3h-2.1V23.6h1.7v8.6l-0.1-0.2l3.5-8.4h2.1v10.6L179.8,34.2L179.8,34.2z"/>
			<path class="st0" d="M183.4,23.6h1.8v10.6h-1.8V23.6z M184.2,27.9h5.4v1.9h-5.4V27.9z M188.5,23.6h1.8v10.6h-1.8V23.6z"/>
			<path class="st0" d="M193.7,33.9c-0.5-0.3-0.9-0.7-1.1-1.3c-0.3-0.6-0.4-1.3-0.4-2.2v-2.9c0-0.8,0.1-1.6,0.4-2.2
				c0.3-0.6,0.6-1,1.1-1.4c0.5-0.3,1.1-0.4,1.8-0.4s1.1,0.1,1.6,0.4c0.4,0.3,0.8,0.7,1.1,1.2c0.3,0.5,0.5,1.2,0.6,2H197
				c-0.1-0.3-0.2-0.6-0.3-0.9c-0.1-0.3-0.3-0.4-0.5-0.5c-0.2-0.1-0.4-0.2-0.7-0.2s-0.6,0.1-0.8,0.2c-0.2,0.1-0.4,0.4-0.5,0.6
				s-0.2,0.6-0.2,1v2.9c0,0.4,0.1,0.7,0.2,1c0.1,0.3,0.3,0.5,0.5,0.6c0.2,0.1,0.5,0.2,0.8,0.2c0.2,0,0.5-0.1,0.7-0.2
				c0.2-0.1,0.4-0.3,0.5-0.5s0.2-0.5,0.3-0.9h1.8c-0.1,0.7-0.3,1.5-0.6,2c-0.3,0.5-0.7,0.9-1.1,1.2c-0.4,0.3-0.9,0.4-1.6,0.4
				C194.8,34.3,194.2,34.2,193.7,33.9z"/>
			<path class="st0" d="M200.4,23.6h1.8v10.6h-1.8V23.6z M201.1,27.9h3.3v1.9h-3.3V27.9z M203,29.5l1.6-0.7l3.2,5.4h-2.2L203,29.5z
				 M203,28.3l2.4-4.8h2l-3.1,6L203,28.3z"/>
			<path class="st0" d="M214.2,34.2v-8.4l0.1,0.2l-3.5,8.3h-2.1V23.6h1.7v8.6l-0.1-0.2l3.5-8.4h2.1v10.6L214.2,34.2L214.2,34.2z"/>
			<path class="st0" d="M223.4,34.2v-8.4l0.1,0.2l-3.5,8.3h-2.1V23.6h1.7v8.6l-0.1-0.2l3.5-8.4h2.1v10.6L223.4,34.2L223.4,34.2z
				 M223.6,20.5c0,0.7-0.2,1.3-0.5,1.8c-0.4,0.4-0.9,0.6-1.6,0.6l0,0c-0.7,0-1.2-0.2-1.6-0.6c-0.4-0.4-0.5-1-0.5-1.8h1.5
				c0,0.3,0.1,0.5,0.2,0.7c0.1,0.2,0.3,0.3,0.5,0.3l0,0c0.2,0,0.4-0.1,0.5-0.3c0.1-0.2,0.2-0.4,0.2-0.7H223.6z"/>
			<path class="st0" d="M232,33.8c-0.5-0.3-0.9-0.7-1.1-1.3c-0.2-0.6-0.4-1.2-0.4-2.1v-3c0-0.7,0.1-1.5,0.4-2.1
				c0.3-0.6,0.7-1,1.1-1.4c0.4-0.3,1.1-0.5,1.8-0.5s1.2,0.2,1.8,0.5c0.5,0.3,0.9,0.7,1.1,1.4c0.3,0.6,0.4,1.2,0.4,2.1v3
				c0,0.7-0.1,1.5-0.4,2.1s-0.7,1-1.1,1.3c-0.5,0.3-1.1,0.5-1.8,0.5C233.1,34.3,232.5,34.2,232,33.8z M234.6,32.1
				c0.2-0.1,0.4-0.4,0.5-0.6c0.1-0.3,0.2-0.6,0.2-0.9v-3.1c0-0.4-0.1-0.7-0.2-0.9s-0.3-0.5-0.5-0.6c-0.2-0.1-0.5-0.2-0.8-0.2
				c-0.3,0-0.6,0.1-0.8,0.2c-0.2,0.1-0.4,0.4-0.5,0.6c-0.1,0.3-0.2,0.6-0.2,0.9v3.1c0,0.4,0.1,0.7,0.2,0.9c0.1,0.3,0.3,0.5,0.5,0.6
				c0.2,0.1,0.5,0.2,0.8,0.2C234.1,32.3,234.4,32.2,234.6,32.1z"/>
			<path class="st0" d="M237.8,23.6h6.9v1.9h-6.9V23.6z M240.3,24.5h1.8v9.7h-1.8V24.5z"/>
			<path class="st0" d="M244.9,32.3h7.9v1.9h-7.9V32.3z M244.9,32.3h1.7v4.2h-1.7V32.3z M245,32.3h0.1c0.4,0,0.7-0.2,0.9-0.6
				c0.2-0.4,0.3-0.9,0.3-1.7v-6.3h1.8v6c0,0.8-0.1,1.7-0.3,2.2c-0.2,0.6-0.5,1-0.9,1.3c-0.4,0.3-0.9,0.5-1.6,0.5H245V32.3L245,32.3z
				 M247.3,23.6h4v1.9h-4V23.6z M250.6,23.6h1.8v10.6h-1.8V23.6z M251.6,32.3h1.7v4.2h-1.7V32.3z"/>
			<path class="st0" d="M254.8,23.6h1.8v10.6h-1.8V23.6z M255.5,23.6h5.6v1.9h-5.6V23.6z M255.5,27.9h4.9v1.9h-4.9V27.9z
				 M255.5,32.3h5.6v1.9h-5.6V32.3z"/>
			<path class="st0" d="M262.3,32.3c0.3,0,0.5-0.1,0.8-0.3c0.2-0.2,0.4-0.4,0.5-0.8c0.1-0.3,0.2-0.7,0.2-1.2v-6.3h1.8v6.5
				c0,0.8-0.1,1.6-0.3,2.2c-0.2,0.6-0.6,1-1,1.4c-0.4,0.3-1,0.5-1.7,0.5h-0.1v-1.9H262.3z M264.7,23.6h4.3v1.9h-4.3V23.6z
				 M268.2,23.6h1.8v10.6h-1.8V23.6z"/>
			<path class="st0" d="M128.1,41.4h2.2l3.4,8.1l-0.1,0.2v-8.3h1.7V52h-2.2l-3.4-8l0.1-0.2V52h-1.7C128.1,52,128.1,41.4,128.1,41.4z
				"/>
			<path class="st0" d="M137.4,51.5c-0.3-0.4-0.5-0.9-0.5-1.8c0-0.7,0.2-1.3,0.6-1.7c0.4-0.4,0.9-0.5,1.8-0.5h1.7l0.1,1.6h-1.8
				c-0.3,0-0.4,0.1-0.6,0.2c-0.1,0.1-0.2,0.3-0.2,0.5c0,0.2,0.1,0.4,0.2,0.5c0.2,0.1,0.4,0.2,0.7,0.2c0.4,0,0.8-0.1,1-0.2
				c0.2-0.1,0.3-0.3,0.3-0.5l0.1,1.1c0,0.3-0.1,0.5-0.3,0.7c-0.2,0.2-0.4,0.3-0.7,0.4c-0.3,0.1-0.6,0.1-0.9,0.1
				C138.2,52.1,137.7,51.9,137.4,51.5z M140.8,47.2c0-0.3-0.1-0.6-0.3-0.8c-0.2-0.2-0.5-0.3-0.8-0.3c-0.2,0-0.5,0-0.7,0.1
				c-0.2,0.1-0.4,0.2-0.6,0.4l-1-1.2c0.3-0.3,0.6-0.6,1-0.8c0.4-0.2,0.9-0.3,1.5-0.3c0.6,0,1,0.1,1.5,0.3c0.4,0.2,0.7,0.5,0.9,0.9
				s0.3,0.9,0.3,1.6v4.9h-1.6L140.8,47.2L140.8,47.2z"/>
			<path class="st0" d="M144.1,44.4h1.8V52h-1.8V44.4z M148,47.5c0-0.4-0.1-0.6-0.3-0.8c-0.2-0.2-0.4-0.3-0.8-0.3
				c-0.3,0-0.5,0.1-0.7,0.3c-0.2,0.2-0.3,0.5-0.3,0.8l-0.1-1.7c0.2-0.5,0.4-0.8,0.7-1c0.3-0.2,0.6-0.3,1-0.3c0.7,0,1.2,0.3,1.7,0.8
				c0.4,0.5,0.6,1.2,0.6,2.3v4.6H148V47.5L148,47.5z"/>
			<path class="st0" d="M152.5,51.7c-0.4-0.2-0.7-0.6-0.9-1.1s-0.3-1-0.3-1.8v-1.2c0-0.7,0.1-1.2,0.3-1.8c0.2-0.5,0.5-0.8,0.9-1.1
				c0.4-0.2,0.9-0.4,1.6-0.4c0.6,0,1.1,0.1,1.6,0.4c0.4,0.2,0.7,0.6,0.9,1.1c0.2,0.5,0.3,1,0.3,1.8v1.2c0,0.7-0.1,1.2-0.3,1.8
				s-0.5,0.8-0.9,1.1c-0.4,0.3-0.9,0.4-1.6,0.4C153.5,52.1,153,52,152.5,51.7z M154.9,49.8c0.2-0.2,0.3-0.5,0.3-1v-1.2
				c0-0.4-0.1-0.7-0.3-0.9c-0.2-0.2-0.5-0.3-0.8-0.3s-0.6,0.1-0.8,0.3c-0.2,0.2-0.3,0.5-0.3,0.9v1.2c0,0.4,0.1,0.7,0.3,1
				c0.2,0.2,0.4,0.3,0.8,0.3C154.4,50.3,154.7,50.1,154.9,49.8z"/>
			<path class="st0" d="M157.4,41.4h6.9v1.9h-6.9V41.4L157.4,41.4z M159.9,42.4h1.8V52h-1.8V42.4z"/>
			<path class="st0" d="M164.8,44.4h1.9V52h-1.9V44.4z M168.2,46.3c-0.1,0-0.3-0.1-0.4-0.1c-0.3,0-0.6,0.1-0.8,0.4
				c-0.2,0.3-0.3,0.6-0.3,1l-0.1-2c0.2-0.4,0.4-0.8,0.7-1c0.3-0.2,0.6-0.4,0.9-0.4s0.5,0,0.7,0.1s0.4,0.2,0.6,0.4l-1,1.7
				C168.4,46.5,168.3,46.4,168.2,46.3z"/>
			<path class="st0" d="M170.6,51.5c-0.3-0.4-0.5-0.9-0.5-1.8c0-0.7,0.2-1.3,0.6-1.7c0.4-0.4,0.9-0.5,1.8-0.5h1.7l0.1,1.6h-1.8
				c-0.3,0-0.4,0.1-0.6,0.2c-0.1,0.1-0.2,0.3-0.2,0.5c0,0.2,0.1,0.4,0.2,0.5c0.2,0.1,0.4,0.2,0.7,0.2c0.4,0,0.8-0.1,1-0.2
				c0.2-0.1,0.3-0.3,0.3-0.5L174,51c0,0.3-0.1,0.5-0.3,0.7c-0.2,0.2-0.4,0.3-0.7,0.4c-0.3,0.1-0.6,0.1-0.9,0.1
				C171.5,52.1,170.9,51.9,170.6,51.5z M174,47.2c0-0.3-0.1-0.6-0.3-0.8c-0.2-0.2-0.5-0.3-0.8-0.3c-0.2,0-0.5,0-0.7,0.1
				c-0.2,0.1-0.4,0.2-0.6,0.4l-1-1.2c0.3-0.3,0.6-0.6,1-0.8c0.4-0.2,0.9-0.3,1.5-0.3c0.6,0,1,0.1,1.5,0.3c0.4,0.2,0.7,0.5,0.9,0.9
				s0.3,0.9,0.3,1.6v4.9h-1.6L174,47.2L174,47.2z"/>
			<path class="st0" d="M178.7,52c-0.4-0.1-0.7-0.2-1-0.3c-0.3-0.1-0.6-0.3-0.8-0.5l1-1.6c0.3,0.2,0.6,0.4,1,0.5s0.7,0.2,1,0.2
				c0.4,0,0.7,0,0.9-0.1s0.3-0.2,0.3-0.4c0-0.2,0-0.3-0.1-0.4s-0.2-0.1-0.4-0.2c-0.1,0-0.4-0.1-0.6-0.1c-0.1,0-0.1,0-0.2,0
				c-0.1,0-0.2,0-0.2,0s0,0-0.1,0c0,0,0,0-0.1,0c-0.5-0.1-0.9-0.2-1.1-0.3c-0.3-0.1-0.5-0.3-0.7-0.6s-0.3-0.7-0.3-1.3
				c0-0.5,0.1-0.9,0.3-1.2s0.5-0.6,0.9-0.8c0.4-0.2,0.9-0.3,1.5-0.3c0.3,0,0.6,0,1,0.1c0.3,0.1,0.6,0.2,0.9,0.3
				c0.3,0.1,0.6,0.3,0.8,0.5l-1,1.5c-0.3-0.2-0.6-0.3-0.9-0.4s-0.6-0.1-0.9-0.1c-0.3,0-0.6,0-0.8,0.1s-0.3,0.2-0.3,0.4
				c0,0.1,0,0.2,0.1,0.3s0.2,0.1,0.4,0.1c0.1,0,0.4,0.1,0.7,0.1h0.1h0.1c0,0,0,0,0.1,0s0,0,0.1,0c0.5,0.1,0.9,0.1,1.2,0.3
				c0.3,0.1,0.6,0.3,0.8,0.6c0.2,0.3,0.3,0.8,0.3,1.5c0,0.5-0.1,0.9-0.3,1.3s-0.5,0.6-0.9,0.8c-0.4,0.2-0.9,0.3-1.6,0.3
				C179.5,52.1,179.1,52.1,178.7,52z"/>
			<path class="st0" d="M185.4,51.7c-0.4-0.3-0.8-0.6-1-1.1s-0.3-1.1-0.3-1.9v-0.8c0-0.7,0.1-1.3,0.3-1.9s0.5-0.9,1-1.2
				c0.4-0.3,0.9-0.4,1.6-0.4c0.6,0,1,0.2,1.5,0.5c0.4,0.3,0.7,0.8,0.9,1.5c0.2,0.6,0.3,1.3,0.3,2.3v0.5h-4.6v-1.4h2.9v-0.2
				c0-0.4-0.2-0.7-0.3-1c-0.2-0.2-0.4-0.3-0.7-0.3c-0.4,0-0.7,0.1-0.9,0.4c-0.2,0.3-0.3,0.7-0.3,1.2v0.9c0,0.5,0.1,0.9,0.4,1.1
				c0.2,0.3,0.6,0.4,1,0.4c0.2,0,0.4,0,0.7-0.1c0.2-0.1,0.4-0.2,0.6-0.4l1.1,1.1c-0.3,0.3-0.7,0.6-1.1,0.8c-0.4,0.2-0.8,0.3-1.4,0.3
				C186.3,52.1,185.8,52,185.4,51.7z"/>
			<path class="st0" d="M191.2,44.4h1.8V52h-1.8V44.4z M195,47.5c0-0.4-0.1-0.6-0.3-0.8c-0.2-0.2-0.4-0.3-0.8-0.3
				c-0.3,0-0.5,0.1-0.7,0.3c-0.2,0.2-0.3,0.5-0.3,0.8l-0.1-1.7c0.2-0.5,0.4-0.8,0.7-1c0.3-0.2,0.6-0.3,1-0.3c0.7,0,1.2,0.3,1.7,0.8
				c0.4,0.5,0.6,1.2,0.6,2.3v4.6H195V47.5z"/>
		</g>
	</g>
	<path class="st0" d="M268.5,56.3H129.3c-0.3,0-0.6-0.3-0.6-0.6l0,0c0-0.3,0.3-0.6,0.6-0.6h139.3c0.3,0,0.6,0.3,0.6,0.6l0,0
		C269.2,56,268.9,56.3,268.5,56.3z"/>
</g>
</svg>
