<?xml version="1.0" encoding="UTF-8" standalone="no"?>
<svg
   width="256"
   height="64"
   viewBox="0 0 256 64"
   fill="none"
   version="1.1"
   id="svg4"
   sodipodi:docname="paper_heading_cargo_invoice.svg"
   inkscape:version="1.2.2 (b0a8486541, 2022-12-01)"
   inkscape:export-filename="paper_heading_cargo_invoice.svg.96dpi.png"
   inkscape:export-xdpi="96"
   inkscape:export-ydpi="96"
   xml:space="preserve"
   xmlns:inkscape="http://www.inkscape.org/namespaces/inkscape"
   xmlns:sodipodi="http://sodipodi.sourceforge.net/DTD/sodipodi-0.dtd"
   xmlns="http://www.w3.org/2000/svg"
   xmlns:svg="http://www.w3.org/2000/svg"
   xmlns:rdf="http://www.w3.org/1999/02/22-rdf-syntax-ns#"
   xmlns:cc="http://creativecommons.org/ns#"
   xmlns:dc="http://purl.org/dc/elements/1.1/"><metadata
     id="metadata10"><rdf:RDF><cc:Work
         rdf:about=""><dc:format>image/svg+xml</dc:format><dc:type
           rdf:resource="http://purl.org/dc/dcmitype/StillImage" /></cc:Work></rdf:RDF></metadata><defs
     id="defs8"><inkscape:path-effect
       effect="powermask"
       id="path-effect537"
       is_visible="true"
       lpeversion="1"
       uri="#mask-powermask-path-effect537"
       invert="false"
       hide_mask="false"
       background="true"
       background_color="#ffffffff" /><rect
       x="-696.29968"
       y="-43.388832"
       width="637.4054"
       height="131.45215"
       id="rect3263" /><inkscape:path-effect
       effect="powermask"
       id="path-effect1533"
       is_visible="true"
       lpeversion="1"
       uri="#mask-powermask-path-effect1533"
       invert="false"
       hide_mask="false"
       background="true"
       background_color="#ffffffff" /><rect
       x="-111.73019"
       y="-119.49218"
       width="354.099"
       height="119.49218"
       id="rect452" /><rect
       x="12.500253"
       y="14.598581"
       width="334.51892"
       height="47.488827"
       id="rect348" /><mask
       maskUnits="userSpaceOnUse"
       id="mask-powermask-path-effect537"><path
         id="mask-powermask-path-effect537_box"
         style="fill:#ffffff;fill-opacity:1"
         d="m -156.82688,-214.98718 h 376.0737 V 28.676595 h -376.0737 z" /><g
         id="g535"
         transform="matrix(1.0402092,0,0,1.0402092,-2.8656518,12.311957)"
         style="fill:#552200"><g
           aria-label="Cargo"
           transform="matrix(2.6010044,0,0,2.6010044,161.5879,145.13955)"
           id="g487"
           style="font-size:40px;line-height:1.25;white-space:pre;shape-inside:url(#rect452);fill:#552200"><path
             d="m -84.210469,-90.85718 c -1.24,1.56 -1.96,2.36 -2.96,3.12 -2,1.56 -4.64,2.44 -7.32,2.44 -6.880001,0 -12.480001,-5.64 -12.480001,-12.6 0,-7.12 5.36,-12.56 12.440001,-12.56 2.56,0 4.96,0.68 6.92,2 1.32,0.84 2.12,1.72 3.24,3.48 h 3.32 c -2.28,-5.08 -7.48,-8.2 -13.6,-8.2 -8.800001,0 -15.320001,6.56 -15.320001,15.4 0,8.68 6.68,15.2 15.520001,15.2 6,0 10.56,-2.8 13.52,-8.28 z"
             style="font-family:'URW Gothic';-inkscape-font-specification:'URW Gothic';fill:#552200"
             id="path477" /><path
             d="m -54.570468,-104.97718 h -2.96 v 3.88 c -2.2,-3.04 -4.84,-4.4 -8.64,-4.4 -6.56,0 -11.52,4.96 -11.52,11.52 0,6.56 5,11.4 11.76,11.4 3.72,0 6.04,-1.2 8.4,-4.36 v 3.84 h 2.96 z m -11.52,2.2 c 4.84,0 8.56,3.76 8.56,8.64 0,5 -3.68,8.84 -8.4,8.84 -4.96,0 -8.76,-3.88 -8.76,-8.88 0,-4.76 3.84,-8.6 8.6,-8.6 z"
             style="font-family:'URW Gothic';-inkscape-font-specification:'URW Gothic';fill:#552200"
             id="path479" /><path
             d="m -49.530446,-83.09718 h 2.96 v -12.76 c -0.04,-3.96 2.16,-6.4 6.2,-6.72 v -2.92 c -3.16,0.16 -5.04,1.24 -6.2,3.64 v -3.12 h -2.96 z"
             style="font-family:'URW Gothic';-inkscape-font-specification:'URW Gothic';fill:#552200"
             id="path481" /><path
             d="m -16.490396,-104.97718 h -2.96 v 3.88 c -2.2,-3.04 -4.88,-4.4 -8.6,-4.4 -6.4,0 -11.16,4.96 -11.16,11.56 0,6.4 4.96,11.36 11.4,11.36 3.96,0 6.64,-1.6 8.36,-4.96 v 1.48 c 0,2.16 -0.24,3.52 -0.88,4.88 -1.16,2.52 -3.76,3.96 -7.16,3.96 -2.44,0 -4.32,-0.72 -5.88,-2.2 -0.76,-0.68 -1.24,-1.36 -2.16,-3 h -2.88 c 1.6,5.12 5.48,7.92 11,7.92 3.8,0 7,-1.44 8.88,-3.92 1.48,-2 2.04,-4.32 2.04,-8.6 z m -11.36,2.2 c 4.72,0 8.4,3.72 8.4,8.48 0,5.12 -3.6,9 -8.36,9 -4.8,0 -8.4,-3.8 -8.4,-8.88 0,-5 3.52,-8.6 8.36,-8.6 z"
             style="font-family:'URW Gothic';-inkscape-font-specification:'URW Gothic';fill:#552200"
             id="path483" /><path
             d="m -0.53038391,-105.49718 c -6.51999999,0 -11.48000009,4.92 -11.48000009,11.32 0,6.76 4.9200001,11.6 11.72000009,11.6 6.40000001,0 11.11999991,-4.84 11.11999991,-11.4 0,-6.68 -4.7599999,-11.52 -11.35999991,-11.52 z m 0,2.72 c 4.84000001,0 8.36000001,3.72 8.36000001,8.84 0,5.04 -3.44,8.64 -8.20000001,8.64 -5.03999999,0 -8.63999999,-3.64 -8.63999999,-8.8 0,-4.96 3.64,-8.68 8.47999999,-8.68 z"
             style="font-family:'URW Gothic';-inkscape-font-specification:'URW Gothic';fill:#552200"
             id="path485" /></g><g
           aria-label="Your crates, our business"
           id="g533"
           style="font-size:32.6668px;line-height:1.25;fill:#552200;stroke-width:0.816671"><path
             d="m -118.78331,-35.723892 6.63544,-11.627977 h 3.36558 l -9.04399,14.738342 -1.46745,8.485712 h -2.85516 l 1.54721,-8.836625 -3.84409,-14.387429 h 3.09441 z"
             style="font-style:italic;font-family:'Roboto Condensed';-inkscape-font-specification:'Roboto Condensed, ';fill:#552200"
             id="path489" /><path
             d="m -110.10619,-33.522711 q 0.52637,-3.716486 2.53614,-5.98147 2.02572,-2.280934 5.10419,-2.201181 1.91407,0.04785 3.190115,1.116541 1.276047,1.052739 1.818366,2.918958 0.558271,1.866218 0.303062,4.115251 l -0.191407,1.62696 q -0.52637,3.700536 -2.552094,5.949569 -2.025722,2.249032 -5.088242,2.169279 -1.91407,-0.04785 -3.19011,-1.10059 -1.27605,-1.052739 -1.83432,-2.918957 -0.54232,-1.866219 -0.28711,-4.099301 z m 2.47234,2.759452 q -0.0479,2.137378 0.65397,3.317722 0.71778,1.180343 2.15333,1.244145 1.85027,0.07975 3.06251,-1.307948 1.21225,-1.403651 1.62696,-4.195004 l 0.239262,-1.866219 0.07975,-1.148442 q 0.04785,-2.153329 -0.685872,-3.333672 -0.71778,-1.180344 -2.13738,-1.244146 -1.88217,-0.07975 -3.14226,1.563157 -1.24415,1.62696 -1.61101,4.529967 l -0.19141,1.579108 z"
             style="font-style:italic;font-family:'Roboto Condensed';-inkscape-font-specification:'Roboto Condensed, ';fill:#552200"
             id="path491" /><path
             d="m -86.228166,-25.643121 q -1.674811,1.91407 -4.131202,1.850268 -1.834317,-0.0319 -2.823253,-1.339849 -0.972986,-1.307948 -0.972986,-3.652685 l 0.07975,-1.451503 1.866218,-11.14946 h 2.727551 l -1.850268,11.197312 -0.0638,1.164393 q -0.0638,1.164392 0.366864,1.930021 0.446616,0.749677 1.323898,0.781578 2.312836,0.111654 3.79624,-2.280934 l 2.201181,-12.79237 h 2.759452 l -2.98276,17.258535 h -2.599946 z"
             style="font-style:italic;font-family:'Roboto Condensed';-inkscape-font-specification:'Roboto Condensed, ';fill:#552200"
             id="path493" /><path
             d="m -70.134024,-38.754503 q -0.685875,-0.143555 -1.228195,-0.143555 -2.089527,0 -3.445327,2.408538 l -2.137378,12.361705 h -2.759452 l 2.99871,-17.258535 2.663748,-0.01595 -0.382814,1.770516 q 1.515306,-2.15333 3.413426,-2.105478 0.382814,0.01595 1.180343,0.239259 z"
             style="font-style:italic;font-family:'Roboto Condensed';-inkscape-font-specification:'Roboto Condensed, ';fill:#552200"
             id="path495" /><path
             d="m -56.257015,-26.185441 q 1.3558,0.04785 2.280934,-0.845381 0.925134,-0.893233 1.291998,-2.520193 l 2.599945,-0.01595 q -0.366863,2.552094 -2.153329,4.195004 -1.786466,1.64291 -4.179054,1.579108 -2.280933,-0.04785 -3.636733,-1.37175 -1.3558,-1.323899 -1.62696,-3.716487 -0.159506,-1.435553 0.01595,-2.887056 l 0.223309,-1.738614 q 0.526369,-4.035499 2.45639,-6.156927 1.945972,-2.121428 5.056336,-2.041675 2.392588,0.0638 3.700536,1.754565 1.323899,1.690762 1.212245,4.514016 l -2.599946,-0.01595 q 0.0957,-3.748388 -2.472341,-3.844091 -3.748388,-0.143555 -4.529967,5.343446 -0.494468,3.397475 -0.398764,4.625671 0.159506,3.094413 2.759451,3.142265 z"
             style="font-style:italic;font-family:'Roboto Condensed';-inkscape-font-specification:'Roboto Condensed, ';fill:#552200"
             id="path497" /><path
             d="m -38.121195,-38.754503 q -0.685875,-0.143555 -1.228195,-0.143555 -2.089527,0 -3.445327,2.408538 l -2.137379,12.361705 h -2.759451 l 2.99871,-17.258535 2.663748,-0.01595 -0.382814,1.770516 q 1.515306,-2.15333 3.413426,-2.105478 0.382814,0.01595 1.180343,0.239259 z"
             style="font-style:italic;font-family:'Roboto Condensed';-inkscape-font-specification:'Roboto Condensed, ';fill:#552200"
             id="path499" /><path
             d="m -29.68334,-24.127815 q -0.0957,-0.478518 -0.07975,-0.941085 l 0.0638,-0.941084 q -1.834318,2.217131 -3.955746,2.217131 -2.073576,0 -3.237969,-1.339849 -1.148442,-1.3558 -1.020837,-3.572932 0.175456,-2.679698 2.201181,-4.290707 2.041675,-1.61101 5.343446,-1.61101 h 1.914071 l 0.27116,-1.834317 q 0.28711,-2.855155 -2.15333,-2.855155 -1.260096,0 -2.105477,0.749677 -0.829431,0.733727 -1.052739,1.930021 l -2.72755,0.01595 q 0.207358,-2.18523 1.977873,-3.668635 1.786465,-1.483404 4.195004,-1.451503 2.328786,0.0319 3.572931,1.435552 1.260097,1.387702 1.020838,3.891944 l -1.403652,8.501662 q -0.143555,0.909184 -0.111654,1.738614 l 0.0957,1.754565 -0.0319,0.27116 z m -3.397474,-2.217132 q 2.073576,0 3.572931,-2.025724 l 0.717776,-4.131202 -1.260096,-0.01595 q -1.62696,0 -2.887056,0.606122 -1.260097,0.590172 -1.786466,1.658861 -0.510419,1.052739 -0.350913,2.296885 0.207358,1.611009 1.993824,1.611009 z"
             style="font-style:italic;font-family:'Roboto Condensed';-inkscape-font-specification:'Roboto Condensed, ';fill:#552200"
             id="path501" /><path
             d="m -15.854178,-45.565404 -0.733727,4.179054 h 2.536143 l -0.398764,2.280934 h -2.520193 l -1.818367,10.734745 -0.0319,0.638023 q -0.0638,1.3558 0.972986,1.3558 0.382814,0.01595 1.148442,-0.159506 l -0.239259,2.408539 q -0.893233,0.319011 -1.802416,0.28711 -1.451504,0 -2.185231,-1.196294 -0.733727,-1.196294 -0.54232,-3.381524 l 1.754565,-10.686893 h -2.568045 l 0.414716,-2.280934 h 2.536143 l 0.733727,-4.179054 z"
             style="font-style:italic;font-family:'Roboto Condensed';-inkscape-font-specification:'Roboto Condensed, ';fill:#552200"
             id="path503" /><path
             d="m -7.2249119,-23.808804 q -2.9030071,-0.0319 -4.3385591,-2.089526 -1.435553,-2.057626 -1.052739,-5.614607 l 0.207357,-1.706713 q 0.494469,-4.019547 2.4404402,-6.284531 1.9619222,-2.280934 4.9765831,-2.201181 2.4563903,0.0638 3.6845855,1.690762 1.24414572,1.61101 1.18034338,4.545918 l -0.14355528,1.91407 -0.2392588,1.64291 -9.2513403,-0.01595 q -0.2073576,1.435553 -0.191407,2.249033 0.031901,1.611009 0.7975293,2.536143 0.7656282,0.909183 2.1852304,0.925134 1.0208376,0.0319 2.0097739,-0.398765 1.004887,-0.446616 2.1054775,-1.547207 l 1.2919975,1.802417 q -1.0208376,1.339849 -2.5201927,1.961922 -1.4993552,0.622073 -3.1422656,0.590171 z m 2.0576257,-15.488019 q -2.8232538,-0.127605 -3.9557455,3.413425 l -0.4306658,1.547207 6.6194934,0.01595 0.079753,-0.414715 q 0.095703,-0.733727 0.095703,-1.531257 -0.063802,-2.903006 -2.4085386,-3.030611 z"
             style="font-style:italic;font-family:'Roboto Condensed';-inkscape-font-specification:'Roboto Condensed, ';fill:#552200"
             id="path505" /><path
             d="m 10.320735,-28.673732 q 0.207358,-1.515306 -1.690762,-2.520193 l -2.1373786,-1.116541 q -1.6588611,-0.925134 -2.3287857,-1.961922 -0.6539741,-1.036788 -0.5742211,-2.408539 0.1276047,-2.18523 1.7864657,-3.620783 1.658861,-1.435553 4.051449,-1.403652 2.3128347,0.0638 3.6207827,1.531257 1.307949,1.451503 1.212245,3.716486 h -2.72755 q 0.0319,-1.291997 -0.574221,-2.025724 -0.606123,-0.749678 -1.6907626,-0.781579 -1.2281951,0 -2.0257245,0.701826 -0.7975293,0.685875 -0.9570352,1.786466 -0.191407,1.291997 1.2600964,2.121428 l 2.6956489,1.37175 q 2.98276,1.658861 2.823254,4.402362 -0.159506,2.344736 -1.882169,3.748388 -1.7226635,1.387701 -4.1950045,1.323898 -2.3766374,-0.0319 -3.8600419,-1.547206 -1.4834046,-1.531257 -1.3877011,-3.939795 l 2.7754021,0.01595 q -0.031901,1.499355 0.6539741,2.280934 0.6858752,0.765628 1.9459715,0.765628 1.3238987,0 2.1852304,-0.669924 0.8772824,-0.669925 1.0208374,-1.770515 z"
             style="font-style:italic;font-family:'Roboto Condensed';-inkscape-font-specification:'Roboto Condensed, ';fill:#552200"
             id="path507" /><path
             d="m 15.408973,-19.486195 -1.658861,-1.196294 q 1.850268,-2.280933 2.296885,-4.529966 l 0.414715,-2.408539 h 2.823254 l -0.334963,2.153329 q -0.574221,3.636734 -3.54103,5.98147 z"
             style="font-style:italic;font-family:'Roboto Condensed';-inkscape-font-specification:'Roboto Condensed, ';fill:#552200"
             id="path509" /><path
             d="m 30.84914,-33.522711 q 0.526369,-3.716486 2.536143,-5.98147 2.025725,-2.280934 5.104188,-2.201181 1.91407,0.04785 3.190117,1.116541 1.276047,1.052739 1.818367,2.918958 0.558271,1.866218 0.303061,4.115251 l -0.191407,1.62696 q -0.526369,3.700536 -2.552094,5.949569 -2.025724,2.249032 -5.088237,2.169279 -1.91407,-0.04785 -3.190117,-1.10059 -1.276047,-1.052739 -1.834317,-2.918957 -0.54232,-1.866219 -0.287111,-4.099301 z m 2.472341,2.759452 q -0.04785,2.137378 0.653974,3.317722 0.717776,1.180343 2.153329,1.244145 1.850268,0.07975 3.062513,-1.307948 1.212244,-1.403651 1.62696,-4.195004 l 0.239258,-1.866219 0.07975,-1.148442 q 0.04785,-2.153329 -0.685875,-3.333672 -0.717776,-1.180344 -2.137378,-1.244146 -1.88217,-0.07975 -3.142266,1.563157 -1.244146,1.62696 -1.611009,4.529967 l -0.191407,1.579108 z"
             style="font-style:italic;font-family:'Roboto Condensed';-inkscape-font-specification:'Roboto Condensed, ';fill:#552200"
             id="path511" /><path
             d="m 54.727168,-25.643121 q -1.674812,1.91407 -4.131202,1.850268 -1.834317,-0.0319 -2.823254,-1.339849 -0.972986,-1.307948 -0.972986,-3.652685 l 0.07975,-1.451503 1.866219,-11.14946 h 2.72755 l -1.850268,11.197312 -0.0638,1.164393 q -0.0638,1.164392 0.366863,1.930021 0.446617,0.749677 1.323899,0.781578 2.312835,0.111654 3.79624,-2.280934 l 2.201181,-12.79237 h 2.759451 l -2.982759,17.258535 h -2.599946 z"
             style="font-style:italic;font-family:'Roboto Condensed';-inkscape-font-specification:'Roboto Condensed, ';fill:#552200"
             id="path513" /><path
             d="m 70.821302,-38.754503 q -0.685875,-0.143555 -1.228195,-0.143555 -2.089527,0 -3.445327,2.408538 l -2.137378,12.361705 H 61.25095 l 2.99871,-17.258535 2.663748,-0.01595 -0.382814,1.770516 q 1.515306,-2.15333 3.413426,-2.105478 0.382814,0.01595 1.180343,0.239259 z"
             style="font-style:italic;font-family:'Roboto Condensed';-inkscape-font-specification:'Roboto Condensed, ';fill:#552200"
             id="path515" /><path
             d="m 85.352297,-23.808804 q -2.647797,-0.0957 -3.748388,-2.376637 l -0.590172,2.057626 h -2.536143 l 4.258807,-24.500101 h 2.743501 l -1.738614,9.139686 q 1.706712,-2.280934 4.115251,-2.217132 2.249033,0.0319 3.381524,1.658861 1.148443,1.61101 1.08464,4.705423 -0.0638,1.706713 -0.382814,3.812191 -0.319012,2.105477 -0.941084,3.604832 -1.738614,4.226906 -5.646508,4.115251 z m 4.258807,-12.186248 q -0.07975,-1.674811 -0.733727,-2.440439 -0.653975,-0.765629 -1.89812,-0.79753 -2.025725,-0.04785 -3.556981,2.376638 l -1.403652,8.246453 q 0.749678,2.249033 2.775402,2.328786 1.866219,0.07975 2.998711,-1.307949 1.132491,-1.403651 1.483404,-4.418312 0.366864,-3.030612 0.334963,-3.987647 z"
             style="font-style:italic;font-family:'Roboto Condensed';-inkscape-font-specification:'Roboto Condensed, ';fill:#552200"
             id="path517" /><path
             d="m 103.201,-25.643121 q -1.67481,1.91407 -4.131203,1.850268 -1.834317,-0.0319 -2.823254,-1.339849 -0.972985,-1.307948 -0.972985,-3.652685 l 0.07975,-1.451503 1.866218,-11.14946 h 2.727551 l -1.850268,11.197312 -0.0638,1.164393 q -0.0638,1.164392 0.366864,1.930021 0.446616,0.749677 1.323898,0.781578 2.312839,0.111654 3.796239,-2.280934 l 2.20118,-12.79237 h 2.75945 l -2.98276,17.258535 h -2.59994 z"
             style="font-style:italic;font-family:'Roboto Condensed';-inkscape-font-specification:'Roboto Condensed, ';fill:#552200"
             id="path519" /><path
             d="m 118.72091,-28.673732 q 0.20736,-1.515306 -1.69076,-2.520193 l -2.13738,-1.116541 q -1.65886,-0.925134 -2.32878,-1.961922 -0.65398,-1.036788 -0.57423,-2.408539 0.12761,-2.18523 1.78647,-3.620783 1.65886,-1.435553 4.05145,-1.403652 2.31283,0.0638 3.62078,1.531257 1.30795,1.451503 1.21225,3.716486 h -2.72755 q 0.0319,-1.291997 -0.57422,-2.025724 -0.60613,-0.749678 -1.69077,-0.781579 -1.22819,0 -2.02572,0.701826 -0.79753,0.685875 -0.95704,1.786466 -0.1914,1.291997 1.2601,2.121428 l 2.69565,1.37175 q 2.98276,1.658861 2.82325,4.402362 -0.1595,2.344736 -1.88217,3.748388 -1.72266,1.387701 -4.195,1.323898 -2.37664,-0.0319 -3.86004,-1.547206 -1.48341,-1.531257 -1.3877,-3.939795 l 2.7754,0.01595 q -0.0319,1.499355 0.65397,2.280934 0.68588,0.765628 1.94597,0.765628 1.3239,0 2.18523,-0.669924 0.87729,-0.669925 1.02084,-1.770515 z"
             style="font-style:italic;font-family:'Roboto Condensed';-inkscape-font-specification:'Roboto Condensed, ';fill:#552200"
             id="path521" /><path
             d="m 127.30233,-24.127815 h -2.75945 l 2.99871,-17.258535 h 2.75945 z m 0.87728,-21.820403 q 0.0319,-0.685875 0.44662,-1.196294 0.41471,-0.510419 1.13249,-0.54232 0.68587,-0.0319 1.13249,0.462567 0.44662,0.494468 0.41472,1.228195 -0.0319,0.701826 -0.46257,1.212245 -0.41472,0.494468 -1.13249,0.510419 -0.70183,0.0319 -1.13249,-0.462567 -0.43067,-0.494468 -0.39877,-1.212245 z"
             style="font-style:italic;font-family:'Roboto Condensed';-inkscape-font-specification:'Roboto Condensed, ';fill:#552200"
             id="path523" /><path
             d="m 137.3193,-41.402301 -0.36687,1.88217 q 1.88217,-2.217132 4.27476,-2.185231 1.64291,0.01595 2.59995,1.116541 0.97298,1.100591 1.10059,2.998711 0.0638,1.10059 -0.0479,2.153329 l -1.88216,11.308966 h -2.74351 l 1.89812,-11.356818 0.0638,-1.260096 q 0,-2.44044 -2.00978,-2.488292 -1.64291,-0.04785 -3.06251,1.866219 l -0.47852,0.685875 -2.16928,12.553112 h -2.75945 l 2.99871,-17.258535 z"
             style="font-style:italic;font-family:'Roboto Condensed';-inkscape-font-specification:'Roboto Condensed, ';fill:#552200"
             id="path525" /><path
             d="m 153.66867,-23.808804 q -2.90301,-0.0319 -4.33856,-2.089526 -1.43556,-2.057626 -1.05274,-5.614607 l 0.20736,-1.706713 q 0.49446,-4.019547 2.44043,-6.284531 1.96193,-2.280934 4.97659,-2.201181 2.45639,0.0638 3.68458,1.690762 1.24415,1.61101 1.18035,4.545918 l -0.14356,1.91407 -0.23926,1.64291 -9.25134,-0.01595 q -0.20736,1.435553 -0.1914,2.249033 0.0319,1.611009 0.79752,2.536143 0.76563,0.909183 2.18524,0.925134 1.02083,0.0319 2.00977,-0.398765 1.00489,-0.446616 2.10548,-1.547207 l 1.29199,1.802417 q -1.02083,1.339849 -2.52019,1.961922 -1.49935,0.622073 -3.14226,0.590171 z m 2.05762,-15.488019 q -2.82325,-0.127605 -3.95574,3.413425 l -0.43067,1.547207 6.61949,0.01595 0.0798,-0.414715 q 0.0957,-0.733727 0.0957,-1.531257 -0.0638,-2.903006 -2.40854,-3.030611 z"
             style="font-style:italic;font-family:'Roboto Condensed';-inkscape-font-specification:'Roboto Condensed, ';fill:#552200"
             id="path527" /><path
             d="m 171.21429,-28.673732 q 0.20736,-1.515306 -1.69076,-2.520193 l -2.13738,-1.116541 q -1.65886,-0.925134 -2.32879,-1.961922 -0.65397,-1.036788 -0.57422,-2.408539 0.12761,-2.18523 1.78647,-3.620783 1.65886,-1.435553 4.05145,-1.403652 2.31283,0.0638 3.62078,1.531257 1.30795,1.451503 1.21224,3.716486 h -2.72755 q 0.0319,-1.291997 -0.57422,-2.025724 -0.60612,-0.749678 -1.69076,-0.781579 -1.22819,0 -2.02572,0.701826 -0.79753,0.685875 -0.95704,1.786466 -0.19141,1.291997 1.2601,2.121428 l 2.69565,1.37175 q 2.98276,1.658861 2.82325,4.402362 -0.15951,2.344736 -1.88217,3.748388 -1.72266,1.387701 -4.195,1.323898 -2.37664,-0.0319 -3.86004,-1.547206 -1.48341,-1.531257 -1.38771,-3.939795 l 2.77541,0.01595 q -0.0319,1.499355 0.65397,2.280934 0.68588,0.765628 1.94597,0.765628 1.3239,0 2.18523,-0.669924 0.87728,-0.669925 1.02084,-1.770515 z"
             style="font-style:italic;font-family:'Roboto Condensed';-inkscape-font-specification:'Roboto Condensed, ';fill:#552200"
             id="path529" /><path
             d="m 185.80908,-28.673732 q 0.20736,-1.515306 -1.69076,-2.520193 l -2.13738,-1.116541 q -1.65886,-0.925134 -2.32879,-1.961922 -0.65397,-1.036788 -0.57422,-2.408539 0.1276,-2.18523 1.78647,-3.620783 1.65886,-1.435553 4.05144,-1.403652 2.31284,0.0638 3.62079,1.531257 1.30795,1.451503 1.21224,3.716486 h -2.72755 q 0.0319,-1.291997 -0.57422,-2.025724 -0.60612,-0.749678 -1.69076,-0.781579 -1.2282,0 -2.02573,0.701826 -0.79753,0.685875 -0.95703,1.786466 -0.19141,1.291997 1.2601,2.121428 l 2.69564,1.37175 q 2.98276,1.658861 2.82326,4.402362 -0.15951,2.344736 -1.88217,3.748388 -1.72266,1.387701 -4.19501,1.323898 -2.37663,-0.0319 -3.86004,-1.547206 -1.4834,-1.531257 -1.3877,-3.939795 l 2.7754,0.01595 q -0.0319,1.499355 0.65398,2.280934 0.68587,0.765628 1.94597,0.765628 1.3239,0 2.18523,-0.669924 0.87728,-0.669925 1.02084,-1.770515 z"
             style="font-style:italic;font-family:'Roboto Condensed';-inkscape-font-specification:'Roboto Condensed, ';fill:#552200"
             id="path531" /></g></g></mask><filter
       id="mask-powermask-path-effect537_inverse"
       inkscape:label="filtermask-powermask-path-effect537"
       style="color-interpolation-filters:sRGB"
       height="100"
       width="100"
       x="-50"
       y="-50"><feColorMatrix
         id="mask-powermask-path-effect537_primitive1"
         values="1"
         type="saturate"
         result="fbSourceGraphic" /><feColorMatrix
         id="mask-powermask-path-effect537_primitive2"
         values="-1 0 0 0 1 0 -1 0 0 1 0 0 -1 0 1 0 0 0 1 0 "
         in="fbSourceGraphic" /></filter></defs><sodipodi:namedview
     pagecolor="#ffffff"
     bordercolor="#666666"
     borderopacity="1"
     objecttolerance="10"
     gridtolerance="10"
     guidetolerance="10"
     inkscape:pageopacity="0"
     inkscape:pageshadow="2"
     inkscape:window-width="1916"
     inkscape:window-height="1034"
     id="namedview6"
     showgrid="false"
     inkscape:snap-bbox="true"
     inkscape:bbox-paths="false"
     inkscape:bbox-nodes="true"
     inkscape:snap-object-midpoints="false"
     inkscape:snap-nodes="false"
     inkscape:snap-page="true"
     inkscape:zoom="2.2404672"
     inkscape:cx="41.286032"
     inkscape:cy="17.183916"
     inkscape:window-x="0"
     inkscape:window-y="44"
     inkscape:window-maximized="1"
     inkscape:current-layer="layer5"
     inkscape:showpageshadow="2"
     inkscape:pagecheckerboard="0"
     inkscape:deskcolor="#d1d1d1" /><g
     inkscape:groupmode="layer"
     id="layer5"
     inkscape:label="CrateOutline"
     style="display:inline"><path
       style="fill:#000000;fill-opacity:1;stroke:#000000;stroke-width:1px;stroke-linecap:butt;stroke-linejoin:miter;stroke-opacity:1"
       d="m -152.55184,-4.363046 -2.77138,-192.393534 c 32.08165,-23.54884 37.94494,-20.39987 70.181666,-1.97398 v 26.35103 h 38.369683 l 0.101774,-24.38476 c 28.031691,-19.12674 31.877355,-18.83635 57.882657,-0.71018 l -0.220178,27.44372 41.563279,-1.73147 -0.0073,-25.83142 c 23.634357,-20.05435 28.953925,-14.5283 55.697839,-3.67578 l 0.25171,29.73174 39.1726,0.19951 0.27543,-23.59013 c 32.54024,-21.4184 38.80957,-23.26862 69.80088,-4.29013 V 0 c 0,0 -1.17348,13.967569 -5.59744,18.768595 -5.23122,5.677087 -21.57916,8.408 -21.57916,8.408 H -116.4823 c 0,0 -15.68693,-5.766264 -21.85036,-11.13669 -6.24993,-5.445799 -14.21918,-20.402951 -14.21918,-20.402951 z"
       id="path637"
       sodipodi:nodetypes="ccccccccccccccccaccac"
       mask="url(#mask-powermask-path-effect537)"
       transform="matrix(0.26286097,0,0,0.26286097,40.960805,56.724903)"
       clip-path="none"
       inkscape:path-effect="#path-effect537"
       inkscape:original-d="m -152.55184,-4.363046 -2.77138,-192.393534 c 32.08165,-23.54884 37.94494,-20.39987 70.181666,-1.97398 v 26.35103 h 38.369683 l 0.101774,-24.38476 c 28.031691,-19.12674 31.877355,-18.83635 57.882657,-0.71018 l -0.220178,27.44372 41.563279,-1.73147 -0.0073,-25.83142 c 23.634357,-20.05435 28.953925,-14.5283 55.697839,-3.67578 l 0.25171,29.73174 39.1726,0.19951 0.27543,-23.59013 c 32.54024,-21.4184 38.80957,-23.26862 69.80088,-4.29013 V 0 c 0,0 -1.17348,13.967569 -5.59744,18.768595 -5.23122,5.677087 -21.57916,8.408 -21.57916,8.408 H -116.4823 c 0,0 -15.68693,-5.766264 -21.85036,-11.13669 -6.24993,-5.445799 -14.21918,-20.402951 -14.21918,-20.402951 z" /><g
       aria-label="Invoice"
       id="text3535"
       style="font-size:40px;line-height:1.25;fill:#000000"><path
         d="m 126.09766,39.921188 q 0,0.820313 -1.09375,0.820313 h -4.41407 q -1.09375,0 -1.09375,-0.820313 0,-0.839843 1.09375,-0.839843 h 1.38672 V 19.511032 h -1.38672 q -1.09375,0 -1.09375,-0.839844 0,-0.820312 1.09375,-0.820312 h 4.41407 q 1.09375,0 1.09375,0.820312 0,0.839844 -1.09375,0.839844 h -1.38672 v 19.570313 h 1.38672 q 1.09375,0 1.09375,0.839843 z"
         style="font-family:'East Syriac Ctesiphon';-inkscape-font-specification:'East Syriac Ctesiphon'"
         id="path335" /><path
         d="m 151.13672,39.921188 q 0,0.820313 -1.09375,0.820313 h -4.41406 q -1.09375,0 -1.09375,-0.820313 0,-0.839843 1.09375,-0.839843 h 1.38671 l -0.0195,-8.027344 q 0,-1.914063 -1.40625,-3.066406 -1.30859,-1.074219 -3.26172,-1.074219 -1.99218,0 -3.53515,1.152344 -0.89844,0.664062 -2.67578,2.753906 l 0.0195,8.261719 h 1.38672 q 1.09375,0 1.09375,0.839843 0,0.820313 -1.09375,0.820313 h -4.41407 q -1.09375,0 -1.09375,-0.820313 0,-0.839843 1.09375,-0.839843 h 1.38672 l -0.0195,-11.582032 h -1.38672 q -1.09375,0 -1.09375,-0.839843 0,-0.820313 1.09375,-0.820313 h 3.02735 v 2.480469 q 3.02734,-3.066406 6.23047,-3.066406 2.5,0 4.33593,1.484375 1.95313,1.582031 1.95313,4.042968 l 0.0195,8.300782 h 1.38672 q 1.09375,0 1.09375,0.839843 z"
         style="font-family:'East Syriac Ctesiphon';-inkscape-font-specification:'East Syriac Ctesiphon'"
         id="path337" /><path
         d="m 177.09375,26.073532 q 0.25391,0.234375 0.25391,0.585938 0,0.742187 -0.9961,0.859375 0.17578,-0.01953 -1.48437,-0.01953 z m -13.63281,0 q 0.2539,0.234375 0.2539,0.585938 0,0.742187 -0.99609,0.859375 0.17578,-0.01953 -1.48438,-0.01953 z m 13.88672,0.585938 q 0,0.742187 -0.9961,0.859375 0.17578,-0.01953 -1.48437,-0.01953 l -6.26953,13.222657 h -2.77344 l -6.34766,-13.222657 q -1.66015,0 -1.48437,0.01953 -0.9961,-0.117188 -0.9961,-0.859375 0,-0.820313 1.03516,-0.820313 h 4.64844 q 1.03515,0 1.03515,0.820313 0,0.742187 -0.99609,0.859375 0.17578,-0.01953 -1.48438,-0.01953 l 5.625,11.582032 h 0.72266 l 5.50781,-11.582032 q -1.66015,0 -1.48437,0.01953 -0.9961,-0.117188 -0.9961,-0.859375 0,-0.820313 1.03516,-0.820313 h 4.66797 q 1.03516,0 1.03516,0.820313 z"
         style="font-family:'East Syriac Ctesiphon';-inkscape-font-specification:'East Syriac Ctesiphon'"
         id="path339" /><path
         d="m 199.71094,33.163376 q 0,3.417969 -2.42188,5.800781 -2.40234,2.382813 -5.83984,2.382813 -3.4375,0 -5.85938,-2.363282 -2.42187,-2.382812 -2.42187,-5.820312 0,-3.4375 2.42187,-5.820313 2.42188,-2.382812 5.85938,-2.382812 3.4375,0 5.83984,2.382812 2.42188,2.382813 2.42188,5.820313 z m -1.48438,0 q 0,-2.8125 -1.99219,-4.746094 -1.97265,-1.953125 -4.80468,-1.953125 -2.8125,0 -4.80469,1.953125 -1.97266,1.933594 -1.97266,4.746094 0,2.792969 1.99219,4.746094 1.99219,1.953125 4.78516,1.953125 2.8125,0 4.80468,-1.933594 1.99219,-1.953125 1.99219,-4.765625 z"
         style="font-family:'East Syriac Ctesiphon';-inkscape-font-specification:'East Syriac Ctesiphon'"
         id="path341" /><path
         d="m 209.69141,21.932907 h -2.42188 v -4.238281 h 2.42188 z m -1.64063,17.148438 V 27.499313 h -1.38672 q -1.09375,0 -1.09375,-0.839843 0,-0.820313 1.09375,-0.820313 h 3.02735 v 13.242188 z m 3.06641,0 q 1.09375,0 1.09375,0.839843 0,0.820313 -1.09375,0.820313 h -4.41407 q -1.09375,0 -1.09375,-0.820313 0,-0.839843 1.09375,-0.839843 z"
         style="font-family:'East Syriac Ctesiphon';-inkscape-font-specification:'East Syriac Ctesiphon'"
         id="path343" /><path
         d="m 234.37891,37.616501 q 0,0.761719 -1.79688,1.933594 -2.85156,1.875 -6.38672,1.875 -3.57422,0 -5.8789,-2.246094 -2.30469,-2.265625 -2.30469,-5.820313 0,-3.59375 2.34375,-5.9375 2.34375,-2.363281 5.9375,-2.363281 3.39844,0 5.72265,2.03125 v -0.644531 q 0.0195,-0.859375 0.72266,-0.859375 0.76172,0 0.76172,0.996094 v 3.359375 q 0,0.996093 -0.76172,0.996093 -0.29297,0 -0.48828,-0.195312 l -0.35156,-1.152344 q -0.29297,-0.996094 -1.54297,-1.914062 -1.52344,-1.113282 -4.14063,-1.113282 -3.00781,0 -4.86328,1.894532 -1.85547,1.875 -1.85547,4.882812 0,2.949219 1.89453,4.785156 1.91407,1.835938 4.86329,1.835938 3.71093,0 6.75781,-2.695313 0.41015,-0.351562 0.64453,-0.351562 0.72266,0 0.72266,0.703125 z"
         style="font-family:'East Syriac Ctesiphon';-inkscape-font-specification:'East Syriac Ctesiphon'"
         id="path345" /><path
         d="m 256,38.280563 q 0,1.074219 -3.28125,2.246094 -2.16797,0.761719 -4.43359,0.761719 -3.71094,0 -6.3086,-2.421875 -2.59765,-2.421875 -2.59765,-6.113281 0,-3.378907 2.48046,-5.644532 2.42188,-2.207031 5.82032,-2.207031 3.71093,0 6.01562,2.402344 2.30469,2.402344 2.26563,6.113281 h -15.07813 q 0.39063,2.929688 2.40235,4.667969 2.03125,1.71875 5,1.71875 3.65234,0 6.42578,-1.992188 0.37109,-0.273437 0.58593,-0.273437 0.70313,0 0.70313,0.742187 z m -1.52344,-6.347656 q -0.44922,-2.5 -2.34375,-4.003906 -1.89453,-1.523438 -4.45312,-1.523438 -2.57813,0 -4.45313,1.503907 -1.875,1.503906 -2.32422,4.023437 z"
         style="font-family:'East Syriac Ctesiphon';-inkscape-font-specification:'East Syriac Ctesiphon'"
         id="path347" /></g></g></svg>
