<?xml version="1.0" encoding="utf-8"?>
<!-- Generator: Adobe Illustrator 27.8.1, SVG Export Plug-In . SVG Version: 6.00 Build 0)  -->
<svg version="1.1" id="Слой_1" xmlns="http://www.w3.org/2000/svg" xmlns:xlink="http://www.w3.org/1999/xlink" x="0px" y="0px"
	 viewBox="0 0 260 69" style="enable-background:new 0 0 260 69;" xml:space="preserve">
<style type="text/css">
	.st0{fill:#C68CFA;}
</style>
<path class="st0" d="M127.7,0H3.5C1.6,0,0,1.5,0,3.3v62.4C0,67.5,1.6,69,3.5,69h124.1c1.9,0,3.5-1.5,3.5-3.3V3.3
	C131.2,1.5,129.6,0,127.7,0z M32.1,33.1L11.7,13.8h20.4V33.1z M90.4,55.2H75.3L55.9,33.9v21.3H40.8V13.8h15.1l19.4,21.3V13.8h15.1
	V55.2z M99.1,55.2V35.9l20.4,19.3H99.1z"/>
<g>
	<g>
		<g>
			<path class="st0" d="M142.5,8.4h1.6v9.8h-1.6V8.4z M143.1,8.4h4.9v1.8h-4.9V8.4z M143.2,16.4h2.8c0.2,0,0.4,0,0.5-0.2
				c0.1-0.1,0.3-0.2,0.3-0.4c0.1-0.2,0.1-0.4,0.1-0.7c0-0.2,0-0.5-0.1-0.7c-0.1-0.2-0.2-0.3-0.3-0.4c-0.1-0.1-0.3-0.2-0.5-0.2h-2.8
				v-1.8h2.7c0.5,0,1,0.1,1.4,0.4c0.4,0.3,0.7,0.6,1,1.1c0.2,0.5,0.3,1,0.3,1.6c0,0.6-0.1,1.1-0.3,1.6c-0.2,0.5-0.5,0.8-1,1.1
				c-0.4,0.2-0.9,0.4-1.4,0.4h-2.7L143.2,16.4L143.2,16.4z"/>
			<path class="st0" d="M149.9,16.4c0.3,0,0.5-0.1,0.7-0.3c0.2-0.2,0.4-0.4,0.5-0.7s0.2-0.7,0.2-1.2V8.4h1.6v6.1
				c0,0.8-0.1,1.5-0.3,2c-0.2,0.6-0.5,1-1,1.3c-0.4,0.3-0.9,0.4-1.5,0.4h-0.1V16.4z M152.1,8.4h3.9v1.8h-3.9V8.4z M155.4,8.4h1.6
				v9.8h-1.6V8.4z"/>
			<path class="st0" d="M161.4,8.4h1l3.3,9.8H164l-2.1-6.7l-2.1,6.7h-1.7L161.4,8.4z M159.7,14.8h4.5v1.8h-4.5V14.8z"/>
			<path class="st0" d="M166.8,8.4h1.6v9.8h-1.6V8.4z M167.5,12.4h5v1.8h-5V12.4z M171.5,8.4h1.6v9.8h-1.6V8.4z"/>
			<path class="st0" d="M175,8.4h1.6v9.8H175V8.4z M175.7,12.4h3.1v1.8h-3.1V12.4z M177.4,13.8l1.5-0.7l3,5h-2L177.4,13.8z
				 M177.4,12.8l2.2-4.4h1.9l-2.9,5.6L177.4,12.8z"/>
			<path class="st0" d="M185.6,16.4h7.3v1.8h-7.3V16.4z M185.6,16.4h1.6v3.8h-1.6V16.4z M185.7,16.4h0.1c0.4,0,0.6-0.2,0.8-0.6
				s0.3-0.9,0.3-1.6V8.4h1.6v5.6c0,0.8-0.1,1.5-0.3,2.1c-0.2,0.6-0.5,1-0.9,1.3c-0.4,0.3-0.9,0.4-1.5,0.4h-0.3V16.4z M187.9,8.4h3.7
				v1.8h-3.7V8.4z M190.9,8.4h1.6v9.8h-1.6V8.4z M191.9,16.4h1.6v3.8h-1.6V16.4z"/>
			<path class="st0" d="M196.2,17.8c-0.5-0.3-0.8-0.7-1.1-1.3c-0.3-0.5-0.4-1.2-0.4-1.9v-2.8c0-0.7,0.1-1.4,0.4-1.9
				c0.3-0.5,0.6-1,1.1-1.3c0.5-0.3,1-0.4,1.7-0.4s1.2,0.2,1.7,0.4c0.5,0.3,0.8,0.7,1.1,1.3c0.3,0.5,0.4,1.2,0.4,1.9v2.8
				c0,0.7-0.1,1.4-0.4,1.9c-0.3,0.5-0.6,1-1.1,1.3c-0.5,0.3-1,0.4-1.7,0.4S196.7,18.1,196.2,17.8z M198.6,16.2
				c0.2-0.1,0.4-0.3,0.5-0.6c0.1-0.3,0.2-0.6,0.2-0.9v-2.9c0-0.3-0.1-0.6-0.2-0.9s-0.3-0.5-0.5-0.6c-0.2-0.1-0.5-0.2-0.8-0.2
				c-0.3,0-0.5,0.1-0.8,0.2s-0.4,0.3-0.5,0.6c-0.1,0.3-0.2,0.6-0.2,0.9v2.9c0,0.3,0.1,0.6,0.2,0.9c0.1,0.3,0.3,0.5,0.5,0.6
				c0.2,0.1,0.5,0.2,0.8,0.2C198.2,16.4,198.4,16.3,198.6,16.2z"/>
			<path class="st0" d="M202.7,8.4h1.6v9.8h-1.6V8.4z M203.4,12.4h3.1v1.8h-3.1V12.4z M205.1,13.8l1.5-0.7l3,5h-2L205.1,13.8z
				 M205.1,12.8l2.2-4.4h1.9l-2.9,5.6L205.1,12.8z"/>
			<path class="st0" d="M209.8,8.4h1.7l2.5,7l-1,1.6L209.8,8.4z M214.4,16.1c-0.2,0.5-0.3,0.9-0.5,1.2c-0.2,0.3-0.4,0.5-0.7,0.7
				c-0.3,0.2-0.6,0.2-0.9,0.2h-1v-1.8h0.6c0.2,0,0.3,0,0.5-0.1c0.1-0.1,0.3-0.2,0.4-0.4c0.1-0.2,0.2-0.4,0.3-0.7l2.2-7h1.7
				L214.4,16.1z"/>
			<path class="st0" d="M223.3,8.4h2.1v9.8H224v-7.6l0.1,0.4l-1.6,6.1H221l-1.6-6l0.1-0.6v7.6h-1.5V8.4h2.1l1.6,6.6L223.3,8.4z"/>
			<path class="st0" d="M227.4,8.4h1.6v9.8h-1.6V8.4z M227.9,8.4h5.2v1.8h-5.2V8.4z M227.9,12.4h4.5v1.8h-4.5V12.4z M227.9,16.4h5.2
				v1.8h-5.2V16.4z"/>
			<path class="st0" d="M234.6,8.4h1.6v9.8h-1.6V8.4z M235.4,12.4h5v1.8h-5V12.4z M239.3,8.4h1.6v9.8h-1.6V8.4z"/>
			<path class="st0" d="M241.7,8.4h6.3v1.8h-6.3V8.4z M244,9.2h1.6v9H244V9.2z"/>
			<path class="st0" d="M251.1,8.4h1l3.3,9.8h-1.7l-2.1-6.7l-2.1,6.7h-1.7L251.1,8.4z M249.4,14.8h4.5v1.8h-4.5V14.8z"/>
			<path class="st0" d="M142.7,26.3h1.9V38h-1.9V26.3z M143.6,31.1h6v2.1h-6V31.1z M148.3,26.3h1.9V38h-1.9V26.3z"/>
			<path class="st0" d="M155.5,26.3h1.2l3.9,11.8h-2.1l-2.5-8l-2.5,8h-2.1L155.5,26.3z M153.5,34h5.4v2.1h-5.4V34z"/>
			<path class="st0" d="M161.1,26.3h2.1l3,8.4l-1.2,2L161.1,26.3z M166.6,35.6c-0.2,0.6-0.4,1-0.6,1.4c-0.2,0.4-0.5,0.7-0.8,0.8
				c-0.3,0.2-0.7,0.3-1.1,0.3h-1.2v-2.1h0.8c0.2,0,0.4,0,0.6-0.2s0.3-0.3,0.5-0.5c0.1-0.2,0.2-0.5,0.3-0.8l2.6-8.4h2L166.6,35.6z"/>
			<path class="st0" d="M172,34.3c-0.5-0.3-0.8-0.8-1-1.4c-0.2-0.6-0.4-1.4-0.4-2.2v-4.4h1.9v4.4c0,0.6,0.1,1.1,0.4,1.4
				c0.2,0.3,0.6,0.5,1,0.5c0.6,0,1-0.2,1.4-0.5c0.3-0.4,0.5-0.9,0.5-1.5v-0.9h0.5v1.9c0,0.7-0.1,1.3-0.3,1.8
				c-0.2,0.5-0.5,0.9-0.9,1.1c-0.4,0.3-0.8,0.4-1.4,0.4C173,34.8,172.4,34.6,172,34.3z M175.8,26.3h1.9V38h-1.9V26.3L175.8,26.3z"/>
			<path class="st0" d="M180,26.3h1.9V38H180V26.3z M180.9,31.1h6v2.1h-6V31.1z M185.6,26.3h1.9V38h-1.9V26.3z"/>
			<path class="st0" d="M189.9,26.3h1.9V38h-1.9V26.3z M190.8,35.9h2.8c0.2,0,0.4-0.1,0.6-0.2c0.2-0.1,0.3-0.3,0.4-0.5
				s0.2-0.5,0.2-0.8c0-0.3,0-0.6-0.1-0.8c-0.1-0.2-0.2-0.4-0.4-0.5c-0.2-0.1-0.4-0.2-0.6-0.2h-2.8v-2.1h2.8c0.6,0,1.2,0.2,1.7,0.5
				s0.9,0.7,1.1,1.3c0.3,0.6,0.4,1.2,0.4,1.9c0,0.7-0.1,1.4-0.4,1.9c-0.3,0.6-0.6,1-1.1,1.3s-1.1,0.4-1.7,0.4h-2.8L190.8,35.9
				L190.8,35.9z M199.9,38h-2V26.3h2V38z"/>
			<path class="st0" d="M208.1,38v-9.4l0.2,0.2l-3.9,9.2H202V26.3h1.9v9.5l-0.2-0.2l3.9-9.3h2.3V38L208.1,38L208.1,38z M208.3,22.7
				c0,0.9-0.2,1.5-0.6,2s-1,0.7-1.7,0.7h-0.1c-0.8,0-1.3-0.2-1.7-0.7c-0.4-0.5-0.6-1.1-0.6-2l1.6,0c0,0.4,0.1,0.6,0.2,0.8
				c0.1,0.2,0.3,0.3,0.6,0.3h0.1c0.2,0,0.4-0.1,0.6-0.3s0.2-0.5,0.2-0.8L208.3,22.7z"/>
			<path class="st0" d="M217.7,37.6c-0.6-0.4-1-0.9-1.3-1.5c-0.3-0.7-0.5-1.4-0.5-2.3v-3.3c0-0.9,0.2-1.6,0.5-2.3
				c0.3-0.7,0.8-1.2,1.3-1.5c0.6-0.4,1.2-0.5,2-0.5c0.7,0,1.4,0.2,2,0.5c0.6,0.4,1,0.9,1.3,1.5c0.3,0.7,0.5,1.4,0.5,2.3v3.3
				c0,0.9-0.2,1.6-0.5,2.3s-0.8,1.2-1.3,1.5s-1.2,0.5-2,0.5C218.9,38.2,218.3,38,217.7,37.6z M220.6,35.7c0.3-0.2,0.5-0.4,0.6-0.7
				s0.2-0.7,0.2-1.1v-3.4c0-0.4-0.1-0.8-0.2-1.1c-0.1-0.3-0.4-0.6-0.6-0.7c-0.3-0.2-0.6-0.3-0.9-0.3c-0.4,0-0.7,0.1-0.9,0.3
				c-0.3,0.2-0.5,0.4-0.6,0.7c-0.1,0.3-0.2,0.7-0.2,1.1v3.4c0,0.4,0.1,0.8,0.2,1.1c0.1,0.3,0.4,0.6,0.6,0.7s0.6,0.3,0.9,0.3
				C220,36,220.3,35.9,220.6,35.7z"/>
			<path class="st0" d="M224.1,26.3h7.6v2.1h-7.6V26.3z M226.9,27.2h1.9V38h-1.9V27.2z"/>
			<path class="st0" d="M232,35.9h8.8V38H232V35.9z M232,35.9h1.9v4.6H232V35.9z M232.1,35.9h0.2c0.4,0,0.8-0.2,1-0.7
				c0.2-0.4,0.4-1.1,0.4-1.9v-7h1.9V33c0,1-0.1,1.8-0.3,2.5c-0.2,0.7-0.6,1.2-1,1.6c-0.5,0.4-1.1,0.5-1.8,0.5h-0.3L232.1,35.9
				L232.1,35.9z M234.7,26.3h4.5v2.1h-4.5V26.3z M238.4,26.3h1.9V38h-1.9V26.3z M239.6,35.9h1.9v4.6h-1.9V35.9z"/>
			<path class="st0" d="M243.1,26.3h1.9V38h-1.9V26.3z M243.8,26.3h6.2v2.1h-6.2V26.3z M243.8,31.1h5.4v2.1h-5.4V31.1z M243.8,35.9
				h6.2V38h-6.2V35.9z"/>
			<path class="st0" d="M251.4,35.9c0.3,0,0.6-0.1,0.9-0.3c0.2-0.2,0.4-0.5,0.6-0.9s0.2-0.8,0.2-1.4v-7h1.9v7.3c0,1-0.1,1.8-0.4,2.4
				s-0.7,1.2-1.2,1.5c-0.5,0.4-1.1,0.5-1.9,0.5h-0.1V35.9z M254.1,26.3h4.7v2.1h-4.7V26.3z M258.1,26.3h1.9V38h-1.9V26.3z"/>
			<path class="st0" d="M142.7,46.2h2.4l3.8,9l-0.2,0.2v-9.2h1.9v11.8h-2.4l-3.8-8.9l0.2-0.2v9.1h-1.9V46.2z"/>
			<path class="st0" d="M153,57.4c-0.4-0.4-0.6-1.1-0.6-2c0-0.8,0.2-1.5,0.7-1.9s1.1-0.6,2-0.6h1.9l0.1,1.7H155
				c-0.3,0-0.5,0.1-0.7,0.2c-0.2,0.1-0.2,0.3-0.2,0.6c0,0.3,0.1,0.5,0.3,0.6c0.2,0.1,0.5,0.2,0.8,0.2c0.5,0,0.9-0.1,1.2-0.2
				c0.2-0.1,0.4-0.3,0.4-0.6l0.2,1.2c0,0.3-0.2,0.6-0.4,0.8c-0.2,0.2-0.5,0.4-0.8,0.5c-0.3,0.1-0.7,0.2-1,0.2
				C153.9,58.1,153.4,57.8,153,57.4z M156.8,52.6c0-0.4-0.1-0.7-0.3-0.9s-0.6-0.3-1-0.3c-0.3,0-0.5,0-0.8,0.2s-0.5,0.2-0.7,0.4
				l-1.2-1.4c0.3-0.4,0.7-0.7,1.2-0.9c0.5-0.2,1-0.3,1.6-0.3c0.6,0,1.2,0.1,1.7,0.4c0.5,0.2,0.8,0.6,1,1.1c0.2,0.5,0.4,1,0.4,1.7
				v5.4h-1.8L156.8,52.6L156.8,52.6z"/>
			<path class="st0" d="M160.5,49.5h1.9v8.4h-1.9V49.5z M164.7,52.8c0-0.4-0.1-0.7-0.3-1c-0.2-0.2-0.5-0.3-0.9-0.3
				c-0.4,0-0.6,0.1-0.8,0.3c-0.2,0.2-0.3,0.6-0.3,1l-0.2-1.9c0.2-0.5,0.5-0.9,0.8-1.2s0.7-0.4,1.2-0.4c0.8,0,1.4,0.3,1.8,0.9
				c0.4,0.6,0.6,1.4,0.6,2.5v5.1h-1.9L164.7,52.8L164.7,52.8z"/>
			<path class="st0" d="M169.9,57.6c-0.5-0.3-0.8-0.7-1.1-1.2c-0.3-0.5-0.4-1.2-0.4-2V53c0-0.8,0.1-1.4,0.4-2c0.2-0.5,0.6-1,1.1-1.2
				c0.5-0.3,1-0.4,1.7-0.4c0.7,0,1.2,0.1,1.7,0.4c0.5,0.3,0.8,0.7,1.1,1.2c0.2,0.5,0.4,1.2,0.4,2v1.4c0,0.8-0.1,1.4-0.4,2
				c-0.2,0.5-0.6,1-1.1,1.2c-0.5,0.3-1,0.4-1.7,0.4C170.9,58.1,170.3,57.9,169.9,57.6z M172.5,55.5c0.2-0.3,0.3-0.6,0.3-1.1V53
				c0-0.5-0.1-0.8-0.3-1.1s-0.5-0.4-0.9-0.4c-0.4,0-0.7,0.1-0.9,0.4s-0.3,0.6-0.3,1.1v1.4c0,0.5,0.1,0.8,0.3,1.1
				c0.2,0.3,0.5,0.4,0.9,0.4C172,55.9,172.3,55.8,172.5,55.5z"/>
			<path class="st0" d="M175.3,46.2h7.6v2.1h-7.6L175.3,46.2L175.3,46.2z M178.1,47.1h1.9v10.8h-1.9V47.1z"/>
			<path class="st0" d="M183.6,49.5h2.1v8.4h-2.1V49.5z M187.4,51.6c-0.1-0.1-0.3-0.1-0.5-0.1c-0.4,0-0.7,0.1-0.9,0.4
				c-0.2,0.3-0.3,0.7-0.3,1.2l-0.2-2.2c0.2-0.5,0.5-0.9,0.8-1.2c0.3-0.3,0.7-0.4,1.1-0.4c0.3,0,0.6,0.1,0.8,0.2
				c0.2,0.1,0.5,0.3,0.6,0.5l-1.1,1.8C187.6,51.8,187.5,51.7,187.4,51.6z"/>
			<path class="st0" d="M190,57.4c-0.4-0.4-0.6-1.1-0.6-2c0-0.8,0.2-1.5,0.7-1.9c0.4-0.4,1.1-0.6,2-0.6h1.9l0.1,1.7H192
				c-0.3,0-0.5,0.1-0.7,0.2c-0.2,0.1-0.2,0.3-0.2,0.6c0,0.3,0.1,0.5,0.3,0.6c0.2,0.1,0.5,0.2,0.8,0.2c0.5,0,0.9-0.1,1.2-0.2
				c0.2-0.1,0.4-0.3,0.4-0.6l0.2,1.2c0,0.3-0.2,0.6-0.4,0.8s-0.5,0.4-0.8,0.5c-0.3,0.1-0.7,0.2-1,0.2C191,58.1,190.4,57.8,190,57.4z
				 M193.8,52.6c0-0.4-0.1-0.7-0.3-0.9s-0.6-0.3-1-0.3c-0.3,0-0.5,0-0.8,0.2s-0.5,0.2-0.7,0.4l-1.2-1.4c0.3-0.4,0.7-0.7,1.2-0.9
				c0.5-0.2,1-0.3,1.6-0.3c0.6,0,1.2,0.1,1.7,0.4c0.5,0.2,0.8,0.6,1,1.1c0.2,0.5,0.4,1,0.4,1.7v5.4h-1.8L193.8,52.6L193.8,52.6z"/>
			<path class="st0" d="M199,57.9c-0.4-0.1-0.8-0.2-1.2-0.4c-0.4-0.2-0.7-0.4-1-0.6l1.2-1.7c0.4,0.3,0.7,0.5,1.1,0.6
				c0.4,0.1,0.8,0.2,1.1,0.2c0.5,0,0.8-0.1,1.1-0.2c0.2-0.1,0.4-0.3,0.4-0.5c0-0.2-0.1-0.3-0.2-0.4c-0.1-0.1-0.2-0.2-0.4-0.2
				c-0.2,0-0.4-0.1-0.7-0.1c-0.1,0-0.2,0-0.3,0c-0.1,0-0.2,0-0.3,0c0,0,0,0-0.1,0c0,0,0,0-0.1,0c-0.6-0.1-1-0.2-1.3-0.3
				c-0.3-0.1-0.6-0.3-0.8-0.7c-0.2-0.3-0.3-0.8-0.3-1.5c0-0.6,0.1-1,0.4-1.4c0.2-0.4,0.6-0.7,1-0.9s1-0.3,1.6-0.3
				c0.4,0,0.7,0,1.1,0.1c0.4,0.1,0.7,0.2,1.1,0.4s0.7,0.4,0.9,0.6l-1.1,1.6c-0.3-0.2-0.7-0.4-1-0.5c-0.4-0.1-0.7-0.2-1-0.2
				c-0.4,0-0.7,0-0.9,0.2c-0.2,0.1-0.3,0.2-0.3,0.4c0,0.1,0.1,0.2,0.2,0.3c0.1,0.1,0.3,0.1,0.4,0.2c0.2,0,0.4,0.1,0.8,0.1
				c0,0,0.1,0,0.1,0s0.1,0,0.1,0c0,0,0,0,0.1,0c0,0,0,0,0.1,0c0.6,0.1,1,0.2,1.4,0.3c0.4,0.1,0.7,0.4,0.9,0.7
				c0.2,0.4,0.4,0.9,0.4,1.6c0,0.6-0.1,1.1-0.4,1.5c-0.2,0.4-0.6,0.7-1.1,1c-0.5,0.2-1,0.3-1.7,0.3C199.9,58.1,199.5,58,199,57.9z"
				/>
			<path class="st0" d="M206.4,57.6c-0.5-0.3-0.9-0.7-1.2-1.3c-0.3-0.6-0.4-1.2-0.4-2v-0.9c0-0.8,0.1-1.5,0.4-2.1
				c0.3-0.6,0.6-1,1.1-1.3c0.5-0.3,1.1-0.5,1.8-0.5c0.6,0,1.2,0.2,1.7,0.6c0.5,0.4,0.8,0.9,1,1.6c0.2,0.7,0.4,1.5,0.4,2.5v0.6h-5
				v-1.5h3.3l0-0.2c-0.1-0.5-0.2-0.9-0.4-1.1c-0.2-0.3-0.5-0.4-0.9-0.4c-0.5,0-0.8,0.2-1.1,0.5c-0.3,0.3-0.4,0.8-0.4,1.4v1.1
				c0,0.6,0.1,1,0.4,1.3c0.3,0.3,0.7,0.5,1.2,0.5c0.3,0,0.5-0.1,0.8-0.2c0.3-0.1,0.5-0.3,0.7-0.4l1.3,1.3c-0.4,0.4-0.8,0.7-1.3,0.9
				c-0.5,0.2-1,0.3-1.5,0.3C207.5,58.1,206.9,57.9,206.4,57.6z"/>
			<path class="st0" d="M212.9,49.5h1.9v8.4h-1.9V49.5z M217.1,52.8c0-0.4-0.1-0.7-0.3-1c-0.2-0.2-0.5-0.3-0.9-0.3
				c-0.4,0-0.6,0.1-0.8,0.3c-0.2,0.2-0.3,0.6-0.3,1l-0.2-1.9c0.2-0.5,0.5-0.9,0.8-1.2c0.3-0.3,0.7-0.4,1.2-0.4
				c0.8,0,1.4,0.3,1.8,0.9c0.4,0.6,0.6,1.4,0.6,2.5v5.1h-1.9V52.8z"/>
		</g>
	</g>
	<path class="st0" d="M257.9,62.7H143.6c-0.4,0-0.7-0.3-0.7-0.7l0,0c0-0.4,0.3-0.7,0.7-0.7h114.3c0.4,0,0.7,0.3,0.7,0.7l0,0
		C258.6,62.4,258.3,62.7,257.9,62.7z"/>
</g>
</svg>
