<svg width="200" height="29" viewBox="0 0 200 29" fill="none" xmlns="http://www.w3.org/2000/svg">
<g clip-path="url(#clip0_14_168)">
<path d="M1.48148 0H0V29H1.48148V0Z" fill="black"/>
<path d="M4.44443 0H2.96295V29H4.44443V0Z" fill="black"/>
<path d="M7.40742 0H5.92593V29H7.40742V0Z" fill="black"/>
<path d="M13.3333 0H11.8518V29H13.3333V0Z" fill="black"/>
<path d="M19.2593 0H14.8148V29H19.2593V0Z" fill="black"/>
<path d="M22.2222 0H20.7408V29H22.2222V0Z" fill="black"/>
<path d="M28.1481 0H23.7037V29H28.1481V0Z" fill="black"/>
<path d="M34.0741 0H32.5926V29H34.0741V0Z" fill="black"/>
<path d="M42.963 0H38.5185V29H42.963V0Z" fill="black"/>
<path d="M48.8889 0H44.4445V29H48.8889V0Z" fill="black"/>
<path d="M51.8518 0H50.3704V29H51.8518V0Z" fill="black"/>
<path d="M57.7778 0H56.2963V29H57.7778V0Z" fill="black"/>
<path d="M60.7407 0H59.2592V29H60.7407V0Z" fill="black"/>
<path d="M66.6667 0H65.1852V29H66.6667V0Z" fill="black"/>
<path d="M75.5556 0H71.1111V29H75.5556V0Z" fill="black"/>
<path d="M78.5185 0H77.037V29H78.5185V0Z" fill="black"/>
<path d="M84.4444 0H80V29H84.4444V0Z" fill="black"/>
<path d="M90.3704 0H85.9259V29H90.3704V0Z" fill="black"/>
<path d="M93.3333 0H91.8519V29H93.3333V0Z" fill="black"/>
<path d="M96.2963 0H94.8148V29H96.2963V0Z" fill="black"/>
<path d="M105.185 0H100.741V29H105.185V0Z" fill="black"/>
<path d="M111.111 0H109.63V29H111.111V0Z" fill="black"/>
<path d="M114.074 0H112.593V29H114.074V0Z" fill="black"/>
<path d="M117.037 0H115.556V29H117.037V0Z" fill="black"/>
<path d="M120 0H118.519V29H120V0Z" fill="black"/>
<path d="M128.889 0H124.444V29H128.889V0Z" fill="black"/>
<path d="M137.778 0H133.333V29H137.778V0Z" fill="black"/>
<path d="M143.704 0H139.259V29H143.704V0Z" fill="black"/>
<path d="M146.667 0H145.185V29H146.667V0Z" fill="black"/>
<path d="M152.593 0H148.148V29H152.593V0Z" fill="black"/>
<path d="M158.519 0H157.037V29H158.519V0Z" fill="black"/>
<path d="M161.481 0H160V29H161.481V0Z" fill="black"/>
<path d="M167.407 0H165.926V29H167.407V0Z" fill="black"/>
<path d="M173.333 0H168.889V29H173.333V0Z" fill="black"/>
<path d="M179.259 0H177.778V29H179.259V0Z" fill="black"/>
<path d="M185.185 0H183.704V29H185.185V0Z" fill="black"/>
<path d="M191.111 0H186.667V29H191.111V0Z" fill="black"/>
<path d="M197.037 0H192.593V29H197.037V0Z" fill="black"/>
<path d="M200 0H198.519V29H200V0Z" fill="black"/>
</g>
<defs>
<clipPath id="clip0_14_168">
<rect width="200" height="29" fill="white"/>
</clipPath>
</defs>
</svg>
