<svg width="256" height="32" viewBox="0 0 256 32" fill="none" xmlns="http://www.w3.org/2000/svg">
<path fill-rule="evenodd" clip-rule="evenodd" d="M10.3599 9.76624C10.2014 9.63414 10.0876 9.45694 10.0342 9.25865C9.98074 9.06037 9.99014 8.8506 10.0611 8.65779C10.1321 8.46498 10.2612 8.29845 10.431 8.18078C10.6008 8.06311 10.803 8 11.0102 8H15.99C16.0972 8 16.2 8.04216 16.2757 8.11722C16.3515 8.19227 16.3941 8.29407 16.3941 8.40021V14.793L10.3599 9.76624ZM23.4014 8H18.0385C17.9035 8 17.7739 8.05081 17.6784 8.14124C17.5829 8.23168 17.5293 8.35434 17.5293 8.48223V23.5178C17.5293 23.6457 17.5829 23.7683 17.6784 23.8588C17.7739 23.9492 17.9035 24 18.0385 24H22.0384C22.1735 24 22.303 23.9492 22.3985 23.8588C22.494 23.7683 22.5476 23.6457 22.5476 23.5178V15.3911L27.9868 23.7703C28.0323 23.8405 28.0961 23.8985 28.1721 23.9387C28.248 23.9789 28.3336 24 28.4206 24H33.9606C34.0956 24 34.2252 23.9492 34.3207 23.8588C34.4162 23.7683 34.4698 23.6457 34.4698 23.5178V8.48223C34.4698 8.4189 34.4566 8.3562 34.431 8.29769C34.4055 8.23918 34.3679 8.18602 34.3207 8.14124C34.2734 8.09646 34.2172 8.06094 34.1554 8.03671C34.0937 8.01247 34.0274 8 33.9606 8H29.8395C29.7044 8 29.5749 8.05081 29.4794 8.14124C29.3839 8.23168 29.3302 8.35434 29.3302 8.48223V16.695L23.8352 8.2297C23.7897 8.15951 23.7259 8.10154 23.6499 8.06133C23.574 8.02111 23.4884 8 23.4014 8ZM41.9657 22.7414C41.9122 22.5431 41.7985 22.3659 41.6399 22.2338L35.6058 17.207V23.5999C35.6058 23.6524 35.6162 23.7044 35.6366 23.753C35.6569 23.8016 35.6866 23.8457 35.7241 23.8828C35.7617 23.92 35.8062 23.9495 35.8552 23.9696C35.9043 23.9897 35.9568 24.0001 36.0099 24.0001H40.9897C41.1969 24.0001 41.3991 23.937 41.5689 23.8193C41.7386 23.7016 41.8678 23.5351 41.9387 23.3423C42.0097 23.1495 42.0191 22.9397 41.9657 22.7414Z" fill="#A46106"/>
<path d="M245.892 14.244C246.652 14.244 247.232 14.436 247.632 14.82C248.032 15.204 248.232 15.824 248.232 16.68V21H245.94V17.388C245.94 16.884 245.872 16.536 245.736 16.344C245.6 16.144 245.4 16.044 245.136 16.044C244.768 16.044 244.512 16.208 244.368 16.536C244.224 16.856 244.152 17.312 244.152 17.904V21H241.86V17.388C241.86 16.908 241.796 16.564 241.668 16.356C241.54 16.148 241.348 16.044 241.092 16.044C240.7 16.044 240.432 16.22 240.288 16.572C240.152 16.924 240.084 17.432 240.084 18.096V21H237.792V14.364H239.52L239.856 15.18H239.916C240.092 14.908 240.344 14.684 240.672 14.508C241.008 14.332 241.42 14.244 241.908 14.244C242.396 14.244 242.796 14.328 243.108 14.496C243.428 14.656 243.688 14.88 243.888 15.168H243.96C244.168 14.872 244.436 14.644 244.764 14.484C245.1 14.324 245.476 14.244 245.892 14.244Z" fill="#A46106"/>
<path d="M236.175 14.244C236.303 14.244 236.435 14.252 236.571 14.268C236.707 14.284 236.807 14.3 236.871 14.316L236.667 16.476C236.587 16.46 236.487 16.444 236.367 16.428C236.255 16.412 236.095 16.404 235.887 16.404C235.695 16.404 235.487 16.432 235.263 16.488C235.047 16.544 234.859 16.668 234.699 16.86C234.539 17.044 234.459 17.336 234.459 17.736V21H232.167V14.364H233.871L234.231 15.42H234.339C234.523 15.092 234.779 14.816 235.107 14.592C235.443 14.36 235.799 14.244 236.175 14.244Z" fill="#A46106"/>
<path d="M230.862 17.664C230.862 18.776 230.566 19.632 229.974 20.232C229.382 20.824 228.57 21.12 227.538 21.12C226.898 21.12 226.33 20.988 225.834 20.724C225.338 20.452 224.946 20.06 224.658 19.548C224.378 19.028 224.238 18.4 224.238 17.664C224.238 16.568 224.534 15.724 225.126 15.132C225.718 14.54 226.534 14.244 227.574 14.244C228.214 14.244 228.778 14.376 229.266 14.64C229.762 14.904 230.15 15.292 230.43 15.804C230.718 16.308 230.862 16.928 230.862 17.664ZM226.566 17.664C226.566 18.232 226.642 18.668 226.794 18.972C226.946 19.268 227.202 19.416 227.562 19.416C227.914 19.416 228.162 19.268 228.306 18.972C228.458 18.668 228.534 18.232 228.534 17.664C228.534 17.096 228.458 16.668 228.306 16.38C228.162 16.092 227.91 15.948 227.55 15.948C227.206 15.948 226.954 16.092 226.794 16.38C226.642 16.668 226.566 17.096 226.566 17.664Z" fill="#A46106"/>
<path d="M220.47 21H218.19V12.432H223.254V14.292H220.47V15.924H223.038V17.784H220.47V21Z" fill="#A46106"/>
<path d="M211.053 14.244C211.741 14.244 212.301 14.436 212.733 14.82C213.165 15.204 213.381 15.824 213.381 16.68V21H211.089V17.376C211.089 16.936 211.025 16.604 210.897 16.38C210.769 16.156 210.565 16.044 210.285 16.044C209.853 16.044 209.561 16.22 209.409 16.572C209.265 16.924 209.193 17.432 209.193 18.096V21H206.901V14.364H208.629L208.941 15.24H209.025C209.233 14.928 209.505 14.684 209.841 14.508C210.185 14.332 210.589 14.244 211.053 14.244Z" fill="#A46106"/>
<path d="M205.597 17.664C205.597 18.776 205.301 19.632 204.709 20.232C204.117 20.824 203.305 21.12 202.273 21.12C201.633 21.12 201.065 20.988 200.569 20.724C200.073 20.452 199.681 20.06 199.393 19.548C199.113 19.028 198.973 18.4 198.973 17.664C198.973 16.568 199.269 15.724 199.861 15.132C200.453 14.54 201.269 14.244 202.309 14.244C202.949 14.244 203.513 14.376 204.001 14.64C204.497 14.904 204.885 15.292 205.165 15.804C205.453 16.308 205.597 16.928 205.597 17.664ZM201.301 17.664C201.301 18.232 201.377 18.668 201.529 18.972C201.681 19.268 201.937 19.416 202.297 19.416C202.649 19.416 202.897 19.268 203.041 18.972C203.193 18.668 203.269 18.232 203.269 17.664C203.269 17.096 203.193 16.668 203.041 16.38C202.897 16.092 202.645 15.948 202.285 15.948C201.941 15.948 201.689 16.092 201.529 16.38C201.377 16.668 201.301 17.096 201.301 17.664Z" fill="#A46106"/>
<path d="M196.522 11.688C196.85 11.688 197.134 11.756 197.374 11.892C197.622 12.028 197.746 12.3 197.746 12.708C197.746 13.1 197.622 13.368 197.374 13.512C197.134 13.648 196.85 13.716 196.522 13.716C196.186 13.716 195.898 13.648 195.658 13.512C195.426 13.368 195.31 13.1 195.31 12.708C195.31 12.3 195.426 12.028 195.658 11.892C195.898 11.756 196.186 11.688 196.522 11.688ZM197.662 14.364V21H195.37V14.364H197.662Z" fill="#A46106"/>
<path d="M193.091 19.308C193.299 19.308 193.487 19.288 193.655 19.248C193.831 19.2 194.011 19.144 194.195 19.08V20.748C193.947 20.852 193.683 20.94 193.403 21.012C193.123 21.084 192.767 21.12 192.335 21.12C191.903 21.12 191.523 21.052 191.195 20.916C190.875 20.78 190.623 20.548 190.439 20.22C190.255 19.884 190.163 19.416 190.163 18.816V16.08H189.359V15.144L190.379 14.424L190.967 13.032H192.467V14.364H194.099V16.08H192.467V18.66C192.467 19.092 192.675 19.308 193.091 19.308Z" fill="#A46106"/>
<path d="M187.101 11.688C187.429 11.688 187.713 11.756 187.953 11.892C188.201 12.028 188.325 12.3 188.325 12.708C188.325 13.1 188.201 13.368 187.953 13.512C187.713 13.648 187.429 13.716 187.101 13.716C186.765 13.716 186.477 13.648 186.237 13.512C186.005 13.368 185.889 13.1 185.889 12.708C185.889 12.3 186.005 12.028 186.237 11.892C186.477 11.756 186.765 11.688 187.101 11.688ZM188.241 14.364V21H185.949V14.364H188.241Z" fill="#A46106"/>
<path d="M184.669 18.96C184.669 19.376 184.573 19.748 184.381 20.076C184.197 20.404 183.897 20.66 183.481 20.844C183.073 21.028 182.533 21.12 181.861 21.12C181.389 21.12 180.965 21.092 180.589 21.036C180.221 20.988 179.845 20.892 179.461 20.748V18.912C179.885 19.104 180.313 19.244 180.745 19.332C181.177 19.412 181.517 19.452 181.765 19.452C182.261 19.452 182.509 19.34 182.509 19.116C182.509 19.02 182.469 18.936 182.389 18.864C182.309 18.792 182.165 18.712 181.957 18.624C181.757 18.536 181.469 18.416 181.093 18.264C180.541 18.032 180.129 17.768 179.857 17.472C179.585 17.168 179.449 16.744 179.449 16.2C179.449 15.552 179.697 15.064 180.193 14.736C180.697 14.408 181.361 14.244 182.185 14.244C182.625 14.244 183.037 14.292 183.421 14.388C183.805 14.484 184.205 14.624 184.621 14.808L183.997 16.284C183.669 16.132 183.337 16.012 183.001 15.924C182.665 15.836 182.397 15.792 182.197 15.792C181.821 15.792 181.633 15.884 181.633 16.068C181.633 16.148 181.665 16.22 181.729 16.284C181.801 16.348 181.933 16.42 182.125 16.5C182.317 16.58 182.597 16.696 182.965 16.848C183.349 17 183.665 17.168 183.913 17.352C184.169 17.528 184.357 17.744 184.477 18C184.605 18.248 184.669 18.568 184.669 18.96Z" fill="#A46106"/>
<path d="M176.999 11.688C177.327 11.688 177.611 11.756 177.851 11.892C178.099 12.028 178.223 12.3 178.223 12.708C178.223 13.1 178.099 13.368 177.851 13.512C177.611 13.648 177.327 13.716 176.999 13.716C176.663 13.716 176.375 13.648 176.135 13.512C175.903 13.368 175.787 13.1 175.787 12.708C175.787 12.3 175.903 12.028 176.135 11.892C176.375 11.756 176.663 11.688 176.999 11.688ZM178.139 14.364V21H175.847V14.364H178.139Z" fill="#A46106"/>
<path d="M174.252 14.364V21H172.524L172.236 20.172H172.104C171.896 20.508 171.612 20.752 171.252 20.904C170.892 21.048 170.508 21.12 170.1 21.12C169.668 21.12 169.276 21.036 168.924 20.868C168.572 20.7 168.292 20.436 168.084 20.076C167.884 19.716 167.784 19.252 167.784 18.684V14.364H170.076V17.988C170.076 18.42 170.136 18.748 170.256 18.972C170.384 19.196 170.588 19.308 170.868 19.308C171.3 19.308 171.588 19.132 171.732 18.78C171.884 18.428 171.96 17.924 171.96 17.268V14.364H174.252Z" fill="#A46106"/>
<path d="M163.925 21.132C163.925 20.804 163.949 20.48 163.997 20.16H163.925C163.773 20.424 163.557 20.652 163.277 20.844C162.997 21.028 162.629 21.12 162.173 21.12C161.469 21.12 160.897 20.828 160.457 20.244C160.017 19.66 159.797 18.808 159.797 17.688C159.797 16.568 160.021 15.716 160.469 15.132C160.917 14.54 161.497 14.244 162.209 14.244C162.673 14.244 163.045 14.336 163.325 14.52C163.613 14.696 163.845 14.916 164.021 15.18H164.069L164.237 14.364H166.217V23.88H163.925V21.132ZM163.109 19.344C163.485 19.344 163.745 19.228 163.889 18.996C164.033 18.756 164.105 18.4 164.105 17.928V17.652C164.105 17.132 164.033 16.732 163.889 16.452C163.753 16.164 163.481 16.02 163.073 16.02C162.441 16.02 162.125 16.588 162.125 17.724C162.125 18.3 162.205 18.716 162.365 18.972C162.525 19.22 162.773 19.344 163.109 19.344Z" fill="#A46106"/>
<path d="M156.64 21.12C155.632 21.12 154.828 20.848 154.228 20.304C153.628 19.76 153.328 18.896 153.328 17.712C153.328 16.904 153.48 16.248 153.784 15.744C154.088 15.232 154.5 14.856 155.02 14.616C155.548 14.368 156.148 14.244 156.82 14.244C157.228 14.244 157.612 14.288 157.972 14.376C158.34 14.464 158.68 14.588 158.992 14.748L158.32 16.44C158.048 16.32 157.792 16.224 157.552 16.152C157.32 16.08 157.076 16.044 156.82 16.044C156.476 16.044 156.196 16.18 155.98 16.452C155.764 16.724 155.656 17.14 155.656 17.7C155.656 18.276 155.764 18.688 155.98 18.936C156.204 19.176 156.488 19.296 156.832 19.296C157.16 19.296 157.488 19.244 157.816 19.14C158.152 19.036 158.468 18.892 158.764 18.708V20.532C158.492 20.708 158.184 20.852 157.84 20.964C157.496 21.068 157.096 21.12 156.64 21.12Z" fill="#A46106"/>
<path d="M150.297 21L149.877 19.392H147.093L146.661 21H144.117L146.913 12.396H149.997L152.829 21H150.297ZM149.025 16.092C148.985 15.94 148.929 15.724 148.857 15.444C148.785 15.156 148.713 14.86 148.641 14.556C148.569 14.252 148.513 14.004 148.473 13.812C148.441 14.004 148.389 14.244 148.317 14.532C148.253 14.82 148.185 15.104 148.113 15.384C148.049 15.664 147.993 15.9 147.945 16.092L147.573 17.496H149.397L149.025 16.092Z" fill="#A46106"/>
<path d="M140.487 17.664C140.487 18.776 140.191 19.632 139.599 20.232C139.007 20.824 138.195 21.12 137.163 21.12C136.523 21.12 135.955 20.988 135.459 20.724C134.963 20.452 134.571 20.06 134.283 19.548C134.003 19.028 133.863 18.4 133.863 17.664C133.863 16.568 134.159 15.724 134.751 15.132C135.343 14.54 136.159 14.244 137.199 14.244C137.839 14.244 138.403 14.376 138.891 14.64C139.387 14.904 139.775 15.292 140.055 15.804C140.343 16.308 140.487 16.928 140.487 17.664ZM136.191 17.664C136.191 18.232 136.267 18.668 136.419 18.972C136.571 19.268 136.827 19.416 137.187 19.416C137.539 19.416 137.787 19.268 137.931 18.972C138.083 18.668 138.159 18.232 138.159 17.664C138.159 17.096 138.083 16.668 137.931 16.38C137.787 16.092 137.535 15.948 137.175 15.948C136.831 15.948 136.579 16.092 136.419 16.38C136.267 16.668 136.191 17.096 136.191 17.664Z" fill="#A46106"/>
<path d="M128.564 14.244C129.028 14.244 129.4 14.336 129.68 14.52C129.968 14.696 130.2 14.916 130.376 15.18H130.424L130.592 14.364H132.572V21.012C132.572 21.948 132.28 22.66 131.696 23.148C131.12 23.636 130.232 23.88 129.032 23.88C128.496 23.88 128.024 23.852 127.616 23.796C127.208 23.74 126.816 23.64 126.44 23.496V21.588C126.84 21.756 127.22 21.88 127.58 21.96C127.94 22.048 128.38 22.092 128.9 22.092C129.82 22.092 130.28 21.764 130.28 21.108V20.988C130.28 20.756 130.304 20.48 130.352 20.16H130.28C130.128 20.424 129.912 20.652 129.632 20.844C129.352 21.028 128.984 21.12 128.528 21.12C127.824 21.12 127.252 20.828 126.812 20.244C126.372 19.66 126.152 18.808 126.152 17.688C126.152 16.568 126.376 15.716 126.824 15.132C127.272 14.54 127.852 14.244 128.564 14.244ZM129.428 16.02C128.796 16.02 128.48 16.588 128.48 17.724C128.48 18.3 128.56 18.716 128.72 18.972C128.88 19.22 129.128 19.344 129.464 19.344C129.84 19.344 130.1 19.228 130.244 18.996C130.388 18.756 130.46 18.4 130.46 17.928V17.652C130.46 17.132 130.388 16.732 130.244 16.452C130.108 16.164 129.836 16.02 129.428 16.02Z" fill="#A46106"/>
<path d="M124.941 14.244C125.069 14.244 125.201 14.252 125.337 14.268C125.473 14.284 125.573 14.3 125.637 14.316L125.433 16.476C125.353 16.46 125.253 16.444 125.133 16.428C125.021 16.412 124.861 16.404 124.653 16.404C124.461 16.404 124.253 16.432 124.029 16.488C123.813 16.544 123.625 16.668 123.465 16.86C123.305 17.044 123.225 17.336 123.225 17.736V21H120.933V14.364H122.637L122.997 15.42H123.105C123.289 15.092 123.545 14.816 123.873 14.592C124.209 14.36 124.565 14.244 124.941 14.244Z" fill="#A46106"/>
<path d="M116.696 14.244C117.536 14.244 118.192 14.452 118.664 14.868C119.136 15.284 119.372 15.876 119.372 16.644V21H117.788L117.344 20.124H117.296C117.112 20.356 116.92 20.548 116.72 20.7C116.528 20.844 116.304 20.948 116.048 21.012C115.792 21.084 115.48 21.12 115.112 21.12C114.536 21.12 114.056 20.944 113.672 20.592C113.288 20.24 113.096 19.7 113.096 18.972C113.096 18.26 113.34 17.732 113.828 17.388C114.324 17.044 115.04 16.852 115.976 16.812L117.08 16.776V16.68C117.08 16.384 117.008 16.176 116.864 16.056C116.72 15.928 116.524 15.864 116.276 15.864C116.012 15.864 115.72 15.912 115.4 16.008C115.08 16.096 114.756 16.212 114.428 16.356L113.768 14.844C114.152 14.644 114.584 14.496 115.064 14.4C115.552 14.296 116.096 14.244 116.696 14.244ZM116.564 18.06C116.148 18.076 115.852 18.152 115.676 18.288C115.508 18.416 115.424 18.6 115.424 18.84C115.424 19.064 115.484 19.232 115.604 19.344C115.724 19.448 115.884 19.5 116.084 19.5C116.364 19.5 116.6 19.412 116.792 19.236C116.992 19.06 117.092 18.832 117.092 18.552V18.036L116.564 18.06Z" fill="#A46106"/>
<path d="M109.611 14.208C109.067 14.208 108.639 14.432 108.327 14.88C108.015 15.328 107.859 15.952 107.859 16.752C107.859 17.56 108.015 18.176 108.327 18.6C108.639 19.016 109.111 19.224 109.743 19.224C110.119 19.224 110.483 19.172 110.835 19.068C111.195 18.964 111.555 18.836 111.915 18.684V20.64C111.539 20.808 111.151 20.928 110.751 21C110.359 21.08 109.939 21.12 109.491 21.12C108.563 21.12 107.803 20.936 107.211 20.568C106.619 20.2 106.183 19.688 105.903 19.032C105.623 18.368 105.483 17.604 105.483 16.74C105.483 15.876 105.643 15.112 105.963 14.448C106.283 13.784 106.751 13.264 107.367 12.888C107.991 12.504 108.747 12.312 109.635 12.312C110.051 12.312 110.487 12.36 110.943 12.456C111.399 12.552 111.847 12.704 112.287 12.912L111.579 14.736C111.267 14.584 110.951 14.46 110.631 14.364C110.311 14.26 109.971 14.208 109.611 14.208Z" fill="#A46106"/>
</svg>
