<svg width="256" height="32" viewBox="0 0 256 32" fill="none" xmlns="http://www.w3.org/2000/svg">
<path fill-rule="evenodd" clip-rule="evenodd" d="M10.3599 9.76624C10.2014 9.63414 10.0876 9.45694 10.0342 9.25865C9.98074 9.06037 9.99014 8.8506 10.0611 8.65779C10.1321 8.46498 10.2612 8.29845 10.431 8.18078C10.6008 8.06311 10.803 8 11.0102 8H15.99C16.0972 8 16.2 8.04216 16.2757 8.11722C16.3515 8.19227 16.3941 8.29407 16.3941 8.40021V14.793L10.3599 9.76624ZM23.4014 8H18.0385C17.9035 8 17.7739 8.05081 17.6784 8.14124C17.5829 8.23168 17.5293 8.35434 17.5293 8.48223V23.5178C17.5293 23.6457 17.5829 23.7683 17.6784 23.8588C17.7739 23.9492 17.9035 24 18.0385 24H22.0384C22.1735 24 22.303 23.9492 22.3985 23.8588C22.494 23.7683 22.5476 23.6457 22.5476 23.5178V15.3911L27.9868 23.7703C28.0323 23.8405 28.0961 23.8985 28.1721 23.9387C28.248 23.9789 28.3336 24 28.4206 24H33.9606C34.0956 24 34.2252 23.9492 34.3207 23.8588C34.4162 23.7683 34.4698 23.6457 34.4698 23.5178V8.48223C34.4698 8.4189 34.4566 8.3562 34.431 8.29769C34.4055 8.23918 34.3679 8.18602 34.3207 8.14124C34.2734 8.09646 34.2172 8.06094 34.1554 8.03671C34.0937 8.01247 34.0274 8 33.9606 8H29.8395C29.7044 8 29.5749 8.05081 29.4794 8.14124C29.3839 8.23168 29.3302 8.35434 29.3302 8.48223V16.695L23.8352 8.2297C23.7897 8.15951 23.7259 8.10154 23.6499 8.06133C23.574 8.02111 23.4884 8 23.4014 8ZM41.9657 22.7414C41.9122 22.5431 41.7985 22.3659 41.6399 22.2338L35.6058 17.207V23.5999C35.6058 23.6524 35.6162 23.7044 35.6366 23.753C35.6569 23.8016 35.6866 23.8457 35.7241 23.8828C35.7617 23.92 35.8062 23.9495 35.8552 23.9696C35.9043 23.9897 35.9568 24.0001 36.0099 24.0001H40.9897C41.1969 24.0001 41.3991 23.937 41.5689 23.8193C41.7386 23.7016 41.8678 23.5351 41.9387 23.3423C42.0097 23.1495 42.0191 22.9397 41.9657 22.7414Z" fill="#FF733C"/>
<path d="M245.892 14.244C246.652 14.244 247.232 14.436 247.632 14.82C248.032 15.204 248.232 15.824 248.232 16.68V21H245.94V17.388C245.94 16.884 245.872 16.536 245.736 16.344C245.6 16.144 245.4 16.044 245.136 16.044C244.768 16.044 244.512 16.208 244.368 16.536C244.224 16.856 244.152 17.312 244.152 17.904V21H241.86V17.388C241.86 16.908 241.796 16.564 241.668 16.356C241.54 16.148 241.348 16.044 241.092 16.044C240.7 16.044 240.432 16.22 240.288 16.572C240.152 16.924 240.084 17.432 240.084 18.096V21H237.792V14.364H239.52L239.856 15.18H239.916C240.092 14.908 240.344 14.684 240.672 14.508C241.008 14.332 241.42 14.244 241.908 14.244C242.396 14.244 242.796 14.328 243.108 14.496C243.428 14.656 243.688 14.88 243.888 15.168H243.96C244.168 14.872 244.436 14.644 244.764 14.484C245.1 14.324 245.476 14.244 245.892 14.244Z" fill="#FF733C"/>
<path d="M236.175 14.244C236.303 14.244 236.435 14.252 236.571 14.268C236.707 14.284 236.807 14.3 236.871 14.316L236.667 16.476C236.587 16.46 236.487 16.444 236.367 16.428C236.255 16.412 236.095 16.404 235.887 16.404C235.695 16.404 235.487 16.432 235.263 16.488C235.047 16.544 234.859 16.668 234.699 16.86C234.539 17.044 234.459 17.336 234.459 17.736V21H232.167V14.364H233.871L234.231 15.42H234.339C234.523 15.092 234.779 14.816 235.107 14.592C235.443 14.36 235.799 14.244 236.175 14.244Z" fill="#FF733C"/>
<path d="M230.862 17.664C230.862 18.776 230.566 19.632 229.974 20.232C229.382 20.824 228.57 21.12 227.538 21.12C226.898 21.12 226.33 20.988 225.834 20.724C225.338 20.452 224.946 20.06 224.658 19.548C224.378 19.028 224.238 18.4 224.238 17.664C224.238 16.568 224.534 15.724 225.126 15.132C225.718 14.54 226.534 14.244 227.574 14.244C228.214 14.244 228.778 14.376 229.266 14.64C229.762 14.904 230.15 15.292 230.43 15.804C230.718 16.308 230.862 16.928 230.862 17.664ZM226.566 17.664C226.566 18.232 226.642 18.668 226.794 18.972C226.946 19.268 227.202 19.416 227.562 19.416C227.914 19.416 228.162 19.268 228.306 18.972C228.458 18.668 228.534 18.232 228.534 17.664C228.534 17.096 228.458 16.668 228.306 16.38C228.162 16.092 227.91 15.948 227.55 15.948C227.206 15.948 226.954 16.092 226.794 16.38C226.642 16.668 226.566 17.096 226.566 17.664Z" fill="#FF733C"/>
<path d="M220.47 21H218.19V12.432H223.254V14.292H220.47V15.924H223.038V17.784H220.47V21Z" fill="#FF733C"/>
<path d="M211.053 14.244C211.741 14.244 212.301 14.436 212.733 14.82C213.165 15.204 213.381 15.824 213.381 16.68V21H211.089V17.376C211.089 16.936 211.025 16.604 210.897 16.38C210.769 16.156 210.565 16.044 210.285 16.044C209.853 16.044 209.561 16.22 209.409 16.572C209.265 16.924 209.193 17.432 209.193 18.096V21H206.901V14.364H208.629L208.941 15.24H209.025C209.233 14.928 209.505 14.684 209.841 14.508C210.185 14.332 210.589 14.244 211.053 14.244Z" fill="#FF733C"/>
<path d="M205.597 17.664C205.597 18.776 205.301 19.632 204.709 20.232C204.117 20.824 203.305 21.12 202.273 21.12C201.633 21.12 201.065 20.988 200.569 20.724C200.073 20.452 199.681 20.06 199.393 19.548C199.113 19.028 198.973 18.4 198.973 17.664C198.973 16.568 199.269 15.724 199.861 15.132C200.453 14.54 201.269 14.244 202.309 14.244C202.949 14.244 203.513 14.376 204.001 14.64C204.497 14.904 204.885 15.292 205.165 15.804C205.453 16.308 205.597 16.928 205.597 17.664ZM201.301 17.664C201.301 18.232 201.377 18.668 201.529 18.972C201.681 19.268 201.937 19.416 202.297 19.416C202.649 19.416 202.897 19.268 203.041 18.972C203.193 18.668 203.269 18.232 203.269 17.664C203.269 17.096 203.193 16.668 203.041 16.38C202.897 16.092 202.645 15.948 202.285 15.948C201.941 15.948 201.689 16.092 201.529 16.38C201.377 16.668 201.301 17.096 201.301 17.664Z" fill="#FF733C"/>
<path d="M196.522 11.688C196.85 11.688 197.134 11.756 197.374 11.892C197.622 12.028 197.746 12.3 197.746 12.708C197.746 13.1 197.622 13.368 197.374 13.512C197.134 13.648 196.85 13.716 196.522 13.716C196.186 13.716 195.898 13.648 195.658 13.512C195.426 13.368 195.31 13.1 195.31 12.708C195.31 12.3 195.426 12.028 195.658 11.892C195.898 11.756 196.186 11.688 196.522 11.688ZM197.662 14.364V21H195.37V14.364H197.662Z" fill="#FF733C"/>
<path d="M193.091 19.308C193.299 19.308 193.487 19.288 193.655 19.248C193.831 19.2 194.011 19.144 194.195 19.08V20.748C193.947 20.852 193.683 20.94 193.403 21.012C193.123 21.084 192.767 21.12 192.335 21.12C191.903 21.12 191.523 21.052 191.195 20.916C190.875 20.78 190.623 20.548 190.439 20.22C190.255 19.884 190.163 19.416 190.163 18.816V16.08H189.359V15.144L190.379 14.424L190.967 13.032H192.467V14.364H194.099V16.08H192.467V18.66C192.467 19.092 192.675 19.308 193.091 19.308Z" fill="#FF733C"/>
<path d="M187.101 11.688C187.429 11.688 187.713 11.756 187.953 11.892C188.201 12.028 188.325 12.3 188.325 12.708C188.325 13.1 188.201 13.368 187.953 13.512C187.713 13.648 187.429 13.716 187.101 13.716C186.765 13.716 186.477 13.648 186.237 13.512C186.005 13.368 185.889 13.1 185.889 12.708C185.889 12.3 186.005 12.028 186.237 11.892C186.477 11.756 186.765 11.688 187.101 11.688ZM188.241 14.364V21H185.949V14.364H188.241Z" fill="#FF733C"/>
<path d="M184.669 18.96C184.669 19.376 184.573 19.748 184.381 20.076C184.197 20.404 183.897 20.66 183.481 20.844C183.073 21.028 182.533 21.12 181.861 21.12C181.389 21.12 180.965 21.092 180.589 21.036C180.221 20.988 179.845 20.892 179.461 20.748V18.912C179.885 19.104 180.313 19.244 180.745 19.332C181.177 19.412 181.517 19.452 181.765 19.452C182.261 19.452 182.509 19.34 182.509 19.116C182.509 19.02 182.469 18.936 182.389 18.864C182.309 18.792 182.165 18.712 181.957 18.624C181.757 18.536 181.469 18.416 181.093 18.264C180.541 18.032 180.129 17.768 179.857 17.472C179.585 17.168 179.449 16.744 179.449 16.2C179.449 15.552 179.697 15.064 180.193 14.736C180.697 14.408 181.361 14.244 182.185 14.244C182.625 14.244 183.037 14.292 183.421 14.388C183.805 14.484 184.205 14.624 184.621 14.808L183.997 16.284C183.669 16.132 183.337 16.012 183.001 15.924C182.665 15.836 182.397 15.792 182.197 15.792C181.821 15.792 181.633 15.884 181.633 16.068C181.633 16.148 181.665 16.22 181.729 16.284C181.801 16.348 181.933 16.42 182.125 16.5C182.317 16.58 182.597 16.696 182.965 16.848C183.349 17 183.665 17.168 183.913 17.352C184.169 17.528 184.357 17.744 184.477 18C184.605 18.248 184.669 18.568 184.669 18.96Z" fill="#FF733C"/>
<path d="M176.999 11.688C177.327 11.688 177.611 11.756 177.851 11.892C178.099 12.028 178.223 12.3 178.223 12.708C178.223 13.1 178.099 13.368 177.851 13.512C177.611 13.648 177.327 13.716 176.999 13.716C176.663 13.716 176.375 13.648 176.135 13.512C175.903 13.368 175.787 13.1 175.787 12.708C175.787 12.3 175.903 12.028 176.135 11.892C176.375 11.756 176.663 11.688 176.999 11.688ZM178.139 14.364V21H175.847V14.364H178.139Z" fill="#FF733C"/>
<path d="M174.252 14.364V21H172.524L172.236 20.172H172.104C171.896 20.508 171.612 20.752 171.252 20.904C170.892 21.048 170.508 21.12 170.1 21.12C169.668 21.12 169.276 21.036 168.924 20.868C168.572 20.7 168.292 20.436 168.084 20.076C167.884 19.716 167.784 19.252 167.784 18.684V14.364H170.076V17.988C170.076 18.42 170.136 18.748 170.256 18.972C170.384 19.196 170.588 19.308 170.868 19.308C171.3 19.308 171.588 19.132 171.732 18.78C171.884 18.428 171.96 17.924 171.96 17.268V14.364H174.252Z" fill="#FF733C"/>
<path d="M163.925 21.132C163.925 20.804 163.949 20.48 163.997 20.16H163.925C163.773 20.424 163.557 20.652 163.277 20.844C162.997 21.028 162.629 21.12 162.173 21.12C161.469 21.12 160.897 20.828 160.457 20.244C160.017 19.66 159.797 18.808 159.797 17.688C159.797 16.568 160.021 15.716 160.469 15.132C160.917 14.54 161.497 14.244 162.209 14.244C162.673 14.244 163.045 14.336 163.325 14.52C163.613 14.696 163.845 14.916 164.021 15.18H164.069L164.237 14.364H166.217V23.88H163.925V21.132ZM163.109 19.344C163.485 19.344 163.745 19.228 163.889 18.996C164.033 18.756 164.105 18.4 164.105 17.928V17.652C164.105 17.132 164.033 16.732 163.889 16.452C163.753 16.164 163.481 16.02 163.073 16.02C162.441 16.02 162.125 16.588 162.125 17.724C162.125 18.3 162.205 18.716 162.365 18.972C162.525 19.22 162.773 19.344 163.109 19.344Z" fill="#FF733C"/>
<path d="M156.64 21.12C155.632 21.12 154.828 20.848 154.228 20.304C153.628 19.76 153.328 18.896 153.328 17.712C153.328 16.904 153.48 16.248 153.784 15.744C154.088 15.232 154.5 14.856 155.02 14.616C155.548 14.368 156.148 14.244 156.82 14.244C157.228 14.244 157.612 14.288 157.972 14.376C158.34 14.464 158.68 14.588 158.992 14.748L158.32 16.44C158.048 16.32 157.792 16.224 157.552 16.152C157.32 16.08 157.076 16.044 156.82 16.044C156.476 16.044 156.196 16.18 155.98 16.452C155.764 16.724 155.656 17.14 155.656 17.7C155.656 18.276 155.764 18.688 155.98 18.936C156.204 19.176 156.488 19.296 156.832 19.296C157.16 19.296 157.488 19.244 157.816 19.14C158.152 19.036 158.468 18.892 158.764 18.708V20.532C158.492 20.708 158.184 20.852 157.84 20.964C157.496 21.068 157.096 21.12 156.64 21.12Z" fill="#FF733C"/>
<path d="M150.297 21L149.877 19.392H147.093L146.661 21H144.117L146.913 12.396H149.997L152.829 21H150.297ZM149.025 16.092C148.985 15.94 148.929 15.724 148.857 15.444C148.785 15.156 148.713 14.86 148.641 14.556C148.569 14.252 148.513 14.004 148.473 13.812C148.441 14.004 148.389 14.244 148.317 14.532C148.253 14.82 148.185 15.104 148.113 15.384C148.049 15.664 147.993 15.9 147.945 16.092L147.573 17.496H149.397L149.025 16.092Z" fill="#FF733C"/>
<path d="M136.205 14.244C136.669 14.244 137.041 14.336 137.321 14.52C137.609 14.696 137.841 14.916 138.017 15.18H138.065L138.233 14.364H140.213V21.012C140.213 21.948 139.921 22.66 139.337 23.148C138.761 23.636 137.873 23.88 136.673 23.88C136.137 23.88 135.665 23.852 135.257 23.796C134.849 23.74 134.457 23.64 134.081 23.496V21.588C134.481 21.756 134.861 21.88 135.221 21.96C135.581 22.048 136.021 22.092 136.541 22.092C137.461 22.092 137.921 21.764 137.921 21.108V20.988C137.921 20.756 137.945 20.48 137.993 20.16H137.921C137.769 20.424 137.553 20.652 137.273 20.844C136.993 21.028 136.625 21.12 136.169 21.12C135.465 21.12 134.893 20.828 134.453 20.244C134.013 19.66 133.793 18.808 133.793 17.688C133.793 16.568 134.017 15.716 134.465 15.132C134.913 14.54 135.493 14.244 136.205 14.244ZM137.069 16.02C136.437 16.02 136.121 16.588 136.121 17.724C136.121 18.3 136.201 18.716 136.361 18.972C136.521 19.22 136.769 19.344 137.105 19.344C137.481 19.344 137.741 19.228 137.885 18.996C138.029 18.756 138.101 18.4 138.101 17.928V17.652C138.101 17.132 138.029 16.732 137.885 16.452C137.749 16.164 137.477 16.02 137.069 16.02Z" fill="#FF733C"/>
<path d="M130.194 14.244C130.882 14.244 131.442 14.436 131.874 14.82C132.306 15.204 132.522 15.824 132.522 16.68V21H130.23V17.376C130.23 16.936 130.166 16.604 130.038 16.38C129.91 16.156 129.706 16.044 129.426 16.044C128.994 16.044 128.702 16.22 128.55 16.572C128.406 16.924 128.334 17.432 128.334 18.096V21H126.042V14.364H127.77L128.082 15.24H128.166C128.374 14.928 128.646 14.684 128.982 14.508C129.326 14.332 129.73 14.244 130.194 14.244Z" fill="#FF733C"/>
<path d="M123.304 11.688C123.632 11.688 123.916 11.756 124.156 11.892C124.404 12.028 124.528 12.3 124.528 12.708C124.528 13.1 124.404 13.368 124.156 13.512C123.916 13.648 123.632 13.716 123.304 13.716C122.968 13.716 122.68 13.648 122.44 13.512C122.208 13.368 122.092 13.1 122.092 12.708C122.092 12.3 122.208 12.028 122.44 11.892C122.68 11.756 122.968 11.688 123.304 11.688ZM124.444 14.364V21H122.152V14.364H124.444Z" fill="#FF733C"/>
<path d="M120.523 14.244C120.651 14.244 120.783 14.252 120.919 14.268C121.055 14.284 121.155 14.3 121.219 14.316L121.015 16.476C120.935 16.46 120.835 16.444 120.715 16.428C120.603 16.412 120.443 16.404 120.235 16.404C120.043 16.404 119.835 16.432 119.611 16.488C119.395 16.544 119.207 16.668 119.047 16.86C118.887 17.044 118.807 17.336 118.807 17.736V21H116.515V14.364H118.219L118.579 15.42H118.687C118.871 15.092 119.127 14.816 119.455 14.592C119.791 14.36 120.147 14.244 120.523 14.244Z" fill="#FF733C"/>
<path d="M112.085 14.244C113.053 14.244 113.817 14.496 114.377 15C114.937 15.504 115.217 16.264 115.217 17.28V18.3H111.125C111.141 18.644 111.269 18.928 111.509 19.152C111.757 19.376 112.113 19.488 112.577 19.488C112.993 19.488 113.373 19.448 113.717 19.368C114.061 19.288 114.417 19.16 114.785 18.984V20.628C114.465 20.796 114.113 20.92 113.729 21C113.353 21.08 112.877 21.12 112.301 21.12C111.629 21.12 111.029 21.004 110.501 20.772C109.981 20.532 109.569 20.16 109.265 19.656C108.961 19.152 108.809 18.508 108.809 17.724C108.809 16.924 108.945 16.268 109.217 15.756C109.497 15.244 109.881 14.864 110.369 14.616C110.865 14.368 111.437 14.244 112.085 14.244ZM112.169 15.804C111.897 15.804 111.669 15.888 111.485 16.056C111.309 16.224 111.205 16.492 111.173 16.86H113.141C113.133 16.564 113.045 16.316 112.877 16.116C112.717 15.908 112.481 15.804 112.169 15.804Z" fill="#FF733C"/>
<path d="M104.667 14.244C105.635 14.244 106.399 14.496 106.959 15C107.519 15.504 107.799 16.264 107.799 17.28V18.3H103.707C103.723 18.644 103.851 18.928 104.091 19.152C104.339 19.376 104.695 19.488 105.159 19.488C105.575 19.488 105.955 19.448 106.299 19.368C106.643 19.288 106.999 19.16 107.367 18.984V20.628C107.047 20.796 106.695 20.92 106.311 21C105.935 21.08 105.459 21.12 104.883 21.12C104.211 21.12 103.611 21.004 103.083 20.772C102.563 20.532 102.151 20.16 101.847 19.656C101.543 19.152 101.391 18.508 101.391 17.724C101.391 16.924 101.527 16.268 101.799 15.756C102.079 15.244 102.463 14.864 102.951 14.616C103.447 14.368 104.019 14.244 104.667 14.244ZM104.751 15.804C104.479 15.804 104.251 15.888 104.067 16.056C103.891 16.224 103.787 16.492 103.755 16.86H105.723C105.715 16.564 105.627 16.316 105.459 16.116C105.299 15.908 105.063 15.804 104.751 15.804Z" fill="#FF733C"/>
<path d="M97.7916 14.244C98.4796 14.244 99.0396 14.436 99.4716 14.82C99.9036 15.204 100.12 15.824 100.12 16.68V21H97.8276V17.376C97.8276 16.936 97.7636 16.604 97.6356 16.38C97.5076 16.156 97.3036 16.044 97.0236 16.044C96.5916 16.044 96.2996 16.22 96.1476 16.572C96.0036 16.924 95.9316 17.432 95.9316 18.096V21H93.6396V14.364H95.3676L95.6796 15.24H95.7636C95.9716 14.928 96.2436 14.684 96.5796 14.508C96.9236 14.332 97.3276 14.244 97.7916 14.244Z" fill="#FF733C"/>
<path d="M90.9013 11.688C91.2293 11.688 91.5133 11.756 91.7533 11.892C92.0013 12.028 92.1253 12.3 92.1253 12.708C92.1253 13.1 92.0013 13.368 91.7533 13.512C91.5133 13.648 91.2293 13.716 90.9013 13.716C90.5653 13.716 90.2773 13.648 90.0373 13.512C89.8053 13.368 89.6893 13.1 89.6893 12.708C89.6893 12.3 89.8053 12.028 90.0373 11.892C90.2773 11.756 90.5653 11.688 90.9013 11.688ZM92.0413 14.364V21H89.7493V14.364H92.0413Z" fill="#FF733C"/>
<path d="M84.1504 14.244C84.6144 14.244 84.9864 14.336 85.2664 14.52C85.5544 14.696 85.7864 14.916 85.9624 15.18H86.0104L86.1784 14.364H88.1584V21.012C88.1584 21.948 87.8664 22.66 87.2824 23.148C86.7064 23.636 85.8184 23.88 84.6184 23.88C84.0824 23.88 83.6104 23.852 83.2024 23.796C82.7944 23.74 82.4024 23.64 82.0264 23.496V21.588C82.4264 21.756 82.8064 21.88 83.1664 21.96C83.5264 22.048 83.9664 22.092 84.4864 22.092C85.4064 22.092 85.8664 21.764 85.8664 21.108V20.988C85.8664 20.756 85.8904 20.48 85.9384 20.16H85.8664C85.7144 20.424 85.4984 20.652 85.2184 20.844C84.9384 21.028 84.5704 21.12 84.1144 21.12C83.4104 21.12 82.8384 20.828 82.3984 20.244C81.9584 19.66 81.7384 18.808 81.7384 17.688C81.7384 16.568 81.9624 15.716 82.4104 15.132C82.8584 14.54 83.4384 14.244 84.1504 14.244ZM85.0144 16.02C84.3824 16.02 84.0664 16.588 84.0664 17.724C84.0664 18.3 84.1464 18.716 84.3064 18.972C84.4664 19.22 84.7144 19.344 85.0504 19.344C85.4264 19.344 85.6864 19.228 85.8304 18.996C85.9744 18.756 86.0464 18.4 86.0464 17.928V17.652C86.0464 17.132 85.9744 16.732 85.8304 16.452C85.6944 16.164 85.4224 16.02 85.0144 16.02Z" fill="#FF733C"/>
<path d="M78.1393 14.244C78.8273 14.244 79.3873 14.436 79.8193 14.82C80.2513 15.204 80.4673 15.824 80.4673 16.68V21H78.1753V17.376C78.1753 16.936 78.1113 16.604 77.9833 16.38C77.8553 16.156 77.6513 16.044 77.3713 16.044C76.9393 16.044 76.6473 16.22 76.4953 16.572C76.3513 16.924 76.2793 17.432 76.2793 18.096V21H73.9873V14.364H75.7153L76.0273 15.24H76.1113C76.3193 14.928 76.5913 14.684 76.9273 14.508C77.2713 14.332 77.6753 14.244 78.1393 14.244Z" fill="#FF733C"/>
<path d="M72.6214 21H67.5334V12.432H72.6214V14.292H69.8494V15.636H72.4174V17.496H69.8494V19.116H72.6214V21Z" fill="#FF733C"/>
</svg>
