<svg width="256" height="32" viewBox="0 0 256 32" fill="none" xmlns="http://www.w3.org/2000/svg">
<path fill-rule="evenodd" clip-rule="evenodd" d="M10.3599 9.76624C10.2014 9.63414 10.0876 9.45694 10.0342 9.25865C9.98074 9.06037 9.99014 8.8506 10.0611 8.65779C10.1321 8.46498 10.2612 8.29845 10.431 8.18078C10.6008 8.06311 10.803 8 11.0102 8H15.99C16.0972 8 16.2 8.04216 16.2757 8.11722C16.3515 8.19227 16.3941 8.29407 16.3941 8.40021V14.793L10.3599 9.76624ZM23.4014 8H18.0385C17.9035 8 17.7739 8.05081 17.6784 8.14124C17.5829 8.23168 17.5293 8.35434 17.5293 8.48223V23.5178C17.5293 23.6457 17.5829 23.7683 17.6784 23.8588C17.7739 23.9492 17.9035 24 18.0385 24H22.0384C22.1735 24 22.303 23.9492 22.3985 23.8588C22.494 23.7683 22.5476 23.6457 22.5476 23.5178V15.3911L27.9868 23.7703C28.0323 23.8405 28.0961 23.8985 28.1721 23.9387C28.248 23.9789 28.3336 24 28.4206 24H33.9606C34.0956 24 34.2252 23.9492 34.3207 23.8588C34.4162 23.7683 34.4698 23.6457 34.4698 23.5178V8.48223C34.4698 8.4189 34.4566 8.3562 34.431 8.29769C34.4055 8.23918 34.3679 8.18602 34.3207 8.14124C34.2734 8.09646 34.2172 8.06094 34.1554 8.03671C34.0937 8.01247 34.0274 8 33.9606 8H29.8395C29.7044 8 29.5749 8.05081 29.4794 8.14124C29.3839 8.23168 29.3302 8.35434 29.3302 8.48223V16.695L23.8352 8.2297C23.7897 8.15951 23.7259 8.10154 23.6499 8.06133C23.574 8.02111 23.4884 8 23.4014 8ZM41.9657 22.7414C41.9122 22.5431 41.7985 22.3659 41.6399 22.2338L35.6058 17.207V23.5999C35.6058 23.6524 35.6162 23.7044 35.6366 23.753C35.6569 23.8016 35.6866 23.8457 35.7241 23.8828C35.7617 23.92 35.8062 23.9495 35.8552 23.9696C35.9043 23.9897 35.9568 24.0001 36.0099 24.0001H40.9897C41.1969 24.0001 41.3991 23.937 41.5689 23.8193C41.7386 23.7016 41.8678 23.5351 41.9387 23.3423C42.0097 23.1495 42.0191 22.9397 41.9657 22.7414Z" fill="#52B4E9"/>
<path d="M245.892 14.244C246.652 14.244 247.232 14.436 247.632 14.82C248.032 15.204 248.232 15.824 248.232 16.68V21H245.94V17.388C245.94 16.884 245.872 16.536 245.736 16.344C245.6 16.144 245.4 16.044 245.136 16.044C244.768 16.044 244.512 16.208 244.368 16.536C244.224 16.856 244.152 17.312 244.152 17.904V21H241.86V17.388C241.86 16.908 241.796 16.564 241.668 16.356C241.54 16.148 241.348 16.044 241.092 16.044C240.7 16.044 240.432 16.22 240.288 16.572C240.152 16.924 240.084 17.432 240.084 18.096V21H237.792V14.364H239.52L239.856 15.18H239.916C240.092 14.908 240.344 14.684 240.672 14.508C241.008 14.332 241.42 14.244 241.908 14.244C242.396 14.244 242.796 14.328 243.108 14.496C243.428 14.656 243.688 14.88 243.888 15.168H243.96C244.168 14.872 244.436 14.644 244.764 14.484C245.1 14.324 245.476 14.244 245.892 14.244Z" fill="#52B4E9"/>
<path d="M236.175 14.244C236.303 14.244 236.435 14.252 236.571 14.268C236.707 14.284 236.807 14.3 236.871 14.316L236.667 16.476C236.587 16.46 236.487 16.444 236.367 16.428C236.255 16.412 236.095 16.404 235.887 16.404C235.695 16.404 235.487 16.432 235.263 16.488C235.047 16.544 234.859 16.668 234.699 16.86C234.539 17.044 234.459 17.336 234.459 17.736V21H232.167V14.364H233.871L234.231 15.42H234.339C234.523 15.092 234.779 14.816 235.107 14.592C235.443 14.36 235.799 14.244 236.175 14.244Z" fill="#52B4E9"/>
<path d="M230.862 17.664C230.862 18.776 230.566 19.632 229.974 20.232C229.382 20.824 228.57 21.12 227.538 21.12C226.898 21.12 226.33 20.988 225.834 20.724C225.338 20.452 224.946 20.06 224.658 19.548C224.378 19.028 224.238 18.4 224.238 17.664C224.238 16.568 224.534 15.724 225.126 15.132C225.718 14.54 226.534 14.244 227.574 14.244C228.214 14.244 228.778 14.376 229.266 14.64C229.762 14.904 230.15 15.292 230.43 15.804C230.718 16.308 230.862 16.928 230.862 17.664ZM226.566 17.664C226.566 18.232 226.642 18.668 226.794 18.972C226.946 19.268 227.202 19.416 227.562 19.416C227.914 19.416 228.162 19.268 228.306 18.972C228.458 18.668 228.534 18.232 228.534 17.664C228.534 17.096 228.458 16.668 228.306 16.38C228.162 16.092 227.91 15.948 227.55 15.948C227.206 15.948 226.954 16.092 226.794 16.38C226.642 16.668 226.566 17.096 226.566 17.664Z" fill="#52B4E9"/>
<path d="M220.47 21H218.19V12.432H223.254V14.292H220.47V15.924H223.038V17.784H220.47V21Z" fill="#52B4E9"/>
<path d="M211.053 14.244C211.741 14.244 212.301 14.436 212.733 14.82C213.165 15.204 213.381 15.824 213.381 16.68V21H211.089V17.376C211.089 16.936 211.025 16.604 210.897 16.38C210.769 16.156 210.565 16.044 210.285 16.044C209.853 16.044 209.561 16.22 209.409 16.572C209.265 16.924 209.193 17.432 209.193 18.096V21H206.901V14.364H208.629L208.941 15.24H209.025C209.233 14.928 209.505 14.684 209.841 14.508C210.185 14.332 210.589 14.244 211.053 14.244Z" fill="#52B4E9"/>
<path d="M205.597 17.664C205.597 18.776 205.301 19.632 204.709 20.232C204.117 20.824 203.305 21.12 202.273 21.12C201.633 21.12 201.065 20.988 200.569 20.724C200.073 20.452 199.681 20.06 199.393 19.548C199.113 19.028 198.973 18.4 198.973 17.664C198.973 16.568 199.269 15.724 199.861 15.132C200.453 14.54 201.269 14.244 202.309 14.244C202.949 14.244 203.513 14.376 204.001 14.64C204.497 14.904 204.885 15.292 205.165 15.804C205.453 16.308 205.597 16.928 205.597 17.664ZM201.301 17.664C201.301 18.232 201.377 18.668 201.529 18.972C201.681 19.268 201.937 19.416 202.297 19.416C202.649 19.416 202.897 19.268 203.041 18.972C203.193 18.668 203.269 18.232 203.269 17.664C203.269 17.096 203.193 16.668 203.041 16.38C202.897 16.092 202.645 15.948 202.285 15.948C201.941 15.948 201.689 16.092 201.529 16.38C201.377 16.668 201.301 17.096 201.301 17.664Z" fill="#52B4E9"/>
<path d="M196.522 11.688C196.85 11.688 197.134 11.756 197.374 11.892C197.622 12.028 197.746 12.3 197.746 12.708C197.746 13.1 197.622 13.368 197.374 13.512C197.134 13.648 196.85 13.716 196.522 13.716C196.186 13.716 195.898 13.648 195.658 13.512C195.426 13.368 195.31 13.1 195.31 12.708C195.31 12.3 195.426 12.028 195.658 11.892C195.898 11.756 196.186 11.688 196.522 11.688ZM197.662 14.364V21H195.37V14.364H197.662Z" fill="#52B4E9"/>
<path d="M193.091 19.308C193.299 19.308 193.487 19.288 193.655 19.248C193.831 19.2 194.011 19.144 194.195 19.08V20.748C193.947 20.852 193.683 20.94 193.403 21.012C193.123 21.084 192.767 21.12 192.335 21.12C191.903 21.12 191.523 21.052 191.195 20.916C190.875 20.78 190.623 20.548 190.439 20.22C190.255 19.884 190.163 19.416 190.163 18.816V16.08H189.359V15.144L190.379 14.424L190.967 13.032H192.467V14.364H194.099V16.08H192.467V18.66C192.467 19.092 192.675 19.308 193.091 19.308Z" fill="#52B4E9"/>
<path d="M187.101 11.688C187.429 11.688 187.713 11.756 187.953 11.892C188.201 12.028 188.325 12.3 188.325 12.708C188.325 13.1 188.201 13.368 187.953 13.512C187.713 13.648 187.429 13.716 187.101 13.716C186.765 13.716 186.477 13.648 186.237 13.512C186.005 13.368 185.889 13.1 185.889 12.708C185.889 12.3 186.005 12.028 186.237 11.892C186.477 11.756 186.765 11.688 187.101 11.688ZM188.241 14.364V21H185.949V14.364H188.241Z" fill="#52B4E9"/>
<path d="M184.669 18.96C184.669 19.376 184.573 19.748 184.381 20.076C184.197 20.404 183.897 20.66 183.481 20.844C183.073 21.028 182.533 21.12 181.861 21.12C181.389 21.12 180.965 21.092 180.589 21.036C180.221 20.988 179.845 20.892 179.461 20.748V18.912C179.885 19.104 180.313 19.244 180.745 19.332C181.177 19.412 181.517 19.452 181.765 19.452C182.261 19.452 182.509 19.34 182.509 19.116C182.509 19.02 182.469 18.936 182.389 18.864C182.309 18.792 182.165 18.712 181.957 18.624C181.757 18.536 181.469 18.416 181.093 18.264C180.541 18.032 180.129 17.768 179.857 17.472C179.585 17.168 179.449 16.744 179.449 16.2C179.449 15.552 179.697 15.064 180.193 14.736C180.697 14.408 181.361 14.244 182.185 14.244C182.625 14.244 183.037 14.292 183.421 14.388C183.805 14.484 184.205 14.624 184.621 14.808L183.997 16.284C183.669 16.132 183.337 16.012 183.001 15.924C182.665 15.836 182.397 15.792 182.197 15.792C181.821 15.792 181.633 15.884 181.633 16.068C181.633 16.148 181.665 16.22 181.729 16.284C181.801 16.348 181.933 16.42 182.125 16.5C182.317 16.58 182.597 16.696 182.965 16.848C183.349 17 183.665 17.168 183.913 17.352C184.169 17.528 184.357 17.744 184.477 18C184.605 18.248 184.669 18.568 184.669 18.96Z" fill="#52B4E9"/>
<path d="M176.999 11.688C177.327 11.688 177.611 11.756 177.851 11.892C178.099 12.028 178.223 12.3 178.223 12.708C178.223 13.1 178.099 13.368 177.851 13.512C177.611 13.648 177.327 13.716 176.999 13.716C176.663 13.716 176.375 13.648 176.135 13.512C175.903 13.368 175.787 13.1 175.787 12.708C175.787 12.3 175.903 12.028 176.135 11.892C176.375 11.756 176.663 11.688 176.999 11.688ZM178.139 14.364V21H175.847V14.364H178.139Z" fill="#52B4E9"/>
<path d="M174.252 14.364V21H172.524L172.236 20.172H172.104C171.896 20.508 171.612 20.752 171.252 20.904C170.892 21.048 170.508 21.12 170.1 21.12C169.668 21.12 169.276 21.036 168.924 20.868C168.572 20.7 168.292 20.436 168.084 20.076C167.884 19.716 167.784 19.252 167.784 18.684V14.364H170.076V17.988C170.076 18.42 170.136 18.748 170.256 18.972C170.384 19.196 170.588 19.308 170.868 19.308C171.3 19.308 171.588 19.132 171.732 18.78C171.884 18.428 171.96 17.924 171.96 17.268V14.364H174.252Z" fill="#52B4E9"/>
<path d="M163.925 21.132C163.925 20.804 163.949 20.48 163.997 20.16H163.925C163.773 20.424 163.557 20.652 163.277 20.844C162.997 21.028 162.629 21.12 162.173 21.12C161.469 21.12 160.897 20.828 160.457 20.244C160.017 19.66 159.797 18.808 159.797 17.688C159.797 16.568 160.021 15.716 160.469 15.132C160.917 14.54 161.497 14.244 162.209 14.244C162.673 14.244 163.045 14.336 163.325 14.52C163.613 14.696 163.845 14.916 164.021 15.18H164.069L164.237 14.364H166.217V23.88H163.925V21.132ZM163.109 19.344C163.485 19.344 163.745 19.228 163.889 18.996C164.033 18.756 164.105 18.4 164.105 17.928V17.652C164.105 17.132 164.033 16.732 163.889 16.452C163.753 16.164 163.481 16.02 163.073 16.02C162.441 16.02 162.125 16.588 162.125 17.724C162.125 18.3 162.205 18.716 162.365 18.972C162.525 19.22 162.773 19.344 163.109 19.344Z" fill="#52B4E9"/>
<path d="M156.64 21.12C155.632 21.12 154.828 20.848 154.228 20.304C153.628 19.76 153.328 18.896 153.328 17.712C153.328 16.904 153.48 16.248 153.784 15.744C154.088 15.232 154.5 14.856 155.02 14.616C155.548 14.368 156.148 14.244 156.82 14.244C157.228 14.244 157.612 14.288 157.972 14.376C158.34 14.464 158.68 14.588 158.992 14.748L158.32 16.44C158.048 16.32 157.792 16.224 157.552 16.152C157.32 16.08 157.076 16.044 156.82 16.044C156.476 16.044 156.196 16.18 155.98 16.452C155.764 16.724 155.656 17.14 155.656 17.7C155.656 18.276 155.764 18.688 155.98 18.936C156.204 19.176 156.488 19.296 156.832 19.296C157.16 19.296 157.488 19.244 157.816 19.14C158.152 19.036 158.468 18.892 158.764 18.708V20.532C158.492 20.708 158.184 20.852 157.84 20.964C157.496 21.068 157.096 21.12 156.64 21.12Z" fill="#52B4E9"/>
<path d="M150.297 21L149.877 19.392H147.093L146.661 21H144.117L146.913 12.396H149.997L152.829 21H150.297ZM149.025 16.092C148.985 15.94 148.929 15.724 148.857 15.444C148.785 15.156 148.713 14.86 148.641 14.556C148.569 14.252 148.513 14.004 148.473 13.812C148.441 14.004 148.389 14.244 148.317 14.532C148.253 14.82 148.185 15.104 148.113 15.384C148.049 15.664 147.993 15.9 147.945 16.092L147.573 17.496H149.397L149.025 16.092Z" fill="#52B4E9"/>
<path d="M140.205 21H137.913V11.88H140.205V21Z" fill="#52B4E9"/>
<path d="M133.677 14.244C134.517 14.244 135.173 14.452 135.645 14.868C136.117 15.284 136.353 15.876 136.353 16.644V21H134.769L134.325 20.124H134.277C134.093 20.356 133.901 20.548 133.701 20.7C133.509 20.844 133.285 20.948 133.029 21.012C132.773 21.084 132.461 21.12 132.093 21.12C131.517 21.12 131.037 20.944 130.653 20.592C130.269 20.24 130.077 19.7 130.077 18.972C130.077 18.26 130.321 17.732 130.809 17.388C131.305 17.044 132.021 16.852 132.957 16.812L134.061 16.776V16.68C134.061 16.384 133.989 16.176 133.845 16.056C133.701 15.928 133.505 15.864 133.257 15.864C132.993 15.864 132.701 15.912 132.381 16.008C132.061 16.096 131.737 16.212 131.409 16.356L130.749 14.844C131.133 14.644 131.565 14.496 132.045 14.4C132.533 14.296 133.077 14.244 133.677 14.244ZM133.545 18.06C133.129 18.076 132.833 18.152 132.657 18.288C132.489 18.416 132.405 18.6 132.405 18.84C132.405 19.064 132.465 19.232 132.585 19.344C132.705 19.448 132.865 19.5 133.065 19.5C133.345 19.5 133.581 19.412 133.773 19.236C133.973 19.06 134.073 18.832 134.073 18.552V18.036L133.545 18.06Z" fill="#52B4E9"/>
<path d="M126.992 21.12C125.984 21.12 125.18 20.848 124.58 20.304C123.98 19.76 123.68 18.896 123.68 17.712C123.68 16.904 123.832 16.248 124.136 15.744C124.44 15.232 124.852 14.856 125.372 14.616C125.9 14.368 126.5 14.244 127.172 14.244C127.58 14.244 127.964 14.288 128.324 14.376C128.692 14.464 129.032 14.588 129.344 14.748L128.672 16.44C128.4 16.32 128.144 16.224 127.904 16.152C127.672 16.08 127.428 16.044 127.172 16.044C126.828 16.044 126.548 16.18 126.332 16.452C126.116 16.724 126.008 17.14 126.008 17.7C126.008 18.276 126.116 18.688 126.332 18.936C126.556 19.176 126.84 19.296 127.184 19.296C127.512 19.296 127.84 19.244 128.168 19.14C128.504 19.036 128.82 18.892 129.116 18.708V20.532C128.844 20.708 128.536 20.852 128.192 20.964C127.848 21.068 127.448 21.12 126.992 21.12Z" fill="#52B4E9"/>
<path d="M121.229 11.688C121.557 11.688 121.841 11.756 122.081 11.892C122.329 12.028 122.453 12.3 122.453 12.708C122.453 13.1 122.329 13.368 122.081 13.512C121.841 13.648 121.557 13.716 121.229 13.716C120.893 13.716 120.605 13.648 120.365 13.512C120.133 13.368 120.017 13.1 120.017 12.708C120.017 12.3 120.133 12.028 120.365 11.892C120.605 11.756 120.893 11.688 121.229 11.688ZM122.369 14.364V21H120.077V14.364H122.369Z" fill="#52B4E9"/>
<path d="M114.418 21.12C113.738 21.12 113.174 20.828 112.726 20.244C112.286 19.66 112.066 18.808 112.066 17.688C112.066 16.552 112.29 15.696 112.738 15.12C113.194 14.536 113.782 14.244 114.502 14.244C114.95 14.244 115.306 14.336 115.57 14.52C115.842 14.704 116.066 14.936 116.242 15.216H116.29C116.258 15.048 116.23 14.816 116.206 14.52C116.19 14.224 116.182 13.936 116.182 13.656V11.88H118.486V21H116.758L116.266 20.16H116.182C116.022 20.424 115.802 20.652 115.522 20.844C115.242 21.028 114.874 21.12 114.418 21.12ZM115.354 19.308C115.722 19.308 115.982 19.192 116.134 18.96C116.286 18.728 116.366 18.372 116.374 17.892V17.712C116.374 17.192 116.298 16.792 116.146 16.512C116.002 16.232 115.73 16.092 115.33 16.092C115.058 16.092 114.83 16.224 114.646 16.488C114.47 16.752 114.382 17.164 114.382 17.724C114.382 18.276 114.47 18.68 114.646 18.936C114.83 19.184 115.066 19.308 115.354 19.308Z" fill="#52B4E9"/>
<path d="M107.925 14.244C108.893 14.244 109.657 14.496 110.217 15C110.777 15.504 111.057 16.264 111.057 17.28V18.3H106.965C106.981 18.644 107.109 18.928 107.349 19.152C107.597 19.376 107.953 19.488 108.417 19.488C108.833 19.488 109.213 19.448 109.557 19.368C109.901 19.288 110.257 19.16 110.625 18.984V20.628C110.305 20.796 109.953 20.92 109.569 21C109.193 21.08 108.717 21.12 108.141 21.12C107.469 21.12 106.869 21.004 106.341 20.772C105.821 20.532 105.409 20.16 105.105 19.656C104.801 19.152 104.649 18.508 104.649 17.724C104.649 16.924 104.785 16.268 105.057 15.756C105.337 15.244 105.721 14.864 106.209 14.616C106.705 14.368 107.277 14.244 107.925 14.244ZM108.009 15.804C107.737 15.804 107.509 15.888 107.325 16.056C107.149 16.224 107.045 16.492 107.013 16.86H108.981C108.973 16.564 108.885 16.316 108.717 16.116C108.557 15.908 108.321 15.804 108.009 15.804Z" fill="#52B4E9"/>
<path d="M97.199 21L95.447 14.832H95.399C95.415 14.992 95.431 15.208 95.447 15.48C95.463 15.752 95.479 16.048 95.495 16.368C95.511 16.68 95.519 16.984 95.519 17.28V21H93.467V12.432H96.551L98.339 18.516H98.387L100.139 12.432H103.223V21H101.099V17.244C101.099 16.972 101.103 16.684 101.111 16.38C101.119 16.068 101.131 15.776 101.147 15.504C101.163 15.224 101.175 15.004 101.183 14.844H101.135L99.407 21H97.199Z" fill="#52B4E9"/>
</svg>
