<svg width="256" height="32" viewBox="0 0 256 32" fill="none" xmlns="http://www.w3.org/2000/svg">
<path fill-rule="evenodd" clip-rule="evenodd" d="M10.3599 9.76624C10.2014 9.63414 10.0876 9.45694 10.0342 9.25865C9.98074 9.06037 9.99014 8.8506 10.0611 8.65779C10.1321 8.46498 10.2612 8.29845 10.431 8.18078C10.6008 8.06311 10.803 8 11.0102 8H15.99C16.0972 8 16.2 8.04216 16.2757 8.11722C16.3515 8.19227 16.3941 8.29407 16.3941 8.40021V14.793L10.3599 9.76624ZM23.4014 8H18.0385C17.9035 8 17.7739 8.05081 17.6784 8.14124C17.5829 8.23168 17.5293 8.35434 17.5293 8.48223V23.5178C17.5293 23.6457 17.5829 23.7683 17.6784 23.8588C17.7739 23.9492 17.9035 24 18.0385 24H22.0384C22.1735 24 22.303 23.9492 22.3985 23.8588C22.494 23.7683 22.5476 23.6457 22.5476 23.5178V15.3911L27.9868 23.7703C28.0323 23.8405 28.0961 23.8985 28.1721 23.9387C28.248 23.9789 28.3336 24 28.4206 24H33.9606C34.0956 24 34.2252 23.9492 34.3207 23.8588C34.4162 23.7683 34.4698 23.6457 34.4698 23.5178V8.48223C34.4698 8.4189 34.4566 8.3562 34.431 8.29769C34.4055 8.23918 34.3679 8.18602 34.3207 8.14124C34.2734 8.09646 34.2172 8.06094 34.1554 8.03671C34.0937 8.01247 34.0274 8 33.9606 8H29.8395C29.7044 8 29.5749 8.05081 29.4794 8.14124C29.3839 8.23168 29.3302 8.35434 29.3302 8.48223V16.695L23.8352 8.2297C23.7897 8.15951 23.7259 8.10154 23.6499 8.06133C23.574 8.02111 23.4884 8 23.4014 8ZM41.9657 22.7414C41.9122 22.5431 41.7985 22.3659 41.6399 22.2338L35.6058 17.207V23.5999C35.6058 23.6524 35.6162 23.7044 35.6366 23.753C35.6569 23.8016 35.6866 23.8457 35.7241 23.8828C35.7617 23.92 35.8062 23.9495 35.8552 23.9696C35.9043 23.9897 35.9568 24.0001 36.0099 24.0001H40.9897C41.1969 24.0001 41.3991 23.937 41.5689 23.8193C41.7386 23.7016 41.8678 23.5351 41.9387 23.3423C42.0097 23.1495 42.0191 22.9397 41.9657 22.7414Z" fill="#DE3A3A"/>
<path d="M245.892 14.244C246.652 14.244 247.232 14.436 247.632 14.82C248.032 15.204 248.232 15.824 248.232 16.68V21H245.94V17.388C245.94 16.884 245.872 16.536 245.736 16.344C245.6 16.144 245.4 16.044 245.136 16.044C244.768 16.044 244.512 16.208 244.368 16.536C244.224 16.856 244.152 17.312 244.152 17.904V21H241.86V17.388C241.86 16.908 241.796 16.564 241.668 16.356C241.54 16.148 241.348 16.044 241.092 16.044C240.7 16.044 240.432 16.22 240.288 16.572C240.152 16.924 240.084 17.432 240.084 18.096V21H237.792V14.364H239.52L239.856 15.18H239.916C240.092 14.908 240.344 14.684 240.672 14.508C241.008 14.332 241.42 14.244 241.908 14.244C242.396 14.244 242.796 14.328 243.108 14.496C243.428 14.656 243.688 14.88 243.888 15.168H243.96C244.168 14.872 244.436 14.644 244.764 14.484C245.1 14.324 245.476 14.244 245.892 14.244Z" fill="#DE3A3A"/>
<path d="M236.175 14.244C236.303 14.244 236.435 14.252 236.571 14.268C236.707 14.284 236.807 14.3 236.871 14.316L236.667 16.476C236.587 16.46 236.487 16.444 236.367 16.428C236.255 16.412 236.095 16.404 235.887 16.404C235.695 16.404 235.487 16.432 235.263 16.488C235.047 16.544 234.859 16.668 234.699 16.86C234.539 17.044 234.459 17.336 234.459 17.736V21H232.167V14.364H233.871L234.231 15.42H234.339C234.523 15.092 234.779 14.816 235.107 14.592C235.443 14.36 235.799 14.244 236.175 14.244Z" fill="#DE3A3A"/>
<path d="M230.862 17.664C230.862 18.776 230.566 19.632 229.974 20.232C229.382 20.824 228.57 21.12 227.538 21.12C226.898 21.12 226.33 20.988 225.834 20.724C225.338 20.452 224.946 20.06 224.658 19.548C224.378 19.028 224.238 18.4 224.238 17.664C224.238 16.568 224.534 15.724 225.126 15.132C225.718 14.54 226.534 14.244 227.574 14.244C228.214 14.244 228.778 14.376 229.266 14.64C229.762 14.904 230.15 15.292 230.43 15.804C230.718 16.308 230.862 16.928 230.862 17.664ZM226.566 17.664C226.566 18.232 226.642 18.668 226.794 18.972C226.946 19.268 227.202 19.416 227.562 19.416C227.914 19.416 228.162 19.268 228.306 18.972C228.458 18.668 228.534 18.232 228.534 17.664C228.534 17.096 228.458 16.668 228.306 16.38C228.162 16.092 227.91 15.948 227.55 15.948C227.206 15.948 226.954 16.092 226.794 16.38C226.642 16.668 226.566 17.096 226.566 17.664Z" fill="#DE3A3A"/>
<path d="M220.47 21H218.19V12.432H223.254V14.292H220.47V15.924H223.038V17.784H220.47V21Z" fill="#DE3A3A"/>
<path d="M211.053 14.244C211.741 14.244 212.301 14.436 212.733 14.82C213.165 15.204 213.381 15.824 213.381 16.68V21H211.089V17.376C211.089 16.936 211.025 16.604 210.897 16.38C210.769 16.156 210.565 16.044 210.285 16.044C209.853 16.044 209.561 16.22 209.409 16.572C209.265 16.924 209.193 17.432 209.193 18.096V21H206.901V14.364H208.629L208.941 15.24H209.025C209.233 14.928 209.505 14.684 209.841 14.508C210.185 14.332 210.589 14.244 211.053 14.244Z" fill="#DE3A3A"/>
<path d="M205.597 17.664C205.597 18.776 205.301 19.632 204.709 20.232C204.117 20.824 203.305 21.12 202.273 21.12C201.633 21.12 201.065 20.988 200.569 20.724C200.073 20.452 199.681 20.06 199.393 19.548C199.113 19.028 198.973 18.4 198.973 17.664C198.973 16.568 199.269 15.724 199.861 15.132C200.453 14.54 201.269 14.244 202.309 14.244C202.949 14.244 203.513 14.376 204.001 14.64C204.497 14.904 204.885 15.292 205.165 15.804C205.453 16.308 205.597 16.928 205.597 17.664ZM201.301 17.664C201.301 18.232 201.377 18.668 201.529 18.972C201.681 19.268 201.937 19.416 202.297 19.416C202.649 19.416 202.897 19.268 203.041 18.972C203.193 18.668 203.269 18.232 203.269 17.664C203.269 17.096 203.193 16.668 203.041 16.38C202.897 16.092 202.645 15.948 202.285 15.948C201.941 15.948 201.689 16.092 201.529 16.38C201.377 16.668 201.301 17.096 201.301 17.664Z" fill="#DE3A3A"/>
<path d="M196.522 11.688C196.85 11.688 197.134 11.756 197.374 11.892C197.622 12.028 197.746 12.3 197.746 12.708C197.746 13.1 197.622 13.368 197.374 13.512C197.134 13.648 196.85 13.716 196.522 13.716C196.186 13.716 195.898 13.648 195.658 13.512C195.426 13.368 195.31 13.1 195.31 12.708C195.31 12.3 195.426 12.028 195.658 11.892C195.898 11.756 196.186 11.688 196.522 11.688ZM197.662 14.364V21H195.37V14.364H197.662Z" fill="#DE3A3A"/>
<path d="M193.091 19.308C193.299 19.308 193.487 19.288 193.655 19.248C193.831 19.2 194.011 19.144 194.195 19.08V20.748C193.947 20.852 193.683 20.94 193.403 21.012C193.123 21.084 192.767 21.12 192.335 21.12C191.903 21.12 191.523 21.052 191.195 20.916C190.875 20.78 190.623 20.548 190.439 20.22C190.255 19.884 190.163 19.416 190.163 18.816V16.08H189.359V15.144L190.379 14.424L190.967 13.032H192.467V14.364H194.099V16.08H192.467V18.66C192.467 19.092 192.675 19.308 193.091 19.308Z" fill="#DE3A3A"/>
<path d="M187.101 11.688C187.429 11.688 187.713 11.756 187.953 11.892C188.201 12.028 188.325 12.3 188.325 12.708C188.325 13.1 188.201 13.368 187.953 13.512C187.713 13.648 187.429 13.716 187.101 13.716C186.765 13.716 186.477 13.648 186.237 13.512C186.005 13.368 185.889 13.1 185.889 12.708C185.889 12.3 186.005 12.028 186.237 11.892C186.477 11.756 186.765 11.688 187.101 11.688ZM188.241 14.364V21H185.949V14.364H188.241Z" fill="#DE3A3A"/>
<path d="M184.669 18.96C184.669 19.376 184.573 19.748 184.381 20.076C184.197 20.404 183.897 20.66 183.481 20.844C183.073 21.028 182.533 21.12 181.861 21.12C181.389 21.12 180.965 21.092 180.589 21.036C180.221 20.988 179.845 20.892 179.461 20.748V18.912C179.885 19.104 180.313 19.244 180.745 19.332C181.177 19.412 181.517 19.452 181.765 19.452C182.261 19.452 182.509 19.34 182.509 19.116C182.509 19.02 182.469 18.936 182.389 18.864C182.309 18.792 182.165 18.712 181.957 18.624C181.757 18.536 181.469 18.416 181.093 18.264C180.541 18.032 180.129 17.768 179.857 17.472C179.585 17.168 179.449 16.744 179.449 16.2C179.449 15.552 179.697 15.064 180.193 14.736C180.697 14.408 181.361 14.244 182.185 14.244C182.625 14.244 183.037 14.292 183.421 14.388C183.805 14.484 184.205 14.624 184.621 14.808L183.997 16.284C183.669 16.132 183.337 16.012 183.001 15.924C182.665 15.836 182.397 15.792 182.197 15.792C181.821 15.792 181.633 15.884 181.633 16.068C181.633 16.148 181.665 16.22 181.729 16.284C181.801 16.348 181.933 16.42 182.125 16.5C182.317 16.58 182.597 16.696 182.965 16.848C183.349 17 183.665 17.168 183.913 17.352C184.169 17.528 184.357 17.744 184.477 18C184.605 18.248 184.669 18.568 184.669 18.96Z" fill="#DE3A3A"/>
<path d="M176.999 11.688C177.327 11.688 177.611 11.756 177.851 11.892C178.099 12.028 178.223 12.3 178.223 12.708C178.223 13.1 178.099 13.368 177.851 13.512C177.611 13.648 177.327 13.716 176.999 13.716C176.663 13.716 176.375 13.648 176.135 13.512C175.903 13.368 175.787 13.1 175.787 12.708C175.787 12.3 175.903 12.028 176.135 11.892C176.375 11.756 176.663 11.688 176.999 11.688ZM178.139 14.364V21H175.847V14.364H178.139Z" fill="#DE3A3A"/>
<path d="M174.252 14.364V21H172.524L172.236 20.172H172.104C171.896 20.508 171.612 20.752 171.252 20.904C170.892 21.048 170.508 21.12 170.1 21.12C169.668 21.12 169.276 21.036 168.924 20.868C168.572 20.7 168.292 20.436 168.084 20.076C167.884 19.716 167.784 19.252 167.784 18.684V14.364H170.076V17.988C170.076 18.42 170.136 18.748 170.256 18.972C170.384 19.196 170.588 19.308 170.868 19.308C171.3 19.308 171.588 19.132 171.732 18.78C171.884 18.428 171.96 17.924 171.96 17.268V14.364H174.252Z" fill="#DE3A3A"/>
<path d="M163.925 21.132C163.925 20.804 163.949 20.48 163.997 20.16H163.925C163.773 20.424 163.557 20.652 163.277 20.844C162.997 21.028 162.629 21.12 162.173 21.12C161.469 21.12 160.897 20.828 160.457 20.244C160.017 19.66 159.797 18.808 159.797 17.688C159.797 16.568 160.021 15.716 160.469 15.132C160.917 14.54 161.497 14.244 162.209 14.244C162.673 14.244 163.045 14.336 163.325 14.52C163.613 14.696 163.845 14.916 164.021 15.18H164.069L164.237 14.364H166.217V23.88H163.925V21.132ZM163.109 19.344C163.485 19.344 163.745 19.228 163.889 18.996C164.033 18.756 164.105 18.4 164.105 17.928V17.652C164.105 17.132 164.033 16.732 163.889 16.452C163.753 16.164 163.481 16.02 163.073 16.02C162.441 16.02 162.125 16.588 162.125 17.724C162.125 18.3 162.205 18.716 162.365 18.972C162.525 19.22 162.773 19.344 163.109 19.344Z" fill="#DE3A3A"/>
<path d="M156.64 21.12C155.632 21.12 154.828 20.848 154.228 20.304C153.628 19.76 153.328 18.896 153.328 17.712C153.328 16.904 153.48 16.248 153.784 15.744C154.088 15.232 154.5 14.856 155.02 14.616C155.548 14.368 156.148 14.244 156.82 14.244C157.228 14.244 157.612 14.288 157.972 14.376C158.34 14.464 158.68 14.588 158.992 14.748L158.32 16.44C158.048 16.32 157.792 16.224 157.552 16.152C157.32 16.08 157.076 16.044 156.82 16.044C156.476 16.044 156.196 16.18 155.98 16.452C155.764 16.724 155.656 17.14 155.656 17.7C155.656 18.276 155.764 18.688 155.98 18.936C156.204 19.176 156.488 19.296 156.832 19.296C157.16 19.296 157.488 19.244 157.816 19.14C158.152 19.036 158.468 18.892 158.764 18.708V20.532C158.492 20.708 158.184 20.852 157.84 20.964C157.496 21.068 157.096 21.12 156.64 21.12Z" fill="#DE3A3A"/>
<path d="M150.297 21L149.877 19.392H147.093L146.661 21H144.117L146.913 12.396H149.997L152.829 21H150.297ZM149.025 16.092C148.985 15.94 148.929 15.724 148.857 15.444C148.785 15.156 148.713 14.86 148.641 14.556C148.569 14.252 148.513 14.004 148.473 13.812C148.441 14.004 148.389 14.244 148.317 14.532C148.253 14.82 148.185 15.104 148.113 15.384C148.049 15.664 147.993 15.9 147.945 16.092L147.573 17.496H149.397L149.025 16.092Z" fill="#DE3A3A"/>
<path d="M133.664 14.364H136.076L137.204 18.168C137.228 18.248 137.248 18.356 137.264 18.492C137.288 18.628 137.304 18.76 137.312 18.888H137.36C137.376 18.728 137.396 18.592 137.42 18.48C137.452 18.36 137.48 18.26 137.504 18.18L138.656 14.364H140.996L138.368 21.42C138.168 21.956 137.932 22.408 137.66 22.776C137.396 23.144 137.068 23.42 136.676 23.604C136.284 23.788 135.796 23.88 135.212 23.88C135.004 23.88 134.824 23.868 134.672 23.844C134.52 23.828 134.388 23.808 134.276 23.784V21.984C134.364 22 134.468 22.016 134.588 22.032C134.716 22.048 134.848 22.056 134.984 22.056C135.36 22.056 135.636 21.944 135.812 21.72C135.996 21.504 136.144 21.252 136.256 20.964L136.28 20.904L133.664 14.364Z" fill="#DE3A3A"/>
<path d="M132.2 19.308C132.408 19.308 132.596 19.288 132.764 19.248C132.94 19.2 133.12 19.144 133.304 19.08V20.748C133.056 20.852 132.792 20.94 132.512 21.012C132.232 21.084 131.876 21.12 131.444 21.12C131.012 21.12 130.632 21.052 130.304 20.916C129.984 20.78 129.732 20.548 129.548 20.22C129.364 19.884 129.272 19.416 129.272 18.816V16.08H128.468V15.144L129.488 14.424L130.076 13.032H131.576V14.364H133.208V16.08H131.576V18.66C131.576 19.092 131.784 19.308 132.2 19.308Z" fill="#DE3A3A"/>
<path d="M126.21 11.688C126.538 11.688 126.822 11.756 127.062 11.892C127.31 12.028 127.434 12.3 127.434 12.708C127.434 13.1 127.31 13.368 127.062 13.512C126.822 13.648 126.538 13.716 126.21 13.716C125.874 13.716 125.586 13.648 125.346 13.512C125.114 13.368 124.998 13.1 124.998 12.708C124.998 12.3 125.114 12.028 125.346 11.892C125.586 11.756 125.874 11.688 126.21 11.688ZM127.35 14.364V21H125.058V14.364H127.35Z" fill="#DE3A3A"/>
<path d="M123.429 14.244C123.557 14.244 123.689 14.252 123.825 14.268C123.961 14.284 124.061 14.3 124.125 14.316L123.921 16.476C123.841 16.46 123.741 16.444 123.621 16.428C123.509 16.412 123.349 16.404 123.141 16.404C122.949 16.404 122.741 16.432 122.517 16.488C122.301 16.544 122.113 16.668 121.953 16.86C121.793 17.044 121.713 17.336 121.713 17.736V21H119.421V14.364H121.125L121.485 15.42H121.593C121.777 15.092 122.033 14.816 122.361 14.592C122.697 14.36 123.053 14.244 123.429 14.244Z" fill="#DE3A3A"/>
<path d="M117.838 14.364V21H116.11L115.822 20.172H115.69C115.482 20.508 115.198 20.752 114.838 20.904C114.478 21.048 114.094 21.12 113.686 21.12C113.254 21.12 112.862 21.036 112.51 20.868C112.158 20.7 111.878 20.436 111.67 20.076C111.47 19.716 111.37 19.252 111.37 18.684V14.364H113.662V17.988C113.662 18.42 113.722 18.748 113.842 18.972C113.97 19.196 114.174 19.308 114.454 19.308C114.886 19.308 115.174 19.132 115.318 18.78C115.47 18.428 115.546 17.924 115.546 17.268V14.364H117.838Z" fill="#DE3A3A"/>
<path d="M107.937 21.12C106.929 21.12 106.125 20.848 105.525 20.304C104.925 19.76 104.625 18.896 104.625 17.712C104.625 16.904 104.777 16.248 105.081 15.744C105.385 15.232 105.797 14.856 106.317 14.616C106.845 14.368 107.445 14.244 108.117 14.244C108.525 14.244 108.909 14.288 109.269 14.376C109.637 14.464 109.977 14.588 110.289 14.748L109.617 16.44C109.345 16.32 109.089 16.224 108.849 16.152C108.617 16.08 108.373 16.044 108.117 16.044C107.773 16.044 107.493 16.18 107.277 16.452C107.061 16.724 106.953 17.14 106.953 17.7C106.953 18.276 107.061 18.688 107.277 18.936C107.501 19.176 107.785 19.296 108.129 19.296C108.457 19.296 108.785 19.244 109.113 19.14C109.449 19.036 109.765 18.892 110.061 18.708V20.532C109.789 20.708 109.481 20.852 109.137 20.964C108.793 21.068 108.393 21.12 107.937 21.12Z" fill="#DE3A3A"/>
<path d="M100.483 14.244C101.451 14.244 102.215 14.496 102.775 15C103.335 15.504 103.615 16.264 103.615 17.28V18.3H99.5232C99.5392 18.644 99.6672 18.928 99.9072 19.152C100.155 19.376 100.511 19.488 100.975 19.488C101.391 19.488 101.771 19.448 102.115 19.368C102.459 19.288 102.815 19.16 103.183 18.984V20.628C102.863 20.796 102.511 20.92 102.127 21C101.751 21.08 101.275 21.12 100.699 21.12C100.027 21.12 99.4272 21.004 98.8992 20.772C98.3792 20.532 97.9672 20.16 97.6632 19.656C97.3592 19.152 97.2072 18.508 97.2072 17.724C97.2072 16.924 97.3432 16.268 97.6152 15.756C97.8952 15.244 98.2792 14.864 98.7672 14.616C99.2632 14.368 99.8352 14.244 100.483 14.244ZM100.567 15.804C100.295 15.804 100.067 15.888 99.8832 16.056C99.7072 16.224 99.6032 16.492 99.5712 16.86H101.539C101.531 16.564 101.443 16.316 101.275 16.116C101.115 15.908 100.879 15.804 100.567 15.804Z" fill="#DE3A3A"/>
<path d="M96.3054 18.396C96.3054 18.86 96.1854 19.3 95.9454 19.716C95.7134 20.132 95.3494 20.472 94.8534 20.736C94.3654 20.992 93.7294 21.12 92.9454 21.12C92.5534 21.12 92.2094 21.1 91.9134 21.06C91.6254 21.028 91.3534 20.972 91.0974 20.892C90.8414 20.812 90.5774 20.708 90.3054 20.58V18.516C90.7694 18.748 91.2374 18.928 91.7094 19.056C92.1814 19.176 92.6094 19.236 92.9934 19.236C93.3374 19.236 93.5894 19.176 93.7494 19.056C93.9094 18.936 93.9894 18.784 93.9894 18.6C93.9894 18.376 93.8694 18.196 93.6294 18.06C93.3974 17.916 93.0014 17.72 92.4414 17.472C92.0174 17.272 91.6494 17.064 91.3374 16.848C91.0254 16.624 90.7854 16.352 90.6174 16.032C90.4494 15.712 90.3654 15.308 90.3654 14.82C90.3654 14.268 90.5014 13.808 90.7734 13.44C91.0454 13.064 91.4214 12.784 91.9014 12.6C92.3894 12.408 92.9534 12.312 93.5934 12.312C94.1534 12.312 94.6574 12.376 95.1054 12.504C95.5534 12.624 95.9534 12.764 96.3054 12.924L95.5974 14.712C95.2294 14.544 94.8654 14.412 94.5054 14.316C94.1534 14.212 93.8254 14.16 93.5214 14.16C93.2254 14.16 93.0054 14.212 92.8614 14.316C92.7254 14.42 92.6574 14.552 92.6574 14.712C92.6574 14.848 92.7094 14.968 92.8134 15.072C92.9174 15.176 93.0894 15.292 93.3294 15.42C93.5774 15.54 93.9134 15.696 94.3374 15.888C94.7534 16.072 95.1054 16.276 95.3934 16.5C95.6894 16.716 95.9134 16.976 96.0654 17.28C96.2254 17.576 96.3054 17.948 96.3054 18.396Z" fill="#DE3A3A"/>
</svg>
