<svg width="256" height="32" viewBox="0 0 256 32" fill="none" xmlns="http://www.w3.org/2000/svg">
<path fill-rule="evenodd" clip-rule="evenodd" d="M10.3599 9.76624C10.2014 9.63414 10.0876 9.45694 10.0342 9.25865C9.98074 9.06037 9.99014 8.8506 10.0611 8.65779C10.1321 8.46498 10.2612 8.29845 10.431 8.18078C10.6008 8.06311 10.803 8 11.0102 8H15.99C16.0972 8 16.2 8.04216 16.2757 8.11722C16.3515 8.19227 16.3941 8.29407 16.3941 8.40021V14.793L10.3599 9.76624ZM23.4014 8H18.0385C17.9035 8 17.7739 8.05081 17.6784 8.14124C17.5829 8.23168 17.5293 8.35434 17.5293 8.48223V23.5178C17.5293 23.6457 17.5829 23.7683 17.6784 23.8588C17.7739 23.9492 17.9035 24 18.0385 24H22.0384C22.1735 24 22.303 23.9492 22.3985 23.8588C22.494 23.7683 22.5476 23.6457 22.5476 23.5178V15.3911L27.9868 23.7703C28.0323 23.8405 28.0961 23.8985 28.1721 23.9387C28.248 23.9789 28.3336 24 28.4206 24H33.9606C34.0956 24 34.2252 23.9492 34.3207 23.8588C34.4162 23.7683 34.4698 23.6457 34.4698 23.5178V8.48223C34.4698 8.4189 34.4566 8.3562 34.431 8.29769C34.4055 8.23918 34.3679 8.18602 34.3207 8.14124C34.2734 8.09646 34.2172 8.06094 34.1554 8.03671C34.0937 8.01247 34.0274 8 33.9606 8H29.8395C29.7044 8 29.5749 8.05081 29.4794 8.14124C29.3839 8.23168 29.3302 8.35434 29.3302 8.48223V16.695L23.8352 8.2297C23.7897 8.15951 23.7259 8.10154 23.6499 8.06133C23.574 8.02111 23.4884 8 23.4014 8ZM41.9657 22.7414C41.9122 22.5431 41.7985 22.3659 41.6399 22.2338L35.6058 17.207V23.5999C35.6058 23.6524 35.6162 23.7044 35.6366 23.753C35.6569 23.8016 35.6866 23.8457 35.7241 23.8828C35.7617 23.92 35.8062 23.9495 35.8552 23.9696C35.9043 23.9897 35.9568 24.0001 36.0099 24.0001H40.9897C41.1969 24.0001 41.3991 23.937 41.5689 23.8193C41.7386 23.7016 41.8678 23.5351 41.9387 23.3423C42.0097 23.1495 42.0191 22.9397 41.9657 22.7414Z" fill="#539C00"/>
<path d="M245.892 14.244C246.652 14.244 247.232 14.436 247.632 14.82C248.032 15.204 248.232 15.824 248.232 16.68V21H245.94V17.388C245.94 16.884 245.872 16.536 245.736 16.344C245.6 16.144 245.4 16.044 245.136 16.044C244.768 16.044 244.512 16.208 244.368 16.536C244.224 16.856 244.152 17.312 244.152 17.904V21H241.86V17.388C241.86 16.908 241.796 16.564 241.668 16.356C241.54 16.148 241.348 16.044 241.092 16.044C240.7 16.044 240.432 16.22 240.288 16.572C240.152 16.924 240.084 17.432 240.084 18.096V21H237.792V14.364H239.52L239.856 15.18H239.916C240.092 14.908 240.344 14.684 240.672 14.508C241.008 14.332 241.42 14.244 241.908 14.244C242.396 14.244 242.796 14.328 243.108 14.496C243.428 14.656 243.688 14.88 243.888 15.168H243.96C244.168 14.872 244.436 14.644 244.764 14.484C245.1 14.324 245.476 14.244 245.892 14.244Z" fill="#539C00"/>
<path d="M236.175 14.244C236.303 14.244 236.435 14.252 236.571 14.268C236.707 14.284 236.807 14.3 236.871 14.316L236.667 16.476C236.587 16.46 236.487 16.444 236.367 16.428C236.255 16.412 236.095 16.404 235.887 16.404C235.695 16.404 235.487 16.432 235.263 16.488C235.047 16.544 234.859 16.668 234.699 16.86C234.539 17.044 234.459 17.336 234.459 17.736V21H232.167V14.364H233.871L234.231 15.42H234.339C234.523 15.092 234.779 14.816 235.107 14.592C235.443 14.36 235.799 14.244 236.175 14.244Z" fill="#539C00"/>
<path d="M230.862 17.664C230.862 18.776 230.566 19.632 229.974 20.232C229.382 20.824 228.57 21.12 227.538 21.12C226.898 21.12 226.33 20.988 225.834 20.724C225.338 20.452 224.946 20.06 224.658 19.548C224.378 19.028 224.238 18.4 224.238 17.664C224.238 16.568 224.534 15.724 225.126 15.132C225.718 14.54 226.534 14.244 227.574 14.244C228.214 14.244 228.778 14.376 229.266 14.64C229.762 14.904 230.15 15.292 230.43 15.804C230.718 16.308 230.862 16.928 230.862 17.664ZM226.566 17.664C226.566 18.232 226.642 18.668 226.794 18.972C226.946 19.268 227.202 19.416 227.562 19.416C227.914 19.416 228.162 19.268 228.306 18.972C228.458 18.668 228.534 18.232 228.534 17.664C228.534 17.096 228.458 16.668 228.306 16.38C228.162 16.092 227.91 15.948 227.55 15.948C227.206 15.948 226.954 16.092 226.794 16.38C226.642 16.668 226.566 17.096 226.566 17.664Z" fill="#539C00"/>
<path d="M220.47 21H218.19V12.432H223.254V14.292H220.47V15.924H223.038V17.784H220.47V21Z" fill="#539C00"/>
<path d="M211.053 14.244C211.741 14.244 212.301 14.436 212.733 14.82C213.165 15.204 213.381 15.824 213.381 16.68V21H211.089V17.376C211.089 16.936 211.025 16.604 210.897 16.38C210.769 16.156 210.565 16.044 210.285 16.044C209.853 16.044 209.561 16.22 209.409 16.572C209.265 16.924 209.193 17.432 209.193 18.096V21H206.901V14.364H208.629L208.941 15.24H209.025C209.233 14.928 209.505 14.684 209.841 14.508C210.185 14.332 210.589 14.244 211.053 14.244Z" fill="#539C00"/>
<path d="M205.597 17.664C205.597 18.776 205.301 19.632 204.709 20.232C204.117 20.824 203.305 21.12 202.273 21.12C201.633 21.12 201.065 20.988 200.569 20.724C200.073 20.452 199.681 20.06 199.393 19.548C199.113 19.028 198.973 18.4 198.973 17.664C198.973 16.568 199.269 15.724 199.861 15.132C200.453 14.54 201.269 14.244 202.309 14.244C202.949 14.244 203.513 14.376 204.001 14.64C204.497 14.904 204.885 15.292 205.165 15.804C205.453 16.308 205.597 16.928 205.597 17.664ZM201.301 17.664C201.301 18.232 201.377 18.668 201.529 18.972C201.681 19.268 201.937 19.416 202.297 19.416C202.649 19.416 202.897 19.268 203.041 18.972C203.193 18.668 203.269 18.232 203.269 17.664C203.269 17.096 203.193 16.668 203.041 16.38C202.897 16.092 202.645 15.948 202.285 15.948C201.941 15.948 201.689 16.092 201.529 16.38C201.377 16.668 201.301 17.096 201.301 17.664Z" fill="#539C00"/>
<path d="M196.522 11.688C196.85 11.688 197.134 11.756 197.374 11.892C197.622 12.028 197.746 12.3 197.746 12.708C197.746 13.1 197.622 13.368 197.374 13.512C197.134 13.648 196.85 13.716 196.522 13.716C196.186 13.716 195.898 13.648 195.658 13.512C195.426 13.368 195.31 13.1 195.31 12.708C195.31 12.3 195.426 12.028 195.658 11.892C195.898 11.756 196.186 11.688 196.522 11.688ZM197.662 14.364V21H195.37V14.364H197.662Z" fill="#539C00"/>
<path d="M193.091 19.308C193.299 19.308 193.487 19.288 193.655 19.248C193.831 19.2 194.011 19.144 194.195 19.08V20.748C193.947 20.852 193.683 20.94 193.403 21.012C193.123 21.084 192.767 21.12 192.335 21.12C191.903 21.12 191.523 21.052 191.195 20.916C190.875 20.78 190.623 20.548 190.439 20.22C190.255 19.884 190.163 19.416 190.163 18.816V16.08H189.359V15.144L190.379 14.424L190.967 13.032H192.467V14.364H194.099V16.08H192.467V18.66C192.467 19.092 192.675 19.308 193.091 19.308Z" fill="#539C00"/>
<path d="M187.101 11.688C187.429 11.688 187.713 11.756 187.953 11.892C188.201 12.028 188.325 12.3 188.325 12.708C188.325 13.1 188.201 13.368 187.953 13.512C187.713 13.648 187.429 13.716 187.101 13.716C186.765 13.716 186.477 13.648 186.237 13.512C186.005 13.368 185.889 13.1 185.889 12.708C185.889 12.3 186.005 12.028 186.237 11.892C186.477 11.756 186.765 11.688 187.101 11.688ZM188.241 14.364V21H185.949V14.364H188.241Z" fill="#539C00"/>
<path d="M184.669 18.96C184.669 19.376 184.573 19.748 184.381 20.076C184.197 20.404 183.897 20.66 183.481 20.844C183.073 21.028 182.533 21.12 181.861 21.12C181.389 21.12 180.965 21.092 180.589 21.036C180.221 20.988 179.845 20.892 179.461 20.748V18.912C179.885 19.104 180.313 19.244 180.745 19.332C181.177 19.412 181.517 19.452 181.765 19.452C182.261 19.452 182.509 19.34 182.509 19.116C182.509 19.02 182.469 18.936 182.389 18.864C182.309 18.792 182.165 18.712 181.957 18.624C181.757 18.536 181.469 18.416 181.093 18.264C180.541 18.032 180.129 17.768 179.857 17.472C179.585 17.168 179.449 16.744 179.449 16.2C179.449 15.552 179.697 15.064 180.193 14.736C180.697 14.408 181.361 14.244 182.185 14.244C182.625 14.244 183.037 14.292 183.421 14.388C183.805 14.484 184.205 14.624 184.621 14.808L183.997 16.284C183.669 16.132 183.337 16.012 183.001 15.924C182.665 15.836 182.397 15.792 182.197 15.792C181.821 15.792 181.633 15.884 181.633 16.068C181.633 16.148 181.665 16.22 181.729 16.284C181.801 16.348 181.933 16.42 182.125 16.5C182.317 16.58 182.597 16.696 182.965 16.848C183.349 17 183.665 17.168 183.913 17.352C184.169 17.528 184.357 17.744 184.477 18C184.605 18.248 184.669 18.568 184.669 18.96Z" fill="#539C00"/>
<path d="M176.999 11.688C177.327 11.688 177.611 11.756 177.851 11.892C178.099 12.028 178.223 12.3 178.223 12.708C178.223 13.1 178.099 13.368 177.851 13.512C177.611 13.648 177.327 13.716 176.999 13.716C176.663 13.716 176.375 13.648 176.135 13.512C175.903 13.368 175.787 13.1 175.787 12.708C175.787 12.3 175.903 12.028 176.135 11.892C176.375 11.756 176.663 11.688 176.999 11.688ZM178.139 14.364V21H175.847V14.364H178.139Z" fill="#539C00"/>
<path d="M174.252 14.364V21H172.524L172.236 20.172H172.104C171.896 20.508 171.612 20.752 171.252 20.904C170.892 21.048 170.508 21.12 170.1 21.12C169.668 21.12 169.276 21.036 168.924 20.868C168.572 20.7 168.292 20.436 168.084 20.076C167.884 19.716 167.784 19.252 167.784 18.684V14.364H170.076V17.988C170.076 18.42 170.136 18.748 170.256 18.972C170.384 19.196 170.588 19.308 170.868 19.308C171.3 19.308 171.588 19.132 171.732 18.78C171.884 18.428 171.96 17.924 171.96 17.268V14.364H174.252Z" fill="#539C00"/>
<path d="M163.925 21.132C163.925 20.804 163.949 20.48 163.997 20.16H163.925C163.773 20.424 163.557 20.652 163.277 20.844C162.997 21.028 162.629 21.12 162.173 21.12C161.469 21.12 160.897 20.828 160.457 20.244C160.017 19.66 159.797 18.808 159.797 17.688C159.797 16.568 160.021 15.716 160.469 15.132C160.917 14.54 161.497 14.244 162.209 14.244C162.673 14.244 163.045 14.336 163.325 14.52C163.613 14.696 163.845 14.916 164.021 15.18H164.069L164.237 14.364H166.217V23.88H163.925V21.132ZM163.109 19.344C163.485 19.344 163.745 19.228 163.889 18.996C164.033 18.756 164.105 18.4 164.105 17.928V17.652C164.105 17.132 164.033 16.732 163.889 16.452C163.753 16.164 163.481 16.02 163.073 16.02C162.441 16.02 162.125 16.588 162.125 17.724C162.125 18.3 162.205 18.716 162.365 18.972C162.525 19.22 162.773 19.344 163.109 19.344Z" fill="#539C00"/>
<path d="M156.64 21.12C155.632 21.12 154.828 20.848 154.228 20.304C153.628 19.76 153.328 18.896 153.328 17.712C153.328 16.904 153.48 16.248 153.784 15.744C154.088 15.232 154.5 14.856 155.02 14.616C155.548 14.368 156.148 14.244 156.82 14.244C157.228 14.244 157.612 14.288 157.972 14.376C158.34 14.464 158.68 14.588 158.992 14.748L158.32 16.44C158.048 16.32 157.792 16.224 157.552 16.152C157.32 16.08 157.076 16.044 156.82 16.044C156.476 16.044 156.196 16.18 155.98 16.452C155.764 16.724 155.656 17.14 155.656 17.7C155.656 18.276 155.764 18.688 155.98 18.936C156.204 19.176 156.488 19.296 156.832 19.296C157.16 19.296 157.488 19.244 157.816 19.14C158.152 19.036 158.468 18.892 158.764 18.708V20.532C158.492 20.708 158.184 20.852 157.84 20.964C157.496 21.068 157.096 21.12 156.64 21.12Z" fill="#539C00"/>
<path d="M150.297 21L149.877 19.392H147.093L146.661 21H144.117L146.913 12.396H149.997L152.829 21H150.297ZM149.025 16.092C148.985 15.94 148.929 15.724 148.857 15.444C148.785 15.156 148.713 14.86 148.641 14.556C148.569 14.252 148.513 14.004 148.473 13.812C148.441 14.004 148.389 14.244 148.317 14.532C148.253 14.82 148.185 15.104 148.113 15.384C148.049 15.664 147.993 15.9 147.945 16.092L147.573 17.496H149.397L149.025 16.092Z" fill="#539C00"/>
<path d="M137.362 14.244C138.33 14.244 139.094 14.496 139.654 15C140.214 15.504 140.494 16.264 140.494 17.28V18.3H136.402C136.418 18.644 136.546 18.928 136.786 19.152C137.034 19.376 137.39 19.488 137.854 19.488C138.27 19.488 138.65 19.448 138.994 19.368C139.338 19.288 139.694 19.16 140.062 18.984V20.628C139.742 20.796 139.39 20.92 139.006 21C138.63 21.08 138.154 21.12 137.578 21.12C136.906 21.12 136.306 21.004 135.778 20.772C135.258 20.532 134.846 20.16 134.542 19.656C134.238 19.152 134.086 18.508 134.086 17.724C134.086 16.924 134.222 16.268 134.494 15.756C134.774 15.244 135.158 14.864 135.646 14.616C136.142 14.368 136.714 14.244 137.362 14.244ZM137.446 15.804C137.174 15.804 136.946 15.888 136.762 16.056C136.586 16.224 136.482 16.492 136.45 16.86H138.418C138.41 16.564 138.322 16.316 138.154 16.116C137.994 15.908 137.758 15.804 137.446 15.804Z" fill="#539C00"/>
<path d="M130.929 21.12C129.921 21.12 129.117 20.848 128.517 20.304C127.917 19.76 127.617 18.896 127.617 17.712C127.617 16.904 127.769 16.248 128.073 15.744C128.377 15.232 128.789 14.856 129.309 14.616C129.837 14.368 130.437 14.244 131.109 14.244C131.517 14.244 131.901 14.288 132.261 14.376C132.629 14.464 132.969 14.588 133.281 14.748L132.609 16.44C132.337 16.32 132.081 16.224 131.841 16.152C131.609 16.08 131.365 16.044 131.109 16.044C130.765 16.044 130.485 16.18 130.269 16.452C130.053 16.724 129.945 17.14 129.945 17.7C129.945 18.276 130.053 18.688 130.269 18.936C130.493 19.176 130.777 19.296 131.121 19.296C131.449 19.296 131.777 19.244 132.105 19.14C132.441 19.036 132.757 18.892 133.053 18.708V20.532C132.781 20.708 132.473 20.852 132.129 20.964C131.785 21.068 131.385 21.12 130.929 21.12Z" fill="#539C00"/>
<path d="M125.167 11.688C125.495 11.688 125.779 11.756 126.019 11.892C126.267 12.028 126.391 12.3 126.391 12.708C126.391 13.1 126.267 13.368 126.019 13.512C125.779 13.648 125.495 13.716 125.167 13.716C124.831 13.716 124.543 13.648 124.303 13.512C124.071 13.368 123.955 13.1 123.955 12.708C123.955 12.3 124.071 12.028 124.303 11.892C124.543 11.756 124.831 11.688 125.167 11.688ZM126.307 14.364V21H124.015V14.364H126.307Z" fill="#539C00"/>
<path d="M118.407 21L115.875 14.364H118.263L119.391 18.288C119.407 18.32 119.427 18.408 119.451 18.552C119.483 18.696 119.499 18.832 119.499 18.96H119.535C119.535 18.824 119.547 18.696 119.571 18.576C119.603 18.456 119.627 18.364 119.643 18.3L120.819 14.364H123.207L120.675 21H118.407Z" fill="#539C00"/>
<path d="M115.05 14.244C115.178 14.244 115.31 14.252 115.446 14.268C115.582 14.284 115.682 14.3 115.746 14.316L115.542 16.476C115.462 16.46 115.362 16.444 115.242 16.428C115.13 16.412 114.97 16.404 114.762 16.404C114.57 16.404 114.362 16.432 114.138 16.488C113.922 16.544 113.734 16.668 113.574 16.86C113.414 17.044 113.334 17.336 113.334 17.736V21H111.042V14.364H112.746L113.106 15.42H113.214C113.398 15.092 113.654 14.816 113.982 14.592C114.318 14.36 114.674 14.244 115.05 14.244Z" fill="#539C00"/>
<path d="M106.612 14.244C107.58 14.244 108.344 14.496 108.904 15C109.464 15.504 109.744 16.264 109.744 17.28V18.3H105.652C105.668 18.644 105.796 18.928 106.036 19.152C106.284 19.376 106.64 19.488 107.104 19.488C107.52 19.488 107.9 19.448 108.244 19.368C108.588 19.288 108.944 19.16 109.312 18.984V20.628C108.992 20.796 108.64 20.92 108.256 21C107.88 21.08 107.404 21.12 106.828 21.12C106.156 21.12 105.556 21.004 105.028 20.772C104.508 20.532 104.096 20.16 103.792 19.656C103.488 19.152 103.336 18.508 103.336 17.724C103.336 16.924 103.472 16.268 103.744 15.756C104.024 15.244 104.408 14.864 104.896 14.616C105.392 14.368 105.964 14.244 106.612 14.244ZM106.696 15.804C106.424 15.804 106.196 15.888 106.012 16.056C105.836 16.224 105.732 16.492 105.7 16.86H107.668C107.66 16.564 107.572 16.316 107.404 16.116C107.244 15.908 107.008 15.804 106.696 15.804Z" fill="#539C00"/>
<path d="M102.434 18.396C102.434 18.86 102.314 19.3 102.074 19.716C101.842 20.132 101.478 20.472 100.982 20.736C100.494 20.992 99.8583 21.12 99.0743 21.12C98.6823 21.12 98.3383 21.1 98.0423 21.06C97.7543 21.028 97.4823 20.972 97.2263 20.892C96.9703 20.812 96.7063 20.708 96.4343 20.58V18.516C96.8983 18.748 97.3663 18.928 97.8383 19.056C98.3103 19.176 98.7383 19.236 99.1223 19.236C99.4663 19.236 99.7183 19.176 99.8783 19.056C100.038 18.936 100.118 18.784 100.118 18.6C100.118 18.376 99.9983 18.196 99.7583 18.06C99.5263 17.916 99.1303 17.72 98.5703 17.472C98.1463 17.272 97.7783 17.064 97.4663 16.848C97.1543 16.624 96.9143 16.352 96.7463 16.032C96.5783 15.712 96.4943 15.308 96.4943 14.82C96.4943 14.268 96.6303 13.808 96.9023 13.44C97.1743 13.064 97.5503 12.784 98.0303 12.6C98.5183 12.408 99.0823 12.312 99.7223 12.312C100.282 12.312 100.786 12.376 101.234 12.504C101.682 12.624 102.082 12.764 102.434 12.924L101.726 14.712C101.358 14.544 100.994 14.412 100.634 14.316C100.282 14.212 99.9543 14.16 99.6503 14.16C99.3543 14.16 99.1343 14.212 98.9903 14.316C98.8543 14.42 98.7863 14.552 98.7863 14.712C98.7863 14.848 98.8383 14.968 98.9423 15.072C99.0463 15.176 99.2183 15.292 99.4583 15.42C99.7063 15.54 100.042 15.696 100.466 15.888C100.882 16.072 101.234 16.276 101.522 16.5C101.818 16.716 102.042 16.976 102.194 17.28C102.354 17.576 102.434 17.948 102.434 18.396Z" fill="#539C00"/>
</svg>
