<?xml version="1.0" encoding="UTF-8" standalone="no"?>
<!-- Created with Inkscape (http://www.inkscape.org/) -->

<svg
   width="179.12573mm"
   height="44.849094mm"
   viewBox="0 0 179.12574 44.849095"
   version="1.1"
   id="svg3852"
   sodipodi:docname="logo-long.svg"
   inkscape:version="1.3.2 (091e20ef0f, 2023-11-25, custom)"
   xml:space="preserve"
   inkscape:export-filename="logo-long-trans.png"
   inkscape:export-xdpi="67.961235"
   inkscape:export-ydpi="67.961235"
   xmlns:inkscape="http://www.inkscape.org/namespaces/inkscape"
   xmlns:sodipodi="http://sodipodi.sourceforge.net/DTD/sodipodi-0.dtd"
   xmlns="http://www.w3.org/2000/svg"
   xmlns:svg="http://www.w3.org/2000/svg"
   xmlns:rdf="http://www.w3.org/1999/02/22-rdf-syntax-ns#"
   xmlns:cc="http://creativecommons.org/ns#"
   xmlns:dc="http://purl.org/dc/elements/1.1/"><defs
     id="defs3846"><inkscape:path-effect
       effect="fillet_chamfer"
       id="path-effect1"
       is_visible="true"
       lpeversion="1"
       nodesatellites_param="F,0,0,1,0,0,0,1 @ F,0,0,1,0,0,0,1 @ F,0,0,1,0,0,0,1 @ F,0,0,1,0,0,0,1 @ F,0,0,1,0,0,0,1 @ F,0,0,1,0,0,0,1 @ F,0,0,1,0,0,0,1 @ F,0,0,1,0,0,0,1 @ F,0,0,1,0,0,0,1 @ F,0,0,1,0,0,0,1 @ F,0,0,1,0,0,0,1 @ F,0,0,1,0,0,0,1"
       radius="0"
       unit="px"
       method="auto"
       mode="F"
       chamfer_steps="1"
       flexible="false"
       use_knot_distance="true"
       apply_no_radius="true"
       apply_with_radius="true"
       only_selected="false"
       hide_knots="false" /></defs><sodipodi:namedview
     id="base"
     pagecolor="#595959"
     bordercolor="#666666"
     borderopacity="1.0"
     inkscape:pageopacity="0"
     inkscape:pageshadow="2"
     inkscape:zoom="2.8284272"
     inkscape:cx="373.70592"
     inkscape:cy="124.45079"
     inkscape:document-units="mm"
     inkscape:current-layer="g4470"
     showgrid="false"
     inkscape:pagecheckerboard="true"
     inkscape:window-width="1920"
     inkscape:window-height="1008"
     inkscape:window-x="0"
     inkscape:window-y="0"
     inkscape:window-maximized="1"
     inkscape:showpageshadow="2"
     inkscape:deskcolor="#d1d1d1"
     showguides="false"><sodipodi:guide
       position="147.38288,42.719204"
       orientation="-0.97897681,0.2039716"
       id="guide13399"
       inkscape:locked="false" /><sodipodi:guide
       position="147.38289,42.719205"
       orientation="-0.069726076,0.99756618"
       id="guide13401"
       inkscape:locked="false" /><sodipodi:guide
       position="150.45291,8.8652714"
       orientation="0.069796564,-0.99756125"
       id="guide13403"
       inkscape:locked="false" /><sodipodi:guide
       position="174.96475,31.054616"
       orientation="0.069735951,-0.99756549"
       id="guide13419"
       inkscape:locked="false" /><sodipodi:guide
       position="173.11911,22.207503"
       orientation="-0.068450968,0.99765448"
       id="guide13427"
       inkscape:locked="false" /><sodipodi:guide
       position="177.87665,22.533925"
       orientation="-0.97895651,0.20406901"
       id="guide13429"
       inkscape:locked="false" /><sodipodi:guide
       position="145.80352,14.435966"
       orientation="-0.069109242,0.9976091"
       id="guide15020"
       inkscape:locked="false" /><sodipodi:guide
       position="146.12564,36.684942"
       orientation="-0.069789741,0.99756172"
       id="guide15029"
       inkscape:locked="false" /></sodipodi:namedview><metadata
     id="metadata3849"><rdf:RDF><cc:Work
         rdf:about=""><dc:format>image/svg+xml</dc:format><dc:type
           rdf:resource="http://purl.org/dc/dcmitype/StillImage" /></cc:Work></rdf:RDF></metadata><g
     inkscape:label="Layer 1"
     inkscape:groupmode="layer"
     id="layer1"
     transform="translate(-68.206695,-168.96476)"><g
       transform="translate(5.2915127,22.630878)"
       id="g2559"><g
         id="g4470"
         transform="matrix(0.98569755,0,0,0.98569754,74.365879,-0.14392109)"
         inkscape:label="station"><path
           d="m 71.070134,172.95255 -4.734664,0.33077 0.57447,-2.73456 2.139294,-0.14973 -0.376241,1.80924 2.595442,-0.18103 0.930868,-4.44332 -7.330114,0.5118 -1.66358,8.00131 4.734672,-0.33077 -0.773014,3.62025 -2.119829,0.1484 0.475696,-2.23174 -2.614982,0.18237 -1.030327,4.86616 7.330104,-0.5118 z"
           style="fill:#d5d5d5;fill-opacity:1;fill-rule:nonzero;stroke:none;stroke-width:0.34773216"
           id="path172"
           inkscape:connector-curvature="0" /><path
           d="m 74.794828,169.99754 2.496095,-0.17422 -2.436556,11.62085 2.595151,-0.182 2.436903,-11.62086 2.496023,-0.17421 0.554678,-2.63441 -7.587516,0.53064 z"
           style="fill:#d5d5d5;fill-opacity:1;fill-rule:nonzero;stroke:none;stroke-width:0.34773216"
           id="path176"
           inkscape:connector-curvature="0" /><path
           d="m 87.573322,171.75893 0.554606,-2.69318 2.119754,-0.1484 -0.554978,2.69354 z m 2.832629,8.59803 2.991888,-14.25529 -7.310379,0.51154 -2.99153,14.25493 2.595227,-0.18201 1.327293,-6.27378 2.11968,-0.14839 -1.327288,6.27414 z"
           style="fill:#d5d5d5;fill-opacity:1;fill-rule:nonzero;stroke:none;stroke-width:0.34773216"
           id="path180"
           inkscape:connector-curvature="0" /><path
           d="m 98.977684,179.78056 2.436926,-11.62086 2.49608,-0.1752 0.55493,-2.63374 -7.587518,0.53065 -0.554634,2.63373 2.495947,-0.17421 -2.436599,11.6212 z"
           style="fill:#d5d5d5;fill-opacity:1;fill-rule:nonzero;stroke:none;stroke-width:0.34773216"
           id="path184"
           inkscape:connector-curvature="0" /><path
           d="m 104.62426,179.38562 2.5951,-0.18101 2.9915,-14.25528 -2.59522,0.182 z"
           style="fill:#d5d5d5;fill-opacity:1;fill-rule:nonzero;stroke:none;stroke-width:0.34773216"
           id="path188"
           inkscape:connector-curvature="0" /><path
           d="m 115.73198,167.18138 2.11975,-0.14839 -1.88236,8.98749 -2.11949,0.14838 z m -5.03203,11.80203 7.31001,-0.51042 2.99153,-14.25494 -7.31028,0.51044 z"
           style="fill:#d5d5d5;fill-opacity:1;fill-rule:nonzero;stroke:none;stroke-width:0.34773216"
           id="path192"
           inkscape:connector-curvature="0" /><path
           d="m 124.08538,178.07141 1.36653,-6.47511 1.18856,6.29603 2.25853,-0.15792 2.99192,-14.25493 -2.59522,0.18201 -1.36734,6.57353 -1.18854,-6.39514 -2.25854,0.15791 -2.99084,14.25493 z"
           style="fill:#d5d5d5;fill-opacity:1;fill-rule:nonzero;stroke:none;stroke-width:0.34773216"
           id="path196"
           inkscape:connector-curvature="0"
           sodipodi:nodetypes="ccccccccccc" /></g><g
         id="g4477"
         transform="matrix(0.98569755,0,0,0.98569754,-0.0640317,21.542203)"
         inkscape:label="space"><path
           d="m 132.79338,149.36721 -2.59537,0.18103 0.74171,-3.62685 2.59508,-0.182 z m -4.58172,-6.72375 -3.99857,19.05572 3.46889,-0.24195 1.77449,-8.38766 6.0644,-0.42299 2.22479,-10.66981 z"
           style="fill:#fefefe;fill-opacity:1;fill-rule:nonzero;stroke:none;stroke-width:0.347732"
           id="path156"
           inkscape:connector-curvature="0" /><path
           d="m 102.96961,162.81242 3.67183,-0.51399 c 0.81099,-5.12597 1.9912,-10.18533 3.05444,-15.2633 l 2.80731,-0.19754 -1.59376,8.87281 3.56392,-0.43274 1.42923,-8.47429 3.19909,-0.12566 -3.11641,15.07756 3.96225,-0.56941 3.46031,-18.06424 -16.43876,0.63374 z"
           style="fill:#fefefe;fill-opacity:1;fill-rule:nonzero;stroke:none;stroke-width:0.347732"
           id="path164"
           inkscape:connector-curvature="0"
           sodipodi:nodetypes="ccccccccccccc" /><path
           d="m 94.340502,163.15384 3.908508,-0.27312 c 0.412493,-2.28568 3.4746,-16.47121 3.91533,-18.75155 l -7.083726,0.15689 2.909856,1.48886 z"
           style="fill:#fefefe;fill-opacity:1;fill-rule:nonzero;stroke:none;stroke-width:0.347732"
           id="path200"
           inkscape:connector-curvature="0"
           sodipodi:nodetypes="cccccc" /></g><path
         id="path204"
         style="fill:#f5a9b8;fill-opacity:1;fill-rule:nonzero;stroke:none;stroke-width:0.34275872"
         inkscape:label="line top"
         d="M 137.75403 156.14414 L 138.03308 154.7866 L 69.436748 159.51086 L 69.16338 160.85703 L 137.75403 156.14414 z " /><path
         id="path18971"
         style="fill:#5bcefa;fill-opacity:1;fill-rule:nonzero;stroke:none;stroke-width:0.34275872"
         inkscape:label="line top"
         d="M 206.62992 150.06234 L 138.03308 154.7866 L 137.75403 156.14414 L 206.34467 151.43125 L 206.62992 150.06234 z " /><path
         id="path208"
         style="fill:#5bcefa;fill-opacity:1;fill-rule:nonzero;stroke:none;stroke-width:0.34275872"
         inkscape:label="line bottom"
         d="M 131.46862 186.47252 L 131.74819 185.11549 L 63.189067 189.83717 L 62.915182 191.18282 L 131.46862 186.47252 z " /><path
         id="path19029"
         style="fill:#f5a9b8;fill-opacity:1;fill-rule:nonzero;stroke:none;stroke-width:0.34275872"
         inkscape:label="line bottom"
         d="M 200.30731 180.3933 L 131.74819 185.11549 L 131.46862 186.47252 L 200.02206 181.76221 L 200.30731 180.3933 z " /><g
         id="g13488"
         inkscape:label="new trans flag (even more based)"
         transform="translate(-1.2208333e-6)"
         clip-path="none"
         style="display:none"><path
           id="path13490"
           style="fill:#5bcefa;fill-opacity:1;stroke:none;stroke-width:0.175948;stroke-opacity:1"
           d="M 245.51265,146.00241 210.29792,148.46446 203.09477,183.0365 238.30624,180.57285 Z"
           sodipodi:nodetypes="ccccc"
           transform="translate(-1.2208333e-6)"
           inkscape:label="blue" /><path
           id="path14220"
           style="fill:#f5a9b8;fill-opacity:1;stroke:none;stroke-width:0.175948;stroke-opacity:1"
           d="M 244.25524,152.03442 209.04081,154.49803 204.34202,177.0502 239.54897,174.61125 Z"
           sodipodi:nodetypes="ccccc"
           transform="translate(-1.2208333e-6)"
           inkscape:label="pink" /><path
           style="fill:#ffffff;fill-opacity:1;stroke-width:0.175948"
           d="M 207.42413,162.25741 205.58919,171.06437 240.79181,168.64905 242.63734,159.79578 Z"
           id="path13485"
           inkscape:label="white"
           transform="translate(-1.2208333e-6)"
           sodipodi:nodetypes="ccccc" /></g><g
         id="g15039"
         transform="matrix(1,-0.06861153,-0.20845555,1,33.595587,18.744666)"
         inkscape:label="14"><path
           d="M 209.28965,147.21125 209.29165,146.51903 214.35923,146.51203 214.33173,175.84206 213.6498,175.84289 213.6757,147.20546 Z M 216.97346,178.45992 216.98046,143.88767 206.69945,143.90107 206.69045,149.93539 211.07578,149.92939 211.07878,178.46803 Z"
           style="fill:#e23229;fill-opacity:1;fill-rule:nonzero;stroke:none;stroke-width:0.345236"
           id="path15033"
           inkscape:connector-curvature="0" /><path
           d="M 234.5791,146.48498 234.5637,163.13482 239.28641,163.13481 239.28678,163.87807 H 234.56298 L 234.55208,175.81483 233.80887,175.81509 233.82147,163.8781 222.61225,163.8851 Z M 220.03988,166.50939 231.24902,166.50239 V 178.44062 L 237.14492,178.43262 237.14692,166.50182 H 241.90446 L 241.90447,160.50973 H 237.14784 L 237.15084,143.8605 232.66067,143.8833 220.04646,162.34577 Z"
           style="fill:#e23229;fill-opacity:1;fill-rule:nonzero;stroke:none;stroke-width:0.345236"
           id="path15035"
           inkscape:connector-curvature="0"
           sodipodi:nodetypes="cccccccccccccccccccccc" /><path
           style="fill:#e23229;fill-opacity:1;stroke:none;stroke-width:0.260799px;stroke-linecap:butt;stroke-linejoin:miter;stroke-opacity:1"
           d="M 233.82149,149.12308 224.04962,163.13481 H 233.82149 Z M 231.59554,156.14385 231.59555,161.00937 H 228.13039 Z"
           id="path15037"
           inkscape:connector-curvature="0"
           sodipodi:nodetypes="cccccccc" /></g></g></g></svg>
