<?xml version="1.0" standalone="no"?>
<!DOCTYPE svg PUBLIC "-//W3C//DTD SVG 20010904//EN"
 "http://www.w3.org/TR/2001/REC-SVG-20010904/DTD/svg10.dtd">
<svg version="1.0" xmlns="http://www.w3.org/2000/svg"
 width="300.000000pt" height="300.000000pt" viewBox="0 0 300.000000 300.000000"
 preserveAspectRatio="xMidYMid meet">
<metadata>
Created by potrace 1.10, written by Peter Selinger 2001-2011
</metadata>
<g transform="translate(0.000000,300.000000) scale(0.100000,-0.100000)"
fill="#000000" stroke="none">
<path d="M1059 2972 c26 -17 36 -29 29 -33 -7 -4 -17 -5 -23 -1 -5 3 -35 5
-65 4 l-54 -2 34 25 34 25 -35 0 c-119 0 -257 -120 -284 -248 -5 -26 -11 -32
-23 -27 -71 28 -136 11 -204 -53 l-48 -45 -39 36 c-21 19 -55 40 -76 47 -85
28 -187 -14 -229 -95 -21 -39 -21 -52 -24 -788 -2 -512 1 -754 8 -767 12 -22
49 -27 68 -8 9 9 12 192 12 761 l0 749 34 34 c28 28 42 34 76 34 47 0 20 23
360 -305 74 -72 203 -196 285 -275 229 -220 427 -411 850 -820 77 -74 257
-247 400 -385 509 -490 570 -549 592 -574 38 -43 28 -114 -21 -153 -20 -16
-101 -18 -1258 -18 -869 0 -1244 3 -1261 11 -56 25 -57 35 -57 431 0 270 -3
367 -12 376 -19 19 -56 14 -68 -8 -7 -14 -10 -138 -8 -388 3 -336 5 -370 22
-405 25 -50 75 -87 127 -94 48 -7 47 6 -5 39 -17 11 -22 16 -11 12 11 -5 574
-10 1250 -12 1267 -2 1262 -2 1308 36 9 8 17 11 17 6 0 -5 -9 -16 -21 -24 -11
-8 -35 -25 -52 -37 l-31 -23 33 0 c60 0 117 44 146 112 31 77 9 166 -57 224
l-35 30 58 62 c64 68 82 119 66 182 -5 19 -12 70 -15 113 -7 76 -7 78 20 104
42 40 68 102 68 161 0 67 -14 98 -88 200 -83 113 -88 134 -63 217 41 132 28
187 -87 364 -33 51 -67 116 -74 143 -8 35 -19 53 -34 58 -19 7 -20 13 -14 52
7 51 16 68 35 68 18 0 35 61 35 126 0 75 -24 134 -88 209 -31 37 -67 80 -80
95 -16 20 -27 54 -37 112 -7 45 -18 96 -25 112 -21 56 -70 105 -138 138 -94
46 -179 46 -311 0 -58 -21 -103 -31 -117 -28 -14 4 -49 29 -79 56 -95 86 -151
88 -309 8 -109 -55 -142 -55 -226 -2 -69 44 -108 59 -178 67 l-43 5 40 -26z
m714 -102 c26 -19 46 -39 47 -43 0 -13 -32 10 -85 59 -52 49 -41 44 38 -16z
m-946 -4 c-25 -25 -48 -54 -52 -65 -3 -12 -10 -21 -15 -21 -16 0 30 68 66 100
52 45 53 36 1 -14z m298 25 c22 -10 67 -35 100 -56 56 -34 64 -36 125 -32 52
3 84 13 161 50 125 61 144 61 215 -3 30 -28 67 -55 80 -60 45 -17 109 -11 197
20 122 42 199 39 273 -12 47 -32 73 -85 84 -172 12 -94 20 -111 114 -220 83
-98 92 -119 83 -222 -3 -45 -1 -67 8 -74 11 -9 10 -16 -3 -40 -14 -24 -15 -35
-5 -59 9 -24 8 -31 -3 -35 -22 -8 -17 -75 10 -131 12 -27 51 -92 84 -143 82
-125 91 -157 63 -243 -24 -76 -27 -146 -7 -192 7 -18 41 -70 74 -115 79 -108
90 -139 67 -198 -9 -24 -21 -46 -26 -50 -5 -3 -22 8 -38 24 -39 38 -90 62
-135 62 -28 0 -36 4 -36 18 0 9 -9 162 -19 339 -19 318 -20 323 -48 374 -29
55 -83 101 -136 118 -27 8 -329 31 -416 31 l-28 0 -6 90 c-18 247 -168 459
-393 553 -162 68 -340 63 -525 -17 -13 -6 -18 1 -24 31 -17 95 -96 172 -185
181 -58 5 -62 17 -29 72 34 56 61 81 114 106 63 30 152 32 210 5z m1181 -63
c42 -32 47 -39 67 -81 20 -45 21 -47 5 -47 -6 0 -8 3 -5 6 12 13 -38 87 -77
116 -21 15 -34 28 -29 28 6 0 23 -10 39 -22z m-1516 -141 c21 -14 20 -15 -27
-19 -70 -6 -77 -1 -48 36 14 18 25 39 25 47 1 8 7 0 14 -17 8 -17 24 -38 36
-47z m129 -54 c21 -18 39 -48 51 -83 11 -30 20 -50 20 -45 1 6 5 0 10 -12 12
-29 28 -29 120 3 64 23 92 27 195 27 129 1 208 -17 297 -67 87 -49 210 -172
239 -241 7 -16 19 -38 27 -47 9 -10 12 -18 7 -18 -4 0 -3 -6 2 -12 12 -16 32
-114 36 -183 2 -27 9 -62 15 -77 10 -25 17 -28 64 -30 47 -1 49 -2 13 -5 -22
-3 -45 -8 -50 -13 -6 -5 -20 -7 -32 -4 -11 3 -35 -2 -53 -11 -33 -17 -35 -28
-15 -80 7 -17 4 -16 -21 6 -60 54 -80 62 -180 65 -167 6 -211 45 -226 202 -10
108 -30 149 -93 197 -30 24 -46 28 -118 31 -119 5 -143 11 -183 46 -48 43 -64
77 -70 156 -9 119 -13 129 -59 177 -50 50 -47 60 4 18z m-82 -15 c18 -5 45
-24 61 -42 26 -30 29 -43 35 -125 7 -100 26 -148 74 -192 51 -48 85 -59 180
-59 145 0 203 -47 203 -165 0 -95 22 -155 75 -204 59 -54 79 -61 183 -61 66 0
96 -5 122 -19 59 -31 72 -59 80 -165 9 -112 36 -170 102 -213 36 -24 53 -28
152 -33 167 -9 191 -33 205 -197 9 -110 34 -157 108 -204 43 -26 55 -29 135
-29 97 0 139 -13 177 -53 19 -22 25 -42 32 -118 5 -50 14 -106 20 -124 16 -44
1 -79 -56 -135 l-44 -43 -288 279 c-159 153 -405 392 -548 529 -627 603 -977
942 -1242 1197 l-121 117 44 40 43 40 118 -5 c65 -3 132 -10 150 -16z m-385
-22 c28 15 29 14 19 -5 -28 -51 -24 -54 300 -366 225 -217 385 -371 639 -615
128 -124 256 -247 284 -274 51 -49 92 -88 536 -518 333 -321 369 -355 412
-385 35 -24 39 -24 67 -10 28 14 45 7 21 -8 -17 -11 -11 -61 12 -90 14 -18 16
-25 6 -19 -14 8 -287 268 -477 454 -42 41 -182 176 -310 300 -129 124 -307
295 -395 381 -89 86 -179 173 -201 194 -66 60 -464 444 -545 525 -128 128
-461 445 -471 448 -5 2 -9 8 -9 13 0 6 19 -1 42 -15 39 -23 43 -24 70 -10z
m1985 -69 c13 -21 35 -51 48 -65 13 -15 36 -40 50 -57 15 -16 35 -48 45 -70
19 -40 30 -149 17 -162 -4 -3 -7 23 -7 58 0 76 -25 126 -109 215 -53 57 -82
108 -80 141 1 16 2 15 6 -1 3 -11 16 -37 30 -59z m216 -749 c14 -18 44 -64 66
-103 38 -65 41 -75 41 -145 -1 -44 -7 -87 -15 -105 l-15 -30 6 30 c18 88 16
155 -7 203 -22 45 -115 192 -129 202 -4 3 -10 19 -14 35 -4 17 -9 39 -12 50
-2 11 9 -8 25 -42 16 -34 41 -77 54 -95z m-590 45 c-18 -2 -48 -2 -65 0 -18 2
-4 4 32 4 36 0 50 -2 33 -4z m195 -10 c-21 -2 -55 -2 -75 0 -21 2 -4 4 37 4
41 0 58 -2 38 -4z m226 -65 l49 -50 8 -109 c5 -61 12 -136 18 -167 10 -64 9
-298 -2 -308 -4 -4 -8 24 -9 62 0 38 -2 74 -3 79 -1 6 -5 84 -9 175 -9 220
-16 249 -76 310 -30 29 -64 52 -87 58 -37 11 -37 11 12 6 44 -5 56 -12 99 -56z
m-352 28 c274 -16 298 -23 335 -97 20 -40 23 -73 38 -344 8 -165 18 -311 21
-324 4 -21 2 -23 -22 -17 -76 20 -103 65 -114 193 -10 109 -33 155 -101 200
-37 24 -54 28 -148 33 -114 6 -135 14 -173 59 -21 24 -26 44 -32 116 -6 84
-31 164 -55 179 -15 10 -14 27 2 21 6 -3 119 -11 249 -19z m667 -576 c14 -19
32 -42 40 -50 18 -18 51 -90 50 -110 0 -8 -9 5 -21 30 -19 42 -76 121 -103
145 -7 6 -12 12 -13 15 0 3 -5 18 -11 33 -18 47 -11 54 11 12 11 -22 33 -56
47 -75z m-221 -117 c-1 -5 1 -28 5 -53 7 -44 36 -78 56 -66 4 3 8 0 8 -7 0
-13 -121 -16 -133 -4 -4 4 3 15 16 25 16 13 23 30 24 58 0 21 6 42 11 46 13
10 15 10 13 1z m309 -143 c-6 -27 -74 -130 -87 -130 -3 0 -14 17 -25 37 -11
21 -40 53 -65 72 -42 32 -43 34 -15 27 17 -4 39 -16 50 -25 40 -37 64 -44 90
-27 12 8 29 29 36 46 17 38 23 38 16 0z"/>
<path d="M1225 2498 c-98 -14 -214 -71 -216 -106 -4 -55 11 -79 73 -118 32
-20 50 -24 123 -24 167 0 229 -60 242 -234 7 -93 26 -129 76 -144 17 -6 100
-13 184 -17 147 -6 152 -6 174 16 20 20 21 28 16 103 -18 263 -240 497 -499
524 -94 10 -104 10 -173 0z m245 -44 c231 -65 400 -285 400 -521 l0 -55 -132
6 c-211 10 -226 13 -243 46 -8 16 -15 52 -15 79 0 87 -19 150 -58 193 -55 61
-83 72 -204 78 -117 6 -146 18 -181 78 l-18 31 48 24 c132 66 265 80 403 41z"/>
<path d="M302 2177 c-91 -91 -106 -119 -80 -145 24 -24 45 -11 143 88 94 94
98 100 87 125 -21 46 -50 33 -150 -68z m73 1 c-74 -78 -115 -115 -115 -104 0
12 132 146 144 146 5 0 -8 -19 -29 -42z"/>
<path d="M542 1687 c-138 -138 -252 -259 -252 -268 0 -21 20 -39 45 -39 13 0
105 85 268 248 198 198 247 252 247 274 0 24 -16 38 -43 38 -7 0 -126 -114
-265 -253z m35 -34 c-124 -125 -228 -225 -231 -222 -3 3 97 107 221 232 125
125 229 224 232 222 3 -3 -97 -108 -222 -232z"/>
<path d="M747 1172 c-213 -213 -387 -391 -387 -395 0 -22 23 -47 43 -47 16 0
132 110 410 388 213 213 387 394 387 403 0 21 -20 39 -45 39 -14 0 -148 -127
-408 -388z m348 277 c-201 -207 -659 -658 -664 -654 -6 7 690 705 704 705 5 0
-13 -23 -40 -51z"/>
<path d="M1097 792 c-224 -224 -407 -414 -407 -423 0 -21 20 -39 45 -39 29 0
825 797 825 827 0 20 -25 43 -47 43 -4 0 -191 -183 -416 -408z m35 -35 c-210
-210 -384 -379 -386 -376 -8 8 748 766 758 761 5 -3 -163 -176 -372 -385z"/>
<path d="M100 975 c0 -22 4 -34 10 -30 6 3 10 17 10 30 0 13 -4 27 -10 30 -6
4 -10 -8 -10 -30z"/>
<path d="M1607 582 c-152 -153 -277 -281 -277 -286 0 -21 23 -46 43 -46 16 0
102 80 297 274 151 151 276 280 278 286 5 15 -28 50 -47 50 -9 0 -141 -125
-294 -278z m293 224 c0 -4 -392 -397 -479 -480 -17 -17 -31 -26 -31 -21 0 11
491 505 502 505 5 0 8 -2 8 -4z"/>
<path d="M2151 396 c-110 -112 -113 -116 -99 -138 29 -43 48 -34 161 80 95 95
108 113 105 138 -2 22 -9 30 -28 32 -21 2 -46 -18 -139 -112z m36 -34 c-48
-48 -87 -82 -87 -76 0 13 162 175 169 168 3 -3 -34 -44 -82 -92z"/>
</g>
</svg>
