<?xml version="1.0" standalone="no"?>
<!DOCTYPE svg PUBLIC "-//W3C//DTD SVG 20010904//EN"
 "http://www.w3.org/TR/2001/REC-SVG-20010904/DTD/svg10.dtd">
<svg version="1.0" xmlns="http://www.w3.org/2000/svg"
 width="300.000000pt" height="149.000000pt" viewBox="0 0 300.000000 149.000000"
 preserveAspectRatio="xMidYMid meet">

<g transform="translate(0.000000,149.000000) scale(0.100000,-0.100000)"
fill="#000000" stroke="none">
<path d="M197 1289 c-64 -61 -117 -116 -117 -122 0 -16 235 -237 251 -237 7 0
23 10 36 22 19 17 33 21 70 19 30 -2 49 2 54 11 5 7 9 -73 9 -185 0 -111 -4
-196 -9 -193 -5 3 -54 0 -110 -7 -75 -10 -109 -19 -129 -35 -15 -12 -42 -28
-59 -36 -32 -14 -33 -17 -33 -73 -1 -59 -10 -79 -45 -99 -26 -15 -34 -124 -11
-158 44 -68 183 -118 426 -155 311 -47 615 -47 940 -1 36 5 98 13 137 19 40 5
84 16 98 25 13 9 30 16 37 16 7 0 40 14 73 30 144 73 155 85 155 167 0 71 -9
95 -52 135 -24 22 -28 34 -28 81 0 67 -12 79 -77 75 -44 -3 -48 -5 -51 -31 -3
-24 -7 -27 -25 -21 -12 4 -66 17 -119 28 -66 14 -105 29 -124 45 -15 13 -45
26 -68 28 -26 4 -52 16 -71 33 -28 26 -43 31 -149 47 -27 4 -50 16 -72 39 -19
21 -41 34 -56 34 -24 0 -25 3 -32 86 -3 48 -5 89 -2 91 6 6 406 4 456 -3 46
-6 48 -5 58 25 14 40 57 44 72 7 12 -33 25 -39 70 -31 30 5 41 12 45 28 8 29
-100 335 -126 362 -32 33 -50 9 -107 -141 l-53 -139 -40 3 c-48 5 -49 -3 17
141 61 135 61 135 -81 139 -72 2 -112 -1 -121 -9 -11 -9 -18 -9 -26 -1 -16 16
-81 15 -96 0 -8 -8 -12 -54 -12 -140 l0 -128 -31 0 c-28 0 -31 2 -24 23 4 12
8 38 9 57 1 27 -4 37 -21 45 -20 9 -23 17 -23 70 0 61 -11 85 -39 85 -8 0 -22
7 -30 15 -22 19 -274 34 -285 16 -4 -6 -25 -11 -46 -11 -21 0 -51 -5 -67 -11
-15 -6 -59 -11 -96 -12 -59 -2 -71 1 -89 21 -12 12 -26 22 -32 22 -7 0 -64
-50 -129 -111z m136 1 c-21 -19 -60 -55 -88 -78 l-50 -44 40 -36 c22 -19 62
-55 88 -80 l48 -44 -22 -24 -22 -23 -109 102 -109 102 108 102 107 103 24 -23
23 -22 -38 -35z m567 60 c-19 -13 -30 -13 -30 0 0 6 10 10 23 10 18 0 19 -2 7
-10z m-247 -20 c-3 -11 -9 -17 -14 -15 -10 7 -1 35 11 35 5 0 6 -9 3 -20z
m-68 -47 c9 -32 22 -78 29 -103 l13 -45 33 103 c31 102 33 104 59 97 14 -4 27
-8 29 -10 7 -7 -114 -325 -123 -325 -8 0 -115 299 -115 322 0 6 23 14 47 17 6
0 19 -25 28 -56z m1080 -117 c30 -88 54 -160 53 -161 -2 -1 -15 -5 -30 -9 -23
-5 -27 -2 -33 24 -6 29 -9 30 -60 30 -52 0 -54 -1 -60 -31 -6 -27 -10 -30 -33
-24 -15 4 -29 8 -30 10 -2 2 24 78 59 170 34 91 66 162 70 158 4 -4 33 -80 64
-167z m-1195 -1 l0 -165 -30 0 -30 0 0 165 0 165 30 0 30 0 0 -165z m380 0 l0
-165 -30 0 -30 0 0 165 0 165 30 0 30 0 0 -165z m130 25 l0 -140 65 0 c63 0
65 -1 65 -25 0 -25 0 -25 -95 -25 l-95 0 0 165 0 165 30 0 30 0 0 -140z m210
-25 l0 -165 -30 0 -30 0 0 165 0 165 30 0 30 0 0 -165z m231 103 c-16 -35 -45
-98 -64 -140 l-36 -78 60 0 c56 0 59 -1 59 -25 l0 -25 -106 0 c-84 0 -104 3
-97 13 10 12 123 253 123 262 0 3 -25 5 -55 5 -52 0 -55 1 -55 25 0 25 0 25
100 25 l99 0 -28 -62z m-534 0 c-3 -8 -6 -5 -6 6 -1 11 2 17 5 13 3 -3 4 -12
1 -19z m-507 -104 c0 -64 -4 -114 -9 -112 -4 2 -35 27 -67 57 l-59 54 65 58
c36 32 66 59 68 59 1 0 2 -52 2 -116z m898 86 c40 0 39 -2 -19 -124 l-39 -80
0 114 c0 89 3 111 12 102 7 -7 27 -12 46 -12z m-529 -124 c-9 -8 -10 -8 -5 2
4 6 2 12 -3 12 -14 0 -14 12 1 47 l12 28 4 -39 c2 -22 -2 -43 -9 -50z m138 52
c-3 -7 -5 -2 -5 12 0 14 2 19 5 13 2 -7 2 -19 0 -25z m-352 -37 c3 -5 0 -13
-6 -17 -7 -4 -9 -3 -5 4 3 5 0 13 -6 15 -9 4 -10 6 -1 6 6 1 14 -3 18 -8z
m359 -128 l7 -123 -30 0 c-26 0 -31 4 -31 24 0 13 -3 31 -6 40 -4 11 0 16 14
16 26 0 32 18 32 102 0 106 6 79 14 -59z m-136 47 c-2 -57 -26 -61 -26 -4 0
31 4 44 14 44 10 0 13 -11 12 -40z m-201 -37 c-3 -10 -5 -2 -5 17 0 19 2 27 5
18 2 -10 2 -26 0 -35z m133 -143 c0 -150 -1 -160 -19 -160 -11 0 -21 9 -25 23
-9 36 -7 227 3 227 5 0 15 16 21 35 6 19 13 35 16 35 2 0 4 -72 4 -160z m-92
90 c5 0 12 -73 15 -162 4 -116 10 -163 19 -169 10 -7 10 -9 1 -9 -23 0 -14
-18 12 -24 26 -7 35 -26 12 -26 -9 0 -11 -12 -9 -41 l4 -42 -33 7 c-18 3 -35
9 -38 12 -3 3 -5 55 -3 114 3 97 1 111 -16 128 -13 13 -18 28 -15 46 6 28 18
34 26 14 3 -7 4 34 2 92 -2 66 0 97 6 83 4 -13 12 -23 17 -23z m206 -23 c3
-12 6 -50 6 -84 0 -50 3 -63 15 -63 8 0 24 -5 34 -12 15 -9 23 -9 35 1 21 18
6 38 -38 50 -30 9 -29 9 16 10 40 1 48 -2 46 -16 -4 -49 2 -63 27 -63 27 0 34
15 10 24 -9 3 -15 18 -15 36 0 18 6 33 15 36 10 4 15 20 15 46 0 38 -1 39 -17
22 -17 -17 -18 -17 -21 0 -5 22 -4 23 39 31 l36 7 6 -63 c4 -34 7 -86 7 -115
0 -55 2 -58 47 -54 31 2 63 -17 63 -39 0 -14 6 -17 25 -13 14 2 25 0 25 -6 0
-6 -9 -8 -20 -5 -25 7 -34 -15 -21 -49 9 -23 7 -25 -16 -20 -20 4 -24 9 -20
28 2 13 0 24 -6 24 -5 0 -4 7 3 15 10 11 9 18 -4 30 -9 9 -16 13 -16 8 0 -4
-5 -1 -10 7 -8 12 -10 10 -10 -9 0 -17 -4 -22 -16 -17 -9 3 -25 6 -36 6 -12 0
-19 3 -15 6 3 4 -1 13 -9 21 -11 11 -26 14 -54 9 -25 -4 -40 -2 -40 4 0 5 5
10 11 10 26 0 -5 18 -38 23 -21 3 -51 9 -67 13 -26 6 -27 5 -17 -15 9 -16 9
-21 -1 -21 -6 0 -4 -6 7 -13 16 -13 15 -14 -15 -9 -21 3 -35 0 -41 -9 -6 -9
-9 -10 -9 -2 0 6 5 15 10 18 6 3 10 30 10 58 0 37 3 48 10 37 7 -11 10 -5 10
23 0 27 -4 37 -16 37 -12 0 -14 9 -12 38 2 23 8 36 16 35 6 -2 12 1 12 6 0 18
38 -1 44 -22z m-77 -159 c-3 -7 -5 -2 -5 12 0 14 2 19 5 13 2 -7 2 -19 0 -25z
m127 -59 c-6 -10 -44 -7 -44 3 0 4 11 7 24 6 14 -1 23 -6 20 -9z m126 -29 c0
-5 -7 -10 -15 -10 -8 0 -15 5 -15 10 0 6 7 10 15 10 8 0 15 -4 15 -10z m-277
-61 c24 -9 28 -13 15 -16 -10 -3 -25 3 -34 11 -8 9 -19 14 -23 11 -5 -2 -6 8
-2 23 5 24 6 25 9 5 2 -13 15 -26 35 -34z m24 45 c-3 -3 -12 -4 -19 -1 -8 3
-5 6 6 6 11 1 17 -2 13 -5z m63 2 c0 -3 -4 -8 -10 -11 -5 -3 -10 -1 -10 4 0 6
5 11 10 11 6 0 10 -2 10 -4z m54 -18 c-3 -5 -12 -4 -20 3 -19 16 -18 18 6 12
11 -3 17 -9 14 -15z m-107 -24 c-7 -7 -37 7 -37 17 0 6 9 5 21 -1 11 -7 19
-14 16 -16z m214 8 c-7 -2 -18 1 -23 6 -8 8 -4 9 13 5 13 -4 18 -8 10 -11z
m-91 -11 c0 -8 -7 -11 -20 -8 -11 3 -20 0 -20 -5 0 -6 -6 -5 -15 2 -8 7 -22
10 -30 6 -15 -5 -21 5 -9 17 13 12 94 2 94 -12z m320 -1 c0 -5 -4 -10 -10 -10
-5 0 -10 5 -10 10 0 6 5 10 10 10 6 0 10 -4 10 -10z m-140 -16 c0 -2 -9 -4
-21 -4 -11 0 -18 4 -14 10 5 8 35 3 35 -6z m-94 -19 c1 -8 -2 -15 -7 -15 -5 0
-9 10 -9 22 0 23 12 17 16 -7z m-86 0 c0 -9 -9 -15 -21 -15 -18 0 -19 -3 -9
-15 6 -8 8 -19 4 -26 -4 -7 -2 -10 7 -7 8 3 13 11 11 17 -1 7 2 10 8 6 11 -7
14 -76 3 -74 -20 3 -56 -2 -51 -6 5 -5 61 -11 121 -15 4 0 7 -6 7 -14 0 -12 6
-12 35 -3 23 7 31 13 23 18 -7 4 6 8 30 7 23 0 39 -4 36 -9 -3 -5 3 -12 13
-16 10 -4 24 -14 31 -22 10 -13 11 -14 7 -1 -8 24 52 24 68 0 14 -23 32 -27
23 -5 -4 12 0 14 19 9 20 -5 24 -3 19 10 -4 11 0 16 14 16 27 0 37 -16 16 -24
-9 -4 -14 -9 -11 -13 4 -3 32 5 63 17 36 15 58 19 62 13 5 -7 11 -6 19 2 9 10
5 14 -23 19 -19 4 -32 11 -29 17 4 5 -1 9 -10 9 -10 0 -13 -5 -9 -12 5 -7 3
-8 -7 -2 -7 4 -28 7 -45 5 -17 -1 -55 7 -85 18 -32 13 -55 17 -57 11 -6 -16
-22 -1 -22 20 0 10 -7 26 -16 34 -13 14 -14 16 0 16 8 0 18 -4 21 -10 3 -5 17
-10 30 -10 20 0 41 -23 37 -42 -2 -11 24 -16 39 -7 10 6 10 9 2 9 -7 0 -13 9
-13 20 0 11 5 20 10 20 6 0 10 -6 10 -14 0 -9 21 -15 70 -19 79 -7 104 -16 74
-28 -18 -7 -18 -8 2 -8 11 -1 25 -6 31 -12 7 -7 18 -3 38 15 15 14 22 26 16
26 -7 0 -10 4 -7 9 4 5 -3 7 -14 4 -10 -3 -26 2 -35 11 -29 29 48 21 83 -9 28
-23 54 -31 152 -42 25 -2 69 -16 99 -30 49 -23 53 -27 46 -51 -3 -15 -9 -42
-12 -59 -5 -32 -4 -33 31 -33 29 0 36 4 36 19 0 17 -25 36 -42 33 -11 -3 -10
1 8 37 9 18 14 43 11 57 -2 13 0 24 4 24 5 0 9 -9 9 -21 0 -12 21 -41 50 -68
48 -45 50 -49 50 -101 0 -41 -5 -59 -22 -77 -12 -13 -25 -23 -29 -23 -5 0 -24
-11 -44 -24 -20 -14 -57 -32 -83 -42 -26 -9 -65 -24 -87 -34 -22 -9 -60 -18
-84 -19 -25 -1 -49 -5 -54 -8 -6 -3 -7 -1 -4 4 4 6 29 16 57 23 27 7 47 16 44
21 -3 5 0 9 7 9 7 0 10 2 7 5 -3 3 -18 1 -34 -6 -16 -6 -52 -13 -80 -15 -28
-2 -79 -10 -115 -19 -35 -8 -93 -14 -129 -14 l-65 1 80 14 c44 7 110 16 148
20 52 5 67 11 67 23 0 14 2 14 10 1 7 -12 10 -12 10 -1 0 8 6 11 16 7 9 -3 21
-3 27 1 7 4 18 8 27 9 42 5 75 15 78 24 2 5 8 8 13 4 5 -3 9 -1 9 5 0 13 -41
7 -100 -13 -51 -17 -87 -24 -144 -28 -21 -1 -40 -7 -43 -14 -3 -7 -45 -12
-125 -13 -130 -2 -150 3 -53 13 33 4 95 12 138 18 64 10 77 15 77 31 0 14 -5
17 -20 12 -11 -3 -20 -2 -20 3 0 6 -10 8 -22 6 -21 -4 -22 -4 -3 5 18 9 18 10
2 10 -17 1 -17 2 -3 17 9 8 13 21 9 27 -4 7 -9 4 -13 -8 -6 -17 -7 -17 -13 5
-8 30 1 44 18 30 12 -10 13 -7 10 10 -5 26 -15 40 -15 21 0 -7 -5 -9 -10 -6
-6 4 -8 11 -5 16 4 5 -5 9 -19 9 -31 0 -46 -25 -46 -79 l0 -40 -55 -6 c-75
-10 -69 -25 10 -25 36 0 65 -4 65 -9 0 -9 -81 -21 -147 -21 -43 0 -43 0 -44
38 -1 37 -1 37 -9 7 -4 -16 -8 -24 -9 -17 0 7 -5 11 -9 8 -5 -3 -9 18 -9 46 0
32 2 46 8 37 7 -11 9 -9 10 6 1 11 5 4 9 -15 l7 -35 2 43 c1 37 -2 42 -21 42
-19 0 -20 2 -8 10 8 5 23 7 32 4 10 -3 18 2 21 13 4 14 11 -41 9 -67 0 -3 15
-6 33 -6 19 0 31 4 28 9 -4 6 9 7 33 4 37 -6 37 -6 10 5 -22 8 -34 8 -49 -1
-16 -11 -22 -10 -36 4 -10 11 -12 19 -5 22 14 5 6 53 -12 70 -14 15 -28 17
-20 4 3 -5 0 -13 -7 -18 -19 -14 -64 -15 -73 -2 -4 8 -3 9 4 5 7 -4 12 -2 12
4 0 7 -7 9 -16 6 -9 -3 -21 -6 -27 -6 -9 0 -9 -2 0 -8 7 -4 -7 -9 -33 -10 -40
-1 -111 -32 -75 -32 8 0 11 -3 8 -6 -4 -4 -14 -1 -22 6 -11 10 -13 15 -4 20 6
4 -1 8 -15 8 -15 0 -35 7 -45 16 -22 20 -45 21 -37 1 4 -11 -1 -15 -17 -15
-22 0 -115 22 -148 35 -11 4 -18 -1 -23 -17 -6 -21 -7 -22 -19 -6 -8 10 -18
13 -26 8 -10 -6 -9 -10 5 -19 17 -9 17 -10 2 -11 -10 0 -18 -4 -18 -10 0 -11
9 -13 125 -31 78 -13 79 -13 41 -21 -59 -13 -58 -21 2 -16 29 3 55 1 58 -3 12
-20 23 -7 14 17 -14 36 -13 44 10 44 14 0 21 -9 26 -36 l6 -35 57 5 c35 3 50
2 41 -4 -8 -5 -18 -6 -24 -3 -5 3 -6 1 -3 -5 8 -11 47 -4 47 9 0 5 6 6 14 3 8
-3 17 -1 20 4 3 6 19 5 41 -2 30 -9 35 -15 34 -41 0 -16 -3 -24 -6 -17 -7 17
-33 15 -33 -4 0 -8 -5 -12 -10 -9 -8 5 -7 11 1 21 11 13 6 18 -15 15 -5 -1 -6
6 -2 15 5 14 4 15 -9 4 -8 -7 -15 -20 -15 -29 0 -10 -14 -23 -35 -31 -24 -9
-31 -16 -23 -22 8 -4 -8 -8 -36 -8 -37 0 -47 3 -43 14 4 11 -3 13 -29 11 -36
-4 -39 3 -36 70 0 11 -2 14 -4 7 -3 -6 -9 -10 -14 -7 -9 6 -23 -42 -15 -54 4
-7 -92 -21 -145 -21 -54 0 -53 0 -28 22 l23 21 -25 -6 c-14 -4 -31 -7 -38 -7
-7 0 -10 -4 -7 -10 3 -5 1 -10 -5 -10 -16 0 -9 122 8 128 6 2 12 -5 12 -15 0
-13 3 -14 8 -5 5 8 16 10 27 6 13 -5 16 -4 11 4 -4 7 -16 12 -27 12 -10 0 -19
7 -19 15 0 8 -4 15 -9 15 -5 0 -16 2 -23 5 -8 3 -14 -2 -15 -12 -1 -10 -5 -42
-9 -70 l-7 -53 -56 1 c-31 1 -67 5 -81 9 -24 8 -23 8 8 9 22 1 32 6 32 17 0 8
-4 12 -10 9 -6 -4 -10 13 -10 45 0 48 -2 51 -22 48 -20 -3 -23 -10 -26 -50 -3
-45 -5 -48 -31 -48 -16 0 -42 7 -57 15 l-29 15 28 0 c15 0 27 5 27 11 0 5 6 7
12 3 7 -4 5 2 -6 14 -13 15 -16 25 -9 34 6 7 11 31 11 53 1 27 -1 35 -7 26 -8
-12 -12 -12 -25 2 -9 8 -16 22 -16 31 0 8 -8 17 -17 20 -11 3 -7 4 7 3 17 -1
25 -7 23 -20 0 -11 4 -16 12 -13 16 6 35 -13 35 -36 0 -12 7 -18 21 -18 11 0
17 5 14 10 -4 6 -11 8 -16 5 -7 -5 -13 75 -8 123 1 12 62 13 70 1 3 -6 1 -24
-5 -40 -9 -24 -8 -32 4 -40 8 -5 23 -7 33 -5 9 2 17 0 17 -5 0 -5 5 -9 11 -9
5 0 7 5 3 12 -5 8 0 9 17 4 13 -3 71 -9 128 -12 l104 -7 -5 52 c-5 47 -3 54
16 61 11 4 23 4 26 0 3 -4 11 -2 18 6 11 12 8 14 -13 14 -39 0 -26 24 15 28
18 2 37 -1 43 -7 13 -13 30 -15 22 -2 -3 5 7 12 22 14 16 2 29 5 31 6 1 0 2
-6 2 -14z m55 5 c-3 -5 -15 -10 -26 -10 -10 0 -19 5 -19 10 0 6 12 10 26 10
14 0 23 -4 19 -10z m85 -30 c0 -5 -4 -10 -9 -10 -6 0 -13 5 -16 10 -3 6 1 10
9 10 9 0 16 -4 16 -10z m-525 -19 c-3 -5 -1 -12 5 -16 15 -9 12 -51 -5 -65
-10 -9 -15 -9 -15 -1 0 6 -3 10 -7 10 -19 -3 -22 3 -13 26 8 22 7 25 -7 23
-22 -4 -28 19 -6 25 32 8 54 7 48 -2z m1361 -20 c-3 -5 -15 -7 -26 -4 -28 7
-25 13 6 13 14 0 23 -4 20 -9z m-863 -38 c-3 -7 -10 -10 -16 -6 -8 5 -8 8 0
10 7 3 9 12 6 21 -4 14 -3 14 5 3 6 -8 8 -20 5 -28z m7 -35 c0 -5 -9 -4 -20 2
-11 6 -20 12 -20 14 0 2 9 2 20 -1 11 -3 20 -9 20 -15z m195 12 c4 -6 -10 -9
-37 -9 l-43 2 35 7 c19 4 36 8 37 9 1 0 5 -3 8 -9z m130 -10 c-3 -5 -10 -10
-16 -10 -5 0 -9 5 -9 10 0 6 7 10 16 10 8 0 12 -4 9 -10z m-82 -7 c-7 -2 -19
-2 -25 0 -7 3 -2 5 12 5 14 0 19 -2 13 -5z m-1013 -118 c0 -8 -4 -15 -10 -15
-5 0 -7 7 -4 15 4 8 8 15 10 15 2 0 4 -7 4 -15z m-40 -30 c0 -8 -4 -15 -10
-15 -5 0 -10 7 -10 15 0 8 5 15 10 15 6 0 10 -7 10 -15z m46 -60 c16 -8 22
-15 13 -15 -8 0 -24 7 -35 15 -25 19 -14 19 22 0z m-50 -26 c19 -22 19 -22 -3
-10 -24 12 -39 31 -25 31 5 0 17 -10 28 -21z m89 -49 c8 -13 -5 -13 -25 0 -13
8 -13 10 2 10 9 0 20 -4 23 -10z m76 -25 c19 -8 29 -14 23 -15 -7 0 -27 7 -45
15 -19 8 -29 14 -23 15 7 0 27 -7 45 -15z m210 -3 c-7 -2 -18 1 -23 6 -8 8 -4
9 13 5 13 -4 18 -8 10 -11z m-144 -18 c-3 -3 -12 -4 -19 -1 -8 3 -5 6 6 6 11
1 17 -2 13 -5z m310 0 c-3 -3 -12 -4 -19 -1 -8 3 -5 6 6 6 11 1 17 -2 13 -5z
m-217 -14 c11 -7 5 -8 -20 -4 -43 8 -51 14 -19 14 13 0 31 -5 39 -10z m393 3
c-7 -2 -21 -2 -30 0 -10 3 -4 5 12 5 17 0 24 -2 18 -5z m75 0 c-10 -2 -28 -2
-40 0 -13 2 -5 4 17 4 22 1 32 -1 23 -4z m65 0 c-7 -2 -21 -2 -30 0 -10 3 -4
5 12 5 17 0 24 -2 18 -5z m-467 -16 c4 -4 0 -7 -9 -7 -9 0 -18 4 -21 9 -7 10
20 9 30 -2z m123 -13 c2 -2 -16 -4 -42 -4 -25 0 -48 4 -51 9 -5 8 84 3 93 -5z
m-156 -11 c-7 -2 -21 -2 -30 0 -10 3 -4 5 12 5 17 0 24 -2 18 -5z m477 -2
c-19 -3 -82 -3 -140 0 l-105 5 140 1 c77 0 124 -2 105 -6z m103 2 c-13 -2 -33
-2 -45 0 -13 2 -3 4 22 4 25 0 35 -2 23 -4z m70 0 c-7 -2 -21 -2 -30 0 -10 3
-4 5 12 5 17 0 24 -2 18 -5z m294 1 c-3 -3 -12 -4 -19 -1 -8 3 -5 6 6 6 11 1
17 -2 13 -5z m-40 -10 c-3 -3 -12 -4 -19 -1 -8 3 -5 6 6 6 11 1 17 -2 13 -5z
m-82 -14 c-16 -4 -43 -8 -60 -8 l-30 0 30 8 c17 4 44 8 60 8 l30 0 -30 -8z
m-418 -16 c-3 -3 -12 -4 -19 -1 -8 3 -5 6 6 6 11 1 17 -2 13 -5z"/>
<path d="M1582 1162 c-16 -52 -16 -52 14 -52 24 0 25 2 19 33 -12 56 -21 61
-33 19z"/>
<path d="M591 724 c0 -11 3 -14 6 -6 3 7 2 16 -1 19 -3 4 -6 -2 -5 -13z"/>
<path d="M765 570 c3 -5 10 -10 16 -10 5 0 9 5 9 10 0 6 -7 10 -16 10 -8 0
-12 -4 -9 -10z"/>
<path d="M760 540 c0 -5 5 -10 11 -10 5 0 7 5 4 10 -3 6 -8 10 -11 10 -2 0 -4
-4 -4 -10z"/>
<path d="M766 481 c-4 -5 3 -7 14 -4 23 6 26 13 6 13 -8 0 -17 -4 -20 -9z"/>
<path d="M818 463 c7 -3 16 -2 19 1 4 3 -2 6 -13 5 -11 0 -14 -3 -6 -6z"/>
<path d="M775 450 c-3 -5 -1 -10 4 -10 6 0 11 5 11 10 0 6 -2 10 -4 10 -3 0
-8 -4 -11 -10z"/>
<path d="M900 450 c-8 -5 -10 -10 -5 -10 6 0 17 5 25 10 8 5 11 10 5 10 -5 0
-17 -5 -25 -10z"/>
<path d="M728 443 c6 -2 18 -2 25 0 6 3 1 5 -13 5 -14 0 -19 -2 -12 -5z"/>
<path d="M1410 434 c0 -8 5 -12 10 -9 6 4 8 11 5 16 -9 14 -15 11 -15 -7z"/>
<path d="M1460 411 c0 -16 -3 -38 -6 -48 -4 -13 -3 -15 4 -4 7 10 11 10 17 1
4 -7 1 -16 -6 -21 -11 -7 -11 -9 -1 -9 16 0 29 33 15 37 -6 2 -9 19 -6 38 3
21 0 35 -6 35 -6 0 -11 -13 -11 -29z"/>
<path d="M1689 409 c-1 -13 0 -36 1 -51 1 -26 -1 -28 -39 -28 -23 0 -41 -4
-41 -10 0 -5 5 -10 10 -10 6 0 10 -6 10 -14 0 -11 84 -36 122 -36 23 0 4 31
-24 39 l-33 9 43 1 c27 1 41 5 37 11 -4 6 -11 8 -16 5 -17 -11 -22 26 -5 44
23 26 21 45 -4 29 -16 -10 -22 -9 -40 11 l-20 24 -1 -24z m66 -29 c-3 -5 -12
-10 -18 -10 -7 0 -6 4 3 10 19 12 23 12 15 0z"/>
<path d="M944 403 c-16 -11 -12 -13 30 -13 26 0 45 4 42 9 -10 15 -53 18 -72
4z"/>
<path d="M1306 412 c-2 -4 1 -16 7 -28 12 -19 13 -19 30 -2 14 15 14 18 2 18
-8 0 -15 -6 -15 -12 0 -9 -3 -8 -9 2 -6 8 -7 18 -5 22 3 4 3 8 0 8 -3 0 -7 -3
-10 -8z"/>
<path d="M516 395 c4 -8 8 -15 10 -15 2 0 4 7 4 15 0 8 -4 15 -10 15 -5 0 -7
-7 -4 -15z"/>
<path d="M1235 390 c-3 -6 1 -7 9 -4 18 7 21 14 7 14 -6 0 -13 -4 -16 -10z"/>
<path d="M1530 329 l0 -71 -54 4 c-50 4 -53 3 -53 -18 0 -19 7 -22 56 -29 84
-12 146 -8 178 10 15 9 20 14 9 11 -13 -5 -17 -2 -12 9 4 12 2 13 -13 6 -10
-6 -21 -7 -25 -4 -3 3 -6 1 -6 -4 0 -6 -8 -10 -17 -8 -10 2 -25 4 -33 5 -8 1
-4 5 10 9 22 6 24 11 21 61 -4 83 -7 90 -43 90 -16 0 -18 -10 -18 -71z"/>
<path d="M1244 352 c-9 -5 -8 -11 2 -20 12 -11 14 -9 14 8 0 22 0 23 -16 12z"/>
<path d="M635 300 c11 -5 29 -8 40 -8 16 0 15 2 -5 8 -34 11 -60 11 -35 0z"/>
<path d="M1151 294 c0 -11 3 -14 6 -6 3 7 2 16 -1 19 -3 4 -6 -2 -5 -13z"/>
<path d="M581 283 c-11 -12 -11 -17 -1 -26 10 -9 11 -9 6 0 -3 6 -1 13 5 15 7
2 10 9 8 15 -3 7 -9 6 -18 -4z"/>
<path d="M1245 240 c-7 -12 2 -12 30 0 19 8 19 9 -2 9 -12 1 -25 -3 -28 -9z"/>
<path d="M1678 162 c-12 -5 -14 -12 -9 -21 7 -11 11 -10 19 4 6 12 16 16 26
12 10 -4 15 -3 11 3 -7 11 -22 12 -47 2z"/>
<path d="M1380 156 c0 -2 7 -7 16 -10 8 -3 12 -2 9 4 -6 10 -25 14 -25 6z"/>
<path d="M2130 1283 l-75 -87 -3 69 c-2 38 -8 75 -13 81 -14 17 -326 19 -345
3 -17 -14 -18 -71 -2 -87 7 -7 25 -12 40 -12 l28 0 0 -128 c0 -86 4 -132 12
-140 18 -18 95 -15 102 4 3 9 6 72 6 140 l0 124 25 0 25 0 0 -128 c0 -86 4
-132 12 -140 7 -7 31 -12 55 -12 49 0 51 4 55 105 l3 60 75 -87 c51 -60 82
-88 97 -88 14 0 44 25 87 73 l65 72 1 -55 c0 -31 5 -61 12 -68 7 -7 31 -12 55
-12 46 0 49 5 55 78 l3 34 43 -61 c32 -45 49 -61 66 -61 13 0 27 7 30 16 12
31 7 359 -6 372 -16 16 -80 16 -96 0 -7 -7 -12 -32 -12 -57 l0 -45 -46 62
c-68 92 -104 82 -104 -27 l0 -66 -71 78 c-39 42 -78 77 -87 77 -10 0 -51 -39
-92 -87z m174 -29 l76 -86 -20 -27 c-10 -14 -46 -55 -78 -91 l-59 -64 -34 39
c-19 22 -53 61 -77 88 -27 31 -40 53 -35 61 13 23 138 165 145 165 3 1 41 -38
82 -85z m186 -5 l65 -91 3 86 3 86 29 0 30 0 0 -170 c0 -93 -3 -170 -7 -170
-5 0 -38 44 -75 97 l-68 97 0 -92 0 -92 -30 0 -30 0 0 170 c0 94 3 170 8 170
4 0 36 -41 72 -91z m-560 56 c0 -22 -4 -25 -40 -25 l-40 0 0 -140 0 -140 -30
0 -30 0 0 140 0 140 -40 0 c-36 0 -40 3 -40 25 l0 25 110 0 110 0 0 -25z m90
-140 l0 -165 -30 0 -30 0 0 165 0 165 30 0 30 0 0 -165z"/>
<path d="M2182 1217 c-18 -23 -33 -46 -34 -51 0 -4 17 -28 37 -53 l38 -46 42
49 43 49 -40 47 c-22 27 -43 48 -46 48 -4 -1 -22 -20 -40 -43z m69 -30 c16
-21 15 -24 -7 -50 l-23 -27 -15 22 c-20 28 -20 37 1 60 20 23 24 22 44 -5z"/>
<path d="M2227 699 c-53 -44 -97 -85 -97 -90 0 -15 62 -89 73 -89 6 0 19 7 29
17 17 16 18 11 18 -123 0 -96 4 -144 12 -152 16 -16 90 -16 106 0 7 7 12 30
12 53 l0 41 115 3 115 3 0 -44 c0 -55 13 -68 65 -68 52 0 65 13 65 67 0 35 3
43 18 43 29 0 42 21 42 65 0 44 -13 65 -42 65 -16 0 -18 12 -18 133 0 136 -5
157 -41 157 -10 0 -78 -75 -166 -182 l-148 -182 -3 169 c-3 170 -8 195 -41
195 -9 0 -60 -36 -114 -81z m123 -184 l0 -235 -35 0 -35 0 0 172 0 172 -37
-36 -38 -36 -22 28 -22 27 87 71 c48 40 90 72 94 72 5 0 8 -106 8 -235z m360
90 l0 -145 30 0 c28 0 30 -3 30 -35 0 -32 -2 -35 -30 -35 -30 0 -30 -1 -30
-55 l0 -55 -35 0 -35 0 0 56 0 55 -119 -3 c-83 -2 -117 0 -113 8 19 29 288
354 295 354 4 0 7 -65 7 -145z"/>
<path d="M2592 521 c-23 -27 -42 -52 -42 -55 0 -3 20 -6 45 -6 l45 0 0 55 c0
30 -2 55 -3 55 -2 0 -23 -22 -45 -49z"/>
</g>
</svg>
