<?xml version="1.0" standalone="no"?>
<!DOCTYPE svg PUBLIC "-//W3C//DTD SVG 20010904//EN"
 "http://www.w3.org/TR/2001/REC-SVG-20010904/DTD/svg10.dtd">
<svg version="1.0" xmlns="http://www.w3.org/2000/svg"
 width="600.000000pt" height="298.000000pt" viewBox="0 0 600.000000 298.000000"
 preserveAspectRatio="xMidYMid meet">

<g transform="translate(0.000000,298.000000) scale(0.100000,-0.100000)"
fill="#000000" stroke="none">
<path d="M413 1924 l-93 -94 0 -145 c0 -90 4 -145 10 -145 6 0 10 -7 10 -15 0
-9 36 -51 80 -95 44 -44 80 -82 80 -85 0 -3 -25 -5 -55 -5 l-55 0 -75 -75 -75
-75 0 -85 0 -85 630 0 630 0 0 -136 c0 -104 3 -139 14 -150 22 -21 3050 -21
3072 0 11 11 14 46 14 150 l0 136 320 0 c207 0 320 -4 320 -10 0 -6 57 -10
150 -10 l150 0 0 320 0 320 85 0 85 0 65 65 c36 35 65 71 65 80 0 8 5 15 10
15 6 0 10 9 10 20 0 11 5 20 10 20 6 0 10 9 10 20 0 11 5 20 10 20 24 0 6 34
-45 85 l-55 55 -2642 -1 -2643 -1 -92 -94z m1675 -302 c172 -344 219 -444 228
-492 l7 -31 -79 3 -78 3 -45 105 c-25 58 -99 210 -164 337 l-117 232 40 81
c22 44 42 80 45 80 2 0 76 -143 163 -318z m2312 284 c0 -8 -16 -48 -36 -90
l-36 -76 -182 0 -182 0 -31 -32 c-46 -48 -53 -76 -53 -214 l0 -124 41 -45 42
-45 138 0 139 0 0 60 0 60 -60 0 -60 0 0 80 0 80 141 0 140 0 -3 -174 -3 -174
-50 -55 -50 -55 -185 -1 -185 -1 -62 51 c-34 28 -76 71 -93 97 l-30 45 0 204
c0 222 0 222 63 310 16 23 47 54 68 68 38 25 40 25 256 25 124 0 225 5 233 10
22 14 40 12 40 -4z m1380 1 c0 -2 -19 -39 -43 -83 l-42 -79 -308 -3 -307 -2 0
80 0 80 338 3 c185 1 343 3 350 5 6 1 12 1 12 -1z m-4742 -84 l-3 -78 -214 -3
c-131 -1 -219 -6 -227 -13 -7 -6 -16 -24 -19 -40 -6 -25 -1 -34 36 -69 l43
-40 131 0 132 0 54 -57 c144 -152 147 -234 13 -366 l-57 -57 -304 0 c-167 0
-303 4 -303 9 0 12 36 58 84 109 l40 42 196 0 197 0 36 28 c20 15 36 33 37 40
0 17 -40 95 -54 104 -6 4 -73 8 -149 8 -136 0 -137 0 -165 28 -32 31 -113 136
-130 169 -31 57 -8 117 76 205 l55 58 249 0 249 0 -3 -77z m682 71 c0 -3 -16
-40 -37 -80 l-36 -74 -291 2 -291 3 -3 78 -3 77 331 0 c181 0 330 -3 330 -6z
m1131 -51 c84 -93 89 -104 89 -215 l0 -96 -60 -61 c-33 -33 -70 -63 -81 -66
-11 -4 -19 -10 -17 -13 54 -115 107 -201 162 -259 l30 -33 -105 0 -104 0 -75
111 c-41 62 -92 137 -112 167 -34 49 -38 62 -38 119 l0 63 104 0 c113 0 123 4
145 59 12 27 11 34 -9 62 -38 52 -69 59 -265 59 l-175 0 0 80 0 80 229 0 229
0 53 -57z m309 -263 l0 -320 150 0 151 0 -3 -77 -3 -78 -227 -3 -228 -2 0 400
0 400 80 0 80 0 0 -320z m500 -80 l0 -400 -70 0 -70 0 0 400 0 400 70 0 70 0
0 -400z m958 248 l3 -148 129 0 130 0 0 150 0 150 80 0 80 0 0 -400 0 -401
-77 3 -78 3 -3 158 -3 157 -129 0 -130 0 0 -134 c0 -74 -4 -146 -10 -160 -9
-25 -14 -26 -80 -26 l-70 0 0 400 0 401 78 -3 77 -3 3 -147z m-2739 -144 c34
-64 61 -122 61 -130 0 -11 -25 -14 -135 -14 -124 0 -134 1 -128 18 5 14 105
210 120 235 11 18 25 -1 82 -109z m-461 -211 l-3 -288 -67 -3 -68 -3 0 291 0
290 70 0 70 0 -2 -287z m1062 -3 l0 -290 -70 0 -70 0 0 290 0 290 70 0 70 0 0
-290z m2980 -5 l0 -295 -70 0 -70 0 0 295 0 295 70 0 70 0 0 -295z m-3456 -57
c16 -37 26 -71 23 -75 -4 -3 -76 -9 -159 -12 l-153 -6 -27 -50 c-15 -27 -27
-58 -27 -67 -1 -16 -12 -18 -92 -18 -50 0 -89 3 -87 8 2 4 36 71 76 150 l72
142 172 -2 172 -3 30 -67z m1970 -354 c35 -52 66 -89 68 -82 3 7 3 44 1 81 -3
67 9 113 28 102 5 -4 9 -67 9 -141 0 -165 -6 -168 -91 -49 -31 44 -63 81 -69
83 -9 3 -11 -17 -9 -79 3 -70 1 -84 -11 -84 -12 0 -15 23 -18 137 -3 167 -1
167 92 32z m506 19 c0 -66 2 -75 20 -80 27 -7 26 -39 -1 -46 -18 -5 -21 -11
-16 -36 5 -24 3 -31 -8 -31 -9 0 -18 13 -21 30 -6 27 -11 30 -43 30 -51 0 -81
10 -81 27 0 34 124 198 141 187 5 -3 9 -39 9 -81z m-716 63 c98 -41 113 -175
26 -234 -29 -20 -44 -23 -88 -20 -43 4 -59 11 -87 38 -31 30 -35 40 -35 85 0
111 86 172 184 131z m-2023 -6 c25 -14 27 -55 2 -45 -59 24 -72 27 -97 21 -46
-11 -31 -46 30 -70 69 -28 84 -43 84 -80 0 -64 -68 -95 -144 -66 -33 12 -36
45 -3 36 59 -18 84 -18 101 -1 27 28 15 48 -43 71 -29 12 -62 31 -73 42 -19
18 -20 24 -8 52 7 17 20 35 29 40 22 13 98 12 122 0z m202 -1 c30 -16 37 -28
37 -69 0 -58 -21 -79 -88 -82 l-57 -3 0 -45 c0 -33 -4 -45 -15 -45 -12 0 -16
21 -18 114 -1 63 0 121 2 128 7 17 108 18 139 2z m192 -84 c47 -100 65 -165
46 -165 -6 0 -20 18 -31 40 -20 39 -21 40 -75 40 -51 0 -55 -2 -61 -27 -8 -31
-22 -53 -35 -53 -13 0 -2 40 36 140 18 47 35 93 38 103 14 39 39 16 82 -78z
m283 66 c3 -20 1 -22 -15 -16 -10 5 -37 10 -60 13 -37 3 -47 0 -73 -26 -53
-54 -33 -141 38 -163 32 -9 44 -8 70 5 40 20 42 20 42 -4 0 -41 -93 -53 -148
-20 -89 55 -94 168 -9 221 24 15 46 19 92 17 55 -3 60 -5 63 -27z m202 20 c0
-12 -25 -21 -58 -21 -58 0 -73 -10 -70 -44 3 -30 5 -31 56 -34 70 -4 65 -26
-6 -30 l-52 -3 0 -40 0 -39 65 0 c58 0 65 -2 65 -20 0 -18 -7 -20 -80 -20
l-80 0 0 130 0 130 80 0 c44 0 80 -4 80 -9z m270 -11 c17 -31 3 -43 -29 -24
-19 11 -38 14 -55 10 -22 -5 -27 -12 -24 -34 2 -22 12 -30 53 -45 27 -10 55
-23 62 -29 20 -16 16 -62 -8 -92 -29 -37 -99 -37 -136 0 -14 14 -23 27 -21 29
2 2 24 -3 50 -12 43 -16 47 -16 72 0 35 23 34 55 -1 63 -98 24 -137 76 -97
132 12 18 25 22 69 22 44 0 56 -4 65 -20z m230 6 c0 -10 -13 -16 -37 -18 l-38
-3 -5 -107 c-3 -58 -8 -110 -13 -114 -17 -18 -26 18 -29 116 l-3 105 -30 3
c-43 4 -57 10 -50 22 3 6 50 10 106 10 79 0 99 -3 99 -14z m114 -36 c30 -58
76 -176 76 -196 0 -26 -21 -14 -35 20 -8 19 -18 37 -23 40 -4 2 -32 1 -62 -2
-50 -7 -54 -9 -62 -39 -5 -18 -14 -33 -20 -33 -16 0 -2 72 31 154 16 39 31 79
35 89 10 31 33 18 60 -33z m256 36 c0 -8 -16 -16 -41 -20 l-40 -6 3 -107 c3
-96 1 -108 -14 -111 -16 -3 -18 7 -18 106 0 91 -3 111 -16 116 -9 3 -20 4 -25
1 -11 -7 -49 13 -49 25 0 6 42 10 100 10 78 0 100 -3 100 -14z m60 -100 c0
-63 -3 -121 -6 -130 -16 -42 -24 -5 -24 114 0 109 2 130 15 130 12 0 15 -19
15 -114z m745 -16 c0 -110 -2 -125 -17 -128 -15 -3 -18 9 -20 100 -3 98 -4
103 -25 103 -11 0 -25 4 -29 8 -13 13 38 47 66 45 l25 -3 0 -125z"/>
<path d="M4403 959 c-41 -53 -41 -63 -1 -55 41 8 40 7 36 56 l-3 41 -32 -42z"/>
<path d="M3643 1006 c-23 -20 -28 -32 -28 -71 0 -39 5 -51 28 -71 52 -44 145
-27 167 32 11 28 -12 102 -37 122 -29 21 -98 15 -130 -12z"/>
<path d="M1837 1017 c-3 -8 -3 -33 0 -56 5 -37 8 -41 35 -41 50 0 68 16 68 60
0 32 -4 40 -19 40 -10 0 -32 3 -48 6 -21 4 -32 2 -36 -9z"/>
<path d="M2052 955 l-21 -44 35 -7 c48 -9 58 4 39 49 -8 19 -18 38 -23 41 -5
3 -18 -15 -30 -39z"/>
<path d="M3171 951 c-11 -21 -17 -41 -14 -45 10 -10 83 -7 83 4 0 16 -33 80
-42 80 -4 0 -16 -17 -27 -39z"/>
</g>
</svg>
