<?xml version="1.0" encoding="UTF-8" standalone="no"?>
<!-- Created with Inkscape (http://www.inkscape.org/) -->

<svg
    width="512"
    height="512"
    viewBox="0 0 135.46666 135.46667"
    version="1.1"
    id="svg5"
    inkscape:version="1.2.2 (732a01da63, 2022-12-09)"
    sodipodi:docname="logo.svg"
    xmlns:inkscape="http://www.inkscape.org/namespaces/inkscape"
    xmlns:sodipodi="http://sodipodi.sourceforge.net/DTD/sodipodi-0.dtd"
    xmlns="http://www.w3.org/2000/svg"
    xmlns:svg="http://www.w3.org/2000/svg">
    <sodipodi:namedview
        id="namedview7"
        pagecolor="#505050"
        bordercolor="#eeeeee"
        borderopacity="1"
        inkscape:showpageshadow="0"
        inkscape:pageopacity="0"
        inkscape:pagecheckerboard="0"
        inkscape:deskcolor="#505050"
        inkscape:document-units="mm"
        showgrid="false"
        inkscape:zoom="1.0544998"
        inkscape:cx="332.85925"
        inkscape:cy="289.23667"
        inkscape:window-width="1920"
        inkscape:window-height="1017"
        inkscape:window-x="-8"
        inkscape:window-y="-8"
        inkscape:window-maximized="1"
        inkscape:current-layer="layer1" />
    <defs
        id="defs2" />
    <g
        inkscape:label="Layer 1"
        inkscape:groupmode="layer"
        id="layer1">
        <path
            style="fill:#ff0000;stroke-width:0.264583"
            id="path302"
            d="m 19.514105,36.830626 c 2.782434,-2.04984 5.762359,-3.844168 8.835926,-5.423357 0.940059,-0.483 1.901105,-0.924007 2.851657,-1.386012 5.432105,-2.446512 11.085486,-4.350396 16.721931,-6.261283 2.086028,-0.760584 4.183978,-1.491763 6.225984,-2.365393 2.600325,-1.112742 1.026668,-4.790157 -1.573654,-3.677415 v 0 c -1.946841,0.833298 -3.9487,1.526606 -5.936633,2.254626 -5.795706,1.964941 -11.607895,3.925959 -17.188605,6.4531 -1.00542,0.490307 -2.0217,0.958945 -3.016261,1.470922 -3.279981,1.688457 -6.457389,3.611025 -9.419107,5.811361 -2.208614,1.76689 0.290148,4.890344 2.498762,3.123451 z" />
        <path
            style="fill:#ff0000;stroke-width:0.264583"
            id="path304"
            d="m 15.354245,37.464171 c 2.032147,4.370512 3.411803,9.010565 4.946898,13.56968 2.753853,8.243372 5.410148,16.518826 8.152907,24.765844 1.08952,3.451563 2.217965,6.889075 3.414499,10.304936 0.935146,2.669341 4.710165,1.346843 3.775017,-1.322499 v 0 C 34.453782,81.386351 33.333285,77.968561 32.24961,74.537365 29.505217,66.285675 26.847678,58.005415 24.091991,49.757438 22.517099,45.080139 21.095234,40.322989 19.009464,35.83963 17.86074,33.255 14.20552,34.879541 15.354245,37.464171 Z" />
        <path
            style="fill:#ff0000;stroke-width:0.264583"
            id="path306"
            d="m 24.994085,60.132417 c 3.240539,-1.414198 6.519578,-2.73943 9.780155,-4.106924 5.340197,-2.200999 10.621949,-4.540128 15.865991,-6.960385 1.34688,-0.599887 2.659856,-1.270633 3.974436,-1.936975 2.522749,-1.278917 0.714089,-4.846622 -1.80866,-3.567705 v 0 c -1.27077,0.644308 -2.539331,1.29422 -3.84202,1.872879 -5.20124,2.400724 -10.440045,4.720641 -15.736824,6.903514 -3.296816,1.382757 -6.612674,2.721943 -9.888278,4.154157 -2.574886,1.170402 -0.919687,4.811842 1.6552,3.641439 z" />
        <path
            style="fill:#ff0000;stroke-width:0.264583"
            id="path308"
            d="m 53.522821,28.596325 c 5.240653,0.317468 10.473881,0.739037 15.710871,1.109001 6.04693,0.435131 12.099907,0.783868 18.156526,1.051036 1.202388,0.05309 2.405435,0.08759 3.608813,0.106098 2.828076,0.04319 2.889163,-3.956312 0.06109,-3.999505 v 0 c -1.164987,-0.01767 -2.329645,-0.0514 -3.493672,-0.10268 -6.021403,-0.265477 -12.039166,-0.612402 -18.05093,-1.04498 -5.330653,-0.376449 -10.657202,-0.81362 -15.992695,-1.118941 -2.828406,0 -2.828406,3.999971 0,3.999971 z" />
        <path
            style="fill:#ff0000;stroke-width:0.264583"
            id="path310"
            d="m 69.407883,29.95065 c 0.578999,5.231839 0.187008,10.516825 -0.160107,15.750006 -0.62512,7.456683 -1.3589,14.90346 -2.034299,22.355611 -0.30661,3.354956 -0.482973,6.719345 -0.721842,10.079312 -0.200546,2.821289 3.789357,3.104907 3.989904,0.283618 v 0 c 0.236974,-3.334147 0.412078,-6.672659 0.715581,-10.001888 0.678328,-7.484477 1.415947,-14.96351 2.041909,-22.452708 0.255468,-3.874381 0.494292,-7.73253 0.441322,-11.6177 -0.01844,-1.351958 -0.07986,-2.867896 -0.226031,-4.232503 -0.04068,-0.379812 -0.110596,-0.755922 -0.165896,-1.133882 -0.685988,-2.743957 -4.566531,-1.773822 -3.880541,0.970134 z" />
        <path
            style="fill:#ff0000;stroke-width:0.264583"
            id="path312"
            d="m 101.62537,33.139176 c -0.0905,1.615164 -0.47158,3.18771 -0.86585,4.749792 -1.172479,4.097901 -2.816351,8.037925 -4.488147,11.951586 -2.37658,5.503465 -5.239827,10.774201 -7.873556,16.155093 -1.055817,2.223606 -2.169601,4.421251 -3.151838,6.678975 -0.337653,0.735827 -0.74299,1.438796 -1.127421,2.151062 -0.318223,0.74808 -0.711626,1.458021 -1.080069,2.181209 -0.569108,1.12322 -0.623292,2.162707 0.119547,3.268589 0.35561,0.529404 1.111488,1.068713 1.60806,1.460185 3.240397,2.324012 6.82384,4.106354 10.399739,5.845476 2.914687,1.441323 5.896165,2.736215 8.896925,3.985528 1.57487,0.66761 3.12836,1.3867 4.62705,2.21205 0.1527,0.0832 0.30541,0.1664 0.45812,0.24961 2.48369,1.3532 4.3974,-2.15927 1.91371,-3.512477 v 0 c -0.15007,-0.08176 -0.30014,-0.163523 -0.45021,-0.245285 -1.62681,-0.887282 -3.30262,-1.679209 -5.0113,-2.396624 -2.92934,-1.219531 -5.840342,-2.482316 -8.685299,-3.89013 -3.325905,-1.616508 -6.661231,-3.265879 -9.69056,-5.40364 -0.18873,-0.144529 -0.367554,-0.302999 -0.566184,-0.433586 -0.03627,-0.02384 -0.122256,-0.06592 -0.128188,-0.02291 -0.0204,0.147904 0.04688,0.294907 0.07032,0.442359 -0.03637,0.190244 -0.07274,0.380484 -0.109109,0.570725 -0.0045,0.0218 0.0031,-0.04442 0.0047,-0.06663 0.03659,-0.08442 0.07317,-0.168841 0.109763,-0.253262 0.350726,-0.694885 0.740113,-1.371099 1.034248,-2.09361 0.436779,-0.811578 0.899393,-1.611398 1.274588,-2.454045 0.956791,-2.203191 2.048907,-4.344699 3.076217,-6.515216 2.66354,-5.442845 5.5606,-10.773717 7.959455,-16.342717 1.752599,-4.10636 3.473499,-8.241914 4.688389,-12.545664 0.47238,-1.88034 0.91595,-3.780263 0.98692,-5.726437 0,-2.828407 -3.99998,-2.828407 -3.99998,0 z" />
        <path
            style="fill:#ff0000;stroke-width:0.264583"
            id="path314"
            d="m 50.478192,95.354761 c 0.149609,2.40491 0.154766,4.814839 0.113303,7.222999 -0.06041,2.41142 -0.107553,4.82306 -0.133517,7.23509 -0.01614,1.69047 -0.01842,3.38102 -0.01924,5.07155 -1.48e-4,1.05859 5.29e-4,2.11717 7.94e-4,3.17576 1.29e-4,0.33901 2.03e-4,0.67801 2.64e-4,1.01701 5.29e-4,2.82841 4.00054,2.8276 3.999971,-7.9e-4 v 0 c -6.9e-5,-0.33923 -1.43e-4,-0.67847 -2.65e-4,-1.0177 -2.64e-4,-1.05744 -0.0011,-2.11487 -7.93e-4,-3.17231 7.93e-4,-1.67684 0.003,-3.35371 0.019,-5.03049 0.02582,-2.40358 0.07312,-4.80675 0.133164,-7.20972 0.04335,-2.55165 0.0371,-5.105749 -0.129145,-7.653529 -0.256072,-2.81679 -4.239615,-2.45465 -3.983543,0.36214 z" />
        <path
            style="fill:#ff0000;stroke-width:0.264583"
            id="path316"
            d="m 64.718666,91.273981 c -0.0909,1.77352 -0.380199,3.52911 -0.652508,5.28171 -0.260823,1.70486 -0.522816,3.4093 -0.77253,5.115829 -0.164508,1.18995 -0.360529,2.37344 -0.471295,3.5703 -0.09552,0.99556 -0.04476,2.07213 0.726245,2.83494 0.720243,0.71258 1.218358,0.75895 2.102448,1.02175 2.012465,0.43971 4.054887,0.71396 6.104551,0.90318 1.31945,0.10554 2.644553,0.17272 3.967543,0.11441 1.087888,-0.0911 2.1775,-0.1557 3.268388,-0.19596 0.739354,-0.0295 1.478547,-0.006 2.215226,-0.0764 0.977427,-0.21066 1.583105,-0.66538 2.020649,-1.6143 0.279713,-0.60663 0.165786,-1.4477 0.121158,-2.08652 -0.174191,-1.83625 -0.224297,-3.68102 -0.265366,-5.52409 1.46e-4,-2.082989 -0.104463,-4.162969 -0.194985,-6.243359 -0.01021,-0.25018 -0.02085,-0.50034 -0.03063,-0.75054 -0.01416,-0.36253 -0.02358,-0.72524 -0.03991,-1.08768 -0.0035,-0.0783 0.06345,-0.24104 -0.01463,-0.23457 -4.156504,0.34442 -4.127254,-0.72581 -3.888947,1.0688 0.364982,2.29144 0.632405,4.5959 0.952212,6.893419 0.367443,2.51484 0.638881,5.04282 1.003162,7.55781 0.335905,2.24954 0.883793,4.4581 1.313728,6.68957 0.172482,1.15093 0.380669,2.297 0.53952,3.45002 0.07374,0.56801 0.07345,1.13979 0.134554,1.70864 0.09524,0.71742 0.143999,1.4357 0.286017,2.14631 0.05305,0.1689 0.106103,0.33781 0.159155,0.50671 0.947862,2.66485 4.716534,1.32438 3.768672,-1.34048 v 0 c -0.0027,0.0121 -0.0054,0.0242 -0.0081,0.0363 -0.129257,-0.61741 -0.138258,-1.24945 -0.24012,-1.87228 -0.05456,-0.13094 -0.01333,-0.0184 -0.02424,-0.33184 -0.01632,-0.46899 -0.05231,-0.93726 -0.113813,-1.40258 -0.170347,-1.22271 -0.38657,-2.43896 -0.574149,-3.65899 -0.419777,-2.17067 -0.949023,-4.31986 -1.282859,-6.50706 -0.36618,-2.50693 -0.630875,-5.02826 -0.999924,-7.535109 -0.320352,-2.28844 -0.583572,-4.58458 -0.948618,-6.86701 -0.240345,-1.80989 0.08571,-0.63041 -4.067477,-0.27843 -0.03858,0.003 0.0069,0.0772 0.0085,0.11583 0.0068,0.1553 0.01122,0.31069 0.01691,0.46603 0.0078,0.21324 0.01535,0.4265 0.02368,0.63973 0.0099,0.25377 0.02072,0.50751 0.03109,0.76127 0.08931,2.05224 0.193181,4.10401 0.192204,6.158859 0.04305,1.91988 0.09671,3.84142 0.277154,5.75426 0.0117,0.11658 0.02614,0.23291 0.03508,0.34973 0.0053,0.0691 -0.05455,0.23848 0.0075,0.20774 0.08457,-0.0419 0.0496,-0.1863 0.104376,-0.26313 0.346302,-0.48579 0.608729,-0.82964 1.20329,-0.8823 -0.606552,0.0333 -1.248791,0.0204 -1.868328,0.0483 -1.108176,0.0413 -2.215423,0.10349 -3.320426,0.19824 -1.132829,0.0678 -2.271191,-0.03 -3.401517,-0.10267 -1.826869,-0.1668 -3.645721,-0.41165 -5.442768,-0.7857 -0.11117,-0.0192 -0.31061,-0.1682 -0.33351,-0.0577 -0.02956,0.14262 0.20393,0.21241 0.275103,0.33949 0.04509,0.0805 0.251473,0.51134 0.169466,0.69502 -0.08205,0.18378 0.111852,-1.23064 0.01603,-0.60357 0.101348,-1.12538 0.295563,-2.23658 0.445823,-3.35577 0.247626,-1.69497 0.508328,-3.387699 0.767275,-5.080959 0.286314,-1.84602 0.587801,-3.69538 0.68603,-5.56311 0.234887,-2.818637 -3.751267,-3.150817 -3.986154,-0.33218 z" />
        <path
            style="fill:#ff0000;stroke-width:0.264583"
            id="path318"
            d="m 83.294455,97.554321 c -0.0039,-1.08606 -0.117764,-2.16869 -0.185767,-3.25221 -0.05546,-0.62092 -0.158271,-1.2328 -0.305287,-1.83766 -0.727472,-2.733256 -4.592875,-1.704455 -3.865401,1.0288 v 0 c 0.134112,0.32858 0.09701,0.7171 0.178597,1.0598 0.06295,1.00002 0.16841,1.99935 0.177887,3.00127 0,2.828409 3.999971,2.828409 3.999971,0 z" />
        <path
            style="fill:#ff0000;stroke-width:0.264583"
            id="path480"
            d="m 54.439936,94.955195 c 0,-1.524773 0,-3.049548 0,-4.574321 0,-0.627769 0,-1.255537 0,-1.883306 0,-2.828407 -3.999971,-2.828407 -3.999971,0 v 0 c 0,0.627769 0,1.255537 0,1.883306 0,1.524773 0,3.049548 0,4.574321 0,2.828406 3.999971,2.828406 3.999971,0 z" />
    </g>
</svg>
