<?xml version="1.0" encoding="UTF-8" standalone="no"?>
<!-- Created with Inkscape (http://www.inkscape.org/) -->

<svg
   width="113.67364mm"
   height="56.37999mm"
   viewBox="0 0 113.67364 56.37999"
   version="1.1"
   id="svg3223"
   inkscape:version="1.4.4 (dcaf3e7, 2026-05-05)"
   sodipodi:docname="logo.svg"
   inkscape:export-filename="C:\Users\Kazne\Downloads\logogo.png"
   inkscape:export-xdpi="67.034012"
   inkscape:export-ydpi="67.034012"
   xmlns:inkscape="http://www.inkscape.org/namespaces/inkscape"
   xmlns:sodipodi="http://sodipodi.sourceforge.net/DTD/sodipodi-0.dtd"
   xmlns="http://www.w3.org/2000/svg"
   xmlns:svg="http://www.w3.org/2000/svg"
   xmlns:rdf="http://www.w3.org/1999/02/22-rdf-syntax-ns#"
   xmlns:cc="http://creativecommons.org/ns#"
   xmlns:dc="http://purl.org/dc/elements/1.1/">
  <defs
     id="defs3217" />
  <sodipodi:namedview
     id="base"
     pagecolor="#ffffff"
     bordercolor="#666666"
     borderopacity="1.0"
     inkscape:pageopacity="0.0"
     inkscape:pageshadow="2"
     inkscape:zoom="3.959798"
     inkscape:cx="190.03495"
     inkscape:cy="92.050151"
     inkscape:document-units="mm"
     inkscape:current-layer="layer3"
     showgrid="false"
     inkscape:pagecheckerboard="true"
     inkscape:window-width="2560"
     inkscape:window-height="1377"
     inkscape:window-x="-8"
     inkscape:window-y="-8"
     inkscape:window-maximized="1"
     inkscape:showpageshadow="2"
     inkscape:deskcolor="#d1d1d1">
    <inkscape:page
       x="0"
       y="0"
       width="113.67364"
       height="56.37999"
       id="page2"
       margin="0"
       bleed="0" />
  </sodipodi:namedview>
  <metadata
     id="metadata3220">
    <rdf:RDF>
      <cc:Work
         rdf:about="">
        <dc:format>image/svg+xml</dc:format>
        <dc:type
           rdf:resource="http://purl.org/dc/dcmitype/StillImage" />
        <dc:title />
      </cc:Work>
    </rdf:RDF>
  </metadata>
  <g
     inkscape:groupmode="layer"
     id="layer3"
     inkscape:label="Layer 3"
     style="display:inline"
     transform="matrix(1.6897164,-0.11815649,-0.35916031,1.6897164,-12.620587,-55.322689)">
    <path
       d="m 23.886963,43.360068 c 0,-0.218936 0.168412,-0.42103 0.370506,-0.42103 h 0.572601 c 0.404189,0 0.538918,0.218936 0.538918,0.404189 v 1.347296 h 2.004103 v -1.852532 c 0,-0.875743 -0.741013,-1.583073 -1.616755,-1.583073 h -2.273562 c -0.875743,0 -1.599914,0.70733 -1.599914,1.583073 v 2.694592 c 0,1.869373 3.486128,1.802008 3.486128,3.418763 v 2.812481 c 0,0.218935 -0.185253,0.404188 -0.404189,0.404188 h -0.70733 c -0.185253,0 -0.370506,-0.218935 -0.370506,-0.404188 v -1.717803 h -2.020944 v 2.23988 c 0,0.875742 0.724171,1.583073 1.583072,1.583073 h 2.307245 c 0.875742,0 1.616755,-0.707331 1.616755,-1.583073 v -4.07557 c 0,-2.10515 -3.486128,-2.054627 -3.486128,-3.385082 z m 6.346885,10.508909 h 2.004103 v -5.170249 h 1.852532 c 0.858901,0 1.616755,-0.673648 1.616755,-1.583072 v -4.277665 c 0,-0.875743 -0.757854,-1.583073 -1.616755,-1.583073 h -3.856635 z m 3.132463,-10.929939 c 0.202095,0 0.336824,0.218936 0.336824,0.404189 v 3.250351 c 0,0.218936 -0.185253,0.387348 -0.404189,0.387348 H 32.237951 V 42.939038 Z M 44.091894,53.868977 41.22889,41.254918 h -1.886214 l -2.829322,12.614059 h 2.172515 l 0.488395,-2.559863 h 2.189356 l 0.538918,2.559863 z m -3.65454,-7.039622 c 0.202094,0.943107 0.370506,1.835691 0.572601,2.778798 h -1.431502 l 0.572601,-2.778798 0.134729,-2.239879 z m 9.226722,1.835691 v 3.098781 c 0,0.218935 -0.168412,0.404188 -0.387347,0.404188 h -0.774695 c -0.185254,0 -0.303142,-0.202094 -0.303142,-0.404188 v -8.403759 c 0,-0.185253 0.101047,-0.387348 0.303142,-0.387348 h 0.84206 c 0.202094,0 0.319982,0.202095 0.319982,0.387348 v 3.36824 h 1.987262 v -3.890317 c 0,-0.875743 -0.70733,-1.583073 -1.583073,-1.583073 H 47.74418 c -0.858902,0 -1.566232,0.70733 -1.566232,1.583073 v 9.447913 c 0,0.875742 0.70733,1.583073 1.566232,1.583073 h 2.324085 c 0.875743,0 1.583073,-0.707331 1.583073,-1.583073 v -3.620858 z m 4.864857,5.203931 h 5.507073 v -2.004103 h -3.50297 v -3.166146 h 2.964051 v -2.004102 h -2.964051 v -3.435605 h 3.50297 v -2.004103 h -5.507073 z"
       id="text2"
       style="font-weight:bold;font-size:16.8412px;line-height:0;font-family:Ampero;-inkscape-font-specification:'Ampero Bold';letter-spacing:1.32821px;display:none;fill:#fefefe;stroke-width:1.40343"
       aria-label="SPACE" />
    <path
       d="m 69.702129,64.063108 v -22.05306 h -3.533202 c -0.206105,0.912743 -0.559424,1.50161 -0.912744,1.94326 -0.206103,0.235547 -0.44165,0.44165 -0.647754,0.618311 v 3.44487 h 1.531054 v 16.046619 z m 3.596407,-6.271431 h 6.035894 v 6.271431 h 3.503746 v -6.271431 h 2.355472 V 54.28792 H 82.838176 V 42.010048 h -4.946475 l -4.593165,12.218985 z m 5.947555,-9.510198 0.471098,-1.737157 -0.382759,2.237694 v 5.505904 h -2.414361 z"
       id="text2-8-6"
       style="font-weight:bold;font-size:26.0942px;line-height:0;font-family:Ampero;-inkscape-font-specification:'Ampero Bold';letter-spacing:0.995412px;display:inline;fill:#e23229;stroke-width:2.4536"
       aria-label="14" />
    <rect
       style="fill:#e23229;fill-opacity:1;stroke-width:0.11917"
       id="rect3"
       width="61.087246"
       height="0.82920885"
       x="21.842846"
       y="38.550575" />
    <rect
       style="display:inline;fill:#e23229;fill-opacity:1;stroke-width:0.11917"
       id="rect3-9"
       width="61.087246"
       height="0.82920885"
       x="21.852039"
       y="66.798584" />
    <path
       d="m 23.968201,44.171209 c 0,-0.214156 0.164735,-0.411838 0.362417,-0.411838 h 0.560099 c 0.395364,0 0.527152,0.214156 0.527152,0.395364 v 1.31788 h 1.960347 V 43.66053 c 0,-0.856622 -0.724834,-1.548509 -1.581456,-1.548509 h -2.223923 c -0.856622,0 -1.564982,0.691887 -1.564982,1.548509 v 2.63576 c 0,1.828558 3.410014,1.762664 3.410014,3.34412 v 2.751075 c 0,0.214155 -0.181208,0.395364 -0.395364,0.395364 h -0.691887 c -0.181208,0 -0.362417,-0.214156 -0.362417,-0.395364 v -1.680297 h -1.97682 v 2.190975 c 0,0.856622 0.708361,1.548509 1.548509,1.548509 h 2.25687 c 0.856622,0 1.581456,-0.691887 1.581456,-1.548509 v -3.986587 c 0,-2.059187 -3.410015,-2.009767 -3.410015,-3.311173 z m 6.668771,10.279463 h 1.960346 v -5.057364 h 1.812085 c 0.840149,0 1.581456,-0.65894 1.581456,-1.548509 V 43.66053 c 0,-0.856622 -0.741307,-1.548509 -1.581456,-1.548509 h -3.772431 z m 3.064071,-10.691301 c 0.197682,0 0.32947,0.214156 0.32947,0.395364 v 3.179385 c 0,0.214156 -0.181209,0.378891 -0.395364,0.378891 h -1.037831 v -3.95364 z M 44.652909,54.450672 41.852415,42.112021 h -1.845032 l -2.767548,12.338651 h 2.125081 L 39.842648,51.9467 h 2.141555 l 0.527152,2.503972 z M 41.07816,47.564749 c 0.197682,0.922516 0.362417,1.795612 0.560099,2.718128 h -1.400247 l 0.560099,-2.718128 0.131788,-2.190975 z m 9.485731,1.795612 v 3.031124 c 0,0.214155 -0.164735,0.395364 -0.378891,0.395364 h -0.757781 c -0.181208,0 -0.296523,-0.197682 -0.296523,-0.395364 v -8.220276 c 0,-0.181209 0.09884,-0.378891 0.296523,-0.378891 h 0.823675 c 0.197682,0 0.312997,0.197682 0.312997,0.378891 v 3.294699 h 1.943873 V 43.66053 c 0,-0.856622 -0.691887,-1.548509 -1.548509,-1.548509 h -2.273343 c -0.840149,0 -1.532036,0.691887 -1.532036,1.548509 v 9.241633 c 0,0.856622 0.691887,1.548509 1.532036,1.548509 h 2.273343 c 0.856622,0 1.548509,-0.691887 1.548509,-1.548509 v -3.541802 z m 5.219097,5.090311 h 5.386834 v -1.960346 h -3.426488 v -3.097018 h 2.899336 v -1.960347 h -2.899336 v -3.360593 h 3.426488 v -1.960347 h -5.386834 z"
       id="text9"
       style="font-weight:bold;font-size:16.4735px;line-height:0;font-family:Ampero;-inkscape-font-specification:'Ampero Bold';letter-spacing:1.75967px;fill:#ffffff;stroke-width:1.37279"
       aria-label="SPACE" />
    <path
       style="display:inline;fill:#fefefe;fill-opacity:1;stroke-width:0.114156"
       d="m 23.591507,42.112199 h -3.203592 l 1.79085,0.964459 z"
       id="path5" />
    <path
       style="font-weight:bold;font-size:10.0726px;line-height:0;font-family:Ampero;-inkscape-font-specification:'Ampero Bold';letter-spacing:2.35908px;fill:#d5d5d5;stroke-width:0.839378"
       d="m 23.34967,57.754553 c 0,-0.130943 0.100726,-0.251815 0.221598,-0.251815 h 0.342468 c 0.241742,0 0.322323,0.130944 0.322323,0.241743 v 0.805808 h 1.19864 v -1.107986 c 0,-0.523776 -0.443195,-0.946825 -0.96697,-0.946825 h -1.359801 c -0.523775,0 -0.956897,0.423049 -0.956897,0.946825 v 1.611616 c 0,1.118058 2.085028,1.077768 2.085028,2.044738 v 1.682124 c 0,0.130944 -0.110798,0.241742 -0.241742,0.241742 h -0.423049 c -0.110799,0 -0.221598,-0.130943 -0.221598,-0.241742 v -1.027405 h -1.208712 v 1.339656 c 0,0.523775 0.433122,0.946824 0.946825,0.946824 h 1.379946 c 0.523775,0 0.96697,-0.423049 0.96697,-0.946824 v -2.43757 c 0,-1.259075 -2.085029,-1.228857 -2.085029,-2.024592 z m 5.169335,-0.06043 h 1.027405 v 6.345738 h 1.208712 V 57.694118 H 31.7926 v -1.19864 h -3.273595 z m 9.742298,6.345738 -1.712342,-7.544378 H 35.42083 l -1.692197,7.544378 h 1.299365 l 0.292106,-1.531035 h 1.309438 l 0.322323,1.531035 z m -2.185754,-4.210347 c 0.120871,0.564066 0.221597,1.097913 0.342468,1.661979 h -0.856171 l 0.342469,-1.661979 0.08058,-1.339656 z m 4.262797,-2.135391 h 1.027406 v 6.345738 h 1.208712 v -6.345738 h 1.037478 v -1.19864 h -3.273596 z m 6.448557,6.345738 h 1.208712 v -7.544378 h -1.208712 z m 6.760812,0 c 0.523775,0 0.946824,-0.423049 0.946824,-0.946824 v -5.650729 c 0,-0.523776 -0.423049,-0.946825 -0.946824,-0.946825 h -1.390019 c -0.513702,0 -0.936752,0.423049 -0.936752,0.946825 v 5.650729 c 0,0.523775 0.42305,0.946824 0.936752,0.946824 z m -0.54392,-6.537118 c 0.231669,0 0.302178,0.130944 0.302178,0.241743 v 5.0363 c 0,0.130944 -0.100726,0.241742 -0.23167,0.241742 h -0.423049 c -0.110799,0 -0.221598,-0.130943 -0.221598,-0.241742 v -5.026228 c 0,-0.130943 0.100726,-0.251815 0.221598,-0.251815 z m 8.160903,-1.00726 h -1.208712 v 2.860619 l 0.161162,0.997187 -0.987115,-3.857806 h -1.299366 v 7.544378 h 1.19864 v -2.860619 l -0.161162,-0.997187 0.987115,3.857806 h 1.309438 z"
       id="text10"
       aria-label="STATION" />
  </g>
</svg>
