<?xml version="1.0" encoding="UTF-8" standalone="no"?>
<!-- Created with Inkscape (http://www.inkscape.org/) -->

<svg
   id="svg2"
   sodipodi:version="0.32"
   inkscape:version="1.3.2 (091e20ef0f, 2023-11-25, custom)"
   width="432.22253"
   height="304.54599"
   sodipodi:docname="Mir_variant.svg"
   inkscape:output_extension="org.inkscape.output.svg.inkscape"
   sodipodi:modified="true"
   version="1.0"
   inkscape:export-filename="Mir_insignia.png"
   inkscape:export-xdpi="96"
   inkscape:export-ydpi="96"
   xmlns:inkscape="http://www.inkscape.org/namespaces/inkscape"
   xmlns:sodipodi="http://sodipodi.sourceforge.net/DTD/sodipodi-0.dtd"
   xmlns:xlink="http://www.w3.org/1999/xlink"
   xmlns="http://www.w3.org/2000/svg"
   xmlns:svg="http://www.w3.org/2000/svg"
   xmlns:rdf="http://www.w3.org/1999/02/22-rdf-syntax-ns#"
   xmlns:cc="http://creativecommons.org/ns#"
   xmlns:dc="http://purl.org/dc/elements/1.1/">
  <metadata
     id="metadata7">
    <rdf:RDF>
      <cc:Work
         rdf:about="">
        <dc:format>image/svg+xml</dc:format>
        <dc:type
           rdf:resource="http://purl.org/dc/dcmitype/StillImage" />
        <cc:license
           rdf:resource="http://creativecommons.org/licenses/by/2.0/" />
        <dc:title />
        <dc:date>09.03.2007</dc:date>
        <dc:creator>
          <cc:Agent>
            <dc:title>Yuriy Lapitskiy</dc:title>
          </cc:Agent>
        </dc:creator>
        <dc:rights>
          <cc:Agent>
            <dc:title>NPP Zvezda</dc:title>
          </cc:Agent>
        </dc:rights>
        <dc:publisher>
          <cc:Agent>
            <dc:title>Yuriy Lapitskiy</dc:title>
          </cc:Agent>
        </dc:publisher>
        <dc:subject>
          <rdf:Bag>
            <rdf:li>Logo NPP Zvezda</rdf:li>
          </rdf:Bag>
        </dc:subject>
        <dc:coverage>Logotype</dc:coverage>
      </cc:Work>
      <cc:License
         rdf:about="http://creativecommons.org/licenses/by/2.0/">
        <cc:permits
           rdf:resource="http://web.resource.org/cc/Reproduction" />
        <cc:permits
           rdf:resource="http://web.resource.org/cc/Distribution" />
        <cc:requires
           rdf:resource="http://web.resource.org/cc/Notice" />
        <cc:requires
           rdf:resource="http://web.resource.org/cc/Attribution" />
        <cc:permits
           rdf:resource="http://web.resource.org/cc/DerivativeWorks" />
        <cc:requires
           rdf:resource="http://web.resource.org/cc/ShareAlike" />
      </cc:License>
    </rdf:RDF>
  </metadata>
  <defs
     id="defs5">
    <linearGradient
       id="swatch1">
      <stop
         style="stop-color:#000000;stop-opacity:1;"
         offset="0"
         id="stop1" />
    </linearGradient>
    <linearGradient
       id="swatch18"
       inkscape:swatch="solid">
      <stop
         style="stop-color:#dd43e1;stop-opacity:1;"
         offset="0"
         id="stop18" />
    </linearGradient>
    <linearGradient
       id="swatch10">
      <stop
         style="stop-color:#ffd700;stop-opacity:1;"
         offset="0"
         id="stop10" />
    </linearGradient>
    <linearGradient
       id="swatch9"
       inkscape:swatch="solid">
      <stop
         style="stop-color:#4fd6d4;stop-opacity:1;"
         offset="0"
         id="stop9" />
    </linearGradient>
    <linearGradient
       id="swatch8">
      <stop
         style="stop-color:#cc0000;stop-opacity:1;"
         offset="0"
         id="stop8" />
    </linearGradient>
    <linearGradient
       id="swatch6"
       inkscape:swatch="solid">
      <stop
         style="stop-color:#f3ece7;stop-opacity:1;"
         offset="0"
         id="stop6" />
    </linearGradient>
    <linearGradient
       id="swatch5">
      <stop
         style="stop-color:#f5a9b8;stop-opacity:1;"
         offset="0"
         id="stop5" />
    </linearGradient>
    <linearGradient
       id="swatch4"
       inkscape:swatch="solid">
      <stop
         style="stop-color:#5f5b6a;stop-opacity:1;"
         offset="0"
         id="stop4" />
    </linearGradient>
    <inkscape:path-effect
       effect="spiro"
       id="path-effect4"
       is_visible="true" />
    <inkscape:path-effect
       effect="spiro"
       id="path-effect5234"
       is_visible="true" />
    <inkscape:path-effect
       effect="spiro"
       id="path-effect5208"
       is_visible="true" />
    <inkscape:path-effect
       effect="spiro"
       id="path-effect5204"
       is_visible="true" />
    <inkscape:path-effect
       effect="spiro"
       id="path-effect5200"
       is_visible="true" />
    <inkscape:path-effect
       effect="spiro"
       id="path-effect5195"
       is_visible="true" />
    <inkscape:path-effect
       effect="spiro"
       id="path-effect5187"
       is_visible="true" />
    <inkscape:path-effect
       effect="spiro"
       id="path-effect5159"
       is_visible="true" />
    <inkscape:path-effect
       effect="spiro"
       id="path-effect5146"
       is_visible="true" />
    <inkscape:path-effect
       is_visible="true"
       id="path-effect5136"
       effect="spiro" />
    <inkscape:path-effect
       effect="spiro"
       id="path-effect5110"
       is_visible="true" />
    <inkscape:path-effect
       is_visible="true"
       id="path-effect5064"
       effect="spiro" />
    <inkscape:path-effect
       effect="spiro"
       id="path-effect5060"
       is_visible="true" />
    <inkscape:perspective
       sodipodi:type="inkscape:persp3d"
       inkscape:vp_x="0 : 115 : 1"
       inkscape:vp_y="0 : 1000 : 0"
       inkscape:vp_z="350 : 115 : 1"
       inkscape:persp3d-origin="175 : 76.666667 : 1"
       id="perspective41" />
    <inkscape:perspective
       id="perspective3359"
       inkscape:persp3d-origin="372.04724 : 350.78739 : 1"
       inkscape:vp_z="744.09448 : 526.18109 : 1"
       inkscape:vp_y="0 : 1000 : 0"
       inkscape:vp_x="0 : 526.18109 : 1"
       sodipodi:type="inkscape:persp3d" />
    <clipPath
       clipPathUnits="userSpaceOnUse"
       id="clipPath4533">
      <path
         style="fill:#ffffff;fill-opacity:1;stroke:none"
         d="m 774.96661,674.0127 129.50371,0 0,88.39141 -129.50371,0 z"
         id="path4535"
         inkscape:connector-curvature="0" />
    </clipPath>
    <filter
       inkscape:collect="always"
       id="filter5377"
       color-interpolation-filters="sRGB"
       x="-0.030360028"
       y="-0.044213535"
       width="1.0607201"
       height="1.0884271">
      <feGaussianBlur
         inkscape:collect="always"
         stdDeviation="5.1546306"
         id="feGaussianBlur5379" />
    </filter>
    <linearGradient
       inkscape:collect="always"
       xlink:href="#swatch18"
       id="linearGradient4"
       x1="114.00471"
       y1="151.6675"
       x2="342.71396"
       y2="151.6675"
       gradientUnits="userSpaceOnUse" />
    <linearGradient
       inkscape:collect="always"
       xlink:href="#swatch18"
       id="linearGradient5"
       x1="12.371114"
       y1="152.27299"
       x2="419.85141"
       y2="152.27299"
       gradientUnits="userSpaceOnUse" />
    <linearGradient
       inkscape:collect="always"
       xlink:href="#swatch4"
       id="linearGradient6"
       x1="21.941069"
       y1="152.27188"
       x2="410.27112"
       y2="152.27188"
       gradientUnits="userSpaceOnUse" />
    <linearGradient
       inkscape:collect="always"
       xlink:href="#swatch18"
       id="linearGradient8"
       x1="-375.55859"
       y1="87.655327"
       x2="-115.01647"
       y2="87.655327"
       gradientUnits="userSpaceOnUse" />
    <linearGradient
       inkscape:collect="always"
       xlink:href="#swatch9"
       id="linearGradient9"
       x1="-400.5"
       y1="87.649513"
       x2="-115.01647"
       y2="87.649513"
       gradientUnits="userSpaceOnUse" />
    <linearGradient
       inkscape:collect="always"
       xlink:href="#swatch9"
       id="linearGradient10"
       x1="153.22105"
       y1="188.35725"
       x2="189.90849"
       y2="188.35725"
       gradientUnits="userSpaceOnUse" />
    <linearGradient
       inkscape:collect="always"
       xlink:href="#swatch6"
       id="linearGradient18"
       x1="29.581293"
       y1="139.74818"
       x2="371.22858"
       y2="139.74818"
       gradientUnits="userSpaceOnUse" />
    <linearGradient
       inkscape:collect="always"
       xlink:href="#swatch6"
       id="linearGradient28"
       gradientUnits="userSpaceOnUse"
       x1="29.581293"
       y1="139.74818"
       x2="371.22858"
       y2="139.74818"
       gradientTransform="translate(-6.474237,-1.4187037)" />
    <linearGradient
       inkscape:collect="always"
       xlink:href="#swatch6"
       id="linearGradient29"
       gradientUnits="userSpaceOnUse"
       x1="29.581293"
       y1="139.74818"
       x2="371.22858"
       y2="139.74818" />
    <linearGradient
       inkscape:collect="always"
       xlink:href="#swatch6"
       id="linearGradient1"
       x1="-220.94885"
       y1="-33.69054"
       x2="-184.05235"
       y2="-33.69054"
       gradientUnits="userSpaceOnUse" />
  </defs>
  <sodipodi:namedview
     id="base"
     pagecolor="#ffffff"
     bordercolor="#666666"
     borderopacity="1.0"
     inkscape:pageopacity="0.0"
     inkscape:pageshadow="2"
     inkscape:window-width="1920"
     inkscape:window-height="1008"
     inkscape:zoom="1.4142136"
     inkscape:cx="315.36962"
     inkscape:cy="82.731491"
     inkscape:window-x="0"
     inkscape:window-y="0"
     inkscape:current-layer="svg2"
     showguides="true"
     inkscape:guide-bbox="true"
     height="230px"
     width="350px"
     showgrid="false"
     inkscape:window-maximized="1"
     fit-margin-top="0"
     fit-margin-left="0"
     fit-margin-right="0"
     fit-margin-bottom="0"
     showborder="true"
     inkscape:showpageshadow="2"
     inkscape:pagecheckerboard="0"
     inkscape:deskcolor="#d1d1d1" />
  <g
     inkscape:groupmode="layer"
     id="layer2"
     inkscape:label="notes - deg. angles - M 2. N 11. P 17.5." />
  <path
     inkscape:connector-curvature="0"
     id="path5343"
     d="m 216.09353,12.371114 c -114.21792,0 -198.942402,48.963884 -198.942402,48.963884 a 9.5570105,9.5570105 0 0 0 -4.43513,10.821729 l 51.80237,188.049703 a 9.5570105,9.5570105 0 0 0 4.11581,5.53505 c 0,0 11.60307,7.13687 35.232712,13.62473 23.62962,6.48786 60.07776,12.80867 112.22664,12.80867 52.14886,0 88.62423,-6.32107 112.26212,-12.80867 23.6379,-6.48759 35.23271,-13.62473 35.23271,-13.62473 a 9.5570105,9.5570105 0 0 0 4.11581,-5.53505 L 419.50654,72.156727 a 9.5570105,9.5570105 0 0 0 -4.43513,-10.821729 c 0,0 -84.75995,-48.963884 -198.97788,-48.963884 z"
     style="fill:#000000;fill-opacity:1;stroke:none;filter:url(#filter5377)" />
  <path
     style="display:none;fill:#cc0000;fill-opacity:1;stroke:none"
     d="m 216.09353,12.371114 c -114.21792,0 -198.942402,48.963884 -198.942402,48.963884 a 9.5570105,9.5570105 0 0 0 -4.43513,10.821729 l 51.80237,188.049703 a 9.5570105,9.5570105 0 0 0 4.11581,5.53505 c 0,0 11.60307,7.13687 35.232712,13.62473 23.62962,6.48786 60.07776,12.80867 112.22664,12.80867 52.14886,0 88.62423,-6.32107 112.26212,-12.80867 23.6379,-6.48759 35.23271,-13.62473 35.23271,-13.62473 a 9.5570105,9.5570105 0 0 0 4.11581,-5.53505 L 419.50654,72.156727 a 9.5570105,9.5570105 0 0 0 -4.43513,-10.821729 c 0,0 -84.75995,-48.963884 -198.97788,-48.963884 z"
     id="path5278"
     inkscape:connector-curvature="0" />
  <path
     style="fill:url(#linearGradient5);fill-opacity:1;stroke:none"
     d="m 216.09353,12.371114 c -114.21792,0 -198.942402,48.963884 -198.942402,48.963884 a 9.5570105,9.5570105 0 0 0 -4.43513,10.821729 l 51.80237,188.049703 a 9.5570105,9.5570105 0 0 0 4.11581,5.53505 c 0,0 11.60307,7.13687 35.232712,13.62473 23.62962,6.48786 60.07776,12.80867 112.22664,12.80867 52.14886,0 88.62423,-6.32107 112.26212,-12.80867 23.6379,-6.48759 35.23271,-13.62473 35.23271,-13.62473 a 9.5570105,9.5570105 0 0 0 4.11581,-5.53505 L 419.50654,72.156727 a 9.5570105,9.5570105 0 0 0 -4.43513,-10.821729 c 0,0 -84.75995,-48.963884 -198.97788,-48.963884 z"
     id="path2"
     inkscape:connector-curvature="0"
     inkscape:label="red badge" />
  <path
     style="display:none;fill:#0153a6;fill-opacity:1;stroke:none"
     d="m 21.941068,69.602089 51.79897,188.047451 c 0,0 39.617062,24.97869 142.366062,24.97869 102.749,0 142.36589,-24.97869 142.36589,-24.97869 L 410.27113,69.602089 c 0,0 -82.6719,-47.686569 -194.16504,-47.686569 -111.49311,0 -194.165022,47.686569 -194.165022,47.686569"
     id="path5232"
     inkscape:connector-curvature="0"
     sodipodi:nodetypes="cczcczc" />
  <path
     style="display:inline;fill:url(#linearGradient6);fill-opacity:1;stroke:none"
     d="m 21.941068,69.602089 51.79897,188.047451 c 0,0 39.617062,24.97869 142.366062,24.97869 102.749,0 142.36589,-24.97869 142.36589,-24.97869 L 410.27113,69.602089 c 0,0 -82.6719,-47.686569 -194.16504,-47.686569 -111.49311,0 -194.165022,47.686569 -194.165022,47.686569"
     id="path1"
     inkscape:connector-curvature="0"
     sodipodi:nodetypes="cczcczc"
     inkscape:label="blue badge" />
  <g
     id="g5327"
     style="display:none;fill:#ffffff"
     transform="translate(12.371114,12.371114)">
    <g
       id="g5318"
       style="fill:#ffffff">
      <g
         id="g5074"
         style="fill:#ffffff;stroke:#ffffff;stroke-opacity:1"
         transform="matrix(1.1353945,0,0,1.1353945,495.5188,71.991104)">
        <g
           transform="translate(-64.355562,55.084996)"
           id="g5066"
           style="fill:#ffffff;stroke:#ffffff;stroke-opacity:1">
          <path
             style="color:#000000;font-style:normal;font-variant:normal;font-weight:normal;font-stretch:normal;font-size:medium;line-height:normal;font-family:Sans;-inkscape-font-specification:Sans;text-indent:0;text-align:start;text-decoration:none;text-decoration-line:none;letter-spacing:normal;word-spacing:normal;text-transform:none;writing-mode:lr-tb;direction:ltr;baseline-shift:baseline;text-anchor:start;display:inline;overflow:visible;visibility:visible;fill:#ffffff;fill-opacity:1;stroke:none;stroke-width:3;marker:none;enable-background:accumulate"
             d="m -258,-3.65625 v 59.75 h -99.90625 v 3 H -258 V 118.875 h 3 V 59.09375 h 99.90625 v -3 H -255 v -59.75 z"
             transform="translate(64.355562,-55.084996)"
             id="path5058"
             inkscape:connector-curvature="0" />
        </g>
        <g
           id="g5070"
           style="fill:#ffffff;stroke:#ffffff;stroke-opacity:1">
          <path
             style="color:#000000;font-style:normal;font-variant:normal;font-weight:normal;font-stretch:normal;font-size:medium;line-height:normal;font-family:Sans;-inkscape-font-specification:Sans;text-indent:0;text-align:start;text-decoration:none;text-decoration-line:none;letter-spacing:normal;word-spacing:normal;text-transform:none;writing-mode:lr-tb;direction:ltr;baseline-shift:baseline;text-anchor:start;display:inline;overflow:visible;visibility:visible;fill:#ffffff;fill-opacity:1;stroke:none;stroke-width:0.858115;marker:none;enable-background:accumulate"
             d="m -256.50269,-4.5997995 c -27.95921,0 -53.32693,6.8740666 -71.77795,18.0264255 -18.45102,11.15236 -30.04405,26.715522 -30.04405,44.137431 0,17.421909 11.59303,33.094322 30.04405,44.246683 18.45102,11.15236 43.81874,17.91717 71.77795,17.91717 27.9592,0 53.32693,-6.76481 71.77795,-17.91717 18.45102,-11.152361 30.04404,-26.824774 30.04404,-44.246683 0,-17.421909 -11.59302,-32.985071 -30.04404,-44.137431 -18.45102,-11.1523589 -43.81875,-18.0264255 -71.77795,-18.0264255 z m 0,3.0590298 c 27.46921,0 52.26629,6.6772539 70.13918,17.4801707 17.87289,10.802917 28.73303,25.543944 28.73303,41.624656 0,16.080711 -10.86014,30.821739 -28.73303,41.624656 -17.87289,10.802917 -42.66997,17.589417 -70.13918,17.589417 -27.46922,0 -52.37555,-6.7865 -70.24844,-17.589417 -17.87289,-10.802917 -28.62378,-25.543945 -28.62378,-41.624656 0,-16.080712 10.75089,-30.821739 28.62378,-41.624656 17.87289,-10.8029168 42.77922,-17.4801707 70.24844,-17.4801707 z"
             id="path1298-6"
             inkscape:connector-curvature="0" />
          <path
             style="color:#000000;font-style:normal;font-variant:normal;font-weight:normal;font-stretch:normal;font-size:medium;line-height:normal;font-family:Sans;-inkscape-font-specification:Sans;text-indent:0;text-align:start;text-decoration:none;text-decoration-line:none;letter-spacing:normal;word-spacing:normal;text-transform:none;writing-mode:lr-tb;direction:ltr;baseline-shift:baseline;text-anchor:start;display:inline;overflow:visible;visibility:visible;fill:#ffffff;fill-opacity:1;stroke:none;stroke-width:1.35681;marker:none;enable-background:accumulate"
             d="m -256.53823,-4.5553592 c -34.31336,0 -62.11734,27.8730772 -62.11734,62.1864362 0,34.31336 27.80398,62.117343 62.11734,62.117343 34.31336,0 62.18644,-27.803983 62.18644,-62.117343 0,-34.313359 -27.87308,-62.1864362 -62.18644,-62.1864362 z m 0,2.9711298 c 32.69204,0 59.21531,26.5232704 59.21531,59.2153064 0,32.692046 -26.52327,59.146213 -59.21531,59.146213 -32.69204,0 -59.14621,-26.454167 -59.14621,-59.146213 0,-32.692036 26.45417,-59.2153064 59.14621,-59.2153064 z"
             id="path5056"
             inkscape:connector-curvature="0" />
        </g>
      </g>
      <path
         style="color:#000000;font-style:normal;font-variant:normal;font-weight:normal;font-stretch:normal;font-size:medium;line-height:normal;font-family:Sans;-inkscape-font-specification:Sans;text-indent:0;text-align:start;text-decoration:none;text-decoration-line:none;letter-spacing:normal;word-spacing:normal;text-transform:none;writing-mode:lr-tb;direction:ltr;baseline-shift:baseline;text-anchor:start;display:inline;overflow:visible;visibility:visible;fill:#ffffff;fill-opacity:1;stroke:none;stroke-width:3;marker:none;enable-background:accumulate"
         d="m 170.58309,41.90315 c 0,0 -33.29701,1.716686 -72.203996,13.411847 -38.86827,11.683528 -67.59145,27.107543 -67.59145,27.107543 l -1.20635,0.63866 0.35481,1.312799 41.58382,152.958921 0.1774,0.67414 0.60318,0.35481 c 0,0 8.82178,5.29788 29.449296,10.5024 20.62751,5.20451 53.18694,10.39596 101.12106,10.39596 47.93413,0 80.49356,-5.19145 101.12108,-10.39596 20.62751,-5.20452 29.48477,-10.5024 29.48477,-10.5024 l 0.5677,-0.35481 0.1774,-0.67414 36.65196,-134.6152 0.35481,-1.27732 -1.17087,-0.63866 c 0,0 -4.55809,-2.564719 -16.17937,-6.705925 C 342.25705,89.954608 323.47316,84.17984 294.76686,77.526152 237.2712,64.199523 204.07723,66.846347 204.07723,66.846347 l 0.28384,3.406184 c 0,0 32.54193,-2.665908 89.66068,10.573361 28.60091,6.629261 47.24657,12.409755 58.72119,16.4987 9.57716,3.412788 13.24732,5.252218 14.47628,5.889858 l -36.04878,132.48634 c -0.63712,0.37764 -8.48579,4.9415 -27.99457,9.86374 -20.32262,5.12757 -52.61624,10.28952 -100.30501,10.28952 -47.68875,0 -79.98238,-5.16195 -100.305,-10.28952 -19.447226,-4.90671 -27.275466,-9.42397 -27.959086,-9.82825 L 33.590654,84.799773 C 36.705264,83.158888 63.138384,69.470996 99.372564,58.579256 137.85453,47.011852 170.76049,45.309333 170.76049,45.309333 Z"
         id="path5206"
         inkscape:connector-curvature="0" />
    </g>
    <g
       id="text5211"
       style="font-style:normal;font-weight:normal;font-size:53.3644px;line-height:125%;font-family:Sans;letter-spacing:0px;word-spacing:0px;fill:#ffffff;fill-opacity:1;stroke:none"
       transform="matrix(1.3471465,0.05480973,-0.03886899,0.95534542,493.97638,82.849259)">
      <path
         sodipodi:nodetypes="ccccccccccccc"
         inkscape:connector-curvature="0"
         id="path5220"
         style="font-variant:normal;font-weight:bold;font-stretch:normal;font-family:Arial;-inkscape-font-specification:'Arial Bold';letter-spacing:4.11px;fill:#ffffff"
         d="m -217.04471,-14.888194 v -38.199345 h 11.54319 l 6.93112,16.556993 6.85295,-16.556993 h 11.56924 v 38.199345 h -8.84987 v -20.569748 l -9.6114,20.569748 -9.58535,-20.569748 v 20.569748 z" />
    </g>
    <g
       transform="matrix(1.323149,0.25900659,-0.18367772,0.93832732,489.12313,120.38862)"
       style="font-style:normal;font-weight:normal;font-size:53.3644px;line-height:125%;font-family:Sans;letter-spacing:0px;word-spacing:0px;fill:#ffffff;fill-opacity:1;stroke:none"
       id="g5239">
      <path
         d="m -168.22115,-53.087539 h 8.90199 v 20.681557 l 12.10929,-20.681557 h 9.37101 v 38.199345 h -8.90199 v -20.186478 l -12.08323,20.186478 h -9.39707 z"
         style="font-variant:normal;font-weight:bold;font-stretch:normal;font-family:Arial;-inkscape-font-specification:'Arial Bold';letter-spacing:4.11px;fill:#ffffff"
         id="path5243"
         inkscape:connector-curvature="0"
         sodipodi:nodetypes="ccccccccccc" />
    </g>
    <g
       transform="matrix(1.2865426,0.40325623,-0.28597411,0.91236755,482.95311,140.49249)"
       style="font-style:normal;font-weight:normal;font-size:53.3644px;line-height:125%;font-family:Sans;letter-spacing:0px;word-spacing:0px;fill:#ffffff;fill-opacity:1;stroke:none"
       id="g5247">
      <path
         d="m -125.85969,-14.888194 v -38.199345 h 12.377 c 8.08313,0.185613 15.200606,0.541071 15.200606,14.126605 0,13.585534 -10.994226,14.413231 -18.180546,14.413231 v 9.659509 z m 9.39706,-29.362281 v 10.83965 c 0,0 8.54896,1.680388 8.54896,-5.445882 0,-7.126271 -8.54896,-5.393768 -8.54896,-5.393768 z"
         style="font-variant:normal;font-weight:bold;font-stretch:normal;font-family:Arial;-inkscape-font-specification:'Arial Bold';letter-spacing:4.11px;fill:#ffffff"
         id="path5251"
         inkscape:connector-curvature="0"
         sodipodi:nodetypes="ccczccccczc" />
    </g>
  </g>
  <g
     id="g18"
     style="fill:url(#linearGradient18);fill-opacity:1"
     transform="translate(12.371114,12.371114)"
     inkscape:label="white lines">
    <g
       id="g14"
       style="fill:url(#linearGradient18);fill-opacity:1">
      <g
         id="g13"
         style="fill:url(#linearGradient18);stroke:#ffffff;stroke-opacity:1;fill-opacity:1"
         transform="matrix(1.1353945,0,0,1.1353945,495.5188,71.991104)">
        <g
           transform="translate(-64.355562,55.084996)"
           id="g10"
           style="fill:url(#linearGradient18);stroke:#ffffff;stroke-opacity:1;fill-opacity:1">
          <path
             style="font-size:medium;font-style:normal;font-variant:normal;font-weight:normal;font-stretch:normal;text-indent:0;text-align:start;text-decoration:none;line-height:normal;letter-spacing:normal;word-spacing:normal;text-transform:none;direction:ltr;block-progression:tb;writing-mode:lr-tb;text-anchor:start;baseline-shift:baseline;color:#000000;fill:url(#linearGradient18);fill-opacity:1;stroke:none;stroke-width:3;marker:none;visibility:visible;display:inline;overflow:visible;enable-background:accumulate;font-family:Sans;-inkscape-font-specification:Sans"
             d="m -258,-3.65625 0,59.75 -99.90625,0 0,3 99.90625,0 0,59.78125 3,0 0,-59.78125 99.90625,0 0,-3 -99.90625,0 0,-59.75 -3,0 z"
             transform="translate(64.355562,-55.084996)"
             id="path10"
             inkscape:connector-curvature="0" />
        </g>
        <g
           id="g12"
           style="fill:url(#linearGradient18);stroke:#ffffff;stroke-opacity:1;fill-opacity:1">
          <path
             style="font-size:medium;font-style:normal;font-variant:normal;font-weight:normal;font-stretch:normal;text-indent:0;text-align:start;text-decoration:none;line-height:normal;letter-spacing:normal;word-spacing:normal;text-transform:none;direction:ltr;block-progression:tb;writing-mode:lr-tb;text-anchor:start;baseline-shift:baseline;color:#000000;fill:url(#linearGradient18);fill-opacity:1;stroke:none;stroke-width:0.8581152;marker:none;visibility:visible;display:inline;overflow:visible;enable-background:accumulate;font-family:Sans;-inkscape-font-specification:Sans"
             d="m -256.50269,-4.5997995 c -27.95921,0 -53.32693,6.8740666 -71.77795,18.0264255 -18.45102,11.15236 -30.04405,26.715522 -30.04405,44.137431 0,17.421909 11.59303,33.094322 30.04405,44.246683 18.45102,11.15236 43.81874,17.91717 71.77795,17.91717 27.9592,0 53.32693,-6.76481 71.77795,-17.91717 18.45102,-11.152361 30.04404,-26.824774 30.04404,-44.246683 0,-17.421909 -11.59302,-32.985071 -30.04404,-44.137431 -18.45102,-11.1523589 -43.81875,-18.0264255 -71.77795,-18.0264255 z m 0,3.0590298 c 27.46921,0 52.26629,6.6772539 70.13918,17.4801707 17.87289,10.802917 28.73303,25.543944 28.73303,41.624656 0,16.080711 -10.86014,30.821739 -28.73303,41.624656 -17.87289,10.802917 -42.66997,17.589417 -70.13918,17.589417 -27.46922,0 -52.37555,-6.7865 -70.24844,-17.589417 -17.87289,-10.802917 -28.62378,-25.543945 -28.62378,-41.624656 0,-16.080712 10.75089,-30.821739 28.62378,-41.624656 17.87289,-10.8029168 42.77922,-17.4801707 70.24844,-17.4801707 z"
             id="path11"
             inkscape:connector-curvature="0" />
          <path
             style="font-size:medium;font-style:normal;font-variant:normal;font-weight:normal;font-stretch:normal;text-indent:0;text-align:start;text-decoration:none;line-height:normal;letter-spacing:normal;word-spacing:normal;text-transform:none;direction:ltr;block-progression:tb;writing-mode:lr-tb;text-anchor:start;baseline-shift:baseline;color:#000000;fill:url(#linearGradient18);fill-opacity:1;stroke:none;stroke-width:1.35680711;marker:none;visibility:visible;display:inline;overflow:visible;enable-background:accumulate;font-family:Sans;-inkscape-font-specification:Sans"
             d="m -256.53823,-4.5553592 c -34.31336,0 -62.11734,27.8730772 -62.11734,62.1864362 0,34.31336 27.80398,62.117343 62.11734,62.117343 34.31336,0 62.18644,-27.803983 62.18644,-62.117343 0,-34.313359 -27.87308,-62.1864362 -62.18644,-62.1864362 z m 0,2.9711298 c 32.69204,0 59.21531,26.5232704 59.21531,59.2153064 0,32.692046 -26.52327,59.146213 -59.21531,59.146213 -32.69204,0 -59.14621,-26.454167 -59.14621,-59.146213 0,-32.692036 26.45417,-59.2153064 59.14621,-59.2153064 z"
             id="path12"
             inkscape:connector-curvature="0" />
        </g>
      </g>
      <path
         style="font-size:medium;font-style:normal;font-variant:normal;font-weight:normal;font-stretch:normal;text-indent:0;text-align:start;text-decoration:none;line-height:normal;letter-spacing:normal;word-spacing:normal;text-transform:none;direction:ltr;block-progression:tb;writing-mode:lr-tb;text-anchor:start;baseline-shift:baseline;color:#000000;fill:url(#linearGradient18);fill-opacity:1;stroke:none;stroke-width:3;marker:none;visibility:visible;display:inline;overflow:visible;enable-background:accumulate;font-family:Sans;-inkscape-font-specification:Sans"
         d="m 170.58309,41.90315 c 0,0 -33.29701,1.716686 -72.203996,13.411847 -38.86827,11.683528 -67.59145,27.107543 -67.59145,27.107543 l -1.20635,0.63866 0.35481,1.312799 41.58382,152.958921 0.1774,0.67414 0.60318,0.35481 c 0,0 8.82178,5.29788 29.449296,10.5024 20.62751,5.20451 53.18694,10.39596 101.12106,10.39596 47.93413,0 80.49356,-5.19145 101.12108,-10.39596 20.62751,-5.20452 29.48477,-10.5024 29.48477,-10.5024 l 0.5677,-0.35481 0.1774,-0.67414 36.65196,-134.6152 0.35481,-1.27732 -1.17087,-0.63866 c 0,0 -4.55809,-2.564719 -16.17937,-6.705925 C 342.25705,89.954608 323.47316,84.17984 294.76686,77.526152 237.2712,64.199523 204.07723,66.846347 204.07723,66.846347 l 0.28384,3.406184 c 0,0 32.54193,-2.665908 89.66068,10.573361 28.60091,6.629261 47.24657,12.409755 58.72119,16.4987 9.57716,3.412788 13.24732,5.252218 14.47628,5.889858 l -36.04878,132.48634 c -0.63712,0.37764 -8.48579,4.9415 -27.99457,9.86374 -20.32262,5.12757 -52.61624,10.28952 -100.30501,10.28952 -47.68875,0 -79.98238,-5.16195 -100.305,-10.28952 -19.447226,-4.90671 -27.275466,-9.42397 -27.959086,-9.82825 L 33.590654,84.799773 C 36.705264,83.158888 63.138384,69.470996 99.372564,58.579256 137.85453,47.011852 170.76049,45.309333 170.76049,45.309333 l -0.1774,-3.406183 z"
         id="path13"
         inkscape:connector-curvature="0" />
    </g>
    <g
       transform="matrix(1.3464304,0.07023504,-0.04980806,0.95483759,439.00495,83.766535)"
       style="font-style:normal;font-weight:normal;font-size:53.3644px;line-height:125%;font-family:Sans;letter-spacing:0px;word-spacing:0px;fill:url(#linearGradient29);fill-opacity:1;stroke:none"
       id="g16">
      <path
         d="m -153.68411,-54.506243 h 9.37101 v 38.199345 h -8.90199 v -20.186478 z"
         style="font-variant:normal;font-weight:bold;font-stretch:normal;font-family:Arial;-inkscape-font-specification:'Arial Bold';letter-spacing:4.11px;fill:url(#linearGradient28);fill-opacity:1"
         id="path15"
         inkscape:connector-curvature="0"
         sodipodi:nodetypes="cccccc" />
    </g>
    <g
       id="g15"
       style="font-style:normal;font-weight:normal;font-size:53.3644px;line-height:125%;font-family:Sans;letter-spacing:0px;word-spacing:0px;fill:url(#linearGradient1);fill-opacity:1;stroke:none"
       transform="matrix(1.3208314,0.27057778,-0.19188355,0.93668371,549.62205,134.15356)">
      <path
         sodipodi:nodetypes="ccccccccccccc"
         inkscape:connector-curvature="0"
         id="path14"
         style="font-variant:normal;font-weight:bold;font-stretch:normal;font-family:Arial;-inkscape-font-specification:'Arial Bold';letter-spacing:4.11px;fill:url(#linearGradient1);fill-opacity:1"
         d="m -220.94885,-14.590869 v -38.199345 h 11.54319 l 6.93112,16.556993 6.85295,-16.556993 h 11.56924 v 38.199345 h -8.84987 v -20.569748 l -9.6114,20.569748 -9.58535,-20.569748 v 20.569748 z" />
    </g>
    <g
       transform="matrix(1.2865426,0.40325623,-0.28597411,0.91236755,482.95311,140.49249)"
       style="font-size:53.36443329px;font-style:normal;font-weight:normal;line-height:125%;letter-spacing:0px;word-spacing:0px;fill:url(#linearGradient18);fill-opacity:1;stroke:none;font-family:Sans"
       id="g17">
      <path
         d="m -125.85969,-14.888194 0,-38.199345 12.377,0 c 8.08313,0.185613 15.200606,0.541071 15.200606,14.126605 0,13.585534 -10.994226,14.413231 -18.180546,14.413231 l 0,9.659509 z m 9.39706,-29.362281 0,10.83965 c 0,0 8.54896,1.680388 8.54896,-5.445882 0,-7.126271 -8.54896,-5.393768 -8.54896,-5.393768 z"
         style="font-variant:normal;font-weight:bold;font-stretch:normal;letter-spacing:4.11000013px;fill:url(#linearGradient18);font-family:Arial;-inkscape-font-specification:Arial Bold;fill-opacity:1"
         id="path16"
         inkscape:connector-curvature="0"
         sodipodi:nodetypes="ccczccccczc"
         inkscape:label="path16" />
    </g>
  </g>
  <g
     id="g5173"
     transform="matrix(1.1353945,0,0,1.1353945,507.88991,84.362218)"
     style="display:none">
    <path
       id="path5161"
       d="M -400.5,31.63322 -145.51283,143.6658 -303.37502,47.996537 -115.01647,31.63322 H -400.5"
       style="fill:#ffd700;fill-opacity:1;stroke:none"
       inkscape:connector-curvature="0"
       sodipodi:nodetypes="ccccc" />
    <path
       sodipodi:nodetypes="ccccc"
       inkscape:connector-curvature="0"
       id="path5170"
       d="M -115.01647,31.625 -375.55859,42.59375 -145.4817,143.68566 -328.09375,50.15625 Z"
       style="fill:#cc0000;fill-opacity:1;stroke:none" />
  </g>
  <g
     id="g8"
     transform="matrix(1.1353945,0,0,1.1353945,507.88991,84.362218)"
     inkscape:label="arrow left">
    <path
       id="path7"
       d="m -400.5,31.63322 254.98717,112.03258 -157.86219,-95.669263 188.35855,-16.363317 -285.48353,0"
       style="fill:url(#linearGradient9);fill-opacity:1;stroke:none"
       inkscape:connector-curvature="0"
       sodipodi:nodetypes="ccccc" />
    <path
       sodipodi:nodetypes="ccccc"
       inkscape:connector-curvature="0"
       id="path8"
       d="M -115.01647,31.625 -375.55859,42.59375 -145.4817,143.68566 -328.09375,50.15625 z"
       style="fill:url(#linearGradient8);fill-opacity:1;stroke:none" />
  </g>
  <path
     style="display:none;fill:#ffd700;fill-opacity:1;stroke:none"
     d="m 153.22105,109.97955 36.68744,156.7554 -21.11125,-145.54338 z"
     id="path5144"
     inkscape:connector-curvature="0" />
  <path
     style="fill:url(#linearGradient10);fill-opacity:1;stroke:none"
     d="m 153.22105,109.97955 36.68744,156.7554 -21.11125,-145.54338 -15.57619,-11.21202 z"
     id="path4"
     inkscape:connector-curvature="0"
     inkscape:label="yellow arrow up" />
  <text
     xml:space="preserve"
     style="font-size:45.41577911px;font-style:normal;font-weight:normal;line-height:125%;letter-spacing:0px;word-spacing:0px;fill:#000000;fill-opacity:1;stroke:none;font-family:Sans"
     x="271.85345"
     y="51.661633"
     id="text5215"><tspan
       sodipodi:role="line"
       id="tspan5217"
       x="271.85345"
       y="51.661633">  </tspan></text>
  <path
     style="display:none;fill:#cc0000;fill-opacity:1;stroke:none"
     d="M 114.00471,36.602273 189.89151,266.7327 153.20788,109.96377 342.71395,247.51504 Z"
     id="path5108"
     inkscape:path-effect="#path-effect5110"
     inkscape:original-d="M 114.00471,36.602273 189.89151,266.7327 153.20788,109.96377 342.71395,247.51504 Z"
     inkscape:connector-curvature="0"
     sodipodi:nodetypes="ccccc" />
  <path
     style="fill:url(#linearGradient4);fill-opacity:1;stroke:none"
     d="M 114.00471,36.602273 189.89151,266.7327 153.20788,109.96377 342.71395,247.51504 Z"
     id="path3"
     inkscape:path-effect="#path-effect4"
     inkscape:original-d="M 114.00471,36.602273 189.89151,266.7327 153.20788,109.96377 342.71395,247.51504 z"
     inkscape:connector-curvature="0"
     sodipodi:nodetypes="ccccc"
     inkscape:label="red arrow up" />
</svg>
